G04*
G04 #@! TF.GenerationSoftware,Altium Limited,Altium Designer,25.6.2 (33)*
G04*
G04 Layer_Color=0*
%FSLAX45Y45*%
%MOMM*%
G71*
G04*
G04 #@! TF.SameCoordinates,3D56E31B-A275-419E-B35D-2D0504C2B70A*
G04*
G04*
G04 #@! TF.FilePolarity,Positive*
G04*
G01*
G75*
%ADD10C,0.10000*%
%ADD11C,0.05000*%
%ADD12C,1.00000*%
%ADD13C,0.90000*%
%ADD14R,16.00000X1.00000*%
G36*
X13665694Y5932383D02*
X13665694Y5932013D01*
X13665694Y5930902D01*
X13665321Y5929421D01*
X13664952Y5925717D01*
X13664581Y5920162D01*
X13664211Y5913867D01*
X13663470Y5906090D01*
X13663100Y5897572D01*
X13662360Y5887944D01*
X13661620Y5877204D01*
X13660878Y5866094D01*
X13660138Y5854614D01*
X13659396Y5842393D01*
X13657916Y5816840D01*
X13656435Y5790917D01*
X13656435Y5790546D01*
X13656435Y5790176D01*
X13656435Y5787954D01*
X13656064Y5784251D01*
X13656064Y5779436D01*
X13655695Y5773881D01*
X13655322Y5767215D01*
X13654953Y5759809D01*
X13654584Y5752032D01*
X13654584Y5743884D01*
X13654211Y5735367D01*
X13653471Y5717961D01*
X13653101Y5709443D01*
X13653101Y5701296D01*
X13652731Y5693890D01*
X13652731Y5686853D01*
X13655695Y5686853D01*
X13659027Y5686483D01*
X13669395Y5686483D01*
X13675691Y5686113D01*
X13712724Y5686113D01*
X13714206Y5686483D01*
X13716058Y5686483D01*
X13718280Y5686853D01*
X13721242Y5686853D01*
X13724947Y5687224D01*
X13724947Y5686853D01*
X13724947Y5685372D01*
X13724947Y5683150D01*
X13724574Y5680187D01*
X13724574Y5676484D01*
X13724574Y5671670D01*
X13724205Y5666855D01*
X13724205Y5660930D01*
X13724205Y5654634D01*
X13723836Y5647968D01*
X13723836Y5640932D01*
X13723836Y5633155D01*
X13723463Y5617231D01*
X13723463Y5600566D01*
X13723463Y5584642D01*
X13721242Y5584642D01*
X13719762Y5585012D01*
X13711984Y5585012D01*
X13708281Y5585382D01*
X13694949Y5585382D01*
X13689394Y5585753D01*
X13649397Y5585753D01*
X13649397Y5585382D01*
X13649397Y5584271D01*
X13649028Y5582049D01*
X13649028Y5579087D01*
X13648657Y5575383D01*
X13648657Y5570569D01*
X13648286Y5565014D01*
X13647917Y5558348D01*
X13647546Y5550941D01*
X13647546Y5542053D01*
X13647176Y5532425D01*
X13646806Y5521685D01*
X13646806Y5509835D01*
X13646436Y5496873D01*
X13646436Y5482800D01*
X13646436Y5467246D01*
X13629770Y5467246D01*
X13624956Y5467617D01*
X13530891Y5467617D01*
X13517189Y5467246D01*
X13502376Y5467246D01*
X13502376Y5467617D01*
X13502376Y5468728D01*
X13502747Y5470209D01*
X13502747Y5472431D01*
X13503117Y5475394D01*
X13503487Y5478727D01*
X13503857Y5482430D01*
X13504228Y5486504D01*
X13504597Y5490948D01*
X13504968Y5496132D01*
X13505708Y5506872D01*
X13506821Y5518723D01*
X13507561Y5531314D01*
X13507561Y5531684D01*
X13507561Y5532795D01*
X13507932Y5534647D01*
X13507932Y5536869D01*
X13508301Y5539831D01*
X13508301Y5543164D01*
X13508672Y5546868D01*
X13509042Y5550941D01*
X13509782Y5559459D01*
X13510153Y5568717D01*
X13510893Y5577605D01*
X13511264Y5585753D01*
X13473862Y5585382D01*
X13446086Y5585382D01*
X13317950Y5583531D01*
X13318690Y5593900D01*
X13318690Y5594270D01*
X13318690Y5594641D01*
X13318690Y5596122D01*
X13319061Y5597974D01*
X13319061Y5600936D01*
X13319432Y5605010D01*
X13319432Y5609824D01*
X13319801Y5616120D01*
X13322765Y5680928D01*
X13322765Y5681298D01*
X13322765Y5682409D01*
X13322765Y5684261D01*
X13323135Y5686483D01*
X13323135Y5689446D01*
X13323135Y5692408D01*
X13323135Y5699445D01*
X13323506Y5699815D01*
X13324617Y5701296D01*
X13326468Y5703889D01*
X13329060Y5706851D01*
X13332394Y5711295D01*
X13336467Y5716109D01*
X13340910Y5722035D01*
X13346095Y5728330D01*
X13351651Y5735737D01*
X13357947Y5743514D01*
X13364243Y5752402D01*
X13371278Y5761660D01*
X13378685Y5771289D01*
X13386462Y5781658D01*
X13394609Y5792768D01*
X13403127Y5804248D01*
X13403497Y5804989D01*
X13405350Y5807211D01*
X13407571Y5810544D01*
X13410904Y5814988D01*
X13414978Y5820913D01*
X13419792Y5827579D01*
X13424977Y5835356D01*
X13430902Y5843874D01*
X13437569Y5853132D01*
X13444234Y5863131D01*
X13451640Y5873871D01*
X13459047Y5884981D01*
X13466454Y5896461D01*
X13474231Y5908312D01*
X13489784Y5932754D01*
X13503117Y5932754D01*
X13508672Y5932383D01*
X13536076Y5932383D01*
X13552000Y5932013D01*
X13615327Y5932013D01*
X13621623Y5932383D01*
X13650139Y5932383D01*
X13665694Y5932754D01*
X13665694Y5932383D01*
X13665694Y5932383D02*
G37*
G36*
X13256476Y5932383D02*
X13256476Y5931272D01*
X13256476Y5929791D01*
X13256105Y5927569D01*
X13256105Y5924977D01*
X13255734Y5921644D01*
X13255734Y5917940D01*
X13255365Y5913496D01*
X13254994Y5908682D01*
X13254994Y5903497D01*
X13254623Y5897942D01*
X13254254Y5892017D01*
X13253513Y5879056D01*
X13252773Y5864983D01*
X13252032Y5849799D01*
X13251662Y5833875D01*
X13250922Y5817580D01*
X13250180Y5800915D01*
X13248698Y5767215D01*
X13248328Y5750921D01*
X13247958Y5734996D01*
X13247958Y5734626D01*
X13247958Y5733145D01*
X13247958Y5730923D01*
X13247958Y5727960D01*
X13247588Y5724257D01*
X13247588Y5719813D01*
X13247588Y5714628D01*
X13247217Y5708703D01*
X13247217Y5702407D01*
X13246848Y5695741D01*
X13246848Y5688335D01*
X13246477Y5680558D01*
X13246106Y5664263D01*
X13245737Y5646857D01*
X13245366Y5628341D01*
X13244995Y5609824D01*
X13244624Y5591308D01*
X13244255Y5573161D01*
X13243884Y5555756D01*
X13243884Y5547608D01*
X13243884Y5539831D01*
X13243513Y5532425D01*
X13243513Y5525388D01*
X13243513Y5518723D01*
X13243513Y5512797D01*
X13243513Y5512057D01*
X13243513Y5510205D01*
X13243513Y5507242D01*
X13243513Y5505020D01*
X13243513Y5502428D01*
X13243513Y5499465D01*
X13243884Y5496132D01*
X13243884Y5492429D01*
X13243884Y5488355D01*
X13243884Y5483541D01*
X13243884Y5478727D01*
X13244255Y5473172D01*
X13244255Y5467246D01*
X13224257Y5467246D01*
X13219443Y5467617D01*
X13143153Y5467617D01*
X13130563Y5467246D01*
X13116859Y5467246D01*
X13116859Y5467617D01*
X13116859Y5468728D01*
X13117232Y5470950D01*
X13117232Y5473912D01*
X13117601Y5477986D01*
X13117970Y5482800D01*
X13118343Y5489466D01*
X13118712Y5496873D01*
X13119083Y5505761D01*
X13119453Y5510946D01*
X13119823Y5516130D01*
X13119823Y5522056D01*
X13120193Y5527981D01*
X13120564Y5534647D01*
X13120934Y5541683D01*
X13120934Y5549090D01*
X13121304Y5556867D01*
X13121675Y5565014D01*
X13122044Y5573902D01*
X13122415Y5582790D01*
X13122786Y5592419D01*
X13123157Y5602418D01*
X13123526Y5613157D01*
X13123526Y5613528D01*
X13123526Y5614639D01*
X13123526Y5616120D01*
X13123897Y5618342D01*
X13123897Y5620934D01*
X13123897Y5623897D01*
X13123897Y5627600D01*
X13124268Y5631674D01*
X13124268Y5636118D01*
X13124637Y5640932D01*
X13125008Y5651301D01*
X13125378Y5662782D01*
X13125748Y5675003D01*
X13126118Y5687224D01*
X13126489Y5699815D01*
X13126489Y5712406D01*
X13126859Y5724257D01*
X13127229Y5734996D01*
X13127600Y5744995D01*
X13127600Y5749439D01*
X13127600Y5753513D01*
X13127600Y5757216D01*
X13127600Y5760549D01*
X13127600Y5761290D01*
X13127600Y5763142D01*
X13127600Y5766475D01*
X13127600Y5770548D01*
X13127600Y5776103D01*
X13127229Y5782769D01*
X13127229Y5790546D01*
X13126859Y5799434D01*
X13082050Y5660930D01*
X13017982Y5467246D01*
X12998354Y5467246D01*
X12993539Y5467617D01*
X12920955Y5467617D01*
X12914659Y5467246D01*
X12892439Y5467246D01*
X12850221Y5654634D01*
X12825780Y5754624D01*
X12825780Y5754994D01*
X12825409Y5755735D01*
X12825409Y5756846D01*
X12824669Y5758327D01*
X12824298Y5760549D01*
X12823927Y5762771D01*
X12822447Y5768697D01*
X12822447Y5769067D01*
X12822076Y5770548D01*
X12821706Y5772770D01*
X12821336Y5775733D01*
X12820595Y5780177D01*
X12819484Y5785362D01*
X12818742Y5791657D01*
X12817262Y5799064D01*
X12808743Y5704259D01*
X12797264Y5510575D01*
X12796523Y5467246D01*
X12776155Y5467246D01*
X12771341Y5467617D01*
X12702829Y5467617D01*
X12696904Y5467246D01*
X12675054Y5467246D01*
X12683202Y5536128D01*
X12704311Y5774992D01*
X12715050Y5932754D01*
X12730604Y5932754D01*
X12736900Y5932383D01*
X12766526Y5932383D01*
X12783191Y5932013D01*
X12842075Y5932013D01*
X12848740Y5932383D01*
X12883182Y5932383D01*
X12893550Y5932754D01*
X12904660Y5932754D01*
X12904660Y5932383D01*
X12905031Y5931643D01*
X12905031Y5929791D01*
X12905402Y5927939D01*
X12905771Y5925347D01*
X12906142Y5922755D01*
X12907253Y5916089D01*
X12908363Y5908682D01*
X12909476Y5901275D01*
X12910587Y5894239D01*
X12911697Y5887944D01*
X12911697Y5887203D01*
X12912067Y5886092D01*
X12912437Y5884981D01*
X12912808Y5883129D01*
X12913548Y5880907D01*
X12913919Y5877945D01*
X12915030Y5874982D01*
X12915770Y5871279D01*
X12916881Y5866835D01*
X12917992Y5862020D01*
X12919473Y5856465D01*
X12920955Y5850540D01*
X12922807Y5843874D01*
X12924658Y5836467D01*
X12926880Y5828690D01*
X12926880Y5828320D01*
X12927251Y5826839D01*
X12927991Y5824246D01*
X12929102Y5821284D01*
X12929843Y5817580D01*
X12931323Y5813136D01*
X12932436Y5807952D01*
X12933916Y5802767D01*
X12935397Y5796842D01*
X12936879Y5790546D01*
X12940211Y5777955D01*
X12943546Y5764993D01*
X12946507Y5752402D01*
X12946507Y5752032D01*
X12946878Y5750921D01*
X12947247Y5749069D01*
X12947989Y5746106D01*
X12948730Y5742403D01*
X12949471Y5737959D01*
X12950581Y5732774D01*
X12952063Y5726479D01*
X12953545Y5719442D01*
X12955025Y5711295D01*
X12956877Y5702407D01*
X12958730Y5692408D01*
X12960951Y5681298D01*
X12963173Y5669077D01*
X12965765Y5656116D01*
X12968356Y5642043D01*
X12968356Y5642784D01*
X12969098Y5644265D01*
X12969839Y5647228D01*
X12970950Y5650931D01*
X12972430Y5655745D01*
X12973912Y5660930D01*
X12975394Y5666855D01*
X12977615Y5673521D01*
X12979466Y5680558D01*
X12981689Y5687964D01*
X12986504Y5703148D01*
X12990948Y5719072D01*
X12995763Y5733885D01*
X12995763Y5734256D01*
X12996503Y5735737D01*
X12996873Y5737959D01*
X12997984Y5740922D01*
X12999095Y5744255D01*
X13000575Y5748699D01*
X13002428Y5753883D01*
X13004280Y5759438D01*
X13006502Y5765734D01*
X13008723Y5772400D01*
X13011316Y5779807D01*
X13013908Y5787213D01*
X13016872Y5795361D01*
X13019833Y5803878D01*
X13026498Y5821654D01*
X13026871Y5822395D01*
X13027240Y5823876D01*
X13028351Y5826468D01*
X13029462Y5829431D01*
X13030943Y5833505D01*
X13032796Y5837949D01*
X13034276Y5843133D01*
X13036497Y5848318D01*
X13040202Y5859058D01*
X13044275Y5869797D01*
X13045757Y5874612D01*
X13047607Y5879056D01*
X13048718Y5882759D01*
X13049831Y5886092D01*
X13050201Y5886833D01*
X13050571Y5889055D01*
X13051682Y5892388D01*
X13053534Y5897572D01*
X13054274Y5900535D01*
X13055385Y5904238D01*
X13056496Y5907941D01*
X13057607Y5912015D01*
X13059090Y5916829D01*
X13060570Y5921644D01*
X13062051Y5927199D01*
X13063533Y5932754D01*
X13076865Y5932754D01*
X13082420Y5932383D01*
X13110565Y5932383D01*
X13118712Y5932013D01*
X13193890Y5932013D01*
X13200926Y5932383D01*
X13235367Y5932383D01*
X13245737Y5932754D01*
X13256476Y5932754D01*
X13256476Y5932383D01*
X13256476Y5932383D02*
G37*
G36*
X13264809Y7332383D02*
X13264809Y7331272D01*
X13264809Y7329791D01*
X13264438Y7327569D01*
X13264438Y7324977D01*
X13264067Y7321644D01*
X13264067Y7317940D01*
X13263696Y7313496D01*
X13263327Y7308682D01*
X13263327Y7303497D01*
X13262956Y7297942D01*
X13262585Y7292017D01*
X13261845Y7279056D01*
X13261105Y7264983D01*
X13260364Y7249799D01*
X13259995Y7233875D01*
X13259253Y7217580D01*
X13258511Y7200915D01*
X13257031Y7167215D01*
X13256660Y7150921D01*
X13256290Y7134996D01*
X13256290Y7134626D01*
X13256290Y7133145D01*
X13256290Y7130923D01*
X13256290Y7127960D01*
X13255920Y7124257D01*
X13255920Y7119813D01*
X13255920Y7114628D01*
X13255550Y7108703D01*
X13255550Y7102407D01*
X13255179Y7095741D01*
X13255179Y7088335D01*
X13254810Y7080558D01*
X13254439Y7064263D01*
X13254068Y7046857D01*
X13253699Y7028341D01*
X13253328Y7009824D01*
X13252957Y6991308D01*
X13252586Y6973161D01*
X13252217Y6955756D01*
X13252217Y6947608D01*
X13252217Y6939831D01*
X13251846Y6932425D01*
X13251846Y6925388D01*
X13251846Y6918723D01*
X13251846Y6912797D01*
X13251846Y6912057D01*
X13251846Y6910205D01*
X13251846Y6907242D01*
X13251846Y6905020D01*
X13251846Y6902428D01*
X13251846Y6899465D01*
X13252217Y6896132D01*
X13252217Y6892429D01*
X13252217Y6888355D01*
X13252217Y6883541D01*
X13252217Y6878727D01*
X13252586Y6873172D01*
X13252586Y6867246D01*
X13232590Y6867246D01*
X13227776Y6867617D01*
X13151488Y6867617D01*
X13138895Y6867246D01*
X13125192Y6867246D01*
X13125192Y6867617D01*
X13125192Y6868728D01*
X13125563Y6870950D01*
X13125563Y6873912D01*
X13125934Y6877986D01*
X13126305Y6882800D01*
X13126674Y6889466D01*
X13127045Y6896873D01*
X13127415Y6905761D01*
X13127785Y6910946D01*
X13128156Y6916130D01*
X13128156Y6922055D01*
X13128526Y6927981D01*
X13128896Y6934647D01*
X13129266Y6941683D01*
X13129266Y6949090D01*
X13129637Y6956867D01*
X13130006Y6965014D01*
X13130379Y6973902D01*
X13130748Y6982790D01*
X13131117Y6992419D01*
X13131490Y7002418D01*
X13131859Y7013157D01*
X13131859Y7013528D01*
X13131859Y7014638D01*
X13131859Y7016120D01*
X13132230Y7018342D01*
X13132230Y7020934D01*
X13132230Y7023897D01*
X13132230Y7027600D01*
X13132600Y7031674D01*
X13132600Y7036118D01*
X13132970Y7040932D01*
X13133340Y7051301D01*
X13133711Y7062782D01*
X13134081Y7075003D01*
X13134451Y7087224D01*
X13134822Y7099815D01*
X13134822Y7112406D01*
X13135191Y7124257D01*
X13135562Y7134996D01*
X13135933Y7144995D01*
X13135933Y7149439D01*
X13135933Y7153513D01*
X13135933Y7157216D01*
X13135933Y7160549D01*
X13135933Y7161290D01*
X13135933Y7163142D01*
X13135933Y7166475D01*
X13135933Y7170548D01*
X13135933Y7176103D01*
X13135562Y7182769D01*
X13135562Y7190546D01*
X13135191Y7199434D01*
X13090382Y7060930D01*
X13026314Y6867246D01*
X13006686Y6867246D01*
X13001872Y6867617D01*
X12929288Y6867617D01*
X12922992Y6867246D01*
X12900772Y6867246D01*
X12858554Y7054634D01*
X12834113Y7154624D01*
X12834113Y7154994D01*
X12833742Y7155735D01*
X12833742Y7156846D01*
X12833002Y7158327D01*
X12832631Y7160549D01*
X12832260Y7162771D01*
X12830779Y7168697D01*
X12830779Y7169067D01*
X12830409Y7170548D01*
X12830038Y7172770D01*
X12829668Y7175733D01*
X12828928Y7180177D01*
X12827815Y7185362D01*
X12827077Y7191657D01*
X12825594Y7199064D01*
X12817078Y7104259D01*
X12805595Y6910575D01*
X12804855Y6867246D01*
X12784488Y6867246D01*
X12779673Y6867617D01*
X12711162Y6867617D01*
X12705236Y6867246D01*
X12683387Y6867246D01*
X12691534Y6936128D01*
X12712643Y7174992D01*
X12723383Y7332754D01*
X12738937Y7332754D01*
X12745232Y7332383D01*
X12774859Y7332383D01*
X12791524Y7332013D01*
X12850407Y7332013D01*
X12857072Y7332383D01*
X12891513Y7332383D01*
X12901883Y7332754D01*
X12912993Y7332754D01*
X12912993Y7332383D01*
X12913364Y7331643D01*
X12913364Y7329791D01*
X12913733Y7327939D01*
X12914104Y7325347D01*
X12914474Y7322755D01*
X12915585Y7316089D01*
X12916696Y7308682D01*
X12917807Y7301275D01*
X12918918Y7294239D01*
X12920029Y7287944D01*
X12920029Y7287203D01*
X12920399Y7286092D01*
X12920770Y7284981D01*
X12921140Y7283129D01*
X12921881Y7280907D01*
X12922250Y7277945D01*
X12923363Y7274982D01*
X12924103Y7271279D01*
X12925214Y7266835D01*
X12926324Y7262020D01*
X12927806Y7256465D01*
X12929288Y7250540D01*
X12931139Y7243874D01*
X12932991Y7236467D01*
X12935213Y7228690D01*
X12935213Y7228320D01*
X12935583Y7226839D01*
X12936324Y7224246D01*
X12937434Y7221284D01*
X12938174Y7217580D01*
X12939658Y7213136D01*
X12940768Y7207952D01*
X12942249Y7202767D01*
X12943730Y7196842D01*
X12945212Y7190546D01*
X12948544Y7177955D01*
X12951878Y7164993D01*
X12954840Y7152402D01*
X12954840Y7152032D01*
X12955211Y7150921D01*
X12955582Y7149069D01*
X12956322Y7146106D01*
X12957062Y7142403D01*
X12957803Y7137959D01*
X12958914Y7132774D01*
X12960394Y7126479D01*
X12961877Y7119442D01*
X12963358Y7111295D01*
X12965210Y7102407D01*
X12967061Y7092408D01*
X12969283Y7081298D01*
X12971506Y7069077D01*
X12974097Y7056116D01*
X12976691Y7042043D01*
X12976691Y7042784D01*
X12977431Y7044265D01*
X12978171Y7047228D01*
X12979282Y7050931D01*
X12980763Y7055745D01*
X12982245Y7060930D01*
X12983727Y7066855D01*
X12985948Y7073521D01*
X12987801Y7080558D01*
X12990022Y7087964D01*
X12994836Y7103148D01*
X12999280Y7119072D01*
X13004094Y7133885D01*
X13004094Y7134256D01*
X13004836Y7135737D01*
X13005205Y7137959D01*
X13006316Y7140922D01*
X13007426Y7144255D01*
X13008910Y7148699D01*
X13010760Y7153883D01*
X13012611Y7159438D01*
X13014835Y7165734D01*
X13017056Y7172400D01*
X13019649Y7179807D01*
X13022241Y7187213D01*
X13025203Y7195361D01*
X13028166Y7203878D01*
X13034831Y7221654D01*
X13035202Y7222395D01*
X13035573Y7223876D01*
X13036684Y7226468D01*
X13037794Y7229431D01*
X13039276Y7233505D01*
X13041129Y7237949D01*
X13042609Y7243133D01*
X13044830Y7248318D01*
X13048534Y7259058D01*
X13052608Y7269797D01*
X13054089Y7274612D01*
X13055940Y7279056D01*
X13057053Y7282759D01*
X13058163Y7286092D01*
X13058533Y7286833D01*
X13058904Y7289055D01*
X13060014Y7292387D01*
X13061867Y7297572D01*
X13062607Y7300535D01*
X13063718Y7304238D01*
X13064828Y7307941D01*
X13065939Y7312015D01*
X13067421Y7316829D01*
X13068903Y7321644D01*
X13070384Y7327199D01*
X13071864Y7332754D01*
X13085197Y7332754D01*
X13090752Y7332383D01*
X13118896Y7332383D01*
X13127045Y7332013D01*
X13202222Y7332013D01*
X13209258Y7332383D01*
X13243700Y7332383D01*
X13254068Y7332754D01*
X13264809Y7332754D01*
X13264809Y7332383D01*
X13264809Y7332383D02*
G37*
G36*
X13538853Y7341271D02*
X13543668Y7341271D01*
X13548853Y7340901D01*
X13554408Y7340531D01*
X13560703Y7340160D01*
X13573665Y7339420D01*
X13587367Y7337938D01*
X13601440Y7336087D01*
X13601810Y7336087D01*
X13603291Y7335716D01*
X13605144Y7335346D01*
X13607736Y7334976D01*
X13611069Y7334235D01*
X13614772Y7333494D01*
X13618846Y7332754D01*
X13623289Y7331643D01*
X13633289Y7328680D01*
X13644028Y7325347D01*
X13654768Y7321273D01*
X13665137Y7316089D01*
X13665508Y7316089D01*
X13666248Y7315348D01*
X13667729Y7314607D01*
X13669582Y7313496D01*
X13671803Y7312015D01*
X13674025Y7310163D01*
X13679950Y7306090D01*
X13686246Y7300535D01*
X13692542Y7294239D01*
X13698837Y7286833D01*
X13704022Y7278315D01*
X13704022Y7277945D01*
X13704391Y7277204D01*
X13705133Y7276093D01*
X13705875Y7274241D01*
X13706985Y7272019D01*
X13708096Y7269427D01*
X13709207Y7266464D01*
X13710318Y7263131D01*
X13712540Y7255354D01*
X13714761Y7246466D01*
X13716243Y7236838D01*
X13716612Y7226098D01*
X13716612Y7225728D01*
X13716612Y7225357D01*
X13716612Y7223135D01*
X13716243Y7219802D01*
X13715872Y7215358D01*
X13715501Y7210174D01*
X13714761Y7204619D01*
X13713280Y7198694D01*
X13711800Y7192768D01*
X13711429Y7192028D01*
X13711058Y7190176D01*
X13709947Y7186843D01*
X13708466Y7183140D01*
X13706244Y7178325D01*
X13704022Y7173511D01*
X13701059Y7167956D01*
X13697726Y7162771D01*
X13697356Y7162031D01*
X13695876Y7160549D01*
X13694023Y7157957D01*
X13691431Y7154624D01*
X13688098Y7150921D01*
X13684024Y7146847D01*
X13679950Y7142403D01*
X13675136Y7138329D01*
X13674396Y7137959D01*
X13672914Y7136478D01*
X13670322Y7134626D01*
X13666989Y7132404D01*
X13663284Y7129441D01*
X13659212Y7126849D01*
X13649953Y7121294D01*
X13649583Y7120924D01*
X13647731Y7120183D01*
X13645139Y7118702D01*
X13641435Y7117220D01*
X13636621Y7114998D01*
X13631065Y7112406D01*
X13624771Y7109814D01*
X13617365Y7106851D01*
X13617735Y7106851D01*
X13618475Y7106481D01*
X13619586Y7106481D01*
X13621068Y7106111D01*
X13624771Y7105370D01*
X13629585Y7103889D01*
X13634770Y7102778D01*
X13640324Y7100926D01*
X13645880Y7099445D01*
X13650694Y7097593D01*
X13651434Y7097223D01*
X13652916Y7096852D01*
X13655138Y7095741D01*
X13658472Y7093890D01*
X13662173Y7092038D01*
X13666248Y7089816D01*
X13670692Y7086853D01*
X13675136Y7083520D01*
X13675507Y7083150D01*
X13677357Y7082039D01*
X13679581Y7080187D01*
X13682172Y7077595D01*
X13685506Y7074632D01*
X13689209Y7070929D01*
X13692542Y7066855D01*
X13695876Y7062411D01*
X13696245Y7062041D01*
X13697356Y7060189D01*
X13698837Y7057967D01*
X13700690Y7054634D01*
X13702541Y7050561D01*
X13704762Y7046117D01*
X13706615Y7040932D01*
X13708466Y7035377D01*
X13708836Y7034636D01*
X13709207Y7032785D01*
X13709947Y7029822D01*
X13710687Y7025748D01*
X13711429Y7020934D01*
X13712169Y7015749D01*
X13712910Y7009824D01*
X13712910Y7003529D01*
X13712910Y7003158D01*
X13712910Y7002047D01*
X13712910Y7000196D01*
X13712540Y6997974D01*
X13712540Y6995011D01*
X13712169Y6991308D01*
X13711800Y6987234D01*
X13711058Y6983160D01*
X13709207Y6973532D01*
X13706244Y6962792D01*
X13702541Y6952052D01*
X13697356Y6940942D01*
X13697356Y6940572D01*
X13696616Y6939831D01*
X13695876Y6938350D01*
X13694392Y6936128D01*
X13692912Y6933906D01*
X13690691Y6930943D01*
X13685876Y6924277D01*
X13679210Y6916871D01*
X13671432Y6909094D01*
X13662173Y6900947D01*
X13651434Y6893540D01*
X13651064Y6893170D01*
X13649953Y6892799D01*
X13648473Y6891688D01*
X13646249Y6890577D01*
X13643288Y6889096D01*
X13639954Y6887244D01*
X13635881Y6885022D01*
X13631438Y6883171D01*
X13626622Y6880949D01*
X13621439Y6878727D01*
X13615514Y6876505D01*
X13609587Y6874283D01*
X13596626Y6869839D01*
X13582182Y6866506D01*
X13581812Y6866506D01*
X13580331Y6866135D01*
X13578479Y6865765D01*
X13575517Y6865395D01*
X13571812Y6864654D01*
X13567740Y6863913D01*
X13562926Y6863173D01*
X13557741Y6862432D01*
X13552187Y6861691D01*
X13545889Y6860951D01*
X13532558Y6859469D01*
X13518486Y6858729D01*
X13503671Y6858358D01*
X13493674Y6858358D01*
X13489600Y6858729D01*
X13479971Y6858729D01*
X13474416Y6859099D01*
X13468861Y6859469D01*
X13456270Y6860210D01*
X13443307Y6860951D01*
X13429976Y6862432D01*
X13429607Y6862432D01*
X13428494Y6862802D01*
X13426273Y6862802D01*
X13423682Y6863173D01*
X13420348Y6863543D01*
X13416273Y6864284D01*
X13411830Y6865024D01*
X13406274Y6865765D01*
X13400720Y6866506D01*
X13394054Y6867617D01*
X13387389Y6868728D01*
X13379980Y6870209D01*
X13371834Y6871320D01*
X13363687Y6873172D01*
X13354799Y6874653D01*
X13345911Y6876505D01*
X13345911Y6876875D01*
X13345911Y6877245D01*
X13345540Y6879467D01*
X13345540Y6883171D01*
X13345171Y6887985D01*
X13344800Y6893910D01*
X13344429Y6900576D01*
X13343689Y6907983D01*
X13343318Y6916130D01*
X13342578Y6924648D01*
X13341837Y6933536D01*
X13340356Y6952052D01*
X13338875Y6969828D01*
X13337764Y6978346D01*
X13337022Y6986493D01*
X13337393Y6986493D01*
X13337764Y6986123D01*
X13338875Y6985753D01*
X13340356Y6985382D01*
X13342207Y6985012D01*
X13344429Y6984271D01*
X13349985Y6982420D01*
X13356650Y6980568D01*
X13364427Y6978346D01*
X13372945Y6976124D01*
X13382574Y6973902D01*
X13392943Y6971310D01*
X13404053Y6969088D01*
X13415163Y6966866D01*
X13427014Y6965014D01*
X13438864Y6963162D01*
X13450716Y6962051D01*
X13462936Y6961311D01*
X13474416Y6960940D01*
X13478119Y6960940D01*
X13480711Y6961311D01*
X13484045Y6961311D01*
X13487749Y6961681D01*
X13491821Y6962051D01*
X13496266Y6962792D01*
X13505894Y6964644D01*
X13516264Y6967236D01*
X13526263Y6970939D01*
X13535521Y6976124D01*
X13535892Y6976494D01*
X13536632Y6976865D01*
X13537743Y6977605D01*
X13539224Y6979087D01*
X13542928Y6982420D01*
X13547371Y6986864D01*
X13551814Y6992789D01*
X13555519Y6999825D01*
X13557001Y7003529D01*
X13558112Y7007602D01*
X13558852Y7012046D01*
X13559222Y7016860D01*
X13559222Y7017231D01*
X13559222Y7017971D01*
X13559222Y7019082D01*
X13558852Y7020934D01*
X13558112Y7025378D01*
X13556259Y7030563D01*
X13553297Y7036488D01*
X13551445Y7039821D01*
X13549223Y7042784D01*
X13546260Y7045376D01*
X13542928Y7048339D01*
X13539224Y7050931D01*
X13535150Y7053153D01*
X13534779Y7053153D01*
X13534039Y7053523D01*
X13532558Y7054264D01*
X13530705Y7055005D01*
X13528114Y7055745D01*
X13525153Y7056856D01*
X13521448Y7057967D01*
X13517004Y7059078D01*
X13512190Y7060189D01*
X13506635Y7061300D01*
X13500710Y7062411D01*
X13494044Y7063152D01*
X13487007Y7063893D01*
X13478860Y7064633D01*
X13470712Y7065004D01*
X13449603Y7065004D01*
X13445900Y7064633D01*
X13441827Y7064633D01*
X13432568Y7064263D01*
X13422569Y7063522D01*
X13412572Y7062411D01*
X13402200Y7061300D01*
X13402200Y7062041D01*
X13402573Y7063522D01*
X13402573Y7066485D01*
X13402942Y7070559D01*
X13403313Y7075003D01*
X13403683Y7080928D01*
X13404424Y7087224D01*
X13404794Y7094260D01*
X13405534Y7102037D01*
X13405905Y7110184D01*
X13406645Y7118702D01*
X13407385Y7127960D01*
X13408867Y7146847D01*
X13409978Y7166104D01*
X13411089Y7166104D01*
X13412572Y7165734D01*
X13414052Y7165364D01*
X13416644Y7164993D01*
X13419237Y7164623D01*
X13422198Y7164253D01*
X13425533Y7163882D01*
X13433308Y7163142D01*
X13442197Y7162401D01*
X13451456Y7162031D01*
X13461453Y7161660D01*
X13469231Y7161660D01*
X13472194Y7162031D01*
X13479230Y7162031D01*
X13487378Y7162401D01*
X13495895Y7163142D01*
X13504413Y7164253D01*
X13512190Y7165364D01*
X13512560Y7165364D01*
X13512930Y7165734D01*
X13514043Y7165734D01*
X13515523Y7166104D01*
X13519226Y7167215D01*
X13523669Y7168697D01*
X13528854Y7170919D01*
X13534039Y7173511D01*
X13538853Y7176844D01*
X13543298Y7180547D01*
X13543668Y7180918D01*
X13545149Y7182399D01*
X13546631Y7184991D01*
X13548853Y7187954D01*
X13550703Y7191657D01*
X13552556Y7195731D01*
X13553667Y7200545D01*
X13554037Y7205359D01*
X13554037Y7205730D01*
X13554037Y7207211D01*
X13553667Y7209433D01*
X13552927Y7212396D01*
X13551814Y7215729D01*
X13550334Y7219432D01*
X13548482Y7222765D01*
X13545520Y7226468D01*
X13545149Y7226839D01*
X13544038Y7227950D01*
X13541817Y7229801D01*
X13539224Y7231653D01*
X13535521Y7233875D01*
X13531447Y7236467D01*
X13526263Y7238319D01*
X13520337Y7240171D01*
X13519597Y7240541D01*
X13517375Y7240911D01*
X13513670Y7241652D01*
X13508858Y7242393D01*
X13502933Y7243133D01*
X13495895Y7243504D01*
X13487749Y7244244D01*
X13470712Y7244244D01*
X13465158Y7243874D01*
X13458121Y7243504D01*
X13450343Y7243133D01*
X13441827Y7242393D01*
X13432939Y7241652D01*
X13431828Y7241652D01*
X13430347Y7241282D01*
X13428494Y7241282D01*
X13426273Y7240911D01*
X13423309Y7240541D01*
X13419608Y7240171D01*
X13415904Y7239430D01*
X13411459Y7238689D01*
X13406274Y7237949D01*
X13401089Y7237208D01*
X13395164Y7236097D01*
X13388869Y7234986D01*
X13382204Y7233875D01*
X13374797Y7232394D01*
X13367390Y7230912D01*
X13384055Y7310163D01*
X13384055Y7310534D01*
X13384425Y7312015D01*
X13384796Y7314237D01*
X13385536Y7316829D01*
X13386276Y7320162D01*
X13387018Y7324236D01*
X13387758Y7328310D01*
X13388499Y7332754D01*
X13389240Y7332754D01*
X13390350Y7333124D01*
X13391832Y7333124D01*
X13395535Y7333494D01*
X13401089Y7334235D01*
X13407385Y7334976D01*
X13415163Y7335716D01*
X13423682Y7336457D01*
X13432939Y7337198D01*
X13443307Y7337938D01*
X13454048Y7338679D01*
X13465158Y7339420D01*
X13476637Y7340160D01*
X13500339Y7341271D01*
X13524042Y7341642D01*
X13534410Y7341642D01*
X13538853Y7341271D01*
X13538853Y7341271D02*
G37*
G36*
X13674767Y10056466D02*
X13660323Y9804269D01*
X13656619Y9711316D01*
X13656619Y9667247D01*
X13641435Y9667247D01*
X13636992Y9667617D01*
X13531818Y9667617D01*
X13518486Y9667247D01*
X13505894Y9667247D01*
X13505894Y9667987D01*
X13506265Y9669839D01*
X13506265Y9672802D01*
X13506635Y9677246D01*
X13507005Y9683171D01*
X13507376Y9690207D01*
X13508116Y9698354D01*
X13508858Y9708353D01*
X13509598Y9719463D01*
X13510338Y9732055D01*
X13511079Y9745757D01*
X13512190Y9761311D01*
X13513301Y9777976D01*
X13513670Y9787234D01*
X13514412Y9796492D01*
X13514783Y9806121D01*
X13515523Y9816120D01*
X13515894Y9826860D01*
X13516634Y9837599D01*
X13516634Y9837970D01*
X13516634Y9839081D01*
X13517004Y9840562D01*
X13517004Y9842784D01*
X13517004Y9845376D01*
X13517375Y9848709D01*
X13517375Y9852783D01*
X13517744Y9856857D01*
X13518115Y9861671D01*
X13518486Y9866485D01*
X13518855Y9877595D01*
X13519597Y9889816D01*
X13520337Y9903148D01*
X13521078Y9916850D01*
X13521819Y9930923D01*
X13522559Y9944996D01*
X13522929Y9958698D01*
X13523669Y9972400D01*
X13524042Y9984991D01*
X13524411Y9996472D01*
X13524780Y10002027D01*
X13524780Y10006841D01*
X13524411Y10006471D01*
X13522559Y10005360D01*
X13520337Y10003878D01*
X13517004Y10001656D01*
X13513301Y9999434D01*
X13508858Y9996842D01*
X13499969Y9990917D01*
X13499228Y9990546D01*
X13498488Y9990176D01*
X13497377Y9989435D01*
X13495895Y9988324D01*
X13494044Y9987213D01*
X13491821Y9985362D01*
X13489229Y9983510D01*
X13485896Y9981288D01*
X13482193Y9979066D01*
X13478119Y9976103D01*
X13473305Y9972771D01*
X13468120Y9969067D01*
X13462195Y9964623D01*
X13455528Y9960179D01*
X13448492Y9954995D01*
X13448492Y9955365D01*
X13448492Y9956476D01*
X13448863Y9957957D01*
X13448863Y9960179D01*
X13448863Y9962772D01*
X13449232Y9966105D01*
X13449232Y9970178D01*
X13449603Y9974252D01*
X13449974Y9979066D01*
X13449974Y9984251D01*
X13450343Y9989806D01*
X13450716Y9995731D01*
X13451085Y10008693D01*
X13451826Y10022765D01*
X13451826Y10023136D01*
X13451826Y10024617D01*
X13451826Y10026469D01*
X13452196Y10029061D01*
X13452196Y10032394D01*
X13452567Y10036097D01*
X13452567Y10040171D01*
X13452937Y10044615D01*
X13452937Y10054244D01*
X13453307Y10063872D01*
X13453677Y10072760D01*
X13453677Y10076834D01*
X13453677Y10080537D01*
X13454048Y10080537D01*
X13454417Y10080907D01*
X13456641Y10082389D01*
X13460342Y10084240D01*
X13465158Y10087203D01*
X13471083Y10090536D01*
X13477750Y10094610D01*
X13485156Y10099054D01*
X13492934Y10103868D01*
X13493303Y10103868D01*
X13494044Y10104609D01*
X13495155Y10105349D01*
X13496635Y10106090D01*
X13500339Y10108312D01*
X13504784Y10111275D01*
X13509227Y10114237D01*
X13513670Y10116830D01*
X13517375Y10119052D01*
X13518855Y10120163D01*
X13519968Y10120903D01*
X13520337Y10121274D01*
X13521078Y10121644D01*
X13522189Y10122385D01*
X13523669Y10123866D01*
X13525893Y10125347D01*
X13528484Y10127569D01*
X13531447Y10129791D01*
X13534779Y10132754D01*
X13542928Y10132754D01*
X13546631Y10132384D01*
X13565147Y10132384D01*
X13571072Y10132013D01*
X13634029Y10132013D01*
X13640324Y10132384D01*
X13667358Y10132384D01*
X13681802Y10132754D01*
X13674767Y10056466D01*
X13674767Y10056466D02*
G37*
G36*
X13299619Y10132384D02*
X13299619Y10131273D01*
X13299619Y10129791D01*
X13299249Y10127569D01*
X13299249Y10124977D01*
X13298878Y10121644D01*
X13298878Y10117941D01*
X13298508Y10113497D01*
X13298138Y10108682D01*
X13298138Y10103498D01*
X13297768Y10097943D01*
X13297397Y10092017D01*
X13296657Y10079056D01*
X13295917Y10064983D01*
X13295175Y10049800D01*
X13294804Y10033875D01*
X13294064Y10017581D01*
X13293324Y10000916D01*
X13291843Y9967216D01*
X13291472Y9950921D01*
X13291103Y9934997D01*
X13291103Y9934626D01*
X13291103Y9933145D01*
X13291103Y9930923D01*
X13291103Y9927960D01*
X13290730Y9924257D01*
X13290730Y9919813D01*
X13290730Y9914628D01*
X13290361Y9908703D01*
X13290361Y9902407D01*
X13289992Y9895741D01*
X13289992Y9888335D01*
X13289619Y9880558D01*
X13289250Y9864263D01*
X13288879Y9846858D01*
X13288509Y9828341D01*
X13288139Y9809824D01*
X13287769Y9791308D01*
X13287398Y9773162D01*
X13287029Y9755756D01*
X13287029Y9747609D01*
X13287029Y9739832D01*
X13286658Y9732425D01*
X13286658Y9725389D01*
X13286658Y9718723D01*
X13286658Y9712797D01*
X13286658Y9712057D01*
X13286658Y9710205D01*
X13286658Y9707242D01*
X13286658Y9705020D01*
X13286658Y9702428D01*
X13286658Y9699465D01*
X13287029Y9696133D01*
X13287029Y9692429D01*
X13287029Y9688356D01*
X13287029Y9683541D01*
X13287029Y9678727D01*
X13287398Y9673172D01*
X13287398Y9667247D01*
X13267400Y9667247D01*
X13262585Y9667617D01*
X13186298Y9667617D01*
X13173706Y9667247D01*
X13160004Y9667247D01*
X13160004Y9667617D01*
X13160004Y9668728D01*
X13160374Y9670950D01*
X13160374Y9673913D01*
X13160745Y9677986D01*
X13161115Y9682801D01*
X13161485Y9689467D01*
X13161856Y9696873D01*
X13162225Y9705761D01*
X13162596Y9710946D01*
X13162967Y9716130D01*
X13162967Y9722056D01*
X13163338Y9727981D01*
X13163707Y9734647D01*
X13164078Y9741683D01*
X13164078Y9749090D01*
X13164449Y9756867D01*
X13164818Y9765014D01*
X13165189Y9773902D01*
X13165559Y9782790D01*
X13165929Y9792419D01*
X13166299Y9802418D01*
X13166670Y9813157D01*
X13166670Y9813528D01*
X13166670Y9814639D01*
X13166670Y9816120D01*
X13167039Y9818342D01*
X13167039Y9820934D01*
X13167039Y9823897D01*
X13167039Y9827600D01*
X13167410Y9831674D01*
X13167410Y9836118D01*
X13167781Y9840932D01*
X13168150Y9851302D01*
X13168523Y9862782D01*
X13168892Y9875003D01*
X13169263Y9887224D01*
X13169633Y9899815D01*
X13169633Y9912406D01*
X13170003Y9924257D01*
X13170374Y9934997D01*
X13170744Y9944996D01*
X13170744Y9949440D01*
X13170744Y9953513D01*
X13170744Y9957217D01*
X13170744Y9960550D01*
X13170744Y9961290D01*
X13170744Y9963142D01*
X13170744Y9966475D01*
X13170744Y9970549D01*
X13170744Y9976103D01*
X13170374Y9982769D01*
X13170374Y9990546D01*
X13170003Y9999434D01*
X13125192Y9860930D01*
X13061127Y9667247D01*
X13041498Y9667247D01*
X13036684Y9667617D01*
X12964099Y9667617D01*
X12957803Y9667247D01*
X12935583Y9667247D01*
X12893365Y9854635D01*
X12868922Y9954624D01*
X12868922Y9954995D01*
X12868553Y9955735D01*
X12868553Y9956846D01*
X12867812Y9958328D01*
X12867442Y9960550D01*
X12867072Y9962772D01*
X12865590Y9968697D01*
X12865590Y9969067D01*
X12865221Y9970549D01*
X12864850Y9972771D01*
X12864479Y9975733D01*
X12863739Y9980177D01*
X12862628Y9985362D01*
X12861887Y9991657D01*
X12860406Y9999064D01*
X12851888Y9904259D01*
X12840408Y9710575D01*
X12839667Y9667247D01*
X12819299Y9667247D01*
X12814484Y9667617D01*
X12745973Y9667617D01*
X12740048Y9667247D01*
X12718198Y9667247D01*
X12726345Y9736128D01*
X12747454Y9974992D01*
X12758194Y10132754D01*
X12773748Y10132754D01*
X12780044Y10132384D01*
X12809669Y10132384D01*
X12826335Y10132013D01*
X12885217Y10132013D01*
X12891884Y10132384D01*
X12926324Y10132384D01*
X12936694Y10132754D01*
X12947804Y10132754D01*
X12947804Y10132384D01*
X12948174Y10131643D01*
X12948174Y10129791D01*
X12948544Y10127940D01*
X12948915Y10125347D01*
X12949284Y10122755D01*
X12950397Y10116089D01*
X12951508Y10108682D01*
X12952618Y10101276D01*
X12953729Y10094239D01*
X12954840Y10087944D01*
X12954840Y10087203D01*
X12955211Y10086092D01*
X12955582Y10084981D01*
X12955951Y10083129D01*
X12956693Y10080907D01*
X12957062Y10077945D01*
X12958173Y10074982D01*
X12958914Y10071279D01*
X12960025Y10066835D01*
X12961136Y10062021D01*
X12962617Y10056466D01*
X12964099Y10050540D01*
X12965950Y10043874D01*
X12967802Y10036468D01*
X12970024Y10028691D01*
X12970024Y10028320D01*
X12970393Y10026839D01*
X12971135Y10024247D01*
X12972246Y10021284D01*
X12972986Y10017581D01*
X12974467Y10013137D01*
X12975578Y10007952D01*
X12977060Y10002767D01*
X12978542Y9996842D01*
X12980023Y9990546D01*
X12983356Y9977955D01*
X12986690Y9964994D01*
X12989651Y9952402D01*
X12989651Y9952032D01*
X12990022Y9950921D01*
X12990392Y9949069D01*
X12991133Y9946107D01*
X12991873Y9942403D01*
X12992615Y9937959D01*
X12993726Y9932775D01*
X12995206Y9926479D01*
X12996687Y9919443D01*
X12998169Y9911295D01*
X13000021Y9902407D01*
X13001872Y9892408D01*
X13004094Y9881298D01*
X13006316Y9869078D01*
X13008910Y9856116D01*
X13011501Y9842043D01*
X13011501Y9842784D01*
X13012242Y9844265D01*
X13012982Y9847228D01*
X13014093Y9850931D01*
X13015575Y9855746D01*
X13017056Y9860930D01*
X13018536Y9866856D01*
X13020760Y9873522D01*
X13022610Y9880558D01*
X13024834Y9887964D01*
X13029646Y9903148D01*
X13034091Y9919072D01*
X13038905Y9933886D01*
X13038905Y9934256D01*
X13039645Y9935737D01*
X13040018Y9937959D01*
X13041129Y9940922D01*
X13042239Y9944255D01*
X13043719Y9948699D01*
X13045572Y9953884D01*
X13047423Y9959439D01*
X13049644Y9965734D01*
X13051868Y9972400D01*
X13054460Y9979807D01*
X13057053Y9987213D01*
X13060014Y9995361D01*
X13062978Y10003878D01*
X13069643Y10021654D01*
X13070013Y10022395D01*
X13070384Y10023876D01*
X13071495Y10026469D01*
X13072606Y10029431D01*
X13074088Y10033505D01*
X13075938Y10037949D01*
X13077420Y10043134D01*
X13079642Y10048318D01*
X13083345Y10059058D01*
X13087419Y10069797D01*
X13088901Y10074612D01*
X13090752Y10079056D01*
X13091862Y10082759D01*
X13092973Y10086092D01*
X13093344Y10086833D01*
X13093715Y10089055D01*
X13094826Y10092388D01*
X13096677Y10097572D01*
X13097418Y10100535D01*
X13098529Y10104238D01*
X13099640Y10107942D01*
X13100751Y10112015D01*
X13102232Y10116830D01*
X13103714Y10121644D01*
X13105196Y10127199D01*
X13106676Y10132754D01*
X13120007Y10132754D01*
X13125563Y10132384D01*
X13153709Y10132384D01*
X13161856Y10132013D01*
X13237033Y10132013D01*
X13244070Y10132384D01*
X13278510Y10132384D01*
X13288879Y10132754D01*
X13299619Y10132754D01*
X13299619Y10132384D01*
X13299619Y10132384D02*
G37*
G36*
X13263696Y8727939D02*
X13263696Y8726828D01*
X13263696Y8725347D01*
X13263327Y8723125D01*
X13263327Y8720533D01*
X13262956Y8717200D01*
X13262956Y8713496D01*
X13262585Y8709052D01*
X13262216Y8704238D01*
X13262216Y8699053D01*
X13261845Y8693498D01*
X13261475Y8687573D01*
X13260735Y8674612D01*
X13259995Y8660539D01*
X13259253Y8645355D01*
X13258884Y8629431D01*
X13258142Y8613136D01*
X13257401Y8596472D01*
X13255920Y8562771D01*
X13255550Y8546477D01*
X13255179Y8530552D01*
X13255179Y8530182D01*
X13255179Y8528701D01*
X13255179Y8526479D01*
X13255179Y8523516D01*
X13254810Y8519813D01*
X13254810Y8515369D01*
X13254810Y8510184D01*
X13254439Y8504259D01*
X13254439Y8497963D01*
X13254068Y8491297D01*
X13254068Y8483891D01*
X13253699Y8476114D01*
X13253328Y8459819D01*
X13252957Y8442413D01*
X13252586Y8423897D01*
X13252217Y8405380D01*
X13251846Y8386864D01*
X13251476Y8368717D01*
X13251106Y8351312D01*
X13251106Y8343164D01*
X13251106Y8335387D01*
X13250735Y8327981D01*
X13250735Y8320944D01*
X13250735Y8314279D01*
X13250735Y8308353D01*
X13250735Y8307613D01*
X13250735Y8305761D01*
X13250735Y8302798D01*
X13250735Y8300576D01*
X13250735Y8297984D01*
X13250735Y8295021D01*
X13251106Y8291688D01*
X13251106Y8287985D01*
X13251106Y8283911D01*
X13251106Y8279097D01*
X13251106Y8274283D01*
X13251476Y8268728D01*
X13251476Y8262802D01*
X13231477Y8262802D01*
X13226665Y8263173D01*
X13150375Y8263173D01*
X13137784Y8262802D01*
X13124081Y8262802D01*
X13124081Y8263173D01*
X13124081Y8264284D01*
X13124452Y8266506D01*
X13124452Y8269468D01*
X13124823Y8273542D01*
X13125192Y8278356D01*
X13125563Y8285022D01*
X13125934Y8292429D01*
X13126305Y8301317D01*
X13126674Y8306502D01*
X13127045Y8311686D01*
X13127045Y8317612D01*
X13127415Y8323537D01*
X13127785Y8330203D01*
X13128156Y8337239D01*
X13128156Y8344646D01*
X13128526Y8352423D01*
X13128896Y8360570D01*
X13129266Y8369458D01*
X13129637Y8378346D01*
X13130006Y8387975D01*
X13130379Y8397974D01*
X13130748Y8408713D01*
X13130748Y8409084D01*
X13130748Y8410195D01*
X13130748Y8411676D01*
X13131117Y8413898D01*
X13131117Y8416490D01*
X13131117Y8419453D01*
X13131117Y8423156D01*
X13131490Y8427230D01*
X13131490Y8431674D01*
X13131859Y8436488D01*
X13132230Y8446857D01*
X13132600Y8458338D01*
X13132970Y8470559D01*
X13133340Y8482780D01*
X13133711Y8495371D01*
X13133711Y8507962D01*
X13134081Y8519813D01*
X13134451Y8530552D01*
X13134822Y8540551D01*
X13134822Y8544995D01*
X13134822Y8549069D01*
X13134822Y8552772D01*
X13134822Y8556105D01*
X13134822Y8556846D01*
X13134822Y8558698D01*
X13134822Y8562031D01*
X13134822Y8566104D01*
X13134822Y8571659D01*
X13134451Y8578325D01*
X13134451Y8586102D01*
X13134081Y8594990D01*
X13089272Y8456486D01*
X13025203Y8262802D01*
X13005576Y8262802D01*
X13000761Y8263173D01*
X12928175Y8263173D01*
X12921881Y8262802D01*
X12899661Y8262802D01*
X12857443Y8450190D01*
X12833002Y8550180D01*
X12833002Y8550550D01*
X12832631Y8551291D01*
X12832631Y8552402D01*
X12831889Y8553883D01*
X12831520Y8556105D01*
X12831149Y8558327D01*
X12829668Y8564253D01*
X12829668Y8564623D01*
X12829298Y8566104D01*
X12828928Y8568326D01*
X12828557Y8571289D01*
X12827815Y8575733D01*
X12826704Y8580918D01*
X12825964Y8587213D01*
X12824483Y8594620D01*
X12815965Y8499815D01*
X12804485Y8306131D01*
X12803745Y8262802D01*
X12783377Y8262802D01*
X12778562Y8263173D01*
X12710051Y8263173D01*
X12704125Y8262802D01*
X12682276Y8262802D01*
X12690423Y8331684D01*
X12711532Y8570548D01*
X12722272Y8728310D01*
X12737826Y8728310D01*
X12744121Y8727939D01*
X12773748Y8727939D01*
X12790413Y8727569D01*
X12849297Y8727569D01*
X12855962Y8727939D01*
X12890402Y8727939D01*
X12900772Y8728310D01*
X12911882Y8728310D01*
X12911882Y8727939D01*
X12912251Y8727199D01*
X12912251Y8725347D01*
X12912622Y8723495D01*
X12912993Y8720903D01*
X12913364Y8718311D01*
X12914474Y8711645D01*
X12915585Y8704238D01*
X12916696Y8696831D01*
X12917807Y8689795D01*
X12918918Y8683500D01*
X12918918Y8682759D01*
X12919289Y8681648D01*
X12919659Y8680537D01*
X12920029Y8678685D01*
X12920770Y8676463D01*
X12921140Y8673501D01*
X12922250Y8670538D01*
X12922992Y8666835D01*
X12924103Y8662391D01*
X12925214Y8657576D01*
X12926695Y8652021D01*
X12928175Y8646096D01*
X12930028Y8639430D01*
X12931880Y8632023D01*
X12934102Y8624246D01*
X12934102Y8623876D01*
X12934473Y8622395D01*
X12935213Y8619802D01*
X12936324Y8616840D01*
X12937064Y8613136D01*
X12938547Y8608692D01*
X12939658Y8603508D01*
X12941138Y8598323D01*
X12942619Y8592398D01*
X12944101Y8586102D01*
X12947433Y8573511D01*
X12950768Y8560549D01*
X12953729Y8547958D01*
X12953729Y8547588D01*
X12954100Y8546477D01*
X12954469Y8544625D01*
X12955211Y8541662D01*
X12955951Y8537959D01*
X12956693Y8533515D01*
X12957803Y8528330D01*
X12959283Y8522035D01*
X12960767Y8514998D01*
X12962247Y8506851D01*
X12964099Y8497963D01*
X12965950Y8487964D01*
X12968172Y8476854D01*
X12970393Y8464633D01*
X12972986Y8451672D01*
X12975578Y8437599D01*
X12975578Y8438340D01*
X12976318Y8439821D01*
X12977060Y8442784D01*
X12978171Y8446487D01*
X12979652Y8451301D01*
X12981134Y8456486D01*
X12982616Y8462411D01*
X12984837Y8469077D01*
X12986690Y8476114D01*
X12988911Y8483520D01*
X12993726Y8498704D01*
X12998169Y8514628D01*
X13002983Y8529441D01*
X13002983Y8529812D01*
X13003725Y8531293D01*
X13004094Y8533515D01*
X13005205Y8536478D01*
X13006316Y8539811D01*
X13007797Y8544255D01*
X13009650Y8549439D01*
X13011501Y8554994D01*
X13013724Y8561290D01*
X13015945Y8567956D01*
X13018536Y8575363D01*
X13021130Y8582769D01*
X13024092Y8590917D01*
X13027055Y8599434D01*
X13033720Y8617210D01*
X13034091Y8617951D01*
X13034462Y8619432D01*
X13035573Y8622024D01*
X13036684Y8624987D01*
X13038165Y8629061D01*
X13040018Y8633505D01*
X13041498Y8638689D01*
X13043719Y8643874D01*
X13047423Y8654614D01*
X13051497Y8665353D01*
X13052979Y8670168D01*
X13054829Y8674612D01*
X13055940Y8678315D01*
X13057053Y8681648D01*
X13057422Y8682389D01*
X13057793Y8684611D01*
X13058904Y8687944D01*
X13060754Y8693128D01*
X13061496Y8696091D01*
X13062607Y8699794D01*
X13063718Y8703497D01*
X13064828Y8707571D01*
X13066310Y8712385D01*
X13067792Y8717200D01*
X13069273Y8722755D01*
X13070753Y8728310D01*
X13084087Y8728310D01*
X13089641Y8727939D01*
X13117786Y8727939D01*
X13125934Y8727569D01*
X13201111Y8727569D01*
X13208147Y8727939D01*
X13242587Y8727939D01*
X13252957Y8728310D01*
X13263696Y8728310D01*
X13263696Y8727939D01*
X13263696Y8727939D02*
G37*
G36*
X13548112Y8736827D02*
X13555888Y8736827D01*
X13560703Y8736457D01*
X13565887Y8736087D01*
X13571072Y8735716D01*
X13582553Y8734235D01*
X13594774Y8732754D01*
X13606995Y8730532D01*
X13607365Y8730532D01*
X13608476Y8730161D01*
X13610329Y8729791D01*
X13612550Y8729421D01*
X13615514Y8728680D01*
X13618846Y8727569D01*
X13622549Y8726828D01*
X13626622Y8725347D01*
X13635881Y8722384D01*
X13645880Y8718681D01*
X13655879Y8714237D01*
X13665878Y8708682D01*
X13666248Y8708682D01*
X13666989Y8707941D01*
X13668469Y8707201D01*
X13670322Y8706090D01*
X13672173Y8704608D01*
X13674767Y8702757D01*
X13680321Y8698313D01*
X13686617Y8693128D01*
X13693282Y8686833D01*
X13699208Y8679796D01*
X13704762Y8672390D01*
X13704762Y8672019D01*
X13705502Y8671649D01*
X13705875Y8670168D01*
X13706985Y8668686D01*
X13707726Y8666835D01*
X13708836Y8664613D01*
X13711429Y8659058D01*
X13713651Y8652392D01*
X13715872Y8644985D01*
X13717354Y8636838D01*
X13717725Y8627950D01*
X13717725Y8627209D01*
X13717725Y8625357D01*
X13717354Y8622395D01*
X13717354Y8618321D01*
X13716612Y8613507D01*
X13715872Y8608322D01*
X13715132Y8602767D01*
X13713651Y8596842D01*
X13713651Y8596101D01*
X13712910Y8594250D01*
X13711800Y8591287D01*
X13710687Y8587213D01*
X13708836Y8582029D01*
X13706244Y8576103D01*
X13703281Y8569808D01*
X13699948Y8562401D01*
X13699948Y8562031D01*
X13699208Y8561290D01*
X13698466Y8560179D01*
X13697726Y8558327D01*
X13696245Y8556105D01*
X13694765Y8553513D01*
X13691060Y8547217D01*
X13686246Y8539811D01*
X13681061Y8531663D01*
X13674767Y8522775D01*
X13667729Y8513887D01*
X13667358Y8513517D01*
X13666618Y8512406D01*
X13664767Y8510184D01*
X13662915Y8507592D01*
X13659952Y8504629D01*
X13656990Y8500556D01*
X13653287Y8496112D01*
X13649213Y8491297D01*
X13644398Y8486113D01*
X13639584Y8480187D01*
X13634029Y8474262D01*
X13628474Y8467966D01*
X13615883Y8454264D01*
X13602551Y8440191D01*
X13602180Y8439821D01*
X13601070Y8438710D01*
X13598848Y8436488D01*
X13596255Y8433896D01*
X13592921Y8430563D01*
X13588849Y8426489D01*
X13584035Y8421675D01*
X13578850Y8416490D01*
X13572923Y8410565D01*
X13566258Y8404269D01*
X13559592Y8397603D01*
X13551814Y8390567D01*
X13544038Y8383160D01*
X13535521Y8375383D01*
X13527003Y8367236D01*
X13517744Y8359089D01*
X13554778Y8358718D01*
X13582553Y8358718D01*
X13588107Y8359089D01*
X13613661Y8359089D01*
X13616994Y8359459D01*
X13628844Y8359459D01*
X13638103Y8359829D01*
X13646991Y8360200D01*
X13655138Y8360200D01*
X13658841Y8360570D01*
X13664767Y8360570D01*
X13668100Y8360940D01*
X13672543Y8361311D01*
X13678099Y8361681D01*
X13684393Y8362422D01*
X13691801Y8363162D01*
X13699948Y8363903D01*
X13699948Y8363162D01*
X13699577Y8360940D01*
X13699577Y8357237D01*
X13699208Y8352423D01*
X13698837Y8346497D01*
X13698097Y8339461D01*
X13697356Y8331314D01*
X13696616Y8322426D01*
X13696616Y8322055D01*
X13696616Y8321315D01*
X13696245Y8319834D01*
X13696245Y8317982D01*
X13695876Y8315760D01*
X13695876Y8312797D01*
X13695505Y8309464D01*
X13695134Y8305761D01*
X13694765Y8301687D01*
X13694392Y8297243D01*
X13694023Y8292059D01*
X13693652Y8286874D01*
X13692912Y8275394D01*
X13692171Y8262802D01*
X13649953Y8262802D01*
X13638103Y8263173D01*
X13387389Y8263173D01*
X13371465Y8262802D01*
X13325543Y8262802D01*
X13325543Y8263173D01*
X13325543Y8263543D01*
X13325912Y8265765D01*
X13325912Y8269098D01*
X13326283Y8273912D01*
X13326654Y8280208D01*
X13326654Y8287244D01*
X13327023Y8295762D01*
X13327394Y8305020D01*
X13327394Y8305391D01*
X13327394Y8306131D01*
X13327394Y8307613D01*
X13327765Y8309464D01*
X13327765Y8312057D01*
X13327765Y8315019D01*
X13328136Y8318352D01*
X13328136Y8321685D01*
X13328505Y8329832D01*
X13328876Y8339091D01*
X13329616Y8349090D01*
X13329987Y8359089D01*
X13330357Y8359459D01*
X13331468Y8360570D01*
X13333321Y8362051D01*
X13335912Y8363903D01*
X13339246Y8366495D01*
X13342578Y8369828D01*
X13346651Y8373161D01*
X13351466Y8376865D01*
X13361465Y8385382D01*
X13372205Y8395011D01*
X13383685Y8405010D01*
X13394795Y8415379D01*
X13395535Y8415749D01*
X13397017Y8417231D01*
X13399609Y8419823D01*
X13402942Y8422786D01*
X13407016Y8426859D01*
X13411830Y8431674D01*
X13417384Y8436858D01*
X13423682Y8442413D01*
X13429976Y8448709D01*
X13436642Y8455375D01*
X13451085Y8469448D01*
X13465527Y8483891D01*
X13479971Y8498704D01*
X13480341Y8499074D01*
X13481451Y8500185D01*
X13482935Y8501667D01*
X13484785Y8503889D01*
X13487378Y8506481D01*
X13490340Y8509814D01*
X13493674Y8513517D01*
X13497377Y8517220D01*
X13505154Y8526108D01*
X13513301Y8535737D01*
X13521819Y8545366D01*
X13529594Y8555365D01*
X13529967Y8556105D01*
X13531447Y8557957D01*
X13533299Y8560920D01*
X13535892Y8564253D01*
X13538483Y8568326D01*
X13540704Y8572770D01*
X13542928Y8576844D01*
X13544778Y8580918D01*
X13544778Y8581288D01*
X13545149Y8582029D01*
X13545889Y8583510D01*
X13546260Y8585732D01*
X13547371Y8590176D01*
X13547742Y8595731D01*
X13547742Y8596101D01*
X13547742Y8597583D01*
X13547371Y8599434D01*
X13547371Y8601656D01*
X13545889Y8607211D01*
X13544778Y8610174D01*
X13543298Y8612766D01*
X13542928Y8613136D01*
X13542557Y8613877D01*
X13541446Y8615358D01*
X13539964Y8617210D01*
X13537743Y8619062D01*
X13535521Y8621284D01*
X13532558Y8623506D01*
X13529225Y8625357D01*
X13528854Y8625728D01*
X13527374Y8626098D01*
X13525522Y8627209D01*
X13522559Y8628320D01*
X13519226Y8629801D01*
X13515154Y8630912D01*
X13510709Y8632394D01*
X13505894Y8633505D01*
X13505154Y8633505D01*
X13503671Y8633875D01*
X13500710Y8634616D01*
X13497006Y8635356D01*
X13492561Y8635727D01*
X13487378Y8636467D01*
X13481451Y8636838D01*
X13468861Y8636838D01*
X13466269Y8636467D01*
X13459973Y8636467D01*
X13452567Y8635727D01*
X13444049Y8634986D01*
X13434792Y8634245D01*
X13424792Y8632764D01*
X13424422Y8632764D01*
X13423682Y8632394D01*
X13422198Y8632394D01*
X13419977Y8632023D01*
X13417384Y8631653D01*
X13414052Y8630912D01*
X13410349Y8630172D01*
X13405905Y8629431D01*
X13401089Y8628320D01*
X13395906Y8627209D01*
X13389980Y8626098D01*
X13383685Y8624617D01*
X13376648Y8622765D01*
X13369241Y8621284D01*
X13361465Y8619432D01*
X13353317Y8617210D01*
X13362206Y8665724D01*
X13362206Y8666464D01*
X13362576Y8667205D01*
X13362946Y8668686D01*
X13362946Y8670538D01*
X13363316Y8672390D01*
X13364056Y8674982D01*
X13364427Y8678315D01*
X13365169Y8681648D01*
X13365538Y8685722D01*
X13366280Y8690536D01*
X13367390Y8695720D01*
X13368130Y8701275D01*
X13368871Y8707571D01*
X13369981Y8714607D01*
X13371094Y8722014D01*
X13372205Y8722014D01*
X13373315Y8722384D01*
X13375166Y8722755D01*
X13377390Y8723125D01*
X13379980Y8723495D01*
X13382944Y8723866D01*
X13386276Y8724236D01*
X13389980Y8724977D01*
X13394054Y8725717D01*
X13403313Y8726828D01*
X13414052Y8728310D01*
X13425533Y8729791D01*
X13438123Y8730902D01*
X13451456Y8732383D01*
X13465158Y8733865D01*
X13479601Y8734976D01*
X13509227Y8736457D01*
X13538853Y8737198D01*
X13544778Y8737198D01*
X13548112Y8736827D01*
X13548112Y8736827D02*
G37*
G36*
X10690204Y5554569D02*
X10690204Y5554338D01*
X10689741Y5553643D01*
X10689278Y5552486D01*
X10688353Y5551098D01*
X10687427Y5549016D01*
X10686039Y5546702D01*
X10684650Y5543694D01*
X10683030Y5540454D01*
X10680948Y5536752D01*
X10678865Y5532587D01*
X10676551Y5527959D01*
X10674006Y5522868D01*
X10671229Y5517315D01*
X10668221Y5511298D01*
X10665213Y5505051D01*
X10661742Y5498109D01*
X10657114Y5498109D01*
X10655495Y5498340D01*
X10647396Y5498340D01*
X10643231Y5498572D01*
X10627727Y5498572D01*
X10625413Y5498340D01*
X10616389Y5498340D01*
X10612455Y5498109D01*
X10608059Y5498109D01*
X10652255Y5579097D01*
X10774200Y5806326D01*
X10817702Y5888702D01*
X10821867Y5888702D01*
X10823487Y5888471D01*
X10831354Y5888471D01*
X10835519Y5888239D01*
X10848940Y5888239D01*
X10852411Y5888471D01*
X10861667Y5888471D01*
X10867220Y5888702D01*
X10690204Y5554569D01*
X10690204Y5554569D02*
G37*
G36*
X11536643Y5901660D02*
X11540577Y5901429D01*
X11545204Y5901197D01*
X11550064Y5900734D01*
X11555386Y5900272D01*
X11556080Y5900272D01*
X11556774Y5900040D01*
X11557931Y5900040D01*
X11559320Y5899809D01*
X11561171Y5899577D01*
X11563022Y5899115D01*
X11565104Y5898883D01*
X11567650Y5898421D01*
X11570195Y5897958D01*
X11576211Y5896569D01*
X11582922Y5895181D01*
X11590095Y5893330D01*
X11590095Y5892867D01*
X11590095Y5891941D01*
X11590095Y5890090D01*
X11590326Y5887776D01*
X11590326Y5884768D01*
X11590326Y5881297D01*
X11590558Y5877595D01*
X11590558Y5873661D01*
X11590789Y5869265D01*
X11591021Y5864637D01*
X11591483Y5855381D01*
X11592177Y5845894D01*
X11592409Y5841498D01*
X11592872Y5837101D01*
X11592640Y5837101D01*
X11591946Y5837332D01*
X11590789Y5837795D01*
X11589401Y5838258D01*
X11587318Y5838952D01*
X11585236Y5839415D01*
X11582690Y5840109D01*
X11580145Y5841035D01*
X11574129Y5842423D01*
X11567881Y5843580D01*
X11561171Y5844506D01*
X11554692Y5844737D01*
X11552840Y5844737D01*
X11550758Y5844506D01*
X11548213Y5844043D01*
X11545204Y5843349D01*
X11542196Y5842423D01*
X11539188Y5841266D01*
X11536643Y5839415D01*
X11536412Y5839184D01*
X11535717Y5838258D01*
X11534560Y5836870D01*
X11533403Y5835019D01*
X11532246Y5832242D01*
X11531089Y5828771D01*
X11530395Y5824606D01*
X11530164Y5819747D01*
X11530395Y5813499D01*
X11579682Y5813499D01*
X11579682Y5813268D01*
X11579682Y5812342D01*
X11579451Y5810954D01*
X11579451Y5809102D01*
X11579219Y5806788D01*
X11578988Y5804012D01*
X11578757Y5800541D01*
X11578525Y5796839D01*
X11578294Y5792673D01*
X11578062Y5788277D01*
X11577831Y5783418D01*
X11577368Y5778096D01*
X11577137Y5772542D01*
X11576905Y5766757D01*
X11576443Y5760741D01*
X11576211Y5754262D01*
X11531784Y5754262D01*
X11524842Y5597840D01*
X11513041Y5597840D01*
X11509801Y5598071D01*
X11455655Y5598071D01*
X11447556Y5597840D01*
X11438763Y5597840D01*
X11438763Y5598071D01*
X11438763Y5598302D01*
X11438763Y5598997D01*
X11438995Y5599922D01*
X11438995Y5600848D01*
X11439226Y5602468D01*
X11439226Y5604087D01*
X11439457Y5605938D01*
X11439689Y5608252D01*
X11439920Y5610798D01*
X11440152Y5613574D01*
X11440383Y5616814D01*
X11440614Y5620285D01*
X11440846Y5623987D01*
X11441077Y5628152D01*
X11441540Y5632780D01*
X11441771Y5637408D01*
X11442234Y5642499D01*
X11442466Y5648052D01*
X11442928Y5653837D01*
X11443160Y5660085D01*
X11443623Y5666795D01*
X11444085Y5673737D01*
X11444548Y5680910D01*
X11445011Y5688778D01*
X11445474Y5696876D01*
X11445936Y5705438D01*
X11446399Y5714231D01*
X11446862Y5723718D01*
X11447325Y5733437D01*
X11448019Y5743618D01*
X11448482Y5754262D01*
X11422566Y5754262D01*
X11422566Y5754493D01*
X11422566Y5755650D01*
X11422797Y5757502D01*
X11422797Y5758659D01*
X11423028Y5760278D01*
X11423028Y5761898D01*
X11423260Y5763981D01*
X11423260Y5766295D01*
X11423491Y5768840D01*
X11423723Y5771617D01*
X11423723Y5774856D01*
X11423954Y5778327D01*
X11424185Y5782261D01*
X11424185Y5782492D01*
X11424185Y5783186D01*
X11424185Y5784343D01*
X11424417Y5785732D01*
X11424417Y5787583D01*
X11424648Y5789665D01*
X11424880Y5794293D01*
X11425111Y5799384D01*
X11425342Y5804475D01*
X11425342Y5809334D01*
X11425574Y5811648D01*
X11425574Y5813499D01*
X11455655Y5813499D01*
X11455655Y5813962D01*
X11455655Y5814887D01*
X11455655Y5816507D01*
X11455655Y5818358D01*
X11455655Y5820672D01*
X11455655Y5823217D01*
X11455655Y5828077D01*
X11455655Y5828308D01*
X11455655Y5829002D01*
X11455655Y5829928D01*
X11455655Y5831316D01*
X11455655Y5832936D01*
X11455655Y5834787D01*
X11455886Y5839184D01*
X11456118Y5844274D01*
X11456349Y5849365D01*
X11456812Y5854224D01*
X11457506Y5858621D01*
X11457506Y5858852D01*
X11457506Y5859084D01*
X11457969Y5860472D01*
X11458432Y5862554D01*
X11459126Y5865100D01*
X11460283Y5868108D01*
X11461440Y5871347D01*
X11463060Y5874587D01*
X11464911Y5877595D01*
X11465142Y5878058D01*
X11465836Y5878983D01*
X11467225Y5880372D01*
X11468844Y5882223D01*
X11471158Y5884537D01*
X11473704Y5886851D01*
X11476943Y5889165D01*
X11480414Y5891479D01*
X11480646Y5891479D01*
X11480877Y5891710D01*
X11482265Y5892404D01*
X11484116Y5893561D01*
X11486893Y5894718D01*
X11490364Y5896107D01*
X11494066Y5897495D01*
X11498232Y5898652D01*
X11502859Y5899577D01*
X11503322Y5899577D01*
X11504016Y5899809D01*
X11504942Y5900040D01*
X11507487Y5900272D01*
X11510727Y5900734D01*
X11514660Y5901197D01*
X11519057Y5901429D01*
X11523916Y5901891D01*
X11533403Y5901891D01*
X11536643Y5901660D01*
X11536643Y5901660D02*
G37*
G36*
X11363792Y5901660D02*
X11367725Y5901429D01*
X11372353Y5901197D01*
X11377212Y5900734D01*
X11382535Y5900272D01*
X11383229Y5900272D01*
X11383923Y5900040D01*
X11385080Y5900040D01*
X11386468Y5899809D01*
X11388319Y5899577D01*
X11390171Y5899115D01*
X11392253Y5898883D01*
X11394798Y5898421D01*
X11397344Y5897958D01*
X11403360Y5896569D01*
X11410070Y5895181D01*
X11417244Y5893330D01*
X11417244Y5892867D01*
X11417244Y5891941D01*
X11417244Y5890090D01*
X11417475Y5887776D01*
X11417475Y5884768D01*
X11417475Y5881297D01*
X11417706Y5877595D01*
X11417706Y5873661D01*
X11417938Y5869265D01*
X11418169Y5864637D01*
X11418632Y5855381D01*
X11419326Y5845894D01*
X11419558Y5841498D01*
X11420020Y5837101D01*
X11419789Y5837101D01*
X11419095Y5837332D01*
X11417938Y5837795D01*
X11416549Y5838258D01*
X11414467Y5838952D01*
X11412384Y5839415D01*
X11409839Y5840109D01*
X11407294Y5841035D01*
X11401277Y5842423D01*
X11395030Y5843580D01*
X11388319Y5844506D01*
X11381840Y5844737D01*
X11379989Y5844737D01*
X11377907Y5844506D01*
X11375361Y5844043D01*
X11372353Y5843349D01*
X11369345Y5842423D01*
X11366337Y5841266D01*
X11363792Y5839415D01*
X11363560Y5839184D01*
X11362866Y5838258D01*
X11361709Y5836870D01*
X11360552Y5835019D01*
X11359395Y5832242D01*
X11358238Y5828771D01*
X11357544Y5824606D01*
X11357313Y5819747D01*
X11357544Y5813499D01*
X11406831Y5813499D01*
X11406831Y5813268D01*
X11406831Y5812342D01*
X11406599Y5810954D01*
X11406599Y5809102D01*
X11406368Y5806788D01*
X11406137Y5804012D01*
X11405905Y5800541D01*
X11405674Y5796839D01*
X11405443Y5792673D01*
X11405211Y5788277D01*
X11404980Y5783418D01*
X11404517Y5778096D01*
X11404286Y5772542D01*
X11404054Y5766757D01*
X11403591Y5760741D01*
X11403360Y5754262D01*
X11358932Y5754262D01*
X11351991Y5597840D01*
X11340189Y5597840D01*
X11336950Y5598071D01*
X11282804Y5598071D01*
X11274705Y5597840D01*
X11265912Y5597840D01*
X11265912Y5598071D01*
X11265912Y5598302D01*
X11265912Y5598997D01*
X11266143Y5599922D01*
X11266143Y5600848D01*
X11266375Y5602468D01*
X11266375Y5604087D01*
X11266606Y5605938D01*
X11266838Y5608252D01*
X11267069Y5610798D01*
X11267300Y5613574D01*
X11267532Y5616814D01*
X11267763Y5620285D01*
X11267994Y5623987D01*
X11268226Y5628152D01*
X11268689Y5632780D01*
X11268920Y5637408D01*
X11269383Y5642499D01*
X11269614Y5648052D01*
X11270077Y5653837D01*
X11270308Y5660085D01*
X11270771Y5666795D01*
X11271234Y5673737D01*
X11271697Y5680910D01*
X11272160Y5688778D01*
X11272622Y5696876D01*
X11273085Y5705438D01*
X11273548Y5714231D01*
X11274011Y5723718D01*
X11274474Y5733437D01*
X11275168Y5743618D01*
X11275630Y5754262D01*
X11249714Y5754262D01*
X11249714Y5754493D01*
X11249714Y5755650D01*
X11249946Y5757502D01*
X11249946Y5758659D01*
X11250177Y5760278D01*
X11250177Y5761898D01*
X11250409Y5763981D01*
X11250409Y5766295D01*
X11250640Y5768840D01*
X11250871Y5771617D01*
X11250871Y5774856D01*
X11251103Y5778327D01*
X11251334Y5782261D01*
X11251334Y5782492D01*
X11251334Y5783186D01*
X11251334Y5784343D01*
X11251566Y5785732D01*
X11251566Y5787583D01*
X11251797Y5789665D01*
X11252028Y5794293D01*
X11252260Y5799384D01*
X11252491Y5804475D01*
X11252491Y5809334D01*
X11252722Y5811648D01*
X11252722Y5813499D01*
X11282804Y5813499D01*
X11282804Y5813962D01*
X11282804Y5814887D01*
X11282804Y5816507D01*
X11282804Y5818358D01*
X11282804Y5820672D01*
X11282804Y5823217D01*
X11282804Y5828077D01*
X11282804Y5828308D01*
X11282804Y5829002D01*
X11282804Y5829928D01*
X11282804Y5831316D01*
X11282804Y5832936D01*
X11282804Y5834787D01*
X11283035Y5839184D01*
X11283266Y5844274D01*
X11283498Y5849365D01*
X11283961Y5854224D01*
X11284655Y5858621D01*
X11284655Y5858852D01*
X11284655Y5859084D01*
X11285118Y5860472D01*
X11285580Y5862554D01*
X11286275Y5865100D01*
X11287432Y5868108D01*
X11288589Y5871347D01*
X11290208Y5874587D01*
X11292059Y5877595D01*
X11292291Y5878058D01*
X11292985Y5878983D01*
X11294373Y5880372D01*
X11295993Y5882223D01*
X11298307Y5884537D01*
X11300852Y5886851D01*
X11304092Y5889165D01*
X11307563Y5891479D01*
X11307794Y5891479D01*
X11308026Y5891710D01*
X11309414Y5892404D01*
X11311265Y5893561D01*
X11314042Y5894718D01*
X11317513Y5896107D01*
X11321215Y5897495D01*
X11325380Y5898652D01*
X11330008Y5899577D01*
X11330471Y5899577D01*
X11331165Y5899809D01*
X11332091Y5900040D01*
X11334636Y5900272D01*
X11337875Y5900734D01*
X11341809Y5901197D01*
X11346206Y5901429D01*
X11351065Y5901891D01*
X11360552Y5901891D01*
X11363792Y5901660D01*
X11363792Y5901660D02*
G37*
G36*
X10569185Y5820672D02*
X10573118Y5820441D01*
X10577746Y5819978D01*
X10582605Y5819515D01*
X10587928Y5818590D01*
X10593481Y5817433D01*
X10593712Y5817433D01*
X10594175Y5817201D01*
X10594869Y5817201D01*
X10596026Y5816738D01*
X10598572Y5816044D01*
X10602043Y5815119D01*
X10605745Y5813730D01*
X10609910Y5812111D01*
X10613844Y5810259D01*
X10617777Y5807945D01*
X10618009Y5807945D01*
X10618240Y5807714D01*
X10619397Y5806788D01*
X10621248Y5805632D01*
X10623562Y5803780D01*
X10626108Y5801698D01*
X10628884Y5799152D01*
X10631661Y5796144D01*
X10634206Y5792905D01*
X10634438Y5792442D01*
X10635363Y5791285D01*
X10636520Y5789434D01*
X10637909Y5787120D01*
X10639297Y5784112D01*
X10640685Y5780872D01*
X10642074Y5777401D01*
X10642999Y5773468D01*
X10642999Y5773005D01*
X10643462Y5771617D01*
X10643693Y5769534D01*
X10644156Y5766989D01*
X10644619Y5763749D01*
X10644850Y5760047D01*
X10645313Y5756113D01*
X10645313Y5751948D01*
X10645313Y5751485D01*
X10645313Y5751023D01*
X10645313Y5750328D01*
X10645313Y5749171D01*
X10645313Y5748014D01*
X10645082Y5746395D01*
X10645082Y5744544D01*
X10645082Y5742461D01*
X10644850Y5739916D01*
X10644619Y5736908D01*
X10644619Y5733899D01*
X10644388Y5730197D01*
X10644156Y5726263D01*
X10643693Y5721867D01*
X10643462Y5717008D01*
X10639760Y5639953D01*
X10639760Y5639722D01*
X10639760Y5639028D01*
X10639760Y5637639D01*
X10639528Y5636020D01*
X10639528Y5634169D01*
X10639297Y5631623D01*
X10639297Y5629078D01*
X10639297Y5626070D01*
X10639066Y5619591D01*
X10638834Y5612418D01*
X10638603Y5605244D01*
X10638603Y5597840D01*
X10628190Y5597840D01*
X10625413Y5598071D01*
X10568259Y5598071D01*
X10560160Y5597840D01*
X10552293Y5597840D01*
X10552293Y5598071D01*
X10552293Y5598765D01*
X10552524Y5599922D01*
X10552524Y5601542D01*
X10552756Y5603393D01*
X10552987Y5605938D01*
X10553218Y5608947D01*
X10553450Y5612186D01*
X10553681Y5616120D01*
X10554144Y5620285D01*
X10554375Y5624913D01*
X10554838Y5630235D01*
X10555070Y5635788D01*
X10555532Y5641805D01*
X10555764Y5648284D01*
X10556227Y5655225D01*
X10556227Y5655688D01*
X10556227Y5656845D01*
X10556458Y5658928D01*
X10556458Y5661473D01*
X10556689Y5664713D01*
X10556921Y5668183D01*
X10557152Y5672117D01*
X10557384Y5676282D01*
X10557615Y5685307D01*
X10558078Y5694100D01*
X10558078Y5698496D01*
X10558309Y5702430D01*
X10558309Y5705901D01*
X10558309Y5709140D01*
X10558309Y5709372D01*
X10558309Y5710297D01*
X10558309Y5711454D01*
X10558078Y5713074D01*
X10558078Y5714925D01*
X10557846Y5717239D01*
X10557152Y5722330D01*
X10555995Y5727883D01*
X10554375Y5733437D01*
X10552061Y5738527D01*
X10550673Y5740841D01*
X10549053Y5742692D01*
X10548591Y5743155D01*
X10547434Y5744081D01*
X10545351Y5745700D01*
X10542574Y5747552D01*
X10539335Y5749171D01*
X10535401Y5750791D01*
X10530773Y5751717D01*
X10525683Y5752180D01*
X10524526Y5752180D01*
X10523600Y5751948D01*
X10521286Y5751717D01*
X10518278Y5751254D01*
X10514576Y5750097D01*
X10510642Y5748709D01*
X10506477Y5746857D01*
X10502312Y5744081D01*
X10502080Y5744081D01*
X10501849Y5743618D01*
X10500461Y5742692D01*
X10498609Y5740610D01*
X10496064Y5738064D01*
X10493519Y5734825D01*
X10490511Y5730660D01*
X10487965Y5726032D01*
X10485420Y5720479D01*
X10485420Y5720247D01*
X10485189Y5719784D01*
X10484957Y5718859D01*
X10484494Y5717470D01*
X10484032Y5715851D01*
X10483569Y5713768D01*
X10482875Y5711223D01*
X10482180Y5708215D01*
X10481486Y5704975D01*
X10480792Y5701273D01*
X10480098Y5697108D01*
X10479404Y5692480D01*
X10478710Y5687389D01*
X10478247Y5681836D01*
X10477553Y5676051D01*
X10477090Y5669572D01*
X10477090Y5669109D01*
X10477090Y5667952D01*
X10476858Y5666101D01*
X10476627Y5663556D01*
X10476627Y5660316D01*
X10476396Y5656614D01*
X10476164Y5652217D01*
X10475933Y5647358D01*
X10475470Y5642267D01*
X10475239Y5636714D01*
X10475007Y5630698D01*
X10474776Y5624450D01*
X10474313Y5611492D01*
X10473850Y5597840D01*
X10463438Y5597840D01*
X10460661Y5598071D01*
X10403738Y5598071D01*
X10395176Y5597840D01*
X10386152Y5597840D01*
X10386152Y5598071D01*
X10386152Y5598302D01*
X10386383Y5598997D01*
X10386383Y5599922D01*
X10386615Y5601311D01*
X10386846Y5602699D01*
X10386846Y5604319D01*
X10387078Y5606170D01*
X10387540Y5610798D01*
X10388234Y5616120D01*
X10388929Y5622367D01*
X10389623Y5629309D01*
X10390317Y5636714D01*
X10391011Y5645044D01*
X10391937Y5653837D01*
X10392631Y5663093D01*
X10393325Y5673043D01*
X10394019Y5683224D01*
X10394714Y5693637D01*
X10395408Y5704512D01*
X10395408Y5704744D01*
X10395408Y5705207D01*
X10395408Y5705901D01*
X10395639Y5707058D01*
X10395639Y5708446D01*
X10395639Y5710297D01*
X10395870Y5712148D01*
X10395870Y5714462D01*
X10396102Y5717008D01*
X10396102Y5719784D01*
X10396565Y5725801D01*
X10396796Y5732742D01*
X10397027Y5740378D01*
X10397490Y5748477D01*
X10397722Y5757270D01*
X10398184Y5766526D01*
X10398416Y5776013D01*
X10398647Y5785732D01*
X10398879Y5795682D01*
X10399341Y5815350D01*
X10405820Y5815350D01*
X10408366Y5815119D01*
X10421324Y5815119D01*
X10428728Y5814887D01*
X10459967Y5814887D01*
X10463206Y5815119D01*
X10477553Y5815119D01*
X10484957Y5815350D01*
X10482643Y5786194D01*
X10482875Y5786657D01*
X10483800Y5787583D01*
X10485189Y5788971D01*
X10486808Y5790822D01*
X10488891Y5792673D01*
X10490742Y5794756D01*
X10492825Y5796839D01*
X10494907Y5798690D01*
X10495139Y5798921D01*
X10495833Y5799384D01*
X10496990Y5800309D01*
X10498378Y5801466D01*
X10500229Y5802855D01*
X10502312Y5804475D01*
X10504857Y5806094D01*
X10507402Y5807714D01*
X10507865Y5807945D01*
X10508791Y5808408D01*
X10510179Y5809334D01*
X10512262Y5810259D01*
X10514807Y5811416D01*
X10517352Y5812573D01*
X10520360Y5813730D01*
X10523600Y5814887D01*
X10524063Y5815119D01*
X10525220Y5815350D01*
X10526839Y5815813D01*
X10529153Y5816507D01*
X10531930Y5817201D01*
X10535170Y5817895D01*
X10538641Y5818590D01*
X10542343Y5819284D01*
X10542806Y5819284D01*
X10544194Y5819515D01*
X10546045Y5819747D01*
X10548822Y5820209D01*
X10552061Y5820441D01*
X10555532Y5820672D01*
X10559466Y5820904D01*
X10567565Y5820904D01*
X10569185Y5820672D01*
X10569185Y5820672D02*
G37*
G36*
X11062517Y5894024D02*
X11065756Y5894024D01*
X11069227Y5893793D01*
X11073392Y5893561D01*
X11077789Y5893098D01*
X11082648Y5892636D01*
X11087739Y5891941D01*
X11093292Y5891247D01*
X11098845Y5890322D01*
X11110647Y5888008D01*
X11122448Y5885000D01*
X11122910Y5885000D01*
X11123836Y5884537D01*
X11125456Y5884074D01*
X11127770Y5883149D01*
X11130546Y5882223D01*
X11133786Y5881066D01*
X11137257Y5879446D01*
X11141191Y5877826D01*
X11145356Y5875975D01*
X11149984Y5873661D01*
X11154380Y5871347D01*
X11159239Y5868802D01*
X11163867Y5865794D01*
X11168495Y5862554D01*
X11173354Y5859315D01*
X11177751Y5855613D01*
X11177982Y5855381D01*
X11178908Y5854687D01*
X11180065Y5853530D01*
X11181685Y5852142D01*
X11183536Y5850059D01*
X11185850Y5847977D01*
X11188395Y5845200D01*
X11190940Y5842192D01*
X11193948Y5838952D01*
X11196725Y5835481D01*
X11199733Y5831548D01*
X11202741Y5827614D01*
X11208295Y5818821D01*
X11210840Y5814193D01*
X11213154Y5809334D01*
X11213385Y5809102D01*
X11213617Y5808177D01*
X11214311Y5806788D01*
X11215005Y5804706D01*
X11215931Y5802161D01*
X11216856Y5799152D01*
X11218013Y5795913D01*
X11219170Y5791979D01*
X11220096Y5787814D01*
X11221253Y5783186D01*
X11222178Y5778096D01*
X11223104Y5772774D01*
X11223798Y5767220D01*
X11224492Y5761435D01*
X11224724Y5755188D01*
X11224955Y5748940D01*
X11224955Y5748477D01*
X11224955Y5747320D01*
X11224955Y5745469D01*
X11224724Y5742924D01*
X11224492Y5739684D01*
X11224261Y5735982D01*
X11223798Y5732048D01*
X11223335Y5727420D01*
X11222641Y5722561D01*
X11221716Y5717239D01*
X11220790Y5711917D01*
X11219402Y5706132D01*
X11218013Y5700579D01*
X11216394Y5694794D01*
X11214311Y5689009D01*
X11211997Y5683224D01*
X11211766Y5682993D01*
X11211303Y5681836D01*
X11210609Y5680447D01*
X11209683Y5678133D01*
X11208295Y5675588D01*
X11206675Y5672580D01*
X11204593Y5669340D01*
X11202510Y5665638D01*
X11199965Y5661704D01*
X11197188Y5657771D01*
X11194180Y5653374D01*
X11190709Y5649209D01*
X11187238Y5644813D01*
X11183304Y5640648D01*
X11179139Y5636251D01*
X11174743Y5632317D01*
X11174511Y5632086D01*
X11173586Y5631392D01*
X11172197Y5630235D01*
X11170346Y5628847D01*
X11168032Y5627227D01*
X11165256Y5625144D01*
X11162016Y5623062D01*
X11158314Y5620748D01*
X11154380Y5618202D01*
X11149984Y5615657D01*
X11145124Y5613112D01*
X11140034Y5610566D01*
X11134480Y5608252D01*
X11128927Y5605938D01*
X11122910Y5603625D01*
X11116663Y5601773D01*
X11116200Y5601773D01*
X11115043Y5601311D01*
X11113423Y5600848D01*
X11110878Y5600385D01*
X11107870Y5599691D01*
X11104168Y5598765D01*
X11100002Y5597840D01*
X11095375Y5597146D01*
X11090284Y5596220D01*
X11084730Y5595294D01*
X11078946Y5594600D01*
X11072929Y5593675D01*
X11066682Y5593212D01*
X11059971Y5592749D01*
X11046550Y5592286D01*
X11043080Y5592286D01*
X11040534Y5592518D01*
X11037295Y5592518D01*
X11033361Y5592749D01*
X11029196Y5592980D01*
X11024568Y5593443D01*
X11019477Y5593906D01*
X11013924Y5594600D01*
X11008370Y5595294D01*
X11002354Y5596220D01*
X10990090Y5598534D01*
X10977595Y5601542D01*
X10977132Y5601773D01*
X10976207Y5602005D01*
X10974355Y5602468D01*
X10972042Y5603393D01*
X10969265Y5604319D01*
X10965794Y5605707D01*
X10962092Y5607095D01*
X10957927Y5608947D01*
X10953530Y5611029D01*
X10948902Y5613343D01*
X10944274Y5615657D01*
X10939415Y5618434D01*
X10934324Y5621673D01*
X10929465Y5624913D01*
X10924606Y5628384D01*
X10919978Y5632317D01*
X10919747Y5632549D01*
X10918821Y5633243D01*
X10917664Y5634400D01*
X10916044Y5636020D01*
X10913962Y5638102D01*
X10911648Y5640416D01*
X10909334Y5643193D01*
X10906557Y5646201D01*
X10903780Y5649672D01*
X10901004Y5653143D01*
X10897995Y5657077D01*
X10895219Y5661242D01*
X10889897Y5670035D01*
X10887583Y5674663D01*
X10885500Y5679522D01*
X10885500Y5679753D01*
X10885037Y5680679D01*
X10884575Y5682067D01*
X10883880Y5684150D01*
X10883186Y5686464D01*
X10882261Y5689472D01*
X10881335Y5692711D01*
X10880410Y5696414D01*
X10879484Y5700579D01*
X10878558Y5704975D01*
X10877633Y5709834D01*
X10876939Y5714925D01*
X10876244Y5720247D01*
X10875782Y5725801D01*
X10875550Y5731354D01*
X10875319Y5737370D01*
X10875319Y5737602D01*
X10875319Y5737833D01*
X10875319Y5738527D01*
X10875319Y5739453D01*
X10875550Y5741998D01*
X10875550Y5745238D01*
X10876013Y5749171D01*
X10876476Y5754031D01*
X10877170Y5759353D01*
X10878096Y5765138D01*
X10879253Y5771154D01*
X10880641Y5777864D01*
X10882261Y5784575D01*
X10884343Y5791516D01*
X10886889Y5798458D01*
X10889665Y5805400D01*
X10893136Y5812342D01*
X10896839Y5819052D01*
X10897070Y5819515D01*
X10897764Y5820672D01*
X10899152Y5822523D01*
X10901004Y5824837D01*
X10903086Y5827845D01*
X10905863Y5831316D01*
X10909334Y5835019D01*
X10913036Y5839184D01*
X10917201Y5843580D01*
X10922060Y5848208D01*
X10927383Y5852604D01*
X10933167Y5857232D01*
X10939415Y5861860D01*
X10946125Y5866257D01*
X10953299Y5870422D01*
X10960935Y5874356D01*
X10961166Y5874356D01*
X10961397Y5874587D01*
X10962092Y5874818D01*
X10962786Y5875281D01*
X10965331Y5876207D01*
X10968339Y5877364D01*
X10972504Y5878983D01*
X10977132Y5880603D01*
X10982686Y5882454D01*
X10988933Y5884305D01*
X10995644Y5886157D01*
X11003048Y5888008D01*
X11010916Y5889628D01*
X11019246Y5891247D01*
X11028039Y5892404D01*
X11037295Y5893330D01*
X11046782Y5894024D01*
X11056732Y5894255D01*
X11060203Y5894255D01*
X11062517Y5894024D01*
X11062517Y5894024D02*
G37*
G36*
X10194326Y5894024D02*
X10197566Y5894024D01*
X10201037Y5893793D01*
X10205202Y5893561D01*
X10209598Y5893098D01*
X10214458Y5892636D01*
X10219548Y5891941D01*
X10225102Y5891247D01*
X10230655Y5890322D01*
X10242456Y5888008D01*
X10254257Y5885000D01*
X10254720Y5885000D01*
X10255646Y5884537D01*
X10257265Y5884074D01*
X10259579Y5883149D01*
X10262356Y5882223D01*
X10265596Y5881066D01*
X10269067Y5879446D01*
X10273000Y5877826D01*
X10277165Y5875975D01*
X10281793Y5873661D01*
X10286190Y5871347D01*
X10291049Y5868802D01*
X10295677Y5865794D01*
X10300305Y5862554D01*
X10305164Y5859315D01*
X10309561Y5855613D01*
X10309792Y5855381D01*
X10310718Y5854687D01*
X10311874Y5853530D01*
X10313494Y5852142D01*
X10315345Y5850059D01*
X10317659Y5847977D01*
X10320205Y5845200D01*
X10322750Y5842192D01*
X10325758Y5838952D01*
X10328535Y5835481D01*
X10331543Y5831548D01*
X10334551Y5827614D01*
X10340105Y5818821D01*
X10342650Y5814193D01*
X10344964Y5809334D01*
X10345195Y5809102D01*
X10345427Y5808177D01*
X10346121Y5806788D01*
X10346815Y5804706D01*
X10347741Y5802161D01*
X10348666Y5799152D01*
X10349823Y5795913D01*
X10350980Y5791979D01*
X10351906Y5787814D01*
X10353063Y5783186D01*
X10353988Y5778096D01*
X10354914Y5772774D01*
X10355608Y5767220D01*
X10356302Y5761435D01*
X10356534Y5755188D01*
X10356765Y5748940D01*
X10356765Y5748477D01*
X10356765Y5747320D01*
X10356765Y5745469D01*
X10356534Y5742924D01*
X10356302Y5739684D01*
X10356071Y5735982D01*
X10355608Y5732048D01*
X10355145Y5727420D01*
X10354451Y5722561D01*
X10353525Y5717239D01*
X10352600Y5711917D01*
X10351211Y5706132D01*
X10349823Y5700579D01*
X10348203Y5694794D01*
X10346121Y5689009D01*
X10343807Y5683224D01*
X10343575Y5682993D01*
X10343113Y5681836D01*
X10342418Y5680447D01*
X10341493Y5678133D01*
X10340105Y5675588D01*
X10338485Y5672580D01*
X10336402Y5669340D01*
X10334320Y5665638D01*
X10331774Y5661704D01*
X10328998Y5657771D01*
X10325990Y5653374D01*
X10322519Y5649209D01*
X10319048Y5644813D01*
X10315114Y5640648D01*
X10310949Y5636251D01*
X10306552Y5632317D01*
X10306321Y5632086D01*
X10305395Y5631392D01*
X10304007Y5630235D01*
X10302156Y5628847D01*
X10299842Y5627227D01*
X10297065Y5625144D01*
X10293826Y5623062D01*
X10290123Y5620748D01*
X10286190Y5618202D01*
X10281793Y5615657D01*
X10276934Y5613112D01*
X10271843Y5610566D01*
X10266290Y5608252D01*
X10260736Y5605938D01*
X10254720Y5603625D01*
X10248473Y5601773D01*
X10248010Y5601773D01*
X10246853Y5601311D01*
X10245233Y5600848D01*
X10242688Y5600385D01*
X10239680Y5599691D01*
X10235977Y5598765D01*
X10231812Y5597840D01*
X10227184Y5597146D01*
X10222094Y5596220D01*
X10216540Y5595294D01*
X10210755Y5594600D01*
X10204739Y5593675D01*
X10198491Y5593212D01*
X10191781Y5592749D01*
X10178360Y5592286D01*
X10174889Y5592286D01*
X10172344Y5592518D01*
X10169104Y5592518D01*
X10165171Y5592749D01*
X10161006Y5592980D01*
X10156378Y5593443D01*
X10151287Y5593906D01*
X10145734Y5594600D01*
X10140180Y5595294D01*
X10134164Y5596220D01*
X10121900Y5598534D01*
X10109405Y5601542D01*
X10108942Y5601773D01*
X10108016Y5602005D01*
X10106165Y5602468D01*
X10103851Y5603393D01*
X10101075Y5604319D01*
X10097604Y5605707D01*
X10093901Y5607095D01*
X10089736Y5608947D01*
X10085340Y5611029D01*
X10080712Y5613343D01*
X10076084Y5615657D01*
X10071225Y5618434D01*
X10066134Y5621673D01*
X10061275Y5624913D01*
X10056415Y5628384D01*
X10051788Y5632317D01*
X10051556Y5632549D01*
X10050631Y5633243D01*
X10049474Y5634400D01*
X10047854Y5636020D01*
X10045771Y5638102D01*
X10043457Y5640416D01*
X10041143Y5643193D01*
X10038367Y5646201D01*
X10035590Y5649672D01*
X10032813Y5653143D01*
X10029805Y5657077D01*
X10027028Y5661242D01*
X10021706Y5670035D01*
X10019392Y5674663D01*
X10017310Y5679522D01*
X10017310Y5679753D01*
X10016847Y5680679D01*
X10016384Y5682067D01*
X10015690Y5684150D01*
X10014996Y5686464D01*
X10014070Y5689472D01*
X10013145Y5692711D01*
X10012219Y5696414D01*
X10011294Y5700579D01*
X10010368Y5704975D01*
X10009443Y5709834D01*
X10008748Y5714925D01*
X10008054Y5720247D01*
X10007591Y5725801D01*
X10007360Y5731354D01*
X10007129Y5737370D01*
X10007129Y5737602D01*
X10007129Y5737833D01*
X10007129Y5738527D01*
X10007129Y5739453D01*
X10007360Y5741998D01*
X10007360Y5745238D01*
X10007823Y5749171D01*
X10008286Y5754031D01*
X10008980Y5759353D01*
X10009905Y5765138D01*
X10011062Y5771154D01*
X10012451Y5777864D01*
X10014070Y5784575D01*
X10016153Y5791516D01*
X10018698Y5798458D01*
X10021475Y5805400D01*
X10024946Y5812342D01*
X10028648Y5819052D01*
X10028880Y5819515D01*
X10029574Y5820672D01*
X10030962Y5822523D01*
X10032813Y5824837D01*
X10034896Y5827845D01*
X10037673Y5831316D01*
X10041143Y5835019D01*
X10044846Y5839184D01*
X10049011Y5843580D01*
X10053870Y5848208D01*
X10059192Y5852604D01*
X10064977Y5857232D01*
X10071225Y5861860D01*
X10077935Y5866257D01*
X10085108Y5870422D01*
X10092744Y5874356D01*
X10092976Y5874356D01*
X10093207Y5874587D01*
X10093901Y5874818D01*
X10094596Y5875281D01*
X10097141Y5876207D01*
X10100149Y5877364D01*
X10104314Y5878983D01*
X10108942Y5880603D01*
X10114495Y5882454D01*
X10120743Y5884305D01*
X10127453Y5886157D01*
X10134858Y5888008D01*
X10142725Y5889628D01*
X10151056Y5891247D01*
X10159849Y5892404D01*
X10169104Y5893330D01*
X10178592Y5894024D01*
X10188541Y5894255D01*
X10192012Y5894255D01*
X10194326Y5894024D01*
X10194326Y5894024D02*
G37*
G36*
X10886287Y8732383D02*
X10886287Y8732013D01*
X10886287Y8730902D01*
X10885917Y8729421D01*
X10885917Y8727569D01*
X10885547Y8725347D01*
X10885176Y8719792D01*
X10884806Y8712756D01*
X10884065Y8704608D01*
X10883325Y8695720D01*
X10882584Y8685722D01*
X10881843Y8674982D01*
X10881103Y8663502D01*
X10880362Y8651281D01*
X10879251Y8638689D01*
X10877770Y8613136D01*
X10876288Y8587213D01*
X10876288Y8586843D01*
X10876288Y8586102D01*
X10876288Y8584621D01*
X10875918Y8583140D01*
X10875918Y8580547D01*
X10875918Y8577955D01*
X10875548Y8574622D01*
X10875548Y8570919D01*
X10875177Y8566845D01*
X10875177Y8562401D01*
X10874807Y8552772D01*
X10874066Y8541292D01*
X10873696Y8529071D01*
X10872955Y8515739D01*
X10872585Y8501667D01*
X10871844Y8486853D01*
X10871474Y8471670D01*
X10870363Y8440191D01*
X10869252Y8408713D01*
X10869252Y8408343D01*
X10869252Y8407602D01*
X10869252Y8406491D01*
X10869252Y8405010D01*
X10869252Y8403158D01*
X10868882Y8400566D01*
X10868882Y8395011D01*
X10868882Y8387604D01*
X10868511Y8379457D01*
X10868511Y8370199D01*
X10868141Y8359829D01*
X10867771Y8349090D01*
X10867771Y8337609D01*
X10867400Y8326129D01*
X10867400Y8313908D01*
X10867030Y8290207D01*
X10867030Y8278356D01*
X10867030Y8267246D01*
X10797408Y8267617D01*
X10753338Y8267617D01*
X10744821Y8267246D01*
X10713713Y8267246D01*
X10713713Y8267617D01*
X10713713Y8267987D01*
X10713713Y8269098D01*
X10714083Y8270209D01*
X10714083Y8274283D01*
X10714453Y8279467D01*
X10715194Y8285763D01*
X10715564Y8293540D01*
X10716305Y8302428D01*
X10716675Y8312427D01*
X10717416Y8323166D01*
X10718157Y8335387D01*
X10719268Y8347979D01*
X10720008Y8361681D01*
X10720749Y8376124D01*
X10721860Y8390937D01*
X10722601Y8406491D01*
X10723712Y8422415D01*
X10724452Y8439080D01*
X10725193Y8455745D01*
X10727045Y8490557D01*
X10728896Y8525368D01*
X10730378Y8560549D01*
X10731489Y8594990D01*
X10732229Y8611655D01*
X10732600Y8628320D01*
X10732970Y8644244D01*
X10732970Y8659428D01*
X10733340Y8674612D01*
X10733340Y8688684D01*
X10732970Y8732754D01*
X10747413Y8732754D01*
X10752968Y8732383D01*
X10778891Y8732383D01*
X10791853Y8732013D01*
X10829627Y8732013D01*
X10834811Y8732383D01*
X10864808Y8732383D01*
X10874807Y8732754D01*
X10886287Y8732754D01*
X10886287Y8732383D01*
X10886287Y8732383D02*
G37*
G36*
X11081637Y10132013D02*
X11080526Y10129791D01*
X11078675Y10126088D01*
X11075712Y10121274D01*
X11072750Y10114978D01*
X11068676Y10107571D01*
X11064232Y10099054D01*
X11059047Y10089425D01*
X11053492Y10079056D01*
X11047567Y10067205D01*
X11040901Y10054984D01*
X11034235Y10041652D01*
X11026828Y10027580D01*
X11019051Y10012766D01*
X11011274Y9997212D01*
X11003127Y9981288D01*
X10885362Y9747979D01*
X10885362Y9747609D01*
X10884621Y9746498D01*
X10883510Y9744646D01*
X10882399Y9742054D01*
X10880918Y9738721D01*
X10878696Y9734647D01*
X10876844Y9730203D01*
X10874252Y9725018D01*
X10871659Y9719463D01*
X10868697Y9713168D01*
X10865364Y9706502D01*
X10862031Y9699465D01*
X10858698Y9692059D01*
X10854994Y9684282D01*
X10847217Y9667247D01*
X10821664Y9667247D01*
X10815369Y9667617D01*
X10719453Y9667617D01*
X10710565Y9667247D01*
X10679087Y9667247D01*
X10666495Y9708724D01*
X10583171Y9948329D01*
X10517992Y10132754D01*
X10529843Y10132754D01*
X10534657Y10132384D01*
X10558358Y10132384D01*
X10572061Y10132013D01*
X10621685Y10132013D01*
X10626870Y10132384D01*
X10653163Y10132384D01*
X10661311Y10132754D01*
X10669828Y10132754D01*
X10669828Y10132384D01*
X10670199Y10131273D01*
X10670569Y10129791D01*
X10671310Y10127940D01*
X10671680Y10125347D01*
X10672421Y10122385D01*
X10674272Y10115719D01*
X10676124Y10107942D01*
X10678346Y10100535D01*
X10680198Y10093128D01*
X10682049Y10086462D01*
X10682049Y10086092D01*
X10682420Y10085351D01*
X10682790Y10084240D01*
X10683160Y10082389D01*
X10683901Y10080167D01*
X10685012Y10077204D01*
X10686123Y10073871D01*
X10687234Y10069797D01*
X10688715Y10064983D01*
X10690567Y10059428D01*
X10692419Y10053503D01*
X10694641Y10046837D01*
X10696863Y10039430D01*
X10699455Y10031283D01*
X10702418Y10022395D01*
X10705380Y10012766D01*
X10755375Y9851672D01*
X10755375Y9851302D01*
X10755745Y9850561D01*
X10756116Y9849080D01*
X10756856Y9847228D01*
X10757597Y9844636D01*
X10758338Y9841673D01*
X10759449Y9837970D01*
X10760560Y9833896D01*
X10762041Y9829452D01*
X10763152Y9824638D01*
X10765004Y9819083D01*
X10766485Y9813157D01*
X10768337Y9806862D01*
X10770188Y9800196D01*
X10772040Y9793159D01*
X10773892Y9785753D01*
X10789816Y9825008D01*
X10908692Y10085351D01*
X10908692Y10085722D01*
X10909063Y10086462D01*
X10909803Y10087944D01*
X10910544Y10090166D01*
X10911655Y10092388D01*
X10912766Y10095350D01*
X10915358Y10101646D01*
X10915729Y10102016D01*
X10916099Y10103498D01*
X10917210Y10105720D01*
X10918321Y10109053D01*
X10920173Y10113497D01*
X10922395Y10118681D01*
X10924987Y10124977D01*
X10927950Y10132754D01*
X10940541Y10132754D01*
X10945355Y10132384D01*
X10969057Y10132384D01*
X10982388Y10132013D01*
X11028680Y10132013D01*
X11033865Y10132384D01*
X11062751Y10132384D01*
X11072009Y10132754D01*
X11082008Y10132754D01*
X11081637Y10132013D01*
X11081637Y10132013D02*
G37*
G36*
X5783765Y5776591D02*
X5783765Y5774740D01*
X5783302Y5771964D01*
X5783302Y5768261D01*
X5782839Y5763171D01*
X5782376Y5756692D01*
X5781914Y5749287D01*
X5781451Y5740494D01*
X5780988Y5730313D01*
X5780525Y5718743D01*
X5780062Y5706248D01*
X5779137Y5692364D01*
X5778674Y5677092D01*
X5777748Y5660432D01*
X5777286Y5642383D01*
X5776360Y5622946D01*
X5701851Y5623409D01*
X5662514Y5623409D01*
X5652796Y5622946D01*
X5616235Y5622946D01*
X5616235Y5623409D01*
X5616235Y5625723D01*
X5616698Y5628962D01*
X5616698Y5633590D01*
X5617161Y5639143D01*
X5617624Y5646085D01*
X5617624Y5654415D01*
X5618087Y5663671D01*
X5618549Y5673853D01*
X5619012Y5685422D01*
X5619475Y5698380D01*
X5619938Y5711801D01*
X5620400Y5726610D01*
X5620863Y5742345D01*
X5621326Y5759468D01*
X5621789Y5777054D01*
X5709719Y5775666D01*
X5724065Y5775666D01*
X5728693Y5776129D01*
X5746742Y5776129D01*
X5754609Y5776591D01*
X5763402Y5776591D01*
X5773121Y5777054D01*
X5783765Y5777054D01*
X5783765Y5776591D01*
X5783765Y5776591D02*
G37*
G36*
X7124528Y6001506D02*
X7130544Y6001044D01*
X7137486Y6000581D01*
X7145353Y5999655D01*
X7154146Y5998730D01*
X7163402Y5997341D01*
X7173120Y5995490D01*
X7183302Y5993176D01*
X7193946Y5990399D01*
X7204590Y5987160D01*
X7215234Y5983920D01*
X7225878Y5979293D01*
X7236522Y5974665D01*
X7236985Y5974202D01*
X7238836Y5973276D01*
X7241613Y5971888D01*
X7245778Y5969574D01*
X7250406Y5966335D01*
X7255497Y5962632D01*
X7261513Y5958467D01*
X7267992Y5953376D01*
X7274934Y5947360D01*
X7281875Y5940418D01*
X7288817Y5933014D01*
X7296222Y5924684D01*
X7303164Y5915428D01*
X7310106Y5905709D01*
X7316585Y5894602D01*
X7322601Y5883033D01*
X7323064Y5882107D01*
X7323989Y5880256D01*
X7325378Y5876554D01*
X7327691Y5871463D01*
X7330005Y5865447D01*
X7332319Y5858042D01*
X7335096Y5849249D01*
X7338336Y5839531D01*
X7341112Y5828886D01*
X7343889Y5817317D01*
X7346203Y5804359D01*
X7348980Y5790938D01*
X7350831Y5777054D01*
X7352219Y5761782D01*
X7353145Y5746047D01*
X7353608Y5729850D01*
X7353608Y5728924D01*
X7353608Y5726610D01*
X7353608Y5722908D01*
X7353145Y5717817D01*
X7353145Y5711801D01*
X7352682Y5704397D01*
X7352219Y5696066D01*
X7351294Y5686811D01*
X7350368Y5676629D01*
X7348980Y5665985D01*
X7347591Y5654878D01*
X7345740Y5642846D01*
X7341112Y5618318D01*
X7334633Y5592865D01*
X7334633Y5591939D01*
X7333708Y5590088D01*
X7332782Y5586386D01*
X7331394Y5581758D01*
X7329080Y5575741D01*
X7326766Y5569262D01*
X7323989Y5561858D01*
X7321212Y5553990D01*
X7317510Y5545660D01*
X7313808Y5536404D01*
X7304552Y5518356D01*
X7294371Y5500770D01*
X7288817Y5491977D01*
X7282801Y5484109D01*
X7282338Y5483647D01*
X7281413Y5482258D01*
X7279562Y5479944D01*
X7276785Y5477168D01*
X7273545Y5473928D01*
X7269843Y5469763D01*
X7265215Y5465598D01*
X7260124Y5460507D01*
X7254108Y5455879D01*
X7247629Y5450326D01*
X7240687Y5445235D01*
X7232820Y5439682D01*
X7224953Y5434591D01*
X7216160Y5429500D01*
X7206904Y5424873D01*
X7197185Y5420245D01*
X7196722Y5419782D01*
X7194871Y5419319D01*
X7192095Y5418394D01*
X7187929Y5417005D01*
X7182839Y5415154D01*
X7177285Y5413303D01*
X7170344Y5411452D01*
X7162939Y5409138D01*
X7154609Y5407287D01*
X7145816Y5404973D01*
X7136560Y5403122D01*
X7126841Y5401733D01*
X7105553Y5398956D01*
X7094446Y5398494D01*
X7083339Y5398031D01*
X7078249Y5398031D01*
X7074546Y5398494D01*
X7069919Y5398494D01*
X7064828Y5398956D01*
X7058812Y5399419D01*
X7051870Y5399882D01*
X7044928Y5400808D01*
X7037061Y5402196D01*
X7020863Y5404973D01*
X7003740Y5408675D01*
X6986617Y5414228D01*
X6986154Y5414228D01*
X6984766Y5415154D01*
X6982452Y5416080D01*
X6979212Y5417468D01*
X6975047Y5419319D01*
X6970419Y5421633D01*
X6965328Y5423947D01*
X6959775Y5427187D01*
X6947743Y5434591D01*
X6940801Y5439219D01*
X6934322Y5444310D01*
X6927380Y5449400D01*
X6920901Y5455417D01*
X6913959Y5461433D01*
X6907480Y5468375D01*
X6907017Y5468837D01*
X6906092Y5470226D01*
X6904240Y5472077D01*
X6901927Y5474854D01*
X6899150Y5478556D01*
X6895910Y5483184D01*
X6892671Y5487812D01*
X6888506Y5493365D01*
X6884803Y5499844D01*
X6880638Y5506786D01*
X6876936Y5513728D01*
X6872771Y5521595D01*
X6869069Y5529925D01*
X6865829Y5538718D01*
X6862590Y5547974D01*
X6859813Y5557230D01*
X6859813Y5557693D01*
X6859350Y5559544D01*
X6858424Y5562321D01*
X6857962Y5566023D01*
X6856573Y5571114D01*
X6855648Y5576667D01*
X6854259Y5583146D01*
X6853334Y5590088D01*
X6851945Y5597955D01*
X6850557Y5606748D01*
X6849631Y5616004D01*
X6848706Y5625260D01*
X6846855Y5645622D01*
X6846392Y5667373D01*
X6846392Y5668299D01*
X6846392Y5670613D01*
X6846392Y5674315D01*
X6846855Y5679406D01*
X6846855Y5685885D01*
X6847318Y5693290D01*
X6847780Y5701620D01*
X6848706Y5710876D01*
X6849631Y5721057D01*
X6851020Y5732164D01*
X6852408Y5743733D01*
X6854259Y5755303D01*
X6858887Y5780294D01*
X6864903Y5805747D01*
X6865366Y5806673D01*
X6865829Y5808987D01*
X6866755Y5812226D01*
X6868606Y5817317D01*
X6870457Y5822870D01*
X6872771Y5829812D01*
X6875548Y5837217D01*
X6878787Y5845547D01*
X6882489Y5853877D01*
X6886192Y5863133D01*
X6895447Y5881644D01*
X6906092Y5900156D01*
X6912108Y5908949D01*
X6918124Y5917279D01*
X6918587Y5917742D01*
X6919512Y5919130D01*
X6921826Y5921444D01*
X6924140Y5924221D01*
X6927843Y5927923D01*
X6931545Y5932088D01*
X6936173Y5936716D01*
X6941726Y5941344D01*
X6947743Y5946435D01*
X6954222Y5951988D01*
X6961163Y5957079D01*
X6968568Y5962169D01*
X6976898Y5967723D01*
X6985228Y5972351D01*
X6994484Y5976979D01*
X7003740Y5981144D01*
X7004203Y5981607D01*
X7006054Y5982069D01*
X7008831Y5982995D01*
X7012533Y5984383D01*
X7017624Y5985772D01*
X7023177Y5987623D01*
X7029656Y5989474D01*
X7036598Y5991788D01*
X7044465Y5993639D01*
X7052795Y5995490D01*
X7062051Y5997341D01*
X7071307Y5998730D01*
X7091670Y6001044D01*
X7102314Y6001969D01*
X7119437Y6001969D01*
X7124528Y6001506D01*
X7124528Y6001506D02*
G37*
G36*
X8533552Y7395953D02*
X8538643Y7395953D01*
X8544659Y7395490D01*
X8551601Y7394565D01*
X8558542Y7394102D01*
X8565947Y7393176D01*
X8582145Y7390862D01*
X8599268Y7387623D01*
X8616854Y7382995D01*
X8617317Y7382995D01*
X8618705Y7382532D01*
X8621482Y7381607D01*
X8624721Y7380681D01*
X8628423Y7379293D01*
X8633051Y7377441D01*
X8638142Y7375127D01*
X8644158Y7372814D01*
X8656191Y7367260D01*
X8668686Y7360318D01*
X8681644Y7351988D01*
X8693214Y7342270D01*
X8693677Y7341807D01*
X8694602Y7340881D01*
X8695990Y7339493D01*
X8698304Y7337642D01*
X8700618Y7334865D01*
X8703395Y7331625D01*
X8706635Y7327923D01*
X8709874Y7324221D01*
X8716816Y7314502D01*
X8724221Y7303395D01*
X8731162Y7290900D01*
X8737179Y7277016D01*
X8737179Y7276554D01*
X8737641Y7275165D01*
X8738567Y7273314D01*
X8739493Y7270537D01*
X8740418Y7267298D01*
X8741806Y7263133D01*
X8743195Y7258505D01*
X8744583Y7253414D01*
X8747360Y7242307D01*
X8749674Y7229812D01*
X8751525Y7216854D01*
X8751988Y7203433D01*
X8751988Y7202970D01*
X8751988Y7202508D01*
X8751988Y7201119D01*
X8751988Y7199268D01*
X8751988Y7196491D01*
X8751525Y7193715D01*
X8751062Y7187236D01*
X8750599Y7178905D01*
X8749674Y7169187D01*
X8747823Y7158543D01*
X8745972Y7146973D01*
X8745972Y7146510D01*
X8745509Y7145585D01*
X8745509Y7143733D01*
X8745046Y7141420D01*
X8744120Y7138643D01*
X8743195Y7135403D01*
X8742269Y7131238D01*
X8741344Y7127073D01*
X8738567Y7117355D01*
X8735327Y7106248D01*
X8731625Y7094215D01*
X8726997Y7081257D01*
X8726997Y7080794D01*
X8726534Y7079869D01*
X8725609Y7078018D01*
X8724683Y7075241D01*
X8723295Y7072001D01*
X8721907Y7068299D01*
X8719593Y7063671D01*
X8717742Y7058580D01*
X8715428Y7053027D01*
X8712651Y7047011D01*
X8706172Y7034053D01*
X8699230Y7019244D01*
X8690900Y7003046D01*
X8690437Y7002583D01*
X8689974Y7001195D01*
X8688586Y6998881D01*
X8686735Y6995641D01*
X8684421Y6991476D01*
X8682107Y6986848D01*
X8678867Y6981295D01*
X8675628Y6975279D01*
X8671463Y6968800D01*
X8667298Y6961395D01*
X8658042Y6946123D01*
X8647861Y6929463D01*
X8636291Y6912339D01*
X8635828Y6911877D01*
X8634902Y6910026D01*
X8633051Y6907712D01*
X8630737Y6904009D01*
X8627961Y6899844D01*
X8624258Y6894291D01*
X8620093Y6888275D01*
X8615003Y6881333D01*
X8609912Y6873928D01*
X8603896Y6865598D01*
X8597879Y6856342D01*
X8590938Y6847086D01*
X8583996Y6836905D01*
X8576128Y6826261D01*
X8568261Y6815154D01*
X8559931Y6803584D01*
X8337793Y6803584D01*
X8338255Y6804047D01*
X8339644Y6805435D01*
X8341495Y6808212D01*
X8344272Y6811452D01*
X8347511Y6815154D01*
X8351213Y6820245D01*
X8355841Y6825335D01*
X8360469Y6831352D01*
X8365560Y6837831D01*
X8371113Y6844772D01*
X8382683Y6859119D01*
X8395178Y6874854D01*
X8407674Y6890588D01*
X8408136Y6891051D01*
X8409062Y6892440D01*
X8410913Y6894754D01*
X8413227Y6897993D01*
X8416467Y6901695D01*
X8420169Y6906323D01*
X8423871Y6911877D01*
X8428499Y6917430D01*
X8433590Y6923909D01*
X8438680Y6930851D01*
X8449787Y6946123D01*
X8461820Y6962783D01*
X8474315Y6980369D01*
X8474778Y6980832D01*
X8475703Y6982683D01*
X8477555Y6984997D01*
X8479868Y6988237D01*
X8482645Y6992402D01*
X8485885Y6997030D01*
X8489587Y7002583D01*
X8493289Y7008137D01*
X8501620Y7020632D01*
X8509950Y7034053D01*
X8518280Y7047011D01*
X8525222Y7059043D01*
X8525222Y7059506D01*
X8526147Y7060432D01*
X8527073Y7062283D01*
X8527998Y7064134D01*
X8529850Y7066911D01*
X8531238Y7070150D01*
X8535403Y7077555D01*
X8540031Y7086811D01*
X8544659Y7096529D01*
X8549287Y7106710D01*
X8553452Y7116892D01*
X8553452Y7117355D01*
X8553915Y7118280D01*
X8554377Y7119669D01*
X8555303Y7121520D01*
X8557154Y7126610D01*
X8559468Y7132627D01*
X8561782Y7139568D01*
X8564559Y7146973D01*
X8566410Y7154378D01*
X8568261Y7161319D01*
X8568261Y7162245D01*
X8568724Y7164096D01*
X8569649Y7167798D01*
X8570112Y7171964D01*
X8571038Y7177054D01*
X8571501Y7182608D01*
X8571963Y7195103D01*
X8571963Y7195566D01*
X8571963Y7196029D01*
X8571963Y7198805D01*
X8571501Y7202970D01*
X8571038Y7208524D01*
X8570112Y7214540D01*
X8568724Y7221482D01*
X8566873Y7227961D01*
X8564096Y7234903D01*
X8563633Y7235828D01*
X8562708Y7237679D01*
X8560856Y7240919D01*
X8558080Y7245084D01*
X8554840Y7249249D01*
X8550675Y7253877D01*
X8545584Y7258042D01*
X8540031Y7261744D01*
X8539105Y7262207D01*
X8537254Y7263133D01*
X8534015Y7264521D01*
X8529387Y7266372D01*
X8524296Y7268223D01*
X8517817Y7269612D01*
X8511338Y7270537D01*
X8503933Y7271000D01*
X8500694Y7271000D01*
X8498380Y7270537D01*
X8495603Y7270537D01*
X8492364Y7270075D01*
X8484496Y7268223D01*
X8475703Y7265910D01*
X8466448Y7261744D01*
X8457192Y7256654D01*
X8452564Y7252951D01*
X8447936Y7249249D01*
X8447473Y7248786D01*
X8447011Y7248324D01*
X8445622Y7246935D01*
X8444234Y7245547D01*
X8440532Y7240456D01*
X8436366Y7233977D01*
X8432201Y7226110D01*
X8428499Y7216391D01*
X8425722Y7204822D01*
X8425260Y7198805D01*
X8424797Y7192326D01*
X8424797Y7191401D01*
X8424797Y7189087D01*
X8425260Y7184922D01*
X8425722Y7180294D01*
X8427111Y7174740D01*
X8428499Y7168724D01*
X8430813Y7162708D01*
X8433590Y7157154D01*
X8434052Y7156692D01*
X8435441Y7154840D01*
X8437292Y7152064D01*
X8440069Y7148824D01*
X8443771Y7145585D01*
X8448399Y7141882D01*
X8453952Y7138180D01*
X8459969Y7134941D01*
X8460894Y7134478D01*
X8463208Y7133552D01*
X8466448Y7132627D01*
X8471076Y7131238D01*
X8476166Y7129387D01*
X8482182Y7128461D01*
X8488661Y7127536D01*
X8495140Y7127073D01*
X8496992Y7127073D01*
X8499768Y7127536D01*
X8503471Y7127536D01*
X8507636Y7127999D01*
X8513189Y7128924D01*
X8519205Y7130313D01*
X8526610Y7131701D01*
X8526147Y7131238D01*
X8524759Y7128924D01*
X8522445Y7126148D01*
X8519668Y7121520D01*
X8515966Y7116429D01*
X8511338Y7109950D01*
X8506247Y7103008D01*
X8500694Y7094678D01*
X8494678Y7085885D01*
X8488199Y7076629D01*
X8481257Y7066448D01*
X8474315Y7055804D01*
X8459506Y7033590D01*
X8443771Y7009988D01*
X8443308Y7009988D01*
X8441457Y7009525D01*
X8438680Y7009062D01*
X8434978Y7009062D01*
X8431276Y7008599D01*
X8427111Y7008137D01*
X8418780Y7007674D01*
X8413690Y7007674D01*
X8411376Y7008137D01*
X8408136Y7008137D01*
X8400732Y7009062D01*
X8391476Y7010451D01*
X8381295Y7012302D01*
X8369725Y7014616D01*
X8357692Y7018318D01*
X8357230Y7018318D01*
X8356304Y7018781D01*
X8354453Y7019244D01*
X8352139Y7020169D01*
X8349362Y7021557D01*
X8346123Y7022946D01*
X8338255Y7026185D01*
X8329000Y7030813D01*
X8319281Y7036367D01*
X8309100Y7042846D01*
X8299381Y7050250D01*
X8298918Y7050713D01*
X8298456Y7051176D01*
X8297067Y7052564D01*
X8295216Y7054415D01*
X8290588Y7059043D01*
X8285035Y7065522D01*
X8279018Y7073390D01*
X8272539Y7082645D01*
X8266523Y7093752D01*
X8260970Y7105785D01*
X8260970Y7106248D01*
X8260507Y7107173D01*
X8259581Y7109024D01*
X8259119Y7111801D01*
X8258193Y7114578D01*
X8256805Y7118280D01*
X8255879Y7122908D01*
X8254491Y7127536D01*
X8252177Y7138180D01*
X8249863Y7150213D01*
X8248474Y7163171D01*
X8248012Y7177054D01*
X8248012Y7177517D01*
X8248012Y7179368D01*
X8248012Y7182145D01*
X8248474Y7185847D01*
X8248474Y7190012D01*
X8249400Y7195566D01*
X8249863Y7201119D01*
X8250788Y7207598D01*
X8251714Y7215003D01*
X8253565Y7222407D01*
X8257267Y7238142D01*
X8262821Y7254803D01*
X8266060Y7263133D01*
X8269763Y7271463D01*
X8270226Y7271926D01*
X8270688Y7273314D01*
X8272077Y7275628D01*
X8273928Y7278868D01*
X8276242Y7282570D01*
X8279018Y7287198D01*
X8282258Y7291826D01*
X8285960Y7297379D01*
X8290125Y7302933D01*
X8294753Y7308949D01*
X8305397Y7320981D01*
X8317893Y7333014D01*
X8331776Y7344121D01*
X8332239Y7344583D01*
X8333627Y7345509D01*
X8335941Y7346897D01*
X8338718Y7348749D01*
X8342420Y7351063D01*
X8347048Y7353839D01*
X8352139Y7356616D01*
X8357692Y7359855D01*
X8363709Y7363095D01*
X8370651Y7366797D01*
X8385460Y7373276D01*
X8401657Y7379293D01*
X8418780Y7384383D01*
X8419243Y7384383D01*
X8421094Y7384846D01*
X8423408Y7385309D01*
X8427111Y7386234D01*
X8431276Y7387160D01*
X8436829Y7388086D01*
X8442383Y7389474D01*
X8449324Y7390399D01*
X8456729Y7391325D01*
X8464596Y7392713D01*
X8472927Y7393639D01*
X8481720Y7394565D01*
X8500694Y7395953D01*
X8520594Y7396416D01*
X8528924Y7396416D01*
X8533552Y7395953D01*
X8533552Y7395953D02*
G37*
G36*
X7135403Y7401506D02*
X7140031Y7401506D01*
X7145122Y7401044D01*
X7151138Y7400581D01*
X7157154Y7400118D01*
X7163633Y7399655D01*
X7177980Y7397804D01*
X7193252Y7395027D01*
X7208524Y7391788D01*
X7208987Y7391788D01*
X7210375Y7391325D01*
X7212689Y7390862D01*
X7215466Y7389937D01*
X7218705Y7389011D01*
X7222870Y7387623D01*
X7227498Y7385772D01*
X7232589Y7383920D01*
X7243696Y7379755D01*
X7255265Y7374202D01*
X7266835Y7367723D01*
X7278405Y7360318D01*
X7278868Y7360318D01*
X7279793Y7359393D01*
X7281182Y7358004D01*
X7283033Y7356616D01*
X7288586Y7351988D01*
X7295065Y7346435D01*
X7302007Y7339030D01*
X7308949Y7330700D01*
X7315891Y7321444D01*
X7321444Y7311263D01*
X7321444Y7310800D01*
X7321907Y7309874D01*
X7322832Y7308486D01*
X7323758Y7306635D01*
X7324684Y7303858D01*
X7326072Y7300619D01*
X7326998Y7296916D01*
X7328386Y7292751D01*
X7331163Y7283033D01*
X7333014Y7271926D01*
X7334865Y7259430D01*
X7335328Y7245547D01*
X7335328Y7244621D01*
X7335328Y7242307D01*
X7335328Y7239068D01*
X7334865Y7234440D01*
X7334402Y7228886D01*
X7333939Y7223333D01*
X7331625Y7210375D01*
X7331625Y7209449D01*
X7331163Y7207598D01*
X7330237Y7204359D01*
X7328849Y7200194D01*
X7326998Y7195103D01*
X7325146Y7190012D01*
X7320056Y7178905D01*
X7319593Y7178443D01*
X7318667Y7176591D01*
X7317279Y7173815D01*
X7314965Y7170112D01*
X7312188Y7165947D01*
X7308949Y7161782D01*
X7301544Y7152526D01*
X7301081Y7152064D01*
X7299693Y7150675D01*
X7297379Y7148361D01*
X7294602Y7145585D01*
X7290900Y7142345D01*
X7286735Y7139106D01*
X7277942Y7131701D01*
X7277479Y7131238D01*
X7275628Y7130313D01*
X7272389Y7127999D01*
X7268223Y7125685D01*
X7262207Y7121982D01*
X7255265Y7118280D01*
X7246935Y7113652D01*
X7236754Y7108562D01*
X7237217Y7108562D01*
X7238142Y7108099D01*
X7239531Y7107636D01*
X7241382Y7107173D01*
X7246010Y7105785D01*
X7252026Y7103934D01*
X7258968Y7101620D01*
X7265910Y7099306D01*
X7272389Y7096529D01*
X7278405Y7094215D01*
X7278868Y7093752D01*
X7280719Y7093290D01*
X7283958Y7091901D01*
X7287661Y7090050D01*
X7291826Y7087273D01*
X7296454Y7084497D01*
X7301544Y7081257D01*
X7306635Y7077092D01*
X7307098Y7076629D01*
X7308949Y7075241D01*
X7311263Y7072927D01*
X7314502Y7070150D01*
X7318205Y7065985D01*
X7321907Y7061820D01*
X7325609Y7057192D01*
X7329311Y7051639D01*
X7329774Y7051176D01*
X7330700Y7049325D01*
X7332551Y7046085D01*
X7334865Y7042383D01*
X7337179Y7037755D01*
X7339493Y7032664D01*
X7341344Y7026648D01*
X7343195Y7020632D01*
X7343195Y7019706D01*
X7344121Y7017855D01*
X7344583Y7014616D01*
X7345509Y7009988D01*
X7346435Y7004897D01*
X7346897Y6998881D01*
X7347823Y6992402D01*
X7347823Y6985460D01*
X7347823Y6984997D01*
X7347823Y6983609D01*
X7347823Y6981295D01*
X7347360Y6978055D01*
X7347360Y6974353D01*
X7346897Y6969725D01*
X7345972Y6965097D01*
X7345046Y6959544D01*
X7342732Y6947049D01*
X7339030Y6933165D01*
X7333477Y6918819D01*
X7330237Y6911414D01*
X7326535Y6904009D01*
X7326535Y6903547D01*
X7325609Y6902158D01*
X7324221Y6900307D01*
X7322832Y6897530D01*
X7320519Y6894291D01*
X7318205Y6890588D01*
X7311726Y6881795D01*
X7303395Y6872077D01*
X7293677Y6861433D01*
X7282570Y6851251D01*
X7269612Y6841996D01*
X7269149Y6841533D01*
X7268223Y6841070D01*
X7265910Y6839682D01*
X7263133Y6838293D01*
X7259893Y6836442D01*
X7255728Y6834128D01*
X7251100Y6831814D01*
X7246010Y6829038D01*
X7239993Y6826261D01*
X7233514Y6823484D01*
X7226573Y6820707D01*
X7219168Y6818394D01*
X7203433Y6812840D01*
X7185847Y6808675D01*
X7185384Y6808675D01*
X7183533Y6808212D01*
X7181219Y6807749D01*
X7177517Y6806824D01*
X7173352Y6806361D01*
X7168261Y6805435D01*
X7162245Y6804510D01*
X7155766Y6803584D01*
X7148824Y6802196D01*
X7140957Y6801270D01*
X7124759Y6799882D01*
X7107173Y6798494D01*
X7088662Y6798031D01*
X7080332Y6798031D01*
X7076166Y6798494D01*
X7071076Y6798494D01*
X7065522Y6798956D01*
X7059043Y6799419D01*
X7052101Y6799882D01*
X7045160Y6800345D01*
X7029425Y6801733D01*
X7013227Y6804047D01*
X6996567Y6807287D01*
X6996104Y6807287D01*
X6994716Y6807749D01*
X6992402Y6808212D01*
X6989162Y6809138D01*
X6985460Y6810063D01*
X6980832Y6811452D01*
X6975741Y6812840D01*
X6970188Y6814691D01*
X6958156Y6818856D01*
X6944735Y6824410D01*
X6931314Y6830889D01*
X6917893Y6838293D01*
X6917430Y6838756D01*
X6916505Y6839219D01*
X6914653Y6840607D01*
X6912339Y6842459D01*
X6909563Y6844310D01*
X6906323Y6847086D01*
X6898919Y6853103D01*
X6890588Y6860507D01*
X6882258Y6869763D01*
X6874391Y6879482D01*
X6867912Y6890126D01*
X6867912Y6890588D01*
X6867449Y6891514D01*
X6866523Y6893365D01*
X6865598Y6895216D01*
X6864210Y6898456D01*
X6862821Y6901695D01*
X6861433Y6905398D01*
X6860044Y6910026D01*
X6857268Y6919744D01*
X6854491Y6931314D01*
X6852640Y6944272D01*
X6852177Y6958156D01*
X6852177Y6958618D01*
X6852177Y6959081D01*
X6852177Y6961858D01*
X6852640Y6966486D01*
X6853103Y6972039D01*
X6853565Y6978518D01*
X6854491Y6985923D01*
X6855879Y6993327D01*
X6857731Y7001195D01*
X6857731Y7001658D01*
X6858193Y7002120D01*
X6858656Y7004897D01*
X6860044Y7008599D01*
X6861896Y7014153D01*
X6864210Y7020169D01*
X6867449Y7026648D01*
X6870689Y7033590D01*
X6874854Y7040532D01*
X6875316Y7041457D01*
X6877168Y7043771D01*
X6879482Y7047011D01*
X6882721Y7051176D01*
X6886886Y7056267D01*
X6891514Y7061357D01*
X6896605Y7066448D01*
X6902158Y7071539D01*
X6903084Y7072001D01*
X6904935Y7073390D01*
X6907712Y7075704D01*
X6911877Y7078480D01*
X6916042Y7081720D01*
X6921132Y7084959D01*
X6926686Y7088199D01*
X6932239Y7090976D01*
X6933165Y7091438D01*
X6935016Y7092364D01*
X6938256Y7093752D01*
X6942883Y7095604D01*
X6948900Y7098380D01*
X6956304Y7101157D01*
X6964635Y7103934D01*
X6973890Y7107173D01*
X6973428Y7107173D01*
X6972965Y7107636D01*
X6971576Y7108562D01*
X6969725Y7109024D01*
X6965560Y7111338D01*
X6960007Y7114115D01*
X6953990Y7117355D01*
X6947974Y7121057D01*
X6942421Y7124296D01*
X6937330Y7127536D01*
X6936867Y7127999D01*
X6935479Y7128924D01*
X6933165Y7130775D01*
X6930388Y7133089D01*
X6926686Y7135866D01*
X6922984Y7139568D01*
X6914653Y7147436D01*
X6914191Y7147899D01*
X6912802Y7149750D01*
X6910951Y7152064D01*
X6908637Y7155303D01*
X6905398Y7159005D01*
X6902621Y7163633D01*
X6896605Y7173815D01*
X6896142Y7174277D01*
X6895216Y7176591D01*
X6894291Y7179368D01*
X6892440Y7183070D01*
X6891051Y7187698D01*
X6889200Y7192789D01*
X6886423Y7203896D01*
X6886423Y7204822D01*
X6885961Y7206673D01*
X6885498Y7209449D01*
X6885035Y7213614D01*
X6884572Y7218242D01*
X6884109Y7223333D01*
X6883647Y7234440D01*
X6883647Y7234903D01*
X6883647Y7236291D01*
X6883647Y7238605D01*
X6884109Y7241382D01*
X6884109Y7245084D01*
X6884572Y7249249D01*
X6885035Y7254340D01*
X6885961Y7259430D01*
X6888275Y7271000D01*
X6891514Y7283495D01*
X6896142Y7296454D01*
X6902158Y7308949D01*
X6902621Y7309412D01*
X6903084Y7310337D01*
X6904009Y7312188D01*
X6905860Y7314502D01*
X6907712Y7317279D01*
X6910026Y7320519D01*
X6916042Y7328386D01*
X6923909Y7336716D01*
X6933628Y7345972D01*
X6944735Y7355228D01*
X6957693Y7363558D01*
X6958156Y7364021D01*
X6959544Y7364483D01*
X6961395Y7365409D01*
X6964172Y7367260D01*
X6967411Y7368648D01*
X6971576Y7370962D01*
X6976204Y7373276D01*
X6981295Y7375590D01*
X6986848Y7377904D01*
X6992865Y7380681D01*
X7006285Y7385309D01*
X7020632Y7389937D01*
X7035904Y7393639D01*
X7036367Y7393639D01*
X7037755Y7394102D01*
X7040069Y7394565D01*
X7043308Y7395027D01*
X7047011Y7395490D01*
X7051639Y7396416D01*
X7056729Y7396879D01*
X7062746Y7397804D01*
X7068762Y7398730D01*
X7075704Y7399192D01*
X7090513Y7400581D01*
X7106710Y7401506D01*
X7123834Y7401969D01*
X7131238Y7401969D01*
X7135403Y7401506D01*
X7135403Y7401506D02*
G37*
G36*
X5925378Y7256654D02*
X5823565Y7060432D01*
X5758774Y6932239D01*
X5758312Y6931777D01*
X5757386Y6929925D01*
X5755998Y6926686D01*
X5754146Y6922984D01*
X5751833Y6917893D01*
X5749056Y6911414D01*
X5745354Y6904472D01*
X5741651Y6896605D01*
X5737949Y6888275D01*
X5733321Y6878556D01*
X5728693Y6868375D01*
X5723602Y6857731D01*
X5718049Y6846161D01*
X5712496Y6834591D01*
X5706942Y6822096D01*
X5700926Y6809138D01*
X5477399Y6809138D01*
X5477862Y6809601D01*
X5478325Y6811452D01*
X5479713Y6813766D01*
X5481564Y6817468D01*
X5483878Y6821633D01*
X5486655Y6826724D01*
X5489432Y6832277D01*
X5492671Y6838756D01*
X5496374Y6845235D01*
X5500076Y6852640D01*
X5508406Y6867912D01*
X5517199Y6884109D01*
X5525992Y6900307D01*
X5526455Y6900770D01*
X5527380Y6902621D01*
X5528769Y6904935D01*
X5530620Y6909100D01*
X5533859Y6914191D01*
X5537099Y6920670D01*
X5541264Y6928537D01*
X5546355Y6937793D01*
X5552371Y6948437D01*
X5558850Y6960932D01*
X5566255Y6974816D01*
X5575048Y6990551D01*
X5584303Y7007674D01*
X5588931Y7017392D01*
X5594485Y7027111D01*
X5599575Y7037292D01*
X5605592Y7047936D01*
X5611608Y7059506D01*
X5617624Y7071076D01*
X5693058Y7214540D01*
X5693521Y7215466D01*
X5694447Y7217317D01*
X5696298Y7221019D01*
X5699075Y7226573D01*
X5702314Y7233514D01*
X5706942Y7242307D01*
X5709256Y7247398D01*
X5712033Y7252951D01*
X5715272Y7258968D01*
X5718512Y7265447D01*
X5637987Y7265447D01*
X5627805Y7264984D01*
X5604203Y7264984D01*
X5590320Y7264521D01*
X5575510Y7264058D01*
X5559313Y7263596D01*
X5542652Y7263133D01*
X5525066Y7262670D01*
X5506555Y7262207D01*
X5487581Y7261282D01*
X5468143Y7260356D01*
X5468143Y7260819D01*
X5468143Y7263133D01*
X5468606Y7265910D01*
X5468606Y7270537D01*
X5469069Y7275628D01*
X5469532Y7282107D01*
X5469995Y7289512D01*
X5470457Y7297842D01*
X5470920Y7307098D01*
X5471383Y7316816D01*
X5471846Y7327923D01*
X5472309Y7339030D01*
X5472771Y7351525D01*
X5473234Y7364021D01*
X5473234Y7376979D01*
X5473697Y7390862D01*
X5931857Y7390862D01*
X5925378Y7256654D01*
X5925378Y7256654D02*
G37*
G36*
X8656654Y8795490D02*
X8654802Y8793176D01*
X8651563Y8789474D01*
X8646935Y8784383D01*
X8641844Y8778367D01*
X8635828Y8771425D01*
X8629349Y8763558D01*
X8622407Y8755690D01*
X8608061Y8738567D01*
X8594177Y8721907D01*
X8587235Y8714039D01*
X8581219Y8707098D01*
X8576128Y8700619D01*
X8571501Y8695065D01*
X8571038Y8694602D01*
X8570112Y8693214D01*
X8568724Y8691363D01*
X8566410Y8688586D01*
X8563633Y8684884D01*
X8560394Y8680719D01*
X8556691Y8676091D01*
X8552989Y8671000D01*
X8548824Y8665447D01*
X8544196Y8659430D01*
X8534477Y8646010D01*
X8524296Y8631663D01*
X8514115Y8616854D01*
X8513652Y8616391D01*
X8513189Y8615003D01*
X8511801Y8613152D01*
X8509950Y8609912D01*
X8507636Y8606673D01*
X8504859Y8602508D01*
X8502082Y8597417D01*
X8498843Y8592326D01*
X8491901Y8580757D01*
X8484496Y8568261D01*
X8477092Y8555303D01*
X8470150Y8541882D01*
X8470150Y8541420D01*
X8469224Y8540494D01*
X8468299Y8538643D01*
X8467373Y8535866D01*
X8465522Y8533089D01*
X8464134Y8529387D01*
X8461820Y8525222D01*
X8459969Y8520594D01*
X8454878Y8510413D01*
X8450250Y8498843D01*
X8445159Y8486811D01*
X8440069Y8474315D01*
X8439606Y8473390D01*
X8438680Y8471076D01*
X8437755Y8467373D01*
X8435904Y8462283D01*
X8434052Y8456729D01*
X8432664Y8450713D01*
X8429425Y8437755D01*
X8429425Y8436829D01*
X8428962Y8434978D01*
X8428499Y8431739D01*
X8428036Y8427574D01*
X8427573Y8422483D01*
X8427111Y8416930D01*
X8426648Y8405823D01*
X8426648Y8404897D01*
X8426648Y8402583D01*
X8427111Y8398418D01*
X8427573Y8393790D01*
X8428499Y8387774D01*
X8429887Y8381295D01*
X8431739Y8374353D01*
X8434515Y8367411D01*
X8434978Y8366486D01*
X8435904Y8364635D01*
X8437755Y8360932D01*
X8440532Y8357230D01*
X8443771Y8352602D01*
X8447936Y8347511D01*
X8453027Y8342883D01*
X8458580Y8338718D01*
X8459506Y8338256D01*
X8461357Y8336867D01*
X8465059Y8335479D01*
X8469687Y8333628D01*
X8475241Y8331314D01*
X8481720Y8329925D01*
X8489124Y8328537D01*
X8497454Y8328074D01*
X8501157Y8328074D01*
X8504859Y8328537D01*
X8509950Y8329463D01*
X8515966Y8330388D01*
X8522445Y8332239D01*
X8528924Y8334553D01*
X8534940Y8337793D01*
X8535866Y8338256D01*
X8537717Y8339644D01*
X8540494Y8341958D01*
X8544196Y8345197D01*
X8548361Y8348900D01*
X8552526Y8353990D01*
X8556229Y8359544D01*
X8559468Y8365560D01*
X8559931Y8366486D01*
X8560856Y8368800D01*
X8562245Y8372039D01*
X8563633Y8376667D01*
X8565021Y8382220D01*
X8566410Y8388700D01*
X8567335Y8395641D01*
X8567798Y8402583D01*
X8567798Y8403046D01*
X8567798Y8403972D01*
X8567798Y8405823D01*
X8567335Y8408137D01*
X8566873Y8410913D01*
X8566410Y8414616D01*
X8564559Y8422020D01*
X8561782Y8430350D01*
X8557154Y8438681D01*
X8554377Y8442383D01*
X8551138Y8446548D01*
X8547436Y8449788D01*
X8542808Y8453027D01*
X8542345Y8453027D01*
X8541882Y8453490D01*
X8540494Y8454415D01*
X8538643Y8455341D01*
X8533552Y8458118D01*
X8527073Y8460894D01*
X8519668Y8463671D01*
X8511338Y8466448D01*
X8502082Y8468299D01*
X8492827Y8468762D01*
X8489587Y8468762D01*
X8487273Y8468299D01*
X8484034Y8468299D01*
X8480331Y8467836D01*
X8475703Y8467373D01*
X8470150Y8466448D01*
X8470613Y8467373D01*
X8472001Y8469687D01*
X8473389Y8471539D01*
X8474778Y8473852D01*
X8476166Y8476629D01*
X8478480Y8479869D01*
X8480794Y8484034D01*
X8483571Y8488199D01*
X8486348Y8493290D01*
X8489587Y8498843D01*
X8493289Y8504859D01*
X8497454Y8511801D01*
X8502082Y8519206D01*
X8506710Y8527536D01*
X8541419Y8585847D01*
X8542345Y8585847D01*
X8545122Y8586310D01*
X8549287Y8587236D01*
X8554840Y8587698D01*
X8561319Y8588624D01*
X8568261Y8589087D01*
X8583533Y8589549D01*
X8588161Y8589549D01*
X8591863Y8589087D01*
X8596028Y8589087D01*
X8601119Y8588624D01*
X8606672Y8588161D01*
X8613151Y8587236D01*
X8626572Y8584922D01*
X8641381Y8581219D01*
X8656654Y8576591D01*
X8671463Y8570112D01*
X8671926Y8570112D01*
X8673314Y8569187D01*
X8675165Y8568261D01*
X8677942Y8566410D01*
X8681181Y8564559D01*
X8684884Y8561782D01*
X8689049Y8559005D01*
X8693214Y8555766D01*
X8698304Y8551601D01*
X8702932Y8547436D01*
X8708023Y8542345D01*
X8712651Y8537254D01*
X8717279Y8531238D01*
X8721907Y8525222D01*
X8726534Y8518280D01*
X8730237Y8510876D01*
X8730700Y8510413D01*
X8731162Y8509024D01*
X8732088Y8506710D01*
X8733476Y8503934D01*
X8734865Y8500231D01*
X8736716Y8495604D01*
X8738567Y8490513D01*
X8740418Y8484497D01*
X8742269Y8478018D01*
X8744120Y8471076D01*
X8745972Y8463671D01*
X8747360Y8455804D01*
X8749674Y8439143D01*
X8750599Y8430350D01*
X8750599Y8421095D01*
X8750599Y8420632D01*
X8750599Y8419706D01*
X8750599Y8417855D01*
X8750599Y8415541D01*
X8750137Y8412764D01*
X8750137Y8409062D01*
X8749674Y8400732D01*
X8748286Y8391013D01*
X8746897Y8380369D01*
X8744583Y8369262D01*
X8741344Y8357693D01*
X8741344Y8357230D01*
X8740881Y8356304D01*
X8740418Y8354916D01*
X8739493Y8352602D01*
X8738567Y8349825D01*
X8737641Y8346586D01*
X8734402Y8339181D01*
X8730700Y8330388D01*
X8726534Y8321132D01*
X8720981Y8310951D01*
X8714965Y8301233D01*
X8714965Y8300770D01*
X8714039Y8300307D01*
X8713114Y8298919D01*
X8711725Y8297067D01*
X8708023Y8291977D01*
X8703395Y8285961D01*
X8696916Y8279019D01*
X8689974Y8271151D01*
X8681644Y8263284D01*
X8672388Y8255417D01*
X8671926Y8255417D01*
X8671463Y8254491D01*
X8670074Y8253565D01*
X8668223Y8252177D01*
X8665909Y8250326D01*
X8663133Y8248475D01*
X8656191Y8244310D01*
X8648323Y8239219D01*
X8639068Y8234128D01*
X8628886Y8229038D01*
X8618242Y8224873D01*
X8617779Y8224873D01*
X8616854Y8224410D01*
X8615465Y8223947D01*
X8613151Y8223021D01*
X8610837Y8222559D01*
X8607598Y8221170D01*
X8599731Y8219319D01*
X8590938Y8216542D01*
X8580293Y8213766D01*
X8569187Y8211452D01*
X8557154Y8209138D01*
X8555766Y8209138D01*
X8553915Y8208675D01*
X8551601Y8208212D01*
X8548824Y8207749D01*
X8545122Y8207287D01*
X8541419Y8206824D01*
X8536791Y8206361D01*
X8527073Y8205435D01*
X8515966Y8204510D01*
X8503933Y8204047D01*
X8491901Y8203584D01*
X8484496Y8203584D01*
X8478943Y8204047D01*
X8472464Y8204510D01*
X8464596Y8204973D01*
X8455804Y8205898D01*
X8446085Y8206824D01*
X8435904Y8208212D01*
X8425260Y8209601D01*
X8402583Y8214228D01*
X8391013Y8217468D01*
X8379906Y8220707D01*
X8368799Y8224410D01*
X8357692Y8229038D01*
X8357230Y8229500D01*
X8355379Y8230426D01*
X8352139Y8231814D01*
X8348437Y8233666D01*
X8343809Y8236442D01*
X8338255Y8239682D01*
X8332239Y8243384D01*
X8326223Y8247549D01*
X8319281Y8252640D01*
X8312339Y8257730D01*
X8305397Y8263747D01*
X8298918Y8269763D01*
X8291977Y8276705D01*
X8285960Y8284109D01*
X8279944Y8291514D01*
X8274853Y8299844D01*
X8274391Y8300307D01*
X8273928Y8301695D01*
X8272539Y8304472D01*
X8270688Y8307712D01*
X8268837Y8311877D01*
X8266986Y8316967D01*
X8264672Y8322521D01*
X8262358Y8329000D01*
X8259581Y8335942D01*
X8257267Y8343809D01*
X8255416Y8352139D01*
X8253565Y8360469D01*
X8250326Y8378981D01*
X8249863Y8388700D01*
X8249400Y8398881D01*
X8249400Y8399344D01*
X8249400Y8400269D01*
X8249400Y8402120D01*
X8249400Y8404434D01*
X8249400Y8407211D01*
X8249863Y8410451D01*
X8249863Y8414616D01*
X8250326Y8419244D01*
X8251251Y8428962D01*
X8252177Y8440532D01*
X8254028Y8453490D01*
X8256342Y8466911D01*
X8256342Y8467373D01*
X8256805Y8468762D01*
X8257267Y8470613D01*
X8257730Y8473390D01*
X8258656Y8477092D01*
X8260044Y8481720D01*
X8260970Y8486348D01*
X8262821Y8491901D01*
X8264672Y8498380D01*
X8266986Y8505322D01*
X8269300Y8512264D01*
X8272539Y8520131D01*
X8275779Y8528461D01*
X8279018Y8537254D01*
X8287349Y8555766D01*
X8287811Y8556229D01*
X8288274Y8558080D01*
X8289663Y8560857D01*
X8291977Y8565022D01*
X8294290Y8569650D01*
X8297067Y8575666D01*
X8300770Y8582145D01*
X8304472Y8590012D01*
X8309100Y8598342D01*
X8314190Y8607135D01*
X8319744Y8616854D01*
X8325297Y8627035D01*
X8331776Y8638142D01*
X8338718Y8649712D01*
X8345660Y8661282D01*
X8353527Y8673777D01*
X8353990Y8674702D01*
X8355379Y8676554D01*
X8357692Y8680256D01*
X8360932Y8685347D01*
X8364634Y8690900D01*
X8369262Y8697842D01*
X8374353Y8705709D01*
X8379906Y8714502D01*
X8386385Y8723295D01*
X8392864Y8733014D01*
X8407211Y8753839D01*
X8422946Y8775127D01*
X8439143Y8796416D01*
X8657579Y8796416D01*
X8656654Y8795490D01*
X8656654Y8795490D02*
G37*
G36*
X7321444Y8795953D02*
X7321444Y8794565D01*
X7320981Y8792251D01*
X7320981Y8789011D01*
X7320519Y8785309D01*
X7320056Y8781144D01*
X7319593Y8776053D01*
X7319130Y8770962D01*
X7318205Y8759855D01*
X7317742Y8747823D01*
X7316816Y8736716D01*
X7316353Y8726072D01*
X7314502Y8668223D01*
X7257579Y8670075D01*
X7231200Y8670537D01*
X7176129Y8670537D01*
X7171964Y8671000D01*
X7108099Y8671000D01*
X7100694Y8670537D01*
X7091901Y8670537D01*
X7081257Y8670075D01*
X7072927Y8572426D01*
X7075704Y8572426D01*
X7077555Y8572889D01*
X7082645Y8573352D01*
X7089125Y8573815D01*
X7096066Y8573815D01*
X7103471Y8574277D01*
X7110413Y8574740D01*
X7123371Y8574740D01*
X7127999Y8574277D01*
X7134015Y8574277D01*
X7140494Y8573815D01*
X7148361Y8572889D01*
X7156692Y8571964D01*
X7165485Y8571038D01*
X7174740Y8569650D01*
X7194640Y8565947D01*
X7214540Y8560394D01*
X7224259Y8557154D01*
X7233977Y8553452D01*
X7234440Y8552989D01*
X7236291Y8552526D01*
X7238605Y8551138D01*
X7242307Y8549750D01*
X7246472Y8547436D01*
X7251100Y8544659D01*
X7256654Y8541420D01*
X7262207Y8538180D01*
X7274240Y8529850D01*
X7286735Y8519669D01*
X7298305Y8507636D01*
X7303395Y8501157D01*
X7308023Y8494215D01*
X7308486Y8493752D01*
X7308949Y8492364D01*
X7310337Y8490513D01*
X7311726Y8487736D01*
X7313577Y8484034D01*
X7315428Y8479869D01*
X7317742Y8474778D01*
X7320056Y8469225D01*
X7321907Y8463208D01*
X7324221Y8456729D01*
X7326072Y8449788D01*
X7327923Y8441920D01*
X7330700Y8426185D01*
X7331163Y8417392D01*
X7331625Y8408599D01*
X7331625Y8408137D01*
X7331625Y8406748D01*
X7331625Y8403972D01*
X7331163Y8400732D01*
X7330700Y8396567D01*
X7330237Y8391476D01*
X7329774Y8386386D01*
X7328849Y8379907D01*
X7327460Y8373427D01*
X7325609Y8366486D01*
X7321444Y8351214D01*
X7318667Y8343346D01*
X7315428Y8335479D01*
X7311726Y8327611D01*
X7307560Y8319281D01*
X7307098Y8318819D01*
X7306635Y8317430D01*
X7305247Y8315116D01*
X7303395Y8312339D01*
X7300619Y8308637D01*
X7297842Y8304472D01*
X7294140Y8299844D01*
X7290437Y8294754D01*
X7285809Y8289663D01*
X7281182Y8284109D01*
X7275628Y8278093D01*
X7269612Y8272540D01*
X7256654Y8261433D01*
X7241845Y8251251D01*
X7241382Y8250789D01*
X7239993Y8250326D01*
X7237679Y8248938D01*
X7234440Y8247086D01*
X7230738Y8245235D01*
X7226110Y8242458D01*
X7220556Y8240145D01*
X7214540Y8237368D01*
X7207598Y8234128D01*
X7200194Y8231352D01*
X7192326Y8228112D01*
X7183996Y8225335D01*
X7175203Y8222096D01*
X7165947Y8219319D01*
X7146047Y8214691D01*
X7145585Y8214691D01*
X7143733Y8214228D01*
X7140494Y8213766D01*
X7136792Y8212840D01*
X7131701Y8211914D01*
X7125685Y8210989D01*
X7119206Y8210063D01*
X7111801Y8209138D01*
X7103471Y8208212D01*
X7094678Y8207287D01*
X7085422Y8206361D01*
X7075704Y8205435D01*
X7055341Y8204047D01*
X7034053Y8203584D01*
X7025723Y8203584D01*
X7019244Y8204047D01*
X7011839Y8204047D01*
X7003046Y8204973D01*
X6993327Y8205435D01*
X6982220Y8206361D01*
X6980832Y8206361D01*
X6979444Y8206824D01*
X6977130Y8206824D01*
X6974816Y8207287D01*
X6971576Y8207287D01*
X6964635Y8208212D01*
X6956767Y8209138D01*
X6948437Y8210063D01*
X6940107Y8210989D01*
X6931777Y8212377D01*
X6930851Y8212377D01*
X6928074Y8212840D01*
X6923909Y8213766D01*
X6917893Y8215154D01*
X6910026Y8216542D01*
X6901233Y8218394D01*
X6891051Y8220245D01*
X6879944Y8223021D01*
X6876705Y8265598D01*
X6876705Y8266061D01*
X6876705Y8266523D01*
X6876705Y8269300D01*
X6876242Y8273003D01*
X6875779Y8278093D01*
X6875316Y8284109D01*
X6874854Y8290588D01*
X6873928Y8303547D01*
X6873928Y8304472D01*
X6873465Y8306786D01*
X6873465Y8310951D01*
X6872540Y8316967D01*
X6872077Y8324835D01*
X6871614Y8329000D01*
X6871151Y8334091D01*
X6870226Y8339644D01*
X6869763Y8345660D01*
X6869300Y8352139D01*
X6868375Y8359081D01*
X6868837Y8359081D01*
X6869300Y8358618D01*
X6870689Y8358618D01*
X6872077Y8358155D01*
X6876705Y8356767D01*
X6883184Y8355379D01*
X6890588Y8353528D01*
X6899381Y8351214D01*
X6909100Y8348900D01*
X6919744Y8346586D01*
X6930851Y8344272D01*
X6942421Y8341958D01*
X6966948Y8337793D01*
X6991476Y8335016D01*
X7003046Y8334553D01*
X7014153Y8334091D01*
X7019244Y8334091D01*
X7022020Y8334553D01*
X7025260Y8334553D01*
X7033127Y8335479D01*
X7041920Y8336404D01*
X7051176Y8338256D01*
X7061357Y8340570D01*
X7071076Y8343809D01*
X7071539Y8343809D01*
X7072464Y8344272D01*
X7073390Y8344735D01*
X7075241Y8345660D01*
X7080332Y8347974D01*
X7085885Y8350751D01*
X7092364Y8354916D01*
X7099306Y8359544D01*
X7105785Y8365097D01*
X7111338Y8371576D01*
X7111801Y8372502D01*
X7113652Y8374816D01*
X7115966Y8378518D01*
X7118743Y8383146D01*
X7121057Y8389162D01*
X7123371Y8395641D01*
X7125222Y8403046D01*
X7125685Y8410913D01*
X7125685Y8411376D01*
X7125685Y8412302D01*
X7125685Y8413690D01*
X7125222Y8416004D01*
X7124296Y8421557D01*
X7121982Y8428499D01*
X7118743Y8435904D01*
X7116429Y8440069D01*
X7113189Y8443771D01*
X7109950Y8447936D01*
X7106248Y8451639D01*
X7101620Y8454878D01*
X7096529Y8458118D01*
X7096066Y8458118D01*
X7095141Y8459043D01*
X7093290Y8459506D01*
X7090976Y8460894D01*
X7088199Y8461820D01*
X7084034Y8463208D01*
X7079869Y8464597D01*
X7074778Y8466448D01*
X7068762Y8467836D01*
X7061820Y8469225D01*
X7054878Y8470613D01*
X7046548Y8472001D01*
X7037755Y8472927D01*
X7028036Y8473852D01*
X7017855Y8474315D01*
X6996567Y8474315D01*
X6989625Y8473852D01*
X6981758Y8473852D01*
X6972502Y8473390D01*
X6962783Y8472927D01*
X6953065Y8472001D01*
X6950288Y8472001D01*
X6948437Y8471539D01*
X6945660Y8471539D01*
X6942421Y8471076D01*
X6938718Y8470613D01*
X6934553Y8470613D01*
X6929925Y8470150D01*
X6924372Y8469225D01*
X6918819Y8468762D01*
X6912339Y8468299D01*
X6905860Y8467373D01*
X6898456Y8466448D01*
X6882721Y8464597D01*
X6904009Y8739493D01*
X6904009Y8739956D01*
X6904009Y8740418D01*
X6904009Y8741807D01*
X6904472Y8743195D01*
X6904472Y8747823D01*
X6904935Y8754302D01*
X6905398Y8762169D01*
X6905398Y8771888D01*
X6905860Y8783458D01*
X6906323Y8796416D01*
X6934091Y8796416D01*
X6945197Y8795953D01*
X7003509Y8795953D01*
X7020632Y8795490D01*
X7201582Y8795490D01*
X7218242Y8795953D01*
X7288586Y8795953D01*
X7305247Y8796416D01*
X7321444Y8796416D01*
X7321444Y8795953D01*
X7321444Y8795953D02*
G37*
G36*
X5880256Y8790399D02*
X5880256Y8789937D01*
X5880256Y8788548D01*
X5879793Y8786697D01*
X5879331Y8782069D01*
X5878868Y8775127D01*
X5878405Y8767260D01*
X5877479Y8757542D01*
X5877017Y8746897D01*
X5876091Y8734865D01*
X5875166Y8721444D01*
X5874240Y8707560D01*
X5873314Y8693214D01*
X5872389Y8677942D01*
X5870538Y8646010D01*
X5868687Y8613614D01*
X5868687Y8613152D01*
X5868687Y8612689D01*
X5868687Y8609912D01*
X5868224Y8605284D01*
X5868224Y8599268D01*
X5867761Y8592326D01*
X5867298Y8583996D01*
X5866835Y8574740D01*
X5866373Y8565022D01*
X5866373Y8554840D01*
X5865910Y8544196D01*
X5864984Y8522445D01*
X5864521Y8511801D01*
X5864521Y8501620D01*
X5864059Y8492364D01*
X5864059Y8483571D01*
X5867761Y8483571D01*
X5871926Y8483108D01*
X5884884Y8483108D01*
X5892751Y8482645D01*
X5939030Y8482645D01*
X5940881Y8483108D01*
X5943195Y8483108D01*
X5945972Y8483571D01*
X5949674Y8483571D01*
X5954302Y8484034D01*
X5954302Y8483571D01*
X5954302Y8481720D01*
X5954302Y8478943D01*
X5953840Y8475241D01*
X5953840Y8470613D01*
X5953840Y8464597D01*
X5953377Y8458580D01*
X5953377Y8451176D01*
X5953377Y8443308D01*
X5952914Y8434978D01*
X5952914Y8426185D01*
X5952914Y8416467D01*
X5952451Y8396567D01*
X5952451Y8375741D01*
X5952451Y8355842D01*
X5949674Y8355842D01*
X5947823Y8356304D01*
X5938105Y8356304D01*
X5933477Y8356767D01*
X5916816Y8356767D01*
X5909875Y8357230D01*
X5859894Y8357230D01*
X5859894Y8356767D01*
X5859894Y8355379D01*
X5859431Y8352602D01*
X5859431Y8348900D01*
X5858968Y8344272D01*
X5858968Y8338256D01*
X5858505Y8331314D01*
X5858042Y8322984D01*
X5857580Y8313728D01*
X5857580Y8302621D01*
X5857117Y8290588D01*
X5856654Y8277168D01*
X5856654Y8262358D01*
X5856191Y8246161D01*
X5856191Y8228575D01*
X5856191Y8209138D01*
X5835366Y8209138D01*
X5829350Y8209601D01*
X5711801Y8209601D01*
X5694678Y8209138D01*
X5676167Y8209138D01*
X5676167Y8209601D01*
X5676167Y8210989D01*
X5676629Y8212840D01*
X5676629Y8215617D01*
X5677092Y8219319D01*
X5677555Y8223484D01*
X5678018Y8228112D01*
X5678481Y8233203D01*
X5678943Y8238756D01*
X5679406Y8245235D01*
X5680332Y8258656D01*
X5681720Y8273465D01*
X5682646Y8289200D01*
X5682646Y8289663D01*
X5682646Y8291051D01*
X5683109Y8293365D01*
X5683109Y8296142D01*
X5683571Y8299844D01*
X5683571Y8304009D01*
X5684034Y8308637D01*
X5684497Y8313728D01*
X5685422Y8324372D01*
X5685885Y8335942D01*
X5686811Y8347049D01*
X5687274Y8357230D01*
X5640532Y8356767D01*
X5605823Y8356767D01*
X5445698Y8354453D01*
X5446624Y8367411D01*
X5446624Y8367874D01*
X5446624Y8368337D01*
X5446624Y8370188D01*
X5447087Y8372502D01*
X5447087Y8376204D01*
X5447549Y8381295D01*
X5447549Y8387311D01*
X5448012Y8395179D01*
X5451715Y8476166D01*
X5451715Y8476629D01*
X5451715Y8478018D01*
X5451715Y8480332D01*
X5452177Y8483108D01*
X5452177Y8486811D01*
X5452177Y8490513D01*
X5452177Y8499306D01*
X5452640Y8499769D01*
X5454028Y8501620D01*
X5456342Y8504859D01*
X5459582Y8508562D01*
X5463747Y8514115D01*
X5468838Y8520131D01*
X5474391Y8527536D01*
X5480870Y8535403D01*
X5487812Y8544659D01*
X5495679Y8554378D01*
X5503547Y8565485D01*
X5512340Y8577054D01*
X5521596Y8589087D01*
X5531314Y8602045D01*
X5541495Y8615928D01*
X5552140Y8630275D01*
X5552602Y8631200D01*
X5554916Y8633977D01*
X5557693Y8638142D01*
X5561858Y8643696D01*
X5566949Y8651100D01*
X5572965Y8659430D01*
X5579444Y8669149D01*
X5586849Y8679793D01*
X5595179Y8691363D01*
X5603509Y8703858D01*
X5612765Y8717279D01*
X5622021Y8731163D01*
X5631276Y8745509D01*
X5640995Y8760318D01*
X5660432Y8790862D01*
X5677092Y8790862D01*
X5684034Y8790399D01*
X5718280Y8790399D01*
X5738180Y8789937D01*
X5817317Y8789937D01*
X5825184Y8790399D01*
X5860819Y8790399D01*
X5880256Y8790862D01*
X5880256Y8790399D01*
X5880256Y8790399D02*
G37*
G36*
X8515040Y10201507D02*
X8521057Y10201507D01*
X8527536Y10201044D01*
X8534477Y10200581D01*
X8542345Y10200118D01*
X8558542Y10199193D01*
X8575666Y10197342D01*
X8593252Y10195028D01*
X8593714Y10195028D01*
X8595565Y10194565D01*
X8597879Y10194102D01*
X8601119Y10193639D01*
X8605284Y10192714D01*
X8609912Y10191788D01*
X8615003Y10190863D01*
X8620556Y10189474D01*
X8633051Y10185772D01*
X8646472Y10181607D01*
X8659893Y10176516D01*
X8672851Y10170037D01*
X8673314Y10170037D01*
X8674239Y10169111D01*
X8676091Y10168186D01*
X8678405Y10166798D01*
X8681181Y10164946D01*
X8683958Y10162632D01*
X8691363Y10157542D01*
X8699230Y10150600D01*
X8707097Y10142733D01*
X8714965Y10133477D01*
X8721444Y10122833D01*
X8721444Y10122370D01*
X8721907Y10121444D01*
X8722832Y10120056D01*
X8723758Y10117742D01*
X8725146Y10114965D01*
X8726534Y10111726D01*
X8727923Y10108023D01*
X8729311Y10103858D01*
X8732088Y10094140D01*
X8734865Y10083033D01*
X8736716Y10071000D01*
X8737179Y10057580D01*
X8737179Y10057117D01*
X8737179Y10056654D01*
X8737179Y10053877D01*
X8736716Y10049712D01*
X8736253Y10044159D01*
X8735790Y10037680D01*
X8734865Y10030738D01*
X8733014Y10023333D01*
X8731162Y10015929D01*
X8730700Y10015003D01*
X8730237Y10012689D01*
X8728848Y10008524D01*
X8726997Y10003896D01*
X8724221Y9997880D01*
X8721444Y9991864D01*
X8717742Y9984922D01*
X8713576Y9978443D01*
X8713114Y9977517D01*
X8711262Y9975666D01*
X8708949Y9972427D01*
X8705709Y9968261D01*
X8701544Y9963634D01*
X8696453Y9958543D01*
X8691363Y9952989D01*
X8685346Y9947899D01*
X8684421Y9947436D01*
X8682570Y9945585D01*
X8679330Y9943271D01*
X8675165Y9940494D01*
X8670537Y9936792D01*
X8665446Y9933552D01*
X8653877Y9926611D01*
X8653414Y9926148D01*
X8651100Y9925222D01*
X8647861Y9923371D01*
X8643233Y9921520D01*
X8637216Y9918743D01*
X8630275Y9915504D01*
X8622407Y9912264D01*
X8613151Y9908562D01*
X8613614Y9908562D01*
X8614540Y9908099D01*
X8615928Y9908099D01*
X8617779Y9907636D01*
X8622407Y9906711D01*
X8628423Y9904860D01*
X8634902Y9903471D01*
X8641844Y9901157D01*
X8648786Y9899306D01*
X8654802Y9896992D01*
X8655728Y9896529D01*
X8657579Y9896067D01*
X8660356Y9894678D01*
X8664521Y9892364D01*
X8669149Y9890050D01*
X8674239Y9887274D01*
X8679793Y9883571D01*
X8685346Y9879406D01*
X8685809Y9878943D01*
X8688123Y9877555D01*
X8690900Y9875241D01*
X8694139Y9872002D01*
X8698304Y9868299D01*
X8702932Y9863671D01*
X8707097Y9858581D01*
X8711262Y9853027D01*
X8711725Y9852564D01*
X8713114Y9850251D01*
X8714965Y9847474D01*
X8717279Y9843309D01*
X8719593Y9838218D01*
X8722369Y9832665D01*
X8724683Y9826186D01*
X8726997Y9819244D01*
X8727460Y9818318D01*
X8727923Y9816004D01*
X8728848Y9812302D01*
X8729774Y9807211D01*
X8730700Y9801195D01*
X8731625Y9794716D01*
X8732551Y9787311D01*
X8732551Y9779444D01*
X8732551Y9778981D01*
X8732551Y9777593D01*
X8732551Y9775279D01*
X8732088Y9772502D01*
X8732088Y9768800D01*
X8731625Y9764172D01*
X8731162Y9759081D01*
X8730237Y9753991D01*
X8727923Y9741958D01*
X8724221Y9728537D01*
X8719593Y9715116D01*
X8713114Y9701233D01*
X8713114Y9700770D01*
X8712188Y9699844D01*
X8711262Y9697993D01*
X8709411Y9695217D01*
X8707560Y9692440D01*
X8704783Y9688738D01*
X8698767Y9680407D01*
X8690437Y9671152D01*
X8680718Y9661433D01*
X8669149Y9651252D01*
X8655728Y9641996D01*
X8655265Y9641533D01*
X8653877Y9641070D01*
X8652026Y9639682D01*
X8649249Y9638294D01*
X8645547Y9636442D01*
X8641381Y9634129D01*
X8636291Y9631352D01*
X8630737Y9629038D01*
X8624721Y9626261D01*
X8618242Y9623484D01*
X8610837Y9620708D01*
X8603433Y9617931D01*
X8587235Y9612378D01*
X8569187Y9608212D01*
X8568724Y9608212D01*
X8566873Y9607750D01*
X8564559Y9607287D01*
X8560856Y9606824D01*
X8556229Y9605898D01*
X8551138Y9604973D01*
X8545122Y9604047D01*
X8538643Y9603122D01*
X8531701Y9602196D01*
X8523833Y9601271D01*
X8507173Y9599419D01*
X8489587Y9598494D01*
X8471076Y9598031D01*
X8458580Y9598031D01*
X8453490Y9598494D01*
X8441457Y9598494D01*
X8434515Y9598957D01*
X8427573Y9599419D01*
X8411839Y9600345D01*
X8395641Y9601271D01*
X8378981Y9603122D01*
X8378518Y9603122D01*
X8377130Y9603585D01*
X8374353Y9603585D01*
X8371113Y9604047D01*
X8366948Y9604510D01*
X8361858Y9605436D01*
X8356304Y9606361D01*
X8349362Y9607287D01*
X8342420Y9608212D01*
X8334090Y9609601D01*
X8325760Y9610989D01*
X8316504Y9612840D01*
X8306323Y9614229D01*
X8296142Y9616543D01*
X8285035Y9618394D01*
X8273928Y9620708D01*
X8273928Y9621170D01*
X8273928Y9621633D01*
X8273465Y9624410D01*
X8273465Y9629038D01*
X8273002Y9635054D01*
X8272539Y9642459D01*
X8272077Y9650789D01*
X8271151Y9660045D01*
X8270688Y9670226D01*
X8269763Y9680870D01*
X8268837Y9691977D01*
X8266986Y9715116D01*
X8265135Y9737330D01*
X8263746Y9747974D01*
X8262821Y9758156D01*
X8263284Y9758156D01*
X8263746Y9757693D01*
X8265135Y9757230D01*
X8266986Y9756767D01*
X8269300Y9756305D01*
X8272077Y9755379D01*
X8279018Y9753065D01*
X8287349Y9750751D01*
X8297067Y9747974D01*
X8307711Y9745198D01*
X8319744Y9742421D01*
X8332702Y9739181D01*
X8346586Y9736405D01*
X8360469Y9733628D01*
X8375278Y9731314D01*
X8390088Y9729000D01*
X8404897Y9727612D01*
X8420169Y9726686D01*
X8434515Y9726223D01*
X8439143Y9726223D01*
X8442383Y9726686D01*
X8446548Y9726686D01*
X8451176Y9727149D01*
X8456266Y9727612D01*
X8461820Y9728537D01*
X8473852Y9730851D01*
X8486810Y9734091D01*
X8499306Y9738719D01*
X8510875Y9745198D01*
X8511338Y9745660D01*
X8512264Y9746123D01*
X8513652Y9747049D01*
X8515503Y9748900D01*
X8520131Y9753065D01*
X8525684Y9758619D01*
X8531238Y9766023D01*
X8535866Y9774816D01*
X8537717Y9779444D01*
X8539105Y9784535D01*
X8540031Y9790088D01*
X8540494Y9796104D01*
X8540494Y9796567D01*
X8540494Y9797493D01*
X8540494Y9798881D01*
X8540031Y9801195D01*
X8539105Y9806748D01*
X8536791Y9813228D01*
X8533089Y9820632D01*
X8530775Y9824797D01*
X8527998Y9828500D01*
X8524296Y9831739D01*
X8520131Y9835441D01*
X8515503Y9838681D01*
X8510412Y9841458D01*
X8509950Y9841458D01*
X8509024Y9841920D01*
X8507173Y9842846D01*
X8504859Y9843772D01*
X8501620Y9844697D01*
X8497917Y9846085D01*
X8493289Y9847474D01*
X8487736Y9848862D01*
X8481720Y9850251D01*
X8474778Y9851639D01*
X8467373Y9853027D01*
X8459043Y9853953D01*
X8450250Y9854878D01*
X8440069Y9855804D01*
X8429887Y9856267D01*
X8403508Y9856267D01*
X8398881Y9855804D01*
X8393790Y9855804D01*
X8382220Y9855341D01*
X8369725Y9854416D01*
X8357230Y9853027D01*
X8344272Y9851639D01*
X8344272Y9852564D01*
X8344734Y9854416D01*
X8344734Y9858118D01*
X8345197Y9863209D01*
X8345660Y9868762D01*
X8346123Y9876167D01*
X8347048Y9884034D01*
X8347511Y9892827D01*
X8348437Y9902546D01*
X8348899Y9912727D01*
X8349825Y9923371D01*
X8350751Y9934941D01*
X8352602Y9958543D01*
X8353990Y9982608D01*
X8355379Y9982608D01*
X8357230Y9982145D01*
X8359081Y9981682D01*
X8362320Y9981220D01*
X8365560Y9980757D01*
X8369262Y9980294D01*
X8373427Y9979831D01*
X8383146Y9978906D01*
X8394253Y9977980D01*
X8405822Y9977517D01*
X8418318Y9977054D01*
X8428036Y9977054D01*
X8431739Y9977517D01*
X8440532Y9977517D01*
X8450713Y9977980D01*
X8461357Y9978906D01*
X8472001Y9980294D01*
X8481720Y9981682D01*
X8482182Y9981682D01*
X8482645Y9982145D01*
X8484034Y9982145D01*
X8485885Y9982608D01*
X8490513Y9983996D01*
X8496066Y9985847D01*
X8502545Y9988624D01*
X8509024Y9991864D01*
X8515040Y9996029D01*
X8520594Y10000657D01*
X8521057Y10001119D01*
X8522908Y10002971D01*
X8524759Y10006210D01*
X8527536Y10009912D01*
X8529850Y10014540D01*
X8532164Y10019631D01*
X8533552Y10025647D01*
X8534015Y10031663D01*
X8534015Y10032126D01*
X8534015Y10033977D01*
X8533552Y10036754D01*
X8532626Y10040456D01*
X8531238Y10044622D01*
X8529387Y10049249D01*
X8527073Y10053414D01*
X8523371Y10058042D01*
X8522908Y10058505D01*
X8521519Y10059894D01*
X8518743Y10062207D01*
X8515503Y10064521D01*
X8510875Y10067298D01*
X8505785Y10070538D01*
X8499306Y10072852D01*
X8491901Y10075166D01*
X8490975Y10075628D01*
X8488199Y10076091D01*
X8483571Y10077017D01*
X8477555Y10077942D01*
X8470150Y10078868D01*
X8461357Y10079331D01*
X8451176Y10080256D01*
X8429887Y10080256D01*
X8422946Y10079793D01*
X8414153Y10079331D01*
X8404434Y10078868D01*
X8393790Y10077942D01*
X8382683Y10077017D01*
X8381295Y10077017D01*
X8379443Y10076554D01*
X8377130Y10076554D01*
X8374353Y10076091D01*
X8370651Y10075628D01*
X8366023Y10075166D01*
X8361395Y10074240D01*
X8355841Y10073314D01*
X8349362Y10072389D01*
X8342883Y10071463D01*
X8335479Y10070075D01*
X8327611Y10068686D01*
X8319281Y10067298D01*
X8310025Y10065447D01*
X8300770Y10063596D01*
X8321595Y10162632D01*
X8321595Y10163095D01*
X8322058Y10164946D01*
X8322521Y10167723D01*
X8323446Y10170963D01*
X8324372Y10175128D01*
X8325297Y10180218D01*
X8326223Y10185309D01*
X8327148Y10190863D01*
X8328074Y10190863D01*
X8329462Y10191325D01*
X8331314Y10191325D01*
X8335941Y10191788D01*
X8342883Y10192714D01*
X8350751Y10193639D01*
X8360469Y10194565D01*
X8371113Y10195490D01*
X8382683Y10196416D01*
X8395641Y10197342D01*
X8409062Y10198267D01*
X8422946Y10199193D01*
X8437292Y10200118D01*
X8466910Y10201507D01*
X8496529Y10201969D01*
X8509487Y10201969D01*
X8515040Y10201507D01*
X8515040Y10201507D02*
G37*
G36*
X7133089Y10195953D02*
X7142808Y10195953D01*
X7148824Y10195490D01*
X7155303Y10195028D01*
X7161782Y10194565D01*
X7176129Y10192714D01*
X7191401Y10190863D01*
X7206673Y10188086D01*
X7207135Y10188086D01*
X7208524Y10187623D01*
X7210838Y10187160D01*
X7213614Y10186697D01*
X7217317Y10185772D01*
X7221482Y10184383D01*
X7226110Y10183458D01*
X7231200Y10181607D01*
X7242770Y10177904D01*
X7255265Y10173277D01*
X7267761Y10167723D01*
X7280256Y10160781D01*
X7280719Y10160781D01*
X7281644Y10159856D01*
X7283495Y10158930D01*
X7285809Y10157542D01*
X7288123Y10155691D01*
X7291363Y10153377D01*
X7298305Y10147823D01*
X7306172Y10141344D01*
X7314502Y10133477D01*
X7321907Y10124684D01*
X7328849Y10115428D01*
X7328849Y10114965D01*
X7329774Y10114503D01*
X7330237Y10112651D01*
X7331625Y10110800D01*
X7332551Y10108486D01*
X7333939Y10105710D01*
X7337179Y10098768D01*
X7339956Y10090438D01*
X7342732Y10081182D01*
X7344583Y10071000D01*
X7345046Y10059894D01*
X7345046Y10058968D01*
X7345046Y10056654D01*
X7344583Y10052952D01*
X7344583Y10047861D01*
X7343658Y10041845D01*
X7342732Y10035366D01*
X7341807Y10028424D01*
X7339956Y10021019D01*
X7339956Y10020094D01*
X7339030Y10017780D01*
X7337642Y10014078D01*
X7336253Y10008987D01*
X7333939Y10002508D01*
X7330700Y9995103D01*
X7326998Y9987236D01*
X7322832Y9977980D01*
X7322832Y9977517D01*
X7321907Y9976592D01*
X7320981Y9975203D01*
X7320056Y9972889D01*
X7318205Y9970113D01*
X7316353Y9966873D01*
X7311726Y9959006D01*
X7305709Y9949750D01*
X7299230Y9939569D01*
X7291363Y9928462D01*
X7282570Y9917355D01*
X7282107Y9916892D01*
X7281182Y9915504D01*
X7278868Y9912727D01*
X7276554Y9909487D01*
X7272851Y9905785D01*
X7269149Y9900694D01*
X7264521Y9895141D01*
X7259430Y9889125D01*
X7253414Y9882646D01*
X7247398Y9875241D01*
X7240456Y9867836D01*
X7233514Y9859969D01*
X7217780Y9842846D01*
X7201119Y9825260D01*
X7200656Y9824797D01*
X7199268Y9823409D01*
X7196491Y9820632D01*
X7193252Y9817393D01*
X7189087Y9813228D01*
X7183996Y9808137D01*
X7177980Y9802121D01*
X7171501Y9795642D01*
X7164096Y9788237D01*
X7155766Y9780370D01*
X7147436Y9772039D01*
X7137717Y9763246D01*
X7127999Y9753991D01*
X7117355Y9744272D01*
X7106710Y9734091D01*
X7095141Y9723909D01*
X7141420Y9723447D01*
X7176129Y9723447D01*
X7183070Y9723909D01*
X7215003Y9723909D01*
X7219168Y9724372D01*
X7233977Y9724372D01*
X7245547Y9724835D01*
X7256654Y9725298D01*
X7266835Y9725298D01*
X7271463Y9725761D01*
X7278868Y9725761D01*
X7283033Y9726223D01*
X7288586Y9726686D01*
X7295528Y9727149D01*
X7303395Y9728075D01*
X7312651Y9729000D01*
X7322832Y9729926D01*
X7322832Y9729000D01*
X7322370Y9726223D01*
X7322370Y9721595D01*
X7321907Y9715579D01*
X7321444Y9708175D01*
X7320519Y9699382D01*
X7319593Y9689200D01*
X7318667Y9678093D01*
X7318667Y9677631D01*
X7318667Y9676705D01*
X7318205Y9674854D01*
X7318205Y9672540D01*
X7317742Y9669763D01*
X7317742Y9666061D01*
X7317279Y9661896D01*
X7316816Y9657268D01*
X7316353Y9652177D01*
X7315891Y9646624D01*
X7315428Y9640145D01*
X7314965Y9633666D01*
X7314039Y9619319D01*
X7313114Y9603585D01*
X7260356Y9603585D01*
X7245547Y9604047D01*
X6932239Y9604047D01*
X6912339Y9603585D01*
X6854954Y9603585D01*
X6854954Y9604047D01*
X6854954Y9604510D01*
X6855417Y9607287D01*
X6855417Y9611452D01*
X6855879Y9617468D01*
X6856342Y9625336D01*
X6856342Y9634129D01*
X6856805Y9644773D01*
X6857268Y9656342D01*
X6857268Y9656805D01*
X6857268Y9657731D01*
X6857268Y9659582D01*
X6857731Y9661896D01*
X6857731Y9665135D01*
X6857731Y9668838D01*
X6858193Y9673003D01*
X6858193Y9677168D01*
X6858656Y9687349D01*
X6859119Y9698919D01*
X6860044Y9711414D01*
X6860507Y9723909D01*
X6860970Y9724372D01*
X6862358Y9725761D01*
X6864672Y9727612D01*
X6867912Y9729926D01*
X6872077Y9733165D01*
X6876242Y9737330D01*
X6881333Y9741495D01*
X6887349Y9746123D01*
X6899844Y9756767D01*
X6913265Y9768800D01*
X6927611Y9781295D01*
X6941495Y9794253D01*
X6942421Y9794716D01*
X6944272Y9796567D01*
X6947511Y9799807D01*
X6951676Y9803509D01*
X6956767Y9808600D01*
X6962783Y9814616D01*
X6969725Y9821095D01*
X6977593Y9828037D01*
X6985460Y9835904D01*
X6993790Y9844234D01*
X7011839Y9861820D01*
X7029888Y9879869D01*
X7047936Y9898381D01*
X7048399Y9898843D01*
X7049788Y9900232D01*
X7051639Y9902083D01*
X7053953Y9904860D01*
X7057192Y9908099D01*
X7060894Y9912264D01*
X7065060Y9916892D01*
X7069687Y9921520D01*
X7079406Y9932627D01*
X7089587Y9944659D01*
X7100231Y9956692D01*
X7109950Y9969187D01*
X7110413Y9970113D01*
X7112264Y9972427D01*
X7114578Y9976129D01*
X7117817Y9980294D01*
X7121057Y9985385D01*
X7123834Y9990938D01*
X7126610Y9996029D01*
X7128924Y10001119D01*
X7128924Y10001582D01*
X7129387Y10002508D01*
X7130313Y10004359D01*
X7130775Y10007136D01*
X7132164Y10012689D01*
X7132627Y10019631D01*
X7132627Y10020094D01*
X7132627Y10021945D01*
X7132164Y10024259D01*
X7132164Y10027036D01*
X7130313Y10033977D01*
X7128924Y10037680D01*
X7127073Y10040919D01*
X7126610Y10041382D01*
X7126148Y10042308D01*
X7124759Y10044159D01*
X7122908Y10046473D01*
X7120131Y10048787D01*
X7117355Y10051563D01*
X7113652Y10054340D01*
X7109487Y10056654D01*
X7109024Y10057117D01*
X7107173Y10057580D01*
X7104859Y10058968D01*
X7101157Y10060356D01*
X7096992Y10062207D01*
X7091901Y10063596D01*
X7086348Y10065447D01*
X7080332Y10066835D01*
X7079406Y10066835D01*
X7077555Y10067298D01*
X7073853Y10068224D01*
X7069225Y10069149D01*
X7063671Y10069612D01*
X7057192Y10070538D01*
X7049788Y10071000D01*
X7034053Y10071000D01*
X7030813Y10070538D01*
X7022946Y10070538D01*
X7013690Y10069612D01*
X7003046Y10068686D01*
X6991476Y10067761D01*
X6978981Y10065910D01*
X6978518Y10065910D01*
X6977593Y10065447D01*
X6975741Y10065447D01*
X6972965Y10064984D01*
X6969725Y10064521D01*
X6965560Y10063596D01*
X6960932Y10062670D01*
X6955379Y10061745D01*
X6949363Y10060356D01*
X6942883Y10058968D01*
X6935479Y10057580D01*
X6927611Y10055728D01*
X6918819Y10053414D01*
X6909563Y10051563D01*
X6899844Y10049249D01*
X6889663Y10046473D01*
X6900770Y10107098D01*
X6900770Y10108023D01*
X6901233Y10108949D01*
X6901695Y10110800D01*
X6901695Y10113114D01*
X6902158Y10115428D01*
X6903084Y10118668D01*
X6903547Y10122833D01*
X6904472Y10126998D01*
X6904935Y10132088D01*
X6905860Y10138105D01*
X6907249Y10144584D01*
X6908174Y10151526D01*
X6909100Y10159393D01*
X6910488Y10168186D01*
X6911877Y10177442D01*
X6913265Y10177442D01*
X6914653Y10177904D01*
X6916967Y10178367D01*
X6919744Y10178830D01*
X6922984Y10179293D01*
X6926686Y10179756D01*
X6930851Y10180218D01*
X6935479Y10181144D01*
X6940570Y10182070D01*
X6952139Y10183458D01*
X6965560Y10185309D01*
X6979907Y10187160D01*
X6995641Y10188549D01*
X7012302Y10190400D01*
X7029425Y10192251D01*
X7047474Y10193639D01*
X7084497Y10195490D01*
X7121520Y10196416D01*
X7128924Y10196416D01*
X7133089Y10195953D01*
X7133089Y10195953D02*
G37*
G36*
X5836986Y10095528D02*
X5818937Y9780370D01*
X5814309Y9664210D01*
X5814309Y9609138D01*
X5795335Y9609138D01*
X5789781Y9609601D01*
X5658349Y9609601D01*
X5641689Y9609138D01*
X5625954Y9609138D01*
X5625954Y9610064D01*
X5626417Y9612378D01*
X5626417Y9616080D01*
X5626880Y9621633D01*
X5627343Y9629038D01*
X5627805Y9637831D01*
X5628731Y9648012D01*
X5629657Y9660507D01*
X5630582Y9674391D01*
X5631508Y9690126D01*
X5632433Y9707249D01*
X5633822Y9726686D01*
X5635210Y9747512D01*
X5635673Y9759081D01*
X5636598Y9770651D01*
X5637061Y9782684D01*
X5637987Y9795179D01*
X5638449Y9808600D01*
X5639375Y9822020D01*
X5639375Y9822483D01*
X5639375Y9823872D01*
X5639838Y9825723D01*
X5639838Y9828500D01*
X5639838Y9831739D01*
X5640301Y9835904D01*
X5640301Y9840995D01*
X5640763Y9846085D01*
X5641226Y9852102D01*
X5641689Y9858118D01*
X5642152Y9872002D01*
X5643077Y9887274D01*
X5644003Y9903934D01*
X5644929Y9921057D01*
X5645854Y9938643D01*
X5646780Y9956229D01*
X5647242Y9973352D01*
X5648168Y9990475D01*
X5648631Y10006210D01*
X5649094Y10020557D01*
X5649556Y10027498D01*
X5649556Y10033515D01*
X5649094Y10033052D01*
X5646780Y10031663D01*
X5644003Y10029812D01*
X5639838Y10027036D01*
X5635210Y10024259D01*
X5629657Y10021019D01*
X5618550Y10013615D01*
X5617624Y10013152D01*
X5616698Y10012689D01*
X5615310Y10011764D01*
X5613459Y10010375D01*
X5611145Y10008987D01*
X5608368Y10006673D01*
X5605129Y10004359D01*
X5600964Y10001582D01*
X5596336Y9998806D01*
X5591245Y9995103D01*
X5585229Y9990938D01*
X5578750Y9986310D01*
X5571345Y9980757D01*
X5563015Y9975203D01*
X5554222Y9968724D01*
X5554222Y9969187D01*
X5554222Y9970575D01*
X5554685Y9972427D01*
X5554685Y9975203D01*
X5554685Y9978443D01*
X5555148Y9982608D01*
X5555148Y9987699D01*
X5555610Y9992789D01*
X5556073Y9998806D01*
X5556073Y10005285D01*
X5556536Y10012226D01*
X5556999Y10019631D01*
X5557462Y10035829D01*
X5558387Y10053414D01*
X5558387Y10053877D01*
X5558387Y10055728D01*
X5558387Y10058042D01*
X5558850Y10061282D01*
X5558850Y10065447D01*
X5559313Y10070075D01*
X5559313Y10075166D01*
X5559776Y10080719D01*
X5559776Y10092751D01*
X5560238Y10104784D01*
X5560701Y10115891D01*
X5560701Y10120982D01*
X5560701Y10125609D01*
X5561164Y10125609D01*
X5561627Y10126072D01*
X5564403Y10127923D01*
X5569031Y10130237D01*
X5575048Y10133940D01*
X5582452Y10138105D01*
X5590782Y10143195D01*
X5600038Y10148749D01*
X5609757Y10154765D01*
X5610219Y10154765D01*
X5611145Y10155691D01*
X5612533Y10156616D01*
X5614385Y10157542D01*
X5619012Y10160319D01*
X5624566Y10164021D01*
X5630119Y10167723D01*
X5635673Y10170963D01*
X5640301Y10173739D01*
X5642152Y10175128D01*
X5643540Y10176053D01*
X5644003Y10176516D01*
X5644929Y10176979D01*
X5646317Y10177904D01*
X5648168Y10179756D01*
X5650945Y10181607D01*
X5654184Y10184383D01*
X5657887Y10187160D01*
X5662052Y10190863D01*
X5672233Y10190863D01*
X5676861Y10190400D01*
X5700000Y10190400D01*
X5707405Y10189937D01*
X5786079Y10189937D01*
X5793946Y10190400D01*
X5827730Y10190400D01*
X5845779Y10190863D01*
X5836986Y10095528D01*
X5836986Y10095528D02*
G37*
%LPC*%
G36*
X13538298Y5835356D02*
X13537927Y5834986D01*
X13537187Y5833875D01*
X13536076Y5832023D01*
X13534595Y5829431D01*
X13532742Y5826468D01*
X13530521Y5823135D01*
X13527930Y5819432D01*
X13525337Y5815358D01*
X13519411Y5806100D01*
X13513116Y5796842D01*
X13507190Y5787954D01*
X13501265Y5779436D01*
X13501265Y5779066D01*
X13500523Y5778696D01*
X13499783Y5777585D01*
X13499043Y5776103D01*
X13496451Y5772400D01*
X13493118Y5767956D01*
X13489784Y5763142D01*
X13486452Y5758327D01*
X13483119Y5753513D01*
X13480156Y5749810D01*
X13430531Y5681669D01*
X13530891Y5681669D01*
X13538298Y5835356D01*
X13538298Y5835356D02*
G37*
G36*
X11057426Y5830159D02*
X11050716Y5830159D01*
X11048864Y5829928D01*
X11046782Y5829696D01*
X11044236Y5829465D01*
X11041460Y5829234D01*
X11038220Y5828540D01*
X11034981Y5828077D01*
X11031510Y5827151D01*
X11023874Y5825069D01*
X11020172Y5823680D01*
X11016238Y5822060D01*
X11012304Y5819978D01*
X11008602Y5817895D01*
X11008370Y5817664D01*
X11007676Y5817433D01*
X11006751Y5816738D01*
X11005362Y5815581D01*
X11003743Y5814424D01*
X11001891Y5813036D01*
X10999809Y5811185D01*
X10997495Y5809102D01*
X10994950Y5807020D01*
X10992636Y5804475D01*
X10990090Y5801698D01*
X10987545Y5798690D01*
X10985000Y5795450D01*
X10982686Y5791979D01*
X10978289Y5784343D01*
X10978289Y5784112D01*
X10977826Y5783418D01*
X10977364Y5782261D01*
X10976669Y5780641D01*
X10975744Y5778558D01*
X10974818Y5776244D01*
X10973893Y5773699D01*
X10972967Y5770691D01*
X10972042Y5767452D01*
X10971116Y5763749D01*
X10970190Y5760047D01*
X10969265Y5756113D01*
X10968108Y5747552D01*
X10967876Y5743155D01*
X10967645Y5738527D01*
X10967645Y5738296D01*
X10967645Y5737602D01*
X10967645Y5736445D01*
X10967876Y5734825D01*
X10967876Y5732742D01*
X10968108Y5730428D01*
X10968339Y5727883D01*
X10968802Y5724875D01*
X10969959Y5718627D01*
X10971579Y5711686D01*
X10973893Y5704512D01*
X10977132Y5697339D01*
X10977364Y5697108D01*
X10977595Y5696414D01*
X10978058Y5695488D01*
X10978983Y5694331D01*
X10979909Y5692711D01*
X10981297Y5690860D01*
X10982686Y5688778D01*
X10984537Y5686695D01*
X10986388Y5684381D01*
X10988702Y5681836D01*
X10991016Y5679522D01*
X10993793Y5676976D01*
X10996569Y5674663D01*
X10999809Y5672349D01*
X11003048Y5670035D01*
X11006751Y5667952D01*
X11006982Y5667952D01*
X11007676Y5667489D01*
X11008833Y5667027D01*
X11010222Y5666332D01*
X11012073Y5665638D01*
X11014155Y5664713D01*
X11016701Y5663787D01*
X11019477Y5662861D01*
X11022485Y5661704D01*
X11025725Y5660779D01*
X11032898Y5659159D01*
X11040534Y5658002D01*
X11044468Y5657771D01*
X11048633Y5657539D01*
X11050947Y5657539D01*
X11052567Y5657771D01*
X11054881Y5658002D01*
X11057195Y5658234D01*
X11059971Y5658465D01*
X11062979Y5658928D01*
X11069690Y5660316D01*
X11077094Y5662630D01*
X11080797Y5663787D01*
X11084730Y5665407D01*
X11088433Y5667258D01*
X11092135Y5669340D01*
X11092366Y5669572D01*
X11093061Y5669803D01*
X11093986Y5670497D01*
X11095375Y5671423D01*
X11096994Y5672811D01*
X11098845Y5674200D01*
X11100928Y5675819D01*
X11103242Y5677902D01*
X11105556Y5680216D01*
X11108101Y5682530D01*
X11110647Y5685307D01*
X11113192Y5688315D01*
X11115506Y5691554D01*
X11118051Y5694794D01*
X11122216Y5702430D01*
X11122448Y5702661D01*
X11122679Y5703355D01*
X11123142Y5704512D01*
X11123836Y5706132D01*
X11124530Y5708215D01*
X11125456Y5710529D01*
X11126381Y5713074D01*
X11127538Y5716082D01*
X11128464Y5719322D01*
X11129389Y5722792D01*
X11131009Y5730428D01*
X11132166Y5738759D01*
X11132629Y5742924D01*
X11132629Y5747320D01*
X11132629Y5747552D01*
X11132629Y5748246D01*
X11132629Y5749634D01*
X11132398Y5751254D01*
X11132398Y5753336D01*
X11132166Y5755650D01*
X11131935Y5758196D01*
X11131472Y5761204D01*
X11130315Y5767683D01*
X11128464Y5774856D01*
X11126150Y5782029D01*
X11122910Y5789434D01*
X11122910Y5789665D01*
X11122448Y5790360D01*
X11121985Y5791285D01*
X11121059Y5792673D01*
X11120134Y5794293D01*
X11118977Y5796144D01*
X11115737Y5800309D01*
X11111804Y5805169D01*
X11106944Y5810028D01*
X11101391Y5814887D01*
X11094680Y5819284D01*
X11094449Y5819515D01*
X11093755Y5819747D01*
X11092829Y5820209D01*
X11091441Y5820904D01*
X11089590Y5821829D01*
X11087507Y5822755D01*
X11085193Y5823680D01*
X11082648Y5824837D01*
X11079640Y5825763D01*
X11076400Y5826688D01*
X11069227Y5828540D01*
X11061360Y5829696D01*
X11057426Y5830159D01*
X11057426Y5830159D02*
G37*
G36*
X10189236Y5830159D02*
X10182525Y5830159D01*
X10180674Y5829928D01*
X10178592Y5829696D01*
X10176046Y5829465D01*
X10173269Y5829234D01*
X10170030Y5828540D01*
X10166790Y5828077D01*
X10163320Y5827151D01*
X10155684Y5825069D01*
X10151981Y5823680D01*
X10148048Y5822060D01*
X10144114Y5819978D01*
X10140412Y5817895D01*
X10140180Y5817664D01*
X10139486Y5817433D01*
X10138560Y5816738D01*
X10137172Y5815581D01*
X10135552Y5814424D01*
X10133701Y5813036D01*
X10131619Y5811185D01*
X10129305Y5809102D01*
X10126759Y5807020D01*
X10124445Y5804475D01*
X10121900Y5801698D01*
X10119355Y5798690D01*
X10116809Y5795450D01*
X10114495Y5791979D01*
X10110099Y5784343D01*
X10110099Y5784112D01*
X10109636Y5783418D01*
X10109173Y5782261D01*
X10108479Y5780641D01*
X10107554Y5778558D01*
X10106628Y5776244D01*
X10105702Y5773699D01*
X10104777Y5770691D01*
X10103851Y5767452D01*
X10102926Y5763749D01*
X10102000Y5760047D01*
X10101075Y5756113D01*
X10099918Y5747552D01*
X10099686Y5743155D01*
X10099455Y5738527D01*
X10099455Y5738296D01*
X10099455Y5737602D01*
X10099455Y5736445D01*
X10099686Y5734825D01*
X10099686Y5732742D01*
X10099918Y5730428D01*
X10100149Y5727883D01*
X10100612Y5724875D01*
X10101769Y5718627D01*
X10103388Y5711686D01*
X10105702Y5704512D01*
X10108942Y5697339D01*
X10109173Y5697108D01*
X10109405Y5696414D01*
X10109868Y5695488D01*
X10110793Y5694331D01*
X10111719Y5692711D01*
X10113107Y5690860D01*
X10114495Y5688778D01*
X10116347Y5686695D01*
X10118198Y5684381D01*
X10120512Y5681836D01*
X10122826Y5679522D01*
X10125602Y5676976D01*
X10128379Y5674663D01*
X10131619Y5672349D01*
X10134858Y5670035D01*
X10138560Y5667952D01*
X10138792Y5667952D01*
X10139486Y5667489D01*
X10140643Y5667027D01*
X10142031Y5666332D01*
X10143882Y5665638D01*
X10145965Y5664713D01*
X10148510Y5663787D01*
X10151287Y5662861D01*
X10154295Y5661704D01*
X10157535Y5660779D01*
X10164708Y5659159D01*
X10172344Y5658002D01*
X10176278Y5657771D01*
X10180443Y5657539D01*
X10182757Y5657539D01*
X10184376Y5657771D01*
X10186690Y5658002D01*
X10189004Y5658234D01*
X10191781Y5658465D01*
X10194789Y5658928D01*
X10201500Y5660316D01*
X10208904Y5662630D01*
X10212606Y5663787D01*
X10216540Y5665407D01*
X10220242Y5667258D01*
X10223945Y5669340D01*
X10224176Y5669572D01*
X10224870Y5669803D01*
X10225796Y5670497D01*
X10227184Y5671423D01*
X10228804Y5672811D01*
X10230655Y5674200D01*
X10232738Y5675819D01*
X10235052Y5677902D01*
X10237366Y5680216D01*
X10239911Y5682530D01*
X10242456Y5685307D01*
X10245002Y5688315D01*
X10247316Y5691554D01*
X10249861Y5694794D01*
X10254026Y5702430D01*
X10254257Y5702661D01*
X10254489Y5703355D01*
X10254952Y5704512D01*
X10255646Y5706132D01*
X10256340Y5708215D01*
X10257265Y5710529D01*
X10258191Y5713074D01*
X10259348Y5716082D01*
X10260274Y5719322D01*
X10261199Y5722792D01*
X10262819Y5730428D01*
X10263976Y5738759D01*
X10264439Y5742924D01*
X10264439Y5747320D01*
X10264439Y5747552D01*
X10264439Y5748246D01*
X10264439Y5749634D01*
X10264207Y5751254D01*
X10264207Y5753336D01*
X10263976Y5755650D01*
X10263745Y5758196D01*
X10263282Y5761204D01*
X10262125Y5767683D01*
X10260274Y5774856D01*
X10257960Y5782029D01*
X10254720Y5789434D01*
X10254720Y5789665D01*
X10254257Y5790360D01*
X10253795Y5791285D01*
X10252869Y5792673D01*
X10251943Y5794293D01*
X10250786Y5796144D01*
X10247547Y5800309D01*
X10243613Y5805169D01*
X10238754Y5810028D01*
X10233201Y5814887D01*
X10226490Y5819284D01*
X10226259Y5819515D01*
X10225565Y5819747D01*
X10224639Y5820209D01*
X10223251Y5820904D01*
X10221399Y5821829D01*
X10219317Y5822755D01*
X10217003Y5823680D01*
X10214458Y5824837D01*
X10211449Y5825763D01*
X10208210Y5826688D01*
X10201037Y5828540D01*
X10193169Y5829696D01*
X10189236Y5830159D01*
X10189236Y5830159D02*
G37*
G36*
X7109718Y5875628D02*
X7106479Y5875628D01*
X7102776Y5875165D01*
X7097686Y5874240D01*
X7092132Y5872851D01*
X7086116Y5870537D01*
X7080100Y5867761D01*
X7074084Y5863596D01*
X7073158Y5863133D01*
X7070844Y5860819D01*
X7067605Y5857579D01*
X7063440Y5852951D01*
X7058349Y5847398D01*
X7053258Y5840456D01*
X7048630Y5832589D01*
X7044002Y5823796D01*
X7044002Y5823333D01*
X7043540Y5822407D01*
X7042614Y5820556D01*
X7041688Y5818705D01*
X7040763Y5815466D01*
X7039375Y5812226D01*
X7037986Y5808061D01*
X7036598Y5803896D01*
X7033358Y5793715D01*
X7029656Y5781682D01*
X7026416Y5768724D01*
X7023640Y5754378D01*
X7023640Y5753915D01*
X7023177Y5752526D01*
X7023177Y5750213D01*
X7022714Y5746973D01*
X7021789Y5742808D01*
X7021326Y5738180D01*
X7020863Y5732627D01*
X7019937Y5726610D01*
X7019475Y5719669D01*
X7018549Y5712264D01*
X7018086Y5704859D01*
X7017624Y5696529D01*
X7016698Y5678943D01*
X7016235Y5659969D01*
X7016235Y5659506D01*
X7016235Y5658118D01*
X7016235Y5655804D01*
X7016235Y5652564D01*
X7016698Y5648399D01*
X7016698Y5644234D01*
X7017161Y5639143D01*
X7017161Y5633590D01*
X7018086Y5621557D01*
X7019937Y5609062D01*
X7021789Y5596567D01*
X7024565Y5584997D01*
X7024565Y5584534D01*
X7025028Y5583609D01*
X7025491Y5582220D01*
X7025954Y5579907D01*
X7028268Y5574816D01*
X7031044Y5568337D01*
X7034284Y5560932D01*
X7038912Y5553065D01*
X7044002Y5545660D01*
X7050019Y5539181D01*
X7050944Y5538718D01*
X7053258Y5536867D01*
X7056498Y5534091D01*
X7061588Y5531314D01*
X7067605Y5528537D01*
X7074084Y5525760D01*
X7081951Y5523909D01*
X7090281Y5523446D01*
X7092595Y5523446D01*
X7094909Y5523909D01*
X7098149Y5523909D01*
X7101851Y5524835D01*
X7106016Y5525760D01*
X7110181Y5526686D01*
X7114809Y5528537D01*
X7115272Y5529000D01*
X7117123Y5529463D01*
X7119437Y5531314D01*
X7122676Y5533628D01*
X7126379Y5536404D01*
X7131007Y5540107D01*
X7135634Y5545197D01*
X7140262Y5550751D01*
X7140725Y5551676D01*
X7142576Y5553990D01*
X7144890Y5557693D01*
X7148130Y5562783D01*
X7151832Y5569725D01*
X7155997Y5578055D01*
X7160162Y5587311D01*
X7163865Y5598418D01*
X7163865Y5598881D01*
X7164327Y5599806D01*
X7164790Y5601658D01*
X7165716Y5603972D01*
X7166178Y5606748D01*
X7167567Y5609988D01*
X7168492Y5614153D01*
X7169418Y5618318D01*
X7172195Y5628036D01*
X7174509Y5639143D01*
X7176823Y5651176D01*
X7178674Y5663671D01*
X7178674Y5664134D01*
X7179137Y5665060D01*
X7179137Y5666911D01*
X7179599Y5669687D01*
X7180062Y5672464D01*
X7180525Y5676166D01*
X7180988Y5680332D01*
X7181450Y5684959D01*
X7182376Y5695141D01*
X7182839Y5706710D01*
X7183764Y5719206D01*
X7183764Y5732164D01*
X7183764Y5733089D01*
X7183764Y5735403D01*
X7183764Y5739106D01*
X7183302Y5744196D01*
X7183302Y5750213D01*
X7182839Y5757154D01*
X7181913Y5764559D01*
X7181450Y5772889D01*
X7178674Y5790475D01*
X7174971Y5808524D01*
X7172657Y5816854D01*
X7170344Y5825184D01*
X7167104Y5833052D01*
X7163402Y5839993D01*
X7163402Y5840456D01*
X7162476Y5841382D01*
X7161551Y5843233D01*
X7159699Y5845547D01*
X7155534Y5851100D01*
X7149055Y5858042D01*
X7141651Y5864521D01*
X7132395Y5870075D01*
X7127304Y5872389D01*
X7121751Y5874240D01*
X7115735Y5875165D01*
X7109718Y5875628D01*
X7109718Y5875628D02*
G37*
G36*
X7113652Y7284421D02*
X7110413Y7284421D01*
X7108099Y7283958D01*
X7105322Y7283958D01*
X7102083Y7283495D01*
X7094215Y7282107D01*
X7085885Y7279793D01*
X7077092Y7276554D01*
X7068299Y7271926D01*
X7060432Y7265447D01*
X7059506Y7264521D01*
X7057192Y7262207D01*
X7054415Y7258042D01*
X7050713Y7252489D01*
X7047011Y7246010D01*
X7044234Y7238142D01*
X7041920Y7228886D01*
X7040995Y7219168D01*
X7040995Y7218242D01*
X7040995Y7216391D01*
X7041457Y7213152D01*
X7041920Y7209449D01*
X7042846Y7204822D01*
X7044697Y7199731D01*
X7046548Y7194177D01*
X7049325Y7189087D01*
X7049788Y7188624D01*
X7050713Y7186773D01*
X7052564Y7184459D01*
X7055341Y7181682D01*
X7058580Y7178443D01*
X7062746Y7175203D01*
X7067373Y7171964D01*
X7072927Y7169187D01*
X7073853Y7168724D01*
X7075704Y7168261D01*
X7078943Y7167336D01*
X7083108Y7165947D01*
X7088199Y7164559D01*
X7093752Y7163633D01*
X7099769Y7163171D01*
X7106248Y7162708D01*
X7109487Y7162708D01*
X7111338Y7163171D01*
X7114115Y7163171D01*
X7117355Y7163633D01*
X7124296Y7165022D01*
X7132627Y7167336D01*
X7141420Y7170112D01*
X7149750Y7174740D01*
X7158080Y7180757D01*
X7158543Y7180757D01*
X7159005Y7181682D01*
X7161319Y7183996D01*
X7165022Y7188161D01*
X7168724Y7193252D01*
X7172426Y7200194D01*
X7176129Y7208524D01*
X7178443Y7217780D01*
X7179368Y7222870D01*
X7179368Y7227961D01*
X7179368Y7228424D01*
X7179368Y7228886D01*
X7179368Y7230275D01*
X7178905Y7232126D01*
X7178443Y7236754D01*
X7177054Y7242770D01*
X7175203Y7249249D01*
X7171964Y7255728D01*
X7167336Y7262670D01*
X7161319Y7268686D01*
X7160394Y7269149D01*
X7158080Y7271000D01*
X7154378Y7273777D01*
X7148824Y7276554D01*
X7141882Y7279330D01*
X7134015Y7282107D01*
X7124296Y7283958D01*
X7113652Y7284421D01*
X7113652Y7284421D02*
G37*
G36*
X7103008Y7050250D02*
X7099306Y7050250D01*
X7096529Y7049788D01*
X7093290Y7049788D01*
X7089587Y7049325D01*
X7081257Y7047936D01*
X7071539Y7045622D01*
X7061820Y7041920D01*
X7052101Y7037292D01*
X7043308Y7030813D01*
X7042383Y7029888D01*
X7040069Y7027111D01*
X7036367Y7022946D01*
X7032664Y7017392D01*
X7028962Y7009988D01*
X7025260Y7001195D01*
X7022946Y6991476D01*
X7022483Y6985923D01*
X7022020Y6980369D01*
X7022020Y6979444D01*
X7022020Y6977593D01*
X7022483Y6973890D01*
X7023409Y6969725D01*
X7024334Y6964635D01*
X7025723Y6959081D01*
X7028036Y6953528D01*
X7031276Y6947511D01*
X7031739Y6947049D01*
X7033127Y6945197D01*
X7035441Y6942421D01*
X7038218Y6938718D01*
X7042383Y6935016D01*
X7047011Y6931314D01*
X7052564Y6927611D01*
X7059043Y6924372D01*
X7059969Y6923909D01*
X7062283Y6922984D01*
X7065985Y6922058D01*
X7070613Y6920670D01*
X7076629Y6918819D01*
X7083108Y6917893D01*
X7090513Y6916967D01*
X7098380Y6916505D01*
X7102083Y6916505D01*
X7106248Y6916967D01*
X7111801Y6917430D01*
X7117817Y6918356D01*
X7124759Y6920207D01*
X7131701Y6922058D01*
X7138643Y6924835D01*
X7139568Y6925298D01*
X7141420Y6926223D01*
X7145122Y6928537D01*
X7148824Y6931314D01*
X7153452Y6934553D01*
X7158543Y6938718D01*
X7163171Y6943809D01*
X7167336Y6949825D01*
X7167798Y6950751D01*
X7169187Y6953065D01*
X7170575Y6956304D01*
X7172889Y6960932D01*
X7174740Y6966948D01*
X7176129Y6973428D01*
X7177517Y6980832D01*
X7177980Y6988700D01*
X7177980Y6989162D01*
X7177980Y6990088D01*
X7177980Y6991476D01*
X7177517Y6993327D01*
X7177054Y6998881D01*
X7175666Y7005360D01*
X7173352Y7012764D01*
X7169650Y7020169D01*
X7164559Y7027574D01*
X7161782Y7030813D01*
X7158080Y7034053D01*
X7157154Y7034978D01*
X7154378Y7036829D01*
X7149750Y7039143D01*
X7143733Y7042383D01*
X7135866Y7045160D01*
X7126610Y7047936D01*
X7115503Y7049788D01*
X7103008Y7050250D01*
X7103008Y7050250D02*
G37*
G36*
X5721057Y8669149D02*
X5720594Y8668686D01*
X5719669Y8667298D01*
X5718280Y8664984D01*
X5716429Y8661744D01*
X5714115Y8658042D01*
X5711339Y8653877D01*
X5708099Y8649249D01*
X5704860Y8644158D01*
X5697455Y8632589D01*
X5689588Y8621019D01*
X5682183Y8609912D01*
X5674778Y8599268D01*
X5674778Y8598805D01*
X5673853Y8598342D01*
X5672927Y8596954D01*
X5672002Y8595103D01*
X5668762Y8590475D01*
X5664597Y8584922D01*
X5660432Y8578905D01*
X5656267Y8572889D01*
X5652102Y8566873D01*
X5648399Y8562245D01*
X5586386Y8477092D01*
X5711801Y8477092D01*
X5721057Y8669149D01*
X5721057Y8669149D02*
G37*
%LPD*%
D10*
X5100000Y4600000D02*
X7200000Y4600000D01*
X7600000Y4600000D02*
G03*
X7200000Y4600000I-200000J0D01*
G01*
X7600000Y4600000D02*
X11800000Y4600000D01*
X12200000Y4600000D02*
G03*
X11800000Y4600000I-200000J0D01*
G01*
X12200000Y4600000D02*
X14300000Y4600000D01*
X14300000Y4600000D02*
G03*
X14800000Y5100000I0J500000D01*
G01*
X14800000Y5100000D02*
X14800000Y6200000D01*
X14800000Y6600000D02*
G03*
X14800000Y6200000I0J-200000D01*
G01*
X14800000Y6600000D02*
X14800000Y7600000D01*
X14800000Y8000000D02*
G03*
X14800000Y7600000I0J-200000D01*
G01*
X14800000Y8000000D02*
X14800000Y9000000D01*
X14800000Y9400000D02*
G03*
X14800000Y9000000I0J-200000D01*
G01*
X14800000Y9400000D02*
X14800000Y10500000D01*
X14800000Y10500000D02*
G03*
X14300000Y11000000I-500000J0D01*
G01*
X14300000Y11000000D02*
X12200000Y11000000D01*
X11800000Y11000000D02*
G03*
X12200000Y11000000I200000J0D01*
G01*
X12250000Y10600000D02*
G03*
X12000000Y10350000I0J-250000D01*
G01*
X12000000Y10350000D02*
G03*
X11750000Y10600000I-250000J0D01*
G01*
X11750000Y10600000D02*
X9850000Y10600000D01*
X9850000Y10600000D02*
G03*
X9600000Y10350000I0J-250000D01*
G01*
X9600000Y9450000D01*
X9600000Y9450000D02*
G03*
X9850000Y9200000I250000J0D01*
G01*
X9850000Y9200000D02*
X11750000Y9200000D01*
X11750000Y9200000D02*
G03*
X12000000Y9450000I0J250000D01*
G01*
X12000000Y9450000D02*
G03*
X12250000Y9200000I250000J0D01*
G01*
X12250000Y9200000D02*
G03*
X12000000Y8950000I0J-250000D01*
G01*
X12000000Y8950000D02*
G03*
X11750000Y9200000I-250000J0D01*
G01*
X11750000Y9400000D02*
G03*
X11800000Y9450000I0J50000D01*
G01*
X11800000Y10350000D01*
X11800000Y10350000D02*
G03*
X11750000Y10400000I-50000J0D01*
G01*
X11750000Y10400000D02*
X9850000Y10400000D01*
X9850000Y10400000D02*
G03*
X9800000Y10350000I0J-50000D01*
G01*
X9800000Y9450000D01*
X9800000Y9450000D02*
G03*
X9850000Y9400000I50000J0D01*
G01*
X11750000Y9400000D01*
X12000000Y9450000D02*
X12000000Y10350000D01*
X12250000Y10400000D02*
G03*
X12200000Y10350000I0J-50000D01*
G01*
X12200000Y9450000D01*
X12200000Y9450000D02*
G03*
X12250000Y9400000I50000J0D01*
G01*
X14150000Y9400000D01*
X14150000Y9400000D02*
G03*
X14200000Y9450000I0J50000D01*
G01*
X14200000Y10350000D01*
X14200000Y10350000D02*
G03*
X14150000Y10400000I-50000J0D01*
G01*
X14150000Y10400000D02*
X12250000Y10400000D01*
X12250000Y10600000D02*
X14150000Y10600000D01*
X14400000Y10350000D02*
G03*
X14150000Y10600000I-250000J0D01*
G01*
X14400000Y10350000D02*
X14400000Y9450000D01*
X14150000Y9200000D02*
G03*
X14400000Y9450000I0J250000D01*
G01*
X14400000Y8950000D02*
G03*
X14150000Y9200000I-250000J0D01*
G01*
X12250000Y9200000D01*
X12250000Y9000000D02*
G03*
X12200000Y8950000I0J-50000D01*
G01*
X12200000Y8050000D01*
X12200000Y8050000D02*
G03*
X12250000Y8000000I50000J0D01*
G01*
X14150000Y8000000D01*
X14150000Y8000000D02*
G03*
X14200000Y8050000I0J50000D01*
G01*
X14200000Y8950000D01*
X14200000Y8950000D02*
G03*
X14150000Y9000000I-50000J0D01*
G01*
X14150000Y9000000D02*
X12250000Y9000000D01*
X12000000Y8950000D02*
X12000000Y8049748D01*
X12000000Y8050000D02*
G03*
X12250000Y7800000I250000J0D01*
G01*
X14150000Y7800000D01*
X14400000Y7550000D02*
G03*
X14150000Y7800000I-250000J0D01*
G01*
X14150000Y7800000D02*
G03*
X14400000Y8050000I0J250000D01*
G01*
X14400000Y8950000D01*
X14200000Y7550000D02*
G03*
X14150000Y7600000I-50000J0D01*
G01*
X14150000Y7600000D02*
X12250000Y7600000D01*
X12250000Y7600000D02*
G03*
X12200000Y7550000I0J-50000D01*
G01*
X12200000Y6650000D01*
X12200000Y6650000D02*
G03*
X12250000Y6600000I50000J0D01*
G01*
X14150000Y6600000D01*
X14150000Y6600000D02*
G03*
X14200000Y6650000I0J50000D01*
G01*
X14200000Y7550000D01*
X14400000Y7550000D02*
X14400000Y6650000D01*
X14150000Y6400000D02*
G03*
X14400000Y6650000I0J250000D01*
G01*
X14400000Y6150000D02*
G03*
X14150000Y6400000I-250000J0D01*
G01*
X12250000Y6400000D01*
X12000000Y6650000D02*
G03*
X12250000Y6400000I250000J0D01*
G01*
X12250000Y6400000D02*
G03*
X12000000Y6150000I0J-250000D01*
G01*
X12000000Y6150000D02*
G03*
X11750000Y6400000I-250000J0D01*
G01*
X11750000Y6400000D02*
G03*
X12000000Y6650000I0J250000D01*
G01*
X12000000Y6650000D02*
X12000000Y7550000D01*
X12000000Y7550000D02*
G03*
X11750000Y7800000I-250000J0D01*
G01*
X11750000Y7800000D02*
G03*
X12000000Y8050000I0J250000D01*
G01*
X11800000Y8050000D02*
X11800000Y8950000D01*
X11800000Y8950000D02*
G03*
X11750000Y9000000I-50000J0D01*
G01*
X11750000Y9000000D02*
X9850000Y9000000D01*
X9850000Y9000000D02*
G03*
X9800000Y8950000I0J-50000D01*
G01*
X9800000Y8050000D01*
X9800000Y8050000D02*
G03*
X9850000Y8000000I50000J0D01*
G01*
X11750000Y8000000D01*
X11750000Y8000000D02*
G03*
X11800000Y8050000I0J50000D01*
G01*
X11750000Y7800000D02*
X9850000Y7800000D01*
X9850000Y7800000D02*
G03*
X9600000Y7550000I0J-250000D01*
G01*
X9600000Y6650000D01*
X9600000Y6650000D02*
G03*
X9850000Y6400000I250000J0D01*
G01*
X9850000Y6400000D02*
G03*
X9600000Y6150000I0J-250000D01*
G01*
X9600000Y6150000D02*
X9600000Y5250000D01*
X9600000Y5250000D02*
G03*
X9850000Y5000000I250000J0D01*
G01*
X11750000Y5000000D01*
X11750000Y5000000D02*
G03*
X12000000Y5250000I0J250000D01*
G01*
X12000000Y5250000D02*
G03*
X12250000Y5000000I250000J0D01*
G01*
X14150000Y5000000D01*
X14150000Y5000000D02*
G03*
X14400000Y5250000I0J250000D01*
G01*
X14400000Y5250000D02*
X14400000Y6150000D01*
X14200000Y6150000D02*
G03*
X14150000Y6200000I-50000J0D01*
G01*
X14150000Y6200000D02*
X12250000Y6200000D01*
X12250000Y6200000D02*
G03*
X12200000Y6150000I0J-50000D01*
G01*
X12200000Y5250000D01*
X12200000Y5250000D02*
G03*
X12250000Y5200000I50000J0D01*
G01*
X14150000Y5200000D01*
X14150000Y5200000D02*
G03*
X14200000Y5250000I0J50000D01*
G01*
X14200000Y6150000D01*
X12250000Y7800000D02*
G03*
X12000000Y7550000I0J-250000D01*
G01*
X11800000Y7550000D02*
G03*
X11750000Y7600000I-50000J0D01*
G01*
X11750000Y7600000D02*
X9850000Y7600000D01*
X9850000Y7600000D02*
G03*
X9800000Y7550000I0J-50000D01*
G01*
X9800000Y6650000D01*
X9800000Y6650000D02*
G03*
X9850000Y6600000I50000J0D01*
G01*
X11750000Y6600000D01*
X11750000Y6600000D02*
G03*
X11800000Y6650000I0J50000D01*
G01*
X11800000Y7550000D01*
X11750000Y6400000D02*
X9850000Y6400000D01*
X9850000Y6200000D02*
G03*
X9800000Y6150000I0J-50000D01*
G01*
X9800000Y5250000D01*
X9800000Y5250000D02*
G03*
X9850000Y5200000I50000J0D01*
G01*
X11750000Y5200000D01*
X11750000Y5200000D02*
G03*
X11800000Y5250000I0J50000D01*
G01*
X11800000Y6150000D01*
X11800000Y6150000D02*
G03*
X11750000Y6200000I-50000J0D01*
G01*
X11750000Y6200000D02*
X9850000Y6200000D01*
X9200000Y6650000D02*
X9200000Y7550000D01*
X9200000Y7550000D02*
G03*
X8950000Y7800000I-250000J0D01*
G01*
X8950000Y7800000D02*
X8050000Y7800000D01*
X7800000Y8050000D02*
G03*
X8050000Y7800000I250000J0D01*
G01*
X8050000Y7800000D02*
G03*
X7800000Y7550000I0J-250000D01*
G01*
X7800000Y7550000D02*
G03*
X7550000Y7800000I-250000J0D01*
G01*
X6650000Y7800000D01*
X6400000Y8050000D02*
G03*
X6650000Y7800000I250000J0D01*
G01*
X6650000Y7800000D02*
G03*
X6400000Y7550000I0J-250000D01*
G01*
X6400000Y6650000D01*
X6400000Y6650000D02*
G03*
X6650000Y6400000I250000J0D01*
G01*
X7550000Y6400000D01*
X7800000Y6150000D02*
G03*
X7550000Y6400000I-250000J0D01*
G01*
X7550000Y6400000D02*
G03*
X7800000Y6650000I0J250000D01*
G01*
X7800000Y7550000D01*
X7600000Y7550000D02*
G03*
X7550000Y7600000I-50000J0D01*
G01*
X6650000Y7600000D01*
X6650000Y7600000D02*
G03*
X6600000Y7550000I0J-50000D01*
G01*
X6600000Y6650000D01*
X6600000Y6650000D02*
G03*
X6650000Y6600000I50000J0D01*
G01*
X7550000Y6600000D01*
X7550000Y6600000D02*
G03*
X7600000Y6650000I0J50000D01*
G01*
X7600000Y7550000D01*
X8050000Y7600000D02*
G03*
X8000000Y7550000I0J-50000D01*
G01*
X8000000Y6650000D01*
X8000000Y6650000D02*
G03*
X8050000Y6600000I50000J0D01*
G01*
X8950000Y6600000D01*
X8950000Y6600000D02*
G03*
X9000000Y6650000I0J50000D01*
G01*
X9000000Y7550000D01*
X9000000Y7550000D02*
G03*
X8950000Y7600000I-50000J0D01*
G01*
X8050000Y7600000D01*
X8050000Y8000000D02*
X8950000Y8000000D01*
X8950000Y8000000D02*
G03*
X9000000Y8050000I0J50000D01*
G01*
X9000000Y8950000D01*
X9000000Y8950000D02*
G03*
X8950000Y9000000I-50000J0D01*
G01*
X8050000Y9000000D01*
X8050000Y9000000D02*
G03*
X8000000Y8950000I0J-50000D01*
G01*
X8000000Y8050000D01*
X8000000Y8050000D02*
G03*
X8050000Y8000000I50000J0D01*
G01*
X7800000Y8050000D02*
X7800000Y8950000D01*
X7800000Y8950000D02*
G03*
X7550000Y9200000I-250000J0D01*
G01*
X7550000Y9200000D02*
G03*
X7800000Y9450000I0J250000D01*
G01*
X7800000Y9450000D02*
G03*
X8050000Y9200001I250000J0D01*
G01*
X8050000Y9200000D02*
G03*
X7800000Y8950000I0J-250000D01*
G01*
X7600000Y8950000D02*
G03*
X7550000Y9000000I-50000J0D01*
G01*
X6650000Y9000000D01*
X6650000Y9000000D02*
G03*
X6600000Y8950000I0J-50000D01*
G01*
X6600000Y8050000D01*
X6600000Y8050000D02*
G03*
X6650000Y8000000I50000J0D01*
G01*
X7550000Y8000000D01*
X7550000Y8000000D02*
G03*
X7600000Y8050000I0J50000D01*
G01*
X7600000Y8950000D01*
X8050000Y9200000D02*
X8950000Y9200000D01*
X8950000Y9200000D02*
G03*
X9200000Y9450000I0J250000D01*
G01*
X9200000Y10350000D01*
X9200000Y10350000D02*
G03*
X8950000Y10600001I-250000J0D01*
G01*
X8950000Y10600000D02*
X8050000Y10600000D01*
X8050000Y10600000D02*
G03*
X7800000Y10350000I0J-250000D01*
G01*
X7800000Y10350000D02*
G03*
X7550000Y10600000I-250000J0D01*
G01*
X6650000Y10600000D01*
X6650000Y10600000D02*
G03*
X6400000Y10350000I0J-250000D01*
G01*
X6400000Y10350000D02*
G03*
X6150000Y10600000I-250000J0D01*
G01*
X5250000Y10600000D01*
X5250000Y10600000D02*
G03*
X5000000Y10350000I0J-250000D01*
G01*
X5000000Y10350000D02*
X5000000Y9450000D01*
X5000000Y9450000D02*
G03*
X5250000Y9200000I250000J0D01*
G01*
X5250000Y9200000D02*
G03*
X5000000Y8950000I0J-250000D01*
G01*
X5000000Y8050000D01*
X5000000Y8050000D02*
G03*
X5250000Y7800000I250000J0D01*
G01*
X5250000Y7800000D02*
G03*
X5000000Y7550000I0J-250000D01*
G01*
X5000000Y6650000D01*
X5000000Y6650000D02*
G03*
X5250000Y6400000I250000J0D01*
G01*
X5250000Y6400000D02*
G03*
X5000000Y6150000I0J-250000D01*
G01*
X5000000Y6150000D02*
X5000000Y5250000D01*
X5000000Y5250000D02*
G03*
X5250000Y5000000I250000J0D01*
G01*
X6150000Y5000000D01*
X6150000Y5000000D02*
G03*
X6400000Y5250000I0J250000D01*
G01*
X6400000Y5250000D02*
G03*
X6650000Y5000000I250000J0D01*
G01*
X6650000Y5000000D02*
X7550000Y5000000D01*
X7550000Y5000000D02*
G03*
X7800000Y5250000I0J250000D01*
G01*
X7800000Y6150000D01*
X8050000Y6400000D02*
G03*
X7800000Y6150000I0J-250000D01*
G01*
X7600000Y6150000D02*
G03*
X7550000Y6200000I-50000J0D01*
G01*
X6650000Y6200000D01*
X6650000Y6200000D02*
G03*
X6600000Y6150000I0J-50000D01*
G01*
X6600000Y5250000D01*
X6600000Y5250000D02*
G03*
X6650000Y5200000I50000J0D01*
G01*
X7550000Y5200000D01*
X7550000Y5200000D02*
G03*
X7600000Y5250000I0J50000D01*
G01*
X7600000Y6150000D01*
X8050000Y6200000D02*
G03*
X8000000Y6150000I0J-50000D01*
G01*
X8000000Y5250000D01*
X8000000Y5250000D02*
G03*
X8050000Y5200000I50000J0D01*
G01*
X8950000Y5200000D01*
X8950000Y5200000D02*
G03*
X9000000Y5250000I0J50000D01*
G01*
X9000000Y6150000D01*
X9000000Y6150000D02*
G03*
X8950000Y6200000I-50000J0D01*
G01*
X8050000Y6200000D01*
X8050000Y6400000D02*
X8950000Y6400000D01*
X9200000Y6150000D02*
G03*
X8950000Y6400000I-250000J0D01*
G01*
X8950000Y6400000D02*
G03*
X9200000Y6650000I0J250000D01*
G01*
X9200000Y6150000D02*
X9200000Y5250000D01*
X8950000Y5000000D02*
G03*
X9200000Y5250000I0J250000D01*
G01*
X8950000Y5000000D02*
X8050000Y5000000D01*
X7800000Y5250000D02*
G03*
X8050000Y5000000I250000J0D01*
G01*
X7800000Y6650000D02*
G03*
X8050000Y6400000I250000J0D01*
G01*
X8950000Y7800000D02*
G03*
X9200000Y8050000I0J250000D01*
G01*
X9200000Y8950000D01*
X9200000Y8950000D02*
G03*
X8950000Y9200000I-250000J0D01*
G01*
X8950000Y9400000D02*
G03*
X9000000Y9450000I0J50000D01*
G01*
X9000000Y10350000D01*
X9000000Y10350000D02*
G03*
X8950000Y10400000I-50000J0D01*
G01*
X8050000Y10400000D01*
X8050000Y10400000D02*
G03*
X8000000Y10350000I0J-50000D01*
G01*
X8000000Y9450000D01*
X8000000Y9450000D02*
G03*
X8050000Y9400000I50000J0D01*
G01*
X8950000Y9400000D01*
X9850000Y9200000D02*
G03*
X9600000Y8950000I0J-250000D01*
G01*
X9600000Y8050000D01*
X9600000Y8050000D02*
G03*
X9850000Y7800000I250000J0D01*
G01*
X12000000Y6150000D02*
X12000000Y5250000D01*
X7800000Y9450000D02*
X7800000Y10350000D01*
X7600000Y10350000D02*
G03*
X7550000Y10400000I-50000J0D01*
G01*
X6650000Y10400000D01*
X6650000Y10400000D02*
G03*
X6600000Y10350000I0J-50000D01*
G01*
X6600000Y9450000D01*
X6600000Y9450000D02*
G03*
X6650000Y9400000I50000J0D01*
G01*
X7550000Y9400000D01*
X7550000Y9400000D02*
G03*
X7600000Y9450000I0J50000D01*
G01*
X7600000Y10350000D01*
X7550000Y9200000D02*
X6650000Y9200000D01*
X6400000Y9450000D02*
G03*
X6650000Y9200000I250000J0D01*
G01*
X6650000Y9200000D02*
G03*
X6400000Y8950000I0J-250000D01*
G01*
X6400000Y8950000D02*
G03*
X6150000Y9200000I-250000J0D01*
G01*
X6150000Y9200000D02*
G03*
X6400000Y9450000I0J250000D01*
G01*
X6400000Y9450000D02*
X6400000Y10350000D01*
X6200000Y10350000D02*
G03*
X6150000Y10400000I-50000J0D01*
G01*
X5250000Y10400000D01*
X5250000Y10400000D02*
G03*
X5200000Y10350000I0J-50000D01*
G01*
X5200000Y9450000D01*
X5200000Y9450000D02*
G03*
X5250000Y9400000I50000J0D01*
G01*
X6150000Y9400000D01*
X6150000Y9400000D02*
G03*
X6200000Y9450000I0J50000D01*
G01*
X6200000Y10350000D01*
X6150000Y9200000D02*
X5250000Y9200000D01*
X5250000Y9000000D02*
G03*
X5200000Y8950000I0J-50000D01*
G01*
X5200000Y8050000D01*
X5200000Y8050000D02*
G03*
X5250000Y8000000I50000J0D01*
G01*
X6150000Y8000000D01*
X6150000Y8000000D02*
G03*
X6200000Y8050000I0J50000D01*
G01*
X6200000Y8950000D01*
X6200000Y8950000D02*
G03*
X6150000Y9000000I-50000J0D01*
G01*
X5250000Y9000000D01*
X4600000Y9000000D02*
G03*
X4600000Y9400000I0J200000D01*
G01*
X4600000Y9400000D02*
X4600000Y10500000D01*
X5100000Y11000000D02*
G03*
X4600000Y10500000I0J-500000D01*
G01*
X5100000Y11000000D02*
X7200000Y11000000D01*
X7200000Y11000000D02*
G03*
X7600000Y11000000I200000J0D01*
G01*
X11800000Y11000000D01*
X12200000Y11800000D02*
X12200000Y11900000D01*
X12200000Y12400000D01*
X12300000Y12500000D02*
G03*
X12200000Y12400000I0J-100000D01*
G01*
X12300000Y12500000D02*
X14100000Y12500000D01*
X14200000Y12400000D02*
G03*
X14100000Y12500000I-100000J0D01*
G01*
X14200000Y12400000D02*
X14200000Y11900000D01*
X14800000Y11900000D02*
X4600000Y11900000D01*
X4600000Y11800000D01*
X14800000Y11800000D01*
X14800000Y11900000D01*
X11800000Y12400000D02*
G03*
X11700000Y12500000I-100000J0D01*
G01*
X9900000Y12500000D01*
X9900000Y12500000D02*
G03*
X9800000Y12400000I0J-100000D01*
G01*
X9800000Y11900000D01*
X9000000Y12400000D02*
G03*
X8900000Y12500000I-100000J0D01*
G01*
X8100000Y12500000D01*
X8100000Y12500000D02*
G03*
X8000000Y12400000I0J-100000D01*
G01*
X8000000Y11900000D01*
X7600000Y12400000D02*
G03*
X7500000Y12500000I-100000J0D01*
G01*
X6700000Y12500000D01*
X6700000Y12500000D02*
G03*
X6600000Y12400000I0J-100000D01*
G01*
X6600000Y11900000D01*
X6200000Y12400000D02*
G03*
X6100000Y12500000I-100000J0D01*
G01*
X5300000Y12500000D01*
X5300000Y12500000D02*
G03*
X5200000Y12400000I0J-100000D01*
G01*
X5200000Y11900000D01*
X6200000Y11900000D02*
X6200000Y12400000D01*
X7200000Y11900000D02*
X7200000Y11800000D01*
X7600000Y11800000D02*
X7600000Y11900000D01*
X7600000Y12400000D01*
X9000000Y11900000D02*
X9000000Y12400000D01*
X10600000Y14400000D02*
X10100000Y14400000D01*
X9600000Y14900000D01*
X9600000Y14600000D01*
X8000000Y14600000D01*
X8000000Y14900000D01*
X8000000Y14900000D02*
X7500000Y14400000D01*
X7000000Y14400000D01*
X7400000Y14600000D02*
X7800000Y15000000D01*
X7800000Y15600000D01*
X8000000Y15800000D02*
G03*
X7800000Y15600000I0J-200000D01*
G01*
X8000000Y15800000D02*
X9600000Y15800000D01*
X9800000Y15600000D02*
G03*
X9600000Y15800000I-200000J0D01*
G01*
X9800000Y15600000D02*
X9800000Y15000000D01*
X10200000Y14600000D01*
X10600000Y14600000D01*
X9600000Y14700000D02*
X8000000Y14700000D01*
X7400000Y14600000D02*
X7000000Y14600000D01*
X11800000Y11900000D02*
X11800000Y12400000D01*
X11800000Y11900000D02*
X11800000Y11800000D01*
X7550000Y7800000D02*
G03*
X7800000Y8050000I0J250000D01*
G01*
X6400000Y8950000D02*
X6400000Y8050000D01*
X6150000Y7800000D02*
G03*
X6400000Y8050000I0J250000D01*
G01*
X6400000Y7550000D02*
G03*
X6150000Y7800000I-250000J0D01*
G01*
X5250000Y7800000D01*
X5250000Y7600000D02*
G03*
X5200000Y7550000I0J-50000D01*
G01*
X5200000Y6650000D01*
X5200000Y6650000D02*
G03*
X5250000Y6600000I50000J0D01*
G01*
X6150000Y6600000D01*
X6150000Y6600000D02*
G03*
X6200000Y6650000I0J50000D01*
G01*
X6200000Y7550000D01*
X6200000Y7550000D02*
G03*
X6150000Y7600000I-50000J0D01*
G01*
X5250000Y7600000D01*
X4600000Y8000000D02*
X4600000Y9000000D01*
X4600000Y7600000D02*
G03*
X4600000Y8000000I0J200000D01*
G01*
X4600000Y7600000D02*
X4600000Y6600000D01*
X4600000Y6200000D02*
G03*
X4600000Y6600000I0J200000D01*
G01*
X4600000Y6200000D02*
X4600000Y5100000D01*
X4600000Y5100000D02*
G03*
X5100000Y4600000I500000J0D01*
G01*
X5200000Y5250000D02*
G03*
X5250000Y5200000I50000J0D01*
G01*
X6150000Y5200000D01*
X6150000Y5200000D02*
G03*
X6200000Y5250000I0J50000D01*
G01*
X6200000Y6150000D01*
X6200000Y6150000D02*
G03*
X6150000Y6200000I-50000J0D01*
G01*
X5250000Y6200000D01*
X5250000Y6200000D02*
G03*
X5200000Y6150000I0J-50000D01*
G01*
X5200000Y5250000D01*
X6400000Y5250000D02*
X6400000Y6150000D01*
X6400000Y6150000D02*
G03*
X6150000Y6400000I-250000J0D01*
G01*
X5250000Y6400000D01*
X6150000Y6400000D02*
G03*
X6400000Y6650000I0J250000D01*
G01*
X6650000Y6400000D02*
G03*
X6400000Y6150000I0J-250000D01*
G01*
D11*
X9600000Y6400000D02*
G03*
X9600000Y6400000I-200000J0D01*
G01*
X9600000Y7800000D02*
G03*
X9600000Y7800000I-200000J0D01*
G01*
X9600000Y9200000D02*
G03*
X9600000Y9200000I-200000J0D01*
G01*
D12*
X10600000Y6800000D02*
X11000000Y6800000D01*
X11000000Y6800000D02*
X11000000Y7100000D01*
X11000000Y7100000D02*
X10600000Y7100000D01*
X10600000Y7100000D02*
X10600000Y6800000D01*
X10650000Y7100000D02*
X10650000Y7200000D01*
X10950000Y7200000D02*
G03*
X10650000Y7200000I-150000J0D01*
G01*
X10950000Y7100000D02*
X10950000Y7200000D01*
D13*
X8200000Y5600000D02*
X8400000Y5400000D01*
X8400000Y5800000D02*
X8200000Y5600000D01*
X8700000Y5600000D01*
X8700000Y5900000D01*
D14*
X8800000Y14650000D02*
D03*
M02*
