%TF.GenerationSoftware,Altium Limited,Altium Designer,25.3.3 (18)*%
G04 Layer_Physical_Order=4*
G04 Layer_Color=16776960*
%FSLAX45Y45*%
%MOMM*%
%TF.SameCoordinates,6C4DDBA2-F481-4B1E-A352-F181FF77F2E2*%
%TF.FilePolarity,Positive*%
%TF.FileFunction,Copper,L4,Bot,Signal*%
%TF.Part,Single*%
G01*
G75*
%TA.AperFunction,Conductor*%
%ADD10C,0.20000*%
%ADD48C,0.15000*%
%TA.AperFunction,ComponentPad*%
%ADD54C,1.50000*%
%ADD55C,2.00000*%
%ADD56R,2.40000X1.70000*%
%ADD57O,2.40000X1.70000*%
%ADD58C,4.00000*%
%ADD59O,2.44000X3.60000*%
%TA.AperFunction,ViaPad*%
%ADD60C,10.00000*%
%ADD61C,0.60000*%
%TA.AperFunction,SMDPad,CuDef*%
%ADD62R,3.30000X2.40000*%
G36*
X9385149Y7674028D02*
X9441004Y7662917D01*
X9495499Y7646386D01*
X9548115Y7624592D01*
X9598337Y7597748D01*
X9645689Y7566108D01*
X9689710Y7529981D01*
X9729980Y7489711D01*
X9766108Y7445689D01*
X9797747Y7398337D01*
X9824592Y7348115D01*
X9846386Y7295500D01*
X9862917Y7241002D01*
X9874027Y7185149D01*
X9879609Y7128475D01*
X9879609Y7100000D01*
Y5864139D01*
X9876344Y5854092D01*
X9870499Y5838247D01*
X9864036Y5822644D01*
X9856966Y5807308D01*
X9849299Y5792260D01*
X9841047Y5777525D01*
X9832223Y5763126D01*
X9822840Y5749083D01*
X9812914Y5735421D01*
X9802458Y5722158D01*
X9791490Y5709316D01*
X9780026Y5696915D01*
X9768085Y5684973D01*
X9755683Y5673509D01*
X9742842Y5662541D01*
X9729579Y5652086D01*
X9715916Y5642159D01*
X9701874Y5632777D01*
X9687474Y5623953D01*
X9672740Y5615701D01*
X9657692Y5608033D01*
X9642355Y5600963D01*
X9626752Y5594500D01*
X9610908Y5588655D01*
X9594846Y5583436D01*
X9578592Y5578852D01*
X9562171Y5574910D01*
X9545607Y5571615D01*
X9528927Y5568973D01*
X9512155Y5566988D01*
X9495319Y5565663D01*
X9478444Y5565000D01*
X9042500Y5565000D01*
Y5565000D01*
X9034057Y5564916D01*
X9017186Y5564254D01*
X9000353Y5562929D01*
X8983585Y5560944D01*
X8966908Y5558303D01*
X8950347Y5555009D01*
X8933929Y5551067D01*
X8917678Y5546484D01*
X8901619Y5541266D01*
X8885778Y5535422D01*
X8870178Y5528960D01*
X8854844Y5521891D01*
X8839800Y5514226D01*
X8825068Y5505975D01*
X8810671Y5497153D01*
X8796632Y5487772D01*
X8782972Y5477848D01*
X8769711Y5467394D01*
X8756872Y5456428D01*
X8744473Y5444967D01*
X8732533Y5433027D01*
X8721072Y5420628D01*
X8710106Y5407789D01*
X8699653Y5394529D01*
X8689728Y5380869D01*
X8680347Y5366829D01*
X8671525Y5352433D01*
X8663275Y5337701D01*
X8655609Y5322656D01*
X8648540Y5307322D01*
X8642078Y5291722D01*
X8636234Y5275881D01*
X8631017Y5259822D01*
X8626433Y5243571D01*
X8622492Y5227153D01*
X8619197Y5210593D01*
X8616556Y5193915D01*
X8614571Y5177148D01*
X8613247Y5160315D01*
X8612584Y5143443D01*
X8612501Y5135000D01*
X8612500Y3030000D01*
X8612599Y3020788D01*
X8613388Y3002383D01*
X8614965Y2984027D01*
X8617326Y2965757D01*
X8620468Y2947604D01*
X8624385Y2929602D01*
X8629069Y2911785D01*
X8634513Y2894184D01*
X8640704Y2876833D01*
X8647634Y2859763D01*
X8655288Y2843006D01*
X8663653Y2826592D01*
X8672714Y2810551D01*
X8682453Y2794913D01*
X8692853Y2779706D01*
X8703895Y2764959D01*
X8715559Y2750699D01*
X8727823Y2736951D01*
X8740664Y2723741D01*
X8754059Y2711093D01*
X8767984Y2699031D01*
X8782412Y2687576D01*
X8797319Y2676749D01*
X8812675Y2666572D01*
X8828453Y2657061D01*
X8844624Y2648234D01*
X8861158Y2640109D01*
X8878025Y2632699D01*
X8895194Y2626019D01*
X8912633Y2620080D01*
X8930311Y2614893D01*
X8948194Y2610469D01*
X8966251Y2606814D01*
X8984448Y2603937D01*
X9002751Y2601841D01*
X9021128Y2600532D01*
X9028587Y2600240D01*
X9030332Y2600172D01*
X9037726Y2599963D01*
X9037829Y2599960D01*
X9037830Y2599959D01*
X9037830Y2599959D01*
X9037836Y2599959D01*
X9047043Y2599273D01*
X9050751Y2598846D01*
X9059230Y2597116D01*
X9067527Y2594660D01*
X9075582Y2591497D01*
X9083333Y2587650D01*
X9090723Y2583148D01*
X9097696Y2578024D01*
X9104201Y2572317D01*
X9110189Y2566070D01*
X9115614Y2559329D01*
X9120438Y2552144D01*
X9124622Y2544569D01*
X9128137Y2536662D01*
X9130955Y2528481D01*
X9133057Y2520086D01*
X9134425Y2511542D01*
X9135051Y2502911D01*
X9134928Y2494258D01*
X9134059Y2485649D01*
X9132449Y2477146D01*
X9130111Y2468815D01*
X9127062Y2460716D01*
X9123325Y2452912D01*
X9118928Y2445459D01*
X9113903Y2438413D01*
X9108289Y2431828D01*
X9102127Y2425753D01*
X9095463Y2420232D01*
X9088348Y2415308D01*
X9080833Y2411017D01*
X9072976Y2407391D01*
X9064836Y2404456D01*
X9056472Y2402236D01*
X9047947Y2400747D01*
X9039326Y2400000D01*
X8735000D01*
X8735000Y2400000D01*
X8730477Y2399948D01*
X8721440Y2399540D01*
X8712430Y2398722D01*
X8703467Y2397498D01*
X8694568Y2395870D01*
X8685753Y2393842D01*
X8677037Y2391416D01*
X8668441Y2388599D01*
X8659980Y2385397D01*
X8651673Y2381815D01*
X8643537Y2377861D01*
X8635588Y2373543D01*
X8631688Y2371250D01*
X8631688Y2371250D01*
X8627814Y2368913D01*
X8619863Y2364594D01*
X8611724Y2360639D01*
X8603415Y2357056D01*
X8594952Y2353852D01*
X8586353Y2351035D01*
X8577636Y2348609D01*
X8568818Y2346579D01*
X8559917Y2344951D01*
X8550951Y2343727D01*
X8541940Y2342909D01*
X8532900Y2342500D01*
X6835000D01*
Y2342500D01*
X6829391Y2342421D01*
X6818190Y2341792D01*
X6807042Y2340536D01*
X6795982Y2338657D01*
X6785045Y2336160D01*
X6774265Y2333055D01*
X6763676Y2329349D01*
X6753311Y2325056D01*
X6743204Y2320189D01*
X6733385Y2314762D01*
X6723886Y2308794D01*
X6714737Y2302302D01*
X6705966Y2295307D01*
X6697601Y2287832D01*
X6689668Y2279899D01*
X6682193Y2271534D01*
X6675198Y2262763D01*
X6668706Y2253614D01*
X6662738Y2244115D01*
X6657311Y2234296D01*
X6652444Y2224189D01*
X6648151Y2213824D01*
X6644445Y2203235D01*
X6641340Y2192455D01*
X6638843Y2181518D01*
X6636964Y2170458D01*
X6635708Y2159310D01*
X6635079Y2148109D01*
X6635000Y2142500D01*
X6635000Y1980000D01*
X6635089Y1971522D01*
X6635799Y1954581D01*
X6637217Y1937685D01*
X6639341Y1920863D01*
X6642167Y1904145D01*
X6645691Y1887560D01*
X6649905Y1871136D01*
X6654804Y1854904D01*
X6660377Y1838891D01*
X6666616Y1823125D01*
X6673510Y1807634D01*
X6681045Y1792445D01*
X6689210Y1777585D01*
X6697990Y1763080D01*
X6707369Y1748955D01*
X6717331Y1735235D01*
X6727859Y1721944D01*
X6738933Y1709105D01*
X6750536Y1696741D01*
X6762646Y1684873D01*
X6768884Y1679132D01*
Y1679132D01*
X6772773Y1675628D01*
X6780173Y1668222D01*
X6787176Y1660439D01*
X6793762Y1652301D01*
X6799914Y1643829D01*
X6805613Y1635047D01*
X6810846Y1625979D01*
X6815597Y1616649D01*
X6819853Y1607084D01*
X6823603Y1597309D01*
X6826837Y1587352D01*
X6829546Y1577239D01*
X6831721Y1566998D01*
X6833358Y1556657D01*
X6834452Y1546245D01*
X6835000Y1535790D01*
X6835000Y1294389D01*
X6834371Y1283183D01*
X6833114Y1272031D01*
X6831234Y1260967D01*
X6828737Y1250025D01*
X6825630Y1239241D01*
X6821923Y1228648D01*
X6817629Y1218279D01*
X6812759Y1208168D01*
X6807331Y1198345D01*
X6801360Y1188842D01*
X6794865Y1179689D01*
X6787868Y1170915D01*
X6780389Y1162547D01*
X6772454Y1154611D01*
X6764085Y1147132D01*
X6755311Y1140135D01*
X6746158Y1133641D01*
X6736655Y1127670D01*
X6726833Y1122241D01*
X6716721Y1117371D01*
X6706353Y1113077D01*
X6695759Y1109370D01*
X6684975Y1106263D01*
X6674033Y1103766D01*
X6662969Y1101886D01*
X6651817Y1100629D01*
X6640612Y1100000D01*
X6360000D01*
X6348547Y1099906D01*
X6325653Y1099157D01*
X6302795Y1097659D01*
X6279999Y1095413D01*
X6257288Y1092424D01*
X6234688Y1088692D01*
X6212222Y1084223D01*
X6189914Y1079022D01*
X6167788Y1073093D01*
X6145868Y1066444D01*
X6124177Y1059081D01*
X6102739Y1051012D01*
X6081576Y1042246D01*
X6060711Y1032792D01*
X6040167Y1022661D01*
X6019965Y1011863D01*
X6000128Y1000410D01*
X5980676Y988314D01*
X5961630Y975588D01*
X5943010Y962245D01*
X5924837Y948301D01*
X5907130Y933769D01*
X5889908Y918666D01*
X5873190Y903007D01*
X5856993Y886810D01*
X5841334Y870091D01*
X5826231Y852869D01*
X5811699Y835162D01*
X5797754Y816989D01*
X5784412Y798370D01*
X5771686Y779324D01*
X5759590Y759872D01*
X5748137Y740034D01*
X5737339Y719833D01*
X5727207Y699288D01*
X5717754Y678424D01*
X5708988Y657261D01*
X5700919Y635823D01*
X5693556Y614132D01*
X5686907Y592212D01*
X5680978Y570086D01*
X5675776Y547778D01*
X5671307Y525312D01*
X5667576Y502711D01*
X5664586Y480001D01*
X5662341Y457205D01*
X5660843Y434347D01*
X5660093Y411453D01*
X5660000Y400000D01*
Y96071D01*
X5659383Y88237D01*
X5658154Y80476D01*
X5656319Y72835D01*
X5653891Y65362D01*
X5650884Y58102D01*
X5647317Y51100D01*
X5643211Y44400D01*
X5638592Y38043D01*
X5633489Y32068D01*
X5627932Y26511D01*
X5621957Y21408D01*
X5620556Y20390D01*
X600000Y20390D01*
X571524Y20390D01*
X514851Y25972D01*
X458995Y37082D01*
X404500Y53613D01*
X351885Y75407D01*
X301663Y102251D01*
X254311Y133891D01*
X210289Y170018D01*
X170019Y210288D01*
X133892Y254310D01*
X102252Y301662D01*
X75408Y351884D01*
X53614Y404500D01*
X37082Y458997D01*
X25972Y514850D01*
X20390Y571524D01*
Y599999D01*
X20390Y7099999D01*
X20390Y7128475D01*
X25972Y7185148D01*
X37082Y7241004D01*
X53613Y7295499D01*
X75407Y7348114D01*
X102252Y7398336D01*
X133891Y7445688D01*
X170019Y7489710D01*
X210288Y7529980D01*
X254310Y7566107D01*
X301662Y7597747D01*
X351884Y7624591D01*
X404500Y7646385D01*
X458997Y7662917D01*
X514851Y7674027D01*
X571524Y7679608D01*
X600000Y7679609D01*
X9299999Y7679609D01*
X9328475Y7679609D01*
X9385149Y7674028D01*
D02*
G37*
G36*
X8541940Y2057090D02*
X8550951Y2056273D01*
X8559917Y2055048D01*
X8568818Y2053420D01*
X8577636Y2051391D01*
X8586354Y2048965D01*
X8594952Y2046148D01*
X8603415Y2042944D01*
X8611724Y2039361D01*
X8619863Y2035406D01*
X8627814Y2031087D01*
X8631688Y2028750D01*
X8635588Y2026457D01*
X8643537Y2022139D01*
X8651673Y2018185D01*
X8659980Y2014603D01*
X8668441Y2011400D01*
X8677037Y2008583D01*
X8685753Y2006158D01*
X8694568Y2004129D01*
X8703467Y2002501D01*
X8712430Y2001277D01*
X8721440Y2000460D01*
X8730477Y2000051D01*
X8735000Y2000000D01*
X9039182D01*
X9047518Y1999302D01*
X9055766Y1997909D01*
X9063869Y1995833D01*
X9071770Y1993088D01*
X9079415Y1989693D01*
X9086749Y1985671D01*
X9093722Y1981051D01*
X9100285Y1975864D01*
X9106391Y1970148D01*
X9112000Y1963942D01*
X9117070Y1957289D01*
X9121567Y1950236D01*
X9125459Y1942832D01*
X9128720Y1935129D01*
X9131326Y1927181D01*
X9133259Y1919042D01*
X9134506Y1910771D01*
X9135058Y1902425D01*
X9134911Y1894061D01*
X9134066Y1885739D01*
X9132529Y1877517D01*
X9130311Y1869452D01*
X9127428Y1861600D01*
X9123898Y1854016D01*
X9119748Y1846753D01*
X9115006Y1839863D01*
X9109705Y1833392D01*
X9103883Y1827387D01*
X9097579Y1821889D01*
X9090838Y1816936D01*
X9083707Y1812564D01*
X9079971Y1810683D01*
X9079972Y1810683D01*
X8768435Y1653488D01*
X8757198Y1647743D01*
X8734913Y1635894D01*
X8712886Y1623571D01*
X8691128Y1610779D01*
X8669649Y1597525D01*
X8648457Y1583815D01*
X8627564Y1569655D01*
X8606979Y1555051D01*
X8586711Y1540010D01*
X8566769Y1524539D01*
X8547162Y1508645D01*
X8527900Y1492335D01*
X8518401Y1484026D01*
Y1484027D01*
X8353387Y1338132D01*
X8351127Y1336133D01*
X8346372Y1332416D01*
X8341403Y1328992D01*
X8336236Y1325873D01*
X8330890Y1323073D01*
X8325385Y1320599D01*
X8319742Y1318462D01*
X8313979Y1316668D01*
X8308119Y1315226D01*
X8302183Y1314140D01*
X8296191Y1313413D01*
X8290167Y1313050D01*
X8008921D01*
X8001087Y1313666D01*
X7993326Y1314895D01*
X7985685Y1316730D01*
X7978211Y1319158D01*
X7970952Y1322165D01*
X7963950Y1325733D01*
X7957250Y1329839D01*
X7950893Y1334457D01*
X7944917Y1339561D01*
X7939361Y1345117D01*
X7934257Y1351093D01*
X7929639Y1357450D01*
X7925533Y1364150D01*
X7921965Y1371151D01*
X7918958Y1378411D01*
X7916530Y1385885D01*
X7914695Y1393526D01*
X7913466Y1401287D01*
X7912850Y1409121D01*
Y1413050D01*
Y1802500D01*
X7912773Y1806425D01*
X7912157Y1814253D01*
X7910928Y1822009D01*
X7909095Y1829644D01*
X7906669Y1837111D01*
X7903664Y1844365D01*
X7900099Y1851362D01*
X7895997Y1858056D01*
X7891381Y1864409D01*
X7886282Y1870380D01*
X7880730Y1875932D01*
X7874759Y1881031D01*
X7868407Y1885646D01*
X7861712Y1889749D01*
X7854716Y1893314D01*
X7847461Y1896319D01*
X7839994Y1898745D01*
X7832359Y1900578D01*
X7824603Y1901806D01*
X7816776Y1902422D01*
X7812850Y1902500D01*
X7036192D01*
X7028614Y1903246D01*
X7021146Y1904732D01*
X7013859Y1906942D01*
X7006824Y1909856D01*
X7000108Y1913445D01*
X6993777Y1917676D01*
X6987891Y1922506D01*
X6982506Y1927891D01*
X6977676Y1933777D01*
X6973445Y1940108D01*
X6969856Y1946824D01*
X6966942Y1953859D01*
X6964732Y1961146D01*
X6963246Y1968614D01*
X6962500Y1976192D01*
Y1983807D01*
X6963246Y1991385D01*
X6964732Y1998853D01*
X6966942Y2006140D01*
X6969856Y2013175D01*
X6973445Y2019891D01*
X6977676Y2026222D01*
X6982506Y2032108D01*
X6987891Y2037492D01*
X6993777Y2042323D01*
X7000108Y2046554D01*
X7006824Y2050143D01*
X7013859Y2053057D01*
X7021146Y2055267D01*
X7028614Y2056753D01*
X7036192Y2057500D01*
X8532900D01*
X8541940Y2057090D01*
D02*
G37*
G36*
X8298913Y1086333D02*
X8306674Y1085104D01*
X8314315Y1083269D01*
X8321788Y1080841D01*
X8329048Y1077834D01*
X8336050Y1074267D01*
X8342750Y1070161D01*
X8349107Y1065542D01*
X8355082Y1060439D01*
X8360639Y1054882D01*
X8365742Y1048907D01*
X8370361Y1042550D01*
X8374467Y1035850D01*
X8378034Y1028848D01*
X8381041Y1021588D01*
X8383470Y1014115D01*
X8385304Y1006474D01*
X8386533Y998713D01*
X8387150Y990879D01*
Y986950D01*
Y737150D01*
Y726898D01*
X8386418Y706406D01*
X8384955Y685954D01*
X8382764Y665567D01*
X8379845Y645270D01*
X8376205Y625092D01*
X8371846Y605056D01*
X8366775Y585188D01*
X8360998Y565514D01*
X8354523Y546059D01*
X8347357Y526847D01*
X8339511Y507903D01*
X8330993Y489251D01*
X8321814Y470915D01*
X8311987Y452919D01*
X8301525Y435285D01*
X8290439Y418035D01*
X8278745Y401192D01*
X8266457Y384777D01*
X8253591Y368812D01*
X8240163Y353315D01*
X8226191Y338308D01*
X8211692Y323809D01*
X8196685Y309837D01*
X8181188Y296409D01*
X8165222Y283543D01*
X8148808Y271255D01*
X8131965Y259561D01*
X8114715Y248475D01*
X8097081Y238012D01*
X8079084Y228185D01*
X8060748Y219007D01*
X8042097Y210489D01*
X8023153Y202642D01*
X8003941Y195477D01*
X7984486Y189001D01*
X7964812Y183224D01*
X7944944Y178154D01*
X7924908Y173795D01*
X7904729Y170154D01*
X7884433Y167236D01*
X7864046Y165044D01*
X7843594Y163582D01*
X7823102Y162850D01*
X7659121D01*
X7651287Y163466D01*
X7643525Y164695D01*
X7635885Y166530D01*
X7628411Y168958D01*
X7621151Y171965D01*
X7614150Y175533D01*
X7607450Y179639D01*
X7601092Y184257D01*
X7595117Y189361D01*
X7589561Y194917D01*
X7584457Y200893D01*
X7579839Y207250D01*
X7575733Y213950D01*
X7572165Y220952D01*
X7569158Y228211D01*
X7566730Y235685D01*
X7564895Y243326D01*
X7563666Y251087D01*
X7563050Y258921D01*
Y262850D01*
Y537150D01*
Y541079D01*
X7563666Y548913D01*
X7564895Y556674D01*
X7566730Y564315D01*
X7569158Y571788D01*
X7572165Y579048D01*
X7575733Y586050D01*
X7579839Y592750D01*
X7584457Y599107D01*
X7589561Y605082D01*
X7595117Y610639D01*
X7601092Y615742D01*
X7607450Y620361D01*
X7614150Y624467D01*
X7621151Y628034D01*
X7628411Y631041D01*
X7635885Y633470D01*
X7643525Y635304D01*
X7651287Y636533D01*
X7659121Y637150D01*
X7812850D01*
X7816776Y637227D01*
X7824603Y637843D01*
X7832359Y639071D01*
X7839994Y640904D01*
X7847461Y643331D01*
X7854716Y646336D01*
X7861712Y649900D01*
X7868407Y654003D01*
X7874759Y658618D01*
X7880730Y663718D01*
X7886282Y669270D01*
X7891381Y675241D01*
X7895997Y681593D01*
X7900099Y688288D01*
X7903664Y695284D01*
X7906669Y702538D01*
X7909095Y710006D01*
X7910928Y717641D01*
X7912157Y725396D01*
X7912773Y733224D01*
X7912850Y737150D01*
Y986950D01*
Y990879D01*
X7913466Y998713D01*
X7914695Y1006474D01*
X7916530Y1014115D01*
X7918958Y1021588D01*
X7921965Y1028848D01*
X7925533Y1035850D01*
X7929639Y1042550D01*
X7934257Y1048907D01*
X7939361Y1054882D01*
X7944917Y1060439D01*
X7950893Y1065542D01*
X7957250Y1070161D01*
X7963950Y1074267D01*
X7970952Y1077834D01*
X7978211Y1080841D01*
X7985685Y1083269D01*
X7993326Y1085104D01*
X8001087Y1086333D01*
X8008921Y1086950D01*
X8291079D01*
X8298913Y1086333D01*
D02*
G37*
G36*
X7236950Y637150D02*
X7240879D01*
X7248713Y636533D01*
X7256474Y635304D01*
X7264115Y633469D01*
X7271588Y631041D01*
X7278848Y628034D01*
X7285850Y624467D01*
X7292550Y620361D01*
X7298907Y615742D01*
X7304882Y610639D01*
X7310439Y605082D01*
X7315542Y599107D01*
X7320161Y592750D01*
X7324267Y586050D01*
X7327834Y579048D01*
X7330841Y571788D01*
X7333269Y564315D01*
X7335104Y556674D01*
X7336333Y548913D01*
X7336950Y541079D01*
Y537150D01*
X7336950D01*
X7336950Y262850D01*
Y258920D01*
X7336333Y251087D01*
X7335104Y243325D01*
X7333269Y235685D01*
X7330841Y228211D01*
X7327834Y220951D01*
X7324267Y213950D01*
X7320161Y207250D01*
X7315542Y200892D01*
X7310439Y194917D01*
X7304882Y189361D01*
X7298907Y184257D01*
X7292549Y179638D01*
X7285849Y175533D01*
X7278848Y171965D01*
X7271588Y168958D01*
X7264115Y166530D01*
X7256474Y164695D01*
X7248712Y163466D01*
X7240879Y162850D01*
X7236949Y162850D01*
X6931175D01*
X6920515Y163419D01*
X6909901Y164556D01*
X6899362Y166258D01*
X6888930Y168519D01*
X6878632Y171334D01*
X6868500Y174694D01*
X6858561Y178589D01*
X6848844Y183009D01*
X6839376Y187941D01*
X6830186Y193371D01*
X6821298Y199283D01*
X6812737Y205661D01*
X6804530Y212487D01*
X6796698Y219740D01*
X6789264Y227401D01*
X6785756Y231425D01*
X6782196Y235400D01*
X6774765Y243058D01*
X6766935Y250309D01*
X6758731Y257132D01*
X6750173Y263508D01*
X6741289Y269418D01*
X6732101Y274846D01*
X6722637Y279776D01*
X6712923Y284195D01*
X6702988Y288089D01*
X6692859Y291447D01*
X6682566Y294261D01*
X6672137Y296521D01*
X6661602Y298222D01*
X6650991Y299359D01*
X6640335Y299928D01*
X6635000Y299999D01*
X6635000Y300000D01*
X6355634D01*
X6346935Y300761D01*
X6338335Y302277D01*
X6329901Y304537D01*
X6321695Y307524D01*
X6313781Y311214D01*
X6306219Y315580D01*
X6299066Y320589D01*
X6292377Y326202D01*
X6286202Y332377D01*
X6280589Y339066D01*
X6275580Y346219D01*
X6271214Y353781D01*
X6267524Y361695D01*
X6264537Y369901D01*
X6262277Y378335D01*
X6260761Y386935D01*
X6260000Y395634D01*
Y404366D01*
X6260761Y413065D01*
X6262277Y421664D01*
X6264537Y430099D01*
X6267524Y438305D01*
X6271214Y446219D01*
X6275580Y453781D01*
X6280589Y460934D01*
X6286202Y467623D01*
X6292377Y473798D01*
X6299066Y479411D01*
X6306219Y484419D01*
X6313781Y488785D01*
X6321695Y492476D01*
X6329901Y495463D01*
X6338335Y497722D01*
X6346935Y499239D01*
X6355634Y500000D01*
X6635000D01*
X6640336Y500071D01*
X6650992Y500640D01*
X6661602Y501777D01*
X6672137Y503478D01*
X6682566Y505738D01*
X6692860Y508552D01*
X6702988Y511911D01*
X6712924Y515805D01*
X6722637Y520223D01*
X6732101Y525153D01*
X6741289Y530581D01*
X6750174Y536491D01*
X6758731Y542867D01*
X6766936Y549690D01*
X6774765Y556941D01*
X6782196Y564600D01*
X6785756Y568575D01*
X6785756D01*
X6789264Y572598D01*
X6796698Y580259D01*
X6804530Y587512D01*
X6812737Y594338D01*
X6821298Y600716D01*
X6830186Y606628D01*
X6839377Y612058D01*
X6848844Y616990D01*
X6858561Y621410D01*
X6868500Y625306D01*
X6878632Y628666D01*
X6888930Y631480D01*
X6899363Y633741D01*
X6909901Y635443D01*
X6920515Y636580D01*
X6931175Y637150D01*
X6936513D01*
X6936513Y637150D01*
X7236950Y637150D01*
D02*
G37*
%LPC*%
G36*
X6220699Y7401788D02*
Y7289700D01*
X6332788D01*
X6332627Y7291750D01*
X6331085Y7301483D01*
X6328785Y7311065D01*
X6325740Y7320436D01*
X6321969Y7329540D01*
X6317496Y7338320D01*
X6312347Y7346722D01*
X6306555Y7354694D01*
X6300155Y7362187D01*
X6293187Y7369155D01*
X6285694Y7375555D01*
X6277722Y7381347D01*
X6269320Y7386496D01*
X6260540Y7390969D01*
X6251437Y7394740D01*
X6242065Y7397785D01*
X6232483Y7400085D01*
X6222751Y7401627D01*
X6220699Y7401788D01*
D02*
G37*
G36*
X5179299Y7401788D02*
X5177249Y7401627D01*
X5167517Y7400085D01*
X5157935Y7397785D01*
X5148563Y7394740D01*
X5139460Y7390969D01*
X5130680Y7386496D01*
X5122278Y7381347D01*
X5114306Y7375555D01*
X5106813Y7369155D01*
X5099845Y7362187D01*
X5093445Y7354694D01*
X5087653Y7346722D01*
X5082504Y7338320D01*
X5078031Y7329540D01*
X5074260Y7320436D01*
X5071215Y7311065D01*
X5068915Y7301483D01*
X5067373Y7291750D01*
X5067212Y7289700D01*
X5179299D01*
Y7401788D01*
D02*
G37*
G36*
X5966699Y7401788D02*
Y7277000D01*
X5941299D01*
Y7401788D01*
X5939249Y7401627D01*
X5929517Y7400085D01*
X5919935Y7397785D01*
X5910563Y7394740D01*
X5901460Y7390969D01*
X5892680Y7386496D01*
X5884278Y7381347D01*
X5876306Y7375555D01*
X5868813Y7369155D01*
X5861845Y7362187D01*
X5855445Y7354694D01*
X5849653Y7346722D01*
X5844504Y7338320D01*
X5840031Y7329540D01*
X5836260Y7320436D01*
X5833215Y7311065D01*
X5832142Y7306596D01*
X5821858D01*
X5820785Y7311065D01*
X5817740Y7320436D01*
X5813969Y7329540D01*
X5809496Y7338320D01*
X5804347Y7346722D01*
X5798555Y7354694D01*
X5792155Y7362187D01*
X5785187Y7369155D01*
X5777694Y7375555D01*
X5769722Y7381347D01*
X5761320Y7386496D01*
X5752540Y7390969D01*
X5743437Y7394740D01*
X5734065Y7397785D01*
X5724483Y7400085D01*
X5714751Y7401627D01*
X5712699Y7401788D01*
Y7277000D01*
X5687299D01*
Y7401788D01*
X5685249Y7401627D01*
X5675517Y7400085D01*
X5665935Y7397785D01*
X5656563Y7394740D01*
X5647460Y7390969D01*
X5638680Y7386496D01*
X5630278Y7381347D01*
X5622306Y7375555D01*
X5614813Y7369155D01*
X5607845Y7362187D01*
X5601445Y7354694D01*
X5595653Y7346722D01*
X5590504Y7338320D01*
X5586031Y7329540D01*
X5582260Y7320436D01*
X5579215Y7311065D01*
X5578142Y7306596D01*
X5567858D01*
X5566785Y7311065D01*
X5563740Y7320436D01*
X5559969Y7329540D01*
X5555496Y7338320D01*
X5550347Y7346722D01*
X5544555Y7354694D01*
X5538155Y7362187D01*
X5531187Y7369155D01*
X5523694Y7375555D01*
X5515722Y7381347D01*
X5507320Y7386496D01*
X5498540Y7390969D01*
X5489437Y7394740D01*
X5480065Y7397785D01*
X5470483Y7400085D01*
X5460751Y7401627D01*
X5458699Y7401788D01*
Y7277000D01*
X5433299D01*
Y7401788D01*
X5431249Y7401627D01*
X5421517Y7400085D01*
X5411935Y7397785D01*
X5402563Y7394740D01*
X5393460Y7390969D01*
X5384680Y7386496D01*
X5376278Y7381347D01*
X5368306Y7375555D01*
X5360813Y7369155D01*
X5353845Y7362187D01*
X5347445Y7354694D01*
X5341653Y7346722D01*
X5336504Y7338320D01*
X5332031Y7329540D01*
X5328260Y7320436D01*
X5325215Y7311065D01*
X5324142Y7306596D01*
X5313858D01*
X5312785Y7311065D01*
X5309740Y7320436D01*
X5305969Y7329540D01*
X5301496Y7338320D01*
X5296347Y7346722D01*
X5290555Y7354694D01*
X5284155Y7362187D01*
X5277187Y7369155D01*
X5269694Y7375555D01*
X5261722Y7381347D01*
X5253320Y7386496D01*
X5244540Y7390969D01*
X5235437Y7394740D01*
X5226065Y7397785D01*
X5216483Y7400085D01*
X5206751Y7401627D01*
X5204699Y7401788D01*
Y7277000D01*
X5191999D01*
Y7264300D01*
X5067212D01*
X5067373Y7262249D01*
X5068915Y7252517D01*
X5071215Y7242935D01*
X5074260Y7233563D01*
X5078031Y7224460D01*
X5082504Y7215679D01*
X5087653Y7207278D01*
X5093445Y7199306D01*
X5099845Y7191813D01*
X5106813Y7184845D01*
X5114306Y7178445D01*
X5122278Y7172653D01*
X5130680Y7167504D01*
X5139460Y7163031D01*
X5148563Y7159260D01*
X5157935Y7156215D01*
X5162404Y7155142D01*
Y7144858D01*
X5157935Y7143785D01*
X5148563Y7140740D01*
X5139460Y7136969D01*
X5130680Y7132496D01*
X5122278Y7127347D01*
X5114306Y7121555D01*
X5106813Y7115155D01*
X5099845Y7108187D01*
X5093445Y7100694D01*
X5087653Y7092722D01*
X5082504Y7084320D01*
X5078031Y7075540D01*
X5074260Y7066436D01*
X5071215Y7057065D01*
X5068915Y7047483D01*
X5067373Y7037750D01*
X5067212Y7035700D01*
X5191999D01*
Y7023000D01*
X5204699D01*
Y6898212D01*
X5206751Y6898373D01*
X5216483Y6899915D01*
X5226065Y6902215D01*
X5235437Y6905260D01*
X5244540Y6909031D01*
X5253320Y6913504D01*
X5261722Y6918653D01*
X5269694Y6924445D01*
X5277187Y6930845D01*
X5284155Y6937813D01*
X5290555Y6945306D01*
X5296347Y6953278D01*
X5301496Y6961679D01*
X5305969Y6970460D01*
X5309740Y6979563D01*
X5312785Y6988935D01*
X5315085Y6998517D01*
X5316627Y7008249D01*
X5316693Y7009087D01*
X5326724Y7009087D01*
X5326740Y7008885D01*
X5328215Y6999571D01*
X5330416Y6990402D01*
X5333330Y6981434D01*
X5336939Y6972722D01*
X5341220Y6964320D01*
X5346147Y6956280D01*
X5351689Y6948651D01*
X5357813Y6941481D01*
X5364481Y6934813D01*
X5371651Y6928689D01*
X5379280Y6923146D01*
X5387320Y6918220D01*
X5395722Y6913938D01*
X5404434Y6910330D01*
X5413402Y6907416D01*
X5422571Y6905215D01*
X5431885Y6903740D01*
X5441285Y6903000D01*
X5450715D01*
X5460115Y6903740D01*
X5469429Y6905215D01*
X5478598Y6907416D01*
X5487566Y6910330D01*
X5496278Y6913938D01*
X5504680Y6918220D01*
X5512720Y6923146D01*
X5520349Y6928689D01*
X5527519Y6934813D01*
X5534187Y6941481D01*
X5540311Y6948651D01*
X5545854Y6956280D01*
X5550780Y6964320D01*
X5555062Y6972722D01*
X5558670Y6981434D01*
X5561584Y6990402D01*
X5563785Y6999571D01*
X5565260Y7008885D01*
X5566000Y7018285D01*
Y7027715D01*
X5565260Y7037115D01*
X5563785Y7046429D01*
X5561584Y7055598D01*
X5558670Y7064566D01*
X5555062Y7073278D01*
X5550780Y7081680D01*
X5545854Y7089720D01*
X5540311Y7097349D01*
X5534187Y7104519D01*
X5527519Y7111187D01*
X5520349Y7117311D01*
X5512720Y7122853D01*
X5504680Y7127780D01*
X5496278Y7132061D01*
X5487566Y7135670D01*
X5478598Y7138584D01*
X5469429Y7140785D01*
X5460115Y7142260D01*
X5459913Y7142276D01*
X5459913Y7152307D01*
X5460751Y7152373D01*
X5470483Y7153915D01*
X5480065Y7156215D01*
X5489437Y7159260D01*
X5498540Y7163031D01*
X5507320Y7167504D01*
X5515722Y7172653D01*
X5523694Y7178445D01*
X5531187Y7184845D01*
X5538155Y7191813D01*
X5544555Y7199306D01*
X5550347Y7207278D01*
X5555496Y7215679D01*
X5559969Y7224460D01*
X5563740Y7233563D01*
X5566785Y7242935D01*
X5567858Y7247404D01*
X5578142D01*
X5579215Y7242935D01*
X5582260Y7233563D01*
X5586031Y7224460D01*
X5590504Y7215679D01*
X5595653Y7207278D01*
X5601445Y7199306D01*
X5607845Y7191813D01*
X5614813Y7184845D01*
X5622306Y7178445D01*
X5630278Y7172653D01*
X5638680Y7167504D01*
X5647460Y7163031D01*
X5656563Y7159260D01*
X5665935Y7156215D01*
X5675517Y7153915D01*
X5685249Y7152373D01*
X5686087Y7152307D01*
X5686087Y7142276D01*
X5685885Y7142260D01*
X5676571Y7140785D01*
X5667402Y7138584D01*
X5658434Y7135670D01*
X5649722Y7132061D01*
X5641320Y7127780D01*
X5633280Y7122853D01*
X5625651Y7117311D01*
X5618481Y7111187D01*
X5611813Y7104519D01*
X5605689Y7097349D01*
X5600147Y7089720D01*
X5595220Y7081680D01*
X5590939Y7073278D01*
X5587330Y7064566D01*
X5584416Y7055598D01*
X5582215Y7046429D01*
X5580740Y7037115D01*
X5580000Y7027715D01*
Y7018285D01*
X5580740Y7008885D01*
X5582215Y6999571D01*
X5584416Y6990402D01*
X5587330Y6981434D01*
X5590939Y6972722D01*
X5595220Y6964320D01*
X5600147Y6956280D01*
X5605689Y6948651D01*
X5611813Y6941481D01*
X5618481Y6934813D01*
X5625651Y6928689D01*
X5633280Y6923146D01*
X5641320Y6918220D01*
X5649722Y6913938D01*
X5658434Y6910330D01*
X5667402Y6907416D01*
X5676571Y6905215D01*
X5685885Y6903740D01*
X5695285Y6903000D01*
X5704715D01*
X5714115Y6903740D01*
X5723429Y6905215D01*
X5732598Y6907416D01*
X5741566Y6910330D01*
X5750278Y6913938D01*
X5758680Y6918220D01*
X5766720Y6923146D01*
X5774349Y6928689D01*
X5781519Y6934813D01*
X5788187Y6941481D01*
X5794311Y6948651D01*
X5799854Y6956280D01*
X5804780Y6964320D01*
X5809062Y6972722D01*
X5812670Y6981434D01*
X5815584Y6990402D01*
X5817785Y6999571D01*
X5819260Y7008885D01*
X5820000Y7018285D01*
Y7027715D01*
X5819260Y7037115D01*
X5817785Y7046429D01*
X5815584Y7055598D01*
X5812670Y7064566D01*
X5809062Y7073278D01*
X5804780Y7081680D01*
X5799854Y7089720D01*
X5794311Y7097349D01*
X5788187Y7104519D01*
X5781519Y7111187D01*
X5774349Y7117311D01*
X5766720Y7122853D01*
X5758680Y7127780D01*
X5750278Y7132061D01*
X5741566Y7135670D01*
X5732598Y7138584D01*
X5723429Y7140785D01*
X5714115Y7142260D01*
X5713913Y7142276D01*
X5713913Y7152307D01*
X5714751Y7152373D01*
X5724483Y7153915D01*
X5734065Y7156215D01*
X5743437Y7159260D01*
X5752540Y7163031D01*
X5761320Y7167504D01*
X5769722Y7172653D01*
X5777694Y7178445D01*
X5785187Y7184845D01*
X5792155Y7191813D01*
X5798555Y7199306D01*
X5804347Y7207278D01*
X5809496Y7215679D01*
X5813969Y7224460D01*
X5817740Y7233563D01*
X5820785Y7242935D01*
X5821858Y7247404D01*
X5832142D01*
X5833215Y7242935D01*
X5836260Y7233563D01*
X5840031Y7224460D01*
X5844504Y7215679D01*
X5849653Y7207278D01*
X5855445Y7199306D01*
X5861845Y7191813D01*
X5868813Y7184845D01*
X5876306Y7178445D01*
X5884278Y7172653D01*
X5892680Y7167504D01*
X5901460Y7163031D01*
X5910563Y7159260D01*
X5919935Y7156215D01*
X5929517Y7153915D01*
X5939249Y7152373D01*
X5940087Y7152307D01*
X5940087Y7142276D01*
X5939885Y7142260D01*
X5930571Y7140785D01*
X5921402Y7138584D01*
X5912434Y7135670D01*
X5903722Y7132061D01*
X5895320Y7127780D01*
X5887280Y7122853D01*
X5879651Y7117311D01*
X5872481Y7111187D01*
X5865813Y7104519D01*
X5859689Y7097349D01*
X5854147Y7089720D01*
X5849220Y7081680D01*
X5844939Y7073278D01*
X5841330Y7064566D01*
X5838416Y7055598D01*
X5836215Y7046429D01*
X5834740Y7037115D01*
X5834000Y7027715D01*
Y7018285D01*
X5834740Y7008885D01*
X5836215Y6999571D01*
X5838416Y6990402D01*
X5841330Y6981434D01*
X5844939Y6972722D01*
X5849220Y6964320D01*
X5854147Y6956280D01*
X5859689Y6948651D01*
X5865813Y6941481D01*
X5872481Y6934813D01*
X5879651Y6928689D01*
X5887280Y6923146D01*
X5895320Y6918220D01*
X5903722Y6913938D01*
X5912434Y6910330D01*
X5921402Y6907416D01*
X5930571Y6905215D01*
X5939885Y6903740D01*
X5949285Y6903000D01*
X5958715D01*
X5968115Y6903740D01*
X5977429Y6905215D01*
X5986598Y6907416D01*
X5995566Y6910330D01*
X6004278Y6913938D01*
X6012680Y6918220D01*
X6020720Y6923146D01*
X6028349Y6928689D01*
X6035519Y6934813D01*
X6042187Y6941481D01*
X6048311Y6948651D01*
X6053854Y6956280D01*
X6058780Y6964320D01*
X6063062Y6972722D01*
X6066670Y6981434D01*
X6069584Y6990402D01*
X6071785Y6999571D01*
X6073260Y7008885D01*
X6074000Y7018285D01*
Y7027715D01*
X6073260Y7037115D01*
X6071785Y7046429D01*
X6069584Y7055598D01*
X6066670Y7064566D01*
X6063062Y7073278D01*
X6058780Y7081680D01*
X6053854Y7089720D01*
X6048311Y7097349D01*
X6042187Y7104519D01*
X6035519Y7111187D01*
X6028349Y7117311D01*
X6020720Y7122853D01*
X6012680Y7127780D01*
X6004278Y7132061D01*
X5995566Y7135670D01*
X5986598Y7138584D01*
X5977429Y7140785D01*
X5968115Y7142260D01*
X5967913Y7142276D01*
X5967913Y7152307D01*
X5968751Y7152373D01*
X5978483Y7153915D01*
X5988065Y7156215D01*
X5997437Y7159260D01*
X6006540Y7163031D01*
X6015320Y7167504D01*
X6023722Y7172653D01*
X6031694Y7178445D01*
X6039187Y7184845D01*
X6046155Y7191813D01*
X6052555Y7199306D01*
X6058347Y7207278D01*
X6063496Y7215679D01*
X6067969Y7224460D01*
X6071740Y7233563D01*
X6074785Y7242935D01*
X6075858Y7247404D01*
X6086142D01*
X6087215Y7242935D01*
X6090260Y7233563D01*
X6094031Y7224460D01*
X6098504Y7215679D01*
X6103653Y7207278D01*
X6109445Y7199306D01*
X6115845Y7191813D01*
X6122813Y7184845D01*
X6130306Y7178445D01*
X6138278Y7172653D01*
X6146680Y7167504D01*
X6155460Y7163031D01*
X6164563Y7159260D01*
X6173935Y7156215D01*
X6183517Y7153915D01*
X6193249Y7152373D01*
X6194087Y7152307D01*
X6194087Y7142276D01*
X6193885Y7142260D01*
X6184571Y7140785D01*
X6175402Y7138584D01*
X6166434Y7135670D01*
X6157722Y7132061D01*
X6149320Y7127780D01*
X6141280Y7122853D01*
X6133651Y7117311D01*
X6126481Y7111187D01*
X6119813Y7104519D01*
X6113689Y7097349D01*
X6108147Y7089720D01*
X6103220Y7081680D01*
X6098939Y7073278D01*
X6095330Y7064566D01*
X6092416Y7055598D01*
X6090215Y7046429D01*
X6088740Y7037115D01*
X6088000Y7027715D01*
Y7018285D01*
X6088740Y7008885D01*
X6090215Y6999571D01*
X6092416Y6990402D01*
X6095330Y6981434D01*
X6098939Y6972722D01*
X6103220Y6964320D01*
X6108147Y6956280D01*
X6113689Y6948651D01*
X6119813Y6941481D01*
X6126481Y6934813D01*
X6133651Y6928689D01*
X6141280Y6923146D01*
X6149320Y6918220D01*
X6157722Y6913938D01*
X6166434Y6910330D01*
X6175402Y6907416D01*
X6184571Y6905215D01*
X6193885Y6903740D01*
X6203285Y6903000D01*
X6212715D01*
X6222115Y6903740D01*
X6231429Y6905215D01*
X6240598Y6907416D01*
X6249566Y6910330D01*
X6258278Y6913938D01*
X6266680Y6918220D01*
X6274720Y6923146D01*
X6282349Y6928689D01*
X6289519Y6934813D01*
X6296187Y6941481D01*
X6302311Y6948651D01*
X6307854Y6956280D01*
X6312780Y6964320D01*
X6317062Y6972722D01*
X6320670Y6981434D01*
X6323584Y6990402D01*
X6325785Y6999571D01*
X6327260Y7008885D01*
X6328000Y7018285D01*
Y7027715D01*
X6327260Y7037115D01*
X6325785Y7046429D01*
X6323584Y7055598D01*
X6320670Y7064566D01*
X6317062Y7073278D01*
X6312780Y7081680D01*
X6307854Y7089720D01*
X6302311Y7097349D01*
X6296187Y7104519D01*
X6289519Y7111187D01*
X6282349Y7117311D01*
X6274720Y7122853D01*
X6266680Y7127780D01*
X6258278Y7132061D01*
X6249566Y7135670D01*
X6240598Y7138584D01*
X6231429Y7140785D01*
X6222115Y7142260D01*
X6221913Y7142276D01*
X6221913Y7152307D01*
X6222751Y7152373D01*
X6232483Y7153915D01*
X6242065Y7156215D01*
X6251437Y7159260D01*
X6260540Y7163031D01*
X6269320Y7167504D01*
X6277722Y7172653D01*
X6285694Y7178445D01*
X6293187Y7184845D01*
X6300155Y7191813D01*
X6306555Y7199306D01*
X6312347Y7207278D01*
X6317496Y7215679D01*
X6321969Y7224460D01*
X6325740Y7233563D01*
X6328785Y7242935D01*
X6331085Y7252517D01*
X6332627Y7262249D01*
X6332788Y7264300D01*
X6207999D01*
Y7277000D01*
X6195299D01*
Y7401788D01*
X6193249Y7401627D01*
X6183517Y7400085D01*
X6173935Y7397785D01*
X6164563Y7394740D01*
X6155460Y7390969D01*
X6146680Y7386496D01*
X6138278Y7381347D01*
X6130306Y7375555D01*
X6122813Y7369155D01*
X6115845Y7362187D01*
X6109445Y7354694D01*
X6103653Y7346722D01*
X6098504Y7338320D01*
X6094031Y7329540D01*
X6090260Y7320436D01*
X6087215Y7311065D01*
X6086142Y7306596D01*
X6075858D01*
X6074785Y7311065D01*
X6071740Y7320436D01*
X6067969Y7329540D01*
X6063496Y7338320D01*
X6058347Y7346722D01*
X6052555Y7354694D01*
X6046155Y7362187D01*
X6039187Y7369155D01*
X6031694Y7375555D01*
X6023722Y7381347D01*
X6015320Y7386496D01*
X6006540Y7390969D01*
X5997437Y7394740D01*
X5988065Y7397785D01*
X5978483Y7400085D01*
X5968751Y7401627D01*
X5966699Y7401788D01*
D02*
G37*
G36*
X5179299Y7010300D02*
X5067212D01*
X5067373Y7008249D01*
X5068915Y6998517D01*
X5071215Y6988935D01*
X5074260Y6979563D01*
X5078031Y6970460D01*
X5082504Y6961679D01*
X5087653Y6953278D01*
X5093445Y6945306D01*
X5099845Y6937813D01*
X5106813Y6930845D01*
X5114306Y6924445D01*
X5122278Y6918653D01*
X5130680Y6913504D01*
X5139460Y6909031D01*
X5148563Y6905260D01*
X5157935Y6902215D01*
X5167517Y6899915D01*
X5177249Y6898373D01*
X5179299Y6898212D01*
Y7010300D01*
D02*
G37*
G36*
X3702808Y6540000D02*
X3697192D01*
X3691611Y6539371D01*
X3686136Y6538122D01*
X3680836Y6536267D01*
X3675776Y6533830D01*
X3671021Y6530842D01*
X3666630Y6527341D01*
X3662659Y6523370D01*
X3659158Y6518979D01*
X3656170Y6514224D01*
X3655458Y6512745D01*
X3654797Y6512488D01*
X3645203D01*
X3644543Y6512745D01*
X3643830Y6514224D01*
X3640843Y6518979D01*
X3637341Y6523370D01*
X3633370Y6527341D01*
X3628980Y6530842D01*
X3624224Y6533830D01*
X3619165Y6536267D01*
X3613864Y6538122D01*
X3608389Y6539371D01*
X3602808Y6540000D01*
X3597192D01*
X3591612Y6539371D01*
X3586137Y6538122D01*
X3580836Y6536267D01*
X3575776Y6533830D01*
X3571021Y6530842D01*
X3566631Y6527341D01*
X3562660Y6523370D01*
X3559158Y6518979D01*
X3556170Y6514224D01*
X3553734Y6509165D01*
X3551879Y6503864D01*
X3550629Y6498389D01*
X3550001Y6492808D01*
Y6487192D01*
X3550629Y6481612D01*
X3551879Y6476137D01*
X3553734Y6470836D01*
X3556170Y6465776D01*
X3559158Y6461021D01*
X3562660Y6456630D01*
X3566631Y6452659D01*
X3571021Y6449158D01*
X3575776Y6446170D01*
X3580836Y6443734D01*
X3586137Y6441879D01*
X3591612Y6440629D01*
X3597192Y6440000D01*
X3602808D01*
X3608389Y6440629D01*
X3613864Y6441879D01*
X3619165Y6443734D01*
X3624224Y6446170D01*
X3628980Y6449158D01*
X3633370Y6452659D01*
X3637341Y6456630D01*
X3640843Y6461021D01*
X3643830Y6465776D01*
X3644543Y6467255D01*
X3645203Y6467513D01*
X3654797D01*
X3655458Y6467255D01*
X3656170Y6465776D01*
X3659158Y6461021D01*
X3662659Y6456630D01*
X3666630Y6452659D01*
X3671021Y6449158D01*
X3675776Y6446170D01*
X3680836Y6443734D01*
X3686136Y6441879D01*
X3691611Y6440629D01*
X3697192Y6440000D01*
X3702808D01*
X3708389Y6440629D01*
X3713864Y6441879D01*
X3719164Y6443734D01*
X3724224Y6446170D01*
X3728979Y6449158D01*
X3733370Y6452659D01*
X3737341Y6456630D01*
X3740842Y6461021D01*
X3743830Y6465776D01*
X3746267Y6470836D01*
X3748121Y6476137D01*
X3749371Y6481612D01*
X3750000Y6487192D01*
Y6492808D01*
X3749371Y6498389D01*
X3748121Y6503864D01*
X3746267Y6509165D01*
X3743830Y6514224D01*
X3740842Y6518979D01*
X3737341Y6523370D01*
X3733370Y6527341D01*
X3728979Y6530842D01*
X3724224Y6533830D01*
X3719164Y6536267D01*
X3713864Y6538122D01*
X3708389Y6539371D01*
X3702808Y6540000D01*
D02*
G37*
G36*
X3302807D02*
X3297192D01*
X3291611Y6539371D01*
X3286136Y6538122D01*
X3280835Y6536267D01*
X3275776Y6533830D01*
X3271020Y6530842D01*
X3266630Y6527341D01*
X3262659Y6523370D01*
X3259157Y6518979D01*
X3256170Y6514224D01*
X3255457Y6512745D01*
X3254796Y6512487D01*
X3245203D01*
X3244542Y6512745D01*
X3243830Y6514224D01*
X3240842Y6518979D01*
X3237340Y6523370D01*
X3233369Y6527341D01*
X3228979Y6530842D01*
X3224224Y6533830D01*
X3219164Y6536267D01*
X3213863Y6538122D01*
X3208388Y6539371D01*
X3202808Y6540000D01*
X3197192D01*
X3191611Y6539371D01*
X3186136Y6538122D01*
X3180835Y6536267D01*
X3175776Y6533830D01*
X3171021Y6530842D01*
X3166630Y6527341D01*
X3162659Y6523370D01*
X3159158Y6518979D01*
X3156170Y6514224D01*
X3153733Y6509165D01*
X3151878Y6503864D01*
X3150629Y6498389D01*
X3150000Y6492808D01*
Y6487192D01*
X3150629Y6481612D01*
X3151878Y6476137D01*
X3153733Y6470836D01*
X3156170Y6465776D01*
X3159158Y6461021D01*
X3162659Y6456630D01*
X3166630Y6452659D01*
X3171021Y6449158D01*
X3175776Y6446170D01*
X3180835Y6443734D01*
X3186136Y6441879D01*
X3191611Y6440629D01*
X3197192Y6440000D01*
X3202808D01*
X3208388Y6440629D01*
X3213863Y6441879D01*
X3219164Y6443734D01*
X3224224Y6446170D01*
X3228979Y6449158D01*
X3233369Y6452659D01*
X3237340Y6456630D01*
X3240842Y6461021D01*
X3243830Y6465776D01*
X3244542Y6467256D01*
X3245203Y6467513D01*
X3254796D01*
X3255457Y6467256D01*
X3256170Y6465776D01*
X3259157Y6461021D01*
X3262659Y6456630D01*
X3266630Y6452659D01*
X3271020Y6449158D01*
X3275776Y6446170D01*
X3280835Y6443734D01*
X3286136Y6441879D01*
X3291611Y6440629D01*
X3297192Y6440000D01*
X3302807D01*
X3308388Y6440629D01*
X3313863Y6441879D01*
X3319164Y6443734D01*
X3324223Y6446170D01*
X3328979Y6449158D01*
X3333369Y6452659D01*
X3337340Y6456630D01*
X3340842Y6461021D01*
X3343829Y6465776D01*
X3346266Y6470836D01*
X3348121Y6476137D01*
X3349370Y6481612D01*
X3349999Y6487192D01*
Y6492808D01*
X3349370Y6498389D01*
X3348121Y6503864D01*
X3346266Y6509165D01*
X3343829Y6514224D01*
X3340842Y6518979D01*
X3337340Y6523370D01*
X3333369Y6527341D01*
X3328979Y6530842D01*
X3324223Y6533830D01*
X3319164Y6536267D01*
X3313863Y6538122D01*
X3308388Y6539371D01*
X3302807Y6540000D01*
D02*
G37*
G36*
X4486396Y7577585D02*
X1987157D01*
X1982842Y7577245D01*
X1978633Y7576235D01*
X1974634Y7574578D01*
X1970943Y7572316D01*
X1967651Y7569505D01*
X1330495Y6932348D01*
X1327683Y6929057D01*
X1325422Y6925366D01*
X1323765Y6921367D01*
X1322755Y6917158D01*
X1322415Y6912843D01*
Y5010882D01*
X1322755Y5006567D01*
X1323765Y5002358D01*
X1325422Y4998359D01*
X1327683Y4994668D01*
X1330495Y4991376D01*
X1575587Y4746284D01*
X1578878Y4743473D01*
X1582569Y4741211D01*
X1586568Y4739555D01*
X1590777Y4738544D01*
X1595092Y4738205D01*
X2152284D01*
X2170995Y4719494D01*
X2170629Y4717889D01*
X2170000Y4712308D01*
Y4706692D01*
X2170629Y4701112D01*
X2171879Y4695637D01*
X2173733Y4690336D01*
X2176170Y4685276D01*
X2179158Y4680521D01*
X2182659Y4676130D01*
X2186630Y4672159D01*
X2191021Y4668658D01*
X2195776Y4665670D01*
X2200836Y4663233D01*
X2206136Y4661379D01*
X2211611Y4660129D01*
X2217192Y4659500D01*
X2222808D01*
X2228388Y4660129D01*
X2233863Y4661379D01*
X2239164Y4663233D01*
X2244224Y4665670D01*
X2248979Y4668658D01*
X2253370Y4672159D01*
X2257341Y4676130D01*
X2260842Y4680521D01*
X2263830Y4685276D01*
X2266266Y4690336D01*
X2268121Y4695637D01*
X2269371Y4701112D01*
X2270000Y4706692D01*
Y4712308D01*
X2269371Y4717889D01*
X2268121Y4723364D01*
X2266266Y4728664D01*
X2263830Y4733724D01*
X2260842Y4738479D01*
X2257341Y4742870D01*
X2253370Y4746841D01*
X2248979Y4750342D01*
X2244224Y4753330D01*
X2239164Y4755767D01*
X2233863Y4757621D01*
X2228388Y4758871D01*
X2222808Y4759500D01*
X2220000D01*
Y4786500D01*
X2222808D01*
X2228389Y4787129D01*
X2233864Y4788379D01*
X2239164Y4790233D01*
X2244224Y4792670D01*
X2248979Y4795658D01*
X2253370Y4799159D01*
X2257341Y4803130D01*
X2260842Y4807521D01*
X2263830Y4812276D01*
X2266267Y4817336D01*
X2268121Y4822636D01*
X2269371Y4828111D01*
X2270000Y4833692D01*
Y4839308D01*
X2269371Y4844888D01*
X2268121Y4850363D01*
X2266267Y4855664D01*
X2263830Y4860724D01*
X2260842Y4865479D01*
X2257341Y4869870D01*
X2253370Y4873841D01*
X2248979Y4877342D01*
X2244224Y4880330D01*
X2239164Y4882766D01*
X2233864Y4884621D01*
X2228389Y4885871D01*
X2222808Y4886500D01*
X2220000D01*
Y4913500D01*
X2222808D01*
X2228388Y4914129D01*
X2233863Y4915379D01*
X2239164Y4917233D01*
X2244224Y4919670D01*
X2248979Y4922658D01*
X2253370Y4926159D01*
X2257341Y4930130D01*
X2260842Y4934521D01*
X2263830Y4939276D01*
X2266266Y4944336D01*
X2268121Y4949637D01*
X2269371Y4955112D01*
X2270000Y4960692D01*
Y4966308D01*
X2269371Y4971889D01*
X2268121Y4977364D01*
X2266266Y4982664D01*
X2263830Y4987724D01*
X2260842Y4992479D01*
X2257341Y4996870D01*
X2253370Y5000841D01*
X2248979Y5004342D01*
X2244224Y5007330D01*
X2239164Y5009767D01*
X2233863Y5011621D01*
X2228388Y5012871D01*
X2222808Y5013500D01*
X2220000D01*
Y5040500D01*
X2222808D01*
X2228388Y5041129D01*
X2233863Y5042379D01*
X2239164Y5044233D01*
X2244224Y5046670D01*
X2248979Y5049658D01*
X2253370Y5053159D01*
X2257341Y5057130D01*
X2260842Y5061521D01*
X2263830Y5066276D01*
X2266266Y5071336D01*
X2268121Y5076637D01*
X2269371Y5082112D01*
X2270000Y5087692D01*
Y5093308D01*
X2269371Y5098889D01*
X2268121Y5104364D01*
X2266266Y5109664D01*
X2263830Y5114724D01*
X2260842Y5119479D01*
X2257341Y5123870D01*
X2253370Y5127841D01*
X2248979Y5131342D01*
X2244224Y5134330D01*
X2239164Y5136767D01*
X2233863Y5138621D01*
X2228388Y5139871D01*
X2222808Y5140500D01*
X2220000D01*
Y5259500D01*
X2222808D01*
X2228388Y5260129D01*
X2233863Y5261379D01*
X2239164Y5263233D01*
X2244224Y5265670D01*
X2248979Y5268658D01*
X2253370Y5272159D01*
X2257341Y5276130D01*
X2260842Y5280521D01*
X2263830Y5285276D01*
X2266266Y5290336D01*
X2268121Y5295636D01*
X2269371Y5301111D01*
X2270000Y5306692D01*
Y5312308D01*
X2269371Y5317889D01*
X2268121Y5323363D01*
X2266266Y5328664D01*
X2263830Y5333724D01*
X2260842Y5338479D01*
X2257341Y5342870D01*
X2253370Y5346841D01*
X2248979Y5350342D01*
X2244224Y5353330D01*
X2239164Y5355767D01*
X2233863Y5357621D01*
X2228388Y5358871D01*
X2222808Y5359500D01*
X2220000D01*
Y5386500D01*
X2222808D01*
X2228389Y5387129D01*
X2233864Y5388379D01*
X2239164Y5390233D01*
X2244224Y5392670D01*
X2248979Y5395658D01*
X2253370Y5399159D01*
X2257341Y5403130D01*
X2260842Y5407521D01*
X2263830Y5412276D01*
X2266267Y5417336D01*
X2268121Y5422636D01*
X2269371Y5428111D01*
X2270000Y5433692D01*
Y5439308D01*
X2269371Y5444889D01*
X2268121Y5450363D01*
X2266267Y5455664D01*
X2263830Y5460724D01*
X2260842Y5465479D01*
X2257341Y5469870D01*
X2253370Y5473841D01*
X2248979Y5477342D01*
X2244224Y5480330D01*
X2239164Y5482767D01*
X2233864Y5484621D01*
X2228389Y5485871D01*
X2222808Y5486500D01*
X2220000D01*
Y5513500D01*
X2222808D01*
X2228388Y5514129D01*
X2233863Y5515378D01*
X2239164Y5517233D01*
X2244224Y5519670D01*
X2248979Y5522657D01*
X2253370Y5526159D01*
X2257341Y5530130D01*
X2260842Y5534521D01*
X2263830Y5539276D01*
X2266266Y5544335D01*
X2268121Y5549636D01*
X2269371Y5555111D01*
X2270000Y5560692D01*
Y5566308D01*
X2269371Y5571888D01*
X2268121Y5577363D01*
X2266266Y5582664D01*
X2263830Y5587724D01*
X2260842Y5592479D01*
X2257341Y5596869D01*
X2253370Y5600840D01*
X2248979Y5604342D01*
X2244224Y5607330D01*
X2239164Y5609766D01*
X2233863Y5611621D01*
X2228388Y5612871D01*
X2222808Y5613500D01*
X2220000D01*
Y5640500D01*
X2222808D01*
X2228388Y5641129D01*
X2233863Y5642379D01*
X2239164Y5644233D01*
X2244224Y5646670D01*
X2248979Y5649658D01*
X2253370Y5653159D01*
X2257341Y5657130D01*
X2260842Y5661521D01*
X2263830Y5666276D01*
X2266266Y5671336D01*
X2268121Y5676636D01*
X2269371Y5682111D01*
X2270000Y5687692D01*
Y5693308D01*
X2269371Y5698889D01*
X2268121Y5704363D01*
X2266266Y5709664D01*
X2263830Y5714724D01*
X2260842Y5719479D01*
X2257341Y5723870D01*
X2253370Y5727841D01*
X2248979Y5731342D01*
X2244224Y5734330D01*
X2239164Y5736767D01*
X2233863Y5738621D01*
X2228388Y5739871D01*
X2222808Y5740500D01*
X2220000D01*
Y5859500D01*
X2222808D01*
X2228388Y5860129D01*
X2233863Y5861379D01*
X2239164Y5863234D01*
X2244224Y5865670D01*
X2248979Y5868658D01*
X2253370Y5872159D01*
X2257341Y5876130D01*
X2260842Y5880521D01*
X2263830Y5885276D01*
X2266266Y5890336D01*
X2268121Y5895637D01*
X2269371Y5901112D01*
X2270000Y5906692D01*
Y5912308D01*
X2269371Y5917889D01*
X2268121Y5923364D01*
X2266266Y5928665D01*
X2263830Y5933724D01*
X2260842Y5938479D01*
X2257341Y5942870D01*
X2253370Y5946841D01*
X2248979Y5950342D01*
X2244224Y5953330D01*
X2239164Y5955767D01*
X2233863Y5957622D01*
X2228388Y5958871D01*
X2222808Y5959500D01*
X2220000D01*
Y5986500D01*
X2222808D01*
X2228388Y5987129D01*
X2233863Y5988379D01*
X2239164Y5990234D01*
X2244224Y5992670D01*
X2248979Y5995658D01*
X2253370Y5999159D01*
X2257341Y6003130D01*
X2260842Y6007521D01*
X2263830Y6012276D01*
X2266266Y6017336D01*
X2268121Y6022637D01*
X2269371Y6028112D01*
X2270000Y6033692D01*
Y6039308D01*
X2269371Y6044889D01*
X2268121Y6050364D01*
X2266266Y6055665D01*
X2263830Y6060724D01*
X2260842Y6065479D01*
X2257341Y6069870D01*
X2253370Y6073841D01*
X2248979Y6077342D01*
X2244224Y6080330D01*
X2239164Y6082767D01*
X2233863Y6084622D01*
X2228388Y6085871D01*
X2222808Y6086500D01*
X2220000D01*
Y6113500D01*
X2222808D01*
X2228388Y6114129D01*
X2233863Y6115379D01*
X2239164Y6117234D01*
X2244224Y6119670D01*
X2248979Y6122658D01*
X2253370Y6126159D01*
X2257341Y6130130D01*
X2260842Y6134521D01*
X2263830Y6139276D01*
X2266266Y6144336D01*
X2268121Y6149637D01*
X2269371Y6155112D01*
X2270000Y6160692D01*
Y6166308D01*
X2269371Y6171889D01*
X2268121Y6177364D01*
X2266266Y6182665D01*
X2263830Y6187724D01*
X2260842Y6192479D01*
X2257341Y6196870D01*
X2253370Y6200841D01*
X2248979Y6204342D01*
X2244224Y6207330D01*
X2239164Y6209767D01*
X2233863Y6211622D01*
X2228388Y6212871D01*
X2222808Y6213500D01*
X2220000D01*
Y6240500D01*
X2222808D01*
X2228388Y6241129D01*
X2233863Y6242379D01*
X2239164Y6244233D01*
X2244224Y6246670D01*
X2248979Y6249658D01*
X2253370Y6253159D01*
X2257341Y6257130D01*
X2260842Y6261521D01*
X2263830Y6266276D01*
X2266266Y6271336D01*
X2268121Y6276636D01*
X2269371Y6282111D01*
X2270000Y6287692D01*
Y6293308D01*
X2269371Y6298889D01*
X2268121Y6304364D01*
X2266266Y6309664D01*
X2263830Y6314724D01*
X2260842Y6319479D01*
X2257341Y6323870D01*
X2253370Y6327841D01*
X2248979Y6331342D01*
X2244224Y6334330D01*
X2239164Y6336767D01*
X2233863Y6338621D01*
X2228388Y6339871D01*
X2222808Y6340500D01*
X2217192D01*
X2211611Y6339871D01*
X2206136Y6338621D01*
X2200836Y6336767D01*
X2195776Y6334330D01*
X2191021Y6331342D01*
X2186630Y6327841D01*
X2182659Y6323870D01*
X2179158Y6319479D01*
X2178282Y6318085D01*
X2120926D01*
X2077585Y6361426D01*
Y6714310D01*
X2335690Y6972415D01*
X3147152D01*
X3322415Y6797153D01*
Y6669290D01*
X3322755Y6664974D01*
X3323765Y6660765D01*
X3325422Y6656766D01*
X3327683Y6653076D01*
X3330494Y6649784D01*
X3419784Y6560495D01*
X3423075Y6557683D01*
X3426766Y6555422D01*
X3430765Y6553765D01*
X3434974Y6552755D01*
X3439290Y6552415D01*
X4482240D01*
X4904161Y6130494D01*
X4907452Y6127683D01*
X4911143Y6125422D01*
X4915142Y6123765D01*
X4919351Y6122755D01*
X4923666Y6122415D01*
X8670711D01*
X8675026Y6122755D01*
X8679235Y6123765D01*
X8683234Y6125422D01*
X8686925Y6127683D01*
X8690216Y6130494D01*
X8789505Y6229784D01*
X8792316Y6233075D01*
X8794578Y6236766D01*
X8796235Y6240765D01*
X8797245Y6244974D01*
X8797585Y6249289D01*
Y6675000D01*
X8797245Y6679315D01*
X8796235Y6683524D01*
X8794578Y6687523D01*
X8792316Y6691214D01*
X8789505Y6694505D01*
X8769004Y6715006D01*
X8769371Y6716611D01*
X8769999Y6722192D01*
Y6727808D01*
X8769371Y6733389D01*
X8768121Y6738864D01*
X8766266Y6744164D01*
X8763830Y6749224D01*
X8760842Y6753979D01*
X8757340Y6758370D01*
X8753369Y6762341D01*
X8748979Y6765842D01*
X8744224Y6768830D01*
X8739164Y6771267D01*
X8733863Y6773121D01*
X8728388Y6774371D01*
X8722808Y6775000D01*
X8717192D01*
X8711611Y6774371D01*
X8706136Y6773121D01*
X8700835Y6771267D01*
X8695776Y6768830D01*
X8691020Y6765842D01*
X8686630Y6762341D01*
X8682659Y6758370D01*
X8679157Y6753979D01*
X8676170Y6749224D01*
X8675441Y6747711D01*
X8666251Y6745017D01*
X8663545Y6745326D01*
X8661214Y6747316D01*
X8657523Y6749578D01*
X8653524Y6751235D01*
X8649315Y6752245D01*
X8645000Y6752585D01*
X8486426D01*
X8477585Y6761426D01*
Y6900000D01*
X8477245Y6904315D01*
X8476235Y6908524D01*
X8474578Y6912523D01*
X8472317Y6916214D01*
X8469506Y6919505D01*
X8249506Y7139505D01*
X8246215Y7142316D01*
X8242524Y7144578D01*
X8238525Y7146234D01*
X8234316Y7147245D01*
X8230001Y7147584D01*
X8071442D01*
X8071278Y7147883D01*
X8068975Y7157584D01*
X8071479Y7159158D01*
X8075870Y7162659D01*
X8079841Y7166630D01*
X8083342Y7171021D01*
X8086330Y7175776D01*
X8088767Y7180836D01*
X8090621Y7186136D01*
X8091871Y7191611D01*
X8092500Y7197192D01*
Y7202808D01*
X8091871Y7208388D01*
X8090621Y7213863D01*
X8088767Y7219164D01*
X8086330Y7224224D01*
X8083342Y7228979D01*
X8079841Y7233370D01*
X8075870Y7237341D01*
X8071479Y7240842D01*
X8066724Y7243830D01*
X8061664Y7246266D01*
X8056364Y7248121D01*
X8050889Y7249371D01*
X8045308Y7250000D01*
X8039692D01*
X8034111Y7249371D01*
X8028636Y7248121D01*
X8023336Y7246266D01*
X8018276Y7243830D01*
X8013521Y7240842D01*
X8009130Y7237341D01*
X8005159Y7233370D01*
X8001658Y7228979D01*
X7998670Y7224224D01*
X7996233Y7219164D01*
X7994379Y7213863D01*
X7993129Y7208388D01*
X7992500Y7202808D01*
Y7197192D01*
X7993129Y7191611D01*
X7994379Y7186136D01*
X7996233Y7180836D01*
X7998670Y7175776D01*
X8001658Y7171021D01*
X8005159Y7166630D01*
X8009130Y7162659D01*
X8013521Y7159158D01*
X8016025Y7157584D01*
X8013722Y7147883D01*
X8013558Y7147584D01*
X7866718D01*
X7865842Y7148979D01*
X7862341Y7153369D01*
X7858370Y7157340D01*
X7853979Y7160842D01*
X7849224Y7163829D01*
X7844164Y7166266D01*
X7838864Y7168121D01*
X7833389Y7169370D01*
X7827808Y7169999D01*
X7822192D01*
X7816611Y7169370D01*
X7811137Y7168121D01*
X7805836Y7166266D01*
X7800776Y7163829D01*
X7796021Y7160842D01*
X7791630Y7157340D01*
X7787659Y7153369D01*
X7784158Y7148979D01*
X7781170Y7144223D01*
X7778733Y7139164D01*
X7776879Y7133863D01*
X7775629Y7128388D01*
X7775000Y7122807D01*
Y7117192D01*
X7775629Y7111611D01*
X7776879Y7106136D01*
X7778733Y7100835D01*
X7781170Y7095775D01*
X7784158Y7091020D01*
X7787659Y7086630D01*
X7791630Y7082659D01*
X7796021Y7079157D01*
X7800776Y7076169D01*
X7805836Y7073733D01*
X7811137Y7071878D01*
X7816611Y7070628D01*
X7822192Y7070000D01*
X7827808D01*
X7833389Y7070628D01*
X7838864Y7071878D01*
X7844164Y7073733D01*
X7849224Y7076169D01*
X7853979Y7079157D01*
X7858370Y7082659D01*
X7862341Y7086630D01*
X7865842Y7091020D01*
X7866718Y7092415D01*
X8218575D01*
X8331322Y6979667D01*
X8328565Y6972082D01*
X8326847Y6970000D01*
X8322192D01*
X8316611Y6969371D01*
X8311136Y6968121D01*
X8305836Y6966266D01*
X8300776Y6963830D01*
X8296021Y6960842D01*
X8291630Y6957340D01*
X8287659Y6953369D01*
X8284158Y6948979D01*
X8281170Y6944224D01*
X8280457Y6942744D01*
X8279796Y6942487D01*
X8270204D01*
X8269543Y6942744D01*
X8268830Y6944224D01*
X8265842Y6948979D01*
X8262341Y6953369D01*
X8258370Y6957340D01*
X8253979Y6960842D01*
X8249224Y6963830D01*
X8244164Y6966266D01*
X8238864Y6968121D01*
X8233389Y6969371D01*
X8227808Y6970000D01*
X8222192D01*
X8216611Y6969371D01*
X8211136Y6968121D01*
X8205836Y6966266D01*
X8200776Y6963830D01*
X8196021Y6960842D01*
X8191630Y6957340D01*
X8187659Y6953369D01*
X8184158Y6948979D01*
X8181170Y6944224D01*
X8178733Y6939164D01*
X8176879Y6933863D01*
X8175629Y6928388D01*
X8175000Y6922808D01*
Y6917192D01*
X8175629Y6911611D01*
X8176548Y6907585D01*
X8174892Y6903902D01*
X8169276Y6897585D01*
X8130000D01*
X8125685Y6897245D01*
X8121476Y6896235D01*
X8117477Y6894579D01*
X8113786Y6892317D01*
X8110495Y6889505D01*
X7948574Y6727585D01*
X5162909D01*
X4977585Y6912908D01*
Y7086395D01*
X4977246Y7090710D01*
X4976235Y7094920D01*
X4974579Y7098919D01*
X4972317Y7102609D01*
X4969506Y7105901D01*
X4505901Y7569505D01*
X4502610Y7572316D01*
X4498919Y7574578D01*
X4494920Y7576235D01*
X4490711Y7577245D01*
X4486396Y7577585D01*
D02*
G37*
G36*
X8832808Y5972500D02*
X8827192D01*
X8821612Y5971871D01*
X8816137Y5970622D01*
X8810836Y5968767D01*
X8805776Y5966330D01*
X8801021Y5963342D01*
X8796630Y5959841D01*
X8792659Y5955870D01*
X8789158Y5951479D01*
X8786170Y5946724D01*
X8783734Y5941665D01*
X8781879Y5936364D01*
X8780629Y5930889D01*
X8780000Y5925308D01*
Y5919692D01*
X8780629Y5914112D01*
X8781879Y5908637D01*
X8783734Y5903336D01*
X8786170Y5898276D01*
X8789158Y5893521D01*
X8792659Y5889130D01*
X8796630Y5885159D01*
X8801021Y5881658D01*
X8805776Y5878670D01*
X8810836Y5876234D01*
X8816137Y5874379D01*
X8821612Y5873129D01*
X8827192Y5872500D01*
X8832808D01*
X8838389Y5873129D01*
X8843864Y5874379D01*
X8849164Y5876234D01*
X8854224Y5878670D01*
X8858979Y5881658D01*
X8863370Y5885159D01*
X8867341Y5889130D01*
X8870842Y5893521D01*
X8873830Y5898276D01*
X8876267Y5903336D01*
X8878121Y5908637D01*
X8879371Y5914112D01*
X8880000Y5919692D01*
Y5925308D01*
X8879371Y5930889D01*
X8878121Y5936364D01*
X8876267Y5941665D01*
X8873830Y5946724D01*
X8870842Y5951479D01*
X8867341Y5955870D01*
X8863370Y5959841D01*
X8858979Y5963342D01*
X8854224Y5966330D01*
X8849164Y5968767D01*
X8843864Y5970622D01*
X8838389Y5971871D01*
X8832808Y5972500D01*
D02*
G37*
G36*
X7877808Y6050000D02*
X7872192D01*
X7866611Y6049371D01*
X7861136Y6048121D01*
X7855836Y6046267D01*
X7850776Y6043830D01*
X7846021Y6040842D01*
X7841630Y6037341D01*
X7837659Y6033370D01*
X7834158Y6028979D01*
X7831170Y6024224D01*
X7828733Y6019164D01*
X7826879Y6013864D01*
X7825629Y6008389D01*
X7825000Y6002808D01*
Y5997192D01*
X7825629Y5991611D01*
X7826879Y5986136D01*
X7828733Y5980836D01*
X7831170Y5975776D01*
X7834158Y5971021D01*
X7837659Y5966630D01*
X7841630Y5962659D01*
X7846021Y5959158D01*
X7850776Y5956170D01*
X7855836Y5953733D01*
X7861136Y5951879D01*
X7866611Y5950629D01*
X7872192Y5950000D01*
X7872415D01*
Y5721426D01*
X7760495Y5609505D01*
X7757683Y5606214D01*
X7755422Y5602523D01*
X7753765Y5598524D01*
X7752755Y5594315D01*
X7752415Y5590000D01*
Y5171442D01*
X7752120Y5171280D01*
X7742415Y5168975D01*
X7740842Y5171479D01*
X7737341Y5175869D01*
X7733370Y5179840D01*
X7728979Y5183342D01*
X7724224Y5186329D01*
X7719164Y5188766D01*
X7713863Y5190621D01*
X7708388Y5191870D01*
X7702808Y5192499D01*
X7697192D01*
X7691611Y5191870D01*
X7686136Y5190621D01*
X7680836Y5188766D01*
X7675776Y5186329D01*
X7671021Y5183342D01*
X7666630Y5179840D01*
X7662659Y5175869D01*
X7659158Y5171479D01*
X7656170Y5166723D01*
X7653733Y5161664D01*
X7651879Y5156363D01*
X7650629Y5150888D01*
X7650000Y5145307D01*
Y5139692D01*
X7650629Y5134111D01*
X7651879Y5128636D01*
X7653733Y5123335D01*
X7656170Y5118276D01*
X7659158Y5113520D01*
X7662659Y5109130D01*
X7666630Y5105159D01*
X7671021Y5101657D01*
X7675776Y5098670D01*
X7680836Y5096233D01*
X7686136Y5094378D01*
X7691611Y5093128D01*
X7697192Y5092500D01*
X7702808D01*
X7708388Y5093128D01*
X7713863Y5094378D01*
X7719164Y5096233D01*
X7724224Y5098670D01*
X7728979Y5101657D01*
X7733370Y5105159D01*
X7737341Y5109130D01*
X7740842Y5113520D01*
X7742415Y5116024D01*
X7752120Y5113719D01*
X7752415Y5113557D01*
Y4571442D01*
X7752124Y4571282D01*
X7742415Y4568976D01*
X7740842Y4571479D01*
X7737341Y4575869D01*
X7733370Y4579840D01*
X7728979Y4583342D01*
X7724224Y4586330D01*
X7719164Y4588766D01*
X7713864Y4590621D01*
X7708389Y4591871D01*
X7702808Y4592500D01*
X7697192D01*
X7691611Y4591871D01*
X7686137Y4590621D01*
X7680836Y4588766D01*
X7675776Y4586330D01*
X7671021Y4583342D01*
X7666630Y4579840D01*
X7662659Y4575869D01*
X7659158Y4571479D01*
X7656170Y4566724D01*
X7653733Y4561664D01*
X7651879Y4556363D01*
X7650629Y4550888D01*
X7650000Y4545308D01*
Y4539692D01*
X7650629Y4534111D01*
X7651879Y4528636D01*
X7653733Y4523335D01*
X7656170Y4518276D01*
X7659158Y4513521D01*
X7662659Y4509130D01*
X7666630Y4505159D01*
X7671021Y4501657D01*
X7675776Y4498670D01*
X7680836Y4496233D01*
X7686137Y4494378D01*
X7691611Y4493129D01*
X7697192Y4492500D01*
X7702808D01*
X7708389Y4493129D01*
X7713864Y4494378D01*
X7719164Y4496233D01*
X7724224Y4498670D01*
X7728979Y4501657D01*
X7733370Y4505159D01*
X7737341Y4509130D01*
X7740842Y4513521D01*
X7742415Y4516023D01*
X7752124Y4513717D01*
X7752415Y4513557D01*
Y4424999D01*
X7752755Y4420684D01*
X7753765Y4416475D01*
X7755422Y4412476D01*
X7757683Y4408785D01*
X7760495Y4405494D01*
X7905995Y4259993D01*
X7905629Y4258388D01*
X7905000Y4252807D01*
Y4247191D01*
X7905629Y4241611D01*
X7906879Y4236136D01*
X7908733Y4230835D01*
X7911170Y4225775D01*
X7914158Y4221020D01*
X7917659Y4216630D01*
X7921630Y4212659D01*
X7926021Y4209157D01*
X7930776Y4206169D01*
X7935836Y4203733D01*
X7941136Y4201878D01*
X7946611Y4200628D01*
X7952192Y4199999D01*
X7957808D01*
X7963388Y4200628D01*
X7968863Y4201878D01*
X7974164Y4203733D01*
X7979224Y4206169D01*
X7983979Y4209157D01*
X7988370Y4212659D01*
X7992341Y4216630D01*
X7994907Y4219848D01*
X7998880Y4219556D01*
X8004907Y4216651D01*
Y3477465D01*
X7637535Y3110093D01*
X6270000D01*
X6265292Y3109722D01*
X6260701Y3108620D01*
X6256338Y3106813D01*
X6252312Y3104345D01*
X6248721Y3101279D01*
X6157535Y3010093D01*
X5575690D01*
X5575129Y3020092D01*
X5579889Y3020629D01*
X5585363Y3021879D01*
X5590664Y3023733D01*
X5595724Y3026170D01*
X5600479Y3029158D01*
X5604870Y3032659D01*
X5608841Y3036630D01*
X5612342Y3041021D01*
X5615330Y3045776D01*
X5617767Y3050836D01*
X5619621Y3056136D01*
X5620871Y3061611D01*
X5621500Y3067192D01*
Y3072808D01*
X5620871Y3078389D01*
X5619621Y3083864D01*
X5617767Y3089164D01*
X5615330Y3094224D01*
X5612342Y3098979D01*
X5608841Y3103370D01*
X5604870Y3107341D01*
X5600479Y3110842D01*
X5595724Y3113830D01*
X5590664Y3116267D01*
X5585363Y3118121D01*
X5579889Y3119371D01*
X5574308Y3120000D01*
X5568692D01*
X5563111Y3119371D01*
X5557636Y3118121D01*
X5552336Y3116267D01*
X5547276Y3113830D01*
X5542521Y3110842D01*
X5538130Y3107341D01*
X5534159Y3103370D01*
X5530658Y3098979D01*
X5527670Y3094224D01*
X5525233Y3089164D01*
X5523379Y3083864D01*
X5522129Y3078389D01*
X5521500Y3072808D01*
Y3067192D01*
X5522129Y3061611D01*
X5523379Y3056136D01*
X5525233Y3050836D01*
X5527670Y3045776D01*
X5530658Y3041021D01*
X5534159Y3036630D01*
X5538130Y3032659D01*
X5542521Y3029158D01*
X5547276Y3026170D01*
X5552336Y3023733D01*
X5557636Y3021879D01*
X5563111Y3020629D01*
X5567871Y3020092D01*
X5567309Y3010093D01*
X5310000D01*
X5305292Y3009722D01*
X5300701Y3008620D01*
X5296338Y3006813D01*
X5292312Y3004345D01*
X5288721Y3001279D01*
X5178721Y2891278D01*
X5175654Y2887688D01*
X5173187Y2883662D01*
X5171380Y2879299D01*
X5170278Y2874707D01*
X5169907Y2870000D01*
X5120097D01*
X5120097Y4271363D01*
X5120168Y4276404D01*
X5120742Y4286614D01*
X5121872Y4296649D01*
X5123562Y4306596D01*
X5125807Y4316431D01*
X5128600Y4326127D01*
X5131935Y4335656D01*
X5135795Y4344975D01*
X5140173Y4354066D01*
X5145056Y4362902D01*
X5150422Y4371441D01*
X5156261Y4379671D01*
X5162555Y4387563D01*
X5169278Y4395086D01*
X5176413Y4402222D01*
X5183936Y4408945D01*
X5191828Y4415238D01*
X5200058Y4421078D01*
X5208597Y4426443D01*
X5217434Y4431327D01*
X5226524Y4435705D01*
X5235844Y4439565D01*
X5245371Y4442898D01*
X5255069Y4445693D01*
X5264904Y4447937D01*
X5274851Y4449627D01*
X5284880Y4450757D01*
X5295095Y4451331D01*
X5300138Y4451402D01*
X5655999D01*
X5656002Y4451402D01*
X5666898D01*
X5667226Y4451435D01*
X5667555Y4451413D01*
X5689340Y4452126D01*
X5689667Y4452169D01*
X5689997Y4452158D01*
X5711747Y4453584D01*
X5712073Y4453638D01*
X5712403D01*
X5734094Y4455774D01*
X5734418Y4455838D01*
X5734748Y4455849D01*
X5756358Y4458694D01*
X5756679Y4458769D01*
X5757009Y4458791D01*
X5778514Y4462342D01*
X5778832Y4462427D01*
X5779161Y4462459D01*
X5800539Y4466711D01*
X5800855Y4466807D01*
X5801182Y4466850D01*
X5822409Y4471800D01*
X5822722Y4471906D01*
X5823047Y4471960D01*
X5844101Y4477601D01*
X5844410Y4477717D01*
X5844734Y4477782D01*
X5865592Y4484109D01*
X5865896Y4484235D01*
X5866218Y4484310D01*
X5886858Y4491316D01*
X5887158Y4491453D01*
X5887477Y4491538D01*
X5907877Y4499216D01*
X5908173Y4499362D01*
X5908489Y4499458D01*
X5928626Y4507799D01*
X5928918Y4507955D01*
X5929229Y4508061D01*
X5949083Y4517056D01*
X5949369Y4517221D01*
X5949678Y4517337D01*
X5969227Y4526978D01*
X5969506Y4527152D01*
X5969812Y4527278D01*
X5989035Y4537553D01*
X5989309Y4537737D01*
X5989609Y4537873D01*
X6008486Y4548771D01*
X6008754Y4548963D01*
X6009050Y4549109D01*
X6027560Y4560620D01*
X6027821Y4560820D01*
X6028113Y4560976D01*
X6046236Y4573085D01*
X6046492Y4573295D01*
X6046777Y4573459D01*
X6064494Y4586156D01*
X6064742Y4586373D01*
X6065022Y4586547D01*
X6082315Y4599816D01*
X6082556Y4600042D01*
X6082830Y4600225D01*
X6099679Y4614053D01*
X6099913Y4614286D01*
X6100181Y4614478D01*
X6116568Y4628850D01*
X6116794Y4629091D01*
X6117056Y4629292D01*
X6132964Y4644192D01*
X6133182Y4644440D01*
X6133437Y4644649D01*
X6148850Y4660062D01*
X6149059Y4660317D01*
X6149307Y4660534D01*
X6164207Y4676443D01*
X6164408Y4676705D01*
X6164649Y4676930D01*
X6179020Y4693318D01*
X6179213Y4693587D01*
X6179446Y4693819D01*
X6193273Y4710669D01*
X6193456Y4710943D01*
X6193682Y4711184D01*
X6206951Y4728476D01*
X6207125Y4728756D01*
X6207343Y4729004D01*
X6220039Y4746722D01*
X6220204Y4747008D01*
X6220414Y4747263D01*
X6232523Y4765386D01*
X6232679Y4765677D01*
X6232879Y4765938D01*
X6244389Y4784448D01*
X6244535Y4784744D01*
X6244728Y4785013D01*
X6255626Y4803889D01*
X6255762Y4804191D01*
X6255945Y4804464D01*
X6266220Y4823687D01*
X6266347Y4823992D01*
X6266521Y4824272D01*
X6276161Y4843821D01*
X6276277Y4844128D01*
X6276443Y4844415D01*
X6285438Y4864269D01*
X6285544Y4864582D01*
X6285700Y4864873D01*
X6294041Y4885010D01*
X6294137Y4885326D01*
X6294283Y4885622D01*
X6301961Y4906022D01*
X6302046Y4906340D01*
X6302182Y4906641D01*
X6309189Y4927280D01*
X6309263Y4927602D01*
X6309390Y4927907D01*
X6315717Y4948765D01*
X6315781Y4949088D01*
X6315897Y4949397D01*
X6321539Y4970451D01*
X6321593Y4970777D01*
X6321699Y4971089D01*
X6326648Y4992317D01*
X6326691Y4992643D01*
X6326787Y4992960D01*
X6331039Y5014338D01*
X6331072Y5014666D01*
X6331157Y5014984D01*
X6334708Y5036490D01*
X6334729Y5036819D01*
X6334804Y5037141D01*
X6337649Y5058751D01*
X6337660Y5059081D01*
X6337724Y5059404D01*
X6339861Y5081096D01*
Y5081425D01*
X6339915Y5081751D01*
X6341340Y5103501D01*
X6341329Y5103831D01*
X6341373Y5104158D01*
X6342086Y5125943D01*
X6342064Y5126273D01*
X6342097Y5126601D01*
X6342097Y5195500D01*
X6342090Y5195564D01*
Y5253500D01*
X6341728Y5263636D01*
X6340644Y5273721D01*
X6338843Y5283703D01*
X6336335Y5293531D01*
X6333132Y5303155D01*
X6329250Y5312526D01*
X6324710Y5321596D01*
X6319534Y5330319D01*
X6313749Y5338651D01*
X6307385Y5346549D01*
X6300473Y5353973D01*
X6293049Y5360884D01*
X6285152Y5367249D01*
X6276820Y5373033D01*
X6268097Y5378209D01*
X6259027Y5382749D01*
X6249656Y5386631D01*
X6240031Y5389834D01*
X6230203Y5392343D01*
X6220221Y5394144D01*
X6210137Y5395228D01*
X6200000Y5395590D01*
X6189863Y5395228D01*
X6179779Y5394144D01*
X6169797Y5392343D01*
X6159969Y5389834D01*
X6150345Y5386631D01*
X6140973Y5382749D01*
X6131903Y5378209D01*
X6123180Y5373033D01*
X6114848Y5367249D01*
X6106951Y5360884D01*
X6099527Y5353973D01*
X6092615Y5346549D01*
X6086251Y5338651D01*
X6080466Y5330319D01*
X6075290Y5321596D01*
X6070750Y5312526D01*
X6066868Y5303155D01*
X6063665Y5293531D01*
X6061157Y5283703D01*
X6059356Y5273721D01*
X6058272Y5263636D01*
X6057910Y5253500D01*
Y5195564D01*
X6057903Y5195500D01*
Y5137619D01*
X6057826Y5129708D01*
X6057202Y5113838D01*
X6055964Y5098108D01*
X6054108Y5082430D01*
X6051641Y5066850D01*
X6048561Y5051368D01*
X6044877Y5036021D01*
X6040594Y5020837D01*
X6035716Y5005823D01*
X6030253Y4991014D01*
X6024216Y4976440D01*
X6017607Y4962104D01*
X6010444Y4948045D01*
X6002733Y4934276D01*
X5994486Y4920819D01*
X5985715Y4907693D01*
X5976445Y4894933D01*
X5966670Y4882535D01*
X5956424Y4870537D01*
X5945709Y4858947D01*
X5934549Y4847786D01*
X5922961Y4837075D01*
X5910964Y4826828D01*
X5898565Y4817054D01*
X5885803Y4807781D01*
X5872675Y4799010D01*
X5859227Y4790769D01*
X5845458Y4783057D01*
X5831392Y4775890D01*
X5817059Y4769283D01*
X5802484Y4763246D01*
X5787674Y4757782D01*
X5772662Y4752904D01*
X5757478Y4748622D01*
X5742131Y4744937D01*
X5726651Y4741858D01*
X5711069Y4739390D01*
X5695389Y4737535D01*
X5679660Y4736297D01*
X5663791Y4735673D01*
X5655907Y4735596D01*
X4244094Y4735596D01*
X4236210Y4735673D01*
X4220340Y4736296D01*
X4204610Y4737534D01*
X4188933Y4739390D01*
X4173348Y4741858D01*
X4157870Y4744937D01*
X4142522Y4748622D01*
X4127338Y4752904D01*
X4112324Y4757782D01*
X4097518Y4763244D01*
X4082939Y4769284D01*
X4068608Y4775890D01*
X4054546Y4783055D01*
X4040781Y4790764D01*
X4027318Y4799014D01*
X4014194Y4807783D01*
X4001431Y4817056D01*
X3989039Y4826825D01*
X3977039Y4837075D01*
X3965448Y4847789D01*
X3954287Y4858950D01*
X3943576Y4870537D01*
X3933327Y4882537D01*
X3923557Y4894930D01*
X3914282Y4907696D01*
X3905513Y4920821D01*
X3897265Y4934280D01*
X3889556Y4948045D01*
X3882391Y4962107D01*
X3875785Y4976438D01*
X3869746Y4991017D01*
X3864283Y5005825D01*
X3859405Y5020837D01*
X3855123Y5036021D01*
X3851438Y5051369D01*
X3848360Y5066846D01*
X3845891Y5082433D01*
X3844035Y5098109D01*
X3842797Y5113839D01*
X3842174Y5129709D01*
X3842097Y5137593D01*
Y5195500D01*
X3842090Y5195564D01*
Y5253500D01*
X3841728Y5263636D01*
X3840644Y5273721D01*
X3838843Y5283703D01*
X3836335Y5293531D01*
X3833132Y5303155D01*
X3829250Y5312526D01*
X3824710Y5321596D01*
X3819534Y5330319D01*
X3813749Y5338651D01*
X3807385Y5346549D01*
X3800473Y5353973D01*
X3793049Y5360884D01*
X3785152Y5367249D01*
X3776820Y5373033D01*
X3768097Y5378209D01*
X3759027Y5382749D01*
X3749655Y5386631D01*
X3740031Y5389834D01*
X3730203Y5392343D01*
X3720221Y5394144D01*
X3710137Y5395228D01*
X3700000Y5395590D01*
X3689863Y5395228D01*
X3679779Y5394144D01*
X3669797Y5392343D01*
X3659969Y5389834D01*
X3650344Y5386631D01*
X3640973Y5382749D01*
X3631903Y5378209D01*
X3623180Y5373033D01*
X3614848Y5367249D01*
X3606951Y5360884D01*
X3599527Y5353973D01*
X3592615Y5346549D01*
X3586251Y5338651D01*
X3580466Y5330319D01*
X3575290Y5321596D01*
X3570750Y5312526D01*
X3566868Y5303155D01*
X3563665Y5293531D01*
X3561157Y5283703D01*
X3559356Y5273721D01*
X3558272Y5263636D01*
X3557910Y5253500D01*
Y5195564D01*
X3557903Y5195500D01*
Y5137500D01*
X3557903Y5137497D01*
Y5126601D01*
X3557936Y5126273D01*
X3557914Y5125944D01*
X3558627Y5104158D01*
X3558670Y5103831D01*
X3558659Y5103501D01*
X3560085Y5081751D01*
X3560139Y5081425D01*
Y5081096D01*
X3562275Y5059404D01*
X3562340Y5059081D01*
X3562351Y5058751D01*
X3565196Y5037141D01*
X3565270Y5036819D01*
X3565292Y5036490D01*
X3568843Y5014984D01*
X3568928Y5014666D01*
X3568960Y5014338D01*
X3573213Y4992960D01*
X3573308Y4992644D01*
X3573352Y4992317D01*
X3578301Y4971089D01*
X3578407Y4970777D01*
X3578461Y4970451D01*
X3584102Y4949397D01*
X3584219Y4949088D01*
X3584283Y4948765D01*
X3590610Y4927907D01*
X3590736Y4927602D01*
X3590811Y4927280D01*
X3597818Y4906641D01*
X3597954Y4906340D01*
X3598039Y4906022D01*
X3605717Y4885622D01*
X3605863Y4885326D01*
X3605959Y4885010D01*
X3614300Y4864872D01*
X3614456Y4864581D01*
X3614562Y4864269D01*
X3623557Y4844415D01*
X3623722Y4844130D01*
X3623839Y4843821D01*
X3633479Y4824272D01*
X3633653Y4823992D01*
X3633779Y4823687D01*
X3644054Y4804464D01*
X3644238Y4804189D01*
X3644374Y4803889D01*
X3655272Y4785013D01*
X3655464Y4784745D01*
X3655610Y4784448D01*
X3667121Y4765938D01*
X3667321Y4765677D01*
X3667477Y4765386D01*
X3679586Y4747263D01*
X3679796Y4747007D01*
X3679961Y4746722D01*
X3692657Y4729004D01*
X3692874Y4728756D01*
X3693048Y4728476D01*
X3706317Y4711184D01*
X3706543Y4710943D01*
X3706726Y4710669D01*
X3720554Y4693819D01*
X3720788Y4693586D01*
X3720980Y4693318D01*
X3735351Y4676930D01*
X3735592Y4676704D01*
X3735793Y4676443D01*
X3750693Y4660534D01*
X3750941Y4660317D01*
X3751150Y4660062D01*
X3766563Y4644649D01*
X3766818Y4644440D01*
X3767035Y4644192D01*
X3782944Y4629292D01*
X3783206Y4629091D01*
X3783432Y4628850D01*
X3799819Y4614478D01*
X3800088Y4614286D01*
X3800321Y4614053D01*
X3817170Y4600225D01*
X3817444Y4600042D01*
X3817685Y4599816D01*
X3834977Y4586547D01*
X3835257Y4586373D01*
X3835505Y4586156D01*
X3853223Y4573459D01*
X3853509Y4573294D01*
X3853764Y4573085D01*
X3871887Y4560976D01*
X3872178Y4560820D01*
X3872440Y4560620D01*
X3890949Y4549109D01*
X3891245Y4548963D01*
X3891514Y4548771D01*
X3910390Y4537873D01*
X3910692Y4537736D01*
X3910965Y4537553D01*
X3930188Y4527278D01*
X3930493Y4527152D01*
X3930773Y4526978D01*
X3950322Y4517337D01*
X3950630Y4517222D01*
X3950916Y4517056D01*
X3970770Y4508061D01*
X3971083Y4507954D01*
X3971374Y4507799D01*
X3991511Y4499458D01*
X3991827Y4499362D01*
X3992123Y4499216D01*
X4012523Y4491538D01*
X4012841Y4491453D01*
X4013142Y4491316D01*
X4033782Y4484310D01*
X4034103Y4484235D01*
X4034408Y4484109D01*
X4055266Y4477782D01*
X4055589Y4477717D01*
X4055898Y4477601D01*
X4076952Y4471960D01*
X4077278Y4471906D01*
X4077590Y4471800D01*
X4098818Y4466850D01*
X4099144Y4466807D01*
X4099461Y4466711D01*
X4120839Y4462459D01*
X4121167Y4462427D01*
X4121486Y4462342D01*
X4142991Y4458791D01*
X4143320Y4458769D01*
X4143642Y4458694D01*
X4165252Y4455849D01*
X4165582Y4455838D01*
X4165905Y4455774D01*
X4187597Y4453638D01*
X4187926D01*
X4188252Y4453584D01*
X4210003Y4452158D01*
X4210332Y4452169D01*
X4210660Y4452126D01*
X4232445Y4451413D01*
X4232774Y4451435D01*
X4233102Y4451402D01*
X4599863Y4451402D01*
X4604906Y4451331D01*
X4615116Y4450758D01*
X4625151Y4449627D01*
X4635098Y4447937D01*
X4644932Y4445693D01*
X4654629Y4442899D01*
X4664158Y4439565D01*
X4673477Y4435705D01*
X4682567Y4431327D01*
X4691403Y4426443D01*
X4699943Y4421078D01*
X4708173Y4415238D01*
X4716064Y4408945D01*
X4723588Y4402221D01*
X4730723Y4395086D01*
X4737446Y4387563D01*
X4743739Y4379671D01*
X4749579Y4371441D01*
X4754945Y4362902D01*
X4759828Y4354066D01*
X4764206Y4344975D01*
X4768067Y4335655D01*
X4771400Y4326129D01*
X4774194Y4316431D01*
X4776439Y4306595D01*
X4778129Y4296649D01*
X4779259Y4286619D01*
X4779833Y4276404D01*
X4779904Y4271361D01*
X4779903Y2700137D01*
X4779832Y2695094D01*
X4779258Y2684884D01*
X4778128Y2674850D01*
X4776438Y2664902D01*
X4774193Y2655068D01*
X4771400Y2645371D01*
X4768065Y2635843D01*
X4764205Y2626524D01*
X4759827Y2617433D01*
X4754944Y2608597D01*
X4749578Y2600057D01*
X4743739Y2591827D01*
X4737445Y2583936D01*
X4730722Y2576412D01*
X4723587Y2569277D01*
X4716064Y2562554D01*
X4708172Y2556261D01*
X4699942Y2550421D01*
X4691403Y2545055D01*
X4682566Y2540172D01*
X4673476Y2535794D01*
X4664156Y2531933D01*
X4654630Y2528600D01*
X4644931Y2525806D01*
X4635096Y2523561D01*
X4625149Y2521872D01*
X4615120Y2520741D01*
X4604905Y2520167D01*
X4599864Y2520097D01*
X3265000D01*
X3261079Y2519711D01*
X3257309Y2518567D01*
X3253835Y2516710D01*
X3250790Y2514211D01*
X3248290Y2511165D01*
X3246433Y2507691D01*
X3245289Y2503921D01*
X3244903Y2500000D01*
Y1100000D01*
X3245289Y1096079D01*
X3246433Y1092309D01*
X3248290Y1088835D01*
X3250790Y1085790D01*
X3253835Y1083290D01*
X3257309Y1081433D01*
X3261079Y1080289D01*
X3265000Y1079903D01*
X3372408D01*
Y1047500D01*
X3372778Y1042792D01*
X3373880Y1038201D01*
X3375687Y1033838D01*
X3378155Y1029812D01*
X3381222Y1026221D01*
X3428721Y978721D01*
X3432312Y975655D01*
X3436338Y973187D01*
X3440701Y971380D01*
X3445292Y970278D01*
X3450000Y969907D01*
X4600000D01*
X4600012Y969908D01*
X4621512Y970275D01*
X4642999Y971377D01*
X4664436Y973211D01*
X4685797Y975777D01*
X4707059Y979070D01*
X4728196Y983087D01*
X4749183Y987824D01*
X4769997Y993274D01*
X4790612Y999431D01*
X4811005Y1006289D01*
X4831152Y1013839D01*
X4851029Y1022073D01*
X4870614Y1030980D01*
X4889883Y1040551D01*
X4908814Y1050774D01*
X4927385Y1061637D01*
X4945575Y1073128D01*
X4963361Y1085234D01*
X4980724Y1097940D01*
X4997643Y1111231D01*
X5014098Y1125091D01*
X5030071Y1139506D01*
X5045542Y1154458D01*
X5060494Y1169929D01*
X5074908Y1185901D01*
X5088769Y1202356D01*
X5102060Y1219275D01*
X5114766Y1236638D01*
X5126871Y1254425D01*
X5138363Y1272614D01*
X5149226Y1291185D01*
X5159449Y1310117D01*
X5169020Y1329386D01*
X5177927Y1348971D01*
X5186161Y1368848D01*
X5193711Y1388995D01*
X5200568Y1409388D01*
X5206726Y1430003D01*
X5212176Y1450817D01*
X5216913Y1471804D01*
X5220930Y1492941D01*
X5224223Y1514202D01*
X5226788Y1535564D01*
X5228623Y1557001D01*
X5229724Y1578488D01*
X5230091Y1599987D01*
X5230092Y1600000D01*
Y2857535D01*
X5322465Y2949907D01*
X6170000D01*
X6174707Y2950278D01*
X6179299Y2951380D01*
X6183662Y2953187D01*
X6187688Y2955654D01*
X6191278Y2958721D01*
X6282465Y3049907D01*
X7650000D01*
X7654708Y3050278D01*
X7659299Y3051380D01*
X7663662Y3053187D01*
X7667688Y3055655D01*
X7671279Y3058721D01*
X8056279Y3443721D01*
X8059345Y3447312D01*
X8061813Y3451338D01*
X8063620Y3455701D01*
X8064722Y3460292D01*
X8065093Y3465000D01*
Y5057535D01*
X8213027Y5205469D01*
X8217192Y5205000D01*
X8222808D01*
X8228389Y5205629D01*
X8233864Y5206879D01*
X8239164Y5208733D01*
X8244224Y5211170D01*
X8248979Y5214158D01*
X8253370Y5217659D01*
X8257341Y5221630D01*
X8260842Y5226021D01*
X8263830Y5230776D01*
X8266267Y5235836D01*
X8268121Y5241136D01*
X8269371Y5246611D01*
X8270000Y5252192D01*
Y5257808D01*
X8269371Y5263389D01*
X8268121Y5268863D01*
X8266267Y5274164D01*
X8263830Y5279224D01*
X8260842Y5283979D01*
X8257341Y5288370D01*
X8253370Y5292341D01*
X8248979Y5295842D01*
X8244224Y5298830D01*
X8239164Y5301267D01*
X8233864Y5303121D01*
X8228389Y5304371D01*
X8222808Y5305000D01*
X8217192D01*
X8211611Y5304371D01*
X8206136Y5303121D01*
X8200836Y5301267D01*
X8195776Y5298830D01*
X8191021Y5295842D01*
X8186630Y5292341D01*
X8182659Y5288370D01*
X8179158Y5283979D01*
X8176170Y5279224D01*
X8173733Y5274164D01*
X8171879Y5268863D01*
X8170629Y5263389D01*
X8170000Y5257808D01*
Y5252192D01*
X8170470Y5248027D01*
X8013721Y5091278D01*
X8010655Y5087688D01*
X8008187Y5083662D01*
X8006380Y5079299D01*
X8005278Y5074707D01*
X8004907Y5070000D01*
Y4883347D01*
X7998880Y4880443D01*
X7994907Y4880151D01*
X7992341Y4883369D01*
X7988370Y4887340D01*
X7983979Y4890842D01*
X7979224Y4893829D01*
X7974164Y4896266D01*
X7968863Y4898121D01*
X7963388Y4899370D01*
X7957808Y4899999D01*
X7952192D01*
X7946611Y4899370D01*
X7945006Y4899004D01*
X7862585Y4981425D01*
Y5555793D01*
X7974505Y5667713D01*
X7977316Y5671004D01*
X7979578Y5674695D01*
X7981234Y5678694D01*
X7982245Y5682903D01*
X7982584Y5687218D01*
Y5793574D01*
X8040006Y5850995D01*
X8041611Y5850629D01*
X8047192Y5850000D01*
X8052808D01*
X8058389Y5850629D01*
X8063863Y5851879D01*
X8069164Y5853733D01*
X8074224Y5856170D01*
X8078979Y5859158D01*
X8083370Y5862659D01*
X8087341Y5866630D01*
X8090842Y5871021D01*
X8093830Y5875776D01*
X8096267Y5880836D01*
X8098121Y5886136D01*
X8099371Y5891611D01*
X8100000Y5897192D01*
Y5902808D01*
X8099371Y5908388D01*
X8098121Y5913863D01*
X8096267Y5919164D01*
X8093830Y5924224D01*
X8090842Y5928979D01*
X8087341Y5933370D01*
X8083370Y5937341D01*
X8078979Y5940842D01*
X8074224Y5943830D01*
X8069164Y5946266D01*
X8067801Y5951798D01*
X8068304Y5957162D01*
X8071479Y5959157D01*
X8075870Y5962659D01*
X8079841Y5966630D01*
X8083342Y5971021D01*
X8086330Y5975776D01*
X8088767Y5980835D01*
X8090621Y5986136D01*
X8091871Y5991611D01*
X8092500Y5997192D01*
Y6002808D01*
X8091871Y6008388D01*
X8090621Y6013863D01*
X8088767Y6019164D01*
X8086330Y6024224D01*
X8083342Y6028979D01*
X8079841Y6033369D01*
X8075870Y6037340D01*
X8071479Y6040842D01*
X8066724Y6043830D01*
X8061664Y6046266D01*
X8056364Y6048121D01*
X8050889Y6049371D01*
X8045308Y6050000D01*
X8039692D01*
X8034111Y6049371D01*
X8028636Y6048121D01*
X8023336Y6046266D01*
X8018276Y6043830D01*
X8013521Y6040842D01*
X8009130Y6037340D01*
X8005159Y6033369D01*
X8001658Y6028979D01*
X7998670Y6024224D01*
X7996233Y6019164D01*
X7994379Y6013863D01*
X7993129Y6008388D01*
X7992500Y6002808D01*
Y5997192D01*
X7993129Y5991611D01*
X7994379Y5986136D01*
X7996233Y5980835D01*
X7998670Y5975776D01*
X8001658Y5971021D01*
X8005159Y5966630D01*
X8009130Y5962659D01*
X8013521Y5959157D01*
X8018276Y5956170D01*
X8023335Y5953733D01*
X8024698Y5948202D01*
X8024196Y5942837D01*
X8021021Y5940842D01*
X8016630Y5937341D01*
X8012659Y5933370D01*
X8009158Y5928979D01*
X8006170Y5924224D01*
X8003733Y5919164D01*
X8001879Y5913863D01*
X8000629Y5908388D01*
X8000000Y5902808D01*
Y5897192D01*
X8000629Y5891611D01*
X8000995Y5890006D01*
X7937585Y5826596D01*
X7929854Y5828882D01*
X7927585Y5830642D01*
Y5975000D01*
X7927245Y5979315D01*
X7926235Y5983524D01*
X7924578Y5987523D01*
X7923747Y5988879D01*
X7924371Y5991611D01*
X7925000Y5997192D01*
Y6002808D01*
X7924371Y6008389D01*
X7923121Y6013864D01*
X7921267Y6019164D01*
X7918830Y6024224D01*
X7915842Y6028979D01*
X7912341Y6033370D01*
X7908370Y6037341D01*
X7903979Y6040842D01*
X7899224Y6043830D01*
X7894164Y6046267D01*
X7888864Y6048121D01*
X7883389Y6049371D01*
X7877808Y6050000D01*
D02*
G37*
G36*
X7259699Y5992041D02*
Y5779700D01*
X7472042D01*
X7471691Y5785952D01*
X7470274Y5798521D01*
X7468156Y5810990D01*
X7465341Y5823321D01*
X7461840Y5835475D01*
X7457662Y5847414D01*
X7452822Y5859099D01*
X7447334Y5870495D01*
X7441216Y5881565D01*
X7434487Y5892274D01*
X7427168Y5902590D01*
X7419282Y5912478D01*
X7410854Y5921910D01*
X7401910Y5930853D01*
X7392479Y5939281D01*
X7382590Y5947167D01*
X7372275Y5954486D01*
X7361565Y5961216D01*
X7350495Y5967334D01*
X7339099Y5972822D01*
X7327414Y5977662D01*
X7315476Y5981839D01*
X7303322Y5985341D01*
X7290990Y5988155D01*
X7278521Y5990274D01*
X7265952Y5991690D01*
X7259699Y5992041D01*
D02*
G37*
G36*
X7234299D02*
X7228048Y5991690D01*
X7215479Y5990274D01*
X7203009Y5988155D01*
X7190678Y5985341D01*
X7178524Y5981839D01*
X7166586Y5977662D01*
X7154901Y5972822D01*
X7143505Y5967334D01*
X7132435Y5961216D01*
X7121725Y5954486D01*
X7111410Y5947167D01*
X7101521Y5939281D01*
X7092090Y5930853D01*
X7083146Y5921910D01*
X7074718Y5912478D01*
X7066832Y5902590D01*
X7059513Y5892274D01*
X7052784Y5881565D01*
X7046666Y5870495D01*
X7041178Y5859099D01*
X7036338Y5847414D01*
X7032160Y5835475D01*
X7028659Y5823321D01*
X7025844Y5810990D01*
X7023726Y5798521D01*
X7022309Y5785952D01*
X7021958Y5779700D01*
X7234299D01*
Y5992041D01*
D02*
G37*
G36*
X2665700D02*
Y5779699D01*
X2878042D01*
X2877691Y5785952D01*
X2876274Y5798521D01*
X2874156Y5810990D01*
X2871341Y5823321D01*
X2867840Y5835475D01*
X2863662Y5847414D01*
X2858822Y5859099D01*
X2853334Y5870495D01*
X2847216Y5881565D01*
X2840487Y5892274D01*
X2833168Y5902590D01*
X2825282Y5912478D01*
X2816854Y5921910D01*
X2807910Y5930853D01*
X2798479Y5939281D01*
X2788590Y5947167D01*
X2778275Y5954486D01*
X2767565Y5961216D01*
X2756495Y5967334D01*
X2745099Y5972822D01*
X2733414Y5977662D01*
X2721476Y5981839D01*
X2709322Y5985341D01*
X2696991Y5988155D01*
X2684521Y5990274D01*
X2671952Y5991690D01*
X2665700Y5992041D01*
D02*
G37*
G36*
X2640300D02*
X2634048Y5991690D01*
X2621479Y5990274D01*
X2609010Y5988155D01*
X2596678Y5985341D01*
X2584524Y5981839D01*
X2572586Y5977662D01*
X2560901Y5972822D01*
X2549505Y5967334D01*
X2538435Y5961216D01*
X2527725Y5954486D01*
X2517410Y5947167D01*
X2507521Y5939281D01*
X2498090Y5930853D01*
X2489146Y5921910D01*
X2480718Y5912478D01*
X2472832Y5902590D01*
X2465513Y5892274D01*
X2458784Y5881565D01*
X2452666Y5870495D01*
X2447178Y5859099D01*
X2442338Y5847414D01*
X2438160Y5835475D01*
X2434659Y5823321D01*
X2431844Y5810990D01*
X2429726Y5798521D01*
X2428309Y5785952D01*
X2427958Y5779699D01*
X2640300D01*
Y5992041D01*
D02*
G37*
G36*
X7234299Y5754300D02*
X7021958D01*
X7022309Y5748047D01*
X7023726Y5735478D01*
X7025844Y5723009D01*
X7028659Y5710678D01*
X7032160Y5698524D01*
X7036338Y5686586D01*
X7041178Y5674900D01*
X7046666Y5663505D01*
X7052784Y5652434D01*
X7059513Y5641725D01*
X7066832Y5631410D01*
X7074718Y5621521D01*
X7083146Y5612090D01*
X7092090Y5603146D01*
X7101521Y5594718D01*
X7111410Y5586832D01*
X7121725Y5579513D01*
X7132435Y5572784D01*
X7143505Y5566665D01*
X7154901Y5561178D01*
X7166586Y5556337D01*
X7178524Y5552160D01*
X7190678Y5548658D01*
X7203009Y5545844D01*
X7215479Y5543725D01*
X7228048Y5542309D01*
X7234299Y5541958D01*
Y5754300D01*
D02*
G37*
G36*
X2878042Y5754299D02*
X2665700D01*
Y5541958D01*
X2671952Y5542309D01*
X2684521Y5543725D01*
X2696991Y5545844D01*
X2709322Y5548658D01*
X2721476Y5552160D01*
X2733414Y5556337D01*
X2745099Y5561178D01*
X2756495Y5566665D01*
X2767565Y5572784D01*
X2778275Y5579513D01*
X2788590Y5586832D01*
X2798479Y5594718D01*
X2807910Y5603146D01*
X2816854Y5612090D01*
X2825282Y5621521D01*
X2833168Y5631410D01*
X2840487Y5641725D01*
X2847216Y5652434D01*
X2853334Y5663505D01*
X2858822Y5674900D01*
X2863662Y5686586D01*
X2867840Y5698524D01*
X2871341Y5710678D01*
X2874156Y5723009D01*
X2876274Y5735478D01*
X2877691Y5748047D01*
X2878042Y5754299D01*
D02*
G37*
G36*
X2640300D02*
X2427958D01*
X2428309Y5748047D01*
X2429726Y5735478D01*
X2431844Y5723009D01*
X2434659Y5710678D01*
X2438160Y5698524D01*
X2442338Y5686586D01*
X2447178Y5674900D01*
X2452666Y5663505D01*
X2458784Y5652434D01*
X2465513Y5641725D01*
X2472832Y5631410D01*
X2480718Y5621521D01*
X2489146Y5612090D01*
X2498090Y5603146D01*
X2507521Y5594718D01*
X2517410Y5586832D01*
X2527725Y5579513D01*
X2538435Y5572784D01*
X2549505Y5566665D01*
X2560901Y5561178D01*
X2572586Y5556337D01*
X2584524Y5552160D01*
X2596678Y5548658D01*
X2609010Y5545844D01*
X2621479Y5543725D01*
X2634048Y5542309D01*
X2640300Y5541958D01*
Y5754299D01*
D02*
G37*
G36*
X7472042Y5754300D02*
X7259699D01*
Y5541958D01*
X7265952Y5542309D01*
X7278521Y5543725D01*
X7290990Y5545844D01*
X7303322Y5548658D01*
X7315476Y5552160D01*
X7327414Y5556337D01*
X7339099Y5561178D01*
X7350495Y5566665D01*
X7361565Y5572784D01*
X7372275Y5579513D01*
X7382590Y5586832D01*
X7392479Y5594718D01*
X7401910Y5603146D01*
X7410854Y5612090D01*
X7419282Y5621521D01*
X7427168Y5631410D01*
X7434487Y5641725D01*
X7441216Y5652434D01*
X7447334Y5663505D01*
X7452822Y5674900D01*
X7457662Y5686586D01*
X7461840Y5698524D01*
X7465341Y5710678D01*
X7468156Y5723009D01*
X7470274Y5735478D01*
X7471691Y5748047D01*
X7472042Y5754300D01*
D02*
G37*
G36*
X7957808Y5499999D02*
X7952192D01*
X7946611Y5499370D01*
X7941136Y5498121D01*
X7935836Y5496266D01*
X7930776Y5493829D01*
X7926021Y5490841D01*
X7921630Y5487340D01*
X7917659Y5483369D01*
X7914158Y5478978D01*
X7911170Y5474223D01*
X7908733Y5469164D01*
X7906879Y5463863D01*
X7905629Y5458388D01*
X7905000Y5452807D01*
Y5447191D01*
X7905629Y5441611D01*
X7906879Y5436136D01*
X7908733Y5430835D01*
X7911170Y5425775D01*
X7914158Y5421020D01*
X7917659Y5416630D01*
X7921630Y5412658D01*
X7926021Y5409157D01*
X7930776Y5406169D01*
X7935836Y5403733D01*
X7941136Y5401878D01*
X7946611Y5400628D01*
X7952192Y5399999D01*
X7957808D01*
X7963388Y5400628D01*
X7968863Y5401878D01*
X7974164Y5403733D01*
X7979224Y5406169D01*
X7983979Y5409157D01*
X7988370Y5412658D01*
X7992341Y5416630D01*
X7995842Y5421020D01*
X7998830Y5425775D01*
X8001266Y5430835D01*
X8003121Y5436136D01*
X8004371Y5441611D01*
X8005000Y5447191D01*
Y5452807D01*
X8004371Y5458388D01*
X8003121Y5463863D01*
X8001266Y5469164D01*
X7998830Y5474223D01*
X7995842Y5478978D01*
X7992341Y5483369D01*
X7988370Y5487340D01*
X7983979Y5490841D01*
X7979224Y5493829D01*
X7974164Y5496266D01*
X7968863Y5498121D01*
X7963388Y5499370D01*
X7957808Y5499999D01*
D02*
G37*
G36*
X7572808Y5345000D02*
X7567192D01*
X7561611Y5344371D01*
X7556137Y5343121D01*
X7550836Y5341267D01*
X7545776Y5338830D01*
X7541021Y5335842D01*
X7536630Y5332341D01*
X7532659Y5328370D01*
X7529158Y5323979D01*
X7526170Y5319224D01*
X7523733Y5314164D01*
X7521879Y5308864D01*
X7520629Y5303389D01*
X7520000Y5297808D01*
Y5292192D01*
X7520629Y5286611D01*
X7521879Y5281137D01*
X7523733Y5275836D01*
X7526170Y5270776D01*
X7529158Y5266021D01*
X7532659Y5261630D01*
X7536630Y5257659D01*
X7541021Y5254158D01*
X7545776Y5251170D01*
X7550836Y5248733D01*
X7556137Y5246879D01*
X7561611Y5245629D01*
X7567192Y5245000D01*
X7572808D01*
X7578389Y5245629D01*
X7583864Y5246879D01*
X7589164Y5248733D01*
X7594224Y5251170D01*
X7598979Y5254158D01*
X7603370Y5257659D01*
X7607341Y5261630D01*
X7610842Y5266021D01*
X7613830Y5270776D01*
X7616267Y5275836D01*
X7618121Y5281137D01*
X7619371Y5286611D01*
X7620000Y5292192D01*
Y5297808D01*
X7619371Y5303389D01*
X7618121Y5308864D01*
X7616267Y5314164D01*
X7613830Y5319224D01*
X7610842Y5323979D01*
X7607341Y5328370D01*
X7603370Y5332341D01*
X7598979Y5335842D01*
X7594224Y5338830D01*
X7589164Y5341267D01*
X7583864Y5343121D01*
X7578389Y5344371D01*
X7572808Y5345000D01*
D02*
G37*
G36*
X6744000Y5395590D02*
X6733863Y5395228D01*
X6723779Y5394144D01*
X6713797Y5392343D01*
X6703969Y5389834D01*
X6694344Y5386631D01*
X6684973Y5382749D01*
X6675903Y5378209D01*
X6667180Y5373033D01*
X6658848Y5367249D01*
X6650951Y5360884D01*
X6643527Y5353973D01*
X6636615Y5346549D01*
X6630251Y5338651D01*
X6624466Y5330319D01*
X6619290Y5321596D01*
X6614750Y5312526D01*
X6610868Y5303155D01*
X6607665Y5293531D01*
X6605157Y5283703D01*
X6603356Y5273721D01*
X6602272Y5263636D01*
X6601910Y5253500D01*
Y5137500D01*
X6602272Y5127363D01*
X6603356Y5117278D01*
X6605157Y5107296D01*
X6607665Y5097468D01*
X6610868Y5087844D01*
X6614750Y5078473D01*
X6619290Y5069403D01*
X6624466Y5060680D01*
X6630251Y5052348D01*
X6636615Y5044450D01*
X6643527Y5037027D01*
X6650951Y5030115D01*
X6658848Y5023750D01*
X6667180Y5017966D01*
X6675903Y5012790D01*
X6684973Y5008250D01*
X6694344Y5004368D01*
X6703969Y5001165D01*
X6713797Y4998656D01*
X6723779Y4996856D01*
X6733863Y4995771D01*
X6744000Y4995409D01*
X6754137Y4995771D01*
X6764221Y4996856D01*
X6774203Y4998656D01*
X6784031Y5001165D01*
X6793655Y5004368D01*
X6803027Y5008250D01*
X6812097Y5012790D01*
X6820820Y5017966D01*
X6829152Y5023750D01*
X6837049Y5030115D01*
X6844473Y5037027D01*
X6851385Y5044450D01*
X6857749Y5052348D01*
X6863534Y5060680D01*
X6868710Y5069403D01*
X6873250Y5078473D01*
X6877132Y5087844D01*
X6880335Y5097468D01*
X6882843Y5107296D01*
X6884644Y5117278D01*
X6885728Y5127363D01*
X6886090Y5137500D01*
Y5253500D01*
X6885728Y5263636D01*
X6884644Y5273721D01*
X6882843Y5283703D01*
X6880335Y5293531D01*
X6877132Y5303155D01*
X6873250Y5312526D01*
X6868710Y5321596D01*
X6863534Y5330319D01*
X6857749Y5338651D01*
X6851385Y5346549D01*
X6844473Y5353973D01*
X6837049Y5360884D01*
X6829152Y5367249D01*
X6820820Y5373033D01*
X6812097Y5378209D01*
X6803027Y5382749D01*
X6793655Y5386631D01*
X6784031Y5389834D01*
X6774203Y5392343D01*
X6764221Y5394144D01*
X6754137Y5395228D01*
X6744000Y5395590D01*
D02*
G37*
G36*
X5656000D02*
X5645863Y5395228D01*
X5635779Y5394144D01*
X5625797Y5392343D01*
X5615969Y5389834D01*
X5606345Y5386631D01*
X5596974Y5382749D01*
X5587903Y5378209D01*
X5579180Y5373033D01*
X5570848Y5367249D01*
X5562951Y5360884D01*
X5555527Y5353973D01*
X5548615Y5346549D01*
X5542251Y5338651D01*
X5536466Y5330319D01*
X5531290Y5321596D01*
X5526750Y5312526D01*
X5522869Y5303155D01*
X5519665Y5293531D01*
X5517157Y5283703D01*
X5515356Y5273721D01*
X5514272Y5263636D01*
X5513910Y5253500D01*
Y5137500D01*
X5514272Y5127363D01*
X5515356Y5117278D01*
X5517157Y5107296D01*
X5519665Y5097468D01*
X5522869Y5087844D01*
X5526750Y5078473D01*
X5531290Y5069403D01*
X5536466Y5060680D01*
X5542251Y5052348D01*
X5548615Y5044450D01*
X5555527Y5037027D01*
X5562951Y5030115D01*
X5570848Y5023750D01*
X5579180Y5017966D01*
X5587903Y5012790D01*
X5596974Y5008250D01*
X5606345Y5004368D01*
X5615969Y5001165D01*
X5625797Y4998656D01*
X5635779Y4996856D01*
X5645863Y4995771D01*
X5656000Y4995409D01*
X5666137Y4995771D01*
X5676222Y4996856D01*
X5686204Y4998656D01*
X5696032Y5001165D01*
X5705656Y5004368D01*
X5715027Y5008250D01*
X5724097Y5012790D01*
X5732820Y5017966D01*
X5741152Y5023750D01*
X5749049Y5030115D01*
X5756473Y5037027D01*
X5763385Y5044450D01*
X5769749Y5052348D01*
X5775534Y5060680D01*
X5780710Y5069403D01*
X5785250Y5078473D01*
X5789132Y5087844D01*
X5792335Y5097468D01*
X5794843Y5107296D01*
X5796644Y5117278D01*
X5797729Y5127363D01*
X5798091Y5137500D01*
Y5253500D01*
X5797729Y5263636D01*
X5796644Y5273721D01*
X5794843Y5283703D01*
X5792335Y5293531D01*
X5789132Y5303155D01*
X5785250Y5312526D01*
X5780710Y5321596D01*
X5775534Y5330319D01*
X5769749Y5338651D01*
X5763385Y5346549D01*
X5756473Y5353973D01*
X5749049Y5360884D01*
X5741152Y5367249D01*
X5732820Y5373033D01*
X5724097Y5378209D01*
X5715027Y5382749D01*
X5705656Y5386631D01*
X5696032Y5389834D01*
X5686204Y5392343D01*
X5676222Y5394144D01*
X5666137Y5395228D01*
X5656000Y5395590D01*
D02*
G37*
G36*
X4244000D02*
X4233863Y5395228D01*
X4223778Y5394144D01*
X4213796Y5392343D01*
X4203968Y5389834D01*
X4194344Y5386631D01*
X4184973Y5382749D01*
X4175903Y5378209D01*
X4167180Y5373033D01*
X4158848Y5367249D01*
X4150951Y5360884D01*
X4143527Y5353973D01*
X4136615Y5346549D01*
X4130251Y5338651D01*
X4124466Y5330319D01*
X4119290Y5321596D01*
X4114750Y5312526D01*
X4110868Y5303155D01*
X4107665Y5293531D01*
X4105157Y5283703D01*
X4103356Y5273721D01*
X4102271Y5263636D01*
X4101910Y5253500D01*
Y5137500D01*
X4102271Y5127363D01*
X4103356Y5117278D01*
X4105157Y5107296D01*
X4107665Y5097468D01*
X4110868Y5087844D01*
X4114750Y5078473D01*
X4119290Y5069403D01*
X4124466Y5060680D01*
X4130251Y5052348D01*
X4136615Y5044450D01*
X4143527Y5037027D01*
X4150951Y5030115D01*
X4158848Y5023750D01*
X4167180Y5017966D01*
X4175903Y5012790D01*
X4184973Y5008250D01*
X4194344Y5004368D01*
X4203968Y5001165D01*
X4213796Y4998656D01*
X4223778Y4996856D01*
X4233863Y4995771D01*
X4244000Y4995409D01*
X4254137Y4995771D01*
X4264221Y4996856D01*
X4274203Y4998656D01*
X4284031Y5001165D01*
X4293655Y5004368D01*
X4303026Y5008250D01*
X4312097Y5012790D01*
X4320820Y5017966D01*
X4329152Y5023750D01*
X4337049Y5030115D01*
X4344473Y5037027D01*
X4351385Y5044450D01*
X4357749Y5052348D01*
X4363534Y5060680D01*
X4368710Y5069403D01*
X4373250Y5078473D01*
X4377131Y5087844D01*
X4380335Y5097468D01*
X4382843Y5107296D01*
X4384644Y5117278D01*
X4385728Y5127363D01*
X4386090Y5137500D01*
Y5253500D01*
X4385728Y5263636D01*
X4384644Y5273721D01*
X4382843Y5283703D01*
X4380335Y5293531D01*
X4377131Y5303155D01*
X4373250Y5312526D01*
X4368710Y5321596D01*
X4363534Y5330319D01*
X4357749Y5338651D01*
X4351385Y5346549D01*
X4344473Y5353973D01*
X4337049Y5360884D01*
X4329152Y5367249D01*
X4320820Y5373033D01*
X4312097Y5378209D01*
X4303026Y5382749D01*
X4293655Y5386631D01*
X4284031Y5389834D01*
X4274203Y5392343D01*
X4264221Y5394144D01*
X4254137Y5395228D01*
X4244000Y5395590D01*
D02*
G37*
G36*
X3156000D02*
X3145863Y5395228D01*
X3135779Y5394144D01*
X3125797Y5392343D01*
X3115969Y5389834D01*
X3106345Y5386631D01*
X3096973Y5382749D01*
X3087903Y5378209D01*
X3079180Y5373033D01*
X3070848Y5367249D01*
X3062951Y5360884D01*
X3055527Y5353973D01*
X3048615Y5346549D01*
X3042251Y5338651D01*
X3036466Y5330319D01*
X3031290Y5321596D01*
X3026750Y5312526D01*
X3022868Y5303155D01*
X3019665Y5293531D01*
X3017157Y5283703D01*
X3015356Y5273721D01*
X3014272Y5263636D01*
X3013910Y5253500D01*
Y5137500D01*
X3014272Y5127363D01*
X3015356Y5117278D01*
X3017157Y5107296D01*
X3019665Y5097468D01*
X3022868Y5087844D01*
X3026750Y5078473D01*
X3031290Y5069403D01*
X3036466Y5060680D01*
X3042251Y5052348D01*
X3048615Y5044450D01*
X3055527Y5037027D01*
X3062951Y5030115D01*
X3070848Y5023750D01*
X3079180Y5017966D01*
X3087903Y5012790D01*
X3096973Y5008250D01*
X3106345Y5004368D01*
X3115969Y5001165D01*
X3125797Y4998656D01*
X3135779Y4996856D01*
X3145863Y4995771D01*
X3156000Y4995409D01*
X3166137Y4995771D01*
X3176221Y4996856D01*
X3186203Y4998656D01*
X3196031Y5001165D01*
X3205656Y5004368D01*
X3215027Y5008250D01*
X3224097Y5012790D01*
X3232820Y5017966D01*
X3241152Y5023750D01*
X3249049Y5030115D01*
X3256473Y5037027D01*
X3263385Y5044450D01*
X3269749Y5052348D01*
X3275534Y5060680D01*
X3280710Y5069403D01*
X3285250Y5078473D01*
X3289132Y5087844D01*
X3292335Y5097468D01*
X3294843Y5107296D01*
X3296644Y5117278D01*
X3297728Y5127363D01*
X3298090Y5137500D01*
Y5253500D01*
X3297728Y5263636D01*
X3296644Y5273721D01*
X3294843Y5283703D01*
X3292335Y5293531D01*
X3289132Y5303155D01*
X3285250Y5312526D01*
X3280710Y5321596D01*
X3275534Y5330319D01*
X3269749Y5338651D01*
X3263385Y5346549D01*
X3256473Y5353973D01*
X3249049Y5360884D01*
X3241152Y5367249D01*
X3232820Y5373033D01*
X3224097Y5378209D01*
X3215027Y5382749D01*
X3205656Y5386631D01*
X3196031Y5389834D01*
X3186203Y5392343D01*
X3176221Y5394144D01*
X3166137Y5395228D01*
X3156000Y5395590D01*
D02*
G37*
G36*
X7572808Y4555000D02*
X7567192D01*
X7561611Y4554371D01*
X7556136Y4553121D01*
X7550836Y4551266D01*
X7545776Y4548830D01*
X7541021Y4545842D01*
X7536630Y4542341D01*
X7532659Y4538370D01*
X7529158Y4533979D01*
X7526170Y4529224D01*
X7523733Y4524164D01*
X7521879Y4518863D01*
X7520629Y4513388D01*
X7520000Y4507808D01*
Y4502192D01*
X7520629Y4496611D01*
X7520995Y4495006D01*
X7333574Y4307585D01*
X6180711D01*
X6176395Y4307245D01*
X6172186Y4306235D01*
X6168187Y4304578D01*
X6164496Y4302317D01*
X6161205Y4299505D01*
X6040494Y4178795D01*
X6037683Y4175503D01*
X6035422Y4171813D01*
X6033765Y4167814D01*
X6032755Y4163605D01*
X6032415Y4159289D01*
Y3398750D01*
X5961250Y3327585D01*
X5750000D01*
X5745685Y3327245D01*
X5741476Y3326235D01*
X5737477Y3324579D01*
X5733786Y3322317D01*
X5730495Y3319505D01*
X5660350Y3249361D01*
X5657369Y3252341D01*
X5652979Y3255842D01*
X5648224Y3258830D01*
X5643164Y3261267D01*
X5637863Y3263121D01*
X5632388Y3264371D01*
X5626808Y3265000D01*
X5621192D01*
X5615611Y3264371D01*
X5610136Y3263121D01*
X5604835Y3261267D01*
X5599776Y3258830D01*
X5595021Y3255842D01*
X5590630Y3252341D01*
X5586659Y3248370D01*
X5583157Y3243979D01*
X5582281Y3242585D01*
X5447518D01*
X5425597Y3264506D01*
X5422306Y3267317D01*
X5418615Y3269579D01*
X5414616Y3271235D01*
X5410407Y3272246D01*
X5406092Y3272585D01*
X5241718D01*
X5240842Y3273979D01*
X5237341Y3278370D01*
X5233370Y3282341D01*
X5228979Y3285843D01*
X5224224Y3288830D01*
X5219164Y3291267D01*
X5213864Y3293122D01*
X5208389Y3294371D01*
X5202808Y3295000D01*
X5197192D01*
X5191611Y3294371D01*
X5186136Y3293122D01*
X5180836Y3291267D01*
X5175776Y3288830D01*
X5171021Y3285843D01*
X5166630Y3282341D01*
X5162659Y3278370D01*
X5159158Y3273979D01*
X5156170Y3269224D01*
X5153733Y3264165D01*
X5151879Y3258864D01*
X5150629Y3253389D01*
X5150000Y3247808D01*
Y3242192D01*
X5150629Y3236612D01*
X5151879Y3231137D01*
X5153733Y3225836D01*
X5156170Y3220776D01*
X5159158Y3216021D01*
X5162659Y3211631D01*
X5166630Y3207660D01*
X5171021Y3204158D01*
X5175776Y3201170D01*
X5180836Y3198734D01*
X5186136Y3196879D01*
X5191611Y3195629D01*
X5197192Y3195000D01*
X5202808D01*
X5208389Y3195629D01*
X5213864Y3196879D01*
X5219164Y3198734D01*
X5224224Y3201170D01*
X5228979Y3204158D01*
X5233370Y3207660D01*
X5237341Y3211631D01*
X5240842Y3216021D01*
X5241718Y3217415D01*
X5394666D01*
X5416587Y3195494D01*
X5419878Y3192683D01*
X5423569Y3190421D01*
X5427568Y3188765D01*
X5431777Y3187754D01*
X5436092Y3187415D01*
X5582281D01*
X5583157Y3186021D01*
X5586659Y3181630D01*
X5590630Y3177659D01*
X5595021Y3174158D01*
X5599776Y3171170D01*
X5604835Y3168733D01*
X5610136Y3166879D01*
X5615611Y3165629D01*
X5621192Y3165000D01*
X5626808D01*
X5632388Y3165629D01*
X5637863Y3166879D01*
X5643164Y3168733D01*
X5648224Y3171170D01*
X5652979Y3174158D01*
X5657369Y3177659D01*
X5661340Y3181630D01*
X5664842Y3186021D01*
X5665755Y3187474D01*
X5669315Y3187755D01*
X5673524Y3188765D01*
X5677523Y3190422D01*
X5681214Y3192683D01*
X5684505Y3195494D01*
X5761426Y3272415D01*
X5972676D01*
X5976991Y3272755D01*
X5981200Y3273765D01*
X5985199Y3275422D01*
X5988890Y3277683D01*
X5992181Y3280495D01*
X6079505Y3367819D01*
X6082317Y3371110D01*
X6084578Y3374801D01*
X6086235Y3378800D01*
X6087245Y3383009D01*
X6087585Y3387324D01*
Y4147863D01*
X6192137Y4252415D01*
X7345000D01*
X7349315Y4252755D01*
X7353524Y4253765D01*
X7357523Y4255422D01*
X7361214Y4257683D01*
X7364505Y4260495D01*
X7560006Y4455995D01*
X7561611Y4455629D01*
X7567192Y4455000D01*
X7572808D01*
X7578388Y4455629D01*
X7583863Y4456879D01*
X7589164Y4458733D01*
X7594224Y4461170D01*
X7598979Y4464158D01*
X7603370Y4467659D01*
X7607341Y4471630D01*
X7610842Y4476021D01*
X7613830Y4480776D01*
X7616266Y4485836D01*
X7618121Y4491136D01*
X7619371Y4496611D01*
X7620000Y4502192D01*
Y4507808D01*
X7619371Y4513388D01*
X7618121Y4518863D01*
X7616266Y4524164D01*
X7613830Y4529224D01*
X7610842Y4533979D01*
X7607341Y4538370D01*
X7603370Y4542341D01*
X7598979Y4545842D01*
X7594224Y4548830D01*
X7589164Y4551266D01*
X7583863Y4553121D01*
X7578388Y4554371D01*
X7572808Y4555000D01*
D02*
G37*
G36*
X913689Y4409561D02*
X908073D01*
X902492Y4408933D01*
X897018Y4407683D01*
X891717Y4405828D01*
X886657Y4403391D01*
X881902Y4400404D01*
X877511Y4396902D01*
X873540Y4392931D01*
X870039Y4388541D01*
X867051Y4383785D01*
X864614Y4378726D01*
X862760Y4373425D01*
X861510Y4367950D01*
X860881Y4362369D01*
Y4356754D01*
X861510Y4351173D01*
X862760Y4345698D01*
X864614Y4340397D01*
X867051Y4335338D01*
X870039Y4330582D01*
X873540Y4326192D01*
X877511Y4322221D01*
X881902Y4318719D01*
X886657Y4315732D01*
X891717Y4313295D01*
X897018Y4311440D01*
X902492Y4310191D01*
X908073Y4309562D01*
X913689D01*
X919270Y4310191D01*
X924745Y4311440D01*
X930045Y4313295D01*
X935105Y4315732D01*
X939860Y4318719D01*
X944251Y4322221D01*
X948222Y4326192D01*
X951723Y4330582D01*
X954711Y4335338D01*
X957148Y4340397D01*
X959002Y4345698D01*
X960252Y4351173D01*
X960881Y4356754D01*
Y4362369D01*
X960252Y4367950D01*
X959002Y4373425D01*
X957148Y4378726D01*
X954711Y4383785D01*
X951723Y4388541D01*
X948222Y4392931D01*
X944251Y4396902D01*
X939860Y4400404D01*
X935105Y4403391D01*
X930045Y4405828D01*
X924745Y4407683D01*
X919270Y4408933D01*
X913689Y4409561D01*
D02*
G37*
G36*
X5374656Y4307574D02*
X5369040D01*
X5363460Y4306945D01*
X5357985Y4305695D01*
X5352684Y4303841D01*
X5347624Y4301404D01*
X5342869Y4298416D01*
X5338479Y4294915D01*
X5334507Y4290944D01*
X5331006Y4286553D01*
X5328018Y4281798D01*
X5325582Y4276738D01*
X5323727Y4271438D01*
X5322477Y4265963D01*
X5321848Y4260382D01*
Y4254766D01*
X5322477Y4249186D01*
X5323727Y4243711D01*
X5325582Y4238410D01*
X5328018Y4233350D01*
X5331006Y4228595D01*
X5334507Y4224204D01*
X5338479Y4220233D01*
X5342869Y4216732D01*
X5344264Y4215856D01*
Y4188208D01*
X5343489Y4186090D01*
X5337267Y4179868D01*
X5335149Y4179093D01*
X5307500D01*
X5306624Y4180487D01*
X5303123Y4184878D01*
X5299152Y4188849D01*
X5294761Y4192350D01*
X5290006Y4195338D01*
X5284947Y4197775D01*
X5279646Y4199629D01*
X5274171Y4200879D01*
X5268590Y4201508D01*
X5262974D01*
X5257394Y4200879D01*
X5251919Y4199629D01*
X5246618Y4197775D01*
X5241558Y4195338D01*
X5236803Y4192350D01*
X5232412Y4188849D01*
X5228441Y4184878D01*
X5224940Y4180487D01*
X5221952Y4175732D01*
X5219516Y4170672D01*
X5217661Y4165372D01*
X5216411Y4159897D01*
X5215782Y4154316D01*
Y4148700D01*
X5216411Y4143119D01*
X5217661Y4137645D01*
X5219516Y4132344D01*
X5221952Y4127284D01*
X5224940Y4122529D01*
X5228441Y4118138D01*
X5232412Y4114167D01*
X5236803Y4110666D01*
X5241558Y4107678D01*
X5246618Y4105241D01*
X5251919Y4103387D01*
X5257394Y4102137D01*
X5262974Y4101508D01*
X5268590D01*
X5274171Y4102137D01*
X5279646Y4103387D01*
X5284947Y4105241D01*
X5290006Y4107678D01*
X5294761Y4110666D01*
X5299152Y4114167D01*
X5303123Y4118138D01*
X5306624Y4122529D01*
X5307500Y4123923D01*
X5325067D01*
X5441415Y4007575D01*
Y3816426D01*
X5426494Y3801504D01*
X5424889Y3801871D01*
X5419308Y3802500D01*
X5413692D01*
X5408112Y3801871D01*
X5402637Y3800621D01*
X5397336Y3798766D01*
X5392276Y3796330D01*
X5387521Y3793342D01*
X5383130Y3789841D01*
X5379159Y3785869D01*
X5375658Y3781479D01*
X5372670Y3776724D01*
X5370234Y3771664D01*
X5368379Y3766363D01*
X5367129Y3760888D01*
X5366500Y3755308D01*
Y3749692D01*
X5367129Y3744111D01*
X5368379Y3738636D01*
X5370234Y3733335D01*
X5372670Y3728276D01*
X5375658Y3723521D01*
X5379159Y3719130D01*
X5383130Y3715159D01*
X5387521Y3711658D01*
X5392276Y3708670D01*
X5397336Y3706233D01*
X5402637Y3704378D01*
X5408112Y3703129D01*
X5413692Y3702500D01*
X5419308D01*
X5424889Y3703129D01*
X5430364Y3704378D01*
X5435665Y3706233D01*
X5440724Y3708670D01*
X5445479Y3711658D01*
X5449870Y3715159D01*
X5453841Y3719130D01*
X5457342Y3723521D01*
X5460330Y3728276D01*
X5462767Y3733335D01*
X5464622Y3738636D01*
X5465871Y3744111D01*
X5466500Y3749692D01*
Y3755308D01*
X5465871Y3760888D01*
X5465505Y3762493D01*
X5487555Y3784543D01*
X5489601Y3785494D01*
X5498400D01*
X5500446Y3784544D01*
X5522495Y3762494D01*
X5522129Y3760888D01*
X5521500Y3755308D01*
Y3749692D01*
X5522129Y3744111D01*
X5523379Y3738636D01*
X5525234Y3733335D01*
X5527670Y3728276D01*
X5530658Y3723521D01*
X5534159Y3719130D01*
X5538130Y3715159D01*
X5542521Y3711658D01*
X5547276Y3708670D01*
X5552336Y3706233D01*
X5557637Y3704378D01*
X5563112Y3703129D01*
X5568692Y3702500D01*
X5574308D01*
X5579889Y3703129D01*
X5585364Y3704378D01*
X5590664Y3706233D01*
X5595724Y3708670D01*
X5600479Y3711658D01*
X5604870Y3715159D01*
X5608841Y3719130D01*
X5612342Y3723521D01*
X5615330Y3728276D01*
X5617767Y3733335D01*
X5619621Y3738636D01*
X5620871Y3744111D01*
X5621500Y3749692D01*
Y3755308D01*
X5620871Y3760888D01*
X5619621Y3766363D01*
X5617767Y3771664D01*
X5615330Y3776724D01*
X5612342Y3781479D01*
X5608841Y3785869D01*
X5604870Y3789841D01*
X5600479Y3793342D01*
X5595724Y3796330D01*
X5590664Y3798766D01*
X5585364Y3800621D01*
X5579889Y3801871D01*
X5574308Y3802500D01*
X5568692D01*
X5563112Y3801871D01*
X5561507Y3801504D01*
X5546585Y3816426D01*
Y4039712D01*
X5546246Y4044027D01*
X5545235Y4048236D01*
X5543579Y4052235D01*
X5541317Y4055926D01*
X5538506Y4059217D01*
X5399433Y4198290D01*
Y4215856D01*
X5400827Y4216732D01*
X5405218Y4220233D01*
X5409189Y4224204D01*
X5412690Y4228595D01*
X5415678Y4233350D01*
X5418115Y4238410D01*
X5419970Y4243711D01*
X5421219Y4249186D01*
X5421848Y4254766D01*
Y4260382D01*
X5421219Y4265963D01*
X5419970Y4271438D01*
X5418115Y4276738D01*
X5415678Y4281798D01*
X5412690Y4286553D01*
X5409189Y4290944D01*
X5405218Y4294915D01*
X5400827Y4298416D01*
X5396072Y4301404D01*
X5391013Y4303841D01*
X5385712Y4305695D01*
X5380237Y4306945D01*
X5374656Y4307574D01*
D02*
G37*
G36*
X7572808Y4145000D02*
X7567192D01*
X7561611Y4144371D01*
X7556137Y4143121D01*
X7550836Y4141267D01*
X7545776Y4138830D01*
X7541021Y4135842D01*
X7536630Y4132341D01*
X7532659Y4128370D01*
X7529158Y4123979D01*
X7526170Y4119224D01*
X7523733Y4114164D01*
X7521879Y4108864D01*
X7520629Y4103389D01*
X7520000Y4097808D01*
Y4092192D01*
X7520629Y4086611D01*
X7521879Y4081136D01*
X7523733Y4075836D01*
X7526170Y4070776D01*
X7529158Y4066021D01*
X7532659Y4061630D01*
X7536630Y4057659D01*
X7541021Y4054158D01*
X7545776Y4051170D01*
X7550836Y4048733D01*
X7556137Y4046879D01*
X7561611Y4045629D01*
X7567192Y4045000D01*
X7572808D01*
X7578389Y4045629D01*
X7583864Y4046879D01*
X7589164Y4048733D01*
X7594224Y4051170D01*
X7598979Y4054158D01*
X7603370Y4057659D01*
X7607341Y4061630D01*
X7610842Y4066021D01*
X7613830Y4070776D01*
X7616267Y4075836D01*
X7618121Y4081136D01*
X7619371Y4086611D01*
X7620000Y4092192D01*
Y4097808D01*
X7619371Y4103389D01*
X7618121Y4108864D01*
X7616267Y4114164D01*
X7613830Y4119224D01*
X7610842Y4123979D01*
X7607341Y4128370D01*
X7603370Y4132341D01*
X7598979Y4135842D01*
X7594224Y4138830D01*
X7589164Y4141267D01*
X7583864Y4143121D01*
X7578389Y4144371D01*
X7572808Y4145000D01*
D02*
G37*
G36*
X2002808Y4040000D02*
X1997192D01*
X1991611Y4039371D01*
X1986136Y4038121D01*
X1980836Y4036267D01*
X1975776Y4033830D01*
X1971021Y4030842D01*
X1966630Y4027341D01*
X1962659Y4023370D01*
X1959158Y4018979D01*
X1956170Y4014224D01*
X1955458Y4012744D01*
X1954796Y4012487D01*
X1945204D01*
X1944542Y4012744D01*
X1943830Y4014224D01*
X1940842Y4018979D01*
X1937341Y4023370D01*
X1933370Y4027341D01*
X1928979Y4030842D01*
X1924224Y4033830D01*
X1919164Y4036267D01*
X1913864Y4038121D01*
X1908389Y4039371D01*
X1902808Y4040000D01*
X1897192D01*
X1891611Y4039371D01*
X1886136Y4038121D01*
X1880836Y4036267D01*
X1875776Y4033830D01*
X1871021Y4030842D01*
X1866630Y4027341D01*
X1862659Y4023370D01*
X1859158Y4018979D01*
X1856170Y4014224D01*
X1853733Y4009164D01*
X1851879Y4003863D01*
X1850629Y3998388D01*
X1850000Y3992808D01*
Y3987192D01*
X1850629Y3981611D01*
X1851879Y3976136D01*
X1853733Y3970836D01*
X1856170Y3965776D01*
X1859158Y3961021D01*
X1862659Y3956630D01*
X1866630Y3952659D01*
X1871021Y3949158D01*
X1875776Y3946170D01*
X1880836Y3943733D01*
X1886136Y3941879D01*
X1891611Y3940629D01*
X1897192Y3940000D01*
X1902808D01*
X1908389Y3940629D01*
X1913864Y3941879D01*
X1919164Y3943733D01*
X1924224Y3946170D01*
X1928979Y3949158D01*
X1933370Y3952659D01*
X1937341Y3956630D01*
X1940842Y3961021D01*
X1943830Y3965776D01*
X1944542Y3967255D01*
X1945204Y3967513D01*
X1954796D01*
X1955458Y3967255D01*
X1956170Y3965776D01*
X1959158Y3961021D01*
X1962659Y3956630D01*
X1966630Y3952659D01*
X1971021Y3949158D01*
X1975776Y3946170D01*
X1977256Y3945457D01*
X1977513Y3944796D01*
Y3935204D01*
X1977256Y3934542D01*
X1975776Y3933830D01*
X1971021Y3930842D01*
X1966630Y3927341D01*
X1962659Y3923370D01*
X1959158Y3918979D01*
X1956170Y3914224D01*
X1953733Y3909164D01*
X1951879Y3903863D01*
X1950629Y3898388D01*
X1950000Y3892808D01*
Y3887192D01*
X1950629Y3881611D01*
X1951879Y3876136D01*
X1953733Y3870836D01*
X1956170Y3865776D01*
X1959158Y3861021D01*
X1962659Y3856630D01*
X1966630Y3852659D01*
X1971021Y3849158D01*
X1975776Y3846170D01*
X1980836Y3843733D01*
X1986136Y3841879D01*
X1991611Y3840629D01*
X1996369Y3840092D01*
X1995807Y3830093D01*
X1930000D01*
X1925292Y3829722D01*
X1920701Y3828620D01*
X1916338Y3826813D01*
X1912312Y3824345D01*
X1908721Y3821279D01*
X1877535Y3790093D01*
X717008D01*
X712301Y3789722D01*
X707709Y3788620D01*
X703347Y3786813D01*
X699320Y3784345D01*
X695730Y3781279D01*
X594544Y3680092D01*
X549454D01*
X546840Y3683370D01*
X542869Y3687341D01*
X538478Y3690842D01*
X533723Y3693830D01*
X528664Y3696266D01*
X523363Y3698121D01*
X517888Y3699371D01*
X512307Y3700000D01*
X506691D01*
X501111Y3699371D01*
X495636Y3698121D01*
X490335Y3696266D01*
X485275Y3693830D01*
X480520Y3690842D01*
X476130Y3687341D01*
X472159Y3683370D01*
X468657Y3678979D01*
X465669Y3674224D01*
X463233Y3669164D01*
X461378Y3663863D01*
X460128Y3658388D01*
X459499Y3652808D01*
Y3647192D01*
X460128Y3641611D01*
X461378Y3636136D01*
X463233Y3630836D01*
X465669Y3625776D01*
X468657Y3621021D01*
X472159Y3616630D01*
X476130Y3612659D01*
X480520Y3609158D01*
X485275Y3606170D01*
X490335Y3603733D01*
X495636Y3601878D01*
X501111Y3600629D01*
X506691Y3600000D01*
X512307D01*
X517888Y3600629D01*
X523363Y3601878D01*
X528664Y3603733D01*
X533723Y3606170D01*
X538478Y3609158D01*
X542869Y3612659D01*
X546840Y3616630D01*
X549454Y3619907D01*
X607008D01*
X611716Y3620278D01*
X616307Y3621380D01*
X620670Y3623187D01*
X624696Y3625654D01*
X628287Y3628721D01*
X729473Y3729907D01*
X868933D01*
X873809Y3721183D01*
X873779Y3719907D01*
X870011Y3716903D01*
X866040Y3712932D01*
X862539Y3708541D01*
X859551Y3703786D01*
X857114Y3698726D01*
X855260Y3693425D01*
X854010Y3687950D01*
X853381Y3682370D01*
Y3676754D01*
X854010Y3671173D01*
X855260Y3665698D01*
X857114Y3660398D01*
X859551Y3655338D01*
X862539Y3650583D01*
X866040Y3646192D01*
X870011Y3642221D01*
X874402Y3638720D01*
X879157Y3635732D01*
X884217Y3633295D01*
X889517Y3631441D01*
X894992Y3630191D01*
X900573Y3629562D01*
X906189D01*
X911770Y3630191D01*
X917245Y3631441D01*
X922545Y3633295D01*
X927605Y3635732D01*
X932360Y3638720D01*
X936751Y3642221D01*
X940722Y3646192D01*
X944223Y3650583D01*
X947211Y3655338D01*
X949648Y3660398D01*
X951502Y3665698D01*
X952752Y3671173D01*
X953381Y3676754D01*
Y3682370D01*
X952752Y3687950D01*
X951502Y3693425D01*
X949648Y3698726D01*
X947211Y3703786D01*
X944223Y3708541D01*
X940722Y3712932D01*
X936751Y3716903D01*
X932983Y3719907D01*
X932953Y3721183D01*
X937828Y3729907D01*
X1890000D01*
X1894708Y3730278D01*
X1899299Y3731380D01*
X1903662Y3733187D01*
X1907688Y3735655D01*
X1911279Y3738722D01*
X1942465Y3769907D01*
X2085000D01*
X2089707Y3770278D01*
X2094299Y3771380D01*
X2098662Y3773187D01*
X2102688Y3775655D01*
X2106278Y3778721D01*
X2143027Y3815470D01*
X2147192Y3815000D01*
X2152808D01*
X2158389Y3815629D01*
X2163864Y3816879D01*
X2169164Y3818734D01*
X2174224Y3821170D01*
X2178979Y3824158D01*
X2183370Y3827660D01*
X2187341Y3831631D01*
X2190842Y3836021D01*
X2193830Y3840776D01*
X2196267Y3845836D01*
X2198121Y3851137D01*
X2199371Y3856612D01*
X2200000Y3862192D01*
Y3867808D01*
X2199371Y3873389D01*
X2198121Y3878864D01*
X2196267Y3884165D01*
X2193830Y3889224D01*
X2190842Y3893980D01*
X2187341Y3898370D01*
X2183370Y3902341D01*
X2178979Y3905843D01*
X2174224Y3908830D01*
X2169164Y3911267D01*
X2163864Y3913122D01*
X2158389Y3914371D01*
X2152808Y3915000D01*
X2147192D01*
X2141611Y3914371D01*
X2136136Y3913122D01*
X2130836Y3911267D01*
X2125776Y3908830D01*
X2121021Y3905843D01*
X2116630Y3902341D01*
X2112659Y3898370D01*
X2109158Y3893980D01*
X2106170Y3889224D01*
X2103733Y3884165D01*
X2101879Y3878864D01*
X2100629Y3873389D01*
X2100000Y3867808D01*
Y3862192D01*
X2100470Y3858027D01*
X2072535Y3830093D01*
X2004193D01*
X2003631Y3840092D01*
X2008389Y3840629D01*
X2013864Y3841879D01*
X2019164Y3843733D01*
X2024224Y3846170D01*
X2028979Y3849158D01*
X2033370Y3852659D01*
X2037341Y3856630D01*
X2040842Y3861021D01*
X2043830Y3865776D01*
X2046267Y3870836D01*
X2048121Y3876136D01*
X2049371Y3881611D01*
X2050000Y3887192D01*
Y3892808D01*
X2049371Y3898388D01*
X2048121Y3903863D01*
X2046267Y3909164D01*
X2043830Y3914224D01*
X2040842Y3918979D01*
X2037341Y3923370D01*
X2033370Y3927341D01*
X2028979Y3930842D01*
X2024224Y3933830D01*
X2022744Y3934542D01*
X2022487Y3935204D01*
Y3944796D01*
X2022744Y3945457D01*
X2024224Y3946170D01*
X2028979Y3949158D01*
X2033370Y3952659D01*
X2037341Y3956630D01*
X2040842Y3961021D01*
X2043830Y3965776D01*
X2046267Y3970836D01*
X2048121Y3976136D01*
X2049371Y3981611D01*
X2050000Y3987192D01*
Y3992808D01*
X2049371Y3998388D01*
X2048121Y4003863D01*
X2046267Y4009164D01*
X2043830Y4014224D01*
X2040842Y4018979D01*
X2037341Y4023370D01*
X2033370Y4027341D01*
X2028979Y4030842D01*
X2024224Y4033830D01*
X2019164Y4036267D01*
X2013864Y4038121D01*
X2008389Y4039371D01*
X2002808Y4040000D01*
D02*
G37*
G36*
X7702808Y3992500D02*
X7697192D01*
X7691611Y3991871D01*
X7686137Y3990621D01*
X7680836Y3988766D01*
X7675776Y3986330D01*
X7671021Y3983342D01*
X7666630Y3979841D01*
X7662659Y3975870D01*
X7659158Y3971479D01*
X7656170Y3966724D01*
X7653733Y3961664D01*
X7651879Y3956363D01*
X7650629Y3950888D01*
X7650000Y3945308D01*
Y3939692D01*
X7650629Y3934111D01*
X7651879Y3928636D01*
X7653733Y3923336D01*
X7656170Y3918276D01*
X7659158Y3913521D01*
X7662659Y3909130D01*
X7666630Y3905159D01*
X7671021Y3901658D01*
X7675776Y3898670D01*
X7680836Y3896233D01*
X7686137Y3894379D01*
X7691611Y3893129D01*
X7697192Y3892500D01*
X7702808D01*
X7708389Y3893129D01*
X7713864Y3894379D01*
X7719164Y3896233D01*
X7724224Y3898670D01*
X7728979Y3901658D01*
X7733370Y3905159D01*
X7737341Y3909130D01*
X7740842Y3913521D01*
X7743830Y3918276D01*
X7746267Y3923336D01*
X7748121Y3928636D01*
X7749371Y3934111D01*
X7750000Y3939692D01*
Y3945308D01*
X7749371Y3950888D01*
X7748121Y3956363D01*
X7746267Y3961664D01*
X7743830Y3966724D01*
X7740842Y3971479D01*
X7737341Y3975870D01*
X7733370Y3979841D01*
X7728979Y3983342D01*
X7724224Y3986330D01*
X7719164Y3988766D01*
X7713864Y3990621D01*
X7708389Y3991871D01*
X7702808Y3992500D01*
D02*
G37*
G36*
X1186189Y3699562D02*
X1180573D01*
X1174993Y3698933D01*
X1169518Y3697683D01*
X1164217Y3695828D01*
X1159157Y3693392D01*
X1154402Y3690404D01*
X1150011Y3686902D01*
X1146040Y3682931D01*
X1142539Y3678541D01*
X1139551Y3673786D01*
X1137115Y3668726D01*
X1135260Y3663425D01*
X1134010Y3657950D01*
X1133381Y3652370D01*
Y3646754D01*
X1134010Y3641173D01*
X1135260Y3635698D01*
X1137115Y3630397D01*
X1139551Y3625338D01*
X1142539Y3620583D01*
X1146040Y3616192D01*
X1150011Y3612221D01*
X1154402Y3608719D01*
X1159157Y3605732D01*
X1164217Y3603295D01*
X1169518Y3601440D01*
X1174993Y3600191D01*
X1180573Y3599562D01*
X1186189D01*
X1191770Y3600191D01*
X1197245Y3601440D01*
X1202545Y3603295D01*
X1207605Y3605732D01*
X1212360Y3608719D01*
X1216751Y3612221D01*
X1220722Y3616192D01*
X1224223Y3620583D01*
X1227211Y3625338D01*
X1229648Y3630397D01*
X1231502Y3635698D01*
X1232752Y3641173D01*
X1233381Y3646754D01*
Y3652370D01*
X1232752Y3657950D01*
X1231502Y3663425D01*
X1229648Y3668726D01*
X1227211Y3673786D01*
X1224223Y3678541D01*
X1220722Y3682931D01*
X1216751Y3686902D01*
X1212360Y3690404D01*
X1207605Y3693392D01*
X1202545Y3695828D01*
X1197245Y3697683D01*
X1191770Y3698933D01*
X1186189Y3699562D01*
D02*
G37*
G36*
X390000Y3728000D02*
X110000D01*
Y3518000D01*
X390000D01*
Y3728000D01*
D02*
G37*
G36*
X903689Y3609562D02*
X898073D01*
X892493Y3608933D01*
X887018Y3607683D01*
X881717Y3605828D01*
X876657Y3603392D01*
X871902Y3600404D01*
X867512Y3596903D01*
X863541Y3592932D01*
X860039Y3588541D01*
X857051Y3583786D01*
X854615Y3578726D01*
X852760Y3573425D01*
X851510Y3567950D01*
X850881Y3562370D01*
Y3556754D01*
X851510Y3551173D01*
X852760Y3545698D01*
X854615Y3540398D01*
X857051Y3535338D01*
X860039Y3530583D01*
X863541Y3526192D01*
X867512Y3522221D01*
X871902Y3518720D01*
X876657Y3515732D01*
X881717Y3513295D01*
X887018Y3511441D01*
X892493Y3510191D01*
X898073Y3509562D01*
X903689D01*
X909270Y3510191D01*
X914745Y3511441D01*
X920046Y3513295D01*
X925105Y3515732D01*
X929860Y3518720D01*
X934251Y3522221D01*
X938222Y3526192D01*
X941724Y3530583D01*
X944711Y3535338D01*
X947148Y3540398D01*
X949003Y3545698D01*
X950252Y3551173D01*
X950881Y3556754D01*
Y3562370D01*
X950252Y3567950D01*
X949003Y3573425D01*
X947148Y3578726D01*
X944711Y3583786D01*
X941724Y3588541D01*
X938222Y3592932D01*
X934251Y3596903D01*
X929860Y3600404D01*
X925105Y3603392D01*
X920046Y3605828D01*
X914745Y3607683D01*
X909270Y3608933D01*
X903689Y3609562D01*
D02*
G37*
G36*
X1358689Y3479561D02*
X1353073D01*
X1347493Y3478933D01*
X1342018Y3477683D01*
X1336717Y3475828D01*
X1331657Y3473392D01*
X1326902Y3470404D01*
X1322512Y3466902D01*
X1318541Y3462931D01*
X1315039Y3458541D01*
X1312051Y3453786D01*
X1309615Y3448726D01*
X1307760Y3443425D01*
X1306510Y3437950D01*
X1305882Y3432370D01*
Y3426754D01*
X1306510Y3421173D01*
X1307760Y3415698D01*
X1309615Y3410397D01*
X1312051Y3405338D01*
X1315039Y3400582D01*
X1318541Y3396192D01*
X1322512Y3392221D01*
X1326902Y3388719D01*
X1331657Y3385732D01*
X1333137Y3385019D01*
X1333394Y3384358D01*
Y3374765D01*
X1333137Y3374104D01*
X1331657Y3373392D01*
X1326902Y3370404D01*
X1322512Y3366903D01*
X1318541Y3362932D01*
X1315039Y3358541D01*
X1312051Y3353786D01*
X1309615Y3348726D01*
X1307760Y3343425D01*
X1306510Y3337950D01*
X1305882Y3332370D01*
Y3326754D01*
X1306510Y3321173D01*
X1307760Y3315698D01*
X1309615Y3310397D01*
X1312051Y3305338D01*
X1315039Y3300583D01*
X1318541Y3296192D01*
X1322512Y3292221D01*
X1326902Y3288720D01*
X1331657Y3285732D01*
X1336717Y3283295D01*
X1342018Y3281440D01*
X1347493Y3280191D01*
X1353073Y3279562D01*
X1358689D01*
X1364270Y3280191D01*
X1369745Y3281440D01*
X1375046Y3283295D01*
X1380105Y3285732D01*
X1384861Y3288720D01*
X1389251Y3292221D01*
X1393222Y3296192D01*
X1396724Y3300583D01*
X1399711Y3305338D01*
X1402148Y3310397D01*
X1404003Y3315698D01*
X1405252Y3321173D01*
X1405881Y3326754D01*
Y3332370D01*
X1405252Y3337950D01*
X1404003Y3343425D01*
X1402148Y3348726D01*
X1399711Y3353786D01*
X1396724Y3358541D01*
X1393222Y3362932D01*
X1389251Y3366903D01*
X1384861Y3370404D01*
X1380105Y3373392D01*
X1378626Y3374104D01*
X1378369Y3374765D01*
Y3384358D01*
X1378626Y3385019D01*
X1380105Y3385732D01*
X1384861Y3388719D01*
X1389251Y3392221D01*
X1393222Y3396192D01*
X1396724Y3400582D01*
X1399711Y3405338D01*
X1402148Y3410397D01*
X1404003Y3415698D01*
X1405252Y3421173D01*
X1405881Y3426754D01*
Y3432370D01*
X1405252Y3437950D01*
X1404003Y3443425D01*
X1402148Y3448726D01*
X1399711Y3453786D01*
X1396724Y3458541D01*
X1393222Y3462931D01*
X1389251Y3466902D01*
X1384861Y3470404D01*
X1380105Y3473392D01*
X1375046Y3475828D01*
X1369745Y3477683D01*
X1364270Y3478933D01*
X1358689Y3479561D01*
D02*
G37*
G36*
X888689D02*
X883073D01*
X877493Y3478933D01*
X872018Y3477683D01*
X866717Y3475828D01*
X861657Y3473392D01*
X856902Y3470404D01*
X852512Y3466902D01*
X848541Y3462931D01*
X845039Y3458541D01*
X842051Y3453786D01*
X839615Y3448726D01*
X837760Y3443425D01*
X836510Y3437950D01*
X835881Y3432370D01*
Y3426754D01*
X836510Y3421173D01*
X837760Y3415698D01*
X839615Y3410397D01*
X842051Y3405338D01*
X845039Y3400582D01*
X848541Y3396192D01*
X852512Y3392221D01*
X856902Y3388719D01*
X861657Y3385732D01*
X863137Y3385019D01*
X863394Y3384358D01*
Y3374765D01*
X863137Y3374104D01*
X861657Y3373392D01*
X856902Y3370404D01*
X852512Y3366903D01*
X848541Y3362932D01*
X845039Y3358541D01*
X842051Y3353786D01*
X839615Y3348726D01*
X837760Y3343425D01*
X836510Y3337950D01*
X835881Y3332370D01*
Y3326754D01*
X836510Y3321173D01*
X837760Y3315698D01*
X839615Y3310397D01*
X842051Y3305338D01*
X845039Y3300583D01*
X848541Y3296192D01*
X852512Y3292221D01*
X856902Y3288720D01*
X861657Y3285732D01*
X866717Y3283295D01*
X872018Y3281440D01*
X877493Y3280191D01*
X883073Y3279562D01*
X888689D01*
X894270Y3280191D01*
X899745Y3281440D01*
X905046Y3283295D01*
X910105Y3285732D01*
X914861Y3288720D01*
X919251Y3292221D01*
X923222Y3296192D01*
X926724Y3300583D01*
X929711Y3305338D01*
X932148Y3310397D01*
X934003Y3315698D01*
X935252Y3321173D01*
X935881Y3326754D01*
Y3332370D01*
X935252Y3337950D01*
X934003Y3343425D01*
X932148Y3348726D01*
X929711Y3353786D01*
X926724Y3358541D01*
X923222Y3362932D01*
X919251Y3366903D01*
X914861Y3370404D01*
X910105Y3373392D01*
X908626Y3374104D01*
X908369Y3374765D01*
Y3384358D01*
X908626Y3385019D01*
X910105Y3385732D01*
X914861Y3388719D01*
X919251Y3392221D01*
X923222Y3396192D01*
X926724Y3400582D01*
X929711Y3405338D01*
X932148Y3410397D01*
X934003Y3415698D01*
X935252Y3421173D01*
X935881Y3426754D01*
Y3432370D01*
X935252Y3437950D01*
X934003Y3443425D01*
X932148Y3448726D01*
X929711Y3453786D01*
X926724Y3458541D01*
X923222Y3462931D01*
X919251Y3466902D01*
X914861Y3470404D01*
X910105Y3473392D01*
X905046Y3475828D01*
X899745Y3477683D01*
X894270Y3478933D01*
X888689Y3479561D01*
D02*
G37*
G36*
X1358689Y3239561D02*
X1353073D01*
X1347493Y3238933D01*
X1342018Y3237683D01*
X1336717Y3235828D01*
X1331657Y3233392D01*
X1326902Y3230404D01*
X1322511Y3226902D01*
X1318540Y3222931D01*
X1315039Y3218541D01*
X1312051Y3213786D01*
X1309615Y3208726D01*
X1307760Y3203425D01*
X1306510Y3197950D01*
X1305881Y3192370D01*
Y3186754D01*
X1306510Y3181173D01*
X1307760Y3175698D01*
X1309615Y3170397D01*
X1312051Y3165338D01*
X1315039Y3160582D01*
X1318540Y3156192D01*
X1322511Y3152221D01*
X1326902Y3148719D01*
X1331657Y3145732D01*
X1333137Y3145019D01*
X1333394Y3144358D01*
Y3134765D01*
X1333137Y3134104D01*
X1331657Y3133392D01*
X1326902Y3130404D01*
X1322511Y3126903D01*
X1318540Y3122932D01*
X1315039Y3118541D01*
X1312051Y3113786D01*
X1309615Y3108726D01*
X1307760Y3103425D01*
X1306510Y3097950D01*
X1305881Y3092370D01*
Y3086754D01*
X1306510Y3081173D01*
X1307760Y3075698D01*
X1309615Y3070397D01*
X1312051Y3065338D01*
X1315039Y3060583D01*
X1318540Y3056192D01*
X1322511Y3052221D01*
X1326902Y3048720D01*
X1331657Y3045732D01*
X1336717Y3043295D01*
X1342018Y3041440D01*
X1347493Y3040191D01*
X1353073Y3039562D01*
X1358689D01*
X1364270Y3040191D01*
X1369745Y3041440D01*
X1375046Y3043295D01*
X1380105Y3045732D01*
X1384860Y3048720D01*
X1389251Y3052221D01*
X1393222Y3056192D01*
X1396723Y3060583D01*
X1399711Y3065338D01*
X1402148Y3070397D01*
X1404003Y3075698D01*
X1405252Y3081173D01*
X1405881Y3086754D01*
Y3092370D01*
X1405252Y3097950D01*
X1404003Y3103425D01*
X1402148Y3108726D01*
X1399711Y3113786D01*
X1396723Y3118541D01*
X1393222Y3122932D01*
X1389251Y3126903D01*
X1384860Y3130404D01*
X1380105Y3133392D01*
X1378626Y3134104D01*
X1378368Y3134765D01*
Y3144358D01*
X1378626Y3145019D01*
X1380105Y3145732D01*
X1384860Y3148719D01*
X1389251Y3152221D01*
X1393222Y3156192D01*
X1396723Y3160582D01*
X1399711Y3165338D01*
X1402148Y3170397D01*
X1404003Y3175698D01*
X1405252Y3181173D01*
X1405881Y3186754D01*
Y3192370D01*
X1405252Y3197950D01*
X1404003Y3203425D01*
X1402148Y3208726D01*
X1399711Y3213786D01*
X1396723Y3218541D01*
X1393222Y3222931D01*
X1389251Y3226902D01*
X1384860Y3230404D01*
X1380105Y3233392D01*
X1375046Y3235828D01*
X1369745Y3237683D01*
X1364270Y3238933D01*
X1358689Y3239561D01*
D02*
G37*
G36*
X888689Y3239561D02*
X883073D01*
X877493Y3238932D01*
X872018Y3237683D01*
X866717Y3235828D01*
X861657Y3233391D01*
X856902Y3230403D01*
X852512Y3226902D01*
X848541Y3222931D01*
X845039Y3218540D01*
X842051Y3213785D01*
X839615Y3208726D01*
X837760Y3203425D01*
X836510Y3197950D01*
X835881Y3192369D01*
Y3186753D01*
X836510Y3181173D01*
X837760Y3175698D01*
X839615Y3170397D01*
X842051Y3165337D01*
X845039Y3160582D01*
X848541Y3156192D01*
X852512Y3152221D01*
X856902Y3148719D01*
X861657Y3145731D01*
X863137Y3145019D01*
X863394Y3144358D01*
Y3134765D01*
X863137Y3134104D01*
X861657Y3133391D01*
X856902Y3130404D01*
X852512Y3126902D01*
X848541Y3122931D01*
X845039Y3118541D01*
X842051Y3113785D01*
X839615Y3108726D01*
X837760Y3103425D01*
X836510Y3097950D01*
X835881Y3092369D01*
Y3086754D01*
X836510Y3081173D01*
X837760Y3075698D01*
X839615Y3070397D01*
X842051Y3065338D01*
X845039Y3060582D01*
X848541Y3056192D01*
X852512Y3052221D01*
X856902Y3048719D01*
X861657Y3045732D01*
X866717Y3043295D01*
X872018Y3041440D01*
X877493Y3040191D01*
X883073Y3039562D01*
X888689D01*
X894270Y3040191D01*
X899745Y3041440D01*
X905046Y3043295D01*
X910105Y3045732D01*
X914861Y3048719D01*
X919251Y3052221D01*
X923222Y3056192D01*
X926724Y3060582D01*
X929711Y3065338D01*
X932148Y3070397D01*
X934003Y3075698D01*
X935252Y3081173D01*
X935881Y3086754D01*
Y3092369D01*
X935252Y3097950D01*
X934003Y3103425D01*
X932148Y3108726D01*
X929711Y3113785D01*
X926724Y3118541D01*
X923222Y3122931D01*
X919251Y3126902D01*
X914861Y3130404D01*
X910105Y3133391D01*
X908626Y3134104D01*
X908369Y3134765D01*
Y3144358D01*
X908626Y3145019D01*
X910105Y3145731D01*
X914861Y3148719D01*
X919251Y3152221D01*
X923222Y3156192D01*
X926724Y3160582D01*
X929711Y3165337D01*
X932148Y3170397D01*
X934003Y3175698D01*
X935252Y3181173D01*
X935881Y3186753D01*
Y3192369D01*
X935252Y3197950D01*
X934003Y3203425D01*
X932148Y3208726D01*
X929711Y3213785D01*
X926724Y3218540D01*
X923222Y3222931D01*
X919251Y3226902D01*
X914861Y3230403D01*
X910105Y3233391D01*
X905046Y3235828D01*
X899745Y3237683D01*
X894270Y3238932D01*
X888689Y3239561D01*
D02*
G37*
G36*
X6880000Y3035097D02*
X6300000D01*
X6296079Y3034711D01*
X6292309Y3033567D01*
X6288835Y3031710D01*
X6285789Y3029211D01*
X6283290Y3026165D01*
X6281433Y3022691D01*
X6280289Y3018921D01*
X6279903Y3015000D01*
Y2650000D01*
X6280289Y2646079D01*
X6281433Y2642309D01*
X6283290Y2638835D01*
X6285789Y2635789D01*
X6288835Y2633290D01*
X6292309Y2631433D01*
X6296079Y2630289D01*
X6300000Y2629903D01*
X6655593D01*
X6656214Y2629964D01*
X6656836Y2629942D01*
X6658167Y2630157D01*
X6659514Y2630289D01*
X6660110Y2630470D01*
X6660725Y2630569D01*
X6661991Y2631041D01*
X6663284Y2631433D01*
X6663833Y2631727D01*
X6664417Y2631944D01*
X6665566Y2632653D01*
X6666758Y2633290D01*
X6667240Y2633685D01*
X6667770Y2634012D01*
X6668759Y2634932D01*
X6669804Y2635789D01*
X6670200Y2636272D01*
X6670655Y2636695D01*
X6671445Y2637789D01*
X6672303Y2638835D01*
X6672596Y2639384D01*
X6672961Y2639889D01*
X6673524Y2641120D01*
X6674160Y2642309D01*
X6674340Y2642905D01*
X6674600Y2643472D01*
X6677274Y2651259D01*
X6683074Y2666551D01*
X6689470Y2681484D01*
X6696493Y2696138D01*
X6704129Y2710483D01*
X6712363Y2724493D01*
X6721179Y2738140D01*
X6730567Y2751407D01*
X6740501Y2764259D01*
X6750972Y2776684D01*
X6761958Y2788657D01*
X6773444Y2800160D01*
X6785397Y2811159D01*
X6797808Y2821649D01*
X6810652Y2831606D01*
X6823901Y2841009D01*
X6837536Y2849846D01*
X6851534Y2858100D01*
X6865871Y2865758D01*
X6880609Y2872847D01*
X6888134Y2876178D01*
X6889644Y2877032D01*
X6891165Y2877845D01*
X6891351Y2877998D01*
X6891563Y2878117D01*
X6892877Y2879250D01*
X6894210Y2880344D01*
X6894364Y2880531D01*
X6894547Y2880689D01*
X6895613Y2882053D01*
X6896710Y2883390D01*
X6896824Y2883603D01*
X6896973Y2883794D01*
X6897753Y2885341D01*
X6898567Y2886864D01*
X6898637Y2887095D01*
X6898746Y2887312D01*
X6899209Y2888981D01*
X6899711Y2890634D01*
X6899734Y2890875D01*
X6899799Y2891108D01*
X6899927Y2892832D01*
X6900097Y2894555D01*
Y3015000D01*
X6899711Y3018921D01*
X6898567Y3022691D01*
X6896710Y3026165D01*
X6894210Y3029211D01*
X6891165Y3031710D01*
X6887691Y3033567D01*
X6883921Y3034711D01*
X6880000Y3035097D01*
D02*
G37*
G36*
X2204148Y2745000D02*
X2195852D01*
X2187588Y2744277D01*
X2179419Y2742836D01*
X2171406Y2740689D01*
X2163610Y2737852D01*
X2156092Y2734346D01*
X2148908Y2730198D01*
X2142113Y2725440D01*
X2135758Y2720108D01*
X2129892Y2714242D01*
X2124560Y2707887D01*
X2119802Y2701092D01*
X2115654Y2693908D01*
X2112148Y2686390D01*
X2109311Y2678594D01*
X2107164Y2670581D01*
X2105723Y2662412D01*
X2105000Y2654148D01*
Y2645852D01*
X2105723Y2637588D01*
X2107164Y2629419D01*
X2109311Y2621406D01*
X2112148Y2613610D01*
X2115654Y2606092D01*
X2119802Y2598908D01*
X2124560Y2592113D01*
X2129892Y2585758D01*
X2135758Y2579892D01*
X2142113Y2574560D01*
X2148908Y2569802D01*
X2156092Y2565654D01*
X2163610Y2562148D01*
X2171406Y2559311D01*
X2179419Y2557164D01*
X2187588Y2555723D01*
X2195852Y2555000D01*
X2204148D01*
X2212412Y2555723D01*
X2220581Y2557164D01*
X2228594Y2559311D01*
X2236389Y2562148D01*
X2243908Y2565654D01*
X2251092Y2569802D01*
X2257887Y2574560D01*
X2264242Y2579892D01*
X2270108Y2585758D01*
X2275440Y2592113D01*
X2280198Y2598908D01*
X2284346Y2606092D01*
X2287852Y2613610D01*
X2290689Y2621406D01*
X2292836Y2629419D01*
X2294277Y2637588D01*
X2295000Y2645852D01*
Y2654148D01*
X2294277Y2662412D01*
X2292836Y2670581D01*
X2290689Y2678594D01*
X2287852Y2686390D01*
X2284346Y2693908D01*
X2280198Y2701092D01*
X2275440Y2707887D01*
X2270108Y2714242D01*
X2264242Y2720108D01*
X2257887Y2725440D01*
X2251092Y2730198D01*
X2243908Y2734346D01*
X2236389Y2737852D01*
X2228594Y2740689D01*
X2220581Y2742836D01*
X2212412Y2744277D01*
X2204148Y2745000D01*
D02*
G37*
G36*
X869715Y2520000D02*
X860285D01*
X850885Y2519260D01*
X841571Y2517785D01*
X832402Y2515584D01*
X823434Y2512670D01*
X814722Y2509062D01*
X806320Y2504780D01*
X798280Y2499854D01*
X790651Y2494311D01*
X783481Y2488187D01*
X776813Y2481519D01*
X770689Y2474349D01*
X765147Y2466720D01*
X760220Y2458680D01*
X755939Y2450278D01*
X752330Y2441566D01*
X749416Y2432598D01*
X747215Y2423429D01*
X745740Y2414115D01*
X745000Y2404715D01*
Y2395285D01*
X745740Y2385885D01*
X747215Y2376571D01*
X749416Y2367402D01*
X752330Y2358434D01*
X755939Y2349722D01*
X760220Y2341320D01*
X765147Y2333280D01*
X770689Y2325651D01*
X776813Y2318481D01*
X783481Y2311813D01*
X790651Y2305689D01*
X798280Y2300147D01*
X806320Y2295220D01*
X814722Y2290939D01*
X823434Y2287330D01*
X832402Y2284416D01*
X841571Y2282215D01*
X850885Y2280740D01*
X860285Y2280000D01*
X869715D01*
X879115Y2280740D01*
X888429Y2282215D01*
X897598Y2284416D01*
X906566Y2287330D01*
X915278Y2290939D01*
X923680Y2295220D01*
X931720Y2300147D01*
X939349Y2305689D01*
X946519Y2311813D01*
X953187Y2318481D01*
X959311Y2325651D01*
X964854Y2333280D01*
X969780Y2341320D01*
X974062Y2349722D01*
X977670Y2358434D01*
X980584Y2367402D01*
X982785Y2376571D01*
X984260Y2385885D01*
X985000Y2395285D01*
Y2404715D01*
X984260Y2414115D01*
X982785Y2423429D01*
X980584Y2432598D01*
X977670Y2441566D01*
X974062Y2450278D01*
X969780Y2458680D01*
X964854Y2466720D01*
X959311Y2474349D01*
X953187Y2481519D01*
X946519Y2488187D01*
X939349Y2494311D01*
X931720Y2499854D01*
X923680Y2504780D01*
X915278Y2509062D01*
X906566Y2512670D01*
X897598Y2515584D01*
X888429Y2517785D01*
X879115Y2519260D01*
X869715Y2520000D01*
D02*
G37*
G36*
Y2220000D02*
X860285D01*
X850885Y2219260D01*
X841571Y2217785D01*
X832402Y2215584D01*
X823434Y2212670D01*
X814722Y2209062D01*
X806320Y2204780D01*
X798280Y2199854D01*
X790651Y2194311D01*
X783481Y2188187D01*
X776813Y2181519D01*
X770689Y2174349D01*
X765147Y2166720D01*
X760220Y2158680D01*
X755939Y2150278D01*
X752330Y2141566D01*
X749416Y2132598D01*
X747215Y2123429D01*
X745740Y2114115D01*
X745000Y2104715D01*
Y2095285D01*
X745740Y2085885D01*
X747215Y2076571D01*
X749416Y2067402D01*
X752330Y2058434D01*
X755939Y2049722D01*
X760220Y2041320D01*
X765147Y2033280D01*
X770689Y2025652D01*
X776813Y2018481D01*
X783481Y2011813D01*
X790651Y2005689D01*
X798280Y2000147D01*
X806320Y1995220D01*
X814722Y1990939D01*
X823434Y1987330D01*
X832402Y1984416D01*
X841571Y1982215D01*
X850885Y1980740D01*
X860285Y1980000D01*
X869715D01*
X879115Y1980740D01*
X888429Y1982215D01*
X897598Y1984416D01*
X906566Y1987330D01*
X915278Y1990939D01*
X923680Y1995220D01*
X931720Y2000147D01*
X939349Y2005689D01*
X946519Y2011813D01*
X953187Y2018481D01*
X959311Y2025652D01*
X964854Y2033280D01*
X969780Y2041320D01*
X974062Y2049722D01*
X977670Y2058434D01*
X980584Y2067402D01*
X982785Y2076571D01*
X984260Y2085885D01*
X985000Y2095285D01*
Y2104715D01*
X984260Y2114115D01*
X982785Y2123429D01*
X980584Y2132598D01*
X977670Y2141566D01*
X974062Y2150278D01*
X969780Y2158680D01*
X964854Y2166720D01*
X959311Y2174349D01*
X953187Y2181519D01*
X946519Y2188187D01*
X939349Y2194311D01*
X931720Y2199854D01*
X923680Y2204780D01*
X915278Y2209062D01*
X906566Y2212670D01*
X897598Y2215584D01*
X888429Y2217785D01*
X879115Y2219260D01*
X869715Y2220000D01*
D02*
G37*
G36*
X440565Y2270000D02*
X429435D01*
X418328Y2269272D01*
X407293Y2267819D01*
X396376Y2265648D01*
X385625Y2262767D01*
X375085Y2259189D01*
X364802Y2254930D01*
X354819Y2250007D01*
X345180Y2244442D01*
X335926Y2238258D01*
X327095Y2231482D01*
X318727Y2224143D01*
X310857Y2216273D01*
X303518Y2207905D01*
X296742Y2199074D01*
X290558Y2189820D01*
X284993Y2180181D01*
X280070Y2170198D01*
X275811Y2159915D01*
X272233Y2149375D01*
X269352Y2138624D01*
X267181Y2127707D01*
X265728Y2116672D01*
X265000Y2105565D01*
Y2094435D01*
X265728Y2083328D01*
X267181Y2072293D01*
X269352Y2061376D01*
X272233Y2050625D01*
X275811Y2040086D01*
X280070Y2029802D01*
X284993Y2019820D01*
X290558Y2010180D01*
X296742Y2000926D01*
X303518Y1992096D01*
X310857Y1983727D01*
X318727Y1975857D01*
X327095Y1968518D01*
X335926Y1961742D01*
X345180Y1955558D01*
X354819Y1949993D01*
X364802Y1945070D01*
X375085Y1940811D01*
X385625Y1937233D01*
X396376Y1934352D01*
X407293Y1932181D01*
X418328Y1930728D01*
X429435Y1930000D01*
X440565D01*
X451672Y1930728D01*
X462707Y1932181D01*
X473624Y1934352D01*
X484375Y1937233D01*
X494914Y1940811D01*
X505198Y1945070D01*
X515180Y1949993D01*
X524820Y1955558D01*
X534074Y1961742D01*
X542904Y1968518D01*
X551273Y1975857D01*
X559143Y1983727D01*
X566482Y1992096D01*
X573258Y2000926D01*
X579442Y2010180D01*
X585007Y2019820D01*
X589930Y2029802D01*
X594189Y2040086D01*
X597767Y2050625D01*
X600648Y2061376D01*
X602819Y2072293D01*
X604272Y2083328D01*
X605000Y2094435D01*
Y2105565D01*
X604272Y2116672D01*
X602819Y2127707D01*
X600648Y2138624D01*
X597767Y2149375D01*
X594189Y2159915D01*
X589930Y2170198D01*
X585007Y2180181D01*
X579442Y2189820D01*
X573258Y2199074D01*
X566482Y2207905D01*
X559143Y2216273D01*
X551273Y2224143D01*
X542904Y2231482D01*
X534074Y2238258D01*
X524820Y2244442D01*
X515180Y2250007D01*
X505198Y2254930D01*
X494914Y2259189D01*
X484375Y2262767D01*
X473624Y2265648D01*
X462707Y2267819D01*
X451672Y2269272D01*
X440565Y2270000D01*
D02*
G37*
G36*
X869715Y1920000D02*
X860285D01*
X850885Y1919260D01*
X841571Y1917785D01*
X832402Y1915584D01*
X823434Y1912670D01*
X814722Y1909061D01*
X806320Y1904780D01*
X798280Y1899853D01*
X790651Y1894311D01*
X783481Y1888187D01*
X776813Y1881519D01*
X770689Y1874349D01*
X765147Y1866720D01*
X760220Y1858680D01*
X755939Y1850278D01*
X752330Y1841566D01*
X749416Y1832598D01*
X747215Y1823429D01*
X745740Y1814115D01*
X745000Y1804715D01*
Y1795285D01*
X745740Y1785885D01*
X747215Y1776571D01*
X749416Y1767402D01*
X752330Y1758434D01*
X755939Y1749722D01*
X760220Y1741320D01*
X765147Y1733280D01*
X770689Y1725651D01*
X776813Y1718481D01*
X783481Y1711813D01*
X790651Y1705689D01*
X798280Y1700146D01*
X806320Y1695220D01*
X814722Y1690938D01*
X823434Y1687330D01*
X832402Y1684416D01*
X841571Y1682215D01*
X850885Y1680740D01*
X860285Y1680000D01*
X869715D01*
X879115Y1680740D01*
X888429Y1682215D01*
X897598Y1684416D01*
X906566Y1687330D01*
X915278Y1690938D01*
X923680Y1695220D01*
X931720Y1700146D01*
X939349Y1705689D01*
X946519Y1711813D01*
X953187Y1718481D01*
X959311Y1725651D01*
X964854Y1733280D01*
X969780Y1741320D01*
X974062Y1749722D01*
X977670Y1758434D01*
X980584Y1767402D01*
X982785Y1776571D01*
X984260Y1785885D01*
X985000Y1795285D01*
Y1804715D01*
X984260Y1814115D01*
X982785Y1823429D01*
X980584Y1832598D01*
X977670Y1841566D01*
X974062Y1850278D01*
X969780Y1858680D01*
X964854Y1866720D01*
X959311Y1874349D01*
X953187Y1881519D01*
X946519Y1888187D01*
X939349Y1894311D01*
X931720Y1899853D01*
X923680Y1904780D01*
X915278Y1909061D01*
X906566Y1912670D01*
X897598Y1915584D01*
X888429Y1917785D01*
X879115Y1919260D01*
X869715Y1920000D01*
D02*
G37*
G36*
X2204148Y1645000D02*
X2195852D01*
X2187588Y1644277D01*
X2179419Y1642837D01*
X2171406Y1640690D01*
X2163610Y1637852D01*
X2156092Y1634346D01*
X2148908Y1630199D01*
X2142113Y1625440D01*
X2135758Y1620108D01*
X2129892Y1614242D01*
X2124560Y1607888D01*
X2119802Y1601092D01*
X2115654Y1593908D01*
X2112148Y1586390D01*
X2109311Y1578595D01*
X2107164Y1570582D01*
X2105723Y1562412D01*
X2105000Y1554148D01*
Y1545853D01*
X2105723Y1537589D01*
X2107164Y1529419D01*
X2109311Y1521406D01*
X2112148Y1513611D01*
X2115654Y1506093D01*
X2119802Y1498909D01*
X2124560Y1492113D01*
X2129892Y1485759D01*
X2135758Y1479893D01*
X2142113Y1474560D01*
X2148908Y1469802D01*
X2156092Y1465654D01*
X2163610Y1462148D01*
X2171406Y1459311D01*
X2179419Y1457164D01*
X2187588Y1455724D01*
X2195852Y1455001D01*
X2204148D01*
X2212412Y1455724D01*
X2220581Y1457164D01*
X2228594Y1459311D01*
X2236389Y1462148D01*
X2243908Y1465654D01*
X2251092Y1469802D01*
X2257887Y1474560D01*
X2264242Y1479893D01*
X2270108Y1485759D01*
X2275440Y1492113D01*
X2280198Y1498909D01*
X2284346Y1506093D01*
X2287852Y1513611D01*
X2290689Y1521406D01*
X2292836Y1529419D01*
X2294277Y1537589D01*
X2295000Y1545853D01*
Y1554148D01*
X2294277Y1562412D01*
X2292836Y1570582D01*
X2290689Y1578595D01*
X2287852Y1586390D01*
X2284346Y1593908D01*
X2280198Y1601092D01*
X2275440Y1607888D01*
X2270108Y1614242D01*
X2264242Y1620108D01*
X2257887Y1625440D01*
X2251092Y1630199D01*
X2243908Y1634346D01*
X2236389Y1637852D01*
X2228594Y1640690D01*
X2220581Y1642837D01*
X2212412Y1644277D01*
X2204148Y1645000D01*
D02*
G37*
G36*
Y545000D02*
X2195852D01*
X2187588Y544277D01*
X2179419Y542836D01*
X2171406Y540689D01*
X2163610Y537852D01*
X2156092Y534346D01*
X2148908Y530198D01*
X2142113Y525440D01*
X2135758Y520108D01*
X2129892Y514242D01*
X2124560Y507887D01*
X2119802Y501092D01*
X2115654Y493908D01*
X2112148Y486390D01*
X2109311Y478594D01*
X2107164Y470581D01*
X2105723Y462412D01*
X2105000Y454148D01*
Y445852D01*
X2105723Y437588D01*
X2107164Y429419D01*
X2109311Y421406D01*
X2112148Y413611D01*
X2115654Y406092D01*
X2119802Y398908D01*
X2124560Y392113D01*
X2129892Y385758D01*
X2135758Y379892D01*
X2142113Y374560D01*
X2148908Y369802D01*
X2156092Y365654D01*
X2163610Y362148D01*
X2171406Y359311D01*
X2179419Y357164D01*
X2187588Y355723D01*
X2195852Y355000D01*
X2204148D01*
X2212412Y355723D01*
X2220581Y357164D01*
X2228594Y359311D01*
X2236389Y362148D01*
X2243908Y365654D01*
X2251092Y369802D01*
X2257887Y374560D01*
X2264242Y379892D01*
X2270108Y385758D01*
X2275440Y392113D01*
X2280198Y398908D01*
X2284346Y406092D01*
X2287852Y413611D01*
X2290689Y421406D01*
X2292836Y429419D01*
X2294277Y437588D01*
X2295000Y445852D01*
Y454148D01*
X2294277Y462412D01*
X2292836Y470581D01*
X2290689Y478594D01*
X2287852Y486390D01*
X2284346Y493908D01*
X2280198Y501092D01*
X2275440Y507887D01*
X2270108Y514242D01*
X2264242Y520108D01*
X2257887Y525440D01*
X2251092Y530198D01*
X2243908Y534346D01*
X2236389Y537852D01*
X2228594Y540689D01*
X2220581Y542836D01*
X2212412Y544277D01*
X2204148Y545000D01*
D02*
G37*
%LPD*%
G36*
X6322000Y5137500D02*
Y5126601D01*
X6321287Y5104816D01*
X6319861Y5083066D01*
X6317724Y5061374D01*
X6314879Y5039764D01*
X6311329Y5018258D01*
X6307077Y4996880D01*
X6302127Y4975653D01*
X6296486Y4954599D01*
X6290158Y4933740D01*
X6283152Y4913101D01*
X6275474Y4892701D01*
X6267133Y4872563D01*
X6258137Y4852709D01*
X6248497Y4833161D01*
X6238222Y4813938D01*
X6227323Y4795061D01*
X6215813Y4776551D01*
X6203704Y4758428D01*
X6191007Y4740710D01*
X6177738Y4723418D01*
X6163911Y4706569D01*
X6149539Y4690181D01*
X6134639Y4674272D01*
X6119226Y4658860D01*
X6103318Y4643959D01*
X6086930Y4629588D01*
X6070081Y4615760D01*
X6052788Y4602491D01*
X6035071Y4589795D01*
X6016948Y4577686D01*
X5998438Y4566175D01*
X5979561Y4555277D01*
X5960338Y4545002D01*
X5940789Y4535362D01*
X5920935Y4526366D01*
X5900798Y4518024D01*
X5880398Y4510347D01*
X5859758Y4503340D01*
X5838900Y4497013D01*
X5817846Y4491372D01*
X5796618Y4486422D01*
X5775240Y4482170D01*
X5753735Y4478619D01*
X5732125Y4475774D01*
X5710433Y4473638D01*
X5688683Y4472212D01*
X5666898Y4471499D01*
X5655999D01*
Y4471499D01*
X5300001D01*
X5294391Y4471420D01*
X5283191Y4470791D01*
X5272043Y4469535D01*
X5260983Y4467656D01*
X5250045Y4465159D01*
X5239265Y4462054D01*
X5228676Y4458348D01*
X5218312Y4454055D01*
X5208204Y4449188D01*
X5198386Y4443761D01*
X5188886Y4437792D01*
X5179737Y4431301D01*
X5170966Y4424306D01*
X5162601Y4416831D01*
X5154669Y4408898D01*
X5147193Y4400533D01*
X5140199Y4391762D01*
X5133707Y4382613D01*
X5127738Y4373114D01*
X5122312Y4363295D01*
X5117444Y4353187D01*
X5113151Y4342823D01*
X5109445Y4332234D01*
X5106340Y4321454D01*
X5103843Y4310517D01*
X5101964Y4299457D01*
X5100708Y4288309D01*
X5100079Y4277108D01*
X5100001Y4271499D01*
X5100000Y1600000D01*
Y1590181D01*
X5099229Y1570558D01*
X5097689Y1550981D01*
X5095380Y1531480D01*
X5092309Y1512084D01*
X5088478Y1492824D01*
X5083893Y1473729D01*
X5078563Y1454829D01*
X5072494Y1436153D01*
X5065698Y1417729D01*
X5058183Y1399586D01*
X5049961Y1381753D01*
X5041046Y1364256D01*
X5031451Y1347122D01*
X5021190Y1330378D01*
X5010280Y1314050D01*
X4998737Y1298163D01*
X4986580Y1282742D01*
X4973826Y1267809D01*
X4960497Y1253389D01*
X4946611Y1239503D01*
X4932190Y1226173D01*
X4917258Y1213420D01*
X4901836Y1201262D01*
X4885949Y1189719D01*
X4869621Y1178810D01*
X4852878Y1168549D01*
X4835744Y1158954D01*
X4818247Y1150039D01*
X4800413Y1141817D01*
X4782270Y1134302D01*
X4763847Y1127505D01*
X4745170Y1121437D01*
X4726270Y1116107D01*
X4707175Y1111523D01*
X4687915Y1107691D01*
X4668519Y1104619D01*
X4649018Y1102311D01*
X4629441Y1100771D01*
X4609819Y1100000D01*
X4600000Y1100000D01*
X4600000D01*
X3265000Y1100000D01*
Y2500000D01*
X4599999D01*
X4605609Y2500079D01*
X4616809Y2500708D01*
X4627957Y2501964D01*
X4639017Y2503843D01*
X4649955Y2506339D01*
X4660735Y2509445D01*
X4671324Y2513150D01*
X4681688Y2517443D01*
X4691796Y2522311D01*
X4701614Y2527737D01*
X4711114Y2533706D01*
X4720263Y2540198D01*
X4729034Y2547193D01*
X4737399Y2554668D01*
X4745331Y2562601D01*
X4752807Y2570966D01*
X4759802Y2579737D01*
X4766293Y2588886D01*
X4772262Y2598385D01*
X4777688Y2608204D01*
X4782556Y2618311D01*
X4786849Y2628676D01*
X4790555Y2639265D01*
X4793660Y2650045D01*
X4796157Y2660982D01*
X4798036Y2672042D01*
X4799292Y2683190D01*
X4799921Y2694391D01*
X4800000Y2700000D01*
X4800000Y4271499D01*
X4799922Y4277108D01*
X4799292Y4288309D01*
X4798036Y4299457D01*
X4796157Y4310517D01*
X4793661Y4321454D01*
X4790555Y4332234D01*
X4786850Y4342823D01*
X4782557Y4353187D01*
X4777689Y4363295D01*
X4772263Y4373114D01*
X4766294Y4382613D01*
X4759802Y4391762D01*
X4752808Y4400533D01*
X4745332Y4408898D01*
X4737399Y4416831D01*
X4729034Y4424306D01*
X4720264Y4431301D01*
X4711114Y4437792D01*
X4701615Y4443761D01*
X4691797Y4449188D01*
X4681689Y4454055D01*
X4671324Y4458348D01*
X4660735Y4462054D01*
X4649955Y4465159D01*
X4639018Y4467656D01*
X4627958Y4469535D01*
X4616810Y4470791D01*
X4605609Y4471420D01*
X4600000Y4471499D01*
X4244001Y4471499D01*
X4233102D01*
X4211317Y4472212D01*
X4189567Y4473638D01*
X4167875Y4475774D01*
X4146265Y4478619D01*
X4124759Y4482170D01*
X4103381Y4486422D01*
X4082154Y4491372D01*
X4061100Y4497013D01*
X4040242Y4503340D01*
X4019602Y4510347D01*
X3999202Y4518024D01*
X3979064Y4526366D01*
X3959211Y4535362D01*
X3939662Y4545002D01*
X3920439Y4555277D01*
X3901562Y4566175D01*
X3883052Y4577686D01*
X3864929Y4589795D01*
X3847212Y4602491D01*
X3829919Y4615760D01*
X3813070Y4629588D01*
X3796682Y4643959D01*
X3780773Y4658860D01*
X3765361Y4674272D01*
X3750461Y4690181D01*
X3736089Y4706569D01*
X3722261Y4723418D01*
X3708992Y4740710D01*
X3696296Y4758428D01*
X3684187Y4776551D01*
X3672676Y4795061D01*
X3661778Y4813938D01*
X3651503Y4833161D01*
X3641863Y4852709D01*
X3632867Y4872563D01*
X3624526Y4892701D01*
X3616848Y4913101D01*
X3609841Y4933740D01*
X3603514Y4954599D01*
X3597873Y4975653D01*
X3592923Y4996880D01*
X3588671Y5018258D01*
X3585120Y5039764D01*
X3582275Y5061374D01*
X3580139Y5083066D01*
X3578713Y5104816D01*
X3578000Y5126601D01*
Y5137500D01*
X3578000D01*
Y5195500D01*
X3822000D01*
Y5137500D01*
X3822081Y5129214D01*
X3822732Y5112656D01*
X3824032Y5096136D01*
X3825980Y5079680D01*
X3828572Y5063313D01*
X3831805Y5047061D01*
X3835673Y5030948D01*
X3840171Y5014999D01*
X3845292Y4999239D01*
X3851027Y4983693D01*
X3857369Y4968383D01*
X3864306Y4953334D01*
X3871829Y4938570D01*
X3879926Y4924112D01*
X3888584Y4909983D01*
X3897791Y4896205D01*
X3907531Y4882798D01*
X3917789Y4869785D01*
X3928551Y4857184D01*
X3939800Y4845016D01*
X3951517Y4833299D01*
X3963685Y4822050D01*
X3976286Y4811288D01*
X3989300Y4801030D01*
X4002706Y4791289D01*
X4016484Y4782083D01*
X4030613Y4773425D01*
X4045071Y4765328D01*
X4059835Y4757805D01*
X4074884Y4750868D01*
X4090194Y4744526D01*
X4105740Y4738791D01*
X4121500Y4733670D01*
X4137449Y4729172D01*
X4153562Y4725303D01*
X4169814Y4722071D01*
X4186181Y4719478D01*
X4202637Y4717531D01*
X4219157Y4716231D01*
X4235715Y4715580D01*
X4244001Y4715499D01*
X5656000Y4715499D01*
X5664285Y4715580D01*
X5680843Y4716231D01*
X5697363Y4717531D01*
X5713819Y4719479D01*
X5730186Y4722071D01*
X5746438Y4725304D01*
X5762551Y4729172D01*
X5778500Y4733670D01*
X5794260Y4738791D01*
X5809807Y4744526D01*
X5825116Y4750868D01*
X5840165Y4757805D01*
X5854929Y4765328D01*
X5869387Y4773425D01*
X5883516Y4782083D01*
X5897294Y4791289D01*
X5910700Y4801030D01*
X5923714Y4811289D01*
X5936314Y4822050D01*
X5948483Y4833299D01*
X5960200Y4845016D01*
X5971448Y4857184D01*
X5982210Y4869785D01*
X5992469Y4882798D01*
X6002209Y4896204D01*
X6011415Y4909982D01*
X6020074Y4924111D01*
X6028171Y4938569D01*
X6035694Y4953334D01*
X6042631Y4968383D01*
X6048972Y4983692D01*
X6054708Y4999239D01*
X6059828Y5014999D01*
X6064326Y5030947D01*
X6068195Y5047060D01*
X6071428Y5063313D01*
X6074020Y5079679D01*
X6075968Y5096135D01*
X6077268Y5112655D01*
X6077918Y5129213D01*
X6078000Y5137499D01*
X6078000D01*
Y5195500D01*
X6322000D01*
X6322000Y5137500D01*
D02*
G37*
G36*
X7905995Y4859993D02*
X7905629Y4858388D01*
X7905000Y4852807D01*
Y4847191D01*
X7905629Y4841611D01*
X7906879Y4836136D01*
X7908733Y4830835D01*
X7911170Y4825775D01*
X7914158Y4821020D01*
X7917659Y4816630D01*
X7921630Y4812659D01*
X7926021Y4809157D01*
X7930776Y4806169D01*
X7935836Y4803733D01*
X7941136Y4801878D01*
X7946611Y4800628D01*
X7952192Y4800000D01*
X7957808D01*
X7963388Y4800628D01*
X7968863Y4801878D01*
X7974164Y4803733D01*
X7979224Y4806169D01*
X7983979Y4809157D01*
X7988370Y4812659D01*
X7992341Y4816630D01*
X7994907Y4819848D01*
X7998880Y4819556D01*
X8004907Y4816652D01*
Y4283347D01*
X7998880Y4280443D01*
X7994907Y4280151D01*
X7992341Y4283369D01*
X7988370Y4287340D01*
X7983979Y4290842D01*
X7979224Y4293829D01*
X7974164Y4296266D01*
X7968863Y4298121D01*
X7963388Y4299370D01*
X7957808Y4299999D01*
X7952192D01*
X7946611Y4299370D01*
X7945006Y4299004D01*
X7807585Y4436425D01*
Y4944357D01*
X7809855Y4946118D01*
X7817585Y4948404D01*
X7905995Y4859993D01*
D02*
G37*
G36*
X6880000Y2894555D02*
X6872182Y2891095D01*
X6856774Y2883683D01*
X6841693Y2875627D01*
X6826965Y2866943D01*
X6812617Y2857644D01*
X6798674Y2847748D01*
X6785161Y2837273D01*
X6772102Y2826236D01*
X6759521Y2814658D01*
X6747440Y2802560D01*
X6735880Y2789962D01*
X6724862Y2776887D01*
X6714406Y2763359D01*
X6704530Y2749402D01*
X6695252Y2735041D01*
X6686588Y2720300D01*
X6678554Y2705207D01*
X6671165Y2689789D01*
X6664433Y2674072D01*
X6658370Y2658085D01*
X6655593Y2650000D01*
X6300000D01*
Y3015000D01*
X6880000D01*
Y2894555D01*
D02*
G37*
D10*
X4600000Y1000000D02*
G03*
X5200000Y1600000I0J600000D01*
G01*
X8035000Y5070000D02*
X8220000Y5255000D01*
X8035000Y3465000D02*
Y5070000D01*
X3450000Y1000000D02*
X4600000D01*
X5200000Y2870000D02*
X5310000Y2980000D01*
X6170000D01*
X5200000Y1600000D02*
Y2870000D01*
X6170000Y2980000D02*
X6270000Y3080000D01*
X7650000D01*
X8035000Y3465000D01*
X2085000Y3800000D02*
X2150000Y3865000D01*
X1930000Y3800000D02*
X2085000D01*
X1890000Y3760000D02*
X1930000Y3800000D01*
X717008Y3760000D02*
X1890000D01*
X607008Y3650000D02*
X717008Y3760000D01*
X509499Y3650000D02*
X607008D01*
X3402500Y1047500D02*
X3450000Y1000000D01*
X3402500Y1047500D02*
Y1150000D01*
D48*
X7875000Y6000000D02*
X7900000Y5975000D01*
Y5710000D02*
Y5975000D01*
X5624000Y3215000D02*
X5665000D01*
X5750000Y3300000D02*
X5972676D01*
X5665000Y3215000D02*
X5750000Y3300000D01*
X5200000Y3245000D02*
X5406092D01*
X5436092Y3215000D01*
X5624000D01*
X6060000Y3387324D02*
Y4159289D01*
X5972676Y3300000D02*
X6060000Y3387324D01*
X5416500Y3752500D02*
X5469000Y3805000D01*
X5519000D02*
X5571500Y3752500D01*
X5469000Y3805000D02*
Y4019001D01*
X5519000Y3805000D02*
Y4039712D01*
X5265782Y4151508D02*
X5336493Y4151508D01*
X5371848Y4257574D02*
X5371849Y4186864D01*
X5519000Y4039712D01*
X5336493Y4151508D02*
X5469000Y4019001D01*
X7780000Y4424999D02*
X7955000Y4249999D01*
X7835000Y4969999D02*
X7955000Y4849999D01*
X7835000Y5567218D02*
X7955000Y5687218D01*
X7835000Y4969999D02*
Y5567218D01*
X7780000Y5590000D02*
X7900000Y5710000D01*
X7780000Y4424999D02*
Y5590000D01*
X6180711Y4280000D02*
X7345000D01*
X7570000Y4505000D01*
X6060000Y4159289D02*
X6180711Y4280000D01*
X1560000Y5340000D02*
Y5980710D01*
Y5340000D02*
X1936500Y4963500D01*
X1610000Y5390000D02*
Y5960000D01*
X1560000Y5980710D02*
X1600000Y6020711D01*
X1610000Y5390000D02*
X1909500Y5090500D01*
X1610000Y5960000D02*
X1650000Y6000000D01*
X1600000Y6020711D02*
Y7021422D01*
X1650000Y6000000D02*
Y7000711D01*
X1790000Y5710000D02*
Y5910000D01*
Y5710000D02*
X2190500Y5309500D01*
X1860711Y5739289D02*
X2163500Y5436500D01*
X1860711Y5739289D02*
Y5939289D01*
X1931421Y5768578D02*
X2136500Y5563500D01*
X1931421Y5768578D02*
Y5968579D01*
X2002132Y5797868D02*
X2109500Y5690500D01*
X2002132Y5797868D02*
Y5997868D01*
X2109500Y5690500D02*
X2220000D01*
X2136500Y5563500D02*
X2220000D01*
X2163500Y5436500D02*
X2220000D01*
X2190500Y5309500D02*
X2220000D01*
X1850000Y6150000D02*
X2002132Y5997868D01*
X1800000Y6100000D02*
X1931421Y5968579D01*
X1750000Y6050000D02*
X1860711Y5939289D01*
X1700000Y6000000D02*
X1790000Y5910000D01*
X1700000Y6000000D02*
Y6980000D01*
X1750000Y6050000D02*
Y6850000D01*
X1800000Y6100000D02*
Y6829290D01*
X1850000Y6150000D02*
Y6808579D01*
X2163710Y4765790D02*
X2220000Y4709500D01*
X1595092Y4765790D02*
X2163710D01*
X1350000Y5010882D02*
X1595092Y4765790D01*
X7955000Y5687218D02*
Y5805000D01*
X8050000Y5900000D01*
X8544999Y6250000D02*
X8619999Y6325000D01*
X8720000Y6725000D02*
X8770000Y6675000D01*
Y6249289D02*
Y6675000D01*
X8720000Y6270000D02*
Y6625000D01*
X8670711Y6150000D02*
X8770000Y6249289D01*
X8650000Y6200000D02*
X8720000Y6270000D01*
X8494999Y6300000D02*
X8620000Y6425000D01*
X8395000Y6349999D02*
X8420000Y6375000D01*
X5006509Y6349999D02*
X8395000D01*
X4985798Y6300000D02*
X8494999D01*
X5089351Y6550000D02*
X8247868D01*
X8400000Y6702132D01*
X5110061Y6599999D02*
X8227157D01*
X8350000Y6722842D02*
Y6840000D01*
X8414289Y6575000D02*
X8620000D01*
X8289289Y6450000D02*
X8414289Y6575000D01*
X8443579Y6675000D02*
X8620000D01*
X5068640Y6500000D02*
X8268579D01*
X8400000Y6702132D02*
Y6845000D01*
X5027219Y6400000D02*
X8310000D01*
X8227157Y6599999D02*
X8350000Y6722842D01*
X5047929Y6450000D02*
X8289289D01*
X8310000Y6400000D02*
X8435000Y6525000D01*
X8645000D01*
X8268579Y6500000D02*
X8443579Y6675000D01*
X7825000Y7119999D02*
X8230001D01*
X8450000Y6900000D01*
Y6750000D02*
Y6900000D01*
Y6750000D02*
X8475000Y6725000D01*
X8645000D01*
X8670000Y6700000D01*
Y6550000D02*
Y6700000D01*
X8645000Y6525000D02*
X8670000Y6550000D01*
X8325000Y6920000D02*
X8400000Y6845000D01*
X8320000Y6870000D02*
X8350000Y6840000D01*
X8275000Y6870000D02*
X8320000D01*
X8225000Y6920000D02*
X8275000Y6870000D01*
X8005000Y6650000D02*
X8175000Y6820000D01*
X5151483Y6700000D02*
X7960000D01*
X8130000Y6870000D01*
X8225000D01*
X8275000Y6820000D01*
X4514377Y6630000D02*
X4944377Y6200000D01*
X8650000D01*
X5130772Y6650000D02*
X8005000D01*
X4550000Y6735797D02*
X4985798Y6300000D01*
X4600000Y6756508D02*
X5006509Y6349999D01*
X4900000Y6880772D02*
X5130772Y6650000D01*
X4850000Y6860061D02*
X5110061Y6599999D01*
X4950000Y6901482D02*
X5151483Y6700000D01*
X4923666Y6150000D02*
X8670711D01*
X4500000Y6715087D02*
X4965087Y6250000D01*
X4700000Y6797929D02*
X5047929Y6450000D01*
X4750000Y6818640D02*
X5068640Y6500000D01*
X4650000Y6777219D02*
X5027219Y6400000D01*
X4800000Y6839350D02*
X5089351Y6550000D01*
X4965087Y6250000D02*
X8544999D01*
X4493666Y6580000D02*
X4923666Y6150000D01*
X4600000Y6756508D02*
Y6941421D01*
X4500000Y6715087D02*
Y6801482D01*
X4415482Y6886000D02*
X4500000Y6801482D01*
X4700000Y6797929D02*
Y6982842D01*
X4362132Y7250000D02*
X4650000Y6962132D01*
X4750000Y6818640D02*
Y7003553D01*
X4650000Y6777219D02*
Y6962132D01*
X4403553Y7350000D02*
X4750000Y7003553D01*
X4382842Y7300000D02*
X4700000Y6982842D01*
X4451421Y7090000D02*
X4600000Y6941421D01*
X4550000Y6735797D02*
Y6822193D01*
X4422193Y6950000D02*
X4550000Y6822193D01*
X4900000Y6880772D02*
Y7065684D01*
X4465685Y7500000D02*
X4900000Y7065684D01*
X4950000Y6901482D02*
Y7086395D01*
X4424264Y7400000D02*
X4800000Y7024263D01*
X4444974Y7450000D02*
X4850000Y7044974D01*
Y6860061D02*
Y7044974D01*
X4800000Y6839350D02*
Y7024263D01*
X4486396Y7550000D02*
X4950000Y7086395D01*
X3460000Y6630000D02*
X4514377D01*
X3414000Y6886000D02*
X4415482D01*
X4100000Y6950000D02*
X4422193D01*
X3439290Y6580000D02*
X4493666D01*
X2050000Y6725736D02*
X2324264Y7000000D01*
X2050000Y6350000D02*
Y6725736D01*
X2241421Y7200000D02*
X3920710D01*
X2220711Y7250000D02*
X4362132D01*
X2303553Y7050000D02*
X3179289D01*
X2324264Y7000000D02*
X3158578D01*
X2000000Y6300000D02*
Y6746447D01*
X1800000Y6829290D02*
X2220711Y7250000D01*
X2282843Y7100000D02*
X3200000D01*
X2000000Y6746447D02*
X2303553Y7050000D01*
X1950000Y6767158D02*
X2282843Y7100000D01*
X1900000Y6200000D02*
Y6787868D01*
X1850000Y6808579D02*
X2241421Y7200000D01*
X2262132Y7150000D02*
X3900000D01*
X1750000Y6850000D02*
X2200000Y7300000D01*
X1950000Y6250000D02*
Y6767158D01*
X2200000Y7300000D02*
X4382842D01*
X1900000Y6787868D02*
X2262132Y7150000D01*
X2049289Y7400000D02*
X4424264D01*
X2028578Y7450000D02*
X4444974D01*
X1600000Y7021422D02*
X2028578Y7450000D01*
X2007867Y7500000D02*
X4465685D01*
X1350000Y5010882D02*
Y6912843D01*
X1987157Y7550000D02*
X4486396D01*
X1400000Y6892132D02*
X2007867Y7500000D01*
X1650000Y7000711D02*
X2049289Y7400000D01*
X2070000Y7350000D02*
X4403553D01*
X1700000Y6980000D02*
X2070000Y7350000D01*
X1400000Y5060882D02*
Y6892132D01*
X1350000Y6912843D02*
X1987157Y7550000D01*
X1909500Y5090500D02*
X2220000D01*
X1936500Y4963500D02*
X2220000D01*
X1400000Y5060882D02*
X1624382Y4836500D01*
X2220000D01*
X4030711Y7090000D02*
X4451421D01*
X3920710Y7200000D02*
X4030711Y7090000D01*
X3900000Y7150000D02*
X4100000Y6950000D01*
X3400000Y6690000D02*
Y6829289D01*
X3350000Y6669290D02*
X3439290Y6580000D01*
X3350000Y6669290D02*
Y6808578D01*
X3400000Y6690000D02*
X3460000Y6630000D01*
X3179289Y7050000D02*
X3400000Y6829289D01*
X3158578Y7000000D02*
X3350000Y6808578D01*
X3200000Y7100000D02*
X3414000Y6886000D01*
X2190500Y5909500D02*
X2220000D01*
X1900000Y6200000D02*
X2190500Y5909500D01*
X1950000Y6250000D02*
X2163500Y6036500D01*
X2220000D01*
X2000000Y6300000D02*
X2136500Y6163500D01*
X2220000D01*
X2050000Y6350000D02*
X2109500Y6290500D01*
X2220000D01*
D54*
X2200000Y2050000D02*
D03*
X2200000Y1550000D02*
D03*
Y450000D02*
D03*
X2200000Y950000D02*
D03*
X2200000Y2650000D02*
D03*
X2200000Y3150000D02*
D03*
D55*
X5192000Y7023000D02*
D03*
Y7277000D02*
D03*
X5446000Y7023000D02*
D03*
Y7277000D02*
D03*
X5700000Y7023000D02*
D03*
Y7277000D02*
D03*
X5954000Y7023000D02*
D03*
Y7277000D02*
D03*
X6208000Y7023000D02*
D03*
Y7277000D02*
D03*
X1165000Y2400000D02*
D03*
Y2100000D02*
D03*
Y1800000D02*
D03*
X865000Y2400000D02*
D03*
Y2100000D02*
D03*
Y1800000D02*
D03*
X8735000Y1900000D02*
D03*
Y2200000D02*
D03*
Y2500000D02*
D03*
X9035000Y1900000D02*
D03*
Y2200000D02*
D03*
Y2500000D02*
D03*
D56*
X250000Y3623000D02*
D03*
D57*
Y3877000D02*
D03*
D58*
X7247000Y5767000D02*
D03*
X2653000D02*
D03*
D59*
X5656000Y5195500D02*
D03*
X6200000D02*
D03*
X6744000D02*
D03*
X3156000D02*
D03*
X3700000D02*
D03*
X4244000D02*
D03*
D60*
X600000Y7100000D02*
D03*
X9300000Y600000D02*
D03*
Y7100000D02*
D03*
X600000Y600000D02*
D03*
D61*
X5200000Y3245000D02*
D03*
X5624000Y3310000D02*
D03*
X5800000Y3245000D02*
D03*
X5192500Y3070000D02*
D03*
X5624000Y3215000D02*
D03*
X5265782Y4151508D02*
D03*
X5371848Y4257574D02*
D03*
X5571500Y3752500D02*
D03*
X5416500D02*
D03*
X8220000Y5255000D02*
D03*
X8120000Y5255000D02*
D03*
X7955000Y4249999D02*
D03*
X7570000Y4505000D02*
D03*
X7700000Y3942500D02*
D03*
Y4057500D02*
D03*
X7900000Y4140000D02*
D03*
X7570000Y4095000D02*
D03*
X7900000Y4740000D02*
D03*
X7900000Y5340000D02*
D03*
X7955000Y4849999D02*
D03*
X7570000Y5295000D02*
D03*
X8830000Y5922500D02*
D03*
X9445000Y6100000D02*
D03*
X8830000Y6037500D02*
D03*
X8050000Y5900000D02*
D03*
X8619999Y6325000D02*
D03*
X8420000Y6375000D02*
D03*
X8620000Y6425000D02*
D03*
X7875000Y6000000D02*
D03*
X8720000Y6725000D02*
D03*
X8720000Y6625000D02*
D03*
X7825000Y7119999D02*
D03*
X8620000Y6575000D02*
D03*
Y6675000D02*
D03*
X8175000Y6820000D02*
D03*
X8275000Y6820000D02*
D03*
X8225000Y6920000D02*
D03*
X8325000D02*
D03*
X6740000Y2885000D02*
D03*
X6640000D02*
D03*
Y2785000D02*
D03*
X6340000Y2685000D02*
D03*
X6540000D02*
D03*
X6440000Y2685000D02*
D03*
Y2885000D02*
D03*
X6540000D02*
D03*
X6340000D02*
D03*
X6440000Y2785000D02*
D03*
X6340000D02*
D03*
X6540000D02*
D03*
X6340000Y2985000D02*
D03*
X6540000D02*
D03*
X6440000D02*
D03*
X6640000D02*
D03*
X6840000D02*
D03*
X6740000D02*
D03*
X605881Y3089562D02*
D03*
Y3189562D02*
D03*
X885881Y3089562D02*
D03*
Y3189561D02*
D03*
X7955000Y5449999D02*
D03*
X775000Y5800000D02*
D03*
Y5200000D02*
D03*
X2905000Y6400000D02*
D03*
X1680000Y5909500D02*
D03*
X1680000Y4709500D02*
D03*
X2150000Y3865000D02*
D03*
X509499Y3650000D02*
D03*
X2260000Y3862501D02*
D03*
X6740000Y3195000D02*
D03*
X8157500Y6000000D02*
D03*
X8042500Y6000000D02*
D03*
X8157500Y7200000D02*
D03*
X8042500Y7200000D02*
D03*
X7700000Y4657500D02*
D03*
Y4542500D02*
D03*
X7700000Y5257500D02*
D03*
Y5142499D02*
D03*
X1900000Y3990000D02*
D03*
X2000000D02*
D03*
Y3890000D02*
D03*
X2150000Y3625000D02*
D03*
X2000000Y3710000D02*
D03*
X2017500Y7205000D02*
D03*
X1500000Y5092500D02*
D03*
Y5207500D02*
D03*
Y5807500D02*
D03*
Y5692500D02*
D03*
X1500000Y6407500D02*
D03*
X1500000Y6292499D02*
D03*
X1345000Y7200000D02*
D03*
Y7400000D02*
D03*
X3050000Y6392501D02*
D03*
X3450000D02*
D03*
X3200000Y6490000D02*
D03*
X3299999D02*
D03*
X3200000Y6210000D02*
D03*
X3299999D02*
D03*
X3600000Y6210000D02*
D03*
X3700000D02*
D03*
X3946000Y6943500D02*
D03*
X509499Y3550000D02*
D03*
X2220000Y4709500D02*
D03*
X2220000Y4836500D02*
D03*
X2220000Y4963500D02*
D03*
Y5090500D02*
D03*
Y5309500D02*
D03*
X2220000Y5436500D02*
D03*
X2220000Y5563500D02*
D03*
Y5690500D02*
D03*
Y5909500D02*
D03*
Y6036500D02*
D03*
Y6163500D02*
D03*
Y6290500D02*
D03*
X3700000Y6490000D02*
D03*
X3600000D02*
D03*
X5571500Y3070000D02*
D03*
X4186000Y7016000D02*
D03*
X4241000Y7156000D02*
D03*
X4281000Y7016000D02*
D03*
X3506000Y7056001D02*
D03*
Y6956001D02*
D03*
Y6716001D02*
D03*
Y6816001D02*
D03*
X3786000Y6816000D02*
D03*
Y6716000D02*
D03*
Y6956001D02*
D03*
Y7056000D02*
D03*
X6478000Y3800000D02*
D03*
Y4000000D02*
D03*
X6578000Y3800000D02*
D03*
Y3900000D02*
D03*
Y3700000D02*
D03*
Y4000000D02*
D03*
X6678000Y3900000D02*
D03*
Y3700000D02*
D03*
Y3800000D02*
D03*
X6778000Y3900000D02*
D03*
Y3800000D02*
D03*
Y3700000D02*
D03*
Y4000000D02*
D03*
X6878000Y3800000D02*
D03*
Y3700000D02*
D03*
Y3900000D02*
D03*
X4710000Y4000000D02*
D03*
Y4100000D02*
D03*
Y4200000D02*
D03*
X6278000Y4100000D02*
D03*
Y4200000D02*
D03*
X6378000Y4100000D02*
D03*
Y4200000D02*
D03*
X6478000Y4100000D02*
D03*
Y4200000D02*
D03*
X6578000Y4100000D02*
D03*
Y4200000D02*
D03*
X6678000Y4000000D02*
D03*
X6678000Y4100000D02*
D03*
Y4200000D02*
D03*
X6778000Y4100000D02*
D03*
Y4200000D02*
D03*
X6878000Y4000000D02*
D03*
Y4100000D02*
D03*
Y4200000D02*
D03*
X6378000Y3700000D02*
D03*
Y4000000D02*
D03*
X6478000Y3700000D02*
D03*
X6378000Y3900000D02*
D03*
X6478000D02*
D03*
X4610000Y3700000D02*
D03*
Y3900000D02*
D03*
X4710000Y3800000D02*
D03*
Y3700000D02*
D03*
Y3900000D02*
D03*
X6278000Y3900000D02*
D03*
Y3700000D02*
D03*
Y3800000D02*
D03*
Y4000000D02*
D03*
X6378000Y3800000D02*
D03*
X4110000Y3700000D02*
D03*
Y3800000D02*
D03*
Y3900000D02*
D03*
X4210000Y3700000D02*
D03*
Y3800000D02*
D03*
Y3900000D02*
D03*
X4310000Y3700000D02*
D03*
Y3800000D02*
D03*
Y3900000D02*
D03*
X4410000Y3700000D02*
D03*
Y3800000D02*
D03*
Y3900000D02*
D03*
X4510000Y3700000D02*
D03*
Y3800000D02*
D03*
Y3900000D02*
D03*
X4610000Y3800000D02*
D03*
X4210000Y4200000D02*
D03*
X4110000Y4000000D02*
D03*
Y4100000D02*
D03*
Y4200000D02*
D03*
X4210000Y4000000D02*
D03*
Y4100000D02*
D03*
X4310000Y4100000D02*
D03*
Y4200000D02*
D03*
X4310000Y4000000D02*
D03*
X4610000Y4200000D02*
D03*
X4410000Y4000000D02*
D03*
Y4100000D02*
D03*
Y4200000D02*
D03*
X4610000Y4100000D02*
D03*
X4510000Y4000000D02*
D03*
Y4100000D02*
D03*
Y4200000D02*
D03*
X4610000Y4000000D02*
D03*
X655899Y3865000D02*
D03*
X540000Y3975000D02*
D03*
X910881Y4359562D02*
D03*
X913381Y4239561D02*
D03*
X3150001Y400000D02*
D03*
Y500000D02*
D03*
Y300000D02*
D03*
X3250000Y400000D02*
D03*
Y300000D02*
D03*
Y500000D02*
D03*
X3350000Y400000D02*
D03*
Y500000D02*
D03*
Y300000D02*
D03*
X6840000Y3195000D02*
D03*
X6640000D02*
D03*
X6440000D02*
D03*
X6540000D02*
D03*
X6340000D02*
D03*
X6547500Y400000D02*
D03*
X6447500D02*
D03*
X7229000Y350000D02*
D03*
Y450000D02*
D03*
X7671000Y350000D02*
D03*
Y450000D02*
D03*
X8100000Y979000D02*
D03*
X8200000D02*
D03*
Y1420999D02*
D03*
X8100000D02*
D03*
X8150000Y1980000D02*
D03*
X8250000D02*
D03*
X7800000D02*
D03*
X7900000D02*
D03*
X7450000Y1979999D02*
D03*
X7550000D02*
D03*
X7100000Y1979999D02*
D03*
X7200000D02*
D03*
X6540000Y3395000D02*
D03*
X6340000D02*
D03*
X6440000D02*
D03*
X6340000Y3295000D02*
D03*
X6540000D02*
D03*
X6440000D02*
D03*
Y3495000D02*
D03*
X6540000Y3495000D02*
D03*
X6340000D02*
D03*
X6840000Y3395000D02*
D03*
X6640000D02*
D03*
X6740000D02*
D03*
X6640000Y3295000D02*
D03*
X6840000D02*
D03*
X6740000D02*
D03*
Y3495000D02*
D03*
X6640000Y3495000D02*
D03*
X3550000Y300000D02*
D03*
Y500000D02*
D03*
Y400000D02*
D03*
X3450000Y500000D02*
D03*
Y300000D02*
D03*
Y400000D02*
D03*
X3950000Y300000D02*
D03*
Y500000D02*
D03*
X3950000Y400000D02*
D03*
X3850000Y500000D02*
D03*
Y300000D02*
D03*
Y400000D02*
D03*
X3750000D02*
D03*
Y300000D02*
D03*
Y500000D02*
D03*
X3650000Y400000D02*
D03*
X3650000Y300000D02*
D03*
Y500000D02*
D03*
X9100000Y5650000D02*
D03*
X9350000Y5604999D02*
D03*
X7200000Y2420000D02*
D03*
X7100000D02*
D03*
X7550000Y2419999D02*
D03*
X7450000D02*
D03*
X7900000Y2420000D02*
D03*
X7800000D02*
D03*
X8250000D02*
D03*
X8150000D02*
D03*
X3502500Y2250000D02*
D03*
X3302500D02*
D03*
X3402500D02*
D03*
X3502500Y2150000D02*
D03*
X3302500D02*
D03*
X3402500D02*
D03*
X3502500Y1850000D02*
D03*
X3302500D02*
D03*
X3402500D02*
D03*
X3502500Y1750000D02*
D03*
X3302500D02*
D03*
X3402500D02*
D03*
X3502500Y1450000D02*
D03*
X3302500D02*
D03*
X3402500D02*
D03*
X3502500Y1350000D02*
D03*
X3302500D02*
D03*
X3402500D02*
D03*
Y1250000D02*
D03*
X3302500D02*
D03*
X3502500D02*
D03*
X3402500Y1150000D02*
D03*
X3502500D02*
D03*
X3302500D02*
D03*
X3402500Y1650000D02*
D03*
X3302500D02*
D03*
X3502500D02*
D03*
X3402500Y1550000D02*
D03*
X3502500D02*
D03*
X3302500D02*
D03*
X3402500Y2050000D02*
D03*
X3302500D02*
D03*
X3502500D02*
D03*
X3402500Y1950000D02*
D03*
X3502500D02*
D03*
X3302500D02*
D03*
Y2350000D02*
D03*
X3502500D02*
D03*
X3402500D02*
D03*
X3502500Y2450000D02*
D03*
X3302500D02*
D03*
X3402500D02*
D03*
X170000Y6434999D02*
D03*
X270000D02*
D03*
X169999Y4565000D02*
D03*
X269999D02*
D03*
X1355881Y3089562D02*
D03*
Y3189562D02*
D03*
X1355881Y3329562D02*
D03*
Y3429562D02*
D03*
X1075881Y3089562D02*
D03*
Y3189562D02*
D03*
X1075881Y3329562D02*
D03*
Y3429562D02*
D03*
X885881Y3329562D02*
D03*
Y3429562D02*
D03*
X605881D02*
D03*
X1183381Y3649562D02*
D03*
X1068381D02*
D03*
X903381Y3679562D02*
D03*
X745881Y3845562D02*
D03*
X925881Y3845562D02*
D03*
X605881Y3329562D02*
D03*
X900881Y3559562D02*
D03*
X788381Y3679562D02*
D03*
D62*
X8200000Y2530000D02*
D03*
Y1870000D02*
D03*
%TF.MD5,bc33f6204f505faf587605f01ad904e0*%
M02*
