%TF.GenerationSoftware,Altium Limited,Altium Designer,25.3.3 (18)*%
G04 Layer_Color=16711935*
%FSLAX45Y45*%
%MOMM*%
%TF.SameCoordinates,6C4DDBA2-F481-4B1E-A352-F181FF77F2E2*%
%TF.FilePolarity,Negative*%
%TF.FileFunction,Soldermask,Bot*%
%TF.Part,Single*%
G01*
G75*
%TA.AperFunction,ComponentPad*%
%ADD114C,1.60000*%
%ADD115C,2.10000*%
%ADD116R,2.50000X1.80000*%
%ADD117O,2.50000X1.80000*%
%ADD118C,4.07600*%
%ADD119O,2.51600X3.67600*%
%TA.AperFunction,ViaPad*%
%ADD120C,10.07600*%
%TA.AperFunction,ComponentPad*%
%ADD121C,0.07600*%
%ADD122C,2.07600*%
%TA.AperFunction,SMDPad,CuDef*%
%ADD123R,3.37600X2.47600*%
D114*
X2200000Y2050000D02*
D03*
X2200000Y1550000D02*
D03*
Y450000D02*
D03*
X2200000Y950000D02*
D03*
X2200000Y2650000D02*
D03*
X2200000Y3150000D02*
D03*
D115*
X5192000Y7023000D02*
D03*
Y7277000D02*
D03*
X5446000Y7023000D02*
D03*
Y7277000D02*
D03*
X5700000Y7023000D02*
D03*
Y7277000D02*
D03*
X5954000Y7023000D02*
D03*
Y7277000D02*
D03*
X6208000Y7023000D02*
D03*
Y7277000D02*
D03*
D116*
X250000Y3623000D02*
D03*
D117*
Y3877000D02*
D03*
D118*
X7247000Y5767000D02*
D03*
X2653000D02*
D03*
D119*
X5656000Y5195500D02*
D03*
X6200000D02*
D03*
X6744000D02*
D03*
X3156000D02*
D03*
X3700000D02*
D03*
X4244000D02*
D03*
D120*
X600000Y7100000D02*
D03*
X9300000Y600000D02*
D03*
Y7100000D02*
D03*
X600000Y600000D02*
D03*
D121*
X435000Y2100000D02*
D03*
X9465000Y2200000D02*
D03*
D122*
X1165000Y2400000D02*
D03*
Y2100000D02*
D03*
Y1800000D02*
D03*
X865000Y2400000D02*
D03*
Y2100000D02*
D03*
Y1800000D02*
D03*
X8735000Y1900000D02*
D03*
Y2200000D02*
D03*
Y2500000D02*
D03*
X9035000Y1900000D02*
D03*
Y2200000D02*
D03*
Y2500000D02*
D03*
D123*
X8200000Y2530000D02*
D03*
Y1870000D02*
D03*
%TF.MD5,654d4ce35abfbb4db623352bea2e8ce7*%
M02*
