%TF.GenerationSoftware,Altium Limited,Altium Designer,25.3.3 (18)*%
G04 Layer_Physical_Order=1*
G04 Layer_Color=5636351*
%FSLAX45Y45*%
%MOMM*%
%TF.SameCoordinates,6C4DDBA2-F481-4B1E-A352-F181FF77F2E2*%
%TF.FilePolarity,Positive*%
%TF.FileFunction,Copper,L1,Top,Signal*%
%TF.Part,Single*%
G01*
G75*
%TA.AperFunction,Conductor*%
%ADD10C,0.20000*%
%ADD11C,1.00000*%
%TA.AperFunction,ConnectorPad*%
%ADD12R,2.75000X2.00000*%
%TA.AperFunction,SMDPad,CuDef*%
%ADD13R,0.65000X0.80000*%
%ADD14R,1.10000X0.60000*%
%ADD15C,1.00000*%
%ADD16R,0.60000X0.50000*%
%ADD17R,0.60000X0.85000*%
%ADD18R,0.30000X0.75000*%
%ADD19R,0.80000X0.65000*%
%ADD20R,1.45000X0.45000*%
%ADD21R,0.85000X0.60000*%
%ADD22R,0.57000X0.64000*%
%ADD23R,0.90000X0.80000*%
%ADD24R,1.30000X1.80000*%
%ADD25O,0.30000X1.40000*%
%ADD26O,1.40000X0.30000*%
%ADD27R,0.42000X0.60000*%
%ADD28R,2.74300X2.15900*%
%ADD29R,2.15900X2.74300*%
%ADD30R,0.51000X0.40000*%
%ADD31R,3.40000X1.50000*%
%ADD32R,3.50000X1.00000*%
G04:AMPARAMS|DCode=33|XSize=1.55mm|YSize=0.6mm|CornerRadius=0.05mm|HoleSize=0mm|Usage=FLASHONLY|Rotation=180.000|XOffset=0mm|YOffset=0mm|HoleType=Round|Shape=RoundedRectangle|*
%AMROUNDEDRECTD33*
21,1,1.55000,0.50000,0,0,180.0*
21,1,1.45000,0.60000,0,0,180.0*
1,1,0.10000,-0.72500,0.25000*
1,1,0.10000,0.72500,0.25000*
1,1,0.10000,0.72500,-0.25000*
1,1,0.10000,-0.72500,-0.25000*
%
%ADD33ROUNDEDRECTD33*%
%ADD34R,5.10000X2.35000*%
%ADD35R,1.80000X1.30000*%
%ADD36R,0.90000X2.10000*%
%ADD37R,3.30000X2.10000*%
G04:AMPARAMS|DCode=38|XSize=0.65mm|YSize=0.8mm|CornerRadius=0mm|HoleSize=0mm|Usage=FLASHONLY|Rotation=225.000|XOffset=0mm|YOffset=0mm|HoleType=Round|Shape=Rectangle|*
%AMROTATEDRECTD38*
4,1,4,-0.05303,0.51265,0.51265,-0.05303,0.05303,-0.51265,-0.51265,0.05303,-0.05303,0.51265,0.0*
%
%ADD38ROTATEDRECTD38*%

G04:AMPARAMS|DCode=39|XSize=0.65mm|YSize=0.8mm|CornerRadius=0mm|HoleSize=0mm|Usage=FLASHONLY|Rotation=135.000|XOffset=0mm|YOffset=0mm|HoleType=Round|Shape=Rectangle|*
%AMROTATEDRECTD39*
4,1,4,0.51265,0.05303,-0.05303,-0.51265,-0.51265,-0.05303,0.05303,0.51265,0.51265,0.05303,0.0*
%
%ADD39ROTATEDRECTD39*%

%ADD40R,0.60000X1.10000*%
%ADD41R,3.57000X3.10000*%
%ADD42R,0.80000X0.80000*%
G04:AMPARAMS|DCode=43|XSize=0.67mm|YSize=0.3mm|CornerRadius=0.05mm|HoleSize=0mm|Usage=FLASHONLY|Rotation=90.000|XOffset=0mm|YOffset=0mm|HoleType=Round|Shape=RoundedRectangle|*
%AMROUNDEDRECTD43*
21,1,0.67000,0.20000,0,0,90.0*
21,1,0.57000,0.30000,0,0,90.0*
1,1,0.10000,0.10000,0.28500*
1,1,0.10000,0.10000,-0.28500*
1,1,0.10000,-0.10000,-0.28500*
1,1,0.10000,-0.10000,0.28500*
%
%ADD43ROUNDEDRECTD43*%
%ADD44R,1.15000X1.00000*%
%ADD45R,1.40000X1.05000*%
%ADD46R,2.20000X1.55000*%
%TA.AperFunction,Conductor*%
%ADD47C,0.40000*%
%ADD48C,0.15000*%
%ADD49C,0.30000*%
%ADD50C,0.50000*%
%ADD51C,0.70000*%
%ADD52C,0.25400*%
%ADD53C,2.00000*%
%TA.AperFunction,ComponentPad*%
%ADD54C,1.50000*%
%ADD55C,2.00000*%
%ADD56R,2.40000X1.70000*%
%ADD57O,2.40000X1.70000*%
%ADD58C,4.00000*%
%ADD59O,2.44000X3.60000*%
%TA.AperFunction,ViaPad*%
%ADD60C,10.00000*%
%ADD61C,0.60000*%
G36*
X9385149Y7674028D02*
X9441004Y7662917D01*
X9495499Y7646386D01*
X9548115Y7624592D01*
X9598337Y7597748D01*
X9645689Y7566108D01*
X9689710Y7529981D01*
X9729980Y7489711D01*
X9766108Y7445689D01*
X9797747Y7398337D01*
X9824592Y7348115D01*
X9846386Y7295500D01*
X9862917Y7241002D01*
X9874027Y7185149D01*
X9879609Y7128475D01*
X9879609Y7100000D01*
Y5864139D01*
X9876344Y5854092D01*
X9870499Y5838247D01*
X9864036Y5822644D01*
X9856966Y5807308D01*
X9849299Y5792260D01*
X9841047Y5777525D01*
X9832223Y5763126D01*
X9822840Y5749083D01*
X9812914Y5735421D01*
X9802458Y5722158D01*
X9791490Y5709316D01*
X9780026Y5696915D01*
X9768085Y5684973D01*
X9755683Y5673509D01*
X9742842Y5662541D01*
X9729579Y5652086D01*
X9715916Y5642159D01*
X9701874Y5632777D01*
X9687474Y5623953D01*
X9672740Y5615701D01*
X9657692Y5608033D01*
X9642355Y5600963D01*
X9626752Y5594500D01*
X9610908Y5588655D01*
X9594846Y5583436D01*
X9578592Y5578852D01*
X9562171Y5574910D01*
X9545607Y5571615D01*
X9528927Y5568973D01*
X9512155Y5566988D01*
X9495319Y5565663D01*
X9478444Y5565000D01*
X9042500D01*
Y5565000D01*
X9034057Y5564917D01*
X9017185Y5564254D01*
X9001661Y5563032D01*
X8997149Y5564901D01*
X8990695Y5568084D01*
X8984469Y5571678D01*
X8978491Y5575673D01*
X8972785Y5580051D01*
X8967255Y5584901D01*
X8964670Y5587403D01*
X8917789Y5634284D01*
X8917756Y5634312D01*
X8886349Y5665718D01*
X8886752Y5671490D01*
X8886869Y5671855D01*
X8896561Y5680000D01*
X8903439D01*
X8910283Y5680674D01*
X8917029Y5682016D01*
X8923611Y5684013D01*
X8929965Y5686644D01*
X8936030Y5689887D01*
X8941749Y5693708D01*
X8947066Y5698071D01*
X8951929Y5702934D01*
X8956292Y5708251D01*
X8960113Y5713970D01*
X8963287Y5719907D01*
X9180000D01*
X9184708Y5720278D01*
X9189299Y5721380D01*
X9193662Y5723187D01*
X9197688Y5725655D01*
X9201279Y5728721D01*
X9246279Y5773721D01*
X9249346Y5777312D01*
X9251813Y5781338D01*
X9253620Y5785701D01*
X9254722Y5790293D01*
X9255093Y5795000D01*
Y5972535D01*
X9264965Y5982407D01*
X9352500D01*
Y5970000D01*
X9352500D01*
Y5925000D01*
X9352500D01*
Y5840000D01*
X9537500D01*
Y5855419D01*
X9541025Y5856265D01*
X9545024Y5857922D01*
X9548715Y5860184D01*
X9552006Y5862995D01*
X9569506Y5880494D01*
X9572317Y5883786D01*
X9574579Y5887477D01*
X9576235Y5891476D01*
X9577246Y5895685D01*
X9577585Y5900000D01*
Y5930000D01*
X9577246Y5934316D01*
X9576235Y5938525D01*
X9574579Y5942524D01*
X9572317Y5946214D01*
X9569506Y5949506D01*
X9552006Y5967006D01*
X9548715Y5969817D01*
X9545024Y5972078D01*
X9541025Y5973735D01*
X9537500Y5974581D01*
Y5990000D01*
X9537500D01*
Y6055000D01*
X9352500D01*
Y6042593D01*
X9252500D01*
X9247793Y6042222D01*
X9243201Y6041120D01*
X9238838Y6039313D01*
X9234812Y6036845D01*
X9231221Y6033779D01*
X9225000Y6027557D01*
X9153778Y6098779D01*
X9150188Y6101846D01*
X9146162Y6104313D01*
X9141799Y6106120D01*
X9137208Y6107222D01*
X9132500Y6107593D01*
X9097500D01*
Y6120000D01*
X8927585D01*
Y6150000D01*
X8927245Y6154315D01*
X8926235Y6158524D01*
X8924578Y6162523D01*
X8922317Y6166214D01*
X8919505Y6169506D01*
X8869506Y6219505D01*
X8866214Y6222317D01*
X8862523Y6224578D01*
X8858524Y6226235D01*
X8854315Y6227245D01*
X8850000Y6227585D01*
X8511426D01*
X8458574Y6280437D01*
X8459148Y6283481D01*
X8463104Y6290049D01*
X8465000Y6289925D01*
X8575000D01*
X8579578Y6290225D01*
X8583320Y6290969D01*
X8586630Y6287659D01*
X8591020Y6284158D01*
X8595775Y6281170D01*
X8600835Y6278733D01*
X8606136Y6276879D01*
X8611611Y6275629D01*
X8617191Y6275000D01*
X8622807D01*
X8628388Y6275629D01*
X8633863Y6276879D01*
X8639164Y6278733D01*
X8644223Y6281170D01*
X8648978Y6284158D01*
X8653369Y6287659D01*
X8657340Y6291630D01*
X8660841Y6296021D01*
X8663829Y6300776D01*
X8666266Y6305836D01*
X8668121Y6311136D01*
X8669370Y6316611D01*
X8669999Y6322192D01*
Y6327808D01*
X8669370Y6333389D01*
X8668121Y6338864D01*
X8666266Y6344164D01*
X8663829Y6349224D01*
X8660841Y6353979D01*
X8657340Y6358370D01*
X8653369Y6362341D01*
X8648978Y6365842D01*
X8644223Y6368830D01*
X8642744Y6369543D01*
X8642486Y6370205D01*
X8642486Y6379796D01*
X8642744Y6380458D01*
X8644224Y6381170D01*
X8648979Y6384158D01*
X8653369Y6387659D01*
X8657340Y6391630D01*
X8660842Y6396021D01*
X8663830Y6400776D01*
X8666266Y6405836D01*
X8668121Y6411137D01*
X8669371Y6416612D01*
X8669999Y6422192D01*
Y6426847D01*
X8672082Y6428565D01*
X8679667Y6431322D01*
X8734998Y6375991D01*
X8734013Y6373611D01*
X8732016Y6367029D01*
X8730674Y6360283D01*
X8730000Y6353439D01*
Y6346561D01*
X8730674Y6339717D01*
X8732016Y6332971D01*
X8734013Y6326389D01*
X8736644Y6320035D01*
X8739887Y6313970D01*
X8743708Y6308251D01*
X8748071Y6302934D01*
X8752934Y6298071D01*
X8758251Y6293708D01*
X8763970Y6289887D01*
X8770035Y6286645D01*
X8776389Y6284013D01*
X8782971Y6282016D01*
X8789716Y6280674D01*
X8796561Y6280000D01*
X8803439D01*
X8810283Y6280674D01*
X8817029Y6282016D01*
X8823610Y6284013D01*
X8829965Y6286645D01*
X8836030Y6289887D01*
X8841749Y6293708D01*
X8847066Y6298071D01*
X8851929Y6302934D01*
X8856292Y6308251D01*
X8860113Y6313970D01*
X8863355Y6320035D01*
X8865987Y6326389D01*
X8867984Y6332971D01*
X8869326Y6339717D01*
X8870000Y6346561D01*
Y6353439D01*
X8869326Y6360283D01*
X8867984Y6367029D01*
X8865987Y6373611D01*
X8863355Y6379965D01*
X8860113Y6386030D01*
X8856292Y6391749D01*
X8851929Y6397066D01*
X8847066Y6401929D01*
X8841749Y6406292D01*
X8836030Y6410113D01*
X8829965Y6413355D01*
X8823610Y6415987D01*
X8817029Y6417984D01*
X8810283Y6419326D01*
X8803439Y6420000D01*
X8796561D01*
X8789716Y6419326D01*
X8782971Y6417984D01*
X8776389Y6415987D01*
X8774009Y6415002D01*
X8755476Y6433535D01*
X8761850Y6441303D01*
X8763970Y6439887D01*
X8770035Y6436644D01*
X8776389Y6434013D01*
X8782971Y6432016D01*
X8789716Y6430674D01*
X8796561Y6430000D01*
X8803439D01*
X8810283Y6430674D01*
X8817029Y6432016D01*
X8823610Y6434013D01*
X8829965Y6436644D01*
X8836030Y6439887D01*
X8841749Y6443708D01*
X8847066Y6448071D01*
X8851929Y6452934D01*
X8856292Y6458251D01*
X8860113Y6463970D01*
X8863355Y6470035D01*
X8865987Y6476389D01*
X8867028Y6479819D01*
X8874830Y6482880D01*
X8878153Y6482836D01*
X8922415Y6438575D01*
Y6414341D01*
X8920035Y6413355D01*
X8913969Y6410113D01*
X8908251Y6406292D01*
X8902934Y6401929D01*
X8898071Y6397066D01*
X8893708Y6391749D01*
X8889887Y6386030D01*
X8886644Y6379965D01*
X8884012Y6373611D01*
X8882016Y6367029D01*
X8880674Y6360283D01*
X8880000Y6353439D01*
Y6346561D01*
X8880674Y6339717D01*
X8882016Y6332971D01*
X8884012Y6326389D01*
X8886644Y6320035D01*
X8889887Y6313970D01*
X8893708Y6308251D01*
X8898071Y6302934D01*
X8902934Y6298071D01*
X8908251Y6293708D01*
X8913969Y6289887D01*
X8920035Y6286645D01*
X8926389Y6284013D01*
X8932971Y6282016D01*
X8939716Y6280674D01*
X8946561Y6280000D01*
X8953439D01*
X8960283Y6280674D01*
X8967029Y6282016D01*
X8973610Y6284013D01*
X8979965Y6286645D01*
X8986030Y6289887D01*
X8991749Y6293708D01*
X8997066Y6298071D01*
X9001929Y6302934D01*
X9006292Y6308251D01*
X9010113Y6313970D01*
X9013355Y6320035D01*
X9015987Y6326389D01*
X9017984Y6332971D01*
X9019326Y6339717D01*
X9020000Y6346561D01*
Y6353439D01*
X9019326Y6360283D01*
X9017984Y6367029D01*
X9015987Y6373611D01*
X9013355Y6379965D01*
X9010113Y6386030D01*
X9008696Y6388151D01*
X9016464Y6394525D01*
X9034998Y6375991D01*
X9034013Y6373611D01*
X9032016Y6367029D01*
X9030674Y6360283D01*
X9030000Y6353439D01*
Y6346561D01*
X9030674Y6339717D01*
X9032016Y6332971D01*
X9034013Y6326389D01*
X9036645Y6320035D01*
X9039887Y6313970D01*
X9043708Y6308251D01*
X9048071Y6302934D01*
X9052934Y6298071D01*
X9058251Y6293708D01*
X9063970Y6289887D01*
X9070035Y6286645D01*
X9076390Y6284013D01*
X9082971Y6282016D01*
X9089717Y6280674D01*
X9096561Y6280000D01*
X9103439D01*
X9110284Y6280674D01*
X9117029Y6282016D01*
X9123611Y6284013D01*
X9129965Y6286645D01*
X9136030Y6289887D01*
X9141749Y6293708D01*
X9147066Y6298071D01*
X9151929Y6302934D01*
X9156292Y6308251D01*
X9160113Y6313970D01*
X9163356Y6320035D01*
X9165988Y6326389D01*
X9167984Y6332971D01*
X9169326Y6339717D01*
X9170000Y6346561D01*
Y6353439D01*
X9169326Y6360283D01*
X9167984Y6367029D01*
X9165988Y6373611D01*
X9163356Y6379965D01*
X9160113Y6386030D01*
X9156292Y6391749D01*
X9151929Y6397066D01*
X9147066Y6401929D01*
X9141749Y6406292D01*
X9136030Y6410113D01*
X9129965Y6413355D01*
X9123611Y6415987D01*
X9117029Y6417984D01*
X9110284Y6419326D01*
X9103439Y6420000D01*
X9096561D01*
X9089717Y6419326D01*
X9082971Y6417984D01*
X9076390Y6415987D01*
X9074009Y6415002D01*
X8862940Y6626071D01*
Y6764644D01*
X8862600Y6768960D01*
X8861590Y6773169D01*
X8859933Y6777168D01*
X8857672Y6780858D01*
X8854860Y6784150D01*
X8794505Y6844505D01*
X8791214Y6847317D01*
X8787523Y6849578D01*
X8783524Y6851235D01*
X8779315Y6852245D01*
X8774999Y6852585D01*
X8613826D01*
X8608903Y6859479D01*
X8607747Y6862585D01*
X8608880Y6865921D01*
X8609775Y6870422D01*
X8610075Y6875000D01*
X8609775Y6879578D01*
X8608880Y6884078D01*
X8607405Y6888422D01*
X8605375Y6892537D01*
X8602827Y6896352D01*
X8599801Y6899802D01*
X8596352Y6902827D01*
X8592537Y6905376D01*
X8588422Y6907405D01*
X8584078Y6908880D01*
X8579578Y6909775D01*
X8575000Y6910075D01*
X8465000D01*
X8460422Y6909775D01*
X8460000Y6909691D01*
X8451724Y6914941D01*
X8450000Y6917430D01*
Y6950000D01*
X8417430D01*
X8414941Y6951723D01*
X8409691Y6960000D01*
X8409775Y6960421D01*
X8410075Y6965000D01*
Y7074999D01*
X8409775Y7079577D01*
X8408880Y7084078D01*
X8407405Y7088422D01*
X8405376Y7092537D01*
X8402827Y7096352D01*
X8399802Y7099801D01*
X8396352Y7102826D01*
X8392537Y7105375D01*
X8388422Y7107404D01*
X8384078Y7108879D01*
X8379578Y7109774D01*
X8375000Y7110074D01*
X8370422Y7109774D01*
X8365922Y7108879D01*
X8361577Y7107404D01*
X8357462Y7105375D01*
X8353648Y7102826D01*
X8349801Y7099802D01*
X8346352Y7102827D01*
X8342537Y7105376D01*
X8338422Y7107405D01*
X8334078Y7108880D01*
X8329578Y7109775D01*
X8325000Y7110075D01*
X8320422Y7109775D01*
X8315922Y7108880D01*
X8311577Y7107405D01*
X8307462Y7105376D01*
X8303648Y7102827D01*
X8300198Y7099802D01*
X8299802D01*
X8296352Y7102827D01*
X8292537Y7105376D01*
X8288423Y7107405D01*
X8284078Y7108880D01*
X8279578Y7109775D01*
X8275000Y7110075D01*
X8270422Y7109775D01*
X8265922Y7108880D01*
X8261577Y7107405D01*
X8257463Y7105376D01*
X8253648Y7102827D01*
X8250198Y7099802D01*
X8249802D01*
X8246352Y7102827D01*
X8242537Y7105376D01*
X8238423Y7107405D01*
X8234078Y7108880D01*
X8229578Y7109775D01*
X8225000Y7110075D01*
X8220422Y7109775D01*
X8215922Y7108880D01*
X8211577Y7107405D01*
X8207463Y7105376D01*
X8203648Y7102827D01*
X8200198Y7099802D01*
X8196352Y7102827D01*
X8192537Y7105375D01*
X8188422Y7107404D01*
X8184078Y7108879D01*
X8179578Y7109774D01*
X8175000Y7110074D01*
X8170422Y7109774D01*
X8165921Y7108879D01*
X8161577Y7107404D01*
X8157462Y7105375D01*
X8153647Y7102826D01*
X8150198Y7099801D01*
X8147173Y7096352D01*
X8144624Y7092537D01*
X8142595Y7088422D01*
X8141120Y7084078D01*
X8140225Y7079577D01*
X8139925Y7074999D01*
Y6965000D01*
X8140225Y6960421D01*
X8140308Y6960000D01*
X8135058Y6951723D01*
X8132569Y6950000D01*
X8117430D01*
X8114940Y6951724D01*
X8109691Y6960000D01*
X8109775Y6960422D01*
X8110075Y6965000D01*
Y7075000D01*
Y7167500D01*
X8109775Y7172078D01*
X8108880Y7176578D01*
X8107405Y7180923D01*
X8105376Y7185038D01*
X8105000Y7185600D01*
Y7250000D01*
X7980000D01*
Y7150000D01*
X8039690D01*
X8039692Y7150000D01*
X8039925D01*
Y7117456D01*
X8038271Y7115030D01*
X8029925Y7109706D01*
X8029578Y7109775D01*
X8025000Y7110075D01*
X8020422Y7109775D01*
X8015922Y7108880D01*
X8011577Y7107405D01*
X8007463Y7105376D01*
X8003648Y7102827D01*
X8000198Y7099802D01*
X7999802D01*
X7996352Y7102827D01*
X7992537Y7105376D01*
X7988423Y7107405D01*
X7984078Y7108880D01*
X7979578Y7109775D01*
X7975000Y7110075D01*
X7970422Y7109775D01*
X7965922Y7108880D01*
X7962585Y7107747D01*
X7959490Y7108895D01*
X7952584Y7113825D01*
Y7263573D01*
X7974009Y7284998D01*
X7976389Y7284013D01*
X7982971Y7282016D01*
X7989717Y7280674D01*
X7996561Y7280000D01*
X8003439D01*
X8010283Y7280674D01*
X8017029Y7282016D01*
X8023611Y7284013D01*
X8029965Y7286645D01*
X8036030Y7289887D01*
X8041749Y7293708D01*
X8047066Y7298071D01*
X8051929Y7302934D01*
X8056292Y7308251D01*
X8060113Y7313970D01*
X8063355Y7320035D01*
X8065987Y7326389D01*
X8067984Y7332971D01*
X8069326Y7339717D01*
X8070000Y7346561D01*
Y7353439D01*
X8069326Y7360283D01*
X8067984Y7367029D01*
X8065987Y7373611D01*
X8063355Y7379965D01*
X8060113Y7386030D01*
X8056292Y7391749D01*
X8051929Y7397066D01*
X8047066Y7401929D01*
X8041749Y7406292D01*
X8036030Y7410113D01*
X8029965Y7413356D01*
X8023611Y7415987D01*
X8017029Y7417984D01*
X8010283Y7419326D01*
X8003439Y7420000D01*
X7996561D01*
X7989717Y7419326D01*
X7982971Y7417984D01*
X7976389Y7415987D01*
X7970035Y7413356D01*
X7963970Y7410113D01*
X7958251Y7406292D01*
X7952934Y7401929D01*
X7948071Y7397066D01*
X7943708Y7391749D01*
X7939887Y7386030D01*
X7936645Y7379965D01*
X7934013Y7373611D01*
X7932016Y7367029D01*
X7930674Y7360283D01*
X7930000Y7353439D01*
Y7346561D01*
X7930674Y7339717D01*
X7932016Y7332971D01*
X7934013Y7326389D01*
X7934998Y7324009D01*
X7906446Y7295457D01*
X7904398Y7294505D01*
X7895601Y7294505D01*
X7893554Y7295457D01*
X7865002Y7324009D01*
X7865987Y7326389D01*
X7867984Y7332971D01*
X7869326Y7339717D01*
X7870000Y7346561D01*
Y7353439D01*
X7869326Y7360283D01*
X7867984Y7367029D01*
X7865987Y7373611D01*
X7863355Y7379965D01*
X7860113Y7386030D01*
X7856292Y7391749D01*
X7851929Y7397066D01*
X7847066Y7401929D01*
X7841749Y7406292D01*
X7836030Y7410113D01*
X7829965Y7413356D01*
X7823610Y7415987D01*
X7817029Y7417984D01*
X7810283Y7419326D01*
X7803439Y7420000D01*
X7796561D01*
X7789716Y7419326D01*
X7782971Y7417984D01*
X7776389Y7415987D01*
X7770035Y7413356D01*
X7763969Y7410113D01*
X7758251Y7406292D01*
X7752934Y7401929D01*
X7748071Y7397066D01*
X7743708Y7391749D01*
X7739887Y7386030D01*
X7736644Y7379965D01*
X7734012Y7373611D01*
X7732016Y7367029D01*
X7730674Y7360283D01*
X7730000Y7353439D01*
Y7346561D01*
X7730674Y7339717D01*
X7732016Y7332971D01*
X7734012Y7326389D01*
X7736644Y7320035D01*
X7739887Y7313970D01*
X7743708Y7308251D01*
X7748071Y7302934D01*
X7752934Y7298071D01*
X7758251Y7293708D01*
X7763969Y7289887D01*
X7770035Y7286645D01*
X7776389Y7284013D01*
X7782971Y7282016D01*
X7789716Y7280674D01*
X7796561Y7280000D01*
X7803439D01*
X7810283Y7280674D01*
X7817029Y7282016D01*
X7823610Y7284013D01*
X7825991Y7284999D01*
X7847415Y7263574D01*
Y7175723D01*
X7841095Y7170105D01*
X7837415Y7168452D01*
X7833389Y7169370D01*
X7827808Y7169999D01*
X7822192D01*
X7816611Y7169370D01*
X7811137Y7168121D01*
X7805836Y7166266D01*
X7800776Y7163829D01*
X7796021Y7160842D01*
X7791630Y7157340D01*
X7787659Y7153369D01*
X7784158Y7148979D01*
X7781170Y7144223D01*
X7778733Y7139164D01*
X7776879Y7133863D01*
X7775629Y7128388D01*
X7775000Y7122807D01*
Y7117192D01*
X7775629Y7111611D01*
X7776879Y7106136D01*
X7778733Y7100835D01*
X7781170Y7095775D01*
X7784158Y7091020D01*
X7787659Y7086630D01*
X7790969Y7083320D01*
X7790225Y7079578D01*
X7789925Y7075000D01*
Y6965000D01*
X7790225Y6960422D01*
X7790309Y6960000D01*
X7785059Y6951724D01*
X7782570Y6950000D01*
X7750000D01*
Y6917430D01*
X7748276Y6914941D01*
X7740000Y6909691D01*
X7739578Y6909775D01*
X7735000Y6910075D01*
X7625000D01*
X7620422Y6909775D01*
X7615922Y6908880D01*
X7611577Y6907405D01*
X7607462Y6905376D01*
X7603648Y6902827D01*
X7603372Y6902585D01*
X7591826D01*
X6914905Y7579505D01*
X6911614Y7582317D01*
X6907923Y7584578D01*
X6903924Y7586235D01*
X6899715Y7587245D01*
X6895400Y7587585D01*
X2709289D01*
X2704974Y7587245D01*
X2700765Y7586235D01*
X2696766Y7584578D01*
X2693075Y7582317D01*
X2689784Y7579505D01*
X2610495Y7500216D01*
X2607683Y7496925D01*
X2605422Y7493234D01*
X2603765Y7489235D01*
X2602755Y7485026D01*
X2602415Y7480711D01*
Y7451426D01*
X2578574Y7427585D01*
X2515000D01*
Y7452500D01*
X2405000D01*
Y7452500D01*
X2372585D01*
Y7455000D01*
X2372246Y7459315D01*
X2371235Y7463524D01*
X2369579Y7467523D01*
X2367317Y7471214D01*
X2364506Y7474505D01*
X2339505Y7499505D01*
X2336214Y7502317D01*
X2332523Y7504578D01*
X2328524Y7506235D01*
X2324315Y7507245D01*
X2320000Y7507585D01*
X2080000D01*
X2075685Y7507245D01*
X2071476Y7506235D01*
X2067476Y7504578D01*
X2063786Y7502317D01*
X2060494Y7499505D01*
X2030494Y7469505D01*
X2027683Y7466214D01*
X2025421Y7462523D01*
X2023765Y7458524D01*
X2022754Y7454315D01*
X2022415Y7450000D01*
Y7445000D01*
X1944000D01*
Y7422585D01*
X1900218D01*
X1896965Y7424578D01*
X1892966Y7426235D01*
X1888757Y7427245D01*
X1884442Y7427585D01*
X1835000D01*
Y7460000D01*
X1715000D01*
Y7340000D01*
X1835000D01*
Y7372415D01*
X1873666D01*
X1876918Y7370422D01*
X1880917Y7368765D01*
X1885126Y7367755D01*
X1889441Y7367415D01*
X1944000D01*
Y7345000D01*
X2082281D01*
X2086421Y7336484D01*
X2086694Y7335000D01*
X2085042Y7332627D01*
X2082376Y7329961D01*
X2079621Y7328042D01*
X2078215Y7327585D01*
X1806626D01*
X1802311Y7327245D01*
X1798102Y7326235D01*
X1794103Y7324578D01*
X1790412Y7322317D01*
X1787121Y7319506D01*
X1755495Y7287879D01*
X1752684Y7284588D01*
X1750422Y7280897D01*
X1748765Y7276898D01*
X1747755Y7272689D01*
X1747415Y7268374D01*
Y7260000D01*
X1715000D01*
Y7140000D01*
X1835000D01*
Y7260000D01*
X1827985D01*
X1822724Y7270000D01*
X1824384Y7272415D01*
X2068574D01*
X2076750Y7264239D01*
X2072924Y7255000D01*
X1944000D01*
Y7155000D01*
X2156000D01*
Y7191923D01*
X2165239Y7195750D01*
X2180494Y7180495D01*
X2183786Y7177683D01*
X2187477Y7175422D01*
X2191476Y7173765D01*
X2195685Y7172755D01*
X2200000Y7172415D01*
X2285001D01*
Y7147500D01*
X2395001D01*
Y7147500D01*
X2515000D01*
Y7172415D01*
X2590000D01*
X2594315Y7172755D01*
X2598524Y7173765D01*
X2602523Y7175422D01*
X2606214Y7177683D01*
X2609505Y7180494D01*
X2699505Y7270494D01*
X2702317Y7273786D01*
X2704579Y7277477D01*
X2706235Y7281476D01*
X2707245Y7285685D01*
X2707585Y7290000D01*
Y7448574D01*
X2741426Y7482415D01*
X4209262D01*
X4213404Y7472415D01*
X4156991Y7416002D01*
X4154611Y7416988D01*
X4148029Y7418984D01*
X4141284Y7420326D01*
X4134439Y7421000D01*
X4127561D01*
X4120717Y7420326D01*
X4113971Y7418984D01*
X4107390Y7416988D01*
X4101035Y7414356D01*
X4094970Y7411113D01*
X4089251Y7407293D01*
X4083934Y7402929D01*
X4079071Y7398066D01*
X4074708Y7392750D01*
X4070887Y7387031D01*
X4067645Y7380965D01*
X4065013Y7374611D01*
X4063016Y7368029D01*
X4061674Y7361284D01*
X4061000Y7354439D01*
Y7347561D01*
X4061674Y7340717D01*
X4063016Y7333971D01*
X4065013Y7327390D01*
X4067645Y7321035D01*
X4070887Y7314970D01*
X4074708Y7309251D01*
X4079071Y7303935D01*
X4083934Y7299071D01*
X4089251Y7294708D01*
X4094970Y7290887D01*
X4101035Y7287645D01*
X4103415Y7286659D01*
Y7208500D01*
X4071000D01*
Y7103501D01*
X4067253Y7095052D01*
X4066655Y7094352D01*
X4064601Y7091000D01*
X4041000D01*
Y6941001D01*
X4141000D01*
Y7084106D01*
X4152279Y7095385D01*
X4155346Y7098976D01*
X4157813Y7103002D01*
X4158019Y7103500D01*
X4191000D01*
Y7208500D01*
X4158585D01*
Y7286659D01*
X4160965Y7287645D01*
X4167031Y7290887D01*
X4172749Y7294708D01*
X4178066Y7299071D01*
X4182929Y7303935D01*
X4187292Y7309251D01*
X4191113Y7314970D01*
X4194356Y7321035D01*
X4196988Y7327390D01*
X4198984Y7333971D01*
X4200326Y7340717D01*
X4201000Y7347561D01*
Y7354439D01*
X4200326Y7361284D01*
X4198984Y7368029D01*
X4196988Y7374611D01*
X4196002Y7376991D01*
X4251426Y7432415D01*
X6842554D01*
X7037384Y7237585D01*
X7033242Y7227585D01*
X6964341D01*
X6963355Y7229965D01*
X6960113Y7236030D01*
X6956292Y7241749D01*
X6951929Y7247066D01*
X6947066Y7251929D01*
X6941749Y7256292D01*
X6936030Y7260113D01*
X6929965Y7263356D01*
X6923610Y7265987D01*
X6917029Y7267984D01*
X6910283Y7269326D01*
X6903439Y7270000D01*
X6896561D01*
X6889716Y7269326D01*
X6882971Y7267984D01*
X6876389Y7265987D01*
X6870035Y7263356D01*
X6863970Y7260113D01*
X6858251Y7256292D01*
X6852934Y7251929D01*
X6848071Y7247066D01*
X6843708Y7241749D01*
X6839887Y7236030D01*
X6836644Y7229965D01*
X6834012Y7223611D01*
X6832016Y7217029D01*
X6830674Y7210284D01*
X6830000Y7203439D01*
Y7196561D01*
X6830674Y7189717D01*
X6832016Y7182971D01*
X6834012Y7176390D01*
X6836644Y7170035D01*
X6839887Y7163970D01*
X6843708Y7158251D01*
X6848071Y7152934D01*
X6852934Y7148071D01*
X6858251Y7143708D01*
X6863970Y7139887D01*
X6870035Y7136645D01*
X6876389Y7134013D01*
X6882971Y7132016D01*
X6889716Y7130674D01*
X6896561Y7130000D01*
X6903439D01*
X6910283Y7130674D01*
X6917029Y7132016D01*
X6923610Y7134013D01*
X6929965Y7136645D01*
X6936030Y7139887D01*
X6941749Y7143708D01*
X6947066Y7148071D01*
X6951929Y7152934D01*
X6956292Y7158251D01*
X6960113Y7163970D01*
X6963355Y7170035D01*
X6964341Y7172415D01*
X7031844D01*
X7166674Y7037585D01*
X7162532Y7027585D01*
X6964341D01*
X6963355Y7029965D01*
X6960113Y7036030D01*
X6956292Y7041749D01*
X6951929Y7047066D01*
X6947066Y7051929D01*
X6941749Y7056292D01*
X6936030Y7060113D01*
X6929965Y7063355D01*
X6923610Y7065987D01*
X6917029Y7067984D01*
X6910283Y7069326D01*
X6903439Y7070000D01*
X6896561D01*
X6889716Y7069326D01*
X6882971Y7067984D01*
X6876389Y7065987D01*
X6870035Y7063355D01*
X6863970Y7060113D01*
X6858251Y7056292D01*
X6852934Y7051929D01*
X6848071Y7047066D01*
X6843708Y7041749D01*
X6839887Y7036030D01*
X6836644Y7029965D01*
X6834012Y7023611D01*
X6832016Y7017029D01*
X6830674Y7010283D01*
X6830000Y7003439D01*
Y6996561D01*
X6830674Y6989717D01*
X6832016Y6982971D01*
X6834012Y6976389D01*
X6836644Y6970035D01*
X6839887Y6963970D01*
X6843708Y6958251D01*
X6848071Y6952934D01*
X6852934Y6948071D01*
X6858251Y6943708D01*
X6863970Y6939887D01*
X6870035Y6936644D01*
X6876389Y6934013D01*
X6882971Y6932016D01*
X6889716Y6930674D01*
X6896561Y6930000D01*
X6903439D01*
X6910283Y6930674D01*
X6917029Y6932016D01*
X6923610Y6934013D01*
X6929965Y6936644D01*
X6936030Y6939887D01*
X6941749Y6943708D01*
X6947066Y6948071D01*
X6951929Y6952934D01*
X6956292Y6958251D01*
X6960113Y6963970D01*
X6963355Y6970035D01*
X6964341Y6972415D01*
X7161134D01*
X7295964Y6837585D01*
X7291822Y6827585D01*
X7215000D01*
Y6852500D01*
X7105001D01*
Y6852500D01*
X6985001D01*
Y6827585D01*
X6900001D01*
X6895687Y6827246D01*
X6891477Y6826235D01*
X6887478Y6824578D01*
X6883787Y6822317D01*
X6880496Y6819506D01*
X6880491Y6819500D01*
X6638576Y6577585D01*
X6138427D01*
X5981586Y6734426D01*
Y6906213D01*
X5986598Y6907416D01*
X5995566Y6910330D01*
X6004278Y6913938D01*
X6012680Y6918220D01*
X6020720Y6923146D01*
X6028349Y6928689D01*
X6035519Y6934813D01*
X6042187Y6941481D01*
X6048311Y6948651D01*
X6053854Y6956280D01*
X6058780Y6964320D01*
X6063062Y6972722D01*
X6066670Y6981434D01*
X6069584Y6990402D01*
X6071785Y6999571D01*
X6073260Y7008885D01*
X6074000Y7018285D01*
Y7027715D01*
X6073260Y7037115D01*
X6071785Y7046429D01*
X6069584Y7055598D01*
X6066670Y7064566D01*
X6063062Y7073278D01*
X6058780Y7081680D01*
X6053854Y7089720D01*
X6048311Y7097349D01*
X6042187Y7104519D01*
X6035519Y7111187D01*
X6028349Y7117311D01*
X6020720Y7122853D01*
X6012680Y7127780D01*
X6004278Y7132061D01*
X5995566Y7135670D01*
X5986598Y7138584D01*
X5977429Y7140785D01*
X5968115Y7142260D01*
X5967913Y7142276D01*
X5967913Y7152307D01*
X5968751Y7152373D01*
X5978483Y7153915D01*
X5988065Y7156215D01*
X5997437Y7159260D01*
X6006540Y7163031D01*
X6015320Y7167504D01*
X6023722Y7172653D01*
X6031694Y7178445D01*
X6039187Y7184845D01*
X6046155Y7191813D01*
X6052555Y7199306D01*
X6058347Y7207278D01*
X6063496Y7215679D01*
X6067969Y7224460D01*
X6071740Y7233563D01*
X6074785Y7242935D01*
X6075858Y7247404D01*
X6086142D01*
X6087215Y7242935D01*
X6090260Y7233563D01*
X6094031Y7224460D01*
X6098504Y7215679D01*
X6103653Y7207278D01*
X6109445Y7199306D01*
X6115845Y7191813D01*
X6122813Y7184845D01*
X6130306Y7178445D01*
X6138278Y7172653D01*
X6146680Y7167504D01*
X6155460Y7163031D01*
X6164563Y7159260D01*
X6173935Y7156215D01*
X6183517Y7153915D01*
X6193249Y7152373D01*
X6194087Y7152307D01*
X6194087Y7142276D01*
X6193885Y7142260D01*
X6184571Y7140785D01*
X6175402Y7138584D01*
X6166434Y7135670D01*
X6157722Y7132061D01*
X6149320Y7127780D01*
X6141280Y7122853D01*
X6133651Y7117311D01*
X6126481Y7111187D01*
X6119813Y7104519D01*
X6113689Y7097349D01*
X6108147Y7089720D01*
X6103220Y7081680D01*
X6098939Y7073278D01*
X6095330Y7064566D01*
X6092416Y7055598D01*
X6090215Y7046429D01*
X6088740Y7037115D01*
X6088000Y7027715D01*
Y7018285D01*
X6088740Y7008885D01*
X6090215Y6999571D01*
X6092416Y6990402D01*
X6095330Y6981434D01*
X6098939Y6972722D01*
X6103220Y6964320D01*
X6108147Y6956280D01*
X6113689Y6948651D01*
X6119813Y6941481D01*
X6126481Y6934813D01*
X6133651Y6928689D01*
X6141280Y6923146D01*
X6149320Y6918220D01*
X6157722Y6913938D01*
X6166434Y6910330D01*
X6175402Y6907416D01*
X6184571Y6905215D01*
X6193885Y6903740D01*
X6203285Y6903000D01*
X6212715D01*
X6222115Y6903740D01*
X6231429Y6905215D01*
X6240598Y6907416D01*
X6249566Y6910330D01*
X6258278Y6913938D01*
X6266680Y6918220D01*
X6274720Y6923146D01*
X6282349Y6928689D01*
X6289519Y6934813D01*
X6296187Y6941481D01*
X6302311Y6948651D01*
X6307854Y6956280D01*
X6312780Y6964320D01*
X6317062Y6972722D01*
X6320670Y6981434D01*
X6323584Y6990402D01*
X6325785Y6999571D01*
X6327260Y7008885D01*
X6328000Y7018285D01*
Y7027715D01*
X6327260Y7037115D01*
X6325785Y7046429D01*
X6323584Y7055598D01*
X6320670Y7064566D01*
X6317062Y7073278D01*
X6312780Y7081680D01*
X6307854Y7089720D01*
X6302311Y7097349D01*
X6296187Y7104519D01*
X6289519Y7111187D01*
X6282349Y7117311D01*
X6274720Y7122853D01*
X6266680Y7127780D01*
X6258278Y7132061D01*
X6249566Y7135670D01*
X6240598Y7138584D01*
X6231429Y7140785D01*
X6222115Y7142260D01*
X6221913Y7142276D01*
X6221913Y7152307D01*
X6222751Y7152373D01*
X6232483Y7153915D01*
X6242065Y7156215D01*
X6251437Y7159260D01*
X6260540Y7163031D01*
X6269320Y7167504D01*
X6277722Y7172653D01*
X6285694Y7178445D01*
X6293187Y7184845D01*
X6300155Y7191813D01*
X6306555Y7199306D01*
X6312347Y7207278D01*
X6317496Y7215679D01*
X6321969Y7224460D01*
X6325740Y7233563D01*
X6328785Y7242935D01*
X6331085Y7252517D01*
X6332627Y7262249D01*
X6332788Y7264300D01*
X6207999D01*
Y7277000D01*
X6195299D01*
Y7401788D01*
X6193249Y7401627D01*
X6183517Y7400085D01*
X6173935Y7397785D01*
X6164563Y7394740D01*
X6155460Y7390969D01*
X6146680Y7386496D01*
X6138278Y7381347D01*
X6130306Y7375555D01*
X6122813Y7369155D01*
X6115845Y7362187D01*
X6109445Y7354694D01*
X6103653Y7346722D01*
X6098504Y7338320D01*
X6094031Y7329540D01*
X6090260Y7320436D01*
X6087215Y7311065D01*
X6086142Y7306596D01*
X6075858D01*
X6074785Y7311065D01*
X6071740Y7320436D01*
X6067969Y7329540D01*
X6063496Y7338320D01*
X6058347Y7346722D01*
X6052555Y7354694D01*
X6046155Y7362187D01*
X6039187Y7369155D01*
X6031694Y7375555D01*
X6023722Y7381347D01*
X6015320Y7386496D01*
X6006540Y7390969D01*
X5997437Y7394740D01*
X5988065Y7397785D01*
X5978483Y7400085D01*
X5968751Y7401627D01*
X5966699Y7401788D01*
Y7277000D01*
X5941299D01*
Y7401788D01*
X5939249Y7401627D01*
X5929517Y7400085D01*
X5919935Y7397785D01*
X5910563Y7394740D01*
X5901460Y7390969D01*
X5892680Y7386496D01*
X5884278Y7381347D01*
X5876306Y7375555D01*
X5868813Y7369155D01*
X5861845Y7362187D01*
X5855445Y7354694D01*
X5849653Y7346722D01*
X5844504Y7338320D01*
X5840031Y7329540D01*
X5836260Y7320436D01*
X5833215Y7311065D01*
X5832142Y7306596D01*
X5821858D01*
X5820785Y7311065D01*
X5817740Y7320436D01*
X5813969Y7329540D01*
X5809496Y7338320D01*
X5804347Y7346722D01*
X5798555Y7354694D01*
X5792155Y7362187D01*
X5785187Y7369155D01*
X5777694Y7375555D01*
X5769722Y7381347D01*
X5761320Y7386496D01*
X5752540Y7390969D01*
X5743437Y7394740D01*
X5734065Y7397785D01*
X5724483Y7400085D01*
X5714751Y7401627D01*
X5712699Y7401788D01*
Y7277000D01*
X5687299D01*
Y7401788D01*
X5685249Y7401627D01*
X5675517Y7400085D01*
X5665935Y7397785D01*
X5656563Y7394740D01*
X5647460Y7390969D01*
X5638680Y7386496D01*
X5630278Y7381347D01*
X5622306Y7375555D01*
X5614813Y7369155D01*
X5607845Y7362187D01*
X5601445Y7354694D01*
X5595653Y7346722D01*
X5590504Y7338320D01*
X5586031Y7329540D01*
X5582260Y7320436D01*
X5579215Y7311065D01*
X5578142Y7306596D01*
X5567858D01*
X5566785Y7311065D01*
X5563740Y7320436D01*
X5559969Y7329540D01*
X5555496Y7338320D01*
X5550347Y7346722D01*
X5544555Y7354694D01*
X5538155Y7362187D01*
X5531187Y7369155D01*
X5523694Y7375555D01*
X5515722Y7381347D01*
X5507320Y7386496D01*
X5498540Y7390969D01*
X5489437Y7394740D01*
X5480065Y7397785D01*
X5470483Y7400085D01*
X5460751Y7401627D01*
X5458699Y7401788D01*
Y7277000D01*
X5433299D01*
Y7401788D01*
X5431249Y7401627D01*
X5421517Y7400085D01*
X5411935Y7397785D01*
X5402563Y7394740D01*
X5393460Y7390969D01*
X5384680Y7386496D01*
X5376278Y7381347D01*
X5368306Y7375555D01*
X5360813Y7369155D01*
X5353845Y7362187D01*
X5347445Y7354694D01*
X5341653Y7346722D01*
X5336504Y7338320D01*
X5332031Y7329540D01*
X5328260Y7320436D01*
X5325215Y7311065D01*
X5324142Y7306596D01*
X5313858D01*
X5312785Y7311065D01*
X5309740Y7320436D01*
X5305969Y7329540D01*
X5301496Y7338320D01*
X5296347Y7346722D01*
X5290555Y7354694D01*
X5284155Y7362187D01*
X5277187Y7369155D01*
X5269694Y7375555D01*
X5261722Y7381347D01*
X5253320Y7386496D01*
X5244540Y7390969D01*
X5235437Y7394740D01*
X5226065Y7397785D01*
X5216483Y7400085D01*
X5206751Y7401627D01*
X5204699Y7401788D01*
Y7277000D01*
X5191999D01*
Y7264300D01*
X5067212D01*
X5067373Y7262249D01*
X5068915Y7252517D01*
X5071215Y7242935D01*
X5074260Y7233563D01*
X5078031Y7224460D01*
X5082504Y7215679D01*
X5087653Y7207278D01*
X5093445Y7199306D01*
X5099845Y7191813D01*
X5106813Y7184845D01*
X5114306Y7178445D01*
X5122278Y7172653D01*
X5130680Y7167504D01*
X5139460Y7163031D01*
X5148563Y7159260D01*
X5157935Y7156215D01*
X5162404Y7155142D01*
Y7144858D01*
X5157935Y7143785D01*
X5148563Y7140740D01*
X5139460Y7136969D01*
X5130680Y7132496D01*
X5122278Y7127347D01*
X5114306Y7121555D01*
X5106813Y7115155D01*
X5099845Y7108187D01*
X5093445Y7100694D01*
X5087653Y7092722D01*
X5082504Y7084320D01*
X5078031Y7075540D01*
X5074260Y7066436D01*
X5071215Y7057065D01*
X5068915Y7047483D01*
X5067373Y7037750D01*
X5067212Y7035700D01*
X5191999D01*
Y7023000D01*
X5204699D01*
Y6898212D01*
X5206751Y6898373D01*
X5216483Y6899915D01*
X5226065Y6902215D01*
X5235437Y6905260D01*
X5244540Y6909031D01*
X5253320Y6913504D01*
X5261722Y6918653D01*
X5269694Y6924445D01*
X5277187Y6930845D01*
X5284155Y6937813D01*
X5290555Y6945306D01*
X5296347Y6953278D01*
X5301496Y6961679D01*
X5305969Y6970460D01*
X5309740Y6979563D01*
X5312785Y6988935D01*
X5315085Y6998517D01*
X5316627Y7008249D01*
X5316693Y7009087D01*
X5326724Y7009087D01*
X5326740Y7008885D01*
X5328215Y6999571D01*
X5330416Y6990402D01*
X5333330Y6981434D01*
X5336939Y6972722D01*
X5341220Y6964320D01*
X5346147Y6956280D01*
X5351689Y6948651D01*
X5357813Y6941481D01*
X5364481Y6934813D01*
X5371651Y6928689D01*
X5379280Y6923146D01*
X5387320Y6918220D01*
X5395722Y6913938D01*
X5404434Y6910330D01*
X5413402Y6907416D01*
X5418416Y6906212D01*
Y6723000D01*
X5418756Y6718685D01*
X5419766Y6714476D01*
X5421423Y6710477D01*
X5423684Y6706786D01*
X5426496Y6703495D01*
X5699496Y6430495D01*
X5702787Y6427683D01*
X5706478Y6425422D01*
X5710477Y6423765D01*
X5714686Y6422755D01*
X5719001Y6422415D01*
X6850001D01*
X6854316Y6422755D01*
X6858525Y6423765D01*
X6862524Y6425422D01*
X6866215Y6427683D01*
X6869506Y6430495D01*
X6911427Y6472416D01*
X6985000D01*
Y6447500D01*
X7095001D01*
Y6447500D01*
X7215000D01*
Y6472415D01*
X7431140D01*
X7435455Y6472755D01*
X7439664Y6473765D01*
X7443663Y6475422D01*
X7447354Y6477684D01*
X7450645Y6480495D01*
X7467565Y6497415D01*
X7586174D01*
X7591097Y6490521D01*
X7592253Y6487415D01*
X7591120Y6484078D01*
X7590225Y6479578D01*
X7589925Y6475000D01*
X7590225Y6470422D01*
X7591120Y6465922D01*
X7592253Y6462585D01*
X7591094Y6459475D01*
X7586174Y6452585D01*
X7555533D01*
X7551218Y6452245D01*
X7547009Y6451235D01*
X7543010Y6449579D01*
X7539319Y6447317D01*
X7536028Y6444506D01*
X7480495Y6388973D01*
X7477684Y6385681D01*
X7475422Y6381991D01*
X7473765Y6377992D01*
X7472755Y6373783D01*
X7472415Y6369467D01*
Y5834889D01*
X7462415Y5833478D01*
X7461840Y5835475D01*
X7457662Y5847414D01*
X7452822Y5859099D01*
X7447334Y5870495D01*
X7441216Y5881565D01*
X7434487Y5892274D01*
X7427168Y5902590D01*
X7419282Y5912478D01*
X7410854Y5921910D01*
X7401910Y5930853D01*
X7392479Y5939281D01*
X7382590Y5947167D01*
X7372275Y5954486D01*
X7361565Y5961216D01*
X7350495Y5967334D01*
X7339099Y5972822D01*
X7327414Y5977662D01*
X7315476Y5981839D01*
X7303322Y5985341D01*
X7290990Y5988155D01*
X7278521Y5990274D01*
X7265952Y5991690D01*
X7259699Y5992041D01*
Y5767000D01*
Y5541958D01*
X7265952Y5542309D01*
X7278521Y5543725D01*
X7290990Y5545844D01*
X7303322Y5548658D01*
X7315476Y5552160D01*
X7327414Y5556337D01*
X7339099Y5561178D01*
X7350495Y5566665D01*
X7361565Y5572784D01*
X7372275Y5579513D01*
X7382590Y5586832D01*
X7392479Y5594718D01*
X7401910Y5603146D01*
X7410854Y5612090D01*
X7419282Y5621521D01*
X7427168Y5631410D01*
X7434487Y5641725D01*
X7441216Y5652434D01*
X7447334Y5663505D01*
X7452822Y5674900D01*
X7457662Y5686586D01*
X7461840Y5698524D01*
X7462415Y5700522D01*
X7472415Y5699110D01*
Y5562137D01*
X7380495Y5470216D01*
X7377683Y5466925D01*
X7375422Y5463234D01*
X7373765Y5459235D01*
X7372755Y5455026D01*
X7372415Y5450710D01*
Y4969289D01*
X7372755Y4964974D01*
X7373765Y4960765D01*
X7375422Y4956766D01*
X7377683Y4953075D01*
X7380495Y4949784D01*
X7499783Y4830495D01*
X7503075Y4827684D01*
X7506766Y4825422D01*
X7510765Y4823765D01*
X7514974Y4822755D01*
X7519289Y4822415D01*
X7565000D01*
Y4797500D01*
X7675000D01*
Y4797500D01*
X7802901D01*
X7803460Y4797065D01*
X7808225Y4787500D01*
X7808187Y4787438D01*
X7806380Y4783075D01*
X7805278Y4778484D01*
X7804907Y4773776D01*
Y4760000D01*
X7800000D01*
Y4645000D01*
X7870000D01*
Y4760000D01*
X7870000D01*
X7871390Y4769424D01*
X7871813Y4770114D01*
X7873620Y4774477D01*
X7874722Y4779069D01*
X7875092Y4783776D01*
Y4797500D01*
X7895000D01*
Y4797500D01*
X7924907D01*
Y4783776D01*
X7925278Y4779068D01*
X7926380Y4774477D01*
X7928187Y4770114D01*
X7928609Y4769424D01*
X7930000Y4760000D01*
X7930000Y4760000D01*
Y4645000D01*
X8000000D01*
Y4760000D01*
X7995092D01*
Y4773776D01*
X7994722Y4778483D01*
X7993620Y4783075D01*
X7991812Y4787438D01*
X7991774Y4787500D01*
X7994607Y4794972D01*
X7996084Y4796710D01*
X7997098Y4797500D01*
X8014999D01*
X8022415Y4791259D01*
Y4401426D01*
X7998574Y4377585D01*
X7650000D01*
X7645685Y4377245D01*
X7641476Y4376235D01*
X7637477Y4374578D01*
X7633786Y4372317D01*
X7630495Y4369505D01*
X7605495Y4344505D01*
X7602683Y4341214D01*
X7600422Y4337523D01*
X7598765Y4333524D01*
X7597755Y4329315D01*
X7597415Y4325000D01*
Y4302500D01*
X7565000D01*
Y4197500D01*
X7675000D01*
Y4197500D01*
X7802902D01*
X7803460Y4197065D01*
X7808225Y4187500D01*
X7808187Y4187438D01*
X7806380Y4183075D01*
X7805278Y4178484D01*
X7804907Y4173776D01*
Y4160000D01*
X7800000D01*
Y4045000D01*
X7870000D01*
Y4160000D01*
X7870000D01*
X7871390Y4169424D01*
X7871813Y4170114D01*
X7873620Y4174477D01*
X7874722Y4179069D01*
X7875093Y4183776D01*
Y4197500D01*
X7895000D01*
Y4197500D01*
X7924907D01*
Y4183776D01*
X7925278Y4179068D01*
X7926380Y4174477D01*
X7928187Y4170114D01*
X7928610Y4169424D01*
X7930000Y4160000D01*
X7930000Y4160000D01*
Y4045000D01*
X8000000D01*
Y4160000D01*
X7995092D01*
Y4173776D01*
X7994722Y4178483D01*
X7993620Y4183075D01*
X7991813Y4187438D01*
X7991775Y4187500D01*
X7994607Y4194972D01*
X7996085Y4196710D01*
X7997099Y4197500D01*
X8015000D01*
Y4302500D01*
X7905000D01*
Y4302500D01*
X7685000D01*
Y4302500D01*
X7652585D01*
Y4313574D01*
X7661426Y4322415D01*
X8010000D01*
X8014315Y4322755D01*
X8018524Y4323765D01*
X8022523Y4325422D01*
X8026214Y4327683D01*
X8029505Y4330495D01*
X8069505Y4370495D01*
X8072317Y4373786D01*
X8074578Y4377477D01*
X8076235Y4381476D01*
X8077245Y4385685D01*
X8077585Y4390000D01*
Y4910000D01*
X8077245Y4914315D01*
X8076235Y4918524D01*
X8074578Y4922524D01*
X8072317Y4926214D01*
X8069505Y4929506D01*
X8036596Y4962415D01*
X8040738Y4972415D01*
X8070000D01*
X8074315Y4972755D01*
X8078524Y4973765D01*
X8082523Y4975422D01*
X8086214Y4977683D01*
X8089505Y4980494D01*
X8139505Y5030495D01*
X8142317Y5033786D01*
X8144578Y5037477D01*
X8146235Y5041476D01*
X8147245Y5045685D01*
X8147585Y5050000D01*
Y5085001D01*
X8167500D01*
Y5085000D01*
X8272500D01*
X8280000Y5080000D01*
Y5080001D01*
X8369907D01*
Y3892465D01*
X8307536Y3830093D01*
X8000225D01*
X8000000Y3840000D01*
X8000000D01*
Y3955000D01*
X7934692D01*
X7933880Y3959079D01*
X7932405Y3963423D01*
X7930376Y3967538D01*
X7927827Y3971353D01*
X7924802Y3974802D01*
X7917110Y3982494D01*
X7917040Y3983557D01*
X7915889Y3989343D01*
X7913993Y3994929D01*
X7911384Y4000219D01*
X7908107Y4005124D01*
X7904218Y4009559D01*
X7899783Y4013448D01*
X7894878Y4016726D01*
X7889587Y4019335D01*
X7884002Y4021231D01*
X7878216Y4022382D01*
X7872330Y4022767D01*
X7797671D01*
X7791785Y4022382D01*
X7785999Y4021231D01*
X7780413Y4019335D01*
X7775123Y4016726D01*
X7770218Y4013448D01*
X7765783Y4009559D01*
X7757936Y4001713D01*
X7750000Y4005000D01*
Y4005000D01*
X7650000D01*
Y3887585D01*
X7620000D01*
Y3975000D01*
X7520000D01*
Y3885000D01*
X7542415D01*
Y3880000D01*
X7542755Y3875685D01*
X7543765Y3871476D01*
X7545422Y3867477D01*
X7547683Y3863786D01*
X7550495Y3860494D01*
X7570495Y3840494D01*
X7573786Y3837683D01*
X7577477Y3835422D01*
X7581476Y3833765D01*
X7585685Y3832755D01*
X7590000Y3832415D01*
X7770000D01*
X7774315Y3832755D01*
X7778524Y3833765D01*
X7782523Y3835422D01*
X7786214Y3837683D01*
X7789505Y3840494D01*
X7790417Y3841406D01*
X7800536Y3839130D01*
X7804907Y3832032D01*
Y3825000D01*
X7805278Y3820292D01*
X7806380Y3815701D01*
X7808187Y3811338D01*
X7810655Y3807312D01*
X7813721Y3803721D01*
X7838721Y3778721D01*
X7842312Y3775655D01*
X7846338Y3773187D01*
X7850701Y3771380D01*
X7855292Y3770278D01*
X7860000Y3769907D01*
X8320000D01*
X8324708Y3770278D01*
X8329299Y3771380D01*
X8333662Y3773187D01*
X8337688Y3775655D01*
X8341279Y3778721D01*
X8421279Y3858721D01*
X8424346Y3862312D01*
X8426813Y3866338D01*
X8428620Y3870701D01*
X8429722Y3875292D01*
X8430093Y3880000D01*
Y5567535D01*
X8492465Y5629907D01*
X8837045D01*
X8875198Y5591754D01*
X8875226Y5591721D01*
X8898875Y5568072D01*
X8900703Y5566183D01*
X8904257Y5562130D01*
X8907440Y5557982D01*
X8909806Y5554441D01*
X8910037Y5552847D01*
X8906101Y5542722D01*
X8901619Y5541266D01*
X8885778Y5535422D01*
X8870178Y5528960D01*
X8854844Y5521891D01*
X8839800Y5514226D01*
X8825068Y5505976D01*
X8810671Y5497153D01*
X8796631Y5487772D01*
X8782971Y5477848D01*
X8769711Y5467394D01*
X8756872Y5456429D01*
X8744473Y5444967D01*
X8732533Y5433027D01*
X8721072Y5420628D01*
X8710106Y5407789D01*
X8699653Y5394529D01*
X8689728Y5380869D01*
X8680347Y5366829D01*
X8671525Y5352433D01*
X8663274Y5337701D01*
X8655609Y5322656D01*
X8648540Y5307322D01*
X8642078Y5291722D01*
X8636234Y5275881D01*
X8631016Y5259823D01*
X8626433Y5243571D01*
X8622491Y5227153D01*
X8619197Y5210593D01*
X8616556Y5193915D01*
X8614571Y5177148D01*
X8613246Y5160315D01*
X8612583Y5143443D01*
X8612501Y5135000D01*
X8612500Y3030000D01*
X8612599Y3020788D01*
X8613388Y3002383D01*
X8614965Y2984027D01*
X8617326Y2965757D01*
X8620468Y2947604D01*
X8624385Y2929602D01*
X8629069Y2911785D01*
X8634513Y2894184D01*
X8640704Y2876833D01*
X8647634Y2859763D01*
X8655288Y2843006D01*
X8663653Y2826592D01*
X8672714Y2810551D01*
X8682453Y2794913D01*
X8692853Y2779706D01*
X8703895Y2764959D01*
X8715559Y2750699D01*
X8727823Y2736951D01*
X8740664Y2723741D01*
X8754059Y2711093D01*
X8767984Y2699031D01*
X8782412Y2687576D01*
X8797319Y2676749D01*
X8812675Y2666572D01*
X8828453Y2657061D01*
X8844624Y2648234D01*
X8861158Y2640109D01*
X8878025Y2632699D01*
X8895194Y2626019D01*
X8912633Y2620080D01*
X8930311Y2614893D01*
X8948194Y2610469D01*
X8966251Y2606814D01*
X8984448Y2603937D01*
X9002751Y2601841D01*
X9021128Y2600532D01*
X9028587Y2600240D01*
X9030332Y2600172D01*
X9037726Y2599963D01*
X9037829Y2599960D01*
X9037830Y2599959D01*
X9037830Y2599959D01*
X9037836Y2599959D01*
X9047043Y2599273D01*
X9050751Y2598846D01*
X9059230Y2597116D01*
X9067527Y2594660D01*
X9075582Y2591497D01*
X9083333Y2587650D01*
X9090723Y2583148D01*
X9097696Y2578024D01*
X9104201Y2572317D01*
X9110189Y2566070D01*
X9115614Y2559329D01*
X9120438Y2552144D01*
X9124622Y2544569D01*
X9128137Y2536662D01*
X9130955Y2528481D01*
X9133057Y2520086D01*
X9134425Y2511542D01*
X9135051Y2502911D01*
X9134928Y2494258D01*
X9134059Y2485649D01*
X9132449Y2477146D01*
X9130111Y2468815D01*
X9127062Y2460716D01*
X9123325Y2452912D01*
X9118928Y2445459D01*
X9113903Y2438413D01*
X9108289Y2431828D01*
X9102127Y2425753D01*
X9095463Y2420232D01*
X9088348Y2415308D01*
X9080833Y2411017D01*
X9072976Y2407391D01*
X9064836Y2404456D01*
X9056472Y2402236D01*
X9047947Y2400747D01*
X9039326Y2400000D01*
X8735000D01*
X8735000Y2400000D01*
X8730477Y2399948D01*
X8721440Y2399540D01*
X8712430Y2398722D01*
X8703467Y2397498D01*
X8694568Y2395870D01*
X8685753Y2393842D01*
X8677037Y2391416D01*
X8668441Y2388599D01*
X8659980Y2385397D01*
X8651673Y2381815D01*
X8643537Y2377861D01*
X8635588Y2373543D01*
X8631688Y2371250D01*
X8631688Y2371250D01*
X8627814Y2368913D01*
X8619863Y2364594D01*
X8611724Y2360639D01*
X8603415Y2357056D01*
X8594952Y2353852D01*
X8586353Y2351035D01*
X8577636Y2348609D01*
X8568818Y2346579D01*
X8559917Y2344951D01*
X8550951Y2343727D01*
X8541940Y2342909D01*
X8532900Y2342500D01*
X6728693D01*
X6721115Y2343246D01*
X6713646Y2344732D01*
X6706359Y2346942D01*
X6699324Y2349856D01*
X6692609Y2353446D01*
X6686278Y2357676D01*
X6680392Y2362507D01*
X6675007Y2367891D01*
X6670176Y2373778D01*
X6665946Y2380109D01*
X6662356Y2386824D01*
X6659442Y2393859D01*
X6657232Y2401146D01*
X6655746Y2408614D01*
X6655000Y2416193D01*
Y2530742D01*
X6655706Y2547211D01*
X6657115Y2563634D01*
X6659226Y2579982D01*
X6662035Y2596224D01*
X6665536Y2612332D01*
X6669724Y2628275D01*
X6674590Y2644024D01*
X6680125Y2659550D01*
X6686320Y2674826D01*
X6693163Y2689822D01*
X6700641Y2704512D01*
X6708741Y2718868D01*
X6717448Y2732864D01*
X6726746Y2746475D01*
X6736618Y2759676D01*
X6747046Y2772442D01*
X6758011Y2784750D01*
X6769492Y2796577D01*
X6781469Y2807902D01*
X6793920Y2818705D01*
X6806822Y2828965D01*
X6820150Y2838663D01*
X6833882Y2847781D01*
X6847992Y2856304D01*
X6862453Y2864216D01*
X6877239Y2871501D01*
X6892324Y2878146D01*
X6900001Y2881143D01*
X6900000Y3035000D01*
X5620227Y3035015D01*
X5619607Y3035486D01*
X5614852Y3045015D01*
X5615330Y3045776D01*
X5617767Y3050836D01*
X5619621Y3056136D01*
X5620871Y3061611D01*
X5621500Y3067192D01*
Y3072808D01*
X5620871Y3078389D01*
X5619621Y3083864D01*
X5617767Y3089164D01*
X5615330Y3094224D01*
X5612342Y3098979D01*
X5608841Y3103370D01*
X5604870Y3107341D01*
X5600479Y3110842D01*
X5595724Y3113830D01*
X5591500Y3115864D01*
Y3122000D01*
X5494501D01*
Y3122000D01*
X5493499Y3122001D01*
Y3122000D01*
X5396500D01*
Y3110086D01*
X5381563D01*
X5377421Y3120086D01*
X5392345Y3135010D01*
X5395802Y3138952D01*
X5398715Y3143312D01*
X5401034Y3148015D01*
X5402719Y3152980D01*
X5403743Y3158122D01*
X5404085Y3163355D01*
Y3165000D01*
X5439000D01*
Y3260000D01*
Y3355000D01*
Y3440989D01*
X5456006Y3457995D01*
X5458817Y3461286D01*
X5461078Y3464977D01*
X5462735Y3468976D01*
X5463745Y3473185D01*
X5464085Y3477500D01*
Y3560000D01*
X5523915D01*
Y3477499D01*
X5524255Y3473184D01*
X5525265Y3468975D01*
X5526922Y3464976D01*
X5529184Y3461285D01*
X5531995Y3457994D01*
X5549000Y3440989D01*
Y3355000D01*
X5699000D01*
Y3377415D01*
X5738574D01*
X5747500Y3368489D01*
Y3295000D01*
X5852500D01*
Y3415000D01*
X5779011D01*
X5769505Y3424505D01*
X5766214Y3427316D01*
X5762523Y3429578D01*
X5758524Y3431235D01*
X5754315Y3432245D01*
X5750000Y3432585D01*
X5699000D01*
Y3455000D01*
X5613011D01*
X5579085Y3488925D01*
Y3560000D01*
X5614000D01*
Y3660000D01*
X5579085D01*
Y3682908D01*
X5581784Y3683174D01*
X5588529Y3684516D01*
X5595111Y3686512D01*
X5601465Y3689144D01*
X5607531Y3692387D01*
X5613249Y3696207D01*
X5618566Y3700571D01*
X5623429Y3705434D01*
X5627792Y3710751D01*
X5631613Y3716469D01*
X5634856Y3722535D01*
X5637488Y3728889D01*
X5639484Y3735471D01*
X5640826Y3742216D01*
X5641500Y3749061D01*
Y3755939D01*
X5640826Y3762783D01*
X5639484Y3769529D01*
X5637488Y3776110D01*
X5634856Y3782465D01*
X5631613Y3788530D01*
X5627792Y3794249D01*
X5623429Y3799565D01*
X5618566Y3804429D01*
X5613249Y3808792D01*
X5607531Y3812613D01*
X5601465Y3815855D01*
X5595111Y3818487D01*
X5588529Y3820484D01*
X5581784Y3821825D01*
X5574939Y3822500D01*
X5568061D01*
X5561217Y3821825D01*
X5554471Y3820484D01*
X5547890Y3818487D01*
X5541535Y3815855D01*
X5535470Y3812613D01*
X5529751Y3808792D01*
X5524434Y3804429D01*
X5519571Y3799565D01*
X5515208Y3794249D01*
X5511387Y3788530D01*
X5508145Y3782465D01*
X5505513Y3776110D01*
X5503516Y3769529D01*
X5502174Y3762783D01*
X5501500Y3755939D01*
Y3749061D01*
X5502174Y3742216D01*
X5503516Y3735471D01*
X5505513Y3728889D01*
X5508145Y3722535D01*
X5511387Y3716469D01*
X5515208Y3710751D01*
X5519571Y3705434D01*
X5523915Y3701090D01*
Y3660000D01*
X5464085D01*
Y3701090D01*
X5468429Y3705434D01*
X5472792Y3710751D01*
X5476613Y3716469D01*
X5479856Y3722535D01*
X5482488Y3728889D01*
X5484484Y3735471D01*
X5485826Y3742216D01*
X5486500Y3749061D01*
Y3755939D01*
X5485826Y3762783D01*
X5484484Y3769529D01*
X5482488Y3776110D01*
X5479856Y3782465D01*
X5476613Y3788530D01*
X5472792Y3794249D01*
X5468429Y3799565D01*
X5463566Y3804429D01*
X5458249Y3808792D01*
X5452531Y3812613D01*
X5446465Y3815855D01*
X5440111Y3818487D01*
X5433529Y3820484D01*
X5426784Y3821825D01*
X5419939Y3822500D01*
X5413061D01*
X5406217Y3821825D01*
X5399471Y3820484D01*
X5392890Y3818487D01*
X5386535Y3815855D01*
X5380470Y3812613D01*
X5374751Y3808792D01*
X5369435Y3804429D01*
X5364571Y3799565D01*
X5360208Y3794249D01*
X5356387Y3788530D01*
X5353145Y3782465D01*
X5350513Y3776110D01*
X5348516Y3769529D01*
X5347174Y3762783D01*
X5346500Y3755939D01*
Y3749061D01*
X5347174Y3742216D01*
X5348516Y3735471D01*
X5350513Y3728889D01*
X5353145Y3722535D01*
X5356387Y3716469D01*
X5360208Y3710751D01*
X5364571Y3705434D01*
X5369435Y3700571D01*
X5374751Y3696207D01*
X5380470Y3692387D01*
X5386535Y3689144D01*
X5392890Y3686512D01*
X5399471Y3684516D01*
X5406217Y3683174D01*
X5408915Y3682908D01*
Y3660000D01*
X5374000D01*
Y3560000D01*
X5408915D01*
Y3488926D01*
X5374989Y3455000D01*
X5289000D01*
Y3432585D01*
X5250000D01*
X5245684Y3432245D01*
X5241475Y3431235D01*
X5237476Y3429578D01*
X5233786Y3427316D01*
X5230494Y3424505D01*
X5220989Y3415000D01*
X5147500D01*
Y3295000D01*
Y3185000D01*
X5252500D01*
Y3197441D01*
X5261739Y3201267D01*
X5267512Y3195494D01*
X5270803Y3192683D01*
X5274494Y3190421D01*
X5278493Y3188765D01*
X5282702Y3187755D01*
X5287017Y3187415D01*
X5289000D01*
Y3165000D01*
X5295890D01*
X5299716Y3155761D01*
X5279155Y3135200D01*
X5275698Y3131258D01*
X5272785Y3126898D01*
X5270465Y3122195D01*
X5269720Y3120000D01*
X5245000D01*
Y3042090D01*
X5237929Y3035019D01*
X1610879Y3035060D01*
Y3048561D01*
X1610978Y3049562D01*
Y3744914D01*
X1735000D01*
Y3740000D01*
X1865000D01*
Y3860000D01*
X1735000D01*
Y3855087D01*
X1610978D01*
Y3979562D01*
X1610881Y3980545D01*
Y3998550D01*
X1610979Y3999548D01*
X1610976Y4394562D01*
X1610881Y4395524D01*
Y4414562D01*
X1610879D01*
Y4414562D01*
X1591862D01*
X1590879Y4414659D01*
X1080881D01*
X1079898Y4414562D01*
X20390D01*
Y4456344D01*
X30390Y4464600D01*
X207300D01*
Y4565001D01*
Y4665400D01*
X30390D01*
X24600Y4665400D01*
X20390Y4673656D01*
X20390Y6326344D01*
X30390Y6334600D01*
X207300D01*
Y6435000D01*
Y6535400D01*
X30390D01*
X24600Y6535400D01*
X20390Y6543656D01*
Y7099999D01*
X20390Y7128475D01*
X25972Y7185148D01*
X37082Y7241004D01*
X53613Y7295499D01*
X75407Y7348114D01*
X102252Y7398336D01*
X133891Y7445688D01*
X170019Y7489710D01*
X210288Y7529980D01*
X254310Y7566107D01*
X301662Y7597747D01*
X351884Y7624591D01*
X404500Y7646385D01*
X458997Y7662917D01*
X514851Y7674027D01*
X571524Y7679608D01*
X600000Y7679609D01*
X9299999Y7679609D01*
X9328475Y7679609D01*
X9385149Y7674028D01*
D02*
G37*
G36*
X8480495Y6180495D02*
X8483786Y6177683D01*
X8487477Y6175421D01*
X8491476Y6173765D01*
X8495685Y6172755D01*
X8500000Y6172415D01*
X8838574D01*
X8872415Y6138574D01*
Y6030000D01*
X8872755Y6025685D01*
X8873765Y6021476D01*
X8875422Y6017477D01*
X8877683Y6013786D01*
X8878782Y6012500D01*
X8877683Y6011214D01*
X8875422Y6007523D01*
X8873765Y6003524D01*
X8872755Y5999315D01*
X8872415Y5995000D01*
Y5985000D01*
X8780000D01*
Y5860000D01*
X8879491D01*
X8885336Y5854155D01*
X8889278Y5850698D01*
X8893638Y5847785D01*
X8898341Y5845466D01*
X8903306Y5843780D01*
X8908449Y5842757D01*
X8912500Y5842492D01*
Y5840000D01*
X9097500D01*
Y5925000D01*
X9097500D01*
Y5970000D01*
X9097500D01*
Y6047408D01*
X9120035D01*
X9194907Y5972535D01*
Y5807465D01*
X9167535Y5780093D01*
X8963287D01*
X8960113Y5786030D01*
X8956292Y5791749D01*
X8951929Y5797066D01*
X8947066Y5801929D01*
X8941749Y5806292D01*
X8936030Y5810113D01*
X8929965Y5813355D01*
X8923611Y5815987D01*
X8917029Y5817984D01*
X8910283Y5819326D01*
X8903439Y5820000D01*
X8896561D01*
X8889717Y5819326D01*
X8882971Y5817984D01*
X8876389Y5815987D01*
X8870035Y5813355D01*
X8863970Y5810113D01*
X8858251Y5806292D01*
X8852934Y5801929D01*
X8848071Y5797066D01*
X8843708Y5791749D01*
X8839887Y5786030D01*
X8836645Y5779965D01*
X8834013Y5773610D01*
X8832016Y5767029D01*
X8830674Y5760283D01*
X8830000Y5753439D01*
Y5746561D01*
X8830674Y5739716D01*
X8832016Y5732971D01*
X8833971Y5726528D01*
X8828231Y5720788D01*
X8825164Y5717198D01*
X8822697Y5713172D01*
X8820890Y5708809D01*
X8819788Y5704217D01*
X8819417Y5699510D01*
Y5690093D01*
X8480000D01*
X8475292Y5689722D01*
X8470701Y5688620D01*
X8466338Y5686813D01*
X8462312Y5684346D01*
X8458721Y5681279D01*
X8378721Y5601279D01*
X8375655Y5597688D01*
X8373187Y5593662D01*
X8371380Y5589299D01*
X8370278Y5584708D01*
X8369907Y5580000D01*
Y5320000D01*
X8280000D01*
Y5320000D01*
X8272500Y5315000D01*
X8167500D01*
Y5205001D01*
X8067500D01*
Y5085001D01*
X8092415D01*
Y5061426D01*
X8058574Y5027585D01*
X7878835D01*
X7877221Y5030000D01*
X7882566Y5040000D01*
X8000000D01*
Y5155000D01*
X7934691D01*
X7933880Y5159078D01*
X7932405Y5163423D01*
X7930376Y5167538D01*
X7927827Y5171353D01*
X7924802Y5174802D01*
X7917110Y5182494D01*
X7917040Y5183557D01*
X7915889Y5189342D01*
X7913993Y5194928D01*
X7911384Y5200219D01*
X7908107Y5205124D01*
X7904217Y5209559D01*
X7899783Y5213448D01*
X7894878Y5216725D01*
X7889587Y5219334D01*
X7884001Y5221230D01*
X7878216Y5222381D01*
X7872329Y5222767D01*
X7797670D01*
X7791784Y5222381D01*
X7785999Y5221231D01*
X7780413Y5219334D01*
X7775122Y5216725D01*
X7770217Y5213448D01*
X7765783Y5209559D01*
X7757936Y5201712D01*
X7749999Y5205000D01*
Y5205000D01*
X7650000D01*
Y5087585D01*
X7620000D01*
Y5175000D01*
X7520000D01*
Y5085000D01*
X7542415D01*
Y5080000D01*
X7542755Y5075685D01*
X7543765Y5071476D01*
X7545422Y5067477D01*
X7547683Y5063786D01*
X7550495Y5060495D01*
X7570495Y5040495D01*
X7573786Y5037683D01*
X7577477Y5035422D01*
X7581476Y5033765D01*
X7585685Y5032755D01*
X7590000Y5032415D01*
X7770000D01*
X7774315Y5032755D01*
X7778524Y5033765D01*
X7782523Y5035422D01*
X7786214Y5037683D01*
X7789505Y5040495D01*
X7790350Y5041339D01*
X7800000Y5039999D01*
X7807415Y5033759D01*
Y5025000D01*
X7807755Y5020685D01*
X7808765Y5016476D01*
X7810422Y5012477D01*
X7812683Y5008786D01*
X7815495Y5005494D01*
X7833404Y4987585D01*
X7829262Y4977585D01*
X7501426D01*
X7477585Y5001426D01*
Y5418574D01*
X7555000Y5495990D01*
X7565000Y5491847D01*
Y5397500D01*
X7675000D01*
Y5397500D01*
X7795000D01*
X7795000Y5397499D01*
X7803421Y5395738D01*
X7807956Y5386881D01*
X7806380Y5383075D01*
X7805278Y5378484D01*
X7804907Y5373776D01*
Y5360000D01*
X7800000D01*
Y5245000D01*
X7870000D01*
Y5360000D01*
X7870000D01*
X7871390Y5369424D01*
X7871813Y5370114D01*
X7873620Y5374477D01*
X7874722Y5379069D01*
X7875093Y5383776D01*
Y5397500D01*
X7895000D01*
Y5397499D01*
X7924907D01*
Y5383776D01*
X7925278Y5379068D01*
X7926380Y5374477D01*
X7928187Y5370114D01*
X7928610Y5369424D01*
X7930000Y5360000D01*
X7930000Y5360000D01*
Y5245000D01*
X8000000D01*
Y5360000D01*
X7995092D01*
Y5373776D01*
X7994722Y5378483D01*
X7993620Y5383075D01*
X7991813Y5387438D01*
X7991775Y5387500D01*
X7994608Y5394972D01*
X7996085Y5396711D01*
X7997099Y5397499D01*
X8015000D01*
Y5502500D01*
X7982585D01*
Y5733574D01*
X8021426Y5772415D01*
X8225001D01*
X8229316Y5772755D01*
X8233525Y5773765D01*
X8237524Y5775422D01*
X8241215Y5777683D01*
X8244506Y5780495D01*
X8294506Y5830494D01*
X8297317Y5833786D01*
X8299579Y5837477D01*
X8301235Y5841475D01*
X8302246Y5845685D01*
X8302585Y5850000D01*
Y5914262D01*
X8312585Y5918404D01*
X8350495Y5880494D01*
X8353786Y5877683D01*
X8357477Y5875422D01*
X8361476Y5873765D01*
X8365685Y5872755D01*
X8370000Y5872415D01*
X8435659D01*
X8436645Y5870035D01*
X8439887Y5863969D01*
X8443708Y5858251D01*
X8448071Y5852934D01*
X8452934Y5848071D01*
X8458251Y5843708D01*
X8463970Y5839887D01*
X8470035Y5836644D01*
X8476389Y5834012D01*
X8482971Y5832016D01*
X8489717Y5830674D01*
X8496561Y5830000D01*
X8503439D01*
X8510283Y5830674D01*
X8517029Y5832016D01*
X8523611Y5834012D01*
X8529965Y5836644D01*
X8536030Y5839887D01*
X8541749Y5843708D01*
X8547066Y5848071D01*
X8551929Y5852934D01*
X8556292Y5858251D01*
X8560113Y5863969D01*
X8563355Y5870035D01*
X8565987Y5876389D01*
X8567984Y5882971D01*
X8569326Y5889716D01*
X8570000Y5896561D01*
Y5903439D01*
X8569326Y5910283D01*
X8567984Y5917029D01*
X8565987Y5923610D01*
X8563355Y5929965D01*
X8560113Y5936030D01*
X8556292Y5941749D01*
X8551929Y5947066D01*
X8547066Y5951929D01*
X8541749Y5956292D01*
X8536030Y5960113D01*
X8529965Y5963355D01*
X8523611Y5965987D01*
X8517029Y5967984D01*
X8510283Y5969326D01*
X8503439Y5970000D01*
X8496561D01*
X8489717Y5969326D01*
X8482971Y5967984D01*
X8476389Y5965987D01*
X8470035Y5963355D01*
X8463970Y5960113D01*
X8458251Y5956292D01*
X8452934Y5951929D01*
X8448071Y5947066D01*
X8443708Y5941749D01*
X8439887Y5936030D01*
X8436645Y5929965D01*
X8435659Y5927585D01*
X8381426D01*
X8352585Y5956426D01*
Y6054262D01*
X8362585Y6058404D01*
X8390495Y6030494D01*
X8393786Y6027683D01*
X8397477Y6025422D01*
X8401476Y6023765D01*
X8405685Y6022755D01*
X8410000Y6022415D01*
X8435659D01*
X8436645Y6020035D01*
X8439887Y6013970D01*
X8443708Y6008251D01*
X8448071Y6002934D01*
X8452934Y5998071D01*
X8458251Y5993708D01*
X8463970Y5989887D01*
X8470035Y5986645D01*
X8476389Y5984013D01*
X8482971Y5982016D01*
X8489717Y5980674D01*
X8496561Y5980000D01*
X8503439D01*
X8510283Y5980674D01*
X8517029Y5982016D01*
X8523611Y5984013D01*
X8529965Y5986645D01*
X8536030Y5989887D01*
X8541749Y5993708D01*
X8547066Y5998071D01*
X8551929Y6002934D01*
X8556292Y6008251D01*
X8560113Y6013970D01*
X8563355Y6020035D01*
X8565987Y6026390D01*
X8567984Y6032971D01*
X8569326Y6039717D01*
X8570000Y6046561D01*
Y6053439D01*
X8569326Y6060284D01*
X8567984Y6067029D01*
X8565987Y6073611D01*
X8563355Y6079965D01*
X8560113Y6086030D01*
X8556292Y6091749D01*
X8551929Y6097066D01*
X8547066Y6101929D01*
X8541749Y6106292D01*
X8536030Y6110113D01*
X8529965Y6113356D01*
X8523611Y6115988D01*
X8517029Y6117984D01*
X8510283Y6119326D01*
X8503439Y6120000D01*
X8496561D01*
X8489717Y6119326D01*
X8482971Y6117984D01*
X8476389Y6115988D01*
X8470035Y6113356D01*
X8463970Y6110113D01*
X8458251Y6106292D01*
X8452934Y6101929D01*
X8448071Y6097066D01*
X8443708Y6091749D01*
X8439887Y6086030D01*
X8436645Y6079965D01*
X8435659Y6077585D01*
X8421426D01*
X8402585Y6096426D01*
Y6103371D01*
X8402827Y6103647D01*
X8405376Y6107462D01*
X8407405Y6111577D01*
X8408880Y6115921D01*
X8409775Y6120422D01*
X8410075Y6125000D01*
Y6234999D01*
X8409951Y6236896D01*
X8416517Y6240851D01*
X8419563Y6241426D01*
X8480495Y6180495D01*
D02*
G37*
G36*
X8950576Y5573076D02*
X8953633Y5570117D01*
X8960029Y5564508D01*
X8966778Y5559329D01*
X8973851Y5554603D01*
X8981218Y5550350D01*
X8988848Y5546587D01*
X8996707Y5543332D01*
X9004763Y5540598D01*
X9012980Y5538396D01*
X9021323Y5536736D01*
X9029757Y5535626D01*
X9038246Y5535069D01*
X9042500Y5535000D01*
X9042500D01*
X9420000Y5535000D01*
X9423929D01*
X9431763Y5534383D01*
X9439524Y5533154D01*
X9447165Y5531319D01*
X9454638Y5528891D01*
X9461898Y5525884D01*
X9468900Y5522316D01*
X9475600Y5518211D01*
X9481957Y5513592D01*
X9487933Y5508488D01*
X9493489Y5502932D01*
X9498592Y5496957D01*
X9503211Y5490599D01*
X9507317Y5483899D01*
X9510884Y5476898D01*
X9513891Y5469638D01*
X9516320Y5462165D01*
X9518154Y5454524D01*
X9519383Y5446763D01*
X9520000Y5438929D01*
Y5435000D01*
X9520000D01*
X9520000Y5250000D01*
Y5246071D01*
X9519383Y5238237D01*
X9518154Y5230476D01*
X9516320Y5222835D01*
X9513891Y5215361D01*
X9510884Y5208102D01*
X9507317Y5201100D01*
X9503211Y5194400D01*
X9498592Y5188043D01*
X9493489Y5182067D01*
X9487933Y5176511D01*
X9481957Y5171408D01*
X9475600Y5166789D01*
X9468900Y5162683D01*
X9461898Y5159116D01*
X9454638Y5156109D01*
X9447165Y5153680D01*
X9439524Y5151846D01*
X9431763Y5150617D01*
X9423929Y5150000D01*
X9420000D01*
Y5150000D01*
X9042500Y5150000D01*
X9038571D01*
X9030737Y5150617D01*
X9022976Y5151846D01*
X9015335Y5153680D01*
X9007862Y5156109D01*
X9000602Y5159116D01*
X8993600Y5162683D01*
X8986900Y5166789D01*
X8980543Y5171408D01*
X8974568Y5176511D01*
X8969011Y5182067D01*
X8963908Y5188043D01*
X8959289Y5194400D01*
X8955183Y5201100D01*
X8951616Y5208102D01*
X8948609Y5215361D01*
X8946180Y5222835D01*
X8944346Y5230476D01*
X8943117Y5238237D01*
X8942500Y5246071D01*
Y5250000D01*
X8942500D01*
X8942500Y5511446D01*
X8942446Y5514718D01*
X8942018Y5521248D01*
X8941164Y5527736D01*
X8939887Y5534154D01*
X8938194Y5540475D01*
X8936090Y5546671D01*
X8933586Y5552717D01*
X8930692Y5558586D01*
X8927420Y5564253D01*
X8923784Y5569694D01*
X8919801Y5574886D01*
X8915486Y5579806D01*
X8913210Y5582157D01*
X8913211D01*
X8889436Y5605931D01*
X8903579Y5620074D01*
X8950576Y5573076D01*
D02*
G37*
G36*
X9431763Y5049383D02*
X9439524Y5048154D01*
X9447165Y5046319D01*
X9454638Y5043891D01*
X9461898Y5040884D01*
X9468900Y5037317D01*
X9475600Y5033211D01*
X9481957Y5028592D01*
X9487933Y5023489D01*
X9493489Y5017932D01*
X9498592Y5011957D01*
X9503211Y5005600D01*
X9507317Y4998900D01*
X9510884Y4991898D01*
X9513892Y4984638D01*
X9516320Y4977165D01*
X9518154Y4969524D01*
X9519384Y4961762D01*
X9520000Y4953929D01*
Y4950000D01*
Y4800000D01*
Y4796071D01*
X9519384Y4788237D01*
X9518154Y4780476D01*
X9516320Y4772835D01*
X9513892Y4765361D01*
X9510884Y4758101D01*
X9507317Y4751100D01*
X9503211Y4744400D01*
X9498592Y4738043D01*
X9493489Y4732067D01*
X9487933Y4726511D01*
X9481957Y4721407D01*
X9475600Y4716789D01*
X9468900Y4712683D01*
X9461898Y4709115D01*
X9454638Y4706108D01*
X9447165Y4703680D01*
X9439524Y4701845D01*
X9431763Y4700616D01*
X9423929Y4700000D01*
X9038571D01*
X9030737Y4700616D01*
X9022976Y4701845D01*
X9015335Y4703680D01*
X9007862Y4706108D01*
X9000602Y4709115D01*
X8993600Y4712683D01*
X8986900Y4716789D01*
X8980543Y4721407D01*
X8974568Y4726511D01*
X8969011Y4732067D01*
X8963908Y4738043D01*
X8959289Y4744400D01*
X8955183Y4751100D01*
X8951616Y4758101D01*
X8948608Y4765361D01*
X8946180Y4772835D01*
X8944346Y4780476D01*
X8943116Y4788237D01*
X8942500Y4796071D01*
Y4800000D01*
Y4950000D01*
Y4953929D01*
X8943116Y4961762D01*
X8944346Y4969524D01*
X8946180Y4977165D01*
X8948608Y4984638D01*
X8951616Y4991898D01*
X8955183Y4998900D01*
X8959289Y5005600D01*
X8963908Y5011957D01*
X8969011Y5017932D01*
X8974568Y5023489D01*
X8980543Y5028592D01*
X8986900Y5033211D01*
X8993600Y5037316D01*
X9000602Y5040884D01*
X9007862Y5043891D01*
X9015335Y5046319D01*
X9022976Y5048154D01*
X9030737Y5049383D01*
X9038571Y5050000D01*
X9042500Y5049999D01*
X9420000Y5050000D01*
X9423929D01*
X9431763Y5049383D01*
D02*
G37*
G36*
Y4599383D02*
X9439524Y4598154D01*
X9447165Y4596319D01*
X9454638Y4593891D01*
X9461898Y4590884D01*
X9468900Y4587316D01*
X9475600Y4583211D01*
X9481957Y4578592D01*
X9487933Y4573488D01*
X9493489Y4567932D01*
X9498592Y4561957D01*
X9503211Y4555599D01*
X9507317Y4548899D01*
X9510884Y4541898D01*
X9513892Y4534638D01*
X9516320Y4527164D01*
X9518154Y4519524D01*
X9519384Y4511762D01*
X9520000Y4503929D01*
Y4500000D01*
Y4350000D01*
Y4346071D01*
X9519384Y4338237D01*
X9518154Y4330476D01*
X9516320Y4322835D01*
X9513892Y4315361D01*
X9510884Y4308102D01*
X9507317Y4301100D01*
X9503211Y4294400D01*
X9498592Y4288043D01*
X9493489Y4282067D01*
X9487933Y4276511D01*
X9481957Y4271408D01*
X9475600Y4266789D01*
X9468900Y4262683D01*
X9461898Y4259115D01*
X9454638Y4256108D01*
X9447165Y4253680D01*
X9439524Y4251845D01*
X9431763Y4250616D01*
X9423929Y4250000D01*
X9038571D01*
X9030737Y4250616D01*
X9022976Y4251845D01*
X9015335Y4253680D01*
X9007862Y4256108D01*
X9000602Y4259115D01*
X8993600Y4262683D01*
X8986900Y4266789D01*
X8980543Y4271408D01*
X8974568Y4276511D01*
X8969011Y4282067D01*
X8963908Y4288043D01*
X8959289Y4294400D01*
X8955183Y4301100D01*
X8951616Y4308102D01*
X8948608Y4315361D01*
X8946180Y4322835D01*
X8944346Y4330476D01*
X8943116Y4338237D01*
X8942500Y4346071D01*
Y4350000D01*
Y4500000D01*
Y4503929D01*
X8943116Y4511762D01*
X8944346Y4519524D01*
X8946180Y4527165D01*
X8948608Y4534638D01*
X8951616Y4541898D01*
X8955183Y4548899D01*
X8959289Y4555599D01*
X8963908Y4561957D01*
X8969011Y4567932D01*
X8974568Y4573488D01*
X8980543Y4578592D01*
X8986900Y4583211D01*
X8993600Y4587316D01*
X9000602Y4590884D01*
X9007862Y4593891D01*
X9015335Y4596319D01*
X9022976Y4598154D01*
X9030737Y4599383D01*
X9038571Y4599999D01*
X9042500Y4599999D01*
X9420000Y4600000D01*
X9423929D01*
X9431763Y4599383D01*
D02*
G37*
G36*
X1590883Y3999548D02*
X1060899Y3999543D01*
Y3960100D01*
X895899D01*
Y4064543D01*
X870881Y4089561D01*
X870880Y4149561D01*
X975882Y4149562D01*
Y4289563D01*
X1080881Y4394562D01*
X1590879D01*
X1590883Y3999548D01*
D02*
G37*
G36*
X9420000Y4150000D02*
X9423929D01*
X9431763Y4149383D01*
X9439524Y4148154D01*
X9447165Y4146319D01*
X9454638Y4143891D01*
X9461898Y4140884D01*
X9468900Y4137316D01*
X9475600Y4133211D01*
X9481957Y4128592D01*
X9487933Y4123488D01*
X9493489Y4117932D01*
X9498592Y4111957D01*
X9503211Y4105599D01*
X9507317Y4098899D01*
X9510884Y4091898D01*
X9513891Y4084638D01*
X9516320Y4077165D01*
X9518154Y4069524D01*
X9519383Y4061763D01*
X9520000Y4053929D01*
Y4050000D01*
X9520000D01*
X9520000Y3900000D01*
Y3896071D01*
X9519383Y3888237D01*
X9518154Y3880476D01*
X9516320Y3872835D01*
X9513891Y3865361D01*
X9510884Y3858102D01*
X9507317Y3851100D01*
X9503211Y3844400D01*
X9498592Y3838043D01*
X9493489Y3832067D01*
X9487933Y3826511D01*
X9481957Y3821408D01*
X9475600Y3816789D01*
X9468900Y3812683D01*
X9461898Y3809116D01*
X9454638Y3806108D01*
X9447165Y3803680D01*
X9439524Y3801846D01*
X9431763Y3800616D01*
X9423929Y3800000D01*
X9420000D01*
Y3800000D01*
X9042500Y3800000D01*
X9038571D01*
X9030737Y3800616D01*
X9022976Y3801846D01*
X9015335Y3803680D01*
X9007862Y3806108D01*
X9000602Y3809116D01*
X8993600Y3812683D01*
X8986900Y3816789D01*
X8980543Y3821408D01*
X8974568Y3826511D01*
X8969011Y3832067D01*
X8963908Y3838043D01*
X8959289Y3844400D01*
X8955183Y3851100D01*
X8951616Y3858102D01*
X8948609Y3865361D01*
X8946180Y3872835D01*
X8944346Y3880476D01*
X8943117Y3888237D01*
X8942500Y3896071D01*
Y3900000D01*
X8942500D01*
X8942500Y4050000D01*
Y4053929D01*
X8943117Y4061763D01*
X8944346Y4069524D01*
X8946180Y4077165D01*
X8948609Y4084638D01*
X8951616Y4091898D01*
X8955183Y4098900D01*
X8959289Y4105600D01*
X8963908Y4111957D01*
X8969011Y4117932D01*
X8974568Y4123489D01*
X8980543Y4128592D01*
X8986900Y4133211D01*
X8993600Y4137317D01*
X9000602Y4140884D01*
X9007862Y4143891D01*
X9015335Y4146319D01*
X9022976Y4148154D01*
X9030737Y4149383D01*
X9038571Y4150000D01*
X9042500D01*
Y4150000D01*
X9420000Y4150000D01*
D02*
G37*
G36*
X875822Y3874100D02*
Y3817100D01*
X875881Y3816355D01*
Y3791509D01*
X990881D01*
Y3015000D01*
X1610512D01*
X1610879Y3014963D01*
X5237929Y3014922D01*
X5238719Y3015000D01*
X5618712Y3015000D01*
X5618983Y3014956D01*
X5619607Y3014979D01*
X5620226Y3014918D01*
X6879903Y3014904D01*
X6879904Y2894636D01*
X6869137Y2889892D01*
X6868761Y2889680D01*
X6868357Y2889528D01*
X6853571Y2882243D01*
X6853205Y2882016D01*
X6852807Y2881846D01*
X6838346Y2873935D01*
X6837990Y2873692D01*
X6837600Y2873506D01*
X6823491Y2864983D01*
X6823147Y2864726D01*
X6822765Y2864523D01*
X6809033Y2855404D01*
X6808698Y2855131D01*
X6808326Y2854913D01*
X6794998Y2845215D01*
X6794675Y2844928D01*
X6794313Y2844694D01*
X6781412Y2834434D01*
X6781101Y2834134D01*
X6780750Y2833885D01*
X6768299Y2823082D01*
X6768003Y2822769D01*
X6767661Y2822505D01*
X6755684Y2811179D01*
X6755402Y2810853D01*
X6755073Y2810575D01*
X6743591Y2798748D01*
X6743322Y2798410D01*
X6743005Y2798118D01*
X6732040Y2785810D01*
X6731787Y2785461D01*
X6731482Y2785155D01*
X6721054Y2772389D01*
X6720816Y2772031D01*
X6720524Y2771711D01*
X6710652Y2758511D01*
X6710430Y2758143D01*
X6710152Y2757811D01*
X6700854Y2744201D01*
X6700646Y2743822D01*
X6700384Y2743480D01*
X6691677Y2729483D01*
X6691486Y2729096D01*
X6691238Y2728744D01*
X6683138Y2714388D01*
X6682964Y2713992D01*
X6682731Y2713629D01*
X6675253Y2698939D01*
X6675096Y2698537D01*
X6674879Y2698165D01*
X6668037Y2683168D01*
X6667897Y2682761D01*
X6667696Y2682378D01*
X6661502Y2667103D01*
X6661379Y2666689D01*
X6661195Y2666299D01*
X6655660Y2650773D01*
X6655556Y2650354D01*
X6655389Y2649956D01*
X6650523Y2634207D01*
X6650436Y2633784D01*
X6650286Y2633380D01*
X6646099Y2617437D01*
X6646031Y2617011D01*
X6645898Y2616601D01*
X6642397Y2600493D01*
X6642347Y2600065D01*
X6642232Y2599649D01*
X6639423Y2583406D01*
X6639392Y2582976D01*
X6639295Y2582556D01*
X6637184Y2566208D01*
X6637171Y2565777D01*
X6637092Y2565352D01*
X6635682Y2548929D01*
X6635688Y2548498D01*
X6635627Y2548070D01*
X6634922Y2531602D01*
X6634946Y2531171D01*
X6634903Y2530742D01*
Y2416193D01*
X6635000Y2415210D01*
Y1980000D01*
X6635089Y1971522D01*
X6635799Y1954581D01*
X6637217Y1937685D01*
X6639341Y1920863D01*
X6642167Y1904145D01*
X6645691Y1887560D01*
X6649905Y1871137D01*
X6654804Y1854904D01*
X6660377Y1838891D01*
X6666616Y1823125D01*
X6673510Y1807634D01*
X6681045Y1792445D01*
X6689210Y1777585D01*
X6697990Y1763080D01*
X6707369Y1748955D01*
X6717331Y1735235D01*
X6727859Y1721944D01*
X6738934Y1709105D01*
X6750536Y1696741D01*
X6762646Y1684873D01*
X6768884Y1679132D01*
X6772773Y1675628D01*
X6780173Y1668222D01*
X6787176Y1660439D01*
X6793762Y1652301D01*
X6799914Y1643829D01*
X6805614Y1635047D01*
X6810846Y1625979D01*
X6815597Y1616650D01*
X6819853Y1607084D01*
X6823604Y1597310D01*
X6826838Y1587352D01*
X6829546Y1577239D01*
X6831722Y1566998D01*
X6833359Y1556658D01*
X6834452Y1546245D01*
X6835000Y1535790D01*
Y1294389D01*
X6834371Y1283183D01*
X6833114Y1272031D01*
X6831234Y1260967D01*
X6828737Y1250025D01*
X6825630Y1239241D01*
X6821923Y1228648D01*
X6817629Y1218279D01*
X6812759Y1208168D01*
X6807331Y1198345D01*
X6801360Y1188842D01*
X6794865Y1179689D01*
X6787868Y1170915D01*
X6780389Y1162547D01*
X6772454Y1154611D01*
X6764085Y1147132D01*
X6755311Y1140135D01*
X6746158Y1133641D01*
X6736655Y1127670D01*
X6726833Y1122241D01*
X6716721Y1117371D01*
X6706353Y1113077D01*
X6695759Y1109370D01*
X6684975Y1106263D01*
X6674033Y1103766D01*
X6662969Y1101886D01*
X6651817Y1100629D01*
X6640612Y1100000D01*
X6360000D01*
X6348547Y1099906D01*
X6325653Y1099157D01*
X6302795Y1097659D01*
X6279999Y1095413D01*
X6257288Y1092424D01*
X6234688Y1088692D01*
X6212222Y1084223D01*
X6189914Y1079022D01*
X6167788Y1073093D01*
X6145868Y1066444D01*
X6124177Y1059081D01*
X6102739Y1051012D01*
X6081576Y1042246D01*
X6060711Y1032792D01*
X6040167Y1022661D01*
X6019965Y1011863D01*
X6000128Y1000410D01*
X5980676Y988314D01*
X5961630Y975588D01*
X5943010Y962245D01*
X5924837Y948301D01*
X5907130Y933769D01*
X5889908Y918666D01*
X5873190Y903007D01*
X5856993Y886810D01*
X5841334Y870091D01*
X5826231Y852869D01*
X5811699Y835162D01*
X5797754Y816989D01*
X5784412Y798370D01*
X5771686Y779324D01*
X5759590Y759872D01*
X5748137Y740034D01*
X5737339Y719833D01*
X5727207Y699288D01*
X5717754Y678424D01*
X5708988Y657261D01*
X5700919Y635823D01*
X5693556Y614132D01*
X5686907Y592212D01*
X5680978Y570086D01*
X5675776Y547778D01*
X5671307Y525312D01*
X5667576Y502711D01*
X5664586Y480001D01*
X5662341Y457205D01*
X5660843Y434347D01*
X5660093Y411453D01*
X5660000Y400000D01*
Y96071D01*
X5659383Y88237D01*
X5658154Y80476D01*
X5656319Y72835D01*
X5653891Y65362D01*
X5650884Y58102D01*
X5647317Y51100D01*
X5643211Y44400D01*
X5638592Y38043D01*
X5633489Y32068D01*
X5627932Y26511D01*
X5621957Y21408D01*
X5620556Y20390D01*
X600000Y20390D01*
X571524Y20390D01*
X514851Y25972D01*
X458995Y37082D01*
X404500Y53613D01*
X351885Y75407D01*
X301663Y102251D01*
X254311Y133891D01*
X210289Y170018D01*
X170019Y210288D01*
X133892Y254310D01*
X102252Y301662D01*
X75408Y351884D01*
X53614Y404500D01*
X37082Y458997D01*
X25972Y514850D01*
X20390Y571524D01*
Y599999D01*
Y3015000D01*
X690881D01*
Y3249562D01*
Y3269562D01*
X690881D01*
Y3489561D01*
X690881D01*
Y3507088D01*
X730882D01*
Y3507062D01*
X850881D01*
Y3507088D01*
X860881D01*
Y3735030D01*
X845881Y3750030D01*
Y3815884D01*
X845977Y3817100D01*
Y3874100D01*
X854341Y3879062D01*
X867660D01*
X875822Y3874100D01*
D02*
G37*
G36*
X9420000Y3699999D02*
X9423929D01*
X9431763Y3699383D01*
X9439524Y3698154D01*
X9447165Y3696319D01*
X9454638Y3693891D01*
X9461898Y3690884D01*
X9468900Y3687316D01*
X9475600Y3683211D01*
X9481957Y3678592D01*
X9487933Y3673488D01*
X9493489Y3667932D01*
X9498592Y3661957D01*
X9503211Y3655599D01*
X9507317Y3648899D01*
X9510884Y3641898D01*
X9513892Y3634638D01*
X9516320Y3627164D01*
X9518154Y3619524D01*
X9519383Y3611762D01*
X9520000Y3603929D01*
X9520000Y3599999D01*
X9520000Y3600000D01*
X9520000Y3450000D01*
Y3446071D01*
X9519383Y3438237D01*
X9518154Y3430476D01*
X9516320Y3422835D01*
X9513891Y3415361D01*
X9510884Y3408102D01*
X9507317Y3401100D01*
X9503211Y3394400D01*
X9498592Y3388043D01*
X9493489Y3382067D01*
X9487933Y3376511D01*
X9481957Y3371408D01*
X9475600Y3366789D01*
X9468900Y3362683D01*
X9461898Y3359116D01*
X9454638Y3356109D01*
X9447165Y3353680D01*
X9439524Y3351846D01*
X9431763Y3350617D01*
X9423929Y3350000D01*
X9420000D01*
Y3350000D01*
X9042500Y3350000D01*
X9038571D01*
X9030737Y3350617D01*
X9022976Y3351846D01*
X9015335Y3353680D01*
X9007862Y3356109D01*
X9000602Y3359116D01*
X8993600Y3362683D01*
X8986900Y3366789D01*
X8980543Y3371408D01*
X8974568Y3376511D01*
X8969011Y3382067D01*
X8963908Y3388043D01*
X8959289Y3394400D01*
X8955183Y3401100D01*
X8951616Y3408102D01*
X8948609Y3415361D01*
X8946180Y3422835D01*
X8944346Y3430476D01*
X8943117Y3438237D01*
X8942500Y3446071D01*
Y3450000D01*
X8942500D01*
X8942500Y3600000D01*
Y3603929D01*
X8943117Y3611763D01*
X8944346Y3619524D01*
X8946180Y3627165D01*
X8948609Y3634638D01*
X8951616Y3641898D01*
X8955183Y3648899D01*
X8959289Y3655599D01*
X8963908Y3661957D01*
X8969011Y3667932D01*
X8974568Y3673488D01*
X8980543Y3678592D01*
X8986900Y3683211D01*
X8993600Y3687316D01*
X9000602Y3690884D01*
X9007862Y3693891D01*
X9015335Y3696319D01*
X9022976Y3698154D01*
X9030737Y3699383D01*
X9038571Y3700000D01*
X9042500D01*
Y3700000D01*
X9420000Y3699999D01*
D02*
G37*
G36*
X1590881Y3049562D02*
X1160881D01*
Y3489562D01*
X1130881D01*
Y3699562D01*
X1080881D01*
Y3979562D01*
X1590881D01*
Y3049562D01*
D02*
G37*
G36*
X9420000Y3250000D02*
X9424366D01*
X9433065Y3249239D01*
X9441665Y3247722D01*
X9450099Y3245462D01*
X9458305Y3242476D01*
X9466219Y3238785D01*
X9473781Y3234419D01*
X9480934Y3229411D01*
X9487623Y3223798D01*
X9493798Y3217623D01*
X9499411Y3210934D01*
X9504420Y3203781D01*
X9508786Y3196219D01*
X9512476Y3188305D01*
X9515463Y3180099D01*
X9517723Y3171664D01*
X9519239Y3163065D01*
X9520000Y3154366D01*
Y3145634D01*
X9519239Y3136935D01*
X9517723Y3128335D01*
X9515463Y3119901D01*
X9512476Y3111695D01*
X9508786Y3103781D01*
X9504420Y3096219D01*
X9499411Y3089065D01*
X9493798Y3082376D01*
X9487623Y3076202D01*
X9480934Y3070589D01*
X9473781Y3065580D01*
X9466219Y3061214D01*
X9458305Y3057524D01*
X9450099Y3054537D01*
X9441665Y3052277D01*
X9433065Y3050761D01*
X9424366Y3050000D01*
X9291250D01*
Y3049999D01*
X9288797Y3049939D01*
X9283914Y3049458D01*
X9279101Y3048501D01*
X9274406Y3047077D01*
X9269872Y3045199D01*
X9265545Y3042886D01*
X9261465Y3040160D01*
X9257672Y3037047D01*
X9254203Y3033577D01*
X9251090Y3029784D01*
X9248364Y3025705D01*
X9246051Y3021377D01*
X9244173Y3016844D01*
X9242749Y3012149D01*
X9241792Y3007336D01*
X9241311Y3002453D01*
X9241251Y3000000D01*
X9221250D01*
X9221190Y3002453D01*
X9220709Y3007336D01*
X9219751Y3012149D01*
X9218327Y3016844D01*
X9216449Y3021377D01*
X9214137Y3025705D01*
X9211410Y3029784D01*
X9208298Y3033577D01*
X9204828Y3037047D01*
X9201035Y3040160D01*
X9196955Y3042886D01*
X9192628Y3045199D01*
X9188095Y3047077D01*
X9183399Y3048501D01*
X9178587Y3049458D01*
X9173704Y3049939D01*
X9171250Y3049999D01*
X9042500Y3050000D01*
X9038134D01*
X9029435Y3050761D01*
X9020835Y3052277D01*
X9012401Y3054537D01*
X9004195Y3057524D01*
X8996281Y3061214D01*
X8988719Y3065580D01*
X8981566Y3070589D01*
X8974877Y3076202D01*
X8968702Y3082377D01*
X8963089Y3089066D01*
X8958080Y3096219D01*
X8953714Y3103781D01*
X8950024Y3111695D01*
X8947037Y3119901D01*
X8944777Y3128335D01*
X8943261Y3136935D01*
X8942500Y3145634D01*
Y3154366D01*
X8943261Y3163065D01*
X8944777Y3171664D01*
X8947037Y3180099D01*
X8950024Y3188305D01*
X8953714Y3196219D01*
X8958080Y3203781D01*
X8963089Y3210934D01*
X8968702Y3217623D01*
X8974877Y3223798D01*
X8981566Y3229411D01*
X8988719Y3234419D01*
X8996281Y3238785D01*
X9004195Y3242476D01*
X9012401Y3245463D01*
X9020835Y3247722D01*
X9029435Y3249239D01*
X9038134Y3250000D01*
X9042500D01*
X9420000Y3250000D01*
D02*
G37*
G36*
X8541940Y2057090D02*
X8550951Y2056273D01*
X8559917Y2055048D01*
X8568818Y2053420D01*
X8577636Y2051391D01*
X8586354Y2048965D01*
X8594952Y2046148D01*
X8603415Y2042944D01*
X8611724Y2039361D01*
X8619863Y2035406D01*
X8627814Y2031087D01*
X8631688Y2028750D01*
X8635588Y2026457D01*
X8643537Y2022139D01*
X8651673Y2018185D01*
X8659980Y2014603D01*
X8668441Y2011400D01*
X8677037Y2008583D01*
X8685753Y2006158D01*
X8694568Y2004129D01*
X8703467Y2002501D01*
X8712430Y2001277D01*
X8721440Y2000460D01*
X8730477Y2000051D01*
X8735000Y2000000D01*
X9038624D01*
X9045854Y1999475D01*
X9053027Y1998429D01*
X9060105Y1996865D01*
X9067051Y1994794D01*
X9073829Y1992225D01*
X9080404Y1989172D01*
X9086740Y1985651D01*
X9092805Y1981681D01*
X9098566Y1977282D01*
X9103994Y1972477D01*
X9109060Y1967293D01*
X9113736Y1961755D01*
X9118001Y1955893D01*
X9121829Y1949738D01*
X9125202Y1943321D01*
X9126651Y1940000D01*
X9127671Y1937810D01*
X9130020Y1933592D01*
X9132765Y1929620D01*
X9135880Y1925931D01*
X9139337Y1922560D01*
X9143103Y1919538D01*
X9147143Y1916893D01*
X9151419Y1914651D01*
X9155891Y1912831D01*
X9160518Y1911451D01*
X9165257Y1910524D01*
X9170063Y1910058D01*
X9172477Y1910000D01*
X9267500D01*
Y1890000D01*
X9172477D01*
X9170063Y1889942D01*
X9165257Y1889476D01*
X9160518Y1888549D01*
X9155891Y1887169D01*
X9151419Y1885349D01*
X9147143Y1883106D01*
X9143103Y1880462D01*
X9139337Y1877440D01*
X9135880Y1874069D01*
X9132765Y1870380D01*
X9130020Y1866408D01*
X9127671Y1862189D01*
X9126652Y1860000D01*
X9124920Y1856034D01*
X9120786Y1848430D01*
X9116010Y1841212D01*
X9110629Y1834433D01*
X9104682Y1828144D01*
X9098213Y1822393D01*
X9091273Y1817222D01*
X9083911Y1812670D01*
X9080048Y1810721D01*
X8768435Y1653489D01*
Y1653488D01*
X8757198Y1647743D01*
X8734913Y1635894D01*
X8712886Y1623571D01*
X8691128Y1610779D01*
X8669649Y1597525D01*
X8648457Y1583815D01*
X8627564Y1569655D01*
X8606979Y1555051D01*
X8586711Y1540010D01*
X8566769Y1524539D01*
X8547162Y1508645D01*
X8527900Y1492335D01*
X8518401Y1484026D01*
X8353387Y1338132D01*
X8353387D01*
X8351127Y1336133D01*
X8346372Y1332416D01*
X8341403Y1328992D01*
X8336236Y1325873D01*
X8330890Y1323073D01*
X8325385Y1320599D01*
X8319742Y1318462D01*
X8313979Y1316668D01*
X8308119Y1315226D01*
X8302183Y1314140D01*
X8296191Y1313413D01*
X8290167Y1313050D01*
X8008921D01*
X8001087Y1313666D01*
X7993326Y1314895D01*
X7985685Y1316730D01*
X7978211Y1319158D01*
X7970952Y1322165D01*
X7963950Y1325733D01*
X7957250Y1329839D01*
X7950893Y1334457D01*
X7944917Y1339561D01*
X7939361Y1345117D01*
X7934257Y1351093D01*
X7929639Y1357450D01*
X7925533Y1364150D01*
X7921965Y1371151D01*
X7918958Y1378411D01*
X7916530Y1385885D01*
X7914695Y1393526D01*
X7913466Y1401287D01*
X7912850Y1409121D01*
Y1413050D01*
Y1802500D01*
X7912773Y1806425D01*
X7912157Y1814253D01*
X7910928Y1822009D01*
X7909095Y1829644D01*
X7906669Y1837111D01*
X7903664Y1844365D01*
X7900099Y1851362D01*
X7895997Y1858056D01*
X7891381Y1864409D01*
X7886282Y1870380D01*
X7880730Y1875932D01*
X7874759Y1881031D01*
X7868407Y1885646D01*
X7861712Y1889749D01*
X7854716Y1893314D01*
X7847461Y1896319D01*
X7839994Y1898745D01*
X7832359Y1900578D01*
X7824603Y1901806D01*
X7816776Y1902422D01*
X7812850Y1902500D01*
X7036192D01*
X7028614Y1903246D01*
X7021146Y1904732D01*
X7013859Y1906942D01*
X7006824Y1909856D01*
X7000108Y1913445D01*
X6993777Y1917676D01*
X6987891Y1922506D01*
X6982506Y1927891D01*
X6977676Y1933777D01*
X6973445Y1940108D01*
X6969856Y1946824D01*
X6966942Y1953859D01*
X6964732Y1961146D01*
X6963246Y1968614D01*
X6962500Y1976192D01*
Y1983807D01*
X6963246Y1991385D01*
X6964732Y1998853D01*
X6966942Y2006140D01*
X6969856Y2013175D01*
X6973445Y2019891D01*
X6977676Y2026222D01*
X6982506Y2032108D01*
X6987891Y2037492D01*
X6993777Y2042323D01*
X7000108Y2046554D01*
X7006824Y2050143D01*
X7013859Y2053057D01*
X7021146Y2055267D01*
X7028614Y2056753D01*
X7036192Y2057500D01*
X8532900D01*
X8541940Y2057090D01*
D02*
G37*
G36*
X8298913Y1086333D02*
X8306674Y1085104D01*
X8314315Y1083269D01*
X8321788Y1080841D01*
X8329048Y1077834D01*
X8336050Y1074267D01*
X8342750Y1070161D01*
X8349107Y1065542D01*
X8355082Y1060439D01*
X8360639Y1054882D01*
X8365742Y1048907D01*
X8370361Y1042550D01*
X8374467Y1035850D01*
X8378034Y1028848D01*
X8381041Y1021588D01*
X8383470Y1014115D01*
X8385304Y1006474D01*
X8386533Y998713D01*
X8387150Y990879D01*
Y986950D01*
Y737150D01*
Y726898D01*
X8386418Y706406D01*
X8384955Y685954D01*
X8382764Y665567D01*
X8379845Y645270D01*
X8376205Y625092D01*
X8371846Y605056D01*
X8366775Y585188D01*
X8360998Y565514D01*
X8354523Y546059D01*
X8347357Y526847D01*
X8339511Y507903D01*
X8330993Y489251D01*
X8321814Y470915D01*
X8311987Y452919D01*
X8301525Y435285D01*
X8290439Y418035D01*
X8278745Y401192D01*
X8266457Y384777D01*
X8253591Y368812D01*
X8240163Y353315D01*
X8226191Y338308D01*
X8211692Y323809D01*
X8196685Y309837D01*
X8181188Y296409D01*
X8165222Y283543D01*
X8148808Y271255D01*
X8131965Y259561D01*
X8114715Y248475D01*
X8097081Y238012D01*
X8079084Y228185D01*
X8060748Y219007D01*
X8042097Y210489D01*
X8023153Y202642D01*
X8003941Y195477D01*
X7984486Y189001D01*
X7964812Y183224D01*
X7944944Y178154D01*
X7924908Y173795D01*
X7904729Y170154D01*
X7884433Y167236D01*
X7864046Y165044D01*
X7843594Y163582D01*
X7823102Y162850D01*
X7659121D01*
X7651287Y163466D01*
X7643525Y164695D01*
X7635885Y166530D01*
X7628411Y168958D01*
X7621151Y171965D01*
X7614150Y175533D01*
X7607450Y179639D01*
X7601092Y184257D01*
X7595117Y189361D01*
X7589561Y194917D01*
X7584457Y200893D01*
X7579839Y207250D01*
X7575733Y213950D01*
X7572165Y220952D01*
X7569158Y228211D01*
X7566730Y235685D01*
X7564895Y243326D01*
X7563666Y251087D01*
X7563050Y258921D01*
Y262850D01*
Y537150D01*
Y541079D01*
X7563666Y548913D01*
X7564895Y556674D01*
X7566730Y564315D01*
X7569158Y571788D01*
X7572165Y579048D01*
X7575733Y586050D01*
X7579839Y592750D01*
X7584457Y599107D01*
X7589561Y605082D01*
X7595117Y610639D01*
X7601092Y615742D01*
X7607450Y620361D01*
X7614150Y624467D01*
X7621151Y628034D01*
X7628411Y631041D01*
X7635885Y633470D01*
X7643525Y635304D01*
X7651287Y636533D01*
X7659121Y637150D01*
X7812850D01*
X7816776Y637227D01*
X7824603Y637843D01*
X7832359Y639071D01*
X7839994Y640904D01*
X7847461Y643331D01*
X7854716Y646336D01*
X7861712Y649900D01*
X7868407Y654003D01*
X7874759Y658618D01*
X7880730Y663718D01*
X7886282Y669270D01*
X7891381Y675241D01*
X7895997Y681593D01*
X7900099Y688288D01*
X7903664Y695284D01*
X7906669Y702538D01*
X7909095Y710006D01*
X7910928Y717641D01*
X7912157Y725396D01*
X7912773Y733224D01*
X7912850Y737150D01*
Y986950D01*
Y990879D01*
X7913466Y998713D01*
X7914695Y1006474D01*
X7916530Y1014115D01*
X7918958Y1021588D01*
X7921965Y1028848D01*
X7925533Y1035850D01*
X7929639Y1042550D01*
X7934257Y1048907D01*
X7939361Y1054882D01*
X7944917Y1060439D01*
X7950893Y1065542D01*
X7957250Y1070161D01*
X7963950Y1074267D01*
X7970952Y1077834D01*
X7978211Y1080841D01*
X7985685Y1083269D01*
X7993326Y1085104D01*
X8001087Y1086333D01*
X8008921Y1086950D01*
X8291079D01*
X8298913Y1086333D01*
D02*
G37*
G36*
X7236950Y637150D02*
X7240879D01*
X7248713Y636533D01*
X7256474Y635304D01*
X7264115Y633469D01*
X7271588Y631041D01*
X7278848Y628034D01*
X7285850Y624467D01*
X7292550Y620361D01*
X7298907Y615742D01*
X7304882Y610639D01*
X7310439Y605082D01*
X7315542Y599107D01*
X7320161Y592750D01*
X7324267Y586050D01*
X7327834Y579048D01*
X7330841Y571788D01*
X7333269Y564315D01*
X7335104Y556674D01*
X7336333Y548913D01*
X7336950Y541079D01*
Y537150D01*
X7336950D01*
X7336950Y262850D01*
Y258920D01*
X7336333Y251087D01*
X7335104Y243325D01*
X7333269Y235685D01*
X7330841Y228211D01*
X7327834Y220951D01*
X7324267Y213950D01*
X7320161Y207250D01*
X7315542Y200892D01*
X7310439Y194917D01*
X7304882Y189361D01*
X7298907Y184257D01*
X7292549Y179638D01*
X7285849Y175533D01*
X7278848Y171965D01*
X7271588Y168958D01*
X7264115Y166530D01*
X7256474Y164695D01*
X7248712Y163466D01*
X7240879Y162850D01*
X7236949Y162850D01*
X6931175D01*
X6920515Y163419D01*
X6909901Y164556D01*
X6899362Y166258D01*
X6888930Y168519D01*
X6878632Y171334D01*
X6868500Y174694D01*
X6858561Y178589D01*
X6848844Y183009D01*
X6839376Y187941D01*
X6830186Y193371D01*
X6821298Y199283D01*
X6812737Y205661D01*
X6804530Y212487D01*
X6796698Y219740D01*
X6789264Y227401D01*
X6785756Y231425D01*
X6782196Y235400D01*
X6774765Y243058D01*
X6766935Y250309D01*
X6758731Y257132D01*
X6750173Y263508D01*
X6741289Y269418D01*
X6732101Y274846D01*
X6722637Y279776D01*
X6712923Y284195D01*
X6702988Y288089D01*
X6692859Y291447D01*
X6682566Y294261D01*
X6672137Y296521D01*
X6661602Y298222D01*
X6650991Y299359D01*
X6640335Y299928D01*
X6635000Y299999D01*
X6635000Y300000D01*
X6355634D01*
X6346935Y300761D01*
X6338335Y302277D01*
X6329901Y304537D01*
X6321695Y307524D01*
X6313781Y311214D01*
X6306219Y315580D01*
X6299066Y320589D01*
X6292377Y326202D01*
X6286202Y332377D01*
X6280589Y339066D01*
X6275580Y346219D01*
X6271214Y353781D01*
X6267524Y361695D01*
X6264537Y369901D01*
X6262277Y378335D01*
X6260761Y386935D01*
X6260000Y395634D01*
Y404366D01*
X6260761Y413065D01*
X6262277Y421664D01*
X6264537Y430099D01*
X6267524Y438305D01*
X6271214Y446219D01*
X6275580Y453781D01*
X6280589Y460934D01*
X6286202Y467623D01*
X6292377Y473798D01*
X6299066Y479411D01*
X6306219Y484419D01*
X6313781Y488785D01*
X6321695Y492476D01*
X6329901Y495463D01*
X6338335Y497722D01*
X6346935Y499239D01*
X6355634Y500000D01*
X6635000D01*
X6640336Y500071D01*
X6650992Y500640D01*
X6661602Y501777D01*
X6672137Y503478D01*
X6682566Y505738D01*
X6692860Y508552D01*
X6702988Y511911D01*
X6712924Y515805D01*
X6722637Y520223D01*
X6732101Y525153D01*
X6741289Y530581D01*
X6750174Y536491D01*
X6758731Y542867D01*
X6766936Y549690D01*
X6774765Y556941D01*
X6782196Y564600D01*
X6785756Y568575D01*
X6785756D01*
X6789264Y572598D01*
X6796698Y580259D01*
X6804530Y587512D01*
X6812737Y594338D01*
X6821298Y600716D01*
X6830186Y606628D01*
X6839377Y612058D01*
X6848844Y616990D01*
X6858561Y621410D01*
X6868500Y625306D01*
X6878632Y628666D01*
X6888930Y631480D01*
X6899363Y633741D01*
X6909901Y635443D01*
X6920515Y636580D01*
X6931175Y637150D01*
X6936513D01*
X6936513Y637150D01*
X7236950Y637150D01*
D02*
G37*
%LPC*%
G36*
X1685000Y7460000D02*
X1565000D01*
Y7427585D01*
X1515000D01*
Y7452500D01*
X1395001D01*
Y7347500D01*
X1515000D01*
Y7372415D01*
X1565000D01*
Y7340000D01*
X1685000D01*
Y7460000D01*
D02*
G37*
G36*
X6220699Y7401788D02*
Y7289700D01*
X6332788D01*
X6332627Y7291750D01*
X6331085Y7301483D01*
X6328785Y7311065D01*
X6325740Y7320436D01*
X6321969Y7329540D01*
X6317496Y7338320D01*
X6312347Y7346722D01*
X6306555Y7354694D01*
X6300155Y7362187D01*
X6293187Y7369155D01*
X6285694Y7375555D01*
X6277722Y7381347D01*
X6269320Y7386496D01*
X6260540Y7390969D01*
X6251437Y7394740D01*
X6242065Y7397785D01*
X6232483Y7400085D01*
X6222751Y7401627D01*
X6220699Y7401788D01*
D02*
G37*
G36*
X5179299Y7401788D02*
X5177249Y7401627D01*
X5167517Y7400085D01*
X5157935Y7397785D01*
X5148563Y7394740D01*
X5139460Y7390969D01*
X5130680Y7386496D01*
X5122278Y7381347D01*
X5114306Y7375555D01*
X5106813Y7369155D01*
X5099845Y7362187D01*
X5093445Y7354694D01*
X5087653Y7346722D01*
X5082504Y7338320D01*
X5078031Y7329540D01*
X5074260Y7320436D01*
X5071215Y7311065D01*
X5068915Y7301483D01*
X5067373Y7291750D01*
X5067212Y7289700D01*
X5179299D01*
Y7401788D01*
D02*
G37*
G36*
X1685000Y7260000D02*
X1565000D01*
Y7227585D01*
X1515000D01*
Y7252500D01*
X1395001D01*
Y7147500D01*
X1515000D01*
Y7172415D01*
X1565000D01*
Y7140000D01*
X1685000D01*
Y7260000D01*
D02*
G37*
G36*
X5179299Y7010300D02*
X5067212D01*
X5067373Y7008249D01*
X5068915Y6998517D01*
X5071215Y6988935D01*
X5074260Y6979563D01*
X5078031Y6970460D01*
X5082504Y6961679D01*
X5087653Y6953278D01*
X5093445Y6945306D01*
X5099845Y6937813D01*
X5106813Y6930845D01*
X5114306Y6924445D01*
X5122278Y6918653D01*
X5130680Y6913504D01*
X5139460Y6909031D01*
X5148563Y6905260D01*
X5157935Y6902215D01*
X5167517Y6899915D01*
X5177249Y6898373D01*
X5179299Y6898212D01*
Y7010300D01*
D02*
G37*
G36*
X3740000Y7470097D02*
X2835000D01*
X2834017Y7470000D01*
X2815000D01*
Y7450986D01*
X2814903Y7450000D01*
Y6880000D01*
X2705000D01*
Y6630000D01*
X2742415D01*
Y6628925D01*
X2742755Y6624610D01*
X2743765Y6620401D01*
X2745422Y6616402D01*
X2747683Y6612711D01*
X2747863Y6612500D01*
X2743723Y6602500D01*
X2735001D01*
Y6497500D01*
X2767415D01*
Y6452500D01*
X2735000D01*
Y6347500D01*
X2855000D01*
Y6436684D01*
X2856886Y6439353D01*
X2865000Y6444903D01*
X3079903D01*
Y6425000D01*
X3080289Y6421079D01*
X3081433Y6417309D01*
X3083290Y6413835D01*
X3085790Y6410790D01*
X3088835Y6408290D01*
X3092310Y6406433D01*
X3096079Y6405289D01*
X3100000Y6404903D01*
X3340000D01*
X3340985Y6405000D01*
X3359999D01*
Y6424015D01*
X3360096Y6425000D01*
Y6448607D01*
X3361187Y6449303D01*
X3370096Y6451633D01*
X3370789Y6450789D01*
X3373835Y6448290D01*
X3377309Y6446433D01*
X3381079Y6445289D01*
X3385000Y6444903D01*
X3489903D01*
Y6425000D01*
X3490289Y6421079D01*
X3491433Y6417309D01*
X3493290Y6413835D01*
X3495789Y6410790D01*
X3498835Y6408290D01*
X3502309Y6406433D01*
X3506079Y6405289D01*
X3510000Y6404903D01*
X3740000D01*
X3740986Y6405000D01*
X3760000D01*
Y6424015D01*
X3760097Y6425000D01*
Y6555000D01*
X3760000Y6555986D01*
Y6575000D01*
X3748422D01*
X3653211Y6670211D01*
X3650165Y6672710D01*
X3646691Y6674567D01*
X3642921Y6675711D01*
X3639000Y6676097D01*
X3441097D01*
Y6856001D01*
X3441000Y6856983D01*
Y6915018D01*
X3441097Y6916001D01*
Y7095904D01*
X3700903D01*
Y6676000D01*
X3701000Y6675015D01*
Y6656000D01*
X3720015D01*
X3721000Y6655903D01*
X4121000D01*
X4124921Y6656289D01*
X4125903Y6656588D01*
X4133106Y6652852D01*
X4135904Y6649949D01*
Y6491000D01*
X4136290Y6487079D01*
X4137433Y6483310D01*
X4139290Y6479835D01*
X4141790Y6476790D01*
X4144835Y6474290D01*
X4148310Y6472433D01*
X4152080Y6471290D01*
X4156000Y6470903D01*
X4376001D01*
X4376986Y6471001D01*
X4396000D01*
Y6490015D01*
X4396097Y6491000D01*
Y6680904D01*
X4415904D01*
Y6491000D01*
X4416001Y6490015D01*
Y6471001D01*
X4435015D01*
X4436000Y6470903D01*
X4616000D01*
X4616986Y6471001D01*
X4636000D01*
Y6490015D01*
X4636097Y6491000D01*
Y6811001D01*
X4635711Y6814921D01*
X4634567Y6818691D01*
X4632710Y6822166D01*
X4630211Y6825211D01*
X4627165Y6827710D01*
X4623691Y6829567D01*
X4619921Y6830711D01*
X4616000Y6831097D01*
X4251000D01*
X4250015Y6831000D01*
X4216985D01*
X4216000Y6831097D01*
X4156000D01*
X4155015Y6831000D01*
X4141097D01*
Y6871000D01*
X4140711Y6874921D01*
X4139567Y6878691D01*
X4137710Y6882166D01*
X4135211Y6885211D01*
X4132165Y6887710D01*
X4128691Y6889567D01*
X4124921Y6890711D01*
X4121000Y6891097D01*
X3871097D01*
Y7339000D01*
X3870711Y7342920D01*
X3869567Y7346690D01*
X3867710Y7350165D01*
X3865211Y7353210D01*
X3754210Y7464211D01*
X3751165Y7466710D01*
X3747690Y7468567D01*
X3743920Y7469711D01*
X3740000Y7470097D01*
D02*
G37*
G36*
X232700Y6535400D02*
Y6447700D01*
X415400D01*
Y6535400D01*
X232700D01*
D02*
G37*
G36*
X415400Y6422300D02*
X232700D01*
Y6334600D01*
X415400D01*
Y6422300D01*
D02*
G37*
G36*
X4636000Y6341000D02*
X4416001D01*
Y6326085D01*
X4396000D01*
Y6341000D01*
X4176000D01*
Y6171001D01*
X4215916D01*
Y6050000D01*
X4215945Y6049400D01*
X4215623Y6045308D01*
X4214525Y6040732D01*
X4212724Y6036383D01*
X4210265Y6032371D01*
X4207208Y6028792D01*
X4203629Y6025735D01*
X4199616Y6023276D01*
X4195268Y6021475D01*
X4190692Y6020377D01*
X4186600Y6020055D01*
X4186000Y6020084D01*
X3266000D01*
Y6035000D01*
X3046000D01*
Y5865000D01*
X3266000D01*
Y5879916D01*
X4186000D01*
Y5879909D01*
X4197124Y5880273D01*
X4208201Y5881364D01*
X4219183Y5883177D01*
X4230023Y5885705D01*
X4240674Y5888935D01*
X4251091Y5892856D01*
X4261229Y5897450D01*
X4271046Y5902697D01*
X4280498Y5908574D01*
X4289545Y5915058D01*
X4298149Y5922118D01*
X4306273Y5929727D01*
X4313881Y5937851D01*
X4320942Y5946455D01*
X4327426Y5955502D01*
X4333303Y5964954D01*
X4338550Y5974770D01*
X4343144Y5984909D01*
X4347064Y5995326D01*
X4350295Y6005977D01*
X4352823Y6016817D01*
X4354636Y6027798D01*
X4355727Y6038875D01*
X4356091Y6050000D01*
X4356084D01*
Y6171001D01*
X4396000D01*
Y6185916D01*
X4416001D01*
Y6171001D01*
X4455916D01*
Y6050000D01*
X4455909D01*
X4456274Y6038875D01*
X4457364Y6027798D01*
X4459178Y6016817D01*
X4461705Y6005977D01*
X4464936Y5995326D01*
X4468857Y5984909D01*
X4473450Y5974770D01*
X4478697Y5964954D01*
X4484575Y5955502D01*
X4491058Y5946455D01*
X4498119Y5937851D01*
X4505728Y5929727D01*
X4513852Y5922118D01*
X4522456Y5915058D01*
X4531503Y5908574D01*
X4540955Y5902697D01*
X4550771Y5897450D01*
X4560909Y5892856D01*
X4571326Y5888935D01*
X4581978Y5885705D01*
X4592817Y5883177D01*
X4603799Y5881364D01*
X4614876Y5880273D01*
X4626000Y5879909D01*
Y5879916D01*
X5546001D01*
Y5865000D01*
X5766000D01*
Y6035000D01*
X5546001D01*
Y6020084D01*
X4626000D01*
X4625400Y6020055D01*
X4621309Y6020377D01*
X4616732Y6021475D01*
X4612384Y6023276D01*
X4608371Y6025735D01*
X4604792Y6028792D01*
X4601736Y6032371D01*
X4599277Y6036383D01*
X4597476Y6040732D01*
X4596377Y6045308D01*
X4596055Y6049400D01*
X4596085Y6050000D01*
Y6171001D01*
X4636000D01*
Y6341000D01*
D02*
G37*
G36*
X1550000Y6354999D02*
X1450000D01*
Y6229999D01*
X1550000D01*
Y6245404D01*
X1592536D01*
X1592760Y6245213D01*
X1596115Y6243156D01*
X1599750Y6241650D01*
X1603577Y6240732D01*
X1607500Y6240423D01*
X1752500D01*
X1756423Y6240732D01*
X1760249Y6241650D01*
X1763884Y6243156D01*
X1767240Y6245213D01*
X1770232Y6247768D01*
X1772787Y6250760D01*
X1774844Y6254116D01*
X1776350Y6257751D01*
X1777268Y6261577D01*
X1777577Y6265500D01*
Y6315500D01*
X1777268Y6319423D01*
X1776350Y6323249D01*
X1774844Y6326885D01*
X1772787Y6330240D01*
X1770232Y6333232D01*
X1767240Y6335788D01*
X1763884Y6337844D01*
X1760249Y6339350D01*
X1756423Y6340268D01*
X1752500Y6340577D01*
X1607500D01*
X1603577Y6340268D01*
X1599750Y6339350D01*
X1596115Y6337844D01*
X1592760Y6335788D01*
X1592536Y6335597D01*
X1550000D01*
Y6354999D01*
D02*
G37*
G36*
X2292500Y6340577D02*
X2147500D01*
X2143577Y6340268D01*
X2139751Y6339350D01*
X2136115Y6337844D01*
X2132760Y6335788D01*
X2129768Y6333232D01*
X2127212Y6330240D01*
X2125156Y6326885D01*
X2123650Y6323249D01*
X2122732Y6319423D01*
X2122423Y6315500D01*
Y6265500D01*
X2122732Y6261577D01*
X2123650Y6257751D01*
X2125156Y6254115D01*
X2127212Y6250760D01*
X2129768Y6247768D01*
X2132760Y6245212D01*
X2136115Y6243156D01*
X2139751Y6241650D01*
X2143577Y6240732D01*
X2147500Y6240423D01*
X2292500D01*
X2296423Y6240732D01*
X2300249Y6241650D01*
X2303885Y6243156D01*
X2307240Y6245212D01*
X2310232Y6247768D01*
X2312788Y6250760D01*
X2314844Y6254115D01*
X2316350Y6257751D01*
X2317268Y6261577D01*
X2317577Y6265500D01*
Y6315500D01*
X2317268Y6319423D01*
X2316350Y6323249D01*
X2314844Y6326885D01*
X2312788Y6330240D01*
X2310232Y6333232D01*
X2307240Y6335788D01*
X2303885Y6337844D01*
X2300249Y6339350D01*
X2296423Y6340268D01*
X2292500Y6340577D01*
D02*
G37*
G36*
Y6213577D02*
X2147500D01*
X2143577Y6213268D01*
X2139751Y6212350D01*
X2136115Y6210844D01*
X2132760Y6208788D01*
X2129768Y6206232D01*
X2127212Y6203240D01*
X2125156Y6199885D01*
X2123650Y6196249D01*
X2122732Y6192423D01*
X2122423Y6188500D01*
Y6138500D01*
X2122732Y6134577D01*
X2123650Y6130751D01*
X2125156Y6127116D01*
X2127212Y6123760D01*
X2129768Y6120768D01*
X2132760Y6118213D01*
X2136115Y6116156D01*
X2139751Y6114650D01*
X2143577Y6113732D01*
X2147500Y6113423D01*
X2292500D01*
X2296423Y6113732D01*
X2300249Y6114650D01*
X2303885Y6116156D01*
X2307240Y6118213D01*
X2310232Y6120768D01*
X2312788Y6123760D01*
X2314844Y6127116D01*
X2316350Y6130751D01*
X2317268Y6134577D01*
X2317577Y6138500D01*
Y6188500D01*
X2317268Y6192423D01*
X2316350Y6196249D01*
X2314844Y6199885D01*
X2312788Y6203240D01*
X2310232Y6206232D01*
X2307240Y6208788D01*
X2303885Y6210844D01*
X2300249Y6212350D01*
X2296423Y6213268D01*
X2292500Y6213577D01*
D02*
G37*
G36*
X970000Y6270000D02*
X580000D01*
Y6130000D01*
X970000D01*
Y6169907D01*
X987535D01*
X1028721Y6128721D01*
X1032312Y6125655D01*
X1036338Y6123187D01*
X1040701Y6121380D01*
X1045292Y6120278D01*
X1050000Y6119907D01*
X1135001D01*
Y6080092D01*
X1050000D01*
X1045292Y6079722D01*
X1040701Y6078620D01*
X1036338Y6076813D01*
X1032312Y6074345D01*
X1028721Y6071279D01*
X987535Y6030093D01*
X970000D01*
Y6070000D01*
X580000D01*
Y5930000D01*
X970000D01*
Y5969907D01*
X1000000D01*
X1004708Y5970278D01*
X1009299Y5971380D01*
X1013662Y5973187D01*
X1017688Y5975655D01*
X1021279Y5978721D01*
X1062465Y6019907D01*
X1135001D01*
Y5997500D01*
X1365000D01*
Y6019908D01*
X1454338D01*
X1459024Y6015222D01*
X1462615Y6012155D01*
X1466641Y6009687D01*
X1471004Y6007881D01*
X1475595Y6006778D01*
X1480303Y6006408D01*
X1583012D01*
X1583650Y6003751D01*
X1585156Y6000116D01*
X1587212Y5996760D01*
X1589768Y5993768D01*
X1592760Y5991213D01*
X1596115Y5989156D01*
X1599751Y5987650D01*
X1603577Y5986732D01*
X1607500Y5986423D01*
X1752500D01*
X1756423Y5986732D01*
X1760249Y5987650D01*
X1763885Y5989156D01*
X1767240Y5991213D01*
X1770232Y5993768D01*
X1772788Y5996760D01*
X1774844Y6000116D01*
X1776350Y6003751D01*
X1777268Y6007577D01*
X1777577Y6011500D01*
Y6061500D01*
X1777268Y6065423D01*
X1776350Y6069249D01*
X1774844Y6072885D01*
X1772788Y6076240D01*
X1770232Y6079232D01*
X1767240Y6081788D01*
X1763885Y6083844D01*
X1760249Y6085350D01*
X1756423Y6086268D01*
X1752500Y6086577D01*
X1607500D01*
X1603577Y6086268D01*
X1599751Y6085350D01*
X1596115Y6083844D01*
X1592760Y6081788D01*
X1589768Y6079232D01*
X1587212Y6076240D01*
X1585156Y6072885D01*
X1583650Y6069249D01*
X1583012Y6066593D01*
X1492767D01*
X1488081Y6071279D01*
X1484491Y6074346D01*
X1480465Y6076813D01*
X1476102Y6078620D01*
X1471510Y6079722D01*
X1466803Y6080093D01*
X1365000D01*
Y6119907D01*
X1466803D01*
X1471510Y6120278D01*
X1476101Y6121380D01*
X1480464Y6123187D01*
X1484491Y6125655D01*
X1488081Y6128722D01*
X1492767Y6133408D01*
X1583012D01*
X1583650Y6130751D01*
X1585156Y6127116D01*
X1587212Y6123760D01*
X1589767Y6120768D01*
X1592760Y6118213D01*
X1596115Y6116156D01*
X1599750Y6114650D01*
X1603577Y6113732D01*
X1607500Y6113423D01*
X1752500D01*
X1756423Y6113732D01*
X1760249Y6114650D01*
X1763884Y6116156D01*
X1767240Y6118213D01*
X1770232Y6120768D01*
X1772787Y6123760D01*
X1774844Y6127116D01*
X1776350Y6130751D01*
X1777268Y6134577D01*
X1777577Y6138500D01*
Y6188500D01*
X1777268Y6192423D01*
X1776350Y6196249D01*
X1774844Y6199885D01*
X1772787Y6203240D01*
X1770232Y6206232D01*
X1767240Y6208788D01*
X1763884Y6210844D01*
X1760249Y6212350D01*
X1756423Y6213268D01*
X1752500Y6213577D01*
X1607500D01*
X1603577Y6213268D01*
X1599750Y6212350D01*
X1596115Y6210844D01*
X1592760Y6208788D01*
X1589767Y6206232D01*
X1587212Y6203240D01*
X1585156Y6199885D01*
X1583650Y6196249D01*
X1583012Y6193593D01*
X1480303D01*
X1475595Y6193222D01*
X1471003Y6192120D01*
X1466641Y6190313D01*
X1462615Y6187846D01*
X1459024Y6184779D01*
X1454338Y6180093D01*
X1365000D01*
Y6202500D01*
X1135001D01*
Y6180093D01*
X1062465D01*
X1021279Y6221279D01*
X1017688Y6224345D01*
X1013662Y6226813D01*
X1009299Y6228620D01*
X1004708Y6229722D01*
X1000000Y6230093D01*
X970000D01*
Y6270000D01*
D02*
G37*
G36*
X2292500Y6086577D02*
X2147500D01*
X2143577Y6086268D01*
X2139751Y6085350D01*
X2136115Y6083844D01*
X2132760Y6081788D01*
X2129768Y6079232D01*
X2127212Y6076240D01*
X2125156Y6072885D01*
X2123650Y6069249D01*
X2122732Y6065423D01*
X2122423Y6061500D01*
Y6011500D01*
X2122732Y6007577D01*
X2123650Y6003751D01*
X2125156Y6000116D01*
X2127212Y5996760D01*
X2129768Y5993768D01*
X2132760Y5991213D01*
X2136115Y5989156D01*
X2139751Y5987650D01*
X2143577Y5986732D01*
X2147500Y5986423D01*
X2292500D01*
X2296423Y5986732D01*
X2300249Y5987650D01*
X2303885Y5989156D01*
X2307240Y5991213D01*
X2310232Y5993768D01*
X2312788Y5996760D01*
X2314844Y6000116D01*
X2316350Y6003751D01*
X2317268Y6007577D01*
X2317577Y6011500D01*
Y6061500D01*
X2317268Y6065423D01*
X2316350Y6069249D01*
X2314844Y6072885D01*
X2312788Y6076240D01*
X2310232Y6079232D01*
X2307240Y6081788D01*
X2303885Y6083844D01*
X2300249Y6085350D01*
X2296423Y6086268D01*
X2292500Y6086577D01*
D02*
G37*
G36*
Y5959577D02*
X2147500D01*
X2143577Y5959268D01*
X2139751Y5958350D01*
X2136115Y5956844D01*
X2132760Y5954788D01*
X2129768Y5952232D01*
X2127212Y5949240D01*
X2125156Y5945885D01*
X2123650Y5942249D01*
X2122732Y5938423D01*
X2122423Y5934500D01*
Y5884500D01*
X2122732Y5880577D01*
X2123650Y5876751D01*
X2125156Y5873116D01*
X2127212Y5869760D01*
X2129768Y5866768D01*
X2132760Y5864213D01*
X2136115Y5862156D01*
X2139751Y5860650D01*
X2143577Y5859732D01*
X2147500Y5859423D01*
X2292500D01*
X2296423Y5859732D01*
X2300249Y5860650D01*
X2303885Y5862156D01*
X2307240Y5864213D01*
X2310232Y5866768D01*
X2312788Y5869760D01*
X2314844Y5873116D01*
X2316350Y5876751D01*
X2317268Y5880577D01*
X2317577Y5884500D01*
Y5934500D01*
X2317268Y5938423D01*
X2316350Y5942249D01*
X2314844Y5945885D01*
X2312788Y5949240D01*
X2310232Y5952232D01*
X2307240Y5954788D01*
X2303885Y5956844D01*
X2300249Y5958350D01*
X2296423Y5959268D01*
X2292500Y5959577D01*
D02*
G37*
G36*
X975400Y5875400D02*
X787700D01*
Y5812700D01*
X975400D01*
Y5875400D01*
D02*
G37*
G36*
X762300D02*
X574600D01*
Y5812700D01*
X762300D01*
Y5875400D01*
D02*
G37*
G36*
X7234299Y5992041D02*
X7228048Y5991690D01*
X7215479Y5990274D01*
X7203009Y5988155D01*
X7190678Y5985341D01*
X7178524Y5981839D01*
X7166586Y5977662D01*
X7154901Y5972822D01*
X7143505Y5967334D01*
X7132435Y5961216D01*
X7121725Y5954486D01*
X7111410Y5947167D01*
X7101521Y5939281D01*
X7092090Y5930853D01*
X7083146Y5921910D01*
X7074718Y5912478D01*
X7066832Y5902590D01*
X7059513Y5892274D01*
X7052784Y5881565D01*
X7046666Y5870495D01*
X7041178Y5859099D01*
X7036338Y5847414D01*
X7032160Y5835475D01*
X7028659Y5823321D01*
X7025844Y5810990D01*
X7023726Y5798521D01*
X7022309Y5785952D01*
X7021958Y5779700D01*
X7234299D01*
Y5992041D01*
D02*
G37*
G36*
X2665700D02*
Y5779699D01*
X2878042D01*
X2877691Y5785952D01*
X2876274Y5798521D01*
X2874156Y5810990D01*
X2871341Y5823321D01*
X2867840Y5835475D01*
X2863662Y5847414D01*
X2858822Y5859099D01*
X2853334Y5870495D01*
X2847216Y5881565D01*
X2840487Y5892274D01*
X2833168Y5902590D01*
X2825282Y5912478D01*
X2816854Y5921910D01*
X2807910Y5930853D01*
X2798479Y5939281D01*
X2788590Y5947167D01*
X2778275Y5954486D01*
X2767565Y5961216D01*
X2756495Y5967334D01*
X2745099Y5972822D01*
X2733414Y5977662D01*
X2721476Y5981839D01*
X2709322Y5985341D01*
X2696991Y5988155D01*
X2684521Y5990274D01*
X2671952Y5991690D01*
X2665700Y5992041D01*
D02*
G37*
G36*
X2640300D02*
X2634048Y5991690D01*
X2621479Y5990274D01*
X2609010Y5988155D01*
X2596678Y5985341D01*
X2584524Y5981839D01*
X2572586Y5977662D01*
X2560901Y5972822D01*
X2549505Y5967334D01*
X2538435Y5961216D01*
X2527725Y5954486D01*
X2517410Y5947167D01*
X2507521Y5939281D01*
X2498090Y5930853D01*
X2489146Y5921910D01*
X2480718Y5912478D01*
X2472832Y5902590D01*
X2465513Y5892274D01*
X2458784Y5881565D01*
X2452666Y5870495D01*
X2447178Y5859099D01*
X2442338Y5847414D01*
X2438160Y5835475D01*
X2434659Y5823321D01*
X2431844Y5810990D01*
X2429726Y5798521D01*
X2428309Y5785952D01*
X2427958Y5779699D01*
X2640300D01*
Y5992041D01*
D02*
G37*
G36*
X975400Y5787300D02*
X787700D01*
Y5724600D01*
X975400D01*
Y5787300D01*
D02*
G37*
G36*
X762300D02*
X574600D01*
Y5724600D01*
X762300D01*
Y5787300D01*
D02*
G37*
G36*
X2292500Y5740577D02*
X2147500D01*
X2143577Y5740268D01*
X2139751Y5739350D01*
X2136115Y5737844D01*
X2132760Y5735788D01*
X2129768Y5733232D01*
X2127212Y5730240D01*
X2125156Y5726885D01*
X2123650Y5723249D01*
X2122732Y5719423D01*
X2122423Y5715500D01*
Y5665500D01*
X2122732Y5661577D01*
X2123650Y5657751D01*
X2125156Y5654115D01*
X2127212Y5650760D01*
X2129768Y5647768D01*
X2132760Y5645212D01*
X2136115Y5643156D01*
X2139751Y5641650D01*
X2143577Y5640732D01*
X2147500Y5640423D01*
X2292500D01*
X2296423Y5640732D01*
X2300249Y5641650D01*
X2303885Y5643156D01*
X2307240Y5645212D01*
X2310232Y5647768D01*
X2312788Y5650760D01*
X2314844Y5654115D01*
X2316350Y5657751D01*
X2317268Y5661577D01*
X2317577Y5665500D01*
Y5715500D01*
X2317268Y5719423D01*
X2316350Y5723249D01*
X2314844Y5726885D01*
X2312788Y5730240D01*
X2310232Y5733232D01*
X2307240Y5735788D01*
X2303885Y5737844D01*
X2300249Y5739350D01*
X2296423Y5740268D01*
X2292500Y5740577D01*
D02*
G37*
G36*
X1550000Y5755000D02*
X1450000D01*
Y5630000D01*
X1550000D01*
Y5645403D01*
X1592536D01*
X1592760Y5645212D01*
X1596115Y5643156D01*
X1599751Y5641650D01*
X1603577Y5640732D01*
X1607500Y5640423D01*
X1752500D01*
X1756423Y5640732D01*
X1760249Y5641650D01*
X1763885Y5643156D01*
X1767240Y5645212D01*
X1770232Y5647768D01*
X1772788Y5650760D01*
X1774844Y5654115D01*
X1776350Y5657751D01*
X1777268Y5661577D01*
X1777577Y5665500D01*
Y5715500D01*
X1777268Y5719423D01*
X1776350Y5723249D01*
X1774844Y5726885D01*
X1772788Y5730240D01*
X1770232Y5733232D01*
X1767240Y5735788D01*
X1763885Y5737844D01*
X1760249Y5739350D01*
X1756423Y5740268D01*
X1752500Y5740577D01*
X1607500D01*
X1603577Y5740268D01*
X1599751Y5739350D01*
X1596115Y5737844D01*
X1592760Y5735788D01*
X1592536Y5735596D01*
X1550000D01*
Y5755000D01*
D02*
G37*
G36*
X7234299Y5754300D02*
X7021958D01*
X7022309Y5748047D01*
X7023726Y5735478D01*
X7025844Y5723009D01*
X7028659Y5710678D01*
X7032160Y5698524D01*
X7036338Y5686586D01*
X7041178Y5674900D01*
X7046666Y5663505D01*
X7052784Y5652434D01*
X7059513Y5641725D01*
X7066832Y5631410D01*
X7074718Y5621521D01*
X7083146Y5612090D01*
X7092090Y5603146D01*
X7101521Y5594718D01*
X7111410Y5586832D01*
X7121725Y5579513D01*
X7132435Y5572784D01*
X7143505Y5566665D01*
X7154901Y5561178D01*
X7166586Y5556337D01*
X7178524Y5552160D01*
X7190678Y5548658D01*
X7203009Y5545844D01*
X7215479Y5543725D01*
X7228048Y5542309D01*
X7234299Y5541958D01*
Y5754300D01*
D02*
G37*
G36*
X2878042Y5754299D02*
X2665700D01*
Y5541958D01*
X2671952Y5542309D01*
X2684521Y5543725D01*
X2696991Y5545844D01*
X2709322Y5548658D01*
X2721476Y5552160D01*
X2733414Y5556337D01*
X2745099Y5561178D01*
X2756495Y5566665D01*
X2767565Y5572784D01*
X2778275Y5579513D01*
X2788590Y5586832D01*
X2798479Y5594718D01*
X2807910Y5603146D01*
X2816854Y5612090D01*
X2825282Y5621521D01*
X2833168Y5631410D01*
X2840487Y5641725D01*
X2847216Y5652434D01*
X2853334Y5663505D01*
X2858822Y5674900D01*
X2863662Y5686586D01*
X2867840Y5698524D01*
X2871341Y5710678D01*
X2874156Y5723009D01*
X2876274Y5735478D01*
X2877691Y5748047D01*
X2878042Y5754299D01*
D02*
G37*
G36*
X2640300D02*
X2427958D01*
X2428309Y5748047D01*
X2429726Y5735478D01*
X2431844Y5723009D01*
X2434659Y5710678D01*
X2438160Y5698524D01*
X2442338Y5686586D01*
X2447178Y5674900D01*
X2452666Y5663505D01*
X2458784Y5652434D01*
X2465513Y5641725D01*
X2472832Y5631410D01*
X2480718Y5621521D01*
X2489146Y5612090D01*
X2498090Y5603146D01*
X2507521Y5594718D01*
X2517410Y5586832D01*
X2527725Y5579513D01*
X2538435Y5572784D01*
X2549505Y5566665D01*
X2560901Y5561178D01*
X2572586Y5556337D01*
X2584524Y5552160D01*
X2596678Y5548658D01*
X2609010Y5545844D01*
X2621479Y5543725D01*
X2634048Y5542309D01*
X2640300Y5541958D01*
Y5754299D01*
D02*
G37*
G36*
X970000Y5670000D02*
X580000D01*
Y5530000D01*
X970000D01*
Y5569907D01*
X987535D01*
X1028721Y5528721D01*
X1032312Y5525655D01*
X1036338Y5523187D01*
X1040701Y5521380D01*
X1045292Y5520278D01*
X1050000Y5519907D01*
X1135000D01*
Y5480092D01*
X1050000D01*
X1045292Y5479722D01*
X1040701Y5478620D01*
X1036338Y5476813D01*
X1032312Y5474345D01*
X1028721Y5471279D01*
X987535Y5430093D01*
X970000D01*
Y5470000D01*
X580000D01*
Y5330000D01*
X970000D01*
Y5369907D01*
X1000000D01*
X1004708Y5370278D01*
X1009299Y5371380D01*
X1013662Y5373187D01*
X1017688Y5375654D01*
X1021279Y5378721D01*
X1062465Y5419907D01*
X1135000D01*
Y5397500D01*
X1245000D01*
Y5397500D01*
X1365000D01*
Y5419907D01*
X1454338D01*
X1459024Y5415221D01*
X1462615Y5412155D01*
X1466641Y5409687D01*
X1471004Y5407880D01*
X1475595Y5406778D01*
X1480303Y5406407D01*
X1583012D01*
X1583650Y5403751D01*
X1585156Y5400115D01*
X1587212Y5396760D01*
X1589768Y5393768D01*
X1592760Y5391212D01*
X1596115Y5389156D01*
X1599751Y5387650D01*
X1603577Y5386732D01*
X1607500Y5386423D01*
X1752500D01*
X1756423Y5386732D01*
X1760249Y5387650D01*
X1763885Y5389156D01*
X1767240Y5391212D01*
X1770232Y5393768D01*
X1772788Y5396760D01*
X1774844Y5400115D01*
X1776350Y5403751D01*
X1777268Y5407577D01*
X1777577Y5411500D01*
Y5461500D01*
X1777268Y5465423D01*
X1776350Y5469249D01*
X1774844Y5472885D01*
X1772788Y5476240D01*
X1770232Y5479232D01*
X1767240Y5481788D01*
X1763885Y5483844D01*
X1760249Y5485350D01*
X1756423Y5486268D01*
X1752500Y5486577D01*
X1607500D01*
X1603577Y5486268D01*
X1599751Y5485350D01*
X1596115Y5483844D01*
X1592760Y5481788D01*
X1589768Y5479232D01*
X1587212Y5476240D01*
X1585156Y5472885D01*
X1583650Y5469249D01*
X1583012Y5466593D01*
X1492767D01*
X1488081Y5471279D01*
X1484491Y5474345D01*
X1480465Y5476813D01*
X1476102Y5478620D01*
X1471510Y5479722D01*
X1466803Y5480093D01*
X1365000D01*
Y5519907D01*
X1466803D01*
X1471510Y5520278D01*
X1476101Y5521380D01*
X1480464Y5523187D01*
X1484491Y5525654D01*
X1488081Y5528721D01*
X1492767Y5533407D01*
X1583012D01*
X1583650Y5530751D01*
X1585156Y5527115D01*
X1587212Y5523760D01*
X1589767Y5520768D01*
X1592760Y5518212D01*
X1596115Y5516156D01*
X1599750Y5514650D01*
X1603577Y5513732D01*
X1607500Y5513423D01*
X1752500D01*
X1756423Y5513732D01*
X1760249Y5514650D01*
X1763884Y5516156D01*
X1767240Y5518212D01*
X1770232Y5520768D01*
X1772787Y5523760D01*
X1774844Y5527115D01*
X1776350Y5530751D01*
X1777268Y5534577D01*
X1777577Y5538500D01*
Y5588500D01*
X1777268Y5592423D01*
X1776350Y5596249D01*
X1774844Y5599885D01*
X1772787Y5603240D01*
X1770232Y5606232D01*
X1767240Y5608788D01*
X1763884Y5610844D01*
X1760249Y5612350D01*
X1756423Y5613268D01*
X1752500Y5613577D01*
X1607500D01*
X1603577Y5613268D01*
X1599750Y5612350D01*
X1596115Y5610844D01*
X1592760Y5608788D01*
X1589767Y5606232D01*
X1587212Y5603240D01*
X1585156Y5599885D01*
X1583650Y5596249D01*
X1583012Y5593593D01*
X1480303D01*
X1475595Y5593222D01*
X1471003Y5592120D01*
X1466641Y5590313D01*
X1462615Y5587845D01*
X1459024Y5584779D01*
X1454338Y5580092D01*
X1365000D01*
Y5602500D01*
X1255000D01*
Y5602500D01*
X1135000D01*
Y5580093D01*
X1062465D01*
X1021279Y5621279D01*
X1017688Y5624345D01*
X1013662Y5626813D01*
X1009299Y5628620D01*
X1004708Y5629722D01*
X1000000Y5630093D01*
X970000D01*
Y5670000D01*
D02*
G37*
G36*
X2292500Y5613577D02*
X2147500D01*
X2143577Y5613268D01*
X2139751Y5612349D01*
X2136115Y5610843D01*
X2132760Y5608787D01*
X2129768Y5606232D01*
X2127212Y5603239D01*
X2125156Y5599884D01*
X2123650Y5596249D01*
X2122732Y5592423D01*
X2122423Y5588500D01*
Y5538500D01*
X2122732Y5534577D01*
X2123650Y5530750D01*
X2125156Y5527115D01*
X2127212Y5523760D01*
X2129768Y5520767D01*
X2132760Y5518212D01*
X2136115Y5516156D01*
X2139751Y5514650D01*
X2143577Y5513731D01*
X2147500Y5513423D01*
X2292500D01*
X2296423Y5513731D01*
X2300249Y5514650D01*
X2303885Y5516156D01*
X2307240Y5518212D01*
X2310232Y5520767D01*
X2312788Y5523760D01*
X2314844Y5527115D01*
X2316350Y5530750D01*
X2317268Y5534577D01*
X2317577Y5538500D01*
Y5588500D01*
X2317268Y5592423D01*
X2316350Y5596249D01*
X2314844Y5599884D01*
X2312788Y5603239D01*
X2310232Y5606232D01*
X2307240Y5608787D01*
X2303885Y5610843D01*
X2300249Y5612349D01*
X2296423Y5613268D01*
X2292500Y5613577D01*
D02*
G37*
G36*
X2292500Y5486577D02*
X2147500D01*
X2143577Y5486268D01*
X2139751Y5485350D01*
X2136115Y5483844D01*
X2132760Y5481788D01*
X2129768Y5479232D01*
X2127212Y5476240D01*
X2125156Y5472885D01*
X2123650Y5469249D01*
X2122732Y5465423D01*
X2122423Y5461500D01*
Y5411500D01*
X2122732Y5407577D01*
X2123650Y5403751D01*
X2125156Y5400115D01*
X2127212Y5396760D01*
X2129768Y5393768D01*
X2132760Y5391212D01*
X2136115Y5389156D01*
X2139751Y5387650D01*
X2143577Y5386732D01*
X2147500Y5386423D01*
X2292500D01*
X2296423Y5386732D01*
X2300249Y5387650D01*
X2303885Y5389156D01*
X2307240Y5391212D01*
X2310232Y5393768D01*
X2312788Y5396760D01*
X2314844Y5400115D01*
X2316350Y5403751D01*
X2317268Y5407577D01*
X2317577Y5411500D01*
Y5461500D01*
X2317268Y5465423D01*
X2316350Y5469249D01*
X2314844Y5472885D01*
X2312788Y5476240D01*
X2310232Y5479232D01*
X2307240Y5481788D01*
X2303885Y5483844D01*
X2300249Y5485350D01*
X2296423Y5486268D01*
X2292500Y5486577D01*
D02*
G37*
G36*
X2292500Y5359577D02*
X2147500D01*
X2143577Y5359268D01*
X2139751Y5358350D01*
X2136115Y5356844D01*
X2132760Y5354788D01*
X2129768Y5352232D01*
X2127212Y5349240D01*
X2125156Y5345885D01*
X2123650Y5342249D01*
X2122732Y5338423D01*
X2122423Y5334500D01*
Y5284500D01*
X2122732Y5280577D01*
X2123650Y5276751D01*
X2125156Y5273115D01*
X2127212Y5269760D01*
X2129768Y5266768D01*
X2132760Y5264212D01*
X2136115Y5262156D01*
X2139751Y5260650D01*
X2143577Y5259732D01*
X2147500Y5259423D01*
X2292500D01*
X2296423Y5259732D01*
X2300249Y5260650D01*
X2303885Y5262156D01*
X2307240Y5264212D01*
X2310232Y5266768D01*
X2312788Y5269760D01*
X2314844Y5273115D01*
X2316350Y5276751D01*
X2317268Y5280577D01*
X2317577Y5284500D01*
Y5334500D01*
X2317268Y5338423D01*
X2316350Y5342249D01*
X2314844Y5345885D01*
X2312788Y5349240D01*
X2310232Y5352232D01*
X2307240Y5354788D01*
X2303885Y5356844D01*
X2300249Y5358350D01*
X2296423Y5359268D01*
X2292500Y5359577D01*
D02*
G37*
G36*
X975400Y5275400D02*
X787700D01*
Y5212701D01*
X975400D01*
Y5275400D01*
D02*
G37*
G36*
X762300D02*
X574600D01*
Y5212701D01*
X762300D01*
Y5275400D01*
D02*
G37*
G36*
X975400Y5187301D02*
X787700D01*
Y5124600D01*
X975400D01*
Y5187301D01*
D02*
G37*
G36*
X762300D02*
X574600D01*
Y5124600D01*
X762300D01*
Y5187301D01*
D02*
G37*
G36*
X2292500Y5140577D02*
X2147500D01*
X2143577Y5140268D01*
X2139751Y5139350D01*
X2136115Y5137844D01*
X2132760Y5135788D01*
X2129768Y5133232D01*
X2127212Y5130240D01*
X2125156Y5126885D01*
X2123650Y5123249D01*
X2122732Y5119423D01*
X2122423Y5115500D01*
Y5065500D01*
X2122732Y5061577D01*
X2123650Y5057751D01*
X2125156Y5054115D01*
X2127212Y5050760D01*
X2129768Y5047768D01*
X2132760Y5045212D01*
X2136115Y5043156D01*
X2139751Y5041650D01*
X2143577Y5040732D01*
X2147500Y5040423D01*
X2292500D01*
X2296423Y5040732D01*
X2300249Y5041650D01*
X2303885Y5043156D01*
X2307240Y5045212D01*
X2310232Y5047768D01*
X2312788Y5050760D01*
X2314844Y5054115D01*
X2316350Y5057751D01*
X2317268Y5061577D01*
X2317577Y5065500D01*
Y5115500D01*
X2317268Y5119423D01*
X2316350Y5123249D01*
X2314844Y5126885D01*
X2312788Y5130240D01*
X2310232Y5133232D01*
X2307240Y5135788D01*
X2303885Y5137844D01*
X2300249Y5139350D01*
X2296423Y5140268D01*
X2292500Y5140577D01*
D02*
G37*
G36*
X1550000Y5155000D02*
X1450000D01*
Y5030000D01*
X1550000D01*
Y5045404D01*
X1592536D01*
X1592760Y5045212D01*
X1596115Y5043156D01*
X1599751Y5041650D01*
X1603577Y5040732D01*
X1607500Y5040423D01*
X1752500D01*
X1756423Y5040732D01*
X1760249Y5041650D01*
X1763885Y5043156D01*
X1767240Y5045212D01*
X1770232Y5047768D01*
X1772788Y5050760D01*
X1774844Y5054115D01*
X1776350Y5057751D01*
X1777268Y5061577D01*
X1777577Y5065500D01*
Y5115500D01*
X1777268Y5119423D01*
X1776350Y5123249D01*
X1774844Y5126885D01*
X1772788Y5130240D01*
X1770232Y5133232D01*
X1767240Y5135788D01*
X1763885Y5137844D01*
X1760249Y5139350D01*
X1756423Y5140268D01*
X1752500Y5140577D01*
X1607500D01*
X1603577Y5140268D01*
X1599751Y5139350D01*
X1596115Y5137844D01*
X1592760Y5135788D01*
X1592536Y5135597D01*
X1550000D01*
Y5155000D01*
D02*
G37*
G36*
X6200000Y5395590D02*
X6189863Y5395228D01*
X6179779Y5394144D01*
X6169797Y5392343D01*
X6159969Y5389834D01*
X6150345Y5386631D01*
X6140973Y5382749D01*
X6131903Y5378209D01*
X6123180Y5373033D01*
X6114848Y5367249D01*
X6106951Y5360884D01*
X6099527Y5353973D01*
X6092615Y5346549D01*
X6086251Y5338651D01*
X6080466Y5330319D01*
X6075290Y5321596D01*
X6070750Y5312526D01*
X6066868Y5303155D01*
X6063665Y5293531D01*
X6061157Y5283703D01*
X6059356Y5273721D01*
X6058272Y5263636D01*
X6057910Y5253500D01*
Y5137500D01*
X6058272Y5127363D01*
X6059356Y5117278D01*
X6061157Y5107296D01*
X6063665Y5097468D01*
X6066868Y5087844D01*
X6070750Y5078473D01*
X6075290Y5069403D01*
X6080466Y5060680D01*
X6086251Y5052348D01*
X6092615Y5044450D01*
X6099527Y5037027D01*
X6106951Y5030115D01*
X6114848Y5023750D01*
X6123180Y5017966D01*
X6131903Y5012790D01*
X6140973Y5008250D01*
X6150345Y5004368D01*
X6159969Y5001165D01*
X6169797Y4998656D01*
X6179779Y4996856D01*
X6189863Y4995771D01*
X6200000Y4995409D01*
X6210137Y4995771D01*
X6220221Y4996856D01*
X6230203Y4998656D01*
X6240031Y5001165D01*
X6249656Y5004368D01*
X6259027Y5008250D01*
X6268097Y5012790D01*
X6276820Y5017966D01*
X6285152Y5023750D01*
X6293049Y5030115D01*
X6300473Y5037027D01*
X6307385Y5044450D01*
X6313749Y5052348D01*
X6319534Y5060680D01*
X6324710Y5069403D01*
X6329250Y5078473D01*
X6333132Y5087844D01*
X6336335Y5097468D01*
X6338843Y5107296D01*
X6340644Y5117278D01*
X6341728Y5127363D01*
X6342090Y5137500D01*
Y5253500D01*
X6341728Y5263636D01*
X6340644Y5273721D01*
X6338843Y5283703D01*
X6336335Y5293531D01*
X6333132Y5303155D01*
X6329250Y5312526D01*
X6324710Y5321596D01*
X6319534Y5330319D01*
X6313749Y5338651D01*
X6307385Y5346549D01*
X6300473Y5353973D01*
X6293049Y5360884D01*
X6285152Y5367249D01*
X6276820Y5373033D01*
X6268097Y5378209D01*
X6259027Y5382749D01*
X6249656Y5386631D01*
X6240031Y5389834D01*
X6230203Y5392343D01*
X6220221Y5394144D01*
X6210137Y5395228D01*
X6200000Y5395590D01*
D02*
G37*
G36*
X5766000Y5735000D02*
X5546000D01*
Y5565000D01*
X5585916D01*
Y5377030D01*
X5579180Y5373033D01*
X5570848Y5367249D01*
X5562951Y5360884D01*
X5555527Y5353973D01*
X5548615Y5346549D01*
X5542251Y5338651D01*
X5536466Y5330319D01*
X5531290Y5321596D01*
X5526750Y5312526D01*
X5522869Y5303155D01*
X5519665Y5293531D01*
X5517157Y5283703D01*
X5515356Y5273721D01*
X5514272Y5263636D01*
X5513910Y5253500D01*
Y5137500D01*
X5514272Y5127363D01*
X5515356Y5117278D01*
X5517157Y5107296D01*
X5519665Y5097468D01*
X5522869Y5087844D01*
X5526750Y5078473D01*
X5531290Y5069403D01*
X5536466Y5060680D01*
X5542251Y5052348D01*
X5548615Y5044450D01*
X5555527Y5037027D01*
X5562951Y5030115D01*
X5570848Y5023750D01*
X5579180Y5017966D01*
X5587903Y5012790D01*
X5596974Y5008250D01*
X5606345Y5004368D01*
X5615969Y5001165D01*
X5625797Y4998656D01*
X5635779Y4996856D01*
X5645863Y4995771D01*
X5656000Y4995409D01*
X5666137Y4995771D01*
X5676222Y4996856D01*
X5686204Y4998656D01*
X5696032Y5001165D01*
X5705656Y5004368D01*
X5715027Y5008250D01*
X5724097Y5012790D01*
X5732820Y5017966D01*
X5741152Y5023750D01*
X5749049Y5030115D01*
X5756473Y5037027D01*
X5763385Y5044450D01*
X5769749Y5052348D01*
X5775534Y5060680D01*
X5780710Y5069403D01*
X5785250Y5078473D01*
X5789132Y5087844D01*
X5792335Y5097468D01*
X5794843Y5107296D01*
X5796644Y5117278D01*
X5797729Y5127363D01*
X5798091Y5137500D01*
Y5253500D01*
X5797729Y5263636D01*
X5796644Y5273721D01*
X5794843Y5283703D01*
X5792335Y5293531D01*
X5789132Y5303155D01*
X5785250Y5312526D01*
X5780710Y5321596D01*
X5775534Y5330319D01*
X5769749Y5338651D01*
X5763385Y5346549D01*
X5756473Y5353973D01*
X5749049Y5360884D01*
X5741152Y5367249D01*
X5732820Y5373033D01*
X5726084Y5377030D01*
Y5565000D01*
X5766000D01*
Y5735000D01*
D02*
G37*
G36*
X3700000Y5395590D02*
X3689863Y5395228D01*
X3679779Y5394144D01*
X3669797Y5392343D01*
X3659969Y5389834D01*
X3650344Y5386631D01*
X3640973Y5382749D01*
X3631903Y5378209D01*
X3623180Y5373033D01*
X3614848Y5367249D01*
X3606951Y5360884D01*
X3599527Y5353973D01*
X3592615Y5346549D01*
X3586251Y5338651D01*
X3580466Y5330319D01*
X3575290Y5321596D01*
X3570750Y5312526D01*
X3566868Y5303155D01*
X3563665Y5293531D01*
X3561157Y5283703D01*
X3559356Y5273721D01*
X3558272Y5263636D01*
X3557910Y5253500D01*
Y5137500D01*
X3558272Y5127363D01*
X3559356Y5117278D01*
X3561157Y5107296D01*
X3563665Y5097468D01*
X3566868Y5087844D01*
X3570750Y5078473D01*
X3575290Y5069403D01*
X3580466Y5060680D01*
X3586251Y5052348D01*
X3592615Y5044450D01*
X3599527Y5037027D01*
X3606951Y5030115D01*
X3614848Y5023750D01*
X3623180Y5017966D01*
X3631903Y5012790D01*
X3640973Y5008250D01*
X3650344Y5004368D01*
X3659969Y5001165D01*
X3669797Y4998656D01*
X3679779Y4996856D01*
X3689863Y4995771D01*
X3700000Y4995409D01*
X3710137Y4995771D01*
X3720221Y4996856D01*
X3730203Y4998656D01*
X3740031Y5001165D01*
X3749655Y5004368D01*
X3759027Y5008250D01*
X3768097Y5012790D01*
X3776820Y5017966D01*
X3785152Y5023750D01*
X3793049Y5030115D01*
X3800473Y5037027D01*
X3807385Y5044450D01*
X3813749Y5052348D01*
X3819534Y5060680D01*
X3824710Y5069403D01*
X3829250Y5078473D01*
X3833132Y5087844D01*
X3836335Y5097468D01*
X3838843Y5107296D01*
X3840644Y5117278D01*
X3841728Y5127363D01*
X3842090Y5137500D01*
Y5253500D01*
X3841728Y5263636D01*
X3840644Y5273721D01*
X3838843Y5283703D01*
X3836335Y5293531D01*
X3833132Y5303155D01*
X3829250Y5312526D01*
X3824710Y5321596D01*
X3819534Y5330319D01*
X3813749Y5338651D01*
X3807385Y5346549D01*
X3800473Y5353973D01*
X3793049Y5360884D01*
X3785152Y5367249D01*
X3776820Y5373033D01*
X3768097Y5378209D01*
X3759027Y5382749D01*
X3749655Y5386631D01*
X3740031Y5389834D01*
X3730203Y5392343D01*
X3720221Y5394144D01*
X3710137Y5395228D01*
X3700000Y5395590D01*
D02*
G37*
G36*
X3265999Y5735000D02*
X3046000D01*
Y5565000D01*
X3085915D01*
Y5377030D01*
X3079180Y5373033D01*
X3070848Y5367249D01*
X3062951Y5360884D01*
X3055527Y5353973D01*
X3048615Y5346549D01*
X3042251Y5338651D01*
X3036466Y5330319D01*
X3031290Y5321596D01*
X3026750Y5312526D01*
X3022868Y5303155D01*
X3019665Y5293531D01*
X3017157Y5283703D01*
X3015356Y5273721D01*
X3014272Y5263636D01*
X3013910Y5253500D01*
Y5137500D01*
X3014272Y5127363D01*
X3015356Y5117278D01*
X3017157Y5107296D01*
X3019665Y5097468D01*
X3022868Y5087844D01*
X3026750Y5078473D01*
X3031290Y5069403D01*
X3036466Y5060680D01*
X3042251Y5052348D01*
X3048615Y5044450D01*
X3055527Y5037027D01*
X3062951Y5030115D01*
X3070848Y5023750D01*
X3079180Y5017966D01*
X3087903Y5012790D01*
X3096973Y5008250D01*
X3106345Y5004368D01*
X3115969Y5001165D01*
X3125797Y4998656D01*
X3135779Y4996856D01*
X3145863Y4995771D01*
X3156000Y4995409D01*
X3166137Y4995771D01*
X3176221Y4996856D01*
X3186203Y4998656D01*
X3196031Y5001165D01*
X3205656Y5004368D01*
X3215027Y5008250D01*
X3224097Y5012790D01*
X3232820Y5017966D01*
X3241152Y5023750D01*
X3249049Y5030115D01*
X3256473Y5037027D01*
X3263385Y5044450D01*
X3269749Y5052348D01*
X3275534Y5060680D01*
X3280710Y5069403D01*
X3285250Y5078473D01*
X3289132Y5087844D01*
X3292335Y5097468D01*
X3294843Y5107296D01*
X3296644Y5117278D01*
X3297728Y5127363D01*
X3298090Y5137500D01*
Y5253500D01*
X3297728Y5263636D01*
X3296644Y5273721D01*
X3294843Y5283703D01*
X3292335Y5293531D01*
X3289132Y5303155D01*
X3285250Y5312526D01*
X3280710Y5321596D01*
X3275534Y5330319D01*
X3269749Y5338651D01*
X3263385Y5346549D01*
X3256473Y5353973D01*
X3249049Y5360884D01*
X3241152Y5367249D01*
X3232820Y5373033D01*
X3226084Y5377030D01*
Y5565000D01*
X3265999D01*
Y5735000D01*
D02*
G37*
G36*
X2292500Y5013577D02*
X2147500D01*
X2143577Y5013268D01*
X2139751Y5012350D01*
X2136115Y5010844D01*
X2132760Y5008788D01*
X2129768Y5006232D01*
X2127212Y5003240D01*
X2125156Y4999885D01*
X2123650Y4996249D01*
X2122732Y4992423D01*
X2122423Y4988500D01*
Y4938500D01*
X2122732Y4934577D01*
X2123650Y4930751D01*
X2125156Y4927115D01*
X2127212Y4923760D01*
X2129768Y4920768D01*
X2132760Y4918212D01*
X2136115Y4916156D01*
X2139751Y4914650D01*
X2143577Y4913732D01*
X2147500Y4913423D01*
X2292500D01*
X2296423Y4913732D01*
X2300249Y4914650D01*
X2303885Y4916156D01*
X2307240Y4918212D01*
X2310232Y4920768D01*
X2312788Y4923760D01*
X2314844Y4927115D01*
X2316350Y4930751D01*
X2317268Y4934577D01*
X2317577Y4938500D01*
Y4988500D01*
X2317268Y4992423D01*
X2316350Y4996249D01*
X2314844Y4999885D01*
X2312788Y5003240D01*
X2310232Y5006232D01*
X2307240Y5008788D01*
X2303885Y5010844D01*
X2300249Y5012350D01*
X2296423Y5013268D01*
X2292500Y5013577D01*
D02*
G37*
G36*
X970000Y5070000D02*
X580000D01*
Y4930000D01*
X970000D01*
Y4969907D01*
X987535D01*
X1028721Y4928721D01*
X1032312Y4925655D01*
X1036338Y4923187D01*
X1040701Y4921380D01*
X1045292Y4920278D01*
X1050000Y4919907D01*
X1135001D01*
Y4880093D01*
X1050000D01*
X1045292Y4879722D01*
X1040701Y4878620D01*
X1036338Y4876813D01*
X1032312Y4874345D01*
X1028721Y4871279D01*
X987535Y4830093D01*
X970000D01*
Y4870000D01*
X580000D01*
Y4730000D01*
X970000D01*
Y4769907D01*
X1000000D01*
X1004708Y4770278D01*
X1009299Y4771380D01*
X1013662Y4773187D01*
X1017688Y4775655D01*
X1021279Y4778721D01*
X1062465Y4819907D01*
X1135001D01*
Y4797500D01*
X1365000D01*
Y4819908D01*
X1454338D01*
X1459024Y4815222D01*
X1462615Y4812155D01*
X1466641Y4809687D01*
X1471004Y4807880D01*
X1475595Y4806778D01*
X1480303Y4806407D01*
X1583012D01*
X1583650Y4803751D01*
X1585156Y4800115D01*
X1587212Y4796760D01*
X1589767Y4793768D01*
X1592760Y4791212D01*
X1596115Y4789156D01*
X1599750Y4787650D01*
X1603577Y4786732D01*
X1607500Y4786423D01*
X1752500D01*
X1756423Y4786732D01*
X1760249Y4787650D01*
X1763884Y4789156D01*
X1767240Y4791212D01*
X1770232Y4793768D01*
X1772787Y4796760D01*
X1774844Y4800115D01*
X1776350Y4803751D01*
X1777268Y4807577D01*
X1777577Y4811500D01*
Y4861500D01*
X1777268Y4865423D01*
X1776350Y4869249D01*
X1774844Y4872885D01*
X1772787Y4876240D01*
X1770232Y4879232D01*
X1767240Y4881788D01*
X1763884Y4883844D01*
X1760249Y4885350D01*
X1756423Y4886268D01*
X1752500Y4886577D01*
X1607500D01*
X1603577Y4886268D01*
X1599750Y4885350D01*
X1596115Y4883844D01*
X1592760Y4881788D01*
X1589767Y4879232D01*
X1587212Y4876240D01*
X1585156Y4872885D01*
X1583650Y4869249D01*
X1583012Y4866593D01*
X1492768D01*
X1488082Y4871279D01*
X1484491Y4874346D01*
X1480465Y4876813D01*
X1476102Y4878620D01*
X1471511Y4879722D01*
X1466803Y4880093D01*
X1365000D01*
Y4919907D01*
X1466803D01*
X1471510Y4920278D01*
X1476102Y4921380D01*
X1480465Y4923187D01*
X1484491Y4925655D01*
X1488081Y4928721D01*
X1492767Y4933407D01*
X1583012D01*
X1583650Y4930751D01*
X1585156Y4927115D01*
X1587212Y4923760D01*
X1589768Y4920768D01*
X1592760Y4918212D01*
X1596115Y4916156D01*
X1599751Y4914650D01*
X1603577Y4913732D01*
X1607500Y4913423D01*
X1752500D01*
X1756423Y4913732D01*
X1760249Y4914650D01*
X1763885Y4916156D01*
X1767240Y4918212D01*
X1770232Y4920768D01*
X1772788Y4923760D01*
X1774844Y4927115D01*
X1776350Y4930751D01*
X1777268Y4934577D01*
X1777577Y4938500D01*
Y4988500D01*
X1777268Y4992423D01*
X1776350Y4996249D01*
X1774844Y4999885D01*
X1772788Y5003240D01*
X1770232Y5006232D01*
X1767240Y5008788D01*
X1763885Y5010844D01*
X1760249Y5012350D01*
X1756423Y5013268D01*
X1752500Y5013577D01*
X1607500D01*
X1603577Y5013268D01*
X1599751Y5012350D01*
X1596115Y5010844D01*
X1592760Y5008788D01*
X1589768Y5006232D01*
X1587212Y5003240D01*
X1585156Y4999885D01*
X1583650Y4996249D01*
X1583012Y4993593D01*
X1480303D01*
X1475595Y4993222D01*
X1471004Y4992120D01*
X1466641Y4990313D01*
X1462615Y4987845D01*
X1459024Y4984779D01*
X1454338Y4980093D01*
X1365000D01*
Y5002500D01*
X1135001D01*
Y4980093D01*
X1062465D01*
X1021279Y5021279D01*
X1017688Y5024345D01*
X1013662Y5026813D01*
X1009299Y5028620D01*
X1004708Y5029722D01*
X1000000Y5030093D01*
X970000D01*
Y5070000D01*
D02*
G37*
G36*
X2292500Y4886577D02*
X2147500D01*
X2143577Y4886268D01*
X2139751Y4885350D01*
X2136115Y4883844D01*
X2132760Y4881788D01*
X2129768Y4879232D01*
X2127212Y4876240D01*
X2125156Y4872885D01*
X2123650Y4869249D01*
X2122732Y4865423D01*
X2122423Y4861500D01*
Y4811500D01*
X2122732Y4807577D01*
X2123650Y4803751D01*
X2125156Y4800115D01*
X2127212Y4796760D01*
X2129768Y4793768D01*
X2132760Y4791212D01*
X2136115Y4789156D01*
X2139751Y4787650D01*
X2143577Y4786732D01*
X2147500Y4786423D01*
X2292500D01*
X2296423Y4786732D01*
X2300249Y4787650D01*
X2303885Y4789156D01*
X2307240Y4791212D01*
X2310232Y4793768D01*
X2312788Y4796760D01*
X2314844Y4800115D01*
X2316350Y4803751D01*
X2317268Y4807577D01*
X2317577Y4811500D01*
Y4861500D01*
X2317268Y4865423D01*
X2316350Y4869249D01*
X2314844Y4872885D01*
X2312788Y4876240D01*
X2310232Y4879232D01*
X2307240Y4881788D01*
X2303885Y4883844D01*
X2300249Y4885350D01*
X2296423Y4886268D01*
X2292500Y4886577D01*
D02*
G37*
G36*
X2292500Y4759577D02*
X2147500D01*
X2143577Y4759268D01*
X2139751Y4758350D01*
X2136115Y4756844D01*
X2132760Y4754788D01*
X2129768Y4752232D01*
X2127212Y4749240D01*
X2125156Y4745885D01*
X2123650Y4742249D01*
X2122732Y4738423D01*
X2122423Y4734500D01*
Y4684500D01*
X2122732Y4680577D01*
X2123650Y4676751D01*
X2125156Y4673115D01*
X2127212Y4669760D01*
X2129768Y4666768D01*
X2132760Y4664212D01*
X2136115Y4662156D01*
X2139751Y4660650D01*
X2143577Y4659732D01*
X2147500Y4659423D01*
X2292500D01*
X2296423Y4659732D01*
X2300249Y4660650D01*
X2303885Y4662156D01*
X2307240Y4664212D01*
X2310232Y4666768D01*
X2312788Y4669760D01*
X2314844Y4673115D01*
X2316350Y4676751D01*
X2317268Y4680577D01*
X2317577Y4684500D01*
Y4734500D01*
X2317268Y4738423D01*
X2316350Y4742249D01*
X2314844Y4745885D01*
X2312788Y4749240D01*
X2310232Y4752232D01*
X2307240Y4754788D01*
X2303885Y4756844D01*
X2300249Y4758350D01*
X2296423Y4759268D01*
X2292500Y4759577D01*
D02*
G37*
G36*
X7872330Y4622767D02*
X7797671D01*
X7791785Y4622382D01*
X7785999Y4621231D01*
X7780413Y4619335D01*
X7775123Y4616725D01*
X7770218Y4613448D01*
X7765783Y4609559D01*
X7757937Y4601713D01*
X7750000Y4605000D01*
Y4605000D01*
X7650000D01*
Y4487585D01*
X7626930D01*
X7619758Y4496149D01*
X7619481Y4497585D01*
X7620000Y4502192D01*
Y4507808D01*
X7619371Y4513388D01*
X7618121Y4518863D01*
X7616266Y4524164D01*
X7613830Y4529224D01*
X7610842Y4533979D01*
X7607341Y4538370D01*
X7603370Y4542341D01*
X7598979Y4545842D01*
X7594224Y4548830D01*
X7589164Y4551266D01*
X7586249Y4552287D01*
X7586214Y4552317D01*
X7582523Y4554578D01*
X7578524Y4556235D01*
X7574315Y4557245D01*
X7570000Y4557585D01*
X7565685Y4557245D01*
X7561476Y4556235D01*
X7557477Y4554578D01*
X7553786Y4552317D01*
X7553750Y4552287D01*
X7550836Y4551266D01*
X7545776Y4548830D01*
X7541021Y4545842D01*
X7536630Y4542341D01*
X7532659Y4538370D01*
X7529158Y4533979D01*
X7526170Y4529224D01*
X7523733Y4524164D01*
X7521879Y4518863D01*
X7520629Y4513388D01*
X7520000Y4507808D01*
Y4502192D01*
X7520629Y4496611D01*
X7521879Y4491136D01*
X7523733Y4485836D01*
X7526170Y4480776D01*
X7529158Y4476021D01*
X7532659Y4471630D01*
X7536630Y4467659D01*
X7541021Y4464158D01*
X7545776Y4461170D01*
X7550836Y4458733D01*
X7553020Y4457969D01*
X7570494Y4440495D01*
X7573786Y4437683D01*
X7577476Y4435422D01*
X7581476Y4433765D01*
X7585685Y4432755D01*
X7590000Y4432415D01*
X7770000D01*
X7774315Y4432755D01*
X7778524Y4433765D01*
X7782523Y4435422D01*
X7786214Y4437683D01*
X7789505Y4440495D01*
X7792229Y4443218D01*
X7800000Y4440000D01*
Y4440000D01*
X8000000D01*
Y4555000D01*
X7934692D01*
X7933880Y4559079D01*
X7932405Y4563423D01*
X7930376Y4567538D01*
X7927827Y4571353D01*
X7924802Y4574802D01*
X7917110Y4582494D01*
X7917040Y4583557D01*
X7915889Y4589343D01*
X7913993Y4594929D01*
X7911384Y4600219D01*
X7908107Y4605124D01*
X7904218Y4609559D01*
X7899783Y4613448D01*
X7894878Y4616725D01*
X7889587Y4619334D01*
X7884002Y4621231D01*
X7878216Y4622381D01*
X7872330Y4622767D01*
D02*
G37*
G36*
X232700Y4665400D02*
Y4577701D01*
X415400D01*
Y4665400D01*
X232700D01*
D02*
G37*
G36*
X415400Y4552301D02*
X232700D01*
Y4464600D01*
X415400D01*
Y4552301D01*
D02*
G37*
G36*
X6744000Y5395590D02*
X6733863Y5395228D01*
X6723779Y5394144D01*
X6713797Y5392343D01*
X6703969Y5389834D01*
X6694344Y5386631D01*
X6684973Y5382749D01*
X6675903Y5378209D01*
X6667180Y5373033D01*
X6658848Y5367249D01*
X6650951Y5360884D01*
X6643527Y5353973D01*
X6636615Y5346549D01*
X6630251Y5338651D01*
X6624466Y5330319D01*
X6619290Y5321596D01*
X6614750Y5312526D01*
X6610868Y5303155D01*
X6607665Y5293531D01*
X6605157Y5283703D01*
X6603356Y5273721D01*
X6602272Y5263636D01*
X6601910Y5253500D01*
Y5137500D01*
X6602272Y5127363D01*
X6603356Y5117278D01*
X6605157Y5107296D01*
X6607665Y5097468D01*
X6610868Y5087844D01*
X6614750Y5078473D01*
X6619290Y5069403D01*
X6623907Y5061622D01*
Y4885000D01*
X6545500D01*
Y4535000D01*
X6716415D01*
Y4517426D01*
X6651574Y4452585D01*
X5854289D01*
X5849974Y4452245D01*
X5845765Y4451235D01*
X5841766Y4449579D01*
X5838075Y4447317D01*
X5834783Y4444505D01*
X5753218Y4362940D01*
X5751202D01*
X5699237Y4414905D01*
X5621456Y4337123D01*
X5621456Y4337124D01*
X5536603Y4252271D01*
X5588567Y4200307D01*
Y4198290D01*
X5532551Y4142273D01*
X5455449D01*
X5399432Y4198290D01*
Y4200307D01*
X5451397Y4252271D01*
X5366544Y4337124D01*
X5288762Y4414906D01*
X5236798Y4362941D01*
X5234782D01*
X5153217Y4444506D01*
X5149925Y4447317D01*
X5146234Y4449579D01*
X5142235Y4451235D01*
X5138026Y4452246D01*
X5133711Y4452585D01*
X4336426D01*
X4271585Y4517426D01*
Y4535000D01*
X4442500D01*
Y4885000D01*
X4364093D01*
Y5061623D01*
X4368710Y5069403D01*
X4373250Y5078473D01*
X4377131Y5087844D01*
X4380335Y5097468D01*
X4382843Y5107296D01*
X4384644Y5117278D01*
X4385728Y5127363D01*
X4386090Y5137500D01*
Y5253500D01*
X4385728Y5263636D01*
X4384644Y5273721D01*
X4382843Y5283703D01*
X4380335Y5293531D01*
X4377131Y5303155D01*
X4373250Y5312526D01*
X4368710Y5321596D01*
X4363534Y5330319D01*
X4357749Y5338651D01*
X4351385Y5346549D01*
X4344473Y5353973D01*
X4337049Y5360884D01*
X4329152Y5367249D01*
X4320820Y5373033D01*
X4312097Y5378209D01*
X4303026Y5382749D01*
X4293655Y5386631D01*
X4284031Y5389834D01*
X4274203Y5392343D01*
X4264221Y5394144D01*
X4254137Y5395228D01*
X4244000Y5395590D01*
X4233863Y5395228D01*
X4223778Y5394144D01*
X4213796Y5392343D01*
X4203968Y5389834D01*
X4194344Y5386631D01*
X4184973Y5382749D01*
X4175903Y5378209D01*
X4167180Y5373033D01*
X4158848Y5367249D01*
X4150951Y5360884D01*
X4143527Y5353973D01*
X4136615Y5346549D01*
X4130251Y5338651D01*
X4124466Y5330319D01*
X4119290Y5321596D01*
X4114750Y5312526D01*
X4110868Y5303155D01*
X4107665Y5293531D01*
X4105157Y5283703D01*
X4103356Y5273721D01*
X4102271Y5263636D01*
X4101910Y5253500D01*
Y5137500D01*
X4102271Y5127363D01*
X4103356Y5117278D01*
X4105157Y5107296D01*
X4107665Y5097468D01*
X4110868Y5087844D01*
X4114750Y5078473D01*
X4119290Y5069403D01*
X4123908Y5061621D01*
Y4885000D01*
X4045500D01*
Y4535000D01*
X4216415D01*
Y4506000D01*
X4216755Y4501685D01*
X4217765Y4497476D01*
X4219422Y4493477D01*
X4221683Y4489786D01*
X4224495Y4486495D01*
X4304544Y4406446D01*
X4305495Y4404400D01*
Y4395601D01*
X4304544Y4393555D01*
X4224495Y4313505D01*
X4221683Y4310214D01*
X4219422Y4306523D01*
X4217765Y4302524D01*
X4216755Y4298315D01*
X4216415Y4294000D01*
Y4090000D01*
X4216755Y4085685D01*
X4217765Y4081476D01*
X4219422Y4077477D01*
X4221683Y4073786D01*
X4224495Y4070495D01*
X4227786Y4067683D01*
X4231477Y4065422D01*
X4235476Y4063765D01*
X4239685Y4062755D01*
X4244000Y4062415D01*
X4248315Y4062755D01*
X4252524Y4063765D01*
X4256523Y4065422D01*
X4260214Y4067683D01*
X4263506Y4070495D01*
X4266317Y4073786D01*
X4268578Y4077477D01*
X4270235Y4081476D01*
X4271245Y4085685D01*
X4271585Y4090000D01*
Y4282574D01*
X4336426Y4347415D01*
X5101574D01*
X5160415Y4288574D01*
Y4286558D01*
X5108450Y4234593D01*
X5186232Y4156812D01*
X5271084Y4071959D01*
X5323049Y4123923D01*
X5325066D01*
X5403806Y4045183D01*
X5407098Y4042371D01*
X5410789Y4040110D01*
X5414787Y4038453D01*
X5418997Y4037443D01*
X5423312Y4037103D01*
X5564687D01*
X5569003Y4037443D01*
X5573212Y4038453D01*
X5577211Y4040110D01*
X5580901Y4042371D01*
X5584193Y4045183D01*
X5662934Y4123923D01*
X5664950D01*
X5716915Y4071958D01*
X5879549Y4234592D01*
X5827585Y4286557D01*
Y4288574D01*
X5886426Y4347415D01*
X6651574D01*
X6716415Y4282574D01*
Y4090000D01*
X6716755Y4085684D01*
X6717765Y4081475D01*
X6719422Y4077476D01*
X6721683Y4073786D01*
X6724495Y4070494D01*
X6727786Y4067683D01*
X6731477Y4065421D01*
X6735476Y4063765D01*
X6739685Y4062754D01*
X6744000Y4062415D01*
X6748315Y4062754D01*
X6752524Y4063765D01*
X6756523Y4065421D01*
X6760214Y4067683D01*
X6763505Y4070494D01*
X6766317Y4073786D01*
X6768578Y4077476D01*
X6770235Y4081475D01*
X6771245Y4085684D01*
X6771585Y4090000D01*
Y4294000D01*
X6771245Y4298315D01*
X6770235Y4302524D01*
X6768579Y4306523D01*
X6766317Y4310214D01*
X6763505Y4313505D01*
X6683456Y4393555D01*
X6682505Y4395600D01*
Y4404400D01*
X6683456Y4406445D01*
X6763505Y4486495D01*
X6766317Y4489786D01*
X6768579Y4493477D01*
X6770235Y4497476D01*
X6771245Y4501685D01*
X6771585Y4506000D01*
Y4535000D01*
X6942500D01*
Y4885000D01*
X6864093D01*
Y5061622D01*
X6868710Y5069403D01*
X6873250Y5078473D01*
X6877132Y5087844D01*
X6880335Y5097468D01*
X6882843Y5107296D01*
X6884644Y5117278D01*
X6885728Y5127363D01*
X6886090Y5137500D01*
Y5253500D01*
X6885728Y5263636D01*
X6884644Y5273721D01*
X6882843Y5283703D01*
X6880335Y5293531D01*
X6877132Y5303155D01*
X6873250Y5312526D01*
X6868710Y5321596D01*
X6863534Y5330319D01*
X6857749Y5338651D01*
X6851385Y5346549D01*
X6844473Y5353973D01*
X6837049Y5360884D01*
X6829152Y5367249D01*
X6820820Y5373033D01*
X6812097Y5378209D01*
X6803027Y5382749D01*
X6793655Y5386631D01*
X6784031Y5389834D01*
X6774203Y5392343D01*
X6764221Y5394144D01*
X6754137Y5395228D01*
X6744000Y5395590D01*
D02*
G37*
G36*
X7572808Y4145000D02*
X7567192D01*
X7561611Y4144371D01*
X7556137Y4143121D01*
X7550836Y4141267D01*
X7545776Y4138830D01*
X7541021Y4135842D01*
X7536630Y4132341D01*
X7532659Y4128370D01*
X7529158Y4123979D01*
X7526170Y4119224D01*
X7524136Y4115000D01*
X7520000D01*
Y4025000D01*
X7620000D01*
Y4115000D01*
X7615864D01*
X7613830Y4119224D01*
X7610842Y4123979D01*
X7607341Y4128370D01*
X7603370Y4132341D01*
X7598979Y4135842D01*
X7594224Y4138830D01*
X7589164Y4141267D01*
X7583864Y4143121D01*
X7578389Y4144371D01*
X7572808Y4145000D01*
D02*
G37*
G36*
X2045000Y4050097D02*
X1860000D01*
X1856079Y4049711D01*
X1852309Y4048567D01*
X1848835Y4046710D01*
X1845790Y4044211D01*
X1843290Y4041165D01*
X1841433Y4037691D01*
X1840289Y4033921D01*
X1839903Y4030000D01*
Y3950000D01*
X1840289Y3946079D01*
X1841433Y3942309D01*
X1843290Y3938835D01*
X1845790Y3935789D01*
X1848835Y3933290D01*
X1852309Y3931433D01*
X1856079Y3930289D01*
X1860000Y3929903D01*
X1886675D01*
X1934903Y3881675D01*
Y3850000D01*
X1935000Y3849014D01*
Y3830000D01*
X1954015D01*
X1955000Y3829903D01*
X2045000D01*
X2045985Y3830000D01*
X2065000D01*
Y3849014D01*
X2065097Y3850000D01*
Y3939925D01*
X2097500D01*
Y3805001D01*
X2114925D01*
Y3795000D01*
X2097500D01*
Y3675000D01*
X2202500D01*
Y3795000D01*
X2185075D01*
Y3805001D01*
X2202500D01*
Y3908964D01*
X2210000Y3915000D01*
X2310000D01*
Y4040000D01*
X2210000D01*
Y4040000D01*
X2202500Y4035000D01*
X2097500D01*
Y4010075D01*
X2065097D01*
Y4030000D01*
X2064711Y4033921D01*
X2063567Y4037691D01*
X2061710Y4041165D01*
X2059211Y4044211D01*
X2056165Y4046710D01*
X2052691Y4048567D01*
X2048921Y4049711D01*
X2045000Y4050097D01*
D02*
G37*
G36*
X5699000Y3265000D02*
X5549000D01*
Y3165000D01*
X5699000D01*
Y3265000D01*
D02*
G37*
%LPD*%
G36*
X3851000Y7339000D02*
Y6871000D01*
X4121000D01*
Y6676000D01*
X3721000D01*
Y7116001D01*
X3421000D01*
Y6916001D01*
X3135000D01*
Y6605000D01*
X3290000D01*
X3340000Y6555000D01*
Y6425000D01*
X3100000D01*
Y6465000D01*
X2865000D01*
Y6880000D01*
X2835000D01*
Y7450000D01*
X3740000D01*
X3851000Y7339000D01*
D02*
G37*
G36*
X4616000Y6491000D02*
X4436000D01*
Y6701000D01*
X4251000D01*
Y6811001D01*
X4616000D01*
Y6491000D01*
D02*
G37*
G36*
X4216000Y6681000D02*
X4376001D01*
Y6491000D01*
X4156000D01*
Y6811001D01*
X4216000D01*
Y6681000D01*
D02*
G37*
G36*
X3421000Y6656000D02*
X3639000D01*
X3740000Y6555000D01*
Y6425000D01*
X3510000D01*
Y6465000D01*
X3385000D01*
Y6573640D01*
X3308639Y6650000D01*
X3185000D01*
Y6856001D01*
X3421000D01*
Y6656000D01*
D02*
G37*
G36*
X2045000Y3850000D02*
X1955000D01*
Y3890000D01*
X1895000Y3950000D01*
X1860000D01*
Y4030000D01*
X2045000D01*
Y3850000D01*
D02*
G37*
%LPC*%
G36*
X7572808Y5345000D02*
X7567192D01*
X7561611Y5344371D01*
X7556137Y5343121D01*
X7550836Y5341267D01*
X7545776Y5338830D01*
X7541021Y5335842D01*
X7536630Y5332341D01*
X7532659Y5328370D01*
X7529158Y5323979D01*
X7526170Y5319224D01*
X7524136Y5315000D01*
X7520000D01*
Y5225000D01*
X7620000D01*
Y5315000D01*
X7615864D01*
X7613830Y5319224D01*
X7610842Y5323979D01*
X7607341Y5328370D01*
X7603370Y5332341D01*
X7598979Y5335842D01*
X7594224Y5338830D01*
X7589164Y5341267D01*
X7583864Y5343121D01*
X7578389Y5344371D01*
X7572808Y5345000D01*
D02*
G37*
G36*
X1169715Y2520000D02*
X1160285D01*
X1150885Y2519260D01*
X1141571Y2517785D01*
X1132402Y2515584D01*
X1123434Y2512670D01*
X1114722Y2509062D01*
X1106320Y2504780D01*
X1098280Y2499854D01*
X1090651Y2494311D01*
X1083481Y2488187D01*
X1076813Y2481519D01*
X1070689Y2474349D01*
X1065146Y2466720D01*
X1060220Y2458680D01*
X1055938Y2450278D01*
X1052330Y2441566D01*
X1049416Y2432598D01*
X1047215Y2423429D01*
X1045740Y2414115D01*
X1045000Y2404715D01*
Y2395285D01*
X1045740Y2385885D01*
X1047215Y2376571D01*
X1049416Y2367402D01*
X1052330Y2358434D01*
X1055938Y2349722D01*
X1060220Y2341320D01*
X1065146Y2333280D01*
X1070689Y2325651D01*
X1076813Y2318481D01*
X1083481Y2311813D01*
X1090651Y2305689D01*
X1098280Y2300147D01*
X1106320Y2295220D01*
X1114722Y2290939D01*
X1123434Y2287330D01*
X1132402Y2284416D01*
X1141571Y2282215D01*
X1150885Y2280740D01*
X1160285Y2280000D01*
X1169715D01*
X1179115Y2280740D01*
X1188429Y2282215D01*
X1197598Y2284416D01*
X1206566Y2287330D01*
X1215278Y2290939D01*
X1223680Y2295220D01*
X1231720Y2300147D01*
X1239349Y2305689D01*
X1246519Y2311813D01*
X1253187Y2318481D01*
X1259311Y2325651D01*
X1264853Y2333280D01*
X1269780Y2341320D01*
X1274061Y2349722D01*
X1277670Y2358434D01*
X1280584Y2367402D01*
X1282785Y2376571D01*
X1284260Y2385885D01*
X1285000Y2395285D01*
Y2404715D01*
X1284260Y2414115D01*
X1282785Y2423429D01*
X1280584Y2432598D01*
X1277670Y2441566D01*
X1274061Y2450278D01*
X1269780Y2458680D01*
X1264853Y2466720D01*
X1259311Y2474349D01*
X1253187Y2481519D01*
X1246519Y2488187D01*
X1239349Y2494311D01*
X1231720Y2499854D01*
X1223680Y2504780D01*
X1215278Y2509062D01*
X1206566Y2512670D01*
X1197598Y2515584D01*
X1188429Y2517785D01*
X1179115Y2519260D01*
X1169715Y2520000D01*
D02*
G37*
G36*
Y2220000D02*
X1160285D01*
X1150885Y2219260D01*
X1141571Y2217785D01*
X1132402Y2215584D01*
X1123434Y2212670D01*
X1114722Y2209062D01*
X1106320Y2204780D01*
X1098280Y2199854D01*
X1090651Y2194311D01*
X1083481Y2188187D01*
X1076813Y2181519D01*
X1070689Y2174349D01*
X1065146Y2166720D01*
X1060220Y2158680D01*
X1055938Y2150278D01*
X1052330Y2141566D01*
X1049416Y2132598D01*
X1047215Y2123429D01*
X1045740Y2114115D01*
X1045000Y2104715D01*
Y2095285D01*
X1045740Y2085885D01*
X1047215Y2076571D01*
X1049416Y2067402D01*
X1052330Y2058434D01*
X1055938Y2049722D01*
X1060220Y2041320D01*
X1065146Y2033280D01*
X1070689Y2025652D01*
X1076813Y2018481D01*
X1083481Y2011813D01*
X1090651Y2005689D01*
X1098280Y2000147D01*
X1106320Y1995220D01*
X1114722Y1990939D01*
X1123434Y1987330D01*
X1132402Y1984416D01*
X1141571Y1982215D01*
X1150885Y1980740D01*
X1160285Y1980000D01*
X1169715D01*
X1179115Y1980740D01*
X1188429Y1982215D01*
X1197598Y1984416D01*
X1206566Y1987330D01*
X1215278Y1990939D01*
X1223680Y1995220D01*
X1231720Y2000147D01*
X1239349Y2005689D01*
X1246519Y2011813D01*
X1253187Y2018481D01*
X1259311Y2025652D01*
X1264853Y2033280D01*
X1269780Y2041320D01*
X1274061Y2049722D01*
X1277670Y2058434D01*
X1280584Y2067402D01*
X1282785Y2076571D01*
X1284260Y2085885D01*
X1285000Y2095285D01*
Y2104715D01*
X1284260Y2114115D01*
X1282785Y2123429D01*
X1280584Y2132598D01*
X1277670Y2141566D01*
X1274061Y2150278D01*
X1269780Y2158680D01*
X1264853Y2166720D01*
X1259311Y2174349D01*
X1253187Y2181519D01*
X1246519Y2188187D01*
X1239349Y2194311D01*
X1231720Y2199854D01*
X1223680Y2204780D01*
X1215278Y2209062D01*
X1206566Y2212670D01*
X1197598Y2215584D01*
X1188429Y2217785D01*
X1179115Y2219260D01*
X1169715Y2220000D01*
D02*
G37*
G36*
X2204147Y2145000D02*
X2195852D01*
X2187588Y2144277D01*
X2179418Y2142837D01*
X2171405Y2140690D01*
X2163610Y2137852D01*
X2156092Y2134347D01*
X2148908Y2130199D01*
X2142112Y2125441D01*
X2135758Y2120108D01*
X2129892Y2114242D01*
X2124560Y2107888D01*
X2119801Y2101092D01*
X2115654Y2093908D01*
X2112148Y2086390D01*
X2109310Y2078595D01*
X2107163Y2070582D01*
X2105723Y2062412D01*
X2105000Y2054148D01*
Y2045853D01*
X2105723Y2037589D01*
X2107163Y2029419D01*
X2109310Y2021406D01*
X2112148Y2013611D01*
X2115654Y2006093D01*
X2119801Y1998909D01*
X2124560Y1992113D01*
X2129892Y1985759D01*
X2135758Y1979893D01*
X2142112Y1974560D01*
X2148908Y1969802D01*
X2156092Y1965654D01*
X2163610Y1962148D01*
X2171405Y1959311D01*
X2179418Y1957164D01*
X2187588Y1955724D01*
X2195852Y1955001D01*
X2204147D01*
X2212411Y1955724D01*
X2220581Y1957164D01*
X2228594Y1959311D01*
X2236389Y1962148D01*
X2243907Y1965654D01*
X2251092Y1969802D01*
X2257887Y1974560D01*
X2264242Y1979893D01*
X2270107Y1985759D01*
X2275440Y1992113D01*
X2280198Y1998909D01*
X2284346Y2006093D01*
X2287852Y2013611D01*
X2290689Y2021406D01*
X2292836Y2029419D01*
X2294276Y2037589D01*
X2294999Y2045853D01*
Y2054148D01*
X2294276Y2062412D01*
X2292836Y2070582D01*
X2290689Y2078595D01*
X2287852Y2086390D01*
X2284346Y2093908D01*
X2280198Y2101092D01*
X2275440Y2107888D01*
X2270107Y2114242D01*
X2264242Y2120108D01*
X2257887Y2125441D01*
X2251092Y2130199D01*
X2243907Y2134347D01*
X2236389Y2137852D01*
X2228594Y2140690D01*
X2220581Y2142837D01*
X2212411Y2144277D01*
X2204147Y2145000D01*
D02*
G37*
G36*
X440565Y2270000D02*
X429435D01*
X418328Y2269272D01*
X407293Y2267819D01*
X396376Y2265648D01*
X385625Y2262767D01*
X375085Y2259189D01*
X364802Y2254930D01*
X354819Y2250007D01*
X345180Y2244442D01*
X335926Y2238258D01*
X327095Y2231482D01*
X318727Y2224143D01*
X310857Y2216273D01*
X303518Y2207905D01*
X296742Y2199074D01*
X290558Y2189820D01*
X284993Y2180181D01*
X280070Y2170198D01*
X275811Y2159915D01*
X272233Y2149375D01*
X269352Y2138624D01*
X267181Y2127707D01*
X265728Y2116672D01*
X265000Y2105565D01*
Y2094435D01*
X265728Y2083328D01*
X267181Y2072293D01*
X269352Y2061376D01*
X272233Y2050625D01*
X275811Y2040086D01*
X280070Y2029802D01*
X284993Y2019820D01*
X290558Y2010180D01*
X296742Y2000926D01*
X303518Y1992096D01*
X310857Y1983727D01*
X318727Y1975857D01*
X327095Y1968518D01*
X335926Y1961742D01*
X345180Y1955558D01*
X354819Y1949993D01*
X364802Y1945070D01*
X375085Y1940811D01*
X385625Y1937233D01*
X396376Y1934352D01*
X407293Y1932181D01*
X418328Y1930728D01*
X429435Y1930000D01*
X440565D01*
X451672Y1930728D01*
X462707Y1932181D01*
X473624Y1934352D01*
X484375Y1937233D01*
X494914Y1940811D01*
X505198Y1945070D01*
X515180Y1949993D01*
X524820Y1955558D01*
X534074Y1961742D01*
X542904Y1968518D01*
X551273Y1975857D01*
X559143Y1983727D01*
X566482Y1992096D01*
X573258Y2000926D01*
X579442Y2010180D01*
X585007Y2019820D01*
X589930Y2029802D01*
X594189Y2040086D01*
X597767Y2050625D01*
X600648Y2061376D01*
X602819Y2072293D01*
X604272Y2083328D01*
X605000Y2094435D01*
Y2105565D01*
X604272Y2116672D01*
X602819Y2127707D01*
X600648Y2138624D01*
X597767Y2149375D01*
X594189Y2159915D01*
X589930Y2170198D01*
X585007Y2180181D01*
X579442Y2189820D01*
X573258Y2199074D01*
X566482Y2207905D01*
X559143Y2216273D01*
X551273Y2224143D01*
X542904Y2231482D01*
X534074Y2238258D01*
X524820Y2244442D01*
X515180Y2250007D01*
X505198Y2254930D01*
X494914Y2259189D01*
X484375Y2262767D01*
X473624Y2265648D01*
X462707Y2267819D01*
X451672Y2269272D01*
X440565Y2270000D01*
D02*
G37*
G36*
X1169715Y1920000D02*
X1160285D01*
X1150885Y1919260D01*
X1141571Y1917785D01*
X1132402Y1915584D01*
X1123434Y1912670D01*
X1114722Y1909061D01*
X1106320Y1904780D01*
X1098280Y1899853D01*
X1090651Y1894311D01*
X1083481Y1888187D01*
X1076813Y1881519D01*
X1070689Y1874349D01*
X1065146Y1866720D01*
X1060220Y1858680D01*
X1055938Y1850278D01*
X1052330Y1841566D01*
X1049416Y1832598D01*
X1047215Y1823429D01*
X1045740Y1814115D01*
X1045000Y1804715D01*
Y1795285D01*
X1045740Y1785885D01*
X1047215Y1776571D01*
X1049416Y1767402D01*
X1052330Y1758434D01*
X1055938Y1749722D01*
X1060220Y1741320D01*
X1065146Y1733280D01*
X1070689Y1725651D01*
X1076813Y1718481D01*
X1083481Y1711813D01*
X1090651Y1705689D01*
X1098280Y1700146D01*
X1106320Y1695220D01*
X1114722Y1690938D01*
X1123434Y1687330D01*
X1132402Y1684416D01*
X1141571Y1682215D01*
X1150885Y1680740D01*
X1160285Y1680000D01*
X1169715D01*
X1179115Y1680740D01*
X1188429Y1682215D01*
X1197598Y1684416D01*
X1206566Y1687330D01*
X1215278Y1690938D01*
X1223680Y1695220D01*
X1231720Y1700146D01*
X1239349Y1705689D01*
X1246519Y1711813D01*
X1253187Y1718481D01*
X1259311Y1725651D01*
X1264853Y1733280D01*
X1269780Y1741320D01*
X1274061Y1749722D01*
X1277670Y1758434D01*
X1280584Y1767402D01*
X1282785Y1776571D01*
X1284260Y1785885D01*
X1285000Y1795285D01*
Y1804715D01*
X1284260Y1814115D01*
X1282785Y1823429D01*
X1280584Y1832598D01*
X1277670Y1841566D01*
X1274061Y1850278D01*
X1269780Y1858680D01*
X1264853Y1866720D01*
X1259311Y1874349D01*
X1253187Y1881519D01*
X1246519Y1888187D01*
X1239349Y1894311D01*
X1231720Y1899853D01*
X1223680Y1904780D01*
X1215278Y1909061D01*
X1206566Y1912670D01*
X1197598Y1915584D01*
X1188429Y1917785D01*
X1179115Y1919260D01*
X1169715Y1920000D01*
D02*
G37*
G36*
X3540000Y2520097D02*
X3265000D01*
X3264017Y2520000D01*
X3245000D01*
Y2500985D01*
X3244903Y2500000D01*
Y1100000D01*
X3245000Y1099015D01*
Y1080000D01*
X3264017D01*
X3265000Y1079903D01*
X3540000D01*
X3540983Y1080000D01*
X3560000D01*
Y1099015D01*
X3560097Y1100000D01*
Y2500000D01*
X3560000Y2500985D01*
Y2520000D01*
X3540983D01*
X3540000Y2520097D01*
D02*
G37*
G36*
X2204147Y1045000D02*
X2195852D01*
X2187588Y1044277D01*
X2179418Y1042836D01*
X2171405Y1040689D01*
X2163610Y1037852D01*
X2156092Y1034346D01*
X2148908Y1030198D01*
X2142112Y1025440D01*
X2135758Y1020108D01*
X2129892Y1014242D01*
X2124560Y1007887D01*
X2119801Y1001092D01*
X2115654Y993908D01*
X2112148Y986390D01*
X2109310Y978594D01*
X2107163Y970581D01*
X2105723Y962412D01*
X2105000Y954148D01*
Y945852D01*
X2105723Y937588D01*
X2107163Y929419D01*
X2109310Y921406D01*
X2112148Y913611D01*
X2115654Y906092D01*
X2119801Y898908D01*
X2124560Y892113D01*
X2129892Y885758D01*
X2135758Y879892D01*
X2142112Y874560D01*
X2148908Y869802D01*
X2156092Y865654D01*
X2163610Y862148D01*
X2171405Y859311D01*
X2179418Y857164D01*
X2187588Y855723D01*
X2195852Y855000D01*
X2204147D01*
X2212411Y855723D01*
X2220581Y857164D01*
X2228594Y859311D01*
X2236389Y862148D01*
X2243907Y865654D01*
X2251092Y869802D01*
X2257887Y874560D01*
X2264242Y879892D01*
X2270107Y885758D01*
X2275440Y892113D01*
X2280198Y898908D01*
X2284346Y906092D01*
X2287852Y913611D01*
X2290689Y921406D01*
X2292836Y929419D01*
X2294276Y937588D01*
X2294999Y945852D01*
Y954148D01*
X2294276Y962412D01*
X2292836Y970581D01*
X2290689Y978594D01*
X2287852Y986390D01*
X2284346Y993908D01*
X2280198Y1001092D01*
X2275440Y1007887D01*
X2270107Y1014242D01*
X2264242Y1020108D01*
X2257887Y1025440D01*
X2251092Y1030198D01*
X2243907Y1034346D01*
X2236389Y1037852D01*
X2228594Y1040689D01*
X2220581Y1042836D01*
X2212411Y1044277D01*
X2204147Y1045000D01*
D02*
G37*
G36*
X3560000Y920000D02*
X3245000D01*
Y680000D01*
X3560000D01*
Y920000D01*
D02*
G37*
G36*
X3980000Y560097D02*
X3115000D01*
X3111079Y559711D01*
X3107310Y558567D01*
X3103835Y556710D01*
X3100790Y554210D01*
X3098290Y551165D01*
X3096433Y547691D01*
X3095289Y543921D01*
X3094903Y540000D01*
Y260000D01*
X3095289Y256079D01*
X3096433Y252309D01*
X3098290Y248835D01*
X3100790Y245789D01*
X3103835Y243290D01*
X3107310Y241433D01*
X3111079Y240289D01*
X3115000Y239903D01*
X3980000D01*
X3983921Y240289D01*
X3987691Y241433D01*
X3991165Y243290D01*
X3994210Y245789D01*
X3996710Y248835D01*
X3998567Y252309D01*
X3999711Y256079D01*
X4000097Y260000D01*
Y540000D01*
X3999711Y543921D01*
X3998567Y547691D01*
X3996710Y551165D01*
X3994210Y554210D01*
X3991165Y556710D01*
X3987691Y558567D01*
X3983921Y559711D01*
X3980000Y560097D01*
D02*
G37*
G36*
X609725Y1120000D02*
X590275D01*
X570838Y1119273D01*
X551442Y1117819D01*
X532115Y1115641D01*
X512882Y1112743D01*
X493770Y1109127D01*
X474808Y1104798D01*
X456020Y1099764D01*
X437434Y1094031D01*
X419076Y1087607D01*
X400970Y1080502D01*
X383142Y1072724D01*
X365619Y1064284D01*
X348422Y1055196D01*
X331578Y1045471D01*
X315109Y1035123D01*
X299038Y1024166D01*
X283389Y1012616D01*
X268182Y1000489D01*
X253439Y987802D01*
X239181Y974572D01*
X225428Y960819D01*
X212198Y946561D01*
X199511Y931818D01*
X187384Y916611D01*
X175834Y900962D01*
X164877Y884891D01*
X154530Y868422D01*
X144804Y851578D01*
X135716Y834382D01*
X127277Y816858D01*
X119499Y799030D01*
X112393Y780925D01*
X105969Y762566D01*
X100236Y743980D01*
X95202Y725192D01*
X90874Y706230D01*
X87258Y687119D01*
X84359Y667886D01*
X82181Y648558D01*
X80727Y629162D01*
X80000Y609725D01*
Y590275D01*
X80727Y570838D01*
X82181Y551442D01*
X84359Y532115D01*
X87258Y512882D01*
X90874Y493770D01*
X95202Y474808D01*
X100236Y456020D01*
X105969Y437434D01*
X112393Y419076D01*
X119499Y400970D01*
X127277Y383142D01*
X135716Y365619D01*
X144804Y348422D01*
X154530Y331578D01*
X164877Y315109D01*
X175834Y299038D01*
X187384Y283389D01*
X199511Y268182D01*
X212198Y253439D01*
X225428Y239181D01*
X239181Y225428D01*
X253439Y212198D01*
X268182Y199511D01*
X283389Y187384D01*
X299038Y175834D01*
X315109Y164877D01*
X331578Y154530D01*
X348422Y144804D01*
X365619Y135716D01*
X383142Y127277D01*
X400970Y119499D01*
X419076Y112393D01*
X437434Y105969D01*
X456020Y100236D01*
X474808Y95202D01*
X493770Y90874D01*
X512882Y87258D01*
X532115Y84359D01*
X551442Y82181D01*
X570838Y80727D01*
X590275Y80000D01*
X609725D01*
X629162Y80727D01*
X648558Y82181D01*
X667886Y84359D01*
X687119Y87258D01*
X706230Y90874D01*
X725192Y95202D01*
X743980Y100236D01*
X762566Y105969D01*
X780925Y112393D01*
X799030Y119499D01*
X816858Y127277D01*
X834382Y135716D01*
X851578Y144804D01*
X868422Y154530D01*
X884891Y164877D01*
X900962Y175834D01*
X916611Y187384D01*
X931818Y199511D01*
X946561Y212198D01*
X960819Y225428D01*
X974572Y239181D01*
X987802Y253439D01*
X1000489Y268182D01*
X1012616Y283389D01*
X1024166Y299038D01*
X1035123Y315109D01*
X1045471Y331578D01*
X1055196Y348422D01*
X1064284Y365619D01*
X1072724Y383142D01*
X1080502Y400970D01*
X1087607Y419076D01*
X1094031Y437434D01*
X1099764Y456020D01*
X1104798Y474808D01*
X1109127Y493770D01*
X1112743Y512882D01*
X1115641Y532115D01*
X1117819Y551442D01*
X1119273Y570838D01*
X1120000Y590275D01*
Y609725D01*
X1119273Y629162D01*
X1117819Y648558D01*
X1115641Y667886D01*
X1112743Y687119D01*
X1109127Y706230D01*
X1104798Y725192D01*
X1099764Y743980D01*
X1094031Y762566D01*
X1087607Y780925D01*
X1080502Y799030D01*
X1072724Y816858D01*
X1064284Y834382D01*
X1055196Y851578D01*
X1045471Y868422D01*
X1035123Y884891D01*
X1024166Y900962D01*
X1012616Y916611D01*
X1000489Y931818D01*
X987802Y946561D01*
X974572Y960819D01*
X960819Y974572D01*
X946561Y987802D01*
X931818Y1000489D01*
X916611Y1012616D01*
X900962Y1024166D01*
X884891Y1035123D01*
X868422Y1045471D01*
X851578Y1055196D01*
X834382Y1064284D01*
X816858Y1072724D01*
X799030Y1080502D01*
X780925Y1087607D01*
X762566Y1094031D01*
X743980Y1099764D01*
X725192Y1104798D01*
X706230Y1109127D01*
X687119Y1112743D01*
X667886Y1115641D01*
X648558Y1117819D01*
X629162Y1119273D01*
X609725Y1120000D01*
D02*
G37*
%LPD*%
G36*
X3540000Y1100000D02*
X3265000D01*
Y2500000D01*
X3540000D01*
Y1100000D01*
D02*
G37*
G36*
X3980000Y260000D02*
X3115000D01*
Y540000D01*
X3980000D01*
Y260000D01*
D02*
G37*
D10*
X8943505Y5566005D02*
G03*
X9042500Y5525000I98995J98995D01*
G01*
X9700000Y2600000D02*
G03*
X9500000Y2800000I-200000J0D01*
G01*
Y1900000D02*
G03*
X9700000Y2100000I0J200000D01*
G01*
X9231250Y3000000D02*
G03*
X9431250Y2800000I200000J0D01*
G01*
X8400000Y3880000D02*
Y5580000D01*
X7860000Y3800000D02*
X8320000D01*
X8400000Y3880000D01*
Y5580000D02*
X8480000Y5660000D01*
X8849510D01*
X8943505Y5566005D01*
X7835000Y3825000D02*
X7860000Y3800000D01*
X7835000Y3825000D02*
Y3897500D01*
X7735001Y4250000D02*
X7845000D01*
X7955000Y4183776D02*
X7965000Y4173776D01*
X7955000Y4183776D02*
Y4249999D01*
X7965000Y4102499D02*
Y4173776D01*
X7835000Y4102500D02*
Y4173776D01*
X7845000Y4183776D02*
Y4250000D01*
X7835000Y4173776D02*
X7845000Y4183776D01*
X7835000Y4773776D02*
X7845000Y4783776D01*
Y4850000D01*
X7835000Y4702500D02*
Y4773776D01*
X7965000Y4702499D02*
Y4773776D01*
X7955000Y4783776D02*
Y4849999D01*
Y4783776D02*
X7965000Y4773776D01*
X7735000Y4850000D02*
X7844999D01*
X7735001Y5450000D02*
X7845000D01*
X7955000Y5383776D02*
X7965000Y5373776D01*
X7955000Y5383776D02*
Y5450000D01*
X7965000Y5302499D02*
Y5373776D01*
X7835000Y5302500D02*
Y5373776D01*
X7845000Y5383776D02*
Y5450000D01*
X7835000Y5373776D02*
X7845000Y5383776D01*
X9225000Y5985000D02*
X9252500Y6012500D01*
X9445000D01*
X9005000Y6077500D02*
X9132500D01*
X9225000Y5985000D01*
Y5795000D02*
Y5985000D01*
X9180000Y5750000D02*
X9225000Y5795000D01*
X8900000Y5750000D02*
X9180000D01*
X8849510Y5699510D02*
X8900000Y5750000D01*
X8849510Y5660000D02*
Y5699510D01*
X4091000Y7016000D02*
Y7076664D01*
X4131000Y7116664D02*
Y7156000D01*
X4091000Y7076664D02*
X4131000Y7116664D01*
X1305000Y4850000D02*
X1466803D01*
X1480303Y4836500D01*
X1680000D01*
X1480303Y4963500D02*
X1680000D01*
X1466803Y4950000D02*
X1480303Y4963500D01*
X1305000Y4950000D02*
X1466803D01*
X1305000Y6050000D02*
X1466803D01*
X1480303Y6036500D01*
X1680000D01*
X1480303Y6163500D02*
X1680000D01*
X1466803Y6150000D02*
X1480303Y6163500D01*
X1305000Y6150000D02*
X1466803D01*
X1305000Y5550000D02*
X1466803D01*
X1480303Y5563500D01*
X1680000D01*
X1480303Y5436500D02*
X1680000D01*
X1466803Y5450000D02*
X1480303Y5436500D01*
X1305000Y5450000D02*
X1466803D01*
X775000Y6000000D02*
X1000000D01*
X1050000Y6050000D01*
X1195000D01*
X775000Y6200000D02*
X1000000D01*
X1050000Y6150000D01*
X1195000D01*
X775000Y5600000D02*
X1000000D01*
X1050000Y5550000D01*
X1195000D01*
X775000Y5400000D02*
X1000000D01*
X1050000Y5450000D01*
X1195000D01*
X775000Y5000000D02*
X1000000D01*
X1050000Y4950000D01*
X1195000D01*
X1050000Y4850000D02*
X1195000D01*
X1000000Y4800000D02*
X1050000Y4850000D01*
X775000Y4800000D02*
X1000000D01*
X655881Y3993562D02*
X760881D01*
X655900Y3975000D02*
Y3993543D01*
X655881Y3993562D02*
Y4114561D01*
X722238Y4076730D02*
Y4218845D01*
X742955Y4239561D01*
X655881Y4224562D02*
Y4314538D01*
X538381Y4224562D02*
X655881D01*
X535881Y4227061D02*
X538381Y4224562D01*
X535881Y4112062D02*
X538380Y4114561D01*
X700904Y4359562D02*
X800881D01*
X655881Y4314538D02*
X700904Y4359562D01*
X740418Y4058550D02*
X791113D01*
X722238Y4076730D02*
X740418Y4058550D01*
X791113D02*
X810881Y4038781D01*
X860881Y3993562D02*
Y4057062D01*
X798381Y4119561D02*
X860881Y4057062D01*
X9700000Y2100000D02*
Y2600000D01*
X9035000Y1900000D02*
X9500000D01*
X9431250Y2800000D02*
X9500000D01*
X9231250Y3000000D02*
Y3150000D01*
X742955Y4239561D02*
X798381D01*
X810881Y3993562D02*
Y4038781D01*
X538380Y4114561D02*
X655881D01*
D11*
X4186000Y5950000D02*
G03*
X4286000Y6050000I0J100000D01*
G01*
X4526000D02*
G03*
X4626000Y5950000I100000J0D01*
G01*
X5656000Y5195500D02*
X5656000Y5195500D01*
X5656000Y5195500D02*
Y5650000D01*
X3156000Y5195500D02*
X3156000Y5195500D01*
X3156000Y5195500D02*
Y5650000D01*
X3156000Y5950000D02*
X4186000D01*
X4286000Y6050000D02*
Y6256000D01*
X4626000Y5950000D02*
X5656000D01*
X4286000Y6256000D02*
X4526000D01*
Y6050000D02*
Y6256000D01*
D12*
X3402500Y2400000D02*
D03*
Y2000000D02*
D03*
Y1600000D02*
D03*
Y1200000D02*
D03*
Y800000D02*
D03*
Y400000D02*
D03*
X6497500D02*
D03*
Y800000D02*
D03*
Y1200000D02*
D03*
Y1600000D02*
D03*
Y2000000D02*
D03*
Y2400000D02*
D03*
D13*
X5800000Y3245000D02*
D03*
X5800000Y3355000D02*
D03*
X5200000Y3355000D02*
D03*
Y3245000D02*
D03*
X8120000Y5255000D02*
D03*
X8120000Y5145001D02*
D03*
X8220000Y5255000D02*
D03*
Y5145000D02*
D03*
X655881Y4224561D02*
D03*
X655881Y4114561D02*
D03*
X2150000Y3865000D02*
D03*
Y3975000D02*
D03*
X2150000Y3625000D02*
D03*
Y3735000D02*
D03*
X540000Y3865000D02*
D03*
Y3975000D02*
D03*
X655900Y3975000D02*
D03*
X655899Y3865000D02*
D03*
X9350000Y5494999D02*
D03*
Y5604999D02*
D03*
D14*
X5624000Y3215000D02*
D03*
Y3310000D02*
D03*
Y3405000D02*
D03*
X5364000D02*
D03*
Y3310000D02*
D03*
Y3215000D02*
D03*
D15*
X5416500Y3752500D02*
D03*
X5571500D02*
D03*
X8900000Y5750000D02*
D03*
X4131000Y7351000D02*
D03*
X7800000Y7350000D02*
D03*
X6900000Y7200000D02*
D03*
X9100000Y6350000D02*
D03*
X8950000D02*
D03*
X8800000Y6500000D02*
D03*
X8000000Y7350000D02*
D03*
X6900000Y7000000D02*
D03*
X8800000Y6350000D02*
D03*
X8500000Y6050000D02*
D03*
Y5900000D02*
D03*
D16*
X7570000Y5130000D02*
D03*
Y5270000D02*
D03*
Y3930000D02*
D03*
Y4070000D02*
D03*
D17*
X8330000Y5257500D02*
D03*
Y5142501D02*
D03*
X8830000Y5922500D02*
D03*
Y6037500D02*
D03*
X7700000Y4057500D02*
D03*
Y3942500D02*
D03*
Y4657500D02*
D03*
Y4542500D02*
D03*
X7700000Y5257500D02*
D03*
Y5142500D02*
D03*
X2260000Y3977500D02*
D03*
X2260000Y3862501D02*
D03*
X1500000Y5207500D02*
D03*
Y5092500D02*
D03*
Y5807500D02*
D03*
Y5692500D02*
D03*
X1500000Y6407500D02*
D03*
X1500000Y6292499D02*
D03*
X3946000Y6943500D02*
D03*
Y6828500D02*
D03*
X535881Y4227062D02*
D03*
Y4112062D02*
D03*
X3050000Y6392501D02*
D03*
Y6507500D02*
D03*
X3450000Y6392501D02*
D03*
X3450000Y6507500D02*
D03*
D18*
X7965000Y4102500D02*
D03*
X7900000D02*
D03*
X7835000D02*
D03*
Y3897500D02*
D03*
X7900000D02*
D03*
X7965000D02*
D03*
X7965000Y4702500D02*
D03*
X7900000D02*
D03*
X7835000D02*
D03*
Y4497500D02*
D03*
X7900000D02*
D03*
X7965000D02*
D03*
X7965000Y5302500D02*
D03*
X7900000D02*
D03*
X7835000D02*
D03*
Y5097500D02*
D03*
X7900000D02*
D03*
X7965000D02*
D03*
D19*
X7735000Y4250000D02*
D03*
X7625000Y4250000D02*
D03*
X7955000Y4250000D02*
D03*
X7845000Y4250000D02*
D03*
X7155001Y6650000D02*
D03*
X7045000Y6650000D02*
D03*
X7045001Y6800000D02*
D03*
X7155000Y6800000D02*
D03*
Y6500000D02*
D03*
X7045000Y6500000D02*
D03*
X7625000Y5450000D02*
D03*
X7735000Y5450000D02*
D03*
X7955000Y5450000D02*
D03*
X7845000Y5450000D02*
D03*
X2905000Y6400000D02*
D03*
X2795000D02*
D03*
X7625000Y4850000D02*
D03*
X7735000Y4850000D02*
D03*
X7955000Y4850000D02*
D03*
X7845000Y4850000D02*
D03*
X800881Y4359562D02*
D03*
X910881D02*
D03*
X1195000Y5550000D02*
D03*
X1305000Y5550000D02*
D03*
X1195000Y5450000D02*
D03*
X1305000Y5450000D02*
D03*
X1195000Y4950000D02*
D03*
X1305000D02*
D03*
X1195000Y4850000D02*
D03*
X1305000D02*
D03*
X4241000Y7156000D02*
D03*
X4131000Y7156000D02*
D03*
X790882Y3559562D02*
D03*
X900882Y3559562D02*
D03*
X2345000Y7400000D02*
D03*
X2455000Y7400000D02*
D03*
X1345000Y7200000D02*
D03*
X1455000Y7200000D02*
D03*
X1345000Y7400000D02*
D03*
X1455000Y7400000D02*
D03*
X2455000Y7200000D02*
D03*
X2345001Y7200000D02*
D03*
X1305000Y6050000D02*
D03*
X1195000D02*
D03*
Y6150000D02*
D03*
X1305000D02*
D03*
X2905000Y6550000D02*
D03*
X2795001D02*
D03*
D20*
X9445000Y5882500D02*
D03*
X9445000Y5947500D02*
D03*
X9445000Y6012500D02*
D03*
X9445000Y6077500D02*
D03*
X9005000Y5882500D02*
D03*
X9005000Y5947500D02*
D03*
X9005000Y6012500D02*
D03*
X9005000Y6077500D02*
D03*
D21*
X5551500Y3610000D02*
D03*
X5436500D02*
D03*
X5192500Y3070000D02*
D03*
X5307500Y3070000D02*
D03*
X8157500Y7200000D02*
D03*
X8042500Y7200000D02*
D03*
X8157500Y6000000D02*
D03*
X8042500Y6000000D02*
D03*
X1068381Y3649562D02*
D03*
X1183381D02*
D03*
X788381Y3679562D02*
D03*
X903381D02*
D03*
X798381Y4119561D02*
D03*
X913381Y4119561D02*
D03*
Y4239561D02*
D03*
X798381D02*
D03*
D22*
X5543000Y3070000D02*
D03*
X5445000Y3070000D02*
D03*
D23*
X1800000Y3800000D02*
D03*
X2000000Y3890000D02*
D03*
Y3710000D02*
D03*
D24*
X3786000Y6766000D02*
D03*
X3506000Y6766001D02*
D03*
X885881Y3139561D02*
D03*
X605881Y3139562D02*
D03*
X605881Y3379562D02*
D03*
X885881D02*
D03*
X3506000Y7006001D02*
D03*
X3786000Y7006000D02*
D03*
X1075881Y3139562D02*
D03*
X1355881Y3139561D02*
D03*
X1355881Y3379562D02*
D03*
X1075881D02*
D03*
D25*
X8375000Y7019999D02*
D03*
X8325000Y7020000D02*
D03*
X8275000D02*
D03*
X8225000D02*
D03*
X8175000Y7019999D02*
D03*
X8125000D02*
D03*
X8075000Y7020000D02*
D03*
X8025000D02*
D03*
X7975000D02*
D03*
X7924999Y7020000D02*
D03*
X7875000D02*
D03*
X7825000D02*
D03*
Y6180000D02*
D03*
X7875000D02*
D03*
X7925000Y6180000D02*
D03*
X7975000D02*
D03*
X8024999Y6180000D02*
D03*
X8075000Y6180000D02*
D03*
X8125000Y6180000D02*
D03*
X8175000D02*
D03*
X8225000Y6180000D02*
D03*
X8275000D02*
D03*
X8325000D02*
D03*
X8375000D02*
D03*
D26*
X7680000Y6875000D02*
D03*
X7680001Y6824999D02*
D03*
X7680000Y6775000D02*
D03*
Y6725000D02*
D03*
Y6675000D02*
D03*
Y6625000D02*
D03*
Y6575000D02*
D03*
Y6525000D02*
D03*
Y6475000D02*
D03*
Y6425000D02*
D03*
Y6375000D02*
D03*
Y6325000D02*
D03*
X8520000D02*
D03*
Y6375000D02*
D03*
X8520000Y6425000D02*
D03*
X8520000Y6475000D02*
D03*
Y6525000D02*
D03*
Y6575000D02*
D03*
X8520000Y6625000D02*
D03*
X8520000Y6675000D02*
D03*
Y6725000D02*
D03*
Y6775000D02*
D03*
Y6825000D02*
D03*
X8520000Y6875000D02*
D03*
D27*
X1985000Y7395000D02*
D03*
X1985000Y7205000D02*
D03*
X2115000D02*
D03*
X2050000D02*
D03*
X2115000Y7395000D02*
D03*
X2050000D02*
D03*
D28*
X8150000Y979000D02*
D03*
Y1421000D02*
D03*
D29*
X7229000Y400000D02*
D03*
X7671000D02*
D03*
D30*
X664999Y3600000D02*
D03*
X534999Y3550000D02*
D03*
Y3650000D02*
D03*
D31*
X220000Y6435000D02*
D03*
Y4565000D02*
D03*
D32*
X775000Y5400000D02*
D03*
Y5200000D02*
D03*
Y5000000D02*
D03*
Y6200000D02*
D03*
Y6000000D02*
D03*
Y5800000D02*
D03*
Y5600000D02*
D03*
Y4800000D02*
D03*
D33*
X1680000Y4709500D02*
D03*
X1680000Y4836500D02*
D03*
X1680000Y4963500D02*
D03*
Y5090500D02*
D03*
X2220000D02*
D03*
Y4963500D02*
D03*
X2220000Y4836500D02*
D03*
X2220000Y4709500D02*
D03*
X1680000Y5309500D02*
D03*
Y5436500D02*
D03*
X1680000Y5563500D02*
D03*
X1680000Y5690500D02*
D03*
X2220000D02*
D03*
Y5563500D02*
D03*
X2220000Y5436500D02*
D03*
X2220000Y5309500D02*
D03*
X1680000Y5909500D02*
D03*
X1680000Y6036500D02*
D03*
X1680000Y6163500D02*
D03*
Y6290500D02*
D03*
X2220000Y6290500D02*
D03*
Y6163500D02*
D03*
Y6036500D02*
D03*
Y5909500D02*
D03*
D34*
X1335881Y4277062D02*
D03*
Y3862062D02*
D03*
D35*
X4286000Y6256000D02*
D03*
X4286001Y6556000D02*
D03*
X4526000Y6256000D02*
D03*
Y6556000D02*
D03*
X3250000Y6210000D02*
D03*
Y6490000D02*
D03*
X3650000D02*
D03*
X3650000Y6210000D02*
D03*
X5656000Y5650000D02*
D03*
X5656000Y5950000D02*
D03*
X3156000Y5650000D02*
D03*
X3156000Y5950000D02*
D03*
X6440000Y3230000D02*
D03*
Y2950000D02*
D03*
X6740000D02*
D03*
X6740000Y3230000D02*
D03*
D36*
X2770000Y6755000D02*
D03*
X3000000D02*
D03*
X3230000D02*
D03*
D37*
X3000000Y7345000D02*
D03*
D38*
X5265781Y4151508D02*
D03*
X5188000Y4229289D02*
D03*
X5371847Y4257574D02*
D03*
X5294066Y4335356D02*
D03*
D39*
X5722218Y4151508D02*
D03*
X5800000Y4229289D02*
D03*
X5616152Y4257574D02*
D03*
X5693934Y4335355D02*
D03*
D40*
X4091000Y6756000D02*
D03*
X4186000D02*
D03*
X4281000D02*
D03*
Y7016000D02*
D03*
X4186000D02*
D03*
X4091000D02*
D03*
D41*
X6744000Y4090000D02*
D03*
X6744000Y4710000D02*
D03*
X4244000Y4090000D02*
D03*
Y4710000D02*
D03*
D42*
X1775000Y7200000D02*
D03*
X1625000D02*
D03*
Y7400000D02*
D03*
X1775000D02*
D03*
D43*
X760899Y3993600D02*
D03*
X810900D02*
D03*
X860899D02*
D03*
X910899D02*
D03*
Y3845600D02*
D03*
X860899D02*
D03*
X810900D02*
D03*
X760899D02*
D03*
D44*
X9100000Y4550000D02*
D03*
Y4750000D02*
D03*
Y5450000D02*
D03*
Y5650000D02*
D03*
Y4100000D02*
D03*
Y4300000D02*
D03*
Y3650000D02*
D03*
Y3850000D02*
D03*
Y3200000D02*
D03*
Y3400000D02*
D03*
Y5000000D02*
D03*
Y5200000D02*
D03*
D45*
X9350000Y4997500D02*
D03*
Y5202500D02*
D03*
X9350001Y4547500D02*
D03*
Y4752500D02*
D03*
X9350001Y4097500D02*
D03*
Y4302500D02*
D03*
X9350000Y3647500D02*
D03*
Y3852500D02*
D03*
X9350000Y3197500D02*
D03*
Y3402500D02*
D03*
D46*
X7500000Y1980000D02*
D03*
X7500000Y2419999D02*
D03*
X7850000Y1980000D02*
D03*
Y2420000D02*
D03*
X8200000Y1980000D02*
D03*
Y2420000D02*
D03*
X7150000Y1980000D02*
D03*
Y2420000D02*
D03*
D47*
X5307500Y3070000D02*
Y3106855D01*
Y3070000D02*
Y3070000D01*
Y3106855D02*
X5364000Y3163355D01*
X5307500Y3070000D02*
X5445000D01*
X5364000Y3163355D02*
Y3215000D01*
X8873681Y5922500D02*
X8913681Y5882500D01*
X8830000Y5922500D02*
X8873681D01*
X8913681Y5882500D02*
X9005000D01*
D48*
X5269829Y3232188D02*
Y3292812D01*
X5287017Y3215000D02*
X5364000D01*
X5269829Y3232188D02*
X5287017Y3215000D01*
X5269829Y3292812D02*
X5287017Y3310000D01*
X5364000D01*
X7570000Y4505000D02*
Y4530000D01*
Y4480000D02*
Y4505000D01*
X5750000Y3405000D02*
X5800000Y3355000D01*
X5624000Y3405000D02*
X5750000D01*
X5200000Y3355000D02*
X5250000Y3405000D01*
X5364000D01*
X5416500Y3752500D02*
X5436500Y3732500D01*
Y3610000D02*
Y3732500D01*
X5551500D02*
X5571500Y3752500D01*
X5551500Y3610000D02*
Y3732500D01*
X5436500Y3477500D02*
Y3610000D01*
X5364000Y3405000D02*
X5436500Y3477500D01*
X5551500Y3477499D02*
Y3610000D01*
Y3477499D02*
X5624000Y3405000D01*
X5423312Y4064688D02*
X5564687D01*
X5651508Y4151508D01*
X5336492Y4151508D02*
X5423312Y4064688D01*
X5444023Y4114688D02*
X5543976D01*
X5371847Y4186864D02*
X5444023Y4114688D01*
X5371847Y4186864D02*
X5371848Y4257574D01*
X5265781Y4151508D02*
X5336492Y4151508D01*
X5543976Y4114688D02*
X5616152Y4186864D01*
X5616152Y4257574D01*
X5113000Y4375000D02*
X5188000Y4300000D01*
X5133711Y4425000D02*
X5223356Y4335356D01*
X6744000Y4090000D02*
Y4294000D01*
X4244000Y4090000D02*
Y4294000D01*
X5651508Y4151508D02*
X5722218Y4151508D01*
X8070000Y5000000D02*
X8120000Y5050000D01*
Y5145001D01*
X8327500Y5255000D02*
X8330000Y5257500D01*
X8220000Y5255000D02*
X8327500D01*
X8120000Y5145001D02*
X8220000D01*
X8327500Y5145000D02*
X8330000Y5142501D01*
X8220000Y5145000D02*
X8327500D01*
X7860000Y5000000D02*
X8070000D01*
X7835000Y5025000D02*
X7860000Y5000000D01*
X7835000Y5025000D02*
Y5097500D01*
X7519289Y4850000D02*
X7625000D01*
X7400000Y4969289D02*
X7519289Y4850000D01*
X7450000Y4990000D02*
X7490000Y4950000D01*
X8010000D01*
X8050000Y4910000D01*
Y4390000D02*
Y4910000D01*
X8010000Y4350000D02*
X8050000Y4390000D01*
X7650000Y4350000D02*
X8010000D01*
X7625000Y4325000D02*
X7650000Y4350000D01*
X7625000Y4250000D02*
Y4325000D01*
X8225001Y5800000D02*
X8275000Y5850000D01*
X8010000Y5800000D02*
X8225001D01*
X7955000Y5745000D02*
X8010000Y5800000D01*
X7955000Y5450000D02*
Y5745000D01*
X7807500Y3897500D02*
X7835000D01*
X7770000Y3860000D02*
X7807500Y3897500D01*
X7590000Y3860000D02*
X7770000D01*
X7570000Y3880000D02*
X7590000Y3860000D01*
X7570000Y3880000D02*
Y3930000D01*
X7807499Y4497500D02*
X7835000D01*
X7770000Y4460000D02*
X7807499Y4497500D01*
X7590000Y4460000D02*
X7770000D01*
X7570000Y4480000D02*
X7590000Y4460000D01*
X7450000Y4990000D02*
Y5430000D01*
X7400000Y4969289D02*
Y5450710D01*
X7500000Y5550711D02*
Y6369467D01*
X7400000Y5450710D02*
X7500000Y5550711D01*
X7550000Y5530000D02*
Y6348757D01*
X7450000Y5430000D02*
X7550000Y5530000D01*
X7600000Y5475000D02*
X7625000Y5450000D01*
X7570000Y5080000D02*
Y5130000D01*
Y5080000D02*
X7590000Y5060000D01*
X7770000D01*
X7807500Y5097500D01*
X7835000D01*
X7600000Y5475000D02*
Y6100000D01*
X7975000Y6475000D01*
X9445000Y5947500D02*
X9532501D01*
X9550000Y5930000D01*
X9445000Y5882500D02*
X9532501D01*
X9550000Y5900000D02*
Y5930000D01*
X9532501Y5882500D02*
X9550000Y5900000D01*
X8900000Y5965000D02*
X8917500Y5947500D01*
X8900000Y5965000D02*
Y5995000D01*
X8917500Y5947500D02*
X9005000D01*
X8900000Y5995000D02*
X8917500Y6012500D01*
X9005000D01*
X8900000Y6030000D02*
X8917500Y6012500D01*
X8900000Y6030000D02*
Y6150000D01*
X8850000Y6200000D02*
X8900000Y6150000D01*
X8500000Y6200000D02*
X8850000D01*
X8390000Y6310000D02*
X8500000Y6200000D01*
X8050000Y6310000D02*
X8390000D01*
X8024999Y6285000D02*
X8050000Y6310000D01*
X8024999Y6180000D02*
Y6285000D01*
X7975000Y6475000D02*
Y7020000D01*
X2709289Y7560000D02*
X6895400D01*
X6874690Y7510000D02*
X7559690Y6824999D01*
X2730000Y7510000D02*
X6874690D01*
X4240000Y7460000D02*
X6853980D01*
X7875000Y7020000D02*
Y7275000D01*
X7789286Y7360715D02*
X7875000Y7275000D01*
X7924999Y7274999D02*
X8000000Y7350000D01*
X7924999Y7020000D02*
Y7274999D01*
X8375000Y6085000D02*
Y6180000D01*
Y6085000D02*
X8410000Y6050000D01*
X8500000D01*
X8370000Y5900000D02*
X8500000D01*
X8325000Y5945000D02*
X8370000Y5900000D01*
X8275000Y5850000D02*
Y6055087D01*
X8225000Y5935711D02*
Y6034377D01*
X8189289Y5900000D02*
X8225000Y5935711D01*
X8175000Y6084377D02*
X8225000Y6034377D01*
X8225000Y6105088D02*
X8275000Y6055087D01*
X8050000Y5900000D02*
X8189289D01*
X8325000Y5945000D02*
Y6180000D01*
X8225000Y6105088D02*
Y6180000D01*
X8175000Y6084377D02*
Y6180000D01*
X6900000Y7200000D02*
X7043270D01*
X6900000Y7000000D02*
X7172560D01*
X6895400Y7560000D02*
X7580400Y6875000D01*
X7680000D01*
X7559690Y6824999D02*
X7680001D01*
X6853980Y7460000D02*
X7538980Y6775000D01*
X7680000D01*
X7043270Y7200000D02*
X7518270Y6725000D01*
X7497560Y6675000D02*
X7680000D01*
X7172560Y7000000D02*
X7497560Y6675000D01*
X7155000Y6800000D02*
X7301850D01*
X7476850Y6625000D01*
X7381139Y6650000D02*
X7456139Y6575000D01*
X7518271Y6725000D02*
X7680000D01*
X7155000Y6500000D02*
X7431140D01*
X7456139Y6525000D02*
X7680000D01*
X7431140Y6500000D02*
X7456139Y6525000D01*
X7155001Y6650000D02*
X7381139D01*
X5446000Y7023000D02*
X5446001Y7022999D01*
Y6723000D02*
Y7022999D01*
X5700000Y7023000D02*
X5700001Y7022999D01*
Y6723000D02*
Y7022999D01*
X5954000Y7023000D02*
X5954001Y7022999D01*
Y6723000D02*
Y7022999D01*
X6650002Y6550000D02*
X6900002Y6800000D01*
X6900001D02*
X7045001D01*
X5954001Y6723000D02*
X6127001Y6550000D01*
X6650002D01*
X5446001Y6723000D02*
X5719001Y6450000D01*
X6850001D01*
X6900000Y6500000D02*
X7045000D01*
X6850001Y6450000D02*
X6900001Y6500000D01*
X6900000Y6650000D02*
X7045000D01*
X6750001Y6500000D02*
X6900001Y6650000D01*
X5923001Y6500000D02*
X6750001D01*
X5700001Y6723000D02*
X5923001Y6500000D01*
X8519999Y6325000D02*
X8619999D01*
X8420000Y6375000D02*
X8520000D01*
X8520000Y6425000D02*
X8620000D01*
X7875000Y6000000D02*
Y6180000D01*
X8800000Y6600001D02*
X8950000Y6450001D01*
Y6350000D02*
Y6450001D01*
X8520000Y6825000D02*
X8774999D01*
X8835355Y6764644D01*
X8775000Y6775000D02*
X8800000Y6750000D01*
X8835355Y6614645D02*
Y6764644D01*
X8800000Y6600001D02*
Y6750000D01*
X8835355Y6614645D02*
X9100000Y6350000D01*
X8520000Y6775000D02*
X8775000D01*
X8520000Y6525000D02*
X8695000D01*
X8720000Y6500000D02*
X8800000D01*
X8695000Y6525000D02*
X8720000Y6500000D01*
X8675000Y6475000D02*
X8800000Y6350000D01*
X8520000Y6475000D02*
X8675000D01*
X8520000Y6725000D02*
X8720000D01*
X8520000Y6625000D02*
X8720000D01*
X7825000Y7020000D02*
Y7119999D01*
X8520000Y6575000D02*
X8620000D01*
X8520000Y6675000D02*
X8620000D01*
X8175000Y6820000D02*
Y7019999D01*
X8275000Y6820000D02*
Y7020000D01*
X8225000Y6920000D02*
Y7019999D01*
X8325000Y6920000D02*
Y7019999D01*
X7500000Y6369467D02*
X7555533Y6425000D01*
X7680000D01*
X7576243Y6375000D02*
X7680000D01*
X7550000Y6348757D02*
X7576243Y6375000D01*
X4131000Y7351000D02*
X4240000Y7460000D01*
X4131000Y7156000D02*
Y7351000D01*
X7456139Y6575000D02*
X7680000D01*
X7476850Y6625000D02*
X7680000D01*
X2115000Y7205000D02*
Y7265000D01*
X2050000Y7395000D02*
Y7450000D01*
X2080000Y7480000D01*
X2320000D01*
X2345000Y7455000D01*
Y7400000D02*
Y7455000D01*
X2200000Y7200000D02*
X2345001D01*
X2170000Y7230000D02*
X2200000Y7200000D01*
X2170000Y7230000D02*
Y7280000D01*
X2115000Y7335000D02*
X2170000Y7280000D01*
X2115000Y7335000D02*
Y7395000D01*
X1775000Y7200000D02*
Y7268374D01*
X1806626Y7300000D02*
X2080000D01*
X1775000Y7268374D02*
X1806626Y7300000D01*
X2080000D02*
X2115000Y7265000D01*
X1889441Y7395000D02*
X1985000D01*
X1884442Y7400000D02*
X1889441Y7395000D01*
X1775000Y7400000D02*
X1884442D01*
X1455000D02*
X1625000D01*
X1455000Y7200000D02*
X1625000D01*
X2590000Y7400000D02*
X2630000Y7440000D01*
Y7480711D01*
X2680000Y7290000D02*
Y7460000D01*
X2590000Y7200000D02*
X2680000Y7290000D01*
X2630000Y7480711D02*
X2709289Y7560000D01*
X2680000Y7460000D02*
X2730000Y7510000D01*
X2455000Y7200000D02*
X2590000D01*
X2455000Y7400000D02*
X2590000D01*
X2770000Y6628925D02*
Y6755000D01*
Y6628925D02*
X2795001Y6603924D01*
Y6550000D02*
Y6603924D01*
X2795000Y6400000D02*
Y6550000D01*
X4325000Y4425000D02*
X5133711D01*
X4325000Y4375000D02*
X5113000D01*
X5800000Y4300000D02*
X5800000Y4229289D01*
X5764644Y4335356D02*
X5854289Y4425000D01*
X5800000Y4300000D02*
X5875000Y4375000D01*
X5188000Y4229290D02*
X5188000Y4300000D01*
X5223355Y4335356D02*
X5294066D01*
X5693934Y4335355D02*
X5764644Y4335356D01*
X6744000Y4506000D02*
Y4709999D01*
X6663000Y4375000D02*
X6744000Y4294000D01*
X5875000Y4375000D02*
X6663000D01*
X5854289Y4425000D02*
X6663000D01*
X6744000Y4506000D01*
X4244000Y4294000D02*
X4325000Y4375000D01*
X4244000Y4506000D02*
X4325000Y4425000D01*
X4244000Y4506000D02*
Y4710000D01*
D49*
X8125000Y6032500D02*
X8157500Y6000000D01*
X8125000Y6032500D02*
Y6180001D01*
X7872330Y3977671D02*
X7900000Y3950000D01*
Y3897500D02*
Y3950000D01*
Y4497500D02*
Y4550000D01*
X7872330Y4577671D02*
X7900000Y4550000D01*
X7872329Y5177671D02*
X7900000Y5150000D01*
Y5097500D02*
Y5150000D01*
X8075000Y7019999D02*
Y7167500D01*
X8042500Y7200000D02*
X8075000Y7167500D01*
Y6032499D02*
Y6180000D01*
X8042500Y6000000D02*
X8075000Y6032499D01*
X2257500Y3975000D02*
X2260000Y3977500D01*
X2150000Y3975000D02*
X2257500D01*
X2150000Y3735000D02*
X2150000Y3735000D01*
Y3865000D01*
X2025000Y3975000D02*
X2150000D01*
X2000000Y3950000D02*
X2025000Y3975000D01*
X2000000Y3890000D02*
Y3950000D01*
X1985000Y7205000D02*
X2017500D01*
X2050000D01*
D50*
X7797671Y3977671D02*
X7872330D01*
X7762500Y3942500D02*
X7797671Y3977671D01*
X7700000Y3942500D02*
X7762500D01*
X7700000Y4542500D02*
X7762500D01*
X7797671Y4577671D01*
X7872330D01*
X7797670Y5177671D02*
X7872329D01*
X7762499Y5142499D02*
X7797670Y5177671D01*
X7700000Y5142499D02*
X7762499D01*
X1500000Y6292499D02*
X1501999Y6290500D01*
X1680000D01*
X1500000Y5692500D02*
X1502000Y5690500D01*
X1680000D01*
X1500000Y5092500D02*
X1502000Y5090500D01*
X1680000D01*
D51*
X1335881Y3862062D02*
X1397943Y3800000D01*
X1800000D01*
D52*
X665009Y3600009D02*
X699256D01*
X739703Y3559562D02*
X790882D01*
X699256Y3600009D02*
X739703Y3559562D01*
X664999Y3600000D02*
X665009Y3600009D01*
Y3735533D01*
X640541Y3760000D02*
X665009Y3735533D01*
X568103Y3760000D02*
X640541D01*
X793140Y3760946D02*
X810881Y3778687D01*
X690422Y3760946D02*
X793140D01*
X540000Y3788103D02*
X568103Y3760000D01*
X540000Y3788103D02*
Y3865000D01*
X665009Y3735533D02*
X690422Y3760946D01*
X810881Y3778687D02*
Y3845562D01*
D53*
X6744000Y4709999D02*
Y5195500D01*
X4244001Y4710000D02*
Y5195500D01*
D54*
X2200000Y2050000D02*
D03*
X2200000Y1550000D02*
D03*
Y450000D02*
D03*
X2200000Y950000D02*
D03*
X2200000Y2650000D02*
D03*
X2200000Y3150000D02*
D03*
D55*
X5192000Y7023000D02*
D03*
Y7277000D02*
D03*
X5446000Y7023000D02*
D03*
Y7277000D02*
D03*
X5700000Y7023000D02*
D03*
Y7277000D02*
D03*
X5954000Y7023000D02*
D03*
Y7277000D02*
D03*
X6208000Y7023000D02*
D03*
Y7277000D02*
D03*
X1165000Y2400000D02*
D03*
Y2100000D02*
D03*
Y1800000D02*
D03*
X865000Y2400000D02*
D03*
Y2100000D02*
D03*
Y1800000D02*
D03*
X8735000Y1900000D02*
D03*
Y2200000D02*
D03*
Y2500000D02*
D03*
X9035000Y1900000D02*
D03*
Y2200000D02*
D03*
Y2500000D02*
D03*
D56*
X250000Y3623000D02*
D03*
D57*
Y3877000D02*
D03*
D58*
X7247000Y5767000D02*
D03*
X2653000D02*
D03*
D59*
X5656000Y5195500D02*
D03*
X6200000D02*
D03*
X6744000D02*
D03*
X3156000D02*
D03*
X3700000D02*
D03*
X4244000D02*
D03*
D60*
X600000Y7100000D02*
D03*
X9300000Y600000D02*
D03*
Y7100000D02*
D03*
X600000Y600000D02*
D03*
D61*
X5200000Y3245000D02*
D03*
X5624000Y3310000D02*
D03*
X5800000Y3245000D02*
D03*
X5192500Y3070000D02*
D03*
X5624000Y3215000D02*
D03*
X5265782Y4151508D02*
D03*
X5371848Y4257574D02*
D03*
X5571500Y3752500D02*
D03*
X5416500D02*
D03*
X8220000Y5255000D02*
D03*
X8120000Y5255000D02*
D03*
X7955000Y4249999D02*
D03*
X7570000Y4505000D02*
D03*
X7700000Y3942500D02*
D03*
Y4057500D02*
D03*
X7900000Y4140000D02*
D03*
X7570000Y4095000D02*
D03*
X7900000Y4740000D02*
D03*
X7900000Y5340000D02*
D03*
X7955000Y4849999D02*
D03*
X7570000Y5295000D02*
D03*
X8830000Y5922500D02*
D03*
X9445000Y6100000D02*
D03*
X8830000Y6037500D02*
D03*
X8050000Y5900000D02*
D03*
X8619999Y6325000D02*
D03*
X8420000Y6375000D02*
D03*
X8620000Y6425000D02*
D03*
X7875000Y6000000D02*
D03*
X8720000Y6725000D02*
D03*
X8720000Y6625000D02*
D03*
X7825000Y7119999D02*
D03*
X8620000Y6575000D02*
D03*
Y6675000D02*
D03*
X8175000Y6820000D02*
D03*
X8275000Y6820000D02*
D03*
X8225000Y6920000D02*
D03*
X8325000D02*
D03*
X6740000Y2885000D02*
D03*
X6640000D02*
D03*
Y2785000D02*
D03*
X6340000Y2685000D02*
D03*
X6540000D02*
D03*
X6440000Y2685000D02*
D03*
Y2885000D02*
D03*
X6540000D02*
D03*
X6340000D02*
D03*
X6440000Y2785000D02*
D03*
X6340000D02*
D03*
X6540000D02*
D03*
X6340000Y2985000D02*
D03*
X6540000D02*
D03*
X6440000D02*
D03*
X6640000D02*
D03*
X6840000D02*
D03*
X6740000D02*
D03*
X605881Y3089562D02*
D03*
Y3189562D02*
D03*
X885881Y3089562D02*
D03*
Y3189561D02*
D03*
X7955000Y5449999D02*
D03*
X775000Y5800000D02*
D03*
Y5200000D02*
D03*
X2905000Y6400000D02*
D03*
X1680000Y5909500D02*
D03*
X1680000Y4709500D02*
D03*
X2150000Y3865000D02*
D03*
X509499Y3650000D02*
D03*
X2260000Y3862501D02*
D03*
X6740000Y3195000D02*
D03*
X8157500Y6000000D02*
D03*
X8042500Y6000000D02*
D03*
X8157500Y7200000D02*
D03*
X8042500Y7200000D02*
D03*
X7700000Y4657500D02*
D03*
Y4542500D02*
D03*
X7700000Y5257500D02*
D03*
Y5142499D02*
D03*
X1900000Y3990000D02*
D03*
X2000000D02*
D03*
Y3890000D02*
D03*
X2150000Y3625000D02*
D03*
X2000000Y3710000D02*
D03*
X2017500Y7205000D02*
D03*
X1500000Y5092500D02*
D03*
Y5207500D02*
D03*
Y5807500D02*
D03*
Y5692500D02*
D03*
X1500000Y6407500D02*
D03*
X1500000Y6292499D02*
D03*
X1345000Y7200000D02*
D03*
Y7400000D02*
D03*
X3050000Y6392501D02*
D03*
X3450000D02*
D03*
X3200000Y6490000D02*
D03*
X3299999D02*
D03*
X3200000Y6210000D02*
D03*
X3299999D02*
D03*
X3600000Y6210000D02*
D03*
X3700000D02*
D03*
X3946000Y6943500D02*
D03*
X509499Y3550000D02*
D03*
X2220000Y4709500D02*
D03*
X2220000Y4836500D02*
D03*
X2220000Y4963500D02*
D03*
Y5090500D02*
D03*
Y5309500D02*
D03*
X2220000Y5436500D02*
D03*
X2220000Y5563500D02*
D03*
Y5690500D02*
D03*
Y5909500D02*
D03*
Y6036500D02*
D03*
Y6163500D02*
D03*
Y6290500D02*
D03*
X3700000Y6490000D02*
D03*
X3600000D02*
D03*
X5571500Y3070000D02*
D03*
X4186000Y7016000D02*
D03*
X4241000Y7156000D02*
D03*
X4281000Y7016000D02*
D03*
X3506000Y7056001D02*
D03*
Y6956001D02*
D03*
Y6716001D02*
D03*
Y6816001D02*
D03*
X3786000Y6816000D02*
D03*
Y6716000D02*
D03*
Y6956001D02*
D03*
Y7056000D02*
D03*
X6478000Y3800000D02*
D03*
Y4000000D02*
D03*
X6578000Y3800000D02*
D03*
Y3900000D02*
D03*
Y3700000D02*
D03*
Y4000000D02*
D03*
X6678000Y3900000D02*
D03*
Y3700000D02*
D03*
Y3800000D02*
D03*
X6778000Y3900000D02*
D03*
Y3800000D02*
D03*
Y3700000D02*
D03*
Y4000000D02*
D03*
X6878000Y3800000D02*
D03*
Y3700000D02*
D03*
Y3900000D02*
D03*
X4710000Y4000000D02*
D03*
Y4100000D02*
D03*
Y4200000D02*
D03*
X6278000Y4100000D02*
D03*
Y4200000D02*
D03*
X6378000Y4100000D02*
D03*
Y4200000D02*
D03*
X6478000Y4100000D02*
D03*
Y4200000D02*
D03*
X6578000Y4100000D02*
D03*
Y4200000D02*
D03*
X6678000Y4000000D02*
D03*
X6678000Y4100000D02*
D03*
Y4200000D02*
D03*
X6778000Y4100000D02*
D03*
Y4200000D02*
D03*
X6878000Y4000000D02*
D03*
Y4100000D02*
D03*
Y4200000D02*
D03*
X6378000Y3700000D02*
D03*
Y4000000D02*
D03*
X6478000Y3700000D02*
D03*
X6378000Y3900000D02*
D03*
X6478000D02*
D03*
X4610000Y3700000D02*
D03*
Y3900000D02*
D03*
X4710000Y3800000D02*
D03*
Y3700000D02*
D03*
Y3900000D02*
D03*
X6278000Y3900000D02*
D03*
Y3700000D02*
D03*
Y3800000D02*
D03*
Y4000000D02*
D03*
X6378000Y3800000D02*
D03*
X4110000Y3700000D02*
D03*
Y3800000D02*
D03*
Y3900000D02*
D03*
X4210000Y3700000D02*
D03*
Y3800000D02*
D03*
Y3900000D02*
D03*
X4310000Y3700000D02*
D03*
Y3800000D02*
D03*
Y3900000D02*
D03*
X4410000Y3700000D02*
D03*
Y3800000D02*
D03*
Y3900000D02*
D03*
X4510000Y3700000D02*
D03*
Y3800000D02*
D03*
Y3900000D02*
D03*
X4610000Y3800000D02*
D03*
X4210000Y4200000D02*
D03*
X4110000Y4000000D02*
D03*
Y4100000D02*
D03*
Y4200000D02*
D03*
X4210000Y4000000D02*
D03*
Y4100000D02*
D03*
X4310000Y4100000D02*
D03*
Y4200000D02*
D03*
X4310000Y4000000D02*
D03*
X4610000Y4200000D02*
D03*
X4410000Y4000000D02*
D03*
Y4100000D02*
D03*
Y4200000D02*
D03*
X4610000Y4100000D02*
D03*
X4510000Y4000000D02*
D03*
Y4100000D02*
D03*
Y4200000D02*
D03*
X4610000Y4000000D02*
D03*
X655899Y3865000D02*
D03*
X540000Y3975000D02*
D03*
X910881Y4359562D02*
D03*
X913381Y4239561D02*
D03*
X3150001Y400000D02*
D03*
Y500000D02*
D03*
Y300000D02*
D03*
X3250000Y400000D02*
D03*
Y300000D02*
D03*
Y500000D02*
D03*
X3350000Y400000D02*
D03*
Y500000D02*
D03*
Y300000D02*
D03*
X6840000Y3195000D02*
D03*
X6640000D02*
D03*
X6440000D02*
D03*
X6540000D02*
D03*
X6340000D02*
D03*
X6547500Y400000D02*
D03*
X6447500D02*
D03*
X7229000Y350000D02*
D03*
Y450000D02*
D03*
X7671000Y350000D02*
D03*
Y450000D02*
D03*
X8100000Y979000D02*
D03*
X8200000D02*
D03*
Y1420999D02*
D03*
X8100000D02*
D03*
X8150000Y1980000D02*
D03*
X8250000D02*
D03*
X7800000D02*
D03*
X7900000D02*
D03*
X7450000Y1979999D02*
D03*
X7550000D02*
D03*
X7100000Y1979999D02*
D03*
X7200000D02*
D03*
X6540000Y3395000D02*
D03*
X6340000D02*
D03*
X6440000D02*
D03*
X6340000Y3295000D02*
D03*
X6540000D02*
D03*
X6440000D02*
D03*
Y3495000D02*
D03*
X6540000Y3495000D02*
D03*
X6340000D02*
D03*
X6840000Y3395000D02*
D03*
X6640000D02*
D03*
X6740000D02*
D03*
X6640000Y3295000D02*
D03*
X6840000D02*
D03*
X6740000D02*
D03*
Y3495000D02*
D03*
X6640000Y3495000D02*
D03*
X3550000Y300000D02*
D03*
Y500000D02*
D03*
Y400000D02*
D03*
X3450000Y500000D02*
D03*
Y300000D02*
D03*
Y400000D02*
D03*
X3950000Y300000D02*
D03*
Y500000D02*
D03*
X3950000Y400000D02*
D03*
X3850000Y500000D02*
D03*
Y300000D02*
D03*
Y400000D02*
D03*
X3750000D02*
D03*
Y300000D02*
D03*
Y500000D02*
D03*
X3650000Y400000D02*
D03*
X3650000Y300000D02*
D03*
Y500000D02*
D03*
X9100000Y5650000D02*
D03*
X9350000Y5604999D02*
D03*
X7200000Y2420000D02*
D03*
X7100000D02*
D03*
X7550000Y2419999D02*
D03*
X7450000D02*
D03*
X7900000Y2420000D02*
D03*
X7800000D02*
D03*
X8250000D02*
D03*
X8150000D02*
D03*
X3502500Y2250000D02*
D03*
X3302500D02*
D03*
X3402500D02*
D03*
X3502500Y2150000D02*
D03*
X3302500D02*
D03*
X3402500D02*
D03*
X3502500Y1850000D02*
D03*
X3302500D02*
D03*
X3402500D02*
D03*
X3502500Y1750000D02*
D03*
X3302500D02*
D03*
X3402500D02*
D03*
X3502500Y1450000D02*
D03*
X3302500D02*
D03*
X3402500D02*
D03*
X3502500Y1350000D02*
D03*
X3302500D02*
D03*
X3402500D02*
D03*
Y1250000D02*
D03*
X3302500D02*
D03*
X3502500D02*
D03*
X3402500Y1150000D02*
D03*
X3502500D02*
D03*
X3302500D02*
D03*
X3402500Y1650000D02*
D03*
X3302500D02*
D03*
X3502500D02*
D03*
X3402500Y1550000D02*
D03*
X3502500D02*
D03*
X3302500D02*
D03*
X3402500Y2050000D02*
D03*
X3302500D02*
D03*
X3502500D02*
D03*
X3402500Y1950000D02*
D03*
X3502500D02*
D03*
X3302500D02*
D03*
Y2350000D02*
D03*
X3502500D02*
D03*
X3402500D02*
D03*
X3502500Y2450000D02*
D03*
X3302500D02*
D03*
X3402500D02*
D03*
X170000Y6434999D02*
D03*
X270000D02*
D03*
X169999Y4565000D02*
D03*
X269999D02*
D03*
X1355881Y3089562D02*
D03*
Y3189562D02*
D03*
X1355881Y3329562D02*
D03*
Y3429562D02*
D03*
X1075881Y3089562D02*
D03*
Y3189562D02*
D03*
X1075881Y3329562D02*
D03*
Y3429562D02*
D03*
X885881Y3329562D02*
D03*
Y3429562D02*
D03*
X605881D02*
D03*
X1183381Y3649562D02*
D03*
X1068381D02*
D03*
X903381Y3679562D02*
D03*
X745881Y3845562D02*
D03*
X925881Y3845562D02*
D03*
X605881Y3329562D02*
D03*
X900881Y3559562D02*
D03*
X788381Y3679562D02*
D03*
%TF.MD5,19dac33e7b891b99764fd28f02f17f2c*%
M02*
