%TF.GenerationSoftware,Altium Limited,Altium Designer,25.3.3 (18)*%
G04 Layer_Color=8388736*
%FSLAX45Y45*%
%MOMM*%
%TF.SameCoordinates,6C4DDBA2-F481-4B1E-A352-F181FF77F2E2*%
%TF.FilePolarity,Negative*%
%TF.FileFunction,Soldermask,Top*%
%TF.Part,Single*%
G01*
G75*
%TA.AperFunction,ConnectorPad*%
%ADD79R,2.82600X2.07600*%
%TA.AperFunction,SMDPad,CuDef*%
%ADD80R,0.72600X0.87600*%
%ADD81R,1.17600X0.67600*%
%ADD82C,1.07600*%
%ADD83R,0.67600X0.57600*%
%ADD84R,0.67600X0.92600*%
%ADD85R,0.37600X0.82600*%
%ADD86R,0.87600X0.72600*%
%ADD87R,1.55000X0.55000*%
%ADD88R,0.92600X0.67600*%
%ADD89R,0.64600X0.71600*%
%ADD90R,0.97600X0.87600*%
%ADD91R,1.37600X1.87600*%
%ADD92O,0.37600X1.47600*%
%ADD93O,1.47600X0.37600*%
%ADD94R,0.52000X0.70000*%
%ADD95R,2.81900X2.23500*%
%ADD96R,2.23500X2.81900*%
%ADD97R,0.58600X0.47600*%
%ADD98R,3.47600X1.57600*%
%ADD99R,3.57600X1.07600*%
G04:AMPARAMS|DCode=100|XSize=1.626mm|YSize=0.676mm|CornerRadius=0.088mm|HoleSize=0mm|Usage=FLASHONLY|Rotation=180.000|XOffset=0mm|YOffset=0mm|HoleType=Round|Shape=RoundedRectangle|*
%AMROUNDEDRECTD100*
21,1,1.62600,0.50000,0,0,180.0*
21,1,1.45000,0.67600,0,0,180.0*
1,1,0.17600,-0.72500,0.25000*
1,1,0.17600,0.72500,0.25000*
1,1,0.17600,0.72500,-0.25000*
1,1,0.17600,-0.72500,-0.25000*
%
%ADD100ROUNDEDRECTD100*%
%ADD101R,5.17600X2.42600*%
%ADD102R,1.87600X1.37600*%
%ADD103R,0.97600X2.17600*%
%ADD104R,3.37600X2.17600*%
G04:AMPARAMS|DCode=105|XSize=0.726mm|YSize=0.876mm|CornerRadius=0mm|HoleSize=0mm|Usage=FLASHONLY|Rotation=225.000|XOffset=0mm|YOffset=0mm|HoleType=Round|Shape=Rectangle|*
%AMROTATEDRECTD105*
4,1,4,-0.05303,0.56639,0.56639,-0.05303,0.05303,-0.56639,-0.56639,0.05303,-0.05303,0.56639,0.0*
%
%ADD105ROTATEDRECTD105*%

G04:AMPARAMS|DCode=106|XSize=0.726mm|YSize=0.876mm|CornerRadius=0mm|HoleSize=0mm|Usage=FLASHONLY|Rotation=135.000|XOffset=0mm|YOffset=0mm|HoleType=Round|Shape=Rectangle|*
%AMROTATEDRECTD106*
4,1,4,0.56639,0.05303,-0.05303,-0.56639,-0.56639,-0.05303,0.05303,0.56639,0.56639,0.05303,0.0*
%
%ADD106ROTATEDRECTD106*%

%ADD107R,0.67600X1.17600*%
%ADD108R,3.64600X3.17600*%
%ADD109R,0.87600X0.87600*%
G04:AMPARAMS|DCode=110|XSize=0.77mm|YSize=0.4mm|CornerRadius=0.1mm|HoleSize=0mm|Usage=FLASHONLY|Rotation=90.000|XOffset=0mm|YOffset=0mm|HoleType=Round|Shape=RoundedRectangle|*
%AMROUNDEDRECTD110*
21,1,0.77000,0.20000,0,0,90.0*
21,1,0.57000,0.40000,0,0,90.0*
1,1,0.20000,0.10000,0.28500*
1,1,0.20000,0.10000,-0.28500*
1,1,0.20000,-0.10000,-0.28500*
1,1,0.20000,-0.10000,0.28500*
%
%ADD110ROUNDEDRECTD110*%
%ADD111R,1.22600X1.07600*%
%ADD112R,1.47600X1.12600*%
%ADD113R,2.27600X1.62600*%
%TA.AperFunction,ComponentPad*%
%ADD114C,1.60000*%
%ADD115C,2.10000*%
%ADD116R,2.50000X1.80000*%
%ADD117O,2.50000X1.80000*%
%ADD118C,4.07600*%
%ADD119O,2.51600X3.67600*%
%TA.AperFunction,ViaPad*%
%ADD120C,10.07600*%
%TA.AperFunction,ComponentPad*%
%ADD121C,0.07600*%
%ADD122C,2.07600*%
D79*
X3402500Y2400000D02*
D03*
Y2000000D02*
D03*
Y1600000D02*
D03*
Y1200000D02*
D03*
Y800000D02*
D03*
Y400000D02*
D03*
X6497500D02*
D03*
Y800000D02*
D03*
Y1200000D02*
D03*
Y1600000D02*
D03*
Y2000000D02*
D03*
Y2400000D02*
D03*
D80*
X5800000Y3245000D02*
D03*
X5800000Y3355000D02*
D03*
X5200000Y3355000D02*
D03*
Y3245000D02*
D03*
X8120000Y5255000D02*
D03*
X8120000Y5145001D02*
D03*
X8220000Y5255000D02*
D03*
Y5145000D02*
D03*
X655881Y4224561D02*
D03*
X655881Y4114561D02*
D03*
X2150000Y3865000D02*
D03*
Y3975000D02*
D03*
X2150000Y3625000D02*
D03*
Y3735000D02*
D03*
X540000Y3865000D02*
D03*
Y3975000D02*
D03*
X655900Y3975000D02*
D03*
X655899Y3865000D02*
D03*
X9350000Y5494999D02*
D03*
Y5604999D02*
D03*
D81*
X5624000Y3215000D02*
D03*
Y3310000D02*
D03*
Y3405000D02*
D03*
X5364000D02*
D03*
Y3310000D02*
D03*
Y3215000D02*
D03*
D82*
X5416500Y3752500D02*
D03*
X5571500D02*
D03*
X8900000Y5750000D02*
D03*
X4131000Y7351000D02*
D03*
X7800000Y7350000D02*
D03*
X6900000Y7200000D02*
D03*
X9100000Y6350000D02*
D03*
X8950000D02*
D03*
X8800000Y6500000D02*
D03*
X8000000Y7350000D02*
D03*
X6900000Y7000000D02*
D03*
X8800000Y6350000D02*
D03*
X8500000Y6050000D02*
D03*
Y5900000D02*
D03*
D83*
X7570000Y5130000D02*
D03*
Y5270000D02*
D03*
Y3930000D02*
D03*
Y4070000D02*
D03*
D84*
X8330000Y5257500D02*
D03*
Y5142501D02*
D03*
X8830000Y5922500D02*
D03*
Y6037500D02*
D03*
X7700000Y4057500D02*
D03*
Y3942500D02*
D03*
Y4657500D02*
D03*
Y4542500D02*
D03*
X7700000Y5257500D02*
D03*
Y5142500D02*
D03*
X2260000Y3977500D02*
D03*
X2260000Y3862501D02*
D03*
X1500000Y5207500D02*
D03*
Y5092500D02*
D03*
Y5807500D02*
D03*
Y5692500D02*
D03*
X1500000Y6407500D02*
D03*
X1500000Y6292499D02*
D03*
X3946000Y6943500D02*
D03*
Y6828500D02*
D03*
X535881Y4227062D02*
D03*
Y4112062D02*
D03*
X3050000Y6392501D02*
D03*
Y6507500D02*
D03*
X3450000Y6392501D02*
D03*
X3450000Y6507500D02*
D03*
D85*
X7965000Y4102500D02*
D03*
X7900000D02*
D03*
X7835000D02*
D03*
Y3897500D02*
D03*
X7900000D02*
D03*
X7965000D02*
D03*
X7965000Y4702500D02*
D03*
X7900000D02*
D03*
X7835000D02*
D03*
Y4497500D02*
D03*
X7900000D02*
D03*
X7965000D02*
D03*
X7965000Y5302500D02*
D03*
X7900000D02*
D03*
X7835000D02*
D03*
Y5097500D02*
D03*
X7900000D02*
D03*
X7965000D02*
D03*
D86*
X7735000Y4250000D02*
D03*
X7625000Y4250000D02*
D03*
X7955000Y4250000D02*
D03*
X7845000Y4250000D02*
D03*
X7155001Y6650000D02*
D03*
X7045000Y6650000D02*
D03*
X7045001Y6800000D02*
D03*
X7155000Y6800000D02*
D03*
Y6500000D02*
D03*
X7045000Y6500000D02*
D03*
X7625000Y5450000D02*
D03*
X7735000Y5450000D02*
D03*
X7955000Y5450000D02*
D03*
X7845000Y5450000D02*
D03*
X2905000Y6400000D02*
D03*
X2795000D02*
D03*
X7625000Y4850000D02*
D03*
X7735000Y4850000D02*
D03*
X7955000Y4850000D02*
D03*
X7845000Y4850000D02*
D03*
X800881Y4359562D02*
D03*
X910881D02*
D03*
X1195000Y5550000D02*
D03*
X1305000Y5550000D02*
D03*
X1195000Y5450000D02*
D03*
X1305000Y5450000D02*
D03*
X1195000Y4950000D02*
D03*
X1305000D02*
D03*
X1195000Y4850000D02*
D03*
X1305000D02*
D03*
X4241000Y7156000D02*
D03*
X4131000Y7156000D02*
D03*
X790882Y3559562D02*
D03*
X900882Y3559562D02*
D03*
X2345000Y7400000D02*
D03*
X2455000Y7400000D02*
D03*
X1345000Y7200000D02*
D03*
X1455000Y7200000D02*
D03*
X1345000Y7400000D02*
D03*
X1455000Y7400000D02*
D03*
X2455000Y7200000D02*
D03*
X2345001Y7200000D02*
D03*
X1305000Y6050000D02*
D03*
X1195000D02*
D03*
Y6150000D02*
D03*
X1305000D02*
D03*
X2905000Y6550000D02*
D03*
X2795001D02*
D03*
D87*
X9445000Y5882500D02*
D03*
X9445000Y5947500D02*
D03*
X9445000Y6012500D02*
D03*
X9445000Y6077500D02*
D03*
X9005000Y5882500D02*
D03*
X9005000Y5947500D02*
D03*
X9005000Y6012500D02*
D03*
X9005000Y6077500D02*
D03*
D88*
X5551500Y3610000D02*
D03*
X5436500D02*
D03*
X5192500Y3070000D02*
D03*
X5307500Y3070000D02*
D03*
X8157500Y7200000D02*
D03*
X8042500Y7200000D02*
D03*
X8157500Y6000000D02*
D03*
X8042500Y6000000D02*
D03*
X1068381Y3649562D02*
D03*
X1183381D02*
D03*
X788381Y3679562D02*
D03*
X903381D02*
D03*
X798381Y4119561D02*
D03*
X913381Y4119561D02*
D03*
Y4239561D02*
D03*
X798381D02*
D03*
D89*
X5543000Y3070000D02*
D03*
X5445000Y3070000D02*
D03*
D90*
X1800000Y3800000D02*
D03*
X2000000Y3890000D02*
D03*
Y3710000D02*
D03*
D91*
X3786000Y6766000D02*
D03*
X3506000Y6766001D02*
D03*
X885881Y3139561D02*
D03*
X605881Y3139562D02*
D03*
X605881Y3379562D02*
D03*
X885881D02*
D03*
X3506000Y7006001D02*
D03*
X3786000Y7006000D02*
D03*
X1075881Y3139562D02*
D03*
X1355881Y3139561D02*
D03*
X1355881Y3379562D02*
D03*
X1075881D02*
D03*
D92*
X8375000Y7019999D02*
D03*
X8325000Y7020000D02*
D03*
X8275000D02*
D03*
X8225000D02*
D03*
X8175000Y7019999D02*
D03*
X8125000D02*
D03*
X8075000Y7020000D02*
D03*
X8025000D02*
D03*
X7975000D02*
D03*
X7924999Y7020000D02*
D03*
X7875000D02*
D03*
X7825000D02*
D03*
Y6180000D02*
D03*
X7875000D02*
D03*
X7925000Y6180000D02*
D03*
X7975000D02*
D03*
X8024999Y6180000D02*
D03*
X8075000Y6180000D02*
D03*
X8125000Y6180000D02*
D03*
X8175000D02*
D03*
X8225000Y6180000D02*
D03*
X8275000D02*
D03*
X8325000D02*
D03*
X8375000D02*
D03*
D93*
X7680000Y6875000D02*
D03*
X7680001Y6824999D02*
D03*
X7680000Y6775000D02*
D03*
Y6725000D02*
D03*
Y6675000D02*
D03*
Y6625000D02*
D03*
Y6575000D02*
D03*
Y6525000D02*
D03*
Y6475000D02*
D03*
Y6425000D02*
D03*
Y6375000D02*
D03*
Y6325000D02*
D03*
X8520000D02*
D03*
Y6375000D02*
D03*
X8520000Y6425000D02*
D03*
X8520000Y6475000D02*
D03*
Y6525000D02*
D03*
Y6575000D02*
D03*
X8520000Y6625000D02*
D03*
X8520000Y6675000D02*
D03*
Y6725000D02*
D03*
Y6775000D02*
D03*
Y6825000D02*
D03*
X8520000Y6875000D02*
D03*
D94*
X1985000Y7395000D02*
D03*
X1985000Y7205000D02*
D03*
X2115000D02*
D03*
X2050000D02*
D03*
X2115000Y7395000D02*
D03*
X2050000D02*
D03*
D95*
X8150000Y979000D02*
D03*
Y1421000D02*
D03*
D96*
X7229000Y400000D02*
D03*
X7671000D02*
D03*
D97*
X664999Y3600000D02*
D03*
X534999Y3550000D02*
D03*
Y3650000D02*
D03*
D98*
X220000Y6435000D02*
D03*
Y4565000D02*
D03*
D99*
X775000Y5400000D02*
D03*
Y5200000D02*
D03*
Y5000000D02*
D03*
Y6200000D02*
D03*
Y6000000D02*
D03*
Y5800000D02*
D03*
Y5600000D02*
D03*
Y4800000D02*
D03*
D100*
X1680000Y4709500D02*
D03*
X1680000Y4836500D02*
D03*
X1680000Y4963500D02*
D03*
Y5090500D02*
D03*
X2220000D02*
D03*
Y4963500D02*
D03*
X2220000Y4836500D02*
D03*
X2220000Y4709500D02*
D03*
X1680000Y5309500D02*
D03*
Y5436500D02*
D03*
X1680000Y5563500D02*
D03*
X1680000Y5690500D02*
D03*
X2220000D02*
D03*
Y5563500D02*
D03*
X2220000Y5436500D02*
D03*
X2220000Y5309500D02*
D03*
X1680000Y5909500D02*
D03*
X1680000Y6036500D02*
D03*
X1680000Y6163500D02*
D03*
Y6290500D02*
D03*
X2220000Y6290500D02*
D03*
Y6163500D02*
D03*
Y6036500D02*
D03*
Y5909500D02*
D03*
D101*
X1335881Y4277062D02*
D03*
Y3862062D02*
D03*
D102*
X4286000Y6256000D02*
D03*
X4286001Y6556000D02*
D03*
X4526000Y6256000D02*
D03*
Y6556000D02*
D03*
X3250000Y6210000D02*
D03*
Y6490000D02*
D03*
X3650000D02*
D03*
X3650000Y6210000D02*
D03*
X5656000Y5650000D02*
D03*
X5656000Y5950000D02*
D03*
X3156000Y5650000D02*
D03*
X3156000Y5950000D02*
D03*
X6440000Y3230000D02*
D03*
Y2950000D02*
D03*
X6740000D02*
D03*
X6740000Y3230000D02*
D03*
D103*
X2770000Y6755000D02*
D03*
X3000000D02*
D03*
X3230000D02*
D03*
D104*
X3000000Y7345000D02*
D03*
D105*
X5265781Y4151508D02*
D03*
X5188000Y4229289D02*
D03*
X5371847Y4257574D02*
D03*
X5294066Y4335356D02*
D03*
D106*
X5722218Y4151508D02*
D03*
X5800000Y4229289D02*
D03*
X5616152Y4257574D02*
D03*
X5693934Y4335355D02*
D03*
D107*
X4091000Y6756000D02*
D03*
X4186000D02*
D03*
X4281000D02*
D03*
Y7016000D02*
D03*
X4186000D02*
D03*
X4091000D02*
D03*
D108*
X6744000Y4090000D02*
D03*
X6744000Y4710000D02*
D03*
X4244000Y4090000D02*
D03*
Y4710000D02*
D03*
D109*
X1775000Y7200000D02*
D03*
X1625000D02*
D03*
Y7400000D02*
D03*
X1775000D02*
D03*
D110*
X760899Y3993600D02*
D03*
X810900D02*
D03*
X860899D02*
D03*
X910899D02*
D03*
Y3845600D02*
D03*
X860899D02*
D03*
X810900D02*
D03*
X760899D02*
D03*
D111*
X9100000Y4550000D02*
D03*
Y4750000D02*
D03*
Y5450000D02*
D03*
Y5650000D02*
D03*
Y4100000D02*
D03*
Y4300000D02*
D03*
Y3650000D02*
D03*
Y3850000D02*
D03*
Y3200000D02*
D03*
Y3400000D02*
D03*
Y5000000D02*
D03*
Y5200000D02*
D03*
D112*
X9350000Y4997500D02*
D03*
Y5202500D02*
D03*
X9350001Y4547500D02*
D03*
Y4752500D02*
D03*
X9350001Y4097500D02*
D03*
Y4302500D02*
D03*
X9350000Y3647500D02*
D03*
Y3852500D02*
D03*
X9350000Y3197500D02*
D03*
Y3402500D02*
D03*
D113*
X7500000Y1980000D02*
D03*
X7500000Y2419999D02*
D03*
X7850000Y1980000D02*
D03*
Y2420000D02*
D03*
X8200000Y1980000D02*
D03*
Y2420000D02*
D03*
X7150000Y1980000D02*
D03*
Y2420000D02*
D03*
D114*
X2200000Y2050000D02*
D03*
X2200000Y1550000D02*
D03*
Y450000D02*
D03*
X2200000Y950000D02*
D03*
X2200000Y2650000D02*
D03*
X2200000Y3150000D02*
D03*
D115*
X5192000Y7023000D02*
D03*
Y7277000D02*
D03*
X5446000Y7023000D02*
D03*
Y7277000D02*
D03*
X5700000Y7023000D02*
D03*
Y7277000D02*
D03*
X5954000Y7023000D02*
D03*
Y7277000D02*
D03*
X6208000Y7023000D02*
D03*
Y7277000D02*
D03*
D116*
X250000Y3623000D02*
D03*
D117*
Y3877000D02*
D03*
D118*
X7247000Y5767000D02*
D03*
X2653000D02*
D03*
D119*
X5656000Y5195500D02*
D03*
X6200000D02*
D03*
X6744000D02*
D03*
X3156000D02*
D03*
X3700000D02*
D03*
X4244000D02*
D03*
D120*
X600000Y7100000D02*
D03*
X9300000Y600000D02*
D03*
Y7100000D02*
D03*
X600000Y600000D02*
D03*
D121*
X435000Y2100000D02*
D03*
X9465000Y2200000D02*
D03*
D122*
X1165000Y2400000D02*
D03*
Y2100000D02*
D03*
Y1800000D02*
D03*
X865000Y2400000D02*
D03*
Y2100000D02*
D03*
Y1800000D02*
D03*
X8735000Y1900000D02*
D03*
Y2200000D02*
D03*
Y2500000D02*
D03*
X9035000Y1900000D02*
D03*
Y2200000D02*
D03*
Y2500000D02*
D03*
%TF.MD5,a927a7fa13f670a0614ff7ed3bab6bd6*%
M02*
