%TF.GenerationSoftware,Altium Limited,Altium Designer,25.3.3 (18)*%
G04 Layer_Physical_Order=3*
G04 Layer_Color=16440176*
%FSLAX45Y45*%
%MOMM*%
%TF.SameCoordinates,6C4DDBA2-F481-4B1E-A352-F181FF77F2E2*%
%TF.FilePolarity,Positive*%
%TF.FileFunction,Copper,L3,Inr,Signal*%
%TF.Part,Single*%
G01*
G75*
%TA.AperFunction,ComponentPad*%
%ADD54C,1.50000*%
%ADD55C,2.00000*%
%ADD57O,2.40000X1.70000*%
%ADD58C,4.00000*%
%TA.AperFunction,ViaPad*%
%ADD60C,10.00000*%
%ADD61C,0.60000*%
G36*
X8541940Y2057090D02*
X8550951Y2056273D01*
X8559917Y2055048D01*
X8568818Y2053420D01*
X8577636Y2051391D01*
X8586354Y2048965D01*
X8594952Y2046148D01*
X8603415Y2042944D01*
X8611724Y2039361D01*
X8619863Y2035406D01*
X8627814Y2031087D01*
X8631688Y2028750D01*
X8635588Y2026457D01*
X8643537Y2022139D01*
X8651673Y2018185D01*
X8659980Y2014603D01*
X8668441Y2011400D01*
X8677037Y2008583D01*
X8685753Y2006158D01*
X8694568Y2004129D01*
X8703467Y2002501D01*
X8712430Y2001277D01*
X8721440Y2000460D01*
X8730477Y2000051D01*
X8735000Y2000000D01*
X9039182D01*
X9047518Y1999302D01*
X9055766Y1997909D01*
X9063869Y1995833D01*
X9071770Y1993088D01*
X9079415Y1989693D01*
X9086749Y1985671D01*
X9093722Y1981051D01*
X9100285Y1975864D01*
X9106391Y1970148D01*
X9112000Y1963942D01*
X9117070Y1957289D01*
X9121567Y1950236D01*
X9125459Y1942832D01*
X9128720Y1935129D01*
X9131326Y1927181D01*
X9133259Y1919042D01*
X9134506Y1910771D01*
X9135058Y1902425D01*
X9134911Y1894061D01*
X9134066Y1885739D01*
X9132529Y1877517D01*
X9130311Y1869452D01*
X9127428Y1861600D01*
X9123898Y1854016D01*
X9119748Y1846753D01*
X9115006Y1839863D01*
X9109705Y1833392D01*
X9103883Y1827387D01*
X9097579Y1821889D01*
X9090838Y1816936D01*
X9083707Y1812564D01*
X9079971Y1810683D01*
X9079972Y1810683D01*
X8768435Y1653488D01*
X8757198Y1647743D01*
X8734913Y1635894D01*
X8712886Y1623571D01*
X8691128Y1610779D01*
X8669649Y1597525D01*
X8648457Y1583815D01*
X8627564Y1569655D01*
X8606979Y1555051D01*
X8586711Y1540010D01*
X8566769Y1524539D01*
X8547162Y1508645D01*
X8527900Y1492335D01*
X8518401Y1484026D01*
Y1484027D01*
X8353387Y1338132D01*
X8351127Y1336133D01*
X8346372Y1332416D01*
X8341403Y1328992D01*
X8336236Y1325873D01*
X8330890Y1323073D01*
X8325385Y1320599D01*
X8319742Y1318462D01*
X8313979Y1316668D01*
X8308119Y1315226D01*
X8302183Y1314140D01*
X8296191Y1313413D01*
X8290167Y1313050D01*
X8008921D01*
X8001087Y1313666D01*
X7993326Y1314895D01*
X7985685Y1316730D01*
X7978211Y1319158D01*
X7970952Y1322165D01*
X7963950Y1325733D01*
X7957250Y1329839D01*
X7950893Y1334457D01*
X7944917Y1339561D01*
X7939361Y1345117D01*
X7934257Y1351093D01*
X7929639Y1357450D01*
X7925533Y1364150D01*
X7921965Y1371151D01*
X7918958Y1378411D01*
X7916530Y1385885D01*
X7914695Y1393526D01*
X7913466Y1401287D01*
X7912850Y1409121D01*
Y1413050D01*
Y1802500D01*
X7912773Y1806425D01*
X7912157Y1814253D01*
X7910928Y1822009D01*
X7909095Y1829644D01*
X7906669Y1837111D01*
X7903664Y1844365D01*
X7900099Y1851362D01*
X7895997Y1858056D01*
X7891381Y1864409D01*
X7886282Y1870380D01*
X7880730Y1875932D01*
X7874759Y1881031D01*
X7868407Y1885646D01*
X7861712Y1889749D01*
X7854716Y1893314D01*
X7847461Y1896319D01*
X7839994Y1898745D01*
X7832359Y1900578D01*
X7824603Y1901806D01*
X7816776Y1902422D01*
X7812850Y1902500D01*
X7036192D01*
X7028614Y1903246D01*
X7021146Y1904732D01*
X7013859Y1906942D01*
X7006824Y1909856D01*
X7000108Y1913445D01*
X6993777Y1917676D01*
X6987891Y1922506D01*
X6982506Y1927891D01*
X6977676Y1933777D01*
X6973445Y1940108D01*
X6969856Y1946824D01*
X6966942Y1953859D01*
X6964732Y1961146D01*
X6963246Y1968614D01*
X6962500Y1976192D01*
Y1983807D01*
X6963246Y1991385D01*
X6964732Y1998853D01*
X6966942Y2006140D01*
X6969856Y2013175D01*
X6973445Y2019891D01*
X6977676Y2026222D01*
X6982506Y2032108D01*
X6987891Y2037492D01*
X6993777Y2042323D01*
X7000108Y2046554D01*
X7006824Y2050143D01*
X7013859Y2053057D01*
X7021146Y2055267D01*
X7028614Y2056753D01*
X7036192Y2057500D01*
X8532900D01*
X8541940Y2057090D01*
D02*
G37*
G36*
X8298913Y1086333D02*
X8306674Y1085104D01*
X8314315Y1083269D01*
X8321788Y1080841D01*
X8329048Y1077834D01*
X8336050Y1074267D01*
X8342750Y1070161D01*
X8349107Y1065542D01*
X8355082Y1060439D01*
X8360639Y1054882D01*
X8365742Y1048907D01*
X8370361Y1042550D01*
X8374467Y1035850D01*
X8378034Y1028848D01*
X8381041Y1021588D01*
X8383470Y1014115D01*
X8385304Y1006474D01*
X8386533Y998713D01*
X8387150Y990879D01*
Y986950D01*
Y737150D01*
Y726898D01*
X8386418Y706406D01*
X8384955Y685954D01*
X8382764Y665567D01*
X8379845Y645270D01*
X8376205Y625092D01*
X8371846Y605056D01*
X8366775Y585188D01*
X8360998Y565514D01*
X8354523Y546059D01*
X8347357Y526847D01*
X8339511Y507903D01*
X8330993Y489251D01*
X8321814Y470915D01*
X8311987Y452919D01*
X8301525Y435285D01*
X8290439Y418035D01*
X8278745Y401192D01*
X8266457Y384777D01*
X8253591Y368812D01*
X8240163Y353315D01*
X8226191Y338308D01*
X8211692Y323809D01*
X8196685Y309837D01*
X8181188Y296409D01*
X8165222Y283543D01*
X8148808Y271255D01*
X8131965Y259561D01*
X8114715Y248475D01*
X8097081Y238012D01*
X8079084Y228185D01*
X8060748Y219007D01*
X8042097Y210489D01*
X8023153Y202642D01*
X8003941Y195477D01*
X7984486Y189001D01*
X7964812Y183224D01*
X7944944Y178154D01*
X7924908Y173795D01*
X7904729Y170154D01*
X7884433Y167236D01*
X7864046Y165044D01*
X7843594Y163582D01*
X7823102Y162850D01*
X7659121D01*
X7651287Y163466D01*
X7643525Y164695D01*
X7635885Y166530D01*
X7628411Y168958D01*
X7621151Y171965D01*
X7614150Y175533D01*
X7607450Y179639D01*
X7601092Y184257D01*
X7595117Y189361D01*
X7589561Y194917D01*
X7584457Y200893D01*
X7579839Y207250D01*
X7575733Y213950D01*
X7572165Y220952D01*
X7569158Y228211D01*
X7566730Y235685D01*
X7564895Y243326D01*
X7563666Y251087D01*
X7563050Y258921D01*
Y262850D01*
Y537150D01*
Y541079D01*
X7563666Y548913D01*
X7564895Y556674D01*
X7566730Y564315D01*
X7569158Y571788D01*
X7572165Y579048D01*
X7575733Y586050D01*
X7579839Y592750D01*
X7584457Y599107D01*
X7589561Y605082D01*
X7595117Y610639D01*
X7601092Y615742D01*
X7607450Y620361D01*
X7614150Y624467D01*
X7621151Y628034D01*
X7628411Y631041D01*
X7635885Y633470D01*
X7643525Y635304D01*
X7651287Y636533D01*
X7659121Y637150D01*
X7812850D01*
X7816776Y637227D01*
X7824603Y637843D01*
X7832359Y639071D01*
X7839994Y640904D01*
X7847461Y643331D01*
X7854716Y646336D01*
X7861712Y649900D01*
X7868407Y654003D01*
X7874759Y658618D01*
X7880730Y663718D01*
X7886282Y669270D01*
X7891381Y675241D01*
X7895997Y681593D01*
X7900099Y688288D01*
X7903664Y695284D01*
X7906669Y702538D01*
X7909095Y710006D01*
X7910928Y717641D01*
X7912157Y725396D01*
X7912773Y733224D01*
X7912850Y737150D01*
Y986950D01*
Y990879D01*
X7913466Y998713D01*
X7914695Y1006474D01*
X7916530Y1014115D01*
X7918958Y1021588D01*
X7921965Y1028848D01*
X7925533Y1035850D01*
X7929639Y1042550D01*
X7934257Y1048907D01*
X7939361Y1054882D01*
X7944917Y1060439D01*
X7950893Y1065542D01*
X7957250Y1070161D01*
X7963950Y1074267D01*
X7970952Y1077834D01*
X7978211Y1080841D01*
X7985685Y1083269D01*
X7993326Y1085104D01*
X8001087Y1086333D01*
X8008921Y1086950D01*
X8291079D01*
X8298913Y1086333D01*
D02*
G37*
G36*
X7236950Y637150D02*
X7240879D01*
X7248713Y636533D01*
X7256474Y635304D01*
X7264115Y633469D01*
X7271588Y631041D01*
X7278848Y628034D01*
X7285850Y624467D01*
X7292550Y620361D01*
X7298907Y615742D01*
X7304882Y610639D01*
X7310439Y605082D01*
X7315542Y599107D01*
X7320161Y592750D01*
X7324267Y586050D01*
X7327834Y579048D01*
X7330841Y571788D01*
X7333269Y564315D01*
X7335104Y556674D01*
X7336333Y548913D01*
X7336950Y541079D01*
Y537150D01*
X7336950D01*
X7336950Y262850D01*
Y258920D01*
X7336333Y251087D01*
X7335104Y243325D01*
X7333269Y235685D01*
X7330841Y228211D01*
X7327834Y220951D01*
X7324267Y213950D01*
X7320161Y207250D01*
X7315542Y200892D01*
X7310439Y194917D01*
X7304882Y189361D01*
X7298907Y184257D01*
X7292549Y179638D01*
X7285849Y175533D01*
X7278848Y171965D01*
X7271588Y168958D01*
X7264115Y166530D01*
X7256474Y164695D01*
X7248712Y163466D01*
X7240879Y162850D01*
X7236949Y162850D01*
X6931175D01*
X6920515Y163419D01*
X6909901Y164556D01*
X6899362Y166258D01*
X6888930Y168519D01*
X6878632Y171334D01*
X6868500Y174694D01*
X6858561Y178589D01*
X6848844Y183009D01*
X6839376Y187941D01*
X6830186Y193371D01*
X6821298Y199283D01*
X6812737Y205661D01*
X6804530Y212487D01*
X6796698Y219740D01*
X6789264Y227401D01*
X6785756Y231425D01*
X6782196Y235400D01*
X6774765Y243058D01*
X6766935Y250309D01*
X6758731Y257132D01*
X6750173Y263508D01*
X6741289Y269418D01*
X6732101Y274846D01*
X6722637Y279776D01*
X6712923Y284195D01*
X6702988Y288089D01*
X6692859Y291447D01*
X6682566Y294261D01*
X6672137Y296521D01*
X6661602Y298222D01*
X6650991Y299359D01*
X6640335Y299928D01*
X6635000Y299999D01*
X6635000Y300000D01*
X6355634D01*
X6346935Y300761D01*
X6338335Y302277D01*
X6329901Y304537D01*
X6321695Y307524D01*
X6313781Y311214D01*
X6306219Y315580D01*
X6299066Y320589D01*
X6292377Y326202D01*
X6286202Y332377D01*
X6280589Y339066D01*
X6275580Y346219D01*
X6271214Y353781D01*
X6267524Y361695D01*
X6264537Y369901D01*
X6262277Y378335D01*
X6260761Y386935D01*
X6260000Y395634D01*
Y404366D01*
X6260761Y413065D01*
X6262277Y421664D01*
X6264537Y430099D01*
X6267524Y438305D01*
X6271214Y446219D01*
X6275580Y453781D01*
X6280589Y460934D01*
X6286202Y467623D01*
X6292377Y473798D01*
X6299066Y479411D01*
X6306219Y484419D01*
X6313781Y488785D01*
X6321695Y492476D01*
X6329901Y495463D01*
X6338335Y497722D01*
X6346935Y499239D01*
X6355634Y500000D01*
X6635000D01*
X6640336Y500071D01*
X6650992Y500640D01*
X6661602Y501777D01*
X6672137Y503478D01*
X6682566Y505738D01*
X6692860Y508552D01*
X6702988Y511911D01*
X6712924Y515805D01*
X6722637Y520223D01*
X6732101Y525153D01*
X6741289Y530581D01*
X6750174Y536491D01*
X6758731Y542867D01*
X6766936Y549690D01*
X6774765Y556941D01*
X6782196Y564600D01*
X6785756Y568575D01*
X6785756D01*
X6789264Y572598D01*
X6796698Y580259D01*
X6804530Y587512D01*
X6812737Y594338D01*
X6821298Y600716D01*
X6830186Y606628D01*
X6839377Y612058D01*
X6848844Y616990D01*
X6858561Y621410D01*
X6868500Y625306D01*
X6878632Y628666D01*
X6888930Y631480D01*
X6899363Y633741D01*
X6909901Y635443D01*
X6920515Y636580D01*
X6931175Y637150D01*
X6936513D01*
X6936513Y637150D01*
X7236950Y637150D01*
D02*
G37*
G36*
X9385149Y7674028D02*
X9441004Y7662917D01*
X9495499Y7646386D01*
X9548115Y7624592D01*
X9598337Y7597748D01*
X9645689Y7566108D01*
X9689710Y7529981D01*
X9729980Y7489711D01*
X9766108Y7445689D01*
X9797747Y7398337D01*
X9824592Y7348115D01*
X9846386Y7295500D01*
X9862917Y7241002D01*
X9874027Y7185149D01*
X9879609Y7128475D01*
X9879609Y7100000D01*
X9879609Y600000D01*
Y571525D01*
X9874027Y514851D01*
X9862917Y458995D01*
X9846386Y404500D01*
X9824592Y351885D01*
X9797748Y301663D01*
X9766108Y254311D01*
X9729981Y210289D01*
X9689711Y170019D01*
X9645689Y133892D01*
X9598337Y102252D01*
X9548115Y75408D01*
X9495499Y53614D01*
X9441002Y37082D01*
X9385149Y25972D01*
X9328475Y20391D01*
X9300000D01*
X9144748D01*
X9141237Y21286D01*
X9120683Y27322D01*
X9100357Y34087D01*
X9080286Y41573D01*
X9060494Y49771D01*
X9041008Y58670D01*
X9021851Y68259D01*
X9003050Y78526D01*
X8984626Y89457D01*
X8966605Y101039D01*
X8949008Y113256D01*
X8931858Y126094D01*
X8915178Y139536D01*
X8898988Y153564D01*
X8883310Y168162D01*
X8868162Y183310D01*
X8853564Y198988D01*
X8839536Y215178D01*
X8826094Y231859D01*
X8813256Y249008D01*
X8801039Y266605D01*
X8789457Y284626D01*
X8778526Y303050D01*
X8768259Y321852D01*
X8758670Y341008D01*
X8749771Y360494D01*
X8741573Y380286D01*
X8734087Y400357D01*
X8727322Y420683D01*
X8721286Y441238D01*
X8715988Y461995D01*
X8711435Y482927D01*
X8707631Y504009D01*
X8704583Y525213D01*
X8702292Y546512D01*
X8700764Y567880D01*
X8700000Y589289D01*
Y610711D01*
X8700764Y632120D01*
X8702292Y653487D01*
X8704583Y674787D01*
X8707631Y695991D01*
X8711435Y717073D01*
X8715988Y738005D01*
X8721286Y758762D01*
X8727322Y779317D01*
X8734087Y799643D01*
X8741573Y819714D01*
X8749771Y839506D01*
X8758670Y858992D01*
X8768259Y878148D01*
X8778526Y896950D01*
X8789457Y915374D01*
X8801039Y933395D01*
X8813256Y950992D01*
X8826094Y968141D01*
X8839536Y984821D01*
X8853564Y1001011D01*
X8868162Y1016690D01*
X8883310Y1031838D01*
X8898988Y1046436D01*
X8915178Y1060464D01*
X8931858Y1073906D01*
X8949008Y1086744D01*
X8966605Y1098961D01*
X8984626Y1110543D01*
X9003050Y1121474D01*
X9021851Y1131741D01*
X9041008Y1141330D01*
X9060494Y1150229D01*
X9080286Y1158427D01*
X9100357Y1165913D01*
X9120683Y1172678D01*
X9141237Y1178713D01*
X9161994Y1184011D01*
X9182927Y1188565D01*
X9204009Y1192368D01*
X9225213Y1195417D01*
X9246512Y1197707D01*
X9267880Y1199235D01*
X9289289Y1200000D01*
X9420000D01*
X9428443Y1200083D01*
X9445315Y1200746D01*
X9462147Y1202070D01*
X9478915Y1204055D01*
X9495592Y1206697D01*
X9512153Y1209991D01*
X9528571Y1213932D01*
X9544822Y1218516D01*
X9560881Y1223733D01*
X9576722Y1229578D01*
X9592322Y1236039D01*
X9607656Y1243108D01*
X9622701Y1250774D01*
X9637433Y1259024D01*
X9651829Y1267847D01*
X9665869Y1277227D01*
X9679529Y1287152D01*
X9692789Y1297605D01*
X9705628Y1308571D01*
X9718027Y1320033D01*
X9729967Y1331972D01*
X9741428Y1344371D01*
X9752394Y1357211D01*
X9762848Y1370471D01*
X9772772Y1384131D01*
X9782153Y1398170D01*
X9790976Y1412567D01*
X9799226Y1427299D01*
X9806891Y1442344D01*
X9813961Y1457678D01*
X9820422Y1473277D01*
X9826266Y1489119D01*
X9831484Y1505177D01*
X9836067Y1521428D01*
X9840009Y1537847D01*
X9843303Y1554407D01*
X9845944Y1571084D01*
X9847929Y1587852D01*
X9849254Y1604685D01*
X9849917Y1621557D01*
X9850000Y1630000D01*
Y5135000D01*
X9850000D01*
X9850000Y5135000D01*
X9849999Y5135081D01*
X9849917Y5143442D01*
X9849885Y5144254D01*
X9849254Y5160314D01*
X9847929Y5177147D01*
X9845944Y5193915D01*
X9843303Y5210592D01*
X9840009Y5227153D01*
X9836067Y5243571D01*
X9831484Y5259822D01*
X9826266Y5275881D01*
X9820422Y5291722D01*
X9813960Y5307322D01*
X9806891Y5322656D01*
X9799226Y5337700D01*
X9790975Y5352432D01*
X9782153Y5366829D01*
X9772772Y5380868D01*
X9762848Y5394529D01*
X9752394Y5407789D01*
X9741428Y5420628D01*
X9729967Y5433027D01*
X9718027Y5444967D01*
X9705628Y5456428D01*
X9692789Y5467394D01*
X9679529Y5477848D01*
X9665868Y5487772D01*
X9651829Y5497153D01*
X9637432Y5505975D01*
X9622700Y5514226D01*
X9607656Y5521891D01*
X9592322Y5528960D01*
X9576722Y5535422D01*
X9560881Y5541266D01*
X9544822Y5546484D01*
X9528571Y5551067D01*
X9512153Y5555009D01*
X9495592Y5558303D01*
X9478915Y5560944D01*
X9462147Y5562929D01*
X9445314Y5564254D01*
X9428442Y5564916D01*
X9420000Y5564999D01*
X9042500Y5565000D01*
Y5565000D01*
X9034057Y5564916D01*
X9017186Y5564254D01*
X9000353Y5562929D01*
X8983585Y5560944D01*
X8966908Y5558303D01*
X8950347Y5555009D01*
X8933929Y5551067D01*
X8917678Y5546484D01*
X8901619Y5541266D01*
X8885778Y5535422D01*
X8870178Y5528960D01*
X8854844Y5521891D01*
X8839800Y5514226D01*
X8825068Y5505975D01*
X8810671Y5497153D01*
X8796632Y5487772D01*
X8782972Y5477848D01*
X8769711Y5467394D01*
X8756872Y5456428D01*
X8744473Y5444967D01*
X8732533Y5433027D01*
X8721072Y5420628D01*
X8710106Y5407789D01*
X8699653Y5394529D01*
X8689728Y5380869D01*
X8680347Y5366829D01*
X8671525Y5352433D01*
X8663275Y5337701D01*
X8655609Y5322656D01*
X8648540Y5307322D01*
X8642078Y5291722D01*
X8636234Y5275881D01*
X8631017Y5259822D01*
X8626433Y5243571D01*
X8622492Y5227153D01*
X8619197Y5210593D01*
X8616556Y5193915D01*
X8614571Y5177148D01*
X8613247Y5160315D01*
X8612584Y5143443D01*
X8612501Y5135000D01*
X8612500Y3030000D01*
X8612599Y3020788D01*
X8613388Y3002383D01*
X8614965Y2984027D01*
X8617326Y2965757D01*
X8620468Y2947604D01*
X8624385Y2929602D01*
X8629069Y2911785D01*
X8634513Y2894184D01*
X8640704Y2876833D01*
X8647634Y2859763D01*
X8655288Y2843006D01*
X8663653Y2826592D01*
X8672714Y2810551D01*
X8682453Y2794913D01*
X8692853Y2779706D01*
X8703895Y2764959D01*
X8715559Y2750699D01*
X8727823Y2736951D01*
X8740664Y2723741D01*
X8754059Y2711093D01*
X8767984Y2699031D01*
X8782412Y2687576D01*
X8797319Y2676749D01*
X8812675Y2666572D01*
X8828453Y2657061D01*
X8844624Y2648234D01*
X8861158Y2640109D01*
X8878025Y2632699D01*
X8895194Y2626019D01*
X8912633Y2620080D01*
X8930311Y2614893D01*
X8948194Y2610469D01*
X8966251Y2606814D01*
X8984448Y2603937D01*
X9002751Y2601841D01*
X9021128Y2600532D01*
X9028587Y2600240D01*
X9030332Y2600172D01*
X9037726Y2599963D01*
X9037829Y2599960D01*
X9037830Y2599959D01*
X9037830Y2599959D01*
X9037836Y2599959D01*
X9047043Y2599273D01*
X9050751Y2598846D01*
X9059230Y2597116D01*
X9067527Y2594660D01*
X9075582Y2591497D01*
X9083333Y2587650D01*
X9090723Y2583148D01*
X9097696Y2578024D01*
X9104201Y2572317D01*
X9110189Y2566070D01*
X9115614Y2559329D01*
X9120438Y2552144D01*
X9124622Y2544569D01*
X9128137Y2536662D01*
X9130955Y2528481D01*
X9133057Y2520086D01*
X9134425Y2511542D01*
X9135051Y2502911D01*
X9134928Y2494258D01*
X9134059Y2485649D01*
X9132449Y2477146D01*
X9130111Y2468815D01*
X9127062Y2460716D01*
X9123325Y2452912D01*
X9118928Y2445459D01*
X9113903Y2438413D01*
X9108289Y2431828D01*
X9102127Y2425753D01*
X9095463Y2420232D01*
X9088348Y2415308D01*
X9080833Y2411017D01*
X9072976Y2407391D01*
X9064836Y2404456D01*
X9056472Y2402236D01*
X9047947Y2400747D01*
X9039326Y2400000D01*
X8735000D01*
X8735000Y2400000D01*
X8730477Y2399948D01*
X8721440Y2399540D01*
X8712430Y2398722D01*
X8703467Y2397498D01*
X8694568Y2395870D01*
X8685753Y2393842D01*
X8677037Y2391416D01*
X8668441Y2388599D01*
X8659980Y2385397D01*
X8651673Y2381815D01*
X8643537Y2377861D01*
X8635588Y2373543D01*
X8631688Y2371250D01*
X8631688Y2371250D01*
X8627814Y2368913D01*
X8619863Y2364594D01*
X8611724Y2360639D01*
X8603415Y2357056D01*
X8594952Y2353852D01*
X8586353Y2351035D01*
X8577636Y2348609D01*
X8568818Y2346579D01*
X8559917Y2344951D01*
X8550951Y2343727D01*
X8541940Y2342909D01*
X8532900Y2342500D01*
X6835000D01*
Y2342500D01*
X6829391Y2342421D01*
X6818190Y2341792D01*
X6807042Y2340536D01*
X6795982Y2338657D01*
X6785045Y2336160D01*
X6774265Y2333055D01*
X6763676Y2329349D01*
X6753311Y2325056D01*
X6743204Y2320189D01*
X6733385Y2314762D01*
X6723886Y2308794D01*
X6714737Y2302302D01*
X6705966Y2295307D01*
X6697601Y2287832D01*
X6689668Y2279899D01*
X6682193Y2271534D01*
X6675198Y2262763D01*
X6668706Y2253614D01*
X6662738Y2244115D01*
X6657311Y2234296D01*
X6652444Y2224189D01*
X6648151Y2213824D01*
X6644445Y2203235D01*
X6641340Y2192455D01*
X6638843Y2181518D01*
X6636964Y2170458D01*
X6635708Y2159310D01*
X6635079Y2148109D01*
X6635000Y2142500D01*
X6635000Y1980000D01*
X6635089Y1971522D01*
X6635799Y1954581D01*
X6637217Y1937685D01*
X6639341Y1920863D01*
X6642167Y1904145D01*
X6645691Y1887560D01*
X6649905Y1871136D01*
X6654804Y1854904D01*
X6660377Y1838891D01*
X6666616Y1823125D01*
X6673510Y1807634D01*
X6681045Y1792445D01*
X6689210Y1777585D01*
X6697990Y1763080D01*
X6707369Y1748955D01*
X6717331Y1735235D01*
X6727859Y1721944D01*
X6738933Y1709105D01*
X6750536Y1696741D01*
X6762646Y1684873D01*
X6768884Y1679132D01*
Y1679132D01*
X6772773Y1675628D01*
X6780173Y1668222D01*
X6787176Y1660439D01*
X6793762Y1652301D01*
X6799914Y1643829D01*
X6805613Y1635047D01*
X6810846Y1625979D01*
X6815597Y1616649D01*
X6819853Y1607084D01*
X6823603Y1597309D01*
X6826837Y1587352D01*
X6829546Y1577239D01*
X6831721Y1566998D01*
X6833358Y1556657D01*
X6834452Y1546245D01*
X6835000Y1535790D01*
X6835000Y1294389D01*
X6834371Y1283183D01*
X6833114Y1272031D01*
X6831234Y1260967D01*
X6828737Y1250025D01*
X6825630Y1239241D01*
X6821923Y1228648D01*
X6817629Y1218279D01*
X6812759Y1208168D01*
X6807331Y1198345D01*
X6801360Y1188842D01*
X6794865Y1179689D01*
X6787868Y1170915D01*
X6780389Y1162547D01*
X6772454Y1154611D01*
X6764085Y1147132D01*
X6755311Y1140135D01*
X6746158Y1133641D01*
X6736655Y1127670D01*
X6726833Y1122241D01*
X6716721Y1117371D01*
X6706353Y1113077D01*
X6695759Y1109370D01*
X6684975Y1106263D01*
X6674033Y1103766D01*
X6662969Y1101886D01*
X6651817Y1100629D01*
X6640612Y1100000D01*
X6360000D01*
X6348547Y1099906D01*
X6325653Y1099157D01*
X6302795Y1097659D01*
X6279999Y1095413D01*
X6257288Y1092424D01*
X6234688Y1088692D01*
X6212222Y1084223D01*
X6189914Y1079022D01*
X6167788Y1073093D01*
X6145868Y1066444D01*
X6124177Y1059081D01*
X6102739Y1051012D01*
X6081576Y1042246D01*
X6060711Y1032792D01*
X6040167Y1022661D01*
X6019965Y1011863D01*
X6000128Y1000410D01*
X5980676Y988314D01*
X5961630Y975588D01*
X5943010Y962245D01*
X5924837Y948301D01*
X5907130Y933769D01*
X5889908Y918666D01*
X5873190Y903007D01*
X5856993Y886810D01*
X5841334Y870091D01*
X5826231Y852869D01*
X5811699Y835162D01*
X5797754Y816989D01*
X5784412Y798370D01*
X5771686Y779324D01*
X5759590Y759872D01*
X5748137Y740034D01*
X5737339Y719833D01*
X5727207Y699288D01*
X5717754Y678424D01*
X5708988Y657261D01*
X5700919Y635823D01*
X5693556Y614132D01*
X5686907Y592212D01*
X5680978Y570086D01*
X5675776Y547778D01*
X5671307Y525312D01*
X5667576Y502711D01*
X5664586Y480001D01*
X5662341Y457205D01*
X5660843Y434347D01*
X5660093Y411453D01*
X5660000Y400000D01*
Y96071D01*
X5659383Y88237D01*
X5658154Y80476D01*
X5656319Y72835D01*
X5653891Y65362D01*
X5650884Y58102D01*
X5647317Y51100D01*
X5643211Y44400D01*
X5638592Y38043D01*
X5633489Y32068D01*
X5627932Y26511D01*
X5621957Y21408D01*
X5620556Y20390D01*
X600000Y20390D01*
X571524Y20390D01*
X514851Y25972D01*
X458995Y37082D01*
X404500Y53613D01*
X351885Y75407D01*
X301663Y102251D01*
X254311Y133891D01*
X210289Y170018D01*
X170019Y210288D01*
X133892Y254310D01*
X102252Y301662D01*
X75408Y351884D01*
X53614Y404500D01*
X37082Y458997D01*
X25972Y514850D01*
X20390Y571524D01*
Y599999D01*
X20390Y7099999D01*
X20390Y7128475D01*
X25972Y7185148D01*
X37082Y7241004D01*
X53613Y7295499D01*
X75407Y7348114D01*
X102252Y7398336D01*
X133891Y7445688D01*
X170019Y7489710D01*
X210288Y7529980D01*
X254310Y7566107D01*
X301662Y7597747D01*
X351884Y7624591D01*
X404500Y7646385D01*
X458997Y7662917D01*
X514851Y7674027D01*
X571524Y7679608D01*
X600000Y7679609D01*
X9299999Y7679609D01*
X9328475Y7679609D01*
X9385149Y7674028D01*
D02*
G37*
%LPC*%
G36*
X6220699Y7401788D02*
Y7289700D01*
X6332788D01*
X6332627Y7291750D01*
X6331085Y7301483D01*
X6328785Y7311065D01*
X6325740Y7320436D01*
X6321969Y7329540D01*
X6317496Y7338320D01*
X6312347Y7346722D01*
X6306555Y7354694D01*
X6300155Y7362187D01*
X6293187Y7369155D01*
X6285694Y7375555D01*
X6277722Y7381347D01*
X6269320Y7386496D01*
X6260540Y7390969D01*
X6251437Y7394740D01*
X6242065Y7397785D01*
X6232483Y7400085D01*
X6222751Y7401627D01*
X6220699Y7401788D01*
D02*
G37*
G36*
X5179299Y7401788D02*
X5177249Y7401627D01*
X5167517Y7400085D01*
X5157935Y7397785D01*
X5148563Y7394740D01*
X5139460Y7390969D01*
X5130680Y7386496D01*
X5122278Y7381347D01*
X5114306Y7375555D01*
X5106813Y7369155D01*
X5099845Y7362187D01*
X5093445Y7354694D01*
X5087653Y7346722D01*
X5082504Y7338320D01*
X5078031Y7329540D01*
X5074260Y7320436D01*
X5071215Y7311065D01*
X5068915Y7301483D01*
X5067373Y7291750D01*
X5067212Y7289700D01*
X5179299D01*
Y7401788D01*
D02*
G37*
G36*
X5966699Y7401788D02*
Y7277000D01*
X5941299D01*
Y7401788D01*
X5939249Y7401627D01*
X5929517Y7400085D01*
X5919935Y7397785D01*
X5910563Y7394740D01*
X5901460Y7390969D01*
X5892680Y7386496D01*
X5884278Y7381347D01*
X5876306Y7375555D01*
X5868813Y7369155D01*
X5861845Y7362187D01*
X5855445Y7354694D01*
X5849653Y7346722D01*
X5844504Y7338320D01*
X5840031Y7329540D01*
X5836260Y7320436D01*
X5833215Y7311065D01*
X5832142Y7306596D01*
X5821858D01*
X5820785Y7311065D01*
X5817740Y7320436D01*
X5813969Y7329540D01*
X5809496Y7338320D01*
X5804347Y7346722D01*
X5798555Y7354694D01*
X5792155Y7362187D01*
X5785187Y7369155D01*
X5777694Y7375555D01*
X5769722Y7381347D01*
X5761320Y7386496D01*
X5752540Y7390969D01*
X5743437Y7394740D01*
X5734065Y7397785D01*
X5724483Y7400085D01*
X5714751Y7401627D01*
X5712699Y7401788D01*
Y7277000D01*
X5687299D01*
Y7401788D01*
X5685249Y7401627D01*
X5675517Y7400085D01*
X5665935Y7397785D01*
X5656563Y7394740D01*
X5647460Y7390969D01*
X5638680Y7386496D01*
X5630278Y7381347D01*
X5622306Y7375555D01*
X5614813Y7369155D01*
X5607845Y7362187D01*
X5601445Y7354694D01*
X5595653Y7346722D01*
X5590504Y7338320D01*
X5586031Y7329540D01*
X5582260Y7320436D01*
X5579215Y7311065D01*
X5578142Y7306596D01*
X5567858D01*
X5566785Y7311065D01*
X5563740Y7320436D01*
X5559969Y7329540D01*
X5555496Y7338320D01*
X5550347Y7346722D01*
X5544555Y7354694D01*
X5538155Y7362187D01*
X5531187Y7369155D01*
X5523694Y7375555D01*
X5515722Y7381347D01*
X5507320Y7386496D01*
X5498540Y7390969D01*
X5489437Y7394740D01*
X5480065Y7397785D01*
X5470483Y7400085D01*
X5460751Y7401627D01*
X5458699Y7401788D01*
Y7277000D01*
X5433299D01*
Y7401788D01*
X5431249Y7401627D01*
X5421517Y7400085D01*
X5411935Y7397785D01*
X5402563Y7394740D01*
X5393460Y7390969D01*
X5384680Y7386496D01*
X5376278Y7381347D01*
X5368306Y7375555D01*
X5360813Y7369155D01*
X5353845Y7362187D01*
X5347445Y7354694D01*
X5341653Y7346722D01*
X5336504Y7338320D01*
X5332031Y7329540D01*
X5328260Y7320436D01*
X5325215Y7311065D01*
X5324142Y7306596D01*
X5313858D01*
X5312785Y7311065D01*
X5309740Y7320436D01*
X5305969Y7329540D01*
X5301496Y7338320D01*
X5296347Y7346722D01*
X5290555Y7354694D01*
X5284155Y7362187D01*
X5277187Y7369155D01*
X5269694Y7375555D01*
X5261722Y7381347D01*
X5253320Y7386496D01*
X5244540Y7390969D01*
X5235437Y7394740D01*
X5226065Y7397785D01*
X5216483Y7400085D01*
X5206751Y7401627D01*
X5204699Y7401788D01*
Y7277000D01*
X5191999D01*
Y7264300D01*
X5067212D01*
X5067373Y7262249D01*
X5068915Y7252517D01*
X5071215Y7242935D01*
X5074260Y7233563D01*
X5078031Y7224460D01*
X5082504Y7215679D01*
X5087653Y7207278D01*
X5093445Y7199306D01*
X5099845Y7191813D01*
X5106813Y7184845D01*
X5114306Y7178445D01*
X5122278Y7172653D01*
X5130680Y7167504D01*
X5139460Y7163031D01*
X5148563Y7159260D01*
X5157935Y7156215D01*
X5162404Y7155142D01*
Y7144858D01*
X5157935Y7143785D01*
X5148563Y7140740D01*
X5139460Y7136969D01*
X5130680Y7132496D01*
X5122278Y7127347D01*
X5114306Y7121555D01*
X5106813Y7115155D01*
X5099845Y7108187D01*
X5093445Y7100694D01*
X5087653Y7092722D01*
X5082504Y7084320D01*
X5078031Y7075540D01*
X5074260Y7066436D01*
X5071215Y7057065D01*
X5068915Y7047483D01*
X5067373Y7037750D01*
X5067212Y7035700D01*
X5191999D01*
Y7023000D01*
X5204699D01*
Y6898212D01*
X5206751Y6898373D01*
X5216483Y6899915D01*
X5226065Y6902215D01*
X5235437Y6905260D01*
X5244540Y6909031D01*
X5253320Y6913504D01*
X5261722Y6918653D01*
X5269694Y6924445D01*
X5277187Y6930845D01*
X5284155Y6937813D01*
X5290555Y6945306D01*
X5296347Y6953278D01*
X5301496Y6961679D01*
X5305969Y6970460D01*
X5309740Y6979563D01*
X5312785Y6988935D01*
X5315085Y6998517D01*
X5316627Y7008249D01*
X5316693Y7009087D01*
X5326724Y7009087D01*
X5326740Y7008885D01*
X5328215Y6999571D01*
X5330416Y6990402D01*
X5333330Y6981434D01*
X5336939Y6972722D01*
X5341220Y6964320D01*
X5346147Y6956280D01*
X5351689Y6948651D01*
X5357813Y6941481D01*
X5364481Y6934813D01*
X5371651Y6928689D01*
X5379280Y6923146D01*
X5387320Y6918220D01*
X5395722Y6913938D01*
X5404434Y6910330D01*
X5413402Y6907416D01*
X5422571Y6905215D01*
X5431885Y6903740D01*
X5441285Y6903000D01*
X5450715D01*
X5460115Y6903740D01*
X5469429Y6905215D01*
X5478598Y6907416D01*
X5487566Y6910330D01*
X5496278Y6913938D01*
X5504680Y6918220D01*
X5512720Y6923146D01*
X5520349Y6928689D01*
X5527519Y6934813D01*
X5534187Y6941481D01*
X5540311Y6948651D01*
X5545854Y6956280D01*
X5550780Y6964320D01*
X5555062Y6972722D01*
X5558670Y6981434D01*
X5561584Y6990402D01*
X5563785Y6999571D01*
X5565260Y7008885D01*
X5566000Y7018285D01*
Y7027715D01*
X5565260Y7037115D01*
X5563785Y7046429D01*
X5561584Y7055598D01*
X5558670Y7064566D01*
X5555062Y7073278D01*
X5550780Y7081680D01*
X5545854Y7089720D01*
X5540311Y7097349D01*
X5534187Y7104519D01*
X5527519Y7111187D01*
X5520349Y7117311D01*
X5512720Y7122853D01*
X5504680Y7127780D01*
X5496278Y7132061D01*
X5487566Y7135670D01*
X5478598Y7138584D01*
X5469429Y7140785D01*
X5460115Y7142260D01*
X5459913Y7142276D01*
X5459913Y7152307D01*
X5460751Y7152373D01*
X5470483Y7153915D01*
X5480065Y7156215D01*
X5489437Y7159260D01*
X5498540Y7163031D01*
X5507320Y7167504D01*
X5515722Y7172653D01*
X5523694Y7178445D01*
X5531187Y7184845D01*
X5538155Y7191813D01*
X5544555Y7199306D01*
X5550347Y7207278D01*
X5555496Y7215679D01*
X5559969Y7224460D01*
X5563740Y7233563D01*
X5566785Y7242935D01*
X5567858Y7247404D01*
X5578142D01*
X5579215Y7242935D01*
X5582260Y7233563D01*
X5586031Y7224460D01*
X5590504Y7215679D01*
X5595653Y7207278D01*
X5601445Y7199306D01*
X5607845Y7191813D01*
X5614813Y7184845D01*
X5622306Y7178445D01*
X5630278Y7172653D01*
X5638680Y7167504D01*
X5647460Y7163031D01*
X5656563Y7159260D01*
X5665935Y7156215D01*
X5675517Y7153915D01*
X5685249Y7152373D01*
X5686087Y7152307D01*
X5686087Y7142276D01*
X5685885Y7142260D01*
X5676571Y7140785D01*
X5667402Y7138584D01*
X5658434Y7135670D01*
X5649722Y7132061D01*
X5641320Y7127780D01*
X5633280Y7122853D01*
X5625651Y7117311D01*
X5618481Y7111187D01*
X5611813Y7104519D01*
X5605689Y7097349D01*
X5600147Y7089720D01*
X5595220Y7081680D01*
X5590939Y7073278D01*
X5587330Y7064566D01*
X5584416Y7055598D01*
X5582215Y7046429D01*
X5580740Y7037115D01*
X5580000Y7027715D01*
Y7018285D01*
X5580740Y7008885D01*
X5582215Y6999571D01*
X5584416Y6990402D01*
X5587330Y6981434D01*
X5590939Y6972722D01*
X5595220Y6964320D01*
X5600147Y6956280D01*
X5605689Y6948651D01*
X5611813Y6941481D01*
X5618481Y6934813D01*
X5625651Y6928689D01*
X5633280Y6923146D01*
X5641320Y6918220D01*
X5649722Y6913938D01*
X5658434Y6910330D01*
X5667402Y6907416D01*
X5676571Y6905215D01*
X5685885Y6903740D01*
X5695285Y6903000D01*
X5704715D01*
X5714115Y6903740D01*
X5723429Y6905215D01*
X5732598Y6907416D01*
X5741566Y6910330D01*
X5750278Y6913938D01*
X5758680Y6918220D01*
X5766720Y6923146D01*
X5774349Y6928689D01*
X5781519Y6934813D01*
X5788187Y6941481D01*
X5794311Y6948651D01*
X5799854Y6956280D01*
X5804780Y6964320D01*
X5809062Y6972722D01*
X5812670Y6981434D01*
X5815584Y6990402D01*
X5817785Y6999571D01*
X5819260Y7008885D01*
X5820000Y7018285D01*
Y7027715D01*
X5819260Y7037115D01*
X5817785Y7046429D01*
X5815584Y7055598D01*
X5812670Y7064566D01*
X5809062Y7073278D01*
X5804780Y7081680D01*
X5799854Y7089720D01*
X5794311Y7097349D01*
X5788187Y7104519D01*
X5781519Y7111187D01*
X5774349Y7117311D01*
X5766720Y7122853D01*
X5758680Y7127780D01*
X5750278Y7132061D01*
X5741566Y7135670D01*
X5732598Y7138584D01*
X5723429Y7140785D01*
X5714115Y7142260D01*
X5713913Y7142276D01*
X5713913Y7152307D01*
X5714751Y7152373D01*
X5724483Y7153915D01*
X5734065Y7156215D01*
X5743437Y7159260D01*
X5752540Y7163031D01*
X5761320Y7167504D01*
X5769722Y7172653D01*
X5777694Y7178445D01*
X5785187Y7184845D01*
X5792155Y7191813D01*
X5798555Y7199306D01*
X5804347Y7207278D01*
X5809496Y7215679D01*
X5813969Y7224460D01*
X5817740Y7233563D01*
X5820785Y7242935D01*
X5821858Y7247404D01*
X5832142D01*
X5833215Y7242935D01*
X5836260Y7233563D01*
X5840031Y7224460D01*
X5844504Y7215679D01*
X5849653Y7207278D01*
X5855445Y7199306D01*
X5861845Y7191813D01*
X5868813Y7184845D01*
X5876306Y7178445D01*
X5884278Y7172653D01*
X5892680Y7167504D01*
X5901460Y7163031D01*
X5910563Y7159260D01*
X5919935Y7156215D01*
X5929517Y7153915D01*
X5939249Y7152373D01*
X5940087Y7152307D01*
X5940087Y7142276D01*
X5939885Y7142260D01*
X5930571Y7140785D01*
X5921402Y7138584D01*
X5912434Y7135670D01*
X5903722Y7132061D01*
X5895320Y7127780D01*
X5887280Y7122853D01*
X5879651Y7117311D01*
X5872481Y7111187D01*
X5865813Y7104519D01*
X5859689Y7097349D01*
X5854147Y7089720D01*
X5849220Y7081680D01*
X5844939Y7073278D01*
X5841330Y7064566D01*
X5838416Y7055598D01*
X5836215Y7046429D01*
X5834740Y7037115D01*
X5834000Y7027715D01*
Y7018285D01*
X5834740Y7008885D01*
X5836215Y6999571D01*
X5838416Y6990402D01*
X5841330Y6981434D01*
X5844939Y6972722D01*
X5849220Y6964320D01*
X5854147Y6956280D01*
X5859689Y6948651D01*
X5865813Y6941481D01*
X5872481Y6934813D01*
X5879651Y6928689D01*
X5887280Y6923146D01*
X5895320Y6918220D01*
X5903722Y6913938D01*
X5912434Y6910330D01*
X5921402Y6907416D01*
X5930571Y6905215D01*
X5939885Y6903740D01*
X5949285Y6903000D01*
X5958715D01*
X5968115Y6903740D01*
X5977429Y6905215D01*
X5986598Y6907416D01*
X5995566Y6910330D01*
X6004278Y6913938D01*
X6012680Y6918220D01*
X6020720Y6923146D01*
X6028349Y6928689D01*
X6035519Y6934813D01*
X6042187Y6941481D01*
X6048311Y6948651D01*
X6053854Y6956280D01*
X6058780Y6964320D01*
X6063062Y6972722D01*
X6066670Y6981434D01*
X6069584Y6990402D01*
X6071785Y6999571D01*
X6073260Y7008885D01*
X6074000Y7018285D01*
Y7027715D01*
X6073260Y7037115D01*
X6071785Y7046429D01*
X6069584Y7055598D01*
X6066670Y7064566D01*
X6063062Y7073278D01*
X6058780Y7081680D01*
X6053854Y7089720D01*
X6048311Y7097349D01*
X6042187Y7104519D01*
X6035519Y7111187D01*
X6028349Y7117311D01*
X6020720Y7122853D01*
X6012680Y7127780D01*
X6004278Y7132061D01*
X5995566Y7135670D01*
X5986598Y7138584D01*
X5977429Y7140785D01*
X5968115Y7142260D01*
X5967913Y7142276D01*
X5967913Y7152307D01*
X5968751Y7152373D01*
X5978483Y7153915D01*
X5988065Y7156215D01*
X5997437Y7159260D01*
X6006540Y7163031D01*
X6015320Y7167504D01*
X6023722Y7172653D01*
X6031694Y7178445D01*
X6039187Y7184845D01*
X6046155Y7191813D01*
X6052555Y7199306D01*
X6058347Y7207278D01*
X6063496Y7215679D01*
X6067969Y7224460D01*
X6071740Y7233563D01*
X6074785Y7242935D01*
X6075858Y7247404D01*
X6086142D01*
X6087215Y7242935D01*
X6090260Y7233563D01*
X6094031Y7224460D01*
X6098504Y7215679D01*
X6103653Y7207278D01*
X6109445Y7199306D01*
X6115845Y7191813D01*
X6122813Y7184845D01*
X6130306Y7178445D01*
X6138278Y7172653D01*
X6146680Y7167504D01*
X6155460Y7163031D01*
X6164563Y7159260D01*
X6173935Y7156215D01*
X6183517Y7153915D01*
X6193249Y7152373D01*
X6194087Y7152307D01*
X6194087Y7142276D01*
X6193885Y7142260D01*
X6184571Y7140785D01*
X6175402Y7138584D01*
X6166434Y7135670D01*
X6157722Y7132061D01*
X6149320Y7127780D01*
X6141280Y7122853D01*
X6133651Y7117311D01*
X6126481Y7111187D01*
X6119813Y7104519D01*
X6113689Y7097349D01*
X6108147Y7089720D01*
X6103220Y7081680D01*
X6098939Y7073278D01*
X6095330Y7064566D01*
X6092416Y7055598D01*
X6090215Y7046429D01*
X6088740Y7037115D01*
X6088000Y7027715D01*
Y7018285D01*
X6088740Y7008885D01*
X6090215Y6999571D01*
X6092416Y6990402D01*
X6095330Y6981434D01*
X6098939Y6972722D01*
X6103220Y6964320D01*
X6108147Y6956280D01*
X6113689Y6948651D01*
X6119813Y6941481D01*
X6126481Y6934813D01*
X6133651Y6928689D01*
X6141280Y6923146D01*
X6149320Y6918220D01*
X6157722Y6913938D01*
X6166434Y6910330D01*
X6175402Y6907416D01*
X6184571Y6905215D01*
X6193885Y6903740D01*
X6203285Y6903000D01*
X6212715D01*
X6222115Y6903740D01*
X6231429Y6905215D01*
X6240598Y6907416D01*
X6249566Y6910330D01*
X6258278Y6913938D01*
X6266680Y6918220D01*
X6274720Y6923146D01*
X6282349Y6928689D01*
X6289519Y6934813D01*
X6296187Y6941481D01*
X6302311Y6948651D01*
X6307854Y6956280D01*
X6312780Y6964320D01*
X6317062Y6972722D01*
X6320670Y6981434D01*
X6323584Y6990402D01*
X6325785Y6999571D01*
X6327260Y7008885D01*
X6328000Y7018285D01*
Y7027715D01*
X6327260Y7037115D01*
X6325785Y7046429D01*
X6323584Y7055598D01*
X6320670Y7064566D01*
X6317062Y7073278D01*
X6312780Y7081680D01*
X6307854Y7089720D01*
X6302311Y7097349D01*
X6296187Y7104519D01*
X6289519Y7111187D01*
X6282349Y7117311D01*
X6274720Y7122853D01*
X6266680Y7127780D01*
X6258278Y7132061D01*
X6249566Y7135670D01*
X6240598Y7138584D01*
X6231429Y7140785D01*
X6222115Y7142260D01*
X6221913Y7142276D01*
X6221913Y7152307D01*
X6222751Y7152373D01*
X6232483Y7153915D01*
X6242065Y7156215D01*
X6251437Y7159260D01*
X6260540Y7163031D01*
X6269320Y7167504D01*
X6277722Y7172653D01*
X6285694Y7178445D01*
X6293187Y7184845D01*
X6300155Y7191813D01*
X6306555Y7199306D01*
X6312347Y7207278D01*
X6317496Y7215679D01*
X6321969Y7224460D01*
X6325740Y7233563D01*
X6328785Y7242935D01*
X6331085Y7252517D01*
X6332627Y7262249D01*
X6332788Y7264300D01*
X6207999D01*
Y7277000D01*
X6195299D01*
Y7401788D01*
X6193249Y7401627D01*
X6183517Y7400085D01*
X6173935Y7397785D01*
X6164563Y7394740D01*
X6155460Y7390969D01*
X6146680Y7386496D01*
X6138278Y7381347D01*
X6130306Y7375555D01*
X6122813Y7369155D01*
X6115845Y7362187D01*
X6109445Y7354694D01*
X6103653Y7346722D01*
X6098504Y7338320D01*
X6094031Y7329540D01*
X6090260Y7320436D01*
X6087215Y7311065D01*
X6086142Y7306596D01*
X6075858D01*
X6074785Y7311065D01*
X6071740Y7320436D01*
X6067969Y7329540D01*
X6063496Y7338320D01*
X6058347Y7346722D01*
X6052555Y7354694D01*
X6046155Y7362187D01*
X6039187Y7369155D01*
X6031694Y7375555D01*
X6023722Y7381347D01*
X6015320Y7386496D01*
X6006540Y7390969D01*
X5997437Y7394740D01*
X5988065Y7397785D01*
X5978483Y7400085D01*
X5968751Y7401627D01*
X5966699Y7401788D01*
D02*
G37*
G36*
X2020308Y7255000D02*
X2014692D01*
X2009111Y7254371D01*
X2003636Y7253121D01*
X1998336Y7251266D01*
X1993276Y7248830D01*
X1988521Y7245842D01*
X1984130Y7242341D01*
X1980159Y7238370D01*
X1976658Y7233979D01*
X1973670Y7229224D01*
X1971233Y7224164D01*
X1969379Y7218863D01*
X1968129Y7213388D01*
X1967500Y7207808D01*
Y7202192D01*
X1968129Y7196611D01*
X1969379Y7191136D01*
X1971233Y7185836D01*
X1973670Y7180776D01*
X1976658Y7176021D01*
X1980159Y7171630D01*
X1984130Y7167659D01*
X1988521Y7164158D01*
X1993276Y7161170D01*
X1998336Y7158733D01*
X2003636Y7156878D01*
X2009111Y7155629D01*
X2014692Y7155000D01*
X2020308D01*
X2025889Y7155629D01*
X2031363Y7156878D01*
X2036664Y7158733D01*
X2041724Y7161170D01*
X2046479Y7164158D01*
X2050870Y7167659D01*
X2054841Y7171630D01*
X2058342Y7176021D01*
X2061330Y7180776D01*
X2063767Y7185836D01*
X2065621Y7191136D01*
X2066871Y7196611D01*
X2067500Y7202192D01*
Y7207808D01*
X2066871Y7213388D01*
X2065621Y7218863D01*
X2063767Y7224164D01*
X2061330Y7229224D01*
X2058342Y7233979D01*
X2054841Y7238370D01*
X2050870Y7242341D01*
X2046479Y7245842D01*
X2041724Y7248830D01*
X2036664Y7251266D01*
X2031363Y7253121D01*
X2025889Y7254371D01*
X2020308Y7255000D01*
D02*
G37*
G36*
X8045308Y7250000D02*
X8039692D01*
X8034111Y7249371D01*
X8028636Y7248121D01*
X8023336Y7246266D01*
X8018276Y7243830D01*
X8013521Y7240842D01*
X8009130Y7237341D01*
X8005159Y7233370D01*
X8001658Y7228979D01*
X7998670Y7224224D01*
X7996233Y7219164D01*
X7994379Y7213863D01*
X7993129Y7208388D01*
X7992500Y7202808D01*
Y7197192D01*
X7993129Y7191611D01*
X7994379Y7186136D01*
X7996233Y7180836D01*
X7998670Y7175776D01*
X8001658Y7171021D01*
X8005159Y7166630D01*
X8009130Y7162659D01*
X8013521Y7159158D01*
X8018276Y7156170D01*
X8023336Y7153733D01*
X8028636Y7151879D01*
X8034111Y7150629D01*
X8039692Y7150000D01*
X8045308D01*
X8050889Y7150629D01*
X8056364Y7151879D01*
X8061664Y7153733D01*
X8066724Y7156170D01*
X8071479Y7159158D01*
X8075870Y7162659D01*
X8079841Y7166630D01*
X8083342Y7171021D01*
X8086330Y7175776D01*
X8088767Y7180836D01*
X8090621Y7186136D01*
X8091871Y7191611D01*
X8092500Y7197192D01*
Y7202808D01*
X8091871Y7208388D01*
X8090621Y7213863D01*
X8088767Y7219164D01*
X8086330Y7224224D01*
X8083342Y7228979D01*
X8079841Y7233370D01*
X8075870Y7237341D01*
X8071479Y7240842D01*
X8066724Y7243830D01*
X8061664Y7246266D01*
X8056364Y7248121D01*
X8050889Y7249371D01*
X8045308Y7250000D01*
D02*
G37*
G36*
X7827808Y7169999D02*
X7822192D01*
X7816611Y7169370D01*
X7811137Y7168121D01*
X7805836Y7166266D01*
X7800776Y7163829D01*
X7796021Y7160842D01*
X7791630Y7157340D01*
X7787659Y7153369D01*
X7784158Y7148979D01*
X7781170Y7144223D01*
X7778733Y7139164D01*
X7776879Y7133863D01*
X7775629Y7128388D01*
X7775000Y7122807D01*
Y7117192D01*
X7775629Y7111611D01*
X7776879Y7106136D01*
X7778733Y7100835D01*
X7781170Y7095775D01*
X7784158Y7091020D01*
X7787659Y7086630D01*
X7791630Y7082659D01*
X7796021Y7079157D01*
X7800776Y7076169D01*
X7805836Y7073733D01*
X7811137Y7071878D01*
X7816611Y7070628D01*
X7822192Y7070000D01*
X7827808D01*
X7833389Y7070628D01*
X7838864Y7071878D01*
X7844164Y7073733D01*
X7849224Y7076169D01*
X7853979Y7079157D01*
X7858370Y7082659D01*
X7862341Y7086630D01*
X7865842Y7091020D01*
X7868830Y7095775D01*
X7871267Y7100835D01*
X7873121Y7106136D01*
X7874371Y7111611D01*
X7875000Y7117192D01*
Y7122807D01*
X7874371Y7128388D01*
X7873121Y7133863D01*
X7871267Y7139164D01*
X7868830Y7144223D01*
X7865842Y7148979D01*
X7862341Y7153369D01*
X7858370Y7157340D01*
X7853979Y7160842D01*
X7849224Y7163829D01*
X7844164Y7166266D01*
X7838864Y7168121D01*
X7833389Y7169370D01*
X7827808Y7169999D01*
D02*
G37*
G36*
X8327808Y6970000D02*
X8322192D01*
X8316611Y6969371D01*
X8311136Y6968121D01*
X8305836Y6966266D01*
X8300776Y6963830D01*
X8296021Y6960842D01*
X8291630Y6957340D01*
X8287659Y6953369D01*
X8284158Y6948979D01*
X8281170Y6944224D01*
X8280457Y6942744D01*
X8279796Y6942487D01*
X8270204D01*
X8269543Y6942744D01*
X8268830Y6944224D01*
X8265842Y6948979D01*
X8262341Y6953369D01*
X8258370Y6957340D01*
X8253979Y6960842D01*
X8249224Y6963830D01*
X8244164Y6966266D01*
X8238864Y6968121D01*
X8233389Y6969371D01*
X8227808Y6970000D01*
X8222192D01*
X8216611Y6969371D01*
X8211136Y6968121D01*
X8205836Y6966266D01*
X8200776Y6963830D01*
X8196021Y6960842D01*
X8191630Y6957340D01*
X8187659Y6953369D01*
X8184158Y6948979D01*
X8181170Y6944224D01*
X8178733Y6939164D01*
X8176879Y6933863D01*
X8175629Y6928388D01*
X8175000Y6922808D01*
Y6917192D01*
X8175629Y6911611D01*
X8176879Y6906136D01*
X8178733Y6900835D01*
X8181170Y6895776D01*
X8184158Y6891021D01*
X8187659Y6886630D01*
X8191630Y6882659D01*
X8196021Y6879157D01*
X8200776Y6876170D01*
X8205836Y6873733D01*
X8211136Y6871878D01*
X8216611Y6870629D01*
X8222192Y6870000D01*
X8227808D01*
X8233389Y6870629D01*
X8238864Y6871878D01*
X8244164Y6873733D01*
X8249224Y6876170D01*
X8253979Y6879157D01*
X8258370Y6882659D01*
X8262341Y6886630D01*
X8265842Y6891021D01*
X8268830Y6895776D01*
X8269543Y6897255D01*
X8270204Y6897512D01*
X8279796D01*
X8280457Y6897255D01*
X8281170Y6895776D01*
X8284158Y6891021D01*
X8287659Y6886630D01*
X8291630Y6882659D01*
X8296021Y6879157D01*
X8300776Y6876170D01*
X8305836Y6873733D01*
X8311136Y6871878D01*
X8316611Y6870629D01*
X8322192Y6870000D01*
X8327808D01*
X8333388Y6870629D01*
X8338863Y6871878D01*
X8344164Y6873733D01*
X8349224Y6876170D01*
X8353979Y6879157D01*
X8358370Y6882659D01*
X8362341Y6886630D01*
X8365842Y6891021D01*
X8368830Y6895776D01*
X8371266Y6900835D01*
X8373121Y6906136D01*
X8374371Y6911611D01*
X8375000Y6917192D01*
Y6922808D01*
X8374371Y6928388D01*
X8373121Y6933863D01*
X8371266Y6939164D01*
X8368830Y6944224D01*
X8365842Y6948979D01*
X8362341Y6953369D01*
X8358370Y6957340D01*
X8353979Y6960842D01*
X8349224Y6963830D01*
X8344164Y6966266D01*
X8338863Y6968121D01*
X8333388Y6969371D01*
X8327808Y6970000D01*
D02*
G37*
G36*
X3788808Y7106000D02*
X3783192D01*
X3777612Y7105371D01*
X3772137Y7104122D01*
X3766836Y7102267D01*
X3761776Y7099830D01*
X3757021Y7096843D01*
X3752631Y7093341D01*
X3748660Y7089370D01*
X3745158Y7084979D01*
X3742170Y7080224D01*
X3739734Y7075165D01*
X3737879Y7069864D01*
X3736629Y7064389D01*
X3736000Y7058808D01*
Y7053192D01*
X3736629Y7047612D01*
X3737879Y7042137D01*
X3739734Y7036836D01*
X3742170Y7031776D01*
X3745158Y7027021D01*
X3748660Y7022631D01*
X3752631Y7018660D01*
X3757021Y7015158D01*
X3761776Y7012170D01*
X3763256Y7011458D01*
X3763513Y7010797D01*
Y7001204D01*
X3763256Y7000543D01*
X3761776Y6999831D01*
X3757021Y6996843D01*
X3752631Y6993341D01*
X3748660Y6989370D01*
X3745158Y6984980D01*
X3742170Y6980225D01*
X3739734Y6975165D01*
X3737879Y6969864D01*
X3736629Y6964389D01*
X3736000Y6958809D01*
Y6953193D01*
X3736629Y6947612D01*
X3737879Y6942137D01*
X3739734Y6936836D01*
X3742170Y6931777D01*
X3745158Y6927021D01*
X3748660Y6922631D01*
X3752631Y6918660D01*
X3757021Y6915158D01*
X3761776Y6912171D01*
X3766836Y6909734D01*
X3772137Y6907879D01*
X3777612Y6906630D01*
X3783192Y6906001D01*
X3788808D01*
X3794389Y6906630D01*
X3799864Y6907879D01*
X3805165Y6909734D01*
X3810224Y6912171D01*
X3814979Y6915158D01*
X3819370Y6918660D01*
X3823341Y6922631D01*
X3826842Y6927021D01*
X3829830Y6931777D01*
X3832267Y6936836D01*
X3834122Y6942137D01*
X3835371Y6947612D01*
X3836000Y6953193D01*
Y6958809D01*
X3835371Y6964389D01*
X3834122Y6969864D01*
X3832267Y6975165D01*
X3829830Y6980225D01*
X3826842Y6984980D01*
X3823341Y6989370D01*
X3819370Y6993341D01*
X3814979Y6996843D01*
X3810224Y6999831D01*
X3808745Y7000543D01*
X3808487Y7001204D01*
Y7010797D01*
X3808745Y7011458D01*
X3810224Y7012170D01*
X3814979Y7015158D01*
X3819370Y7018660D01*
X3823341Y7022631D01*
X3826842Y7027021D01*
X3829830Y7031776D01*
X3832267Y7036836D01*
X3834122Y7042137D01*
X3835371Y7047612D01*
X3836000Y7053192D01*
Y7058808D01*
X3835371Y7064389D01*
X3834122Y7069864D01*
X3832267Y7075165D01*
X3829830Y7080224D01*
X3826842Y7084979D01*
X3823341Y7089370D01*
X3819370Y7093341D01*
X3814979Y7096843D01*
X3810224Y7099830D01*
X3805165Y7102267D01*
X3799864Y7104122D01*
X3794389Y7105371D01*
X3788808Y7106000D01*
D02*
G37*
G36*
X5179299Y7010300D02*
X5067212D01*
X5067373Y7008249D01*
X5068915Y6998517D01*
X5071215Y6988935D01*
X5074260Y6979563D01*
X5078031Y6970460D01*
X5082504Y6961679D01*
X5087653Y6953278D01*
X5093445Y6945306D01*
X5099845Y6937813D01*
X5106813Y6930845D01*
X5114306Y6924445D01*
X5122278Y6918653D01*
X5130680Y6913504D01*
X5139460Y6909031D01*
X5148563Y6905260D01*
X5157935Y6902215D01*
X5167517Y6899915D01*
X5177249Y6898373D01*
X5179299Y6898212D01*
Y7010300D01*
D02*
G37*
G36*
X8277808Y6870000D02*
X8272192D01*
X8266611Y6869371D01*
X8261136Y6868122D01*
X8255836Y6866267D01*
X8250776Y6863830D01*
X8246021Y6860843D01*
X8241630Y6857341D01*
X8237659Y6853370D01*
X8234158Y6848979D01*
X8231170Y6844224D01*
X8230457Y6842744D01*
X8229795Y6842486D01*
X8220206Y6842486D01*
X8219542Y6842745D01*
X8218830Y6844224D01*
X8215842Y6848979D01*
X8212340Y6853370D01*
X8208369Y6857341D01*
X8203979Y6860842D01*
X8199224Y6863830D01*
X8194164Y6866266D01*
X8188863Y6868121D01*
X8183388Y6869371D01*
X8177808Y6870000D01*
X8172192D01*
X8166611Y6869371D01*
X8161136Y6868121D01*
X8155835Y6866266D01*
X8150776Y6863830D01*
X8146021Y6860842D01*
X8141630Y6857341D01*
X8137659Y6853370D01*
X8134157Y6848979D01*
X8131170Y6844224D01*
X8128733Y6839164D01*
X8126878Y6833863D01*
X8125629Y6828388D01*
X8125000Y6822808D01*
Y6817192D01*
X8125629Y6811611D01*
X8126878Y6806136D01*
X8128733Y6800836D01*
X8131170Y6795776D01*
X8134157Y6791021D01*
X8137659Y6786630D01*
X8141630Y6782659D01*
X8146021Y6779158D01*
X8150776Y6776170D01*
X8155835Y6773733D01*
X8161136Y6771879D01*
X8166611Y6770629D01*
X8172192Y6770000D01*
X8177808D01*
X8183388Y6770629D01*
X8188863Y6771879D01*
X8194164Y6773733D01*
X8199224Y6776170D01*
X8203979Y6779158D01*
X8208369Y6782659D01*
X8212340Y6786630D01*
X8215842Y6791021D01*
X8218830Y6795776D01*
X8219542Y6797256D01*
X8220204Y6797514D01*
X8229794Y6797514D01*
X8230458Y6797256D01*
X8231170Y6795776D01*
X8234158Y6791021D01*
X8237659Y6786631D01*
X8241630Y6782660D01*
X8246021Y6779158D01*
X8250776Y6776170D01*
X8255836Y6773734D01*
X8261136Y6771879D01*
X8266611Y6770629D01*
X8272192Y6770000D01*
X8277808D01*
X8283389Y6770629D01*
X8288864Y6771879D01*
X8294164Y6773734D01*
X8299224Y6776170D01*
X8303979Y6779158D01*
X8308370Y6782660D01*
X8312341Y6786631D01*
X8315842Y6791021D01*
X8318830Y6795776D01*
X8321267Y6800836D01*
X8323121Y6806137D01*
X8324371Y6811612D01*
X8325000Y6817192D01*
Y6822808D01*
X8324371Y6828389D01*
X8323121Y6833864D01*
X8321267Y6839165D01*
X8318830Y6844224D01*
X8315842Y6848979D01*
X8312341Y6853370D01*
X8308370Y6857341D01*
X8303979Y6860843D01*
X8299224Y6863830D01*
X8294164Y6866267D01*
X8288864Y6868122D01*
X8283389Y6869371D01*
X8277808Y6870000D01*
D02*
G37*
G36*
X3788808Y6866000D02*
X3783192D01*
X3777612Y6865371D01*
X3772137Y6864121D01*
X3766836Y6862267D01*
X3761776Y6859830D01*
X3757021Y6856842D01*
X3752631Y6853341D01*
X3748660Y6849370D01*
X3745158Y6844979D01*
X3742170Y6840224D01*
X3739734Y6835164D01*
X3737879Y6829864D01*
X3736629Y6824389D01*
X3736000Y6818808D01*
Y6813192D01*
X3736629Y6807611D01*
X3737879Y6802137D01*
X3739734Y6796836D01*
X3742170Y6791776D01*
X3745158Y6787021D01*
X3748660Y6782630D01*
X3752631Y6778659D01*
X3757021Y6775158D01*
X3761776Y6772170D01*
X3763256Y6771458D01*
X3763513Y6770796D01*
Y6761204D01*
X3763256Y6760543D01*
X3761776Y6759830D01*
X3757021Y6756842D01*
X3752631Y6753341D01*
X3748660Y6749370D01*
X3745158Y6744979D01*
X3742170Y6740224D01*
X3739734Y6735165D01*
X3737879Y6729864D01*
X3736629Y6724389D01*
X3736000Y6718808D01*
Y6713192D01*
X3736629Y6707612D01*
X3737879Y6702137D01*
X3739734Y6696836D01*
X3742170Y6691776D01*
X3745158Y6687021D01*
X3748660Y6682631D01*
X3752631Y6678659D01*
X3757021Y6675158D01*
X3761776Y6672170D01*
X3766836Y6669734D01*
X3772137Y6667879D01*
X3777612Y6666629D01*
X3783192Y6666000D01*
X3788808D01*
X3794389Y6666629D01*
X3799864Y6667879D01*
X3805165Y6669734D01*
X3810224Y6672170D01*
X3814979Y6675158D01*
X3819370Y6678659D01*
X3823341Y6682631D01*
X3826842Y6687021D01*
X3829830Y6691776D01*
X3832267Y6696836D01*
X3834122Y6702137D01*
X3835371Y6707612D01*
X3836000Y6713192D01*
Y6718808D01*
X3835371Y6724389D01*
X3834122Y6729864D01*
X3832267Y6735165D01*
X3829830Y6740224D01*
X3826842Y6744979D01*
X3823341Y6749370D01*
X3819370Y6753341D01*
X3814979Y6756842D01*
X3810224Y6759830D01*
X3808745Y6760543D01*
X3808487Y6761204D01*
Y6770796D01*
X3808745Y6771458D01*
X3810224Y6772170D01*
X3814979Y6775158D01*
X3819370Y6778659D01*
X3823341Y6782630D01*
X3826842Y6787021D01*
X3829830Y6791776D01*
X3832267Y6796836D01*
X3834122Y6802137D01*
X3835371Y6807611D01*
X3836000Y6813192D01*
Y6818808D01*
X3835371Y6824389D01*
X3834122Y6829864D01*
X3832267Y6835164D01*
X3829830Y6840224D01*
X3826842Y6844979D01*
X3823341Y6849370D01*
X3819370Y6853341D01*
X3814979Y6856842D01*
X3810224Y6859830D01*
X3805165Y6862267D01*
X3799864Y6864121D01*
X3794389Y6865371D01*
X3788808Y6866000D01*
D02*
G37*
G36*
X8722808Y6775000D02*
X8717192D01*
X8711611Y6774371D01*
X8706136Y6773121D01*
X8700835Y6771267D01*
X8695776Y6768830D01*
X8691020Y6765842D01*
X8686630Y6762341D01*
X8682659Y6758370D01*
X8679157Y6753979D01*
X8676170Y6749224D01*
X8673733Y6744164D01*
X8671878Y6738864D01*
X8670629Y6733389D01*
X8670000Y6727808D01*
Y6722192D01*
X8670629Y6716611D01*
X8671878Y6711136D01*
X8673733Y6705836D01*
X8676170Y6700776D01*
X8679157Y6696021D01*
X8682659Y6691630D01*
X8686630Y6687659D01*
X8691020Y6684158D01*
X8695776Y6681170D01*
X8697255Y6680458D01*
X8697512Y6679797D01*
X8697513Y6670204D01*
X8697255Y6669542D01*
X8695776Y6668830D01*
X8691021Y6665842D01*
X8686630Y6662341D01*
X8682659Y6658370D01*
X8679158Y6653979D01*
X8676170Y6649224D01*
X8673733Y6644165D01*
X8671879Y6638864D01*
X8670629Y6633389D01*
X8670000Y6627808D01*
Y6622192D01*
X8670629Y6616612D01*
X8671879Y6611137D01*
X8673733Y6605836D01*
X8676170Y6600776D01*
X8679158Y6596021D01*
X8682659Y6591630D01*
X8686630Y6587659D01*
X8691021Y6584158D01*
X8695776Y6581170D01*
X8700836Y6578734D01*
X8706136Y6576879D01*
X8711611Y6575629D01*
X8717192Y6575000D01*
X8722808D01*
X8728388Y6575629D01*
X8733863Y6576879D01*
X8739164Y6578734D01*
X8744224Y6581170D01*
X8748979Y6584158D01*
X8753370Y6587659D01*
X8757341Y6591630D01*
X8760842Y6596021D01*
X8763830Y6600776D01*
X8766266Y6605836D01*
X8768121Y6611137D01*
X8769371Y6616612D01*
X8770000Y6622192D01*
Y6627808D01*
X8769371Y6633389D01*
X8768121Y6638864D01*
X8766266Y6644165D01*
X8763830Y6649224D01*
X8760842Y6653979D01*
X8757341Y6658370D01*
X8753370Y6662341D01*
X8748979Y6665842D01*
X8744224Y6668830D01*
X8742744Y6669543D01*
X8742487Y6670203D01*
X8742487Y6679796D01*
X8742745Y6680458D01*
X8744224Y6681170D01*
X8748979Y6684158D01*
X8753369Y6687659D01*
X8757340Y6691630D01*
X8760842Y6696021D01*
X8763830Y6700776D01*
X8766266Y6705836D01*
X8768121Y6711136D01*
X8769371Y6716611D01*
X8769999Y6722192D01*
Y6727808D01*
X8769371Y6733389D01*
X8768121Y6738864D01*
X8766266Y6744164D01*
X8763830Y6749224D01*
X8760842Y6753979D01*
X8757340Y6758370D01*
X8753369Y6762341D01*
X8748979Y6765842D01*
X8744224Y6768830D01*
X8739164Y6771267D01*
X8733863Y6773121D01*
X8728388Y6774371D01*
X8722808Y6775000D01*
D02*
G37*
G36*
X8622808Y6725000D02*
X8617192D01*
X8611611Y6724371D01*
X8606136Y6723121D01*
X8600835Y6721266D01*
X8595776Y6718830D01*
X8591021Y6715842D01*
X8586630Y6712341D01*
X8582659Y6708370D01*
X8579158Y6703979D01*
X8576170Y6699224D01*
X8573733Y6694164D01*
X8571878Y6688863D01*
X8570629Y6683388D01*
X8570000Y6677808D01*
Y6672192D01*
X8570629Y6666611D01*
X8571878Y6661136D01*
X8573733Y6655836D01*
X8576170Y6650776D01*
X8579158Y6646021D01*
X8582659Y6641630D01*
X8586630Y6637659D01*
X8591021Y6634158D01*
X8595776Y6631170D01*
X8597255Y6630457D01*
X8597513Y6629795D01*
Y6620204D01*
X8597255Y6619542D01*
X8595776Y6618830D01*
X8591021Y6615842D01*
X8586630Y6612341D01*
X8582659Y6608370D01*
X8579158Y6603979D01*
X8576170Y6599224D01*
X8573733Y6594164D01*
X8571878Y6588863D01*
X8570629Y6583388D01*
X8570000Y6577808D01*
Y6572192D01*
X8570629Y6566611D01*
X8571878Y6561136D01*
X8573733Y6555836D01*
X8576170Y6550776D01*
X8579158Y6546021D01*
X8582659Y6541630D01*
X8586630Y6537659D01*
X8591021Y6534158D01*
X8595776Y6531170D01*
X8600835Y6528733D01*
X8606136Y6526878D01*
X8611611Y6525629D01*
X8617192Y6525000D01*
X8622808D01*
X8628388Y6525629D01*
X8633863Y6526878D01*
X8639164Y6528733D01*
X8644224Y6531170D01*
X8648979Y6534158D01*
X8653370Y6537659D01*
X8657341Y6541630D01*
X8660842Y6546021D01*
X8663830Y6550776D01*
X8666266Y6555836D01*
X8668121Y6561136D01*
X8669371Y6566611D01*
X8670000Y6572192D01*
Y6577808D01*
X8669371Y6583388D01*
X8668121Y6588863D01*
X8666266Y6594164D01*
X8663830Y6599224D01*
X8660842Y6603979D01*
X8657341Y6608370D01*
X8653370Y6612341D01*
X8648979Y6615842D01*
X8644224Y6618830D01*
X8642744Y6619542D01*
X8642486Y6620204D01*
Y6629795D01*
X8642744Y6630457D01*
X8644224Y6631170D01*
X8648979Y6634158D01*
X8653370Y6637659D01*
X8657341Y6641630D01*
X8660842Y6646021D01*
X8663830Y6650776D01*
X8666266Y6655836D01*
X8668121Y6661136D01*
X8669371Y6666611D01*
X8670000Y6672192D01*
Y6677808D01*
X8669371Y6683388D01*
X8668121Y6688863D01*
X8666266Y6694164D01*
X8663830Y6699224D01*
X8660842Y6703979D01*
X8657341Y6708370D01*
X8653370Y6712341D01*
X8648979Y6715842D01*
X8644224Y6718830D01*
X8639164Y6721266D01*
X8633863Y6723121D01*
X8628388Y6724371D01*
X8622808Y6725000D01*
D02*
G37*
G36*
X3702808Y6540000D02*
X3697192D01*
X3691611Y6539371D01*
X3686136Y6538122D01*
X3680836Y6536267D01*
X3675776Y6533830D01*
X3671021Y6530842D01*
X3666630Y6527341D01*
X3662659Y6523370D01*
X3659158Y6518979D01*
X3656170Y6514224D01*
X3655458Y6512745D01*
X3654797Y6512488D01*
X3645203D01*
X3644543Y6512745D01*
X3643830Y6514224D01*
X3640843Y6518979D01*
X3637341Y6523370D01*
X3633370Y6527341D01*
X3628980Y6530842D01*
X3624224Y6533830D01*
X3619165Y6536267D01*
X3613864Y6538122D01*
X3608389Y6539371D01*
X3602808Y6540000D01*
X3597192D01*
X3591612Y6539371D01*
X3586137Y6538122D01*
X3580836Y6536267D01*
X3575776Y6533830D01*
X3571021Y6530842D01*
X3566631Y6527341D01*
X3562660Y6523370D01*
X3559158Y6518979D01*
X3556170Y6514224D01*
X3553734Y6509165D01*
X3551879Y6503864D01*
X3550629Y6498389D01*
X3550001Y6492808D01*
Y6487192D01*
X3550629Y6481612D01*
X3551879Y6476137D01*
X3553734Y6470836D01*
X3556170Y6465776D01*
X3559158Y6461021D01*
X3562660Y6456630D01*
X3566631Y6452659D01*
X3571021Y6449158D01*
X3575776Y6446170D01*
X3580836Y6443734D01*
X3586137Y6441879D01*
X3591612Y6440629D01*
X3597192Y6440000D01*
X3602808D01*
X3608389Y6440629D01*
X3613864Y6441879D01*
X3619165Y6443734D01*
X3624224Y6446170D01*
X3628980Y6449158D01*
X3633370Y6452659D01*
X3637341Y6456630D01*
X3640843Y6461021D01*
X3643830Y6465776D01*
X3644543Y6467255D01*
X3645203Y6467513D01*
X3654797D01*
X3655458Y6467255D01*
X3656170Y6465776D01*
X3659158Y6461021D01*
X3662659Y6456630D01*
X3666630Y6452659D01*
X3671021Y6449158D01*
X3675776Y6446170D01*
X3680836Y6443734D01*
X3686136Y6441879D01*
X3691611Y6440629D01*
X3697192Y6440000D01*
X3702808D01*
X3708389Y6440629D01*
X3713864Y6441879D01*
X3719164Y6443734D01*
X3724224Y6446170D01*
X3728979Y6449158D01*
X3733370Y6452659D01*
X3737341Y6456630D01*
X3740842Y6461021D01*
X3743830Y6465776D01*
X3746267Y6470836D01*
X3748121Y6476137D01*
X3749371Y6481612D01*
X3750000Y6487192D01*
Y6492808D01*
X3749371Y6498389D01*
X3748121Y6503864D01*
X3746267Y6509165D01*
X3743830Y6514224D01*
X3740842Y6518979D01*
X3737341Y6523370D01*
X3733370Y6527341D01*
X3728979Y6530842D01*
X3724224Y6533830D01*
X3719164Y6536267D01*
X3713864Y6538122D01*
X3708389Y6539371D01*
X3702808Y6540000D01*
D02*
G37*
G36*
X3302807D02*
X3297192D01*
X3291611Y6539371D01*
X3286136Y6538122D01*
X3280835Y6536267D01*
X3275776Y6533830D01*
X3271020Y6530842D01*
X3266630Y6527341D01*
X3262659Y6523370D01*
X3259157Y6518979D01*
X3256170Y6514224D01*
X3255457Y6512745D01*
X3254796Y6512487D01*
X3245203D01*
X3244542Y6512745D01*
X3243830Y6514224D01*
X3240842Y6518979D01*
X3237340Y6523370D01*
X3233369Y6527341D01*
X3228979Y6530842D01*
X3224224Y6533830D01*
X3219164Y6536267D01*
X3213863Y6538122D01*
X3208388Y6539371D01*
X3202808Y6540000D01*
X3197192D01*
X3191611Y6539371D01*
X3186136Y6538122D01*
X3180835Y6536267D01*
X3175776Y6533830D01*
X3171021Y6530842D01*
X3166630Y6527341D01*
X3162659Y6523370D01*
X3159158Y6518979D01*
X3156170Y6514224D01*
X3153733Y6509165D01*
X3151878Y6503864D01*
X3150629Y6498389D01*
X3150000Y6492808D01*
Y6487192D01*
X3150629Y6481612D01*
X3151878Y6476137D01*
X3153733Y6470836D01*
X3156170Y6465776D01*
X3159158Y6461021D01*
X3162659Y6456630D01*
X3166630Y6452659D01*
X3171021Y6449158D01*
X3175776Y6446170D01*
X3180835Y6443734D01*
X3186136Y6441879D01*
X3191611Y6440629D01*
X3197192Y6440000D01*
X3202808D01*
X3208388Y6440629D01*
X3213863Y6441879D01*
X3219164Y6443734D01*
X3224224Y6446170D01*
X3228979Y6449158D01*
X3233369Y6452659D01*
X3237340Y6456630D01*
X3240842Y6461021D01*
X3243830Y6465776D01*
X3244542Y6467256D01*
X3245203Y6467513D01*
X3254796D01*
X3255457Y6467256D01*
X3256170Y6465776D01*
X3259157Y6461021D01*
X3262659Y6456630D01*
X3266630Y6452659D01*
X3271020Y6449158D01*
X3275776Y6446170D01*
X3280835Y6443734D01*
X3286136Y6441879D01*
X3291611Y6440629D01*
X3297192Y6440000D01*
X3302807D01*
X3308388Y6440629D01*
X3313863Y6441879D01*
X3319164Y6443734D01*
X3324223Y6446170D01*
X3328979Y6449158D01*
X3333369Y6452659D01*
X3337340Y6456630D01*
X3340842Y6461021D01*
X3343829Y6465776D01*
X3346266Y6470836D01*
X3348121Y6476137D01*
X3349370Y6481612D01*
X3349999Y6487192D01*
Y6492808D01*
X3349370Y6498389D01*
X3348121Y6503864D01*
X3346266Y6509165D01*
X3343829Y6514224D01*
X3340842Y6518979D01*
X3337340Y6523370D01*
X3333369Y6527341D01*
X3328979Y6530842D01*
X3324223Y6533830D01*
X3319164Y6536267D01*
X3313863Y6538122D01*
X3308388Y6539371D01*
X3302807Y6540000D01*
D02*
G37*
G36*
X8422808Y6425000D02*
X8417192D01*
X8411612Y6424371D01*
X8406137Y6423121D01*
X8400836Y6421266D01*
X8395776Y6418830D01*
X8391021Y6415842D01*
X8386630Y6412340D01*
X8382659Y6408369D01*
X8379158Y6403979D01*
X8376170Y6399224D01*
X8373734Y6394164D01*
X8371879Y6388863D01*
X8370629Y6383388D01*
X8370000Y6377808D01*
Y6372192D01*
X8370629Y6366611D01*
X8371879Y6361136D01*
X8373734Y6355835D01*
X8376170Y6350776D01*
X8379158Y6346021D01*
X8382659Y6341630D01*
X8386630Y6337659D01*
X8391021Y6334158D01*
X8395776Y6331170D01*
X8400836Y6328733D01*
X8406137Y6326878D01*
X8411612Y6325629D01*
X8417192Y6325000D01*
X8422808D01*
X8428389Y6325629D01*
X8433864Y6326878D01*
X8439164Y6328733D01*
X8444224Y6331170D01*
X8448979Y6334158D01*
X8453370Y6337659D01*
X8457341Y6341630D01*
X8460842Y6346021D01*
X8463830Y6350776D01*
X8466267Y6355835D01*
X8468121Y6361136D01*
X8469371Y6366611D01*
X8470000Y6372192D01*
Y6377808D01*
X8469371Y6383388D01*
X8468121Y6388863D01*
X8466267Y6394164D01*
X8463830Y6399224D01*
X8460842Y6403979D01*
X8457341Y6408369D01*
X8453370Y6412340D01*
X8448979Y6415842D01*
X8444224Y6418830D01*
X8439164Y6421266D01*
X8433864Y6423121D01*
X8428389Y6424371D01*
X8422808Y6425000D01*
D02*
G37*
G36*
X8622807Y6475000D02*
X8617192D01*
X8611611Y6474371D01*
X8606136Y6473121D01*
X8600835Y6471267D01*
X8595776Y6468830D01*
X8591020Y6465842D01*
X8586630Y6462341D01*
X8582659Y6458370D01*
X8579157Y6453979D01*
X8576170Y6449224D01*
X8573733Y6444164D01*
X8571878Y6438864D01*
X8570629Y6433389D01*
X8570000Y6427808D01*
Y6422192D01*
X8570629Y6416612D01*
X8571878Y6411137D01*
X8573733Y6405836D01*
X8576170Y6400776D01*
X8579157Y6396021D01*
X8582659Y6391630D01*
X8586630Y6387659D01*
X8591020Y6384158D01*
X8595776Y6381170D01*
X8597255Y6380458D01*
X8597513Y6379795D01*
X8597513Y6370204D01*
X8597255Y6369543D01*
X8595775Y6368830D01*
X8591020Y6365842D01*
X8586630Y6362341D01*
X8582658Y6358370D01*
X8579157Y6353979D01*
X8576169Y6349224D01*
X8573733Y6344164D01*
X8571878Y6338864D01*
X8570628Y6333389D01*
X8569999Y6327808D01*
Y6322192D01*
X8570628Y6316611D01*
X8571878Y6311136D01*
X8573733Y6305836D01*
X8576169Y6300776D01*
X8579157Y6296021D01*
X8582658Y6291630D01*
X8586630Y6287659D01*
X8591020Y6284158D01*
X8595775Y6281170D01*
X8600835Y6278733D01*
X8606136Y6276879D01*
X8611611Y6275629D01*
X8617191Y6275000D01*
X8622807D01*
X8628388Y6275629D01*
X8633863Y6276879D01*
X8639164Y6278733D01*
X8644223Y6281170D01*
X8648978Y6284158D01*
X8653369Y6287659D01*
X8657340Y6291630D01*
X8660841Y6296021D01*
X8663829Y6300776D01*
X8666266Y6305836D01*
X8668121Y6311136D01*
X8669370Y6316611D01*
X8669999Y6322192D01*
Y6327808D01*
X8669370Y6333389D01*
X8668121Y6338864D01*
X8666266Y6344164D01*
X8663829Y6349224D01*
X8660841Y6353979D01*
X8657340Y6358370D01*
X8653369Y6362341D01*
X8648978Y6365842D01*
X8644223Y6368830D01*
X8642744Y6369543D01*
X8642486Y6370205D01*
X8642486Y6379796D01*
X8642744Y6380458D01*
X8644224Y6381170D01*
X8648979Y6384158D01*
X8653369Y6387659D01*
X8657340Y6391630D01*
X8660842Y6396021D01*
X8663830Y6400776D01*
X8666266Y6405836D01*
X8668121Y6411137D01*
X8669371Y6416612D01*
X8669999Y6422192D01*
Y6427808D01*
X8669371Y6433389D01*
X8668121Y6438864D01*
X8666266Y6444164D01*
X8663830Y6449224D01*
X8660842Y6453979D01*
X8657340Y6458370D01*
X8653369Y6462341D01*
X8648979Y6465842D01*
X8644224Y6468830D01*
X8639164Y6471267D01*
X8633863Y6473121D01*
X8628388Y6474371D01*
X8622807Y6475000D01*
D02*
G37*
G36*
X1502808Y6342499D02*
X1497192D01*
X1491611Y6341870D01*
X1486136Y6340621D01*
X1480836Y6338766D01*
X1475776Y6336329D01*
X1471021Y6333342D01*
X1466630Y6329840D01*
X1462659Y6325869D01*
X1459158Y6321479D01*
X1456170Y6316723D01*
X1453733Y6311664D01*
X1451879Y6306363D01*
X1450629Y6300888D01*
X1450000Y6295307D01*
Y6289692D01*
X1450629Y6284111D01*
X1451879Y6278636D01*
X1453733Y6273335D01*
X1456170Y6268275D01*
X1459158Y6263520D01*
X1462659Y6259130D01*
X1466630Y6255159D01*
X1471021Y6251657D01*
X1475776Y6248669D01*
X1480836Y6246233D01*
X1486136Y6244378D01*
X1491611Y6243128D01*
X1497192Y6242500D01*
X1502808D01*
X1508389Y6243128D01*
X1513864Y6244378D01*
X1519164Y6246233D01*
X1524224Y6248669D01*
X1528979Y6251657D01*
X1533370Y6255159D01*
X1537341Y6259130D01*
X1540842Y6263520D01*
X1543830Y6268275D01*
X1546267Y6273335D01*
X1548121Y6278636D01*
X1549371Y6284111D01*
X1550000Y6289692D01*
Y6295307D01*
X1549371Y6300888D01*
X1548121Y6306363D01*
X1546267Y6311664D01*
X1543830Y6316723D01*
X1540842Y6321479D01*
X1537341Y6325869D01*
X1533370Y6329840D01*
X1528979Y6333342D01*
X1524224Y6336329D01*
X1519164Y6338766D01*
X1513864Y6340621D01*
X1508389Y6341870D01*
X1502808Y6342499D01*
D02*
G37*
G36*
X2222808Y6340500D02*
X2217192D01*
X2211611Y6339871D01*
X2206136Y6338621D01*
X2200836Y6336767D01*
X2195776Y6334330D01*
X2191021Y6331342D01*
X2186630Y6327841D01*
X2182659Y6323870D01*
X2179158Y6319479D01*
X2176170Y6314724D01*
X2173733Y6309664D01*
X2171879Y6304364D01*
X2170629Y6298889D01*
X2170000Y6293308D01*
Y6287692D01*
X2170629Y6282111D01*
X2171879Y6276636D01*
X2173733Y6271336D01*
X2176170Y6266276D01*
X2179158Y6261521D01*
X2182659Y6257130D01*
X2186630Y6253159D01*
X2191021Y6249658D01*
X2195776Y6246670D01*
X2200836Y6244233D01*
X2206136Y6242379D01*
X2211611Y6241129D01*
X2217192Y6240500D01*
X2222808D01*
X2228388Y6241129D01*
X2233863Y6242379D01*
X2239164Y6244233D01*
X2244224Y6246670D01*
X2248979Y6249658D01*
X2253370Y6253159D01*
X2257341Y6257130D01*
X2260842Y6261521D01*
X2263830Y6266276D01*
X2266266Y6271336D01*
X2268121Y6276636D01*
X2269371Y6282111D01*
X2270000Y6287692D01*
Y6293308D01*
X2269371Y6298889D01*
X2268121Y6304364D01*
X2266266Y6309664D01*
X2263830Y6314724D01*
X2260842Y6319479D01*
X2257341Y6323870D01*
X2253370Y6327841D01*
X2248979Y6331342D01*
X2244224Y6334330D01*
X2239164Y6336767D01*
X2233863Y6338621D01*
X2228388Y6339871D01*
X2222808Y6340500D01*
D02*
G37*
G36*
Y6213500D02*
X2217192D01*
X2211611Y6212871D01*
X2206136Y6211622D01*
X2200836Y6209767D01*
X2195776Y6207330D01*
X2191021Y6204342D01*
X2186630Y6200841D01*
X2182659Y6196870D01*
X2179158Y6192479D01*
X2176170Y6187724D01*
X2173733Y6182665D01*
X2171879Y6177364D01*
X2170629Y6171889D01*
X2170000Y6166308D01*
Y6160692D01*
X2170629Y6155112D01*
X2171879Y6149637D01*
X2173733Y6144336D01*
X2176170Y6139276D01*
X2179158Y6134521D01*
X2182659Y6130130D01*
X2186630Y6126159D01*
X2191021Y6122658D01*
X2195776Y6119670D01*
X2200836Y6117234D01*
X2206136Y6115379D01*
X2211611Y6114129D01*
X2217192Y6113500D01*
X2222808D01*
X2228388Y6114129D01*
X2233863Y6115379D01*
X2239164Y6117234D01*
X2244224Y6119670D01*
X2248979Y6122658D01*
X2253370Y6126159D01*
X2257341Y6130130D01*
X2260842Y6134521D01*
X2263830Y6139276D01*
X2266266Y6144336D01*
X2268121Y6149637D01*
X2269371Y6155112D01*
X2270000Y6160692D01*
Y6166308D01*
X2269371Y6171889D01*
X2268121Y6177364D01*
X2266266Y6182665D01*
X2263830Y6187724D01*
X2260842Y6192479D01*
X2257341Y6196870D01*
X2253370Y6200841D01*
X2248979Y6204342D01*
X2244224Y6207330D01*
X2239164Y6209767D01*
X2233863Y6211622D01*
X2228388Y6212871D01*
X2222808Y6213500D01*
D02*
G37*
G36*
Y6086500D02*
X2217192D01*
X2211611Y6085871D01*
X2206136Y6084622D01*
X2200836Y6082767D01*
X2195776Y6080330D01*
X2191021Y6077342D01*
X2186630Y6073841D01*
X2182659Y6069870D01*
X2179158Y6065479D01*
X2176170Y6060724D01*
X2173733Y6055665D01*
X2171879Y6050364D01*
X2170629Y6044889D01*
X2170000Y6039308D01*
Y6033692D01*
X2170629Y6028112D01*
X2171879Y6022637D01*
X2173733Y6017336D01*
X2176170Y6012276D01*
X2179158Y6007521D01*
X2182659Y6003130D01*
X2186630Y5999159D01*
X2191021Y5995658D01*
X2195776Y5992670D01*
X2200836Y5990234D01*
X2206136Y5988379D01*
X2211611Y5987129D01*
X2217192Y5986500D01*
X2222808D01*
X2228388Y5987129D01*
X2233863Y5988379D01*
X2239164Y5990234D01*
X2244224Y5992670D01*
X2248979Y5995658D01*
X2253370Y5999159D01*
X2257341Y6003130D01*
X2260842Y6007521D01*
X2263830Y6012276D01*
X2266266Y6017336D01*
X2268121Y6022637D01*
X2269371Y6028112D01*
X2270000Y6033692D01*
Y6039308D01*
X2269371Y6044889D01*
X2268121Y6050364D01*
X2266266Y6055665D01*
X2263830Y6060724D01*
X2260842Y6065479D01*
X2257341Y6069870D01*
X2253370Y6073841D01*
X2248979Y6077342D01*
X2244224Y6080330D01*
X2239164Y6082767D01*
X2233863Y6084622D01*
X2228388Y6085871D01*
X2222808Y6086500D01*
D02*
G37*
G36*
X7877808Y6050000D02*
X7872192D01*
X7866611Y6049371D01*
X7861136Y6048121D01*
X7855836Y6046267D01*
X7850776Y6043830D01*
X7846021Y6040842D01*
X7841630Y6037341D01*
X7837659Y6033370D01*
X7834158Y6028979D01*
X7831170Y6024224D01*
X7828733Y6019164D01*
X7826879Y6013864D01*
X7825629Y6008389D01*
X7825000Y6002808D01*
Y5997192D01*
X7825629Y5991611D01*
X7826879Y5986136D01*
X7828733Y5980836D01*
X7831170Y5975776D01*
X7834158Y5971021D01*
X7837659Y5966630D01*
X7841630Y5962659D01*
X7846021Y5959158D01*
X7850776Y5956170D01*
X7855836Y5953733D01*
X7861136Y5951879D01*
X7866611Y5950629D01*
X7872192Y5950000D01*
X7877808D01*
X7883389Y5950629D01*
X7888864Y5951879D01*
X7894164Y5953733D01*
X7899224Y5956170D01*
X7903979Y5959158D01*
X7908370Y5962659D01*
X7912341Y5966630D01*
X7915842Y5971021D01*
X7918830Y5975776D01*
X7921267Y5980836D01*
X7923121Y5986136D01*
X7924371Y5991611D01*
X7925000Y5997192D01*
Y6002808D01*
X7924371Y6008389D01*
X7923121Y6013864D01*
X7921267Y6019164D01*
X7918830Y6024224D01*
X7915842Y6028979D01*
X7912341Y6033370D01*
X7908370Y6037341D01*
X7903979Y6040842D01*
X7899224Y6043830D01*
X7894164Y6046267D01*
X7888864Y6048121D01*
X7883389Y6049371D01*
X7877808Y6050000D01*
D02*
G37*
G36*
X8832808Y5972500D02*
X8827192D01*
X8821612Y5971871D01*
X8816137Y5970622D01*
X8810836Y5968767D01*
X8805776Y5966330D01*
X8801021Y5963342D01*
X8796630Y5959841D01*
X8792659Y5955870D01*
X8789158Y5951479D01*
X8786170Y5946724D01*
X8783734Y5941665D01*
X8781879Y5936364D01*
X8780629Y5930889D01*
X8780000Y5925308D01*
Y5919692D01*
X8780629Y5914112D01*
X8781879Y5908637D01*
X8783734Y5903336D01*
X8786170Y5898276D01*
X8789158Y5893521D01*
X8792659Y5889130D01*
X8796630Y5885159D01*
X8801021Y5881658D01*
X8805776Y5878670D01*
X8810836Y5876234D01*
X8816137Y5874379D01*
X8821612Y5873129D01*
X8827192Y5872500D01*
X8832808D01*
X8838389Y5873129D01*
X8843864Y5874379D01*
X8849164Y5876234D01*
X8854224Y5878670D01*
X8858979Y5881658D01*
X8863370Y5885159D01*
X8867341Y5889130D01*
X8870842Y5893521D01*
X8873830Y5898276D01*
X8876267Y5903336D01*
X8878121Y5908637D01*
X8879371Y5914112D01*
X8880000Y5919692D01*
Y5925308D01*
X8879371Y5930889D01*
X8878121Y5936364D01*
X8876267Y5941665D01*
X8873830Y5946724D01*
X8870842Y5951479D01*
X8867341Y5955870D01*
X8863370Y5959841D01*
X8858979Y5963342D01*
X8854224Y5966330D01*
X8849164Y5968767D01*
X8843864Y5970622D01*
X8838389Y5971871D01*
X8832808Y5972500D01*
D02*
G37*
G36*
X2222808Y5959500D02*
X2217192D01*
X2211611Y5958871D01*
X2206136Y5957622D01*
X2200836Y5955767D01*
X2195776Y5953330D01*
X2191021Y5950342D01*
X2186630Y5946841D01*
X2182659Y5942870D01*
X2179158Y5938479D01*
X2176170Y5933724D01*
X2173733Y5928665D01*
X2171879Y5923364D01*
X2170629Y5917889D01*
X2170000Y5912308D01*
Y5906692D01*
X2170629Y5901112D01*
X2171879Y5895637D01*
X2173733Y5890336D01*
X2176170Y5885276D01*
X2179158Y5880521D01*
X2182659Y5876130D01*
X2186630Y5872159D01*
X2191021Y5868658D01*
X2195776Y5865670D01*
X2200836Y5863234D01*
X2206136Y5861379D01*
X2211611Y5860129D01*
X2217192Y5859500D01*
X2222808D01*
X2228388Y5860129D01*
X2233863Y5861379D01*
X2239164Y5863234D01*
X2244224Y5865670D01*
X2248979Y5868658D01*
X2253370Y5872159D01*
X2257341Y5876130D01*
X2260842Y5880521D01*
X2263830Y5885276D01*
X2266266Y5890336D01*
X2268121Y5895637D01*
X2269371Y5901112D01*
X2270000Y5906692D01*
Y5912308D01*
X2269371Y5917889D01*
X2268121Y5923364D01*
X2266266Y5928665D01*
X2263830Y5933724D01*
X2260842Y5938479D01*
X2257341Y5942870D01*
X2253370Y5946841D01*
X2248979Y5950342D01*
X2244224Y5953330D01*
X2239164Y5955767D01*
X2233863Y5957622D01*
X2228388Y5958871D01*
X2222808Y5959500D01*
D02*
G37*
G36*
X8045308Y6050000D02*
X8039692D01*
X8034111Y6049371D01*
X8028636Y6048121D01*
X8023336Y6046266D01*
X8018276Y6043830D01*
X8013521Y6040842D01*
X8009130Y6037340D01*
X8005159Y6033369D01*
X8001658Y6028979D01*
X7998670Y6024224D01*
X7996233Y6019164D01*
X7994379Y6013863D01*
X7993129Y6008388D01*
X7992500Y6002808D01*
Y5997192D01*
X7993129Y5991611D01*
X7994379Y5986136D01*
X7996233Y5980835D01*
X7998670Y5975776D01*
X8001658Y5971021D01*
X8005159Y5966630D01*
X8009130Y5962659D01*
X8013521Y5959157D01*
X8018276Y5956170D01*
X8023335Y5953733D01*
X8024698Y5948202D01*
X8024196Y5942837D01*
X8021021Y5940842D01*
X8016630Y5937341D01*
X8012659Y5933370D01*
X8009158Y5928979D01*
X8006170Y5924224D01*
X8003733Y5919164D01*
X8001879Y5913863D01*
X8000629Y5908388D01*
X8000000Y5902808D01*
Y5897192D01*
X8000629Y5891611D01*
X8001879Y5886136D01*
X8003733Y5880836D01*
X8006170Y5875776D01*
X8009158Y5871021D01*
X8012659Y5866630D01*
X8016630Y5862659D01*
X8021021Y5859158D01*
X8025776Y5856170D01*
X8030836Y5853733D01*
X8036136Y5851879D01*
X8041611Y5850629D01*
X8047192Y5850000D01*
X8052808D01*
X8058389Y5850629D01*
X8063863Y5851879D01*
X8069164Y5853733D01*
X8074224Y5856170D01*
X8078979Y5859158D01*
X8083370Y5862659D01*
X8087341Y5866630D01*
X8090842Y5871021D01*
X8093830Y5875776D01*
X8096267Y5880836D01*
X8098121Y5886136D01*
X8099371Y5891611D01*
X8100000Y5897192D01*
Y5902808D01*
X8099371Y5908388D01*
X8098121Y5913863D01*
X8096267Y5919164D01*
X8093830Y5924224D01*
X8090842Y5928979D01*
X8087341Y5933370D01*
X8083370Y5937341D01*
X8078979Y5940842D01*
X8074224Y5943830D01*
X8069164Y5946266D01*
X8067801Y5951798D01*
X8068304Y5957162D01*
X8071479Y5959157D01*
X8075870Y5962659D01*
X8079841Y5966630D01*
X8083342Y5971021D01*
X8086330Y5975776D01*
X8088767Y5980835D01*
X8090621Y5986136D01*
X8091871Y5991611D01*
X8092500Y5997192D01*
Y6002808D01*
X8091871Y6008388D01*
X8090621Y6013863D01*
X8088767Y6019164D01*
X8086330Y6024224D01*
X8083342Y6028979D01*
X8079841Y6033369D01*
X8075870Y6037340D01*
X8071479Y6040842D01*
X8066724Y6043830D01*
X8061664Y6046266D01*
X8056364Y6048121D01*
X8050889Y6049371D01*
X8045308Y6050000D01*
D02*
G37*
G36*
X7259699Y5992041D02*
Y5779700D01*
X7472042D01*
X7471691Y5785952D01*
X7470274Y5798521D01*
X7468156Y5810990D01*
X7465341Y5823321D01*
X7461840Y5835475D01*
X7457662Y5847414D01*
X7452822Y5859099D01*
X7447334Y5870495D01*
X7441216Y5881565D01*
X7434487Y5892274D01*
X7427168Y5902590D01*
X7419282Y5912478D01*
X7410854Y5921910D01*
X7401910Y5930853D01*
X7392479Y5939281D01*
X7382590Y5947167D01*
X7372275Y5954486D01*
X7361565Y5961216D01*
X7350495Y5967334D01*
X7339099Y5972822D01*
X7327414Y5977662D01*
X7315476Y5981839D01*
X7303322Y5985341D01*
X7290990Y5988155D01*
X7278521Y5990274D01*
X7265952Y5991690D01*
X7259699Y5992041D01*
D02*
G37*
G36*
X7234299D02*
X7228048Y5991690D01*
X7215479Y5990274D01*
X7203009Y5988155D01*
X7190678Y5985341D01*
X7178524Y5981839D01*
X7166586Y5977662D01*
X7154901Y5972822D01*
X7143505Y5967334D01*
X7132435Y5961216D01*
X7121725Y5954486D01*
X7111410Y5947167D01*
X7101521Y5939281D01*
X7092090Y5930853D01*
X7083146Y5921910D01*
X7074718Y5912478D01*
X7066832Y5902590D01*
X7059513Y5892274D01*
X7052784Y5881565D01*
X7046666Y5870495D01*
X7041178Y5859099D01*
X7036338Y5847414D01*
X7032160Y5835475D01*
X7028659Y5823321D01*
X7025844Y5810990D01*
X7023726Y5798521D01*
X7022309Y5785952D01*
X7021958Y5779700D01*
X7234299D01*
Y5992041D01*
D02*
G37*
G36*
X2665700D02*
Y5779699D01*
X2878042D01*
X2877691Y5785952D01*
X2876274Y5798521D01*
X2874156Y5810990D01*
X2871341Y5823321D01*
X2867840Y5835475D01*
X2863662Y5847414D01*
X2858822Y5859099D01*
X2853334Y5870495D01*
X2847216Y5881565D01*
X2840487Y5892274D01*
X2833168Y5902590D01*
X2825282Y5912478D01*
X2816854Y5921910D01*
X2807910Y5930853D01*
X2798479Y5939281D01*
X2788590Y5947167D01*
X2778275Y5954486D01*
X2767565Y5961216D01*
X2756495Y5967334D01*
X2745099Y5972822D01*
X2733414Y5977662D01*
X2721476Y5981839D01*
X2709322Y5985341D01*
X2696991Y5988155D01*
X2684521Y5990274D01*
X2671952Y5991690D01*
X2665700Y5992041D01*
D02*
G37*
G36*
X2640300D02*
X2634048Y5991690D01*
X2621479Y5990274D01*
X2609010Y5988155D01*
X2596678Y5985341D01*
X2584524Y5981839D01*
X2572586Y5977662D01*
X2560901Y5972822D01*
X2549505Y5967334D01*
X2538435Y5961216D01*
X2527725Y5954486D01*
X2517410Y5947167D01*
X2507521Y5939281D01*
X2498090Y5930853D01*
X2489146Y5921910D01*
X2480718Y5912478D01*
X2472832Y5902590D01*
X2465513Y5892274D01*
X2458784Y5881565D01*
X2452666Y5870495D01*
X2447178Y5859099D01*
X2442338Y5847414D01*
X2438160Y5835475D01*
X2434659Y5823321D01*
X2431844Y5810990D01*
X2429726Y5798521D01*
X2428309Y5785952D01*
X2427958Y5779699D01*
X2640300D01*
Y5992041D01*
D02*
G37*
G36*
X1502808Y5742500D02*
X1497192D01*
X1491611Y5741871D01*
X1486136Y5740621D01*
X1480836Y5738767D01*
X1475776Y5736330D01*
X1471021Y5733342D01*
X1466630Y5729841D01*
X1462659Y5725870D01*
X1459158Y5721479D01*
X1456170Y5716724D01*
X1453733Y5711664D01*
X1451879Y5706363D01*
X1450629Y5700889D01*
X1450000Y5695308D01*
Y5689692D01*
X1450629Y5684111D01*
X1451879Y5678636D01*
X1453733Y5673336D01*
X1456170Y5668276D01*
X1459158Y5663521D01*
X1462659Y5659130D01*
X1466630Y5655159D01*
X1471021Y5651658D01*
X1475776Y5648670D01*
X1480836Y5646233D01*
X1486136Y5644379D01*
X1491611Y5643129D01*
X1497192Y5642500D01*
X1502808D01*
X1508389Y5643129D01*
X1513864Y5644379D01*
X1519164Y5646233D01*
X1524224Y5648670D01*
X1528979Y5651658D01*
X1533370Y5655159D01*
X1537341Y5659130D01*
X1540842Y5663521D01*
X1543830Y5668276D01*
X1546267Y5673336D01*
X1548121Y5678636D01*
X1549371Y5684111D01*
X1550000Y5689692D01*
Y5695308D01*
X1549371Y5700889D01*
X1548121Y5706363D01*
X1546267Y5711664D01*
X1543830Y5716724D01*
X1540842Y5721479D01*
X1537341Y5725870D01*
X1533370Y5729841D01*
X1528979Y5733342D01*
X1524224Y5736330D01*
X1519164Y5738767D01*
X1513864Y5740621D01*
X1508389Y5741871D01*
X1502808Y5742500D01*
D02*
G37*
G36*
X2222808Y5740500D02*
X2217192D01*
X2211611Y5739871D01*
X2206136Y5738621D01*
X2200836Y5736767D01*
X2195776Y5734330D01*
X2191021Y5731342D01*
X2186630Y5727841D01*
X2182659Y5723870D01*
X2179158Y5719479D01*
X2176170Y5714724D01*
X2173733Y5709664D01*
X2171879Y5704363D01*
X2170629Y5698889D01*
X2170000Y5693308D01*
Y5687692D01*
X2170629Y5682111D01*
X2171879Y5676636D01*
X2173733Y5671336D01*
X2176170Y5666276D01*
X2179158Y5661521D01*
X2182659Y5657130D01*
X2186630Y5653159D01*
X2191021Y5649658D01*
X2195776Y5646670D01*
X2200836Y5644233D01*
X2206136Y5642379D01*
X2211611Y5641129D01*
X2217192Y5640500D01*
X2222808D01*
X2228388Y5641129D01*
X2233863Y5642379D01*
X2239164Y5644233D01*
X2244224Y5646670D01*
X2248979Y5649658D01*
X2253370Y5653159D01*
X2257341Y5657130D01*
X2260842Y5661521D01*
X2263830Y5666276D01*
X2266266Y5671336D01*
X2268121Y5676636D01*
X2269371Y5682111D01*
X2270000Y5687692D01*
Y5693308D01*
X2269371Y5698889D01*
X2268121Y5704363D01*
X2266266Y5709664D01*
X2263830Y5714724D01*
X2260842Y5719479D01*
X2257341Y5723870D01*
X2253370Y5727841D01*
X2248979Y5731342D01*
X2244224Y5734330D01*
X2239164Y5736767D01*
X2233863Y5738621D01*
X2228388Y5739871D01*
X2222808Y5740500D01*
D02*
G37*
G36*
X7234299Y5754300D02*
X7021958D01*
X7022309Y5748047D01*
X7023726Y5735478D01*
X7025844Y5723009D01*
X7028659Y5710678D01*
X7032160Y5698524D01*
X7036338Y5686586D01*
X7041178Y5674900D01*
X7046666Y5663505D01*
X7052784Y5652434D01*
X7059513Y5641725D01*
X7066832Y5631410D01*
X7074718Y5621521D01*
X7083146Y5612090D01*
X7092090Y5603146D01*
X7101521Y5594718D01*
X7111410Y5586832D01*
X7121725Y5579513D01*
X7132435Y5572784D01*
X7143505Y5566665D01*
X7154901Y5561178D01*
X7166586Y5556337D01*
X7178524Y5552160D01*
X7190678Y5548658D01*
X7203009Y5545844D01*
X7215479Y5543725D01*
X7228048Y5542309D01*
X7234299Y5541958D01*
Y5754300D01*
D02*
G37*
G36*
X2878042Y5754299D02*
X2665700D01*
Y5541958D01*
X2671952Y5542309D01*
X2684521Y5543725D01*
X2696991Y5545844D01*
X2709322Y5548658D01*
X2721476Y5552160D01*
X2733414Y5556337D01*
X2745099Y5561178D01*
X2756495Y5566665D01*
X2767565Y5572784D01*
X2778275Y5579513D01*
X2788590Y5586832D01*
X2798479Y5594718D01*
X2807910Y5603146D01*
X2816854Y5612090D01*
X2825282Y5621521D01*
X2833168Y5631410D01*
X2840487Y5641725D01*
X2847216Y5652434D01*
X2853334Y5663505D01*
X2858822Y5674900D01*
X2863662Y5686586D01*
X2867840Y5698524D01*
X2871341Y5710678D01*
X2874156Y5723009D01*
X2876274Y5735478D01*
X2877691Y5748047D01*
X2878042Y5754299D01*
D02*
G37*
G36*
X2640300D02*
X2427958D01*
X2428309Y5748047D01*
X2429726Y5735478D01*
X2431844Y5723009D01*
X2434659Y5710678D01*
X2438160Y5698524D01*
X2442338Y5686586D01*
X2447178Y5674900D01*
X2452666Y5663505D01*
X2458784Y5652434D01*
X2465513Y5641725D01*
X2472832Y5631410D01*
X2480718Y5621521D01*
X2489146Y5612090D01*
X2498090Y5603146D01*
X2507521Y5594718D01*
X2517410Y5586832D01*
X2527725Y5579513D01*
X2538435Y5572784D01*
X2549505Y5566665D01*
X2560901Y5561178D01*
X2572586Y5556337D01*
X2584524Y5552160D01*
X2596678Y5548658D01*
X2609010Y5545844D01*
X2621479Y5543725D01*
X2634048Y5542309D01*
X2640300Y5541958D01*
Y5754299D01*
D02*
G37*
G36*
X7472042Y5754300D02*
X7259699D01*
Y5541958D01*
X7265952Y5542309D01*
X7278521Y5543725D01*
X7290990Y5545844D01*
X7303322Y5548658D01*
X7315476Y5552160D01*
X7327414Y5556337D01*
X7339099Y5561178D01*
X7350495Y5566665D01*
X7361565Y5572784D01*
X7372275Y5579513D01*
X7382590Y5586832D01*
X7392479Y5594718D01*
X7401910Y5603146D01*
X7410854Y5612090D01*
X7419282Y5621521D01*
X7427168Y5631410D01*
X7434487Y5641725D01*
X7441216Y5652434D01*
X7447334Y5663505D01*
X7452822Y5674900D01*
X7457662Y5686586D01*
X7461840Y5698524D01*
X7465341Y5710678D01*
X7468156Y5723009D01*
X7470274Y5735478D01*
X7471691Y5748047D01*
X7472042Y5754300D01*
D02*
G37*
G36*
X2222808Y5613500D02*
X2217192D01*
X2211611Y5612871D01*
X2206136Y5611621D01*
X2200836Y5609766D01*
X2195776Y5607330D01*
X2191021Y5604342D01*
X2186630Y5600840D01*
X2182659Y5596869D01*
X2179158Y5592479D01*
X2176170Y5587724D01*
X2173733Y5582664D01*
X2171879Y5577363D01*
X2170629Y5571888D01*
X2170000Y5566308D01*
Y5560692D01*
X2170629Y5555111D01*
X2171879Y5549636D01*
X2173733Y5544335D01*
X2176170Y5539276D01*
X2179158Y5534521D01*
X2182659Y5530130D01*
X2186630Y5526159D01*
X2191021Y5522657D01*
X2195776Y5519670D01*
X2200836Y5517233D01*
X2206136Y5515378D01*
X2211611Y5514129D01*
X2217192Y5513500D01*
X2222808D01*
X2228388Y5514129D01*
X2233863Y5515378D01*
X2239164Y5517233D01*
X2244224Y5519670D01*
X2248979Y5522657D01*
X2253370Y5526159D01*
X2257341Y5530130D01*
X2260842Y5534521D01*
X2263830Y5539276D01*
X2266266Y5544335D01*
X2268121Y5549636D01*
X2269371Y5555111D01*
X2270000Y5560692D01*
Y5566308D01*
X2269371Y5571888D01*
X2268121Y5577363D01*
X2266266Y5582664D01*
X2263830Y5587724D01*
X2260842Y5592479D01*
X2257341Y5596869D01*
X2253370Y5600840D01*
X2248979Y5604342D01*
X2244224Y5607330D01*
X2239164Y5609766D01*
X2233863Y5611621D01*
X2228388Y5612871D01*
X2222808Y5613500D01*
D02*
G37*
G36*
X7957808Y5499999D02*
X7952192D01*
X7946611Y5499370D01*
X7941136Y5498121D01*
X7935836Y5496266D01*
X7930776Y5493829D01*
X7926021Y5490841D01*
X7921630Y5487340D01*
X7917659Y5483369D01*
X7914158Y5478978D01*
X7911170Y5474223D01*
X7908733Y5469164D01*
X7906879Y5463863D01*
X7905629Y5458388D01*
X7905000Y5452807D01*
Y5447191D01*
X7905629Y5441611D01*
X7906879Y5436136D01*
X7908733Y5430835D01*
X7911170Y5425775D01*
X7914158Y5421020D01*
X7917659Y5416630D01*
X7921630Y5412658D01*
X7926021Y5409157D01*
X7930776Y5406169D01*
X7935836Y5403733D01*
X7941136Y5401878D01*
X7946611Y5400628D01*
X7952192Y5399999D01*
X7957808D01*
X7963388Y5400628D01*
X7968863Y5401878D01*
X7974164Y5403733D01*
X7979224Y5406169D01*
X7983979Y5409157D01*
X7988370Y5412658D01*
X7992341Y5416630D01*
X7995842Y5421020D01*
X7998830Y5425775D01*
X8001266Y5430835D01*
X8003121Y5436136D01*
X8004371Y5441611D01*
X8005000Y5447191D01*
Y5452807D01*
X8004371Y5458388D01*
X8003121Y5463863D01*
X8001266Y5469164D01*
X7998830Y5474223D01*
X7995842Y5478978D01*
X7992341Y5483369D01*
X7988370Y5487340D01*
X7983979Y5490841D01*
X7979224Y5493829D01*
X7974164Y5496266D01*
X7968863Y5498121D01*
X7963388Y5499370D01*
X7957808Y5499999D01*
D02*
G37*
G36*
X2222808Y5486500D02*
X2217192D01*
X2211612Y5485871D01*
X2206137Y5484621D01*
X2200836Y5482767D01*
X2195776Y5480330D01*
X2191021Y5477342D01*
X2186630Y5473841D01*
X2182659Y5469870D01*
X2179158Y5465479D01*
X2176170Y5460724D01*
X2173734Y5455664D01*
X2171879Y5450363D01*
X2170629Y5444889D01*
X2170000Y5439308D01*
Y5433692D01*
X2170629Y5428111D01*
X2171879Y5422636D01*
X2173734Y5417336D01*
X2176170Y5412276D01*
X2179158Y5407521D01*
X2182659Y5403130D01*
X2186630Y5399159D01*
X2191021Y5395658D01*
X2195776Y5392670D01*
X2200836Y5390233D01*
X2206137Y5388379D01*
X2211612Y5387129D01*
X2217192Y5386500D01*
X2222808D01*
X2228389Y5387129D01*
X2233864Y5388379D01*
X2239164Y5390233D01*
X2244224Y5392670D01*
X2248979Y5395658D01*
X2253370Y5399159D01*
X2257341Y5403130D01*
X2260842Y5407521D01*
X2263830Y5412276D01*
X2266267Y5417336D01*
X2268121Y5422636D01*
X2269371Y5428111D01*
X2270000Y5433692D01*
Y5439308D01*
X2269371Y5444889D01*
X2268121Y5450363D01*
X2266267Y5455664D01*
X2263830Y5460724D01*
X2260842Y5465479D01*
X2257341Y5469870D01*
X2253370Y5473841D01*
X2248979Y5477342D01*
X2244224Y5480330D01*
X2239164Y5482767D01*
X2233864Y5484621D01*
X2228389Y5485871D01*
X2222808Y5486500D01*
D02*
G37*
G36*
X2222808Y5359500D02*
X2217192D01*
X2211611Y5358871D01*
X2206136Y5357621D01*
X2200836Y5355767D01*
X2195776Y5353330D01*
X2191021Y5350342D01*
X2186630Y5346841D01*
X2182659Y5342870D01*
X2179158Y5338479D01*
X2176170Y5333724D01*
X2173733Y5328664D01*
X2171879Y5323363D01*
X2170629Y5317889D01*
X2170000Y5312308D01*
Y5306692D01*
X2170629Y5301111D01*
X2171879Y5295636D01*
X2173733Y5290336D01*
X2176170Y5285276D01*
X2179158Y5280521D01*
X2182659Y5276130D01*
X2186630Y5272159D01*
X2191021Y5268658D01*
X2195776Y5265670D01*
X2200836Y5263233D01*
X2206136Y5261379D01*
X2211611Y5260129D01*
X2217192Y5259500D01*
X2222808D01*
X2228388Y5260129D01*
X2233863Y5261379D01*
X2239164Y5263233D01*
X2244224Y5265670D01*
X2248979Y5268658D01*
X2253370Y5272159D01*
X2257341Y5276130D01*
X2260842Y5280521D01*
X2263830Y5285276D01*
X2266266Y5290336D01*
X2268121Y5295636D01*
X2269371Y5301111D01*
X2270000Y5306692D01*
Y5312308D01*
X2269371Y5317889D01*
X2268121Y5323363D01*
X2266266Y5328664D01*
X2263830Y5333724D01*
X2260842Y5338479D01*
X2257341Y5342870D01*
X2253370Y5346841D01*
X2248979Y5350342D01*
X2244224Y5353330D01*
X2239164Y5355767D01*
X2233863Y5357621D01*
X2228388Y5358871D01*
X2222808Y5359500D01*
D02*
G37*
G36*
X7572808Y5345000D02*
X7567192D01*
X7561611Y5344371D01*
X7556137Y5343121D01*
X7550836Y5341267D01*
X7545776Y5338830D01*
X7541021Y5335842D01*
X7536630Y5332341D01*
X7532659Y5328370D01*
X7529158Y5323979D01*
X7526170Y5319224D01*
X7523733Y5314164D01*
X7521879Y5308864D01*
X7520629Y5303389D01*
X7520000Y5297808D01*
Y5292192D01*
X7520629Y5286611D01*
X7521879Y5281137D01*
X7523733Y5275836D01*
X7526170Y5270776D01*
X7529158Y5266021D01*
X7532659Y5261630D01*
X7536630Y5257659D01*
X7541021Y5254158D01*
X7545776Y5251170D01*
X7550836Y5248733D01*
X7556137Y5246879D01*
X7561611Y5245629D01*
X7567192Y5245000D01*
X7572808D01*
X7578389Y5245629D01*
X7583864Y5246879D01*
X7589164Y5248733D01*
X7594224Y5251170D01*
X7598979Y5254158D01*
X7603370Y5257659D01*
X7607341Y5261630D01*
X7610842Y5266021D01*
X7613830Y5270776D01*
X7616267Y5275836D01*
X7618121Y5281137D01*
X7619371Y5286611D01*
X7620000Y5292192D01*
Y5297808D01*
X7619371Y5303389D01*
X7618121Y5308864D01*
X7616267Y5314164D01*
X7613830Y5319224D01*
X7610842Y5323979D01*
X7607341Y5328370D01*
X7603370Y5332341D01*
X7598979Y5335842D01*
X7594224Y5338830D01*
X7589164Y5341267D01*
X7583864Y5343121D01*
X7578389Y5344371D01*
X7572808Y5345000D01*
D02*
G37*
G36*
X8222808Y5305000D02*
X8217192D01*
X8211611Y5304371D01*
X8206136Y5303121D01*
X8200836Y5301267D01*
X8195776Y5298830D01*
X8191021Y5295842D01*
X8186630Y5292341D01*
X8182659Y5288370D01*
X8179158Y5283979D01*
X8176170Y5279224D01*
X8173733Y5274164D01*
X8171879Y5268863D01*
X8170629Y5263389D01*
X8170000Y5257808D01*
Y5252192D01*
X8170629Y5246611D01*
X8171879Y5241136D01*
X8173733Y5235836D01*
X8176170Y5230776D01*
X8179158Y5226021D01*
X8182659Y5221630D01*
X8186630Y5217659D01*
X8191021Y5214158D01*
X8195776Y5211170D01*
X8200836Y5208733D01*
X8206136Y5206879D01*
X8211611Y5205629D01*
X8217192Y5205000D01*
X8222808D01*
X8228389Y5205629D01*
X8233864Y5206879D01*
X8239164Y5208733D01*
X8244224Y5211170D01*
X8248979Y5214158D01*
X8253370Y5217659D01*
X8257341Y5221630D01*
X8260842Y5226021D01*
X8263830Y5230776D01*
X8266267Y5235836D01*
X8268121Y5241136D01*
X8269371Y5246611D01*
X8270000Y5252192D01*
Y5257808D01*
X8269371Y5263389D01*
X8268121Y5268863D01*
X8266267Y5274164D01*
X8263830Y5279224D01*
X8260842Y5283979D01*
X8257341Y5288370D01*
X8253370Y5292341D01*
X8248979Y5295842D01*
X8244224Y5298830D01*
X8239164Y5301267D01*
X8233864Y5303121D01*
X8228389Y5304371D01*
X8222808Y5305000D01*
D02*
G37*
G36*
X7702808Y5192499D02*
X7697192D01*
X7691611Y5191870D01*
X7686136Y5190621D01*
X7680836Y5188766D01*
X7675776Y5186329D01*
X7671021Y5183342D01*
X7666630Y5179840D01*
X7662659Y5175869D01*
X7659158Y5171479D01*
X7656170Y5166723D01*
X7653733Y5161664D01*
X7651879Y5156363D01*
X7650629Y5150888D01*
X7650000Y5145307D01*
Y5139692D01*
X7650629Y5134111D01*
X7651879Y5128636D01*
X7653733Y5123335D01*
X7656170Y5118276D01*
X7659158Y5113520D01*
X7662659Y5109130D01*
X7666630Y5105159D01*
X7671021Y5101657D01*
X7675776Y5098670D01*
X7680836Y5096233D01*
X7686136Y5094378D01*
X7691611Y5093128D01*
X7697192Y5092500D01*
X7702808D01*
X7708388Y5093128D01*
X7713863Y5094378D01*
X7719164Y5096233D01*
X7724224Y5098670D01*
X7728979Y5101657D01*
X7733370Y5105159D01*
X7737341Y5109130D01*
X7740842Y5113520D01*
X7743830Y5118276D01*
X7746266Y5123335D01*
X7748121Y5128636D01*
X7749371Y5134111D01*
X7750000Y5139692D01*
Y5145307D01*
X7749371Y5150888D01*
X7748121Y5156363D01*
X7746266Y5161664D01*
X7743830Y5166723D01*
X7740842Y5171479D01*
X7737341Y5175869D01*
X7733370Y5179840D01*
X7728979Y5183342D01*
X7724224Y5186329D01*
X7719164Y5188766D01*
X7713863Y5190621D01*
X7708388Y5191870D01*
X7702808Y5192499D01*
D02*
G37*
G36*
X1502808Y5142500D02*
X1497192D01*
X1491611Y5141871D01*
X1486136Y5140621D01*
X1480836Y5138767D01*
X1475776Y5136330D01*
X1471021Y5133342D01*
X1466630Y5129841D01*
X1462659Y5125870D01*
X1459158Y5121479D01*
X1456170Y5116724D01*
X1453733Y5111664D01*
X1451879Y5106364D01*
X1450629Y5100889D01*
X1450000Y5095308D01*
Y5089692D01*
X1450629Y5084111D01*
X1451879Y5078637D01*
X1453733Y5073336D01*
X1456170Y5068276D01*
X1459158Y5063521D01*
X1462659Y5059130D01*
X1466630Y5055159D01*
X1471021Y5051658D01*
X1475776Y5048670D01*
X1480836Y5046233D01*
X1486136Y5044379D01*
X1491611Y5043129D01*
X1497192Y5042500D01*
X1502808D01*
X1508389Y5043129D01*
X1513864Y5044379D01*
X1519164Y5046233D01*
X1524224Y5048670D01*
X1528979Y5051658D01*
X1533370Y5055159D01*
X1537341Y5059130D01*
X1540842Y5063521D01*
X1543830Y5068276D01*
X1546267Y5073336D01*
X1548121Y5078637D01*
X1549371Y5084111D01*
X1550000Y5089692D01*
Y5095308D01*
X1549371Y5100889D01*
X1548121Y5106364D01*
X1546267Y5111664D01*
X1543830Y5116724D01*
X1540842Y5121479D01*
X1537341Y5125870D01*
X1533370Y5129841D01*
X1528979Y5133342D01*
X1524224Y5136330D01*
X1519164Y5138767D01*
X1513864Y5140621D01*
X1508389Y5141871D01*
X1502808Y5142500D01*
D02*
G37*
G36*
X2222808Y5140500D02*
X2217192D01*
X2211611Y5139871D01*
X2206136Y5138621D01*
X2200836Y5136767D01*
X2195776Y5134330D01*
X2191021Y5131342D01*
X2186630Y5127841D01*
X2182659Y5123870D01*
X2179158Y5119479D01*
X2176170Y5114724D01*
X2173733Y5109664D01*
X2171879Y5104364D01*
X2170629Y5098889D01*
X2170000Y5093308D01*
Y5087692D01*
X2170629Y5082112D01*
X2171879Y5076637D01*
X2173733Y5071336D01*
X2176170Y5066276D01*
X2179158Y5061521D01*
X2182659Y5057130D01*
X2186630Y5053159D01*
X2191021Y5049658D01*
X2195776Y5046670D01*
X2200836Y5044233D01*
X2206136Y5042379D01*
X2211611Y5041129D01*
X2217192Y5040500D01*
X2222808D01*
X2228388Y5041129D01*
X2233863Y5042379D01*
X2239164Y5044233D01*
X2244224Y5046670D01*
X2248979Y5049658D01*
X2253370Y5053159D01*
X2257341Y5057130D01*
X2260842Y5061521D01*
X2263830Y5066276D01*
X2266266Y5071336D01*
X2268121Y5076637D01*
X2269371Y5082112D01*
X2270000Y5087692D01*
Y5093308D01*
X2269371Y5098889D01*
X2268121Y5104364D01*
X2266266Y5109664D01*
X2263830Y5114724D01*
X2260842Y5119479D01*
X2257341Y5123870D01*
X2253370Y5127841D01*
X2248979Y5131342D01*
X2244224Y5134330D01*
X2239164Y5136767D01*
X2233863Y5138621D01*
X2228388Y5139871D01*
X2222808Y5140500D01*
D02*
G37*
G36*
X6744000Y5395590D02*
X6733863Y5395228D01*
X6723779Y5394144D01*
X6713797Y5392343D01*
X6703969Y5389834D01*
X6694344Y5386631D01*
X6684973Y5382749D01*
X6675903Y5378209D01*
X6667180Y5373033D01*
X6658848Y5367249D01*
X6650951Y5360884D01*
X6643527Y5353973D01*
X6636615Y5346549D01*
X6630251Y5338651D01*
X6624466Y5330319D01*
X6619290Y5321596D01*
X6614750Y5312526D01*
X6610868Y5303155D01*
X6607665Y5293531D01*
X6605157Y5283703D01*
X6603356Y5273721D01*
X6602272Y5263636D01*
X6601910Y5253500D01*
Y5137500D01*
X6602272Y5127363D01*
X6603356Y5117278D01*
X6605157Y5107296D01*
X6607665Y5097468D01*
X6610868Y5087844D01*
X6614750Y5078473D01*
X6619290Y5069403D01*
X6624466Y5060680D01*
X6630251Y5052348D01*
X6636615Y5044450D01*
X6643527Y5037027D01*
X6650951Y5030115D01*
X6658848Y5023750D01*
X6667180Y5017966D01*
X6675903Y5012790D01*
X6684973Y5008250D01*
X6694344Y5004368D01*
X6703969Y5001165D01*
X6713797Y4998656D01*
X6723779Y4996856D01*
X6733863Y4995771D01*
X6744000Y4995409D01*
X6754137Y4995771D01*
X6764221Y4996856D01*
X6774203Y4998656D01*
X6784031Y5001165D01*
X6793655Y5004368D01*
X6803027Y5008250D01*
X6812097Y5012790D01*
X6820820Y5017966D01*
X6829152Y5023750D01*
X6837049Y5030115D01*
X6844473Y5037027D01*
X6851385Y5044450D01*
X6857749Y5052348D01*
X6863534Y5060680D01*
X6868710Y5069403D01*
X6873250Y5078473D01*
X6877132Y5087844D01*
X6880335Y5097468D01*
X6882843Y5107296D01*
X6884644Y5117278D01*
X6885728Y5127363D01*
X6886090Y5137500D01*
Y5253500D01*
X6885728Y5263636D01*
X6884644Y5273721D01*
X6882843Y5283703D01*
X6880335Y5293531D01*
X6877132Y5303155D01*
X6873250Y5312526D01*
X6868710Y5321596D01*
X6863534Y5330319D01*
X6857749Y5338651D01*
X6851385Y5346549D01*
X6844473Y5353973D01*
X6837049Y5360884D01*
X6829152Y5367249D01*
X6820820Y5373033D01*
X6812097Y5378209D01*
X6803027Y5382749D01*
X6793655Y5386631D01*
X6784031Y5389834D01*
X6774203Y5392343D01*
X6764221Y5394144D01*
X6754137Y5395228D01*
X6744000Y5395590D01*
D02*
G37*
G36*
X6200000D02*
X6189863Y5395228D01*
X6179779Y5394144D01*
X6169797Y5392343D01*
X6159969Y5389834D01*
X6150345Y5386631D01*
X6140973Y5382749D01*
X6131903Y5378209D01*
X6123180Y5373033D01*
X6114848Y5367249D01*
X6106951Y5360884D01*
X6099527Y5353973D01*
X6092615Y5346549D01*
X6086251Y5338651D01*
X6080466Y5330319D01*
X6075290Y5321596D01*
X6070750Y5312526D01*
X6066868Y5303155D01*
X6063665Y5293531D01*
X6061157Y5283703D01*
X6059356Y5273721D01*
X6058272Y5263636D01*
X6057910Y5253500D01*
Y5137500D01*
X6058272Y5127363D01*
X6059356Y5117278D01*
X6061157Y5107296D01*
X6063665Y5097468D01*
X6066868Y5087844D01*
X6070750Y5078473D01*
X6075290Y5069403D01*
X6080466Y5060680D01*
X6086251Y5052348D01*
X6092615Y5044450D01*
X6099527Y5037027D01*
X6106951Y5030115D01*
X6114848Y5023750D01*
X6123180Y5017966D01*
X6131903Y5012790D01*
X6140973Y5008250D01*
X6150345Y5004368D01*
X6159969Y5001165D01*
X6169797Y4998656D01*
X6179779Y4996856D01*
X6189863Y4995771D01*
X6200000Y4995409D01*
X6210137Y4995771D01*
X6220221Y4996856D01*
X6230203Y4998656D01*
X6240031Y5001165D01*
X6249656Y5004368D01*
X6259027Y5008250D01*
X6268097Y5012790D01*
X6276820Y5017966D01*
X6285152Y5023750D01*
X6293049Y5030115D01*
X6300473Y5037027D01*
X6307385Y5044450D01*
X6313749Y5052348D01*
X6319534Y5060680D01*
X6324710Y5069403D01*
X6329250Y5078473D01*
X6333132Y5087844D01*
X6336335Y5097468D01*
X6338843Y5107296D01*
X6340644Y5117278D01*
X6341728Y5127363D01*
X6342090Y5137500D01*
Y5253500D01*
X6341728Y5263636D01*
X6340644Y5273721D01*
X6338843Y5283703D01*
X6336335Y5293531D01*
X6333132Y5303155D01*
X6329250Y5312526D01*
X6324710Y5321596D01*
X6319534Y5330319D01*
X6313749Y5338651D01*
X6307385Y5346549D01*
X6300473Y5353973D01*
X6293049Y5360884D01*
X6285152Y5367249D01*
X6276820Y5373033D01*
X6268097Y5378209D01*
X6259027Y5382749D01*
X6249656Y5386631D01*
X6240031Y5389834D01*
X6230203Y5392343D01*
X6220221Y5394144D01*
X6210137Y5395228D01*
X6200000Y5395590D01*
D02*
G37*
G36*
X5656000D02*
X5645863Y5395228D01*
X5635779Y5394144D01*
X5625797Y5392343D01*
X5615969Y5389834D01*
X5606345Y5386631D01*
X5596974Y5382749D01*
X5587903Y5378209D01*
X5579180Y5373033D01*
X5570848Y5367249D01*
X5562951Y5360884D01*
X5555527Y5353973D01*
X5548615Y5346549D01*
X5542251Y5338651D01*
X5536466Y5330319D01*
X5531290Y5321596D01*
X5526750Y5312526D01*
X5522869Y5303155D01*
X5519665Y5293531D01*
X5517157Y5283703D01*
X5515356Y5273721D01*
X5514272Y5263636D01*
X5513910Y5253500D01*
Y5137500D01*
X5514272Y5127363D01*
X5515356Y5117278D01*
X5517157Y5107296D01*
X5519665Y5097468D01*
X5522869Y5087844D01*
X5526750Y5078473D01*
X5531290Y5069403D01*
X5536466Y5060680D01*
X5542251Y5052348D01*
X5548615Y5044450D01*
X5555527Y5037027D01*
X5562951Y5030115D01*
X5570848Y5023750D01*
X5579180Y5017966D01*
X5587903Y5012790D01*
X5596974Y5008250D01*
X5606345Y5004368D01*
X5615969Y5001165D01*
X5625797Y4998656D01*
X5635779Y4996856D01*
X5645863Y4995771D01*
X5656000Y4995409D01*
X5666137Y4995771D01*
X5676222Y4996856D01*
X5686204Y4998656D01*
X5696032Y5001165D01*
X5705656Y5004368D01*
X5715027Y5008250D01*
X5724097Y5012790D01*
X5732820Y5017966D01*
X5741152Y5023750D01*
X5749049Y5030115D01*
X5756473Y5037027D01*
X5763385Y5044450D01*
X5769749Y5052348D01*
X5775534Y5060680D01*
X5780710Y5069403D01*
X5785250Y5078473D01*
X5789132Y5087844D01*
X5792335Y5097468D01*
X5794843Y5107296D01*
X5796644Y5117278D01*
X5797729Y5127363D01*
X5798091Y5137500D01*
Y5253500D01*
X5797729Y5263636D01*
X5796644Y5273721D01*
X5794843Y5283703D01*
X5792335Y5293531D01*
X5789132Y5303155D01*
X5785250Y5312526D01*
X5780710Y5321596D01*
X5775534Y5330319D01*
X5769749Y5338651D01*
X5763385Y5346549D01*
X5756473Y5353973D01*
X5749049Y5360884D01*
X5741152Y5367249D01*
X5732820Y5373033D01*
X5724097Y5378209D01*
X5715027Y5382749D01*
X5705656Y5386631D01*
X5696032Y5389834D01*
X5686204Y5392343D01*
X5676222Y5394144D01*
X5666137Y5395228D01*
X5656000Y5395590D01*
D02*
G37*
G36*
X4244000D02*
X4233863Y5395228D01*
X4223778Y5394144D01*
X4213796Y5392343D01*
X4203968Y5389834D01*
X4194344Y5386631D01*
X4184973Y5382749D01*
X4175903Y5378209D01*
X4167180Y5373033D01*
X4158848Y5367249D01*
X4150951Y5360884D01*
X4143527Y5353973D01*
X4136615Y5346549D01*
X4130251Y5338651D01*
X4124466Y5330319D01*
X4119290Y5321596D01*
X4114750Y5312526D01*
X4110868Y5303155D01*
X4107665Y5293531D01*
X4105157Y5283703D01*
X4103356Y5273721D01*
X4102271Y5263636D01*
X4101910Y5253500D01*
Y5137500D01*
X4102271Y5127363D01*
X4103356Y5117278D01*
X4105157Y5107296D01*
X4107665Y5097468D01*
X4110868Y5087844D01*
X4114750Y5078473D01*
X4119290Y5069403D01*
X4124466Y5060680D01*
X4130251Y5052348D01*
X4136615Y5044450D01*
X4143527Y5037027D01*
X4150951Y5030115D01*
X4158848Y5023750D01*
X4167180Y5017966D01*
X4175903Y5012790D01*
X4184973Y5008250D01*
X4194344Y5004368D01*
X4203968Y5001165D01*
X4213796Y4998656D01*
X4223778Y4996856D01*
X4233863Y4995771D01*
X4244000Y4995409D01*
X4254137Y4995771D01*
X4264221Y4996856D01*
X4274203Y4998656D01*
X4284031Y5001165D01*
X4293655Y5004368D01*
X4303026Y5008250D01*
X4312097Y5012790D01*
X4320820Y5017966D01*
X4329152Y5023750D01*
X4337049Y5030115D01*
X4344473Y5037027D01*
X4351385Y5044450D01*
X4357749Y5052348D01*
X4363534Y5060680D01*
X4368710Y5069403D01*
X4373250Y5078473D01*
X4377131Y5087844D01*
X4380335Y5097468D01*
X4382843Y5107296D01*
X4384644Y5117278D01*
X4385728Y5127363D01*
X4386090Y5137500D01*
Y5253500D01*
X4385728Y5263636D01*
X4384644Y5273721D01*
X4382843Y5283703D01*
X4380335Y5293531D01*
X4377131Y5303155D01*
X4373250Y5312526D01*
X4368710Y5321596D01*
X4363534Y5330319D01*
X4357749Y5338651D01*
X4351385Y5346549D01*
X4344473Y5353973D01*
X4337049Y5360884D01*
X4329152Y5367249D01*
X4320820Y5373033D01*
X4312097Y5378209D01*
X4303026Y5382749D01*
X4293655Y5386631D01*
X4284031Y5389834D01*
X4274203Y5392343D01*
X4264221Y5394144D01*
X4254137Y5395228D01*
X4244000Y5395590D01*
D02*
G37*
G36*
X3700000D02*
X3689863Y5395228D01*
X3679779Y5394144D01*
X3669797Y5392343D01*
X3659969Y5389834D01*
X3650344Y5386631D01*
X3640973Y5382749D01*
X3631903Y5378209D01*
X3623180Y5373033D01*
X3614848Y5367249D01*
X3606951Y5360884D01*
X3599527Y5353973D01*
X3592615Y5346549D01*
X3586251Y5338651D01*
X3580466Y5330319D01*
X3575290Y5321596D01*
X3570750Y5312526D01*
X3566868Y5303155D01*
X3563665Y5293531D01*
X3561157Y5283703D01*
X3559356Y5273721D01*
X3558272Y5263636D01*
X3557910Y5253500D01*
Y5137500D01*
X3558272Y5127363D01*
X3559356Y5117278D01*
X3561157Y5107296D01*
X3563665Y5097468D01*
X3566868Y5087844D01*
X3570750Y5078473D01*
X3575290Y5069403D01*
X3580466Y5060680D01*
X3586251Y5052348D01*
X3592615Y5044450D01*
X3599527Y5037027D01*
X3606951Y5030115D01*
X3614848Y5023750D01*
X3623180Y5017966D01*
X3631903Y5012790D01*
X3640973Y5008250D01*
X3650344Y5004368D01*
X3659969Y5001165D01*
X3669797Y4998656D01*
X3679779Y4996856D01*
X3689863Y4995771D01*
X3700000Y4995409D01*
X3710137Y4995771D01*
X3720221Y4996856D01*
X3730203Y4998656D01*
X3740031Y5001165D01*
X3749655Y5004368D01*
X3759027Y5008250D01*
X3768097Y5012790D01*
X3776820Y5017966D01*
X3785152Y5023750D01*
X3793049Y5030115D01*
X3800473Y5037027D01*
X3807385Y5044450D01*
X3813749Y5052348D01*
X3819534Y5060680D01*
X3824710Y5069403D01*
X3829250Y5078473D01*
X3833132Y5087844D01*
X3836335Y5097468D01*
X3838843Y5107296D01*
X3840644Y5117278D01*
X3841728Y5127363D01*
X3842090Y5137500D01*
Y5253500D01*
X3841728Y5263636D01*
X3840644Y5273721D01*
X3838843Y5283703D01*
X3836335Y5293531D01*
X3833132Y5303155D01*
X3829250Y5312526D01*
X3824710Y5321596D01*
X3819534Y5330319D01*
X3813749Y5338651D01*
X3807385Y5346549D01*
X3800473Y5353973D01*
X3793049Y5360884D01*
X3785152Y5367249D01*
X3776820Y5373033D01*
X3768097Y5378209D01*
X3759027Y5382749D01*
X3749655Y5386631D01*
X3740031Y5389834D01*
X3730203Y5392343D01*
X3720221Y5394144D01*
X3710137Y5395228D01*
X3700000Y5395590D01*
D02*
G37*
G36*
X3156000D02*
X3145863Y5395228D01*
X3135779Y5394144D01*
X3125797Y5392343D01*
X3115969Y5389834D01*
X3106345Y5386631D01*
X3096973Y5382749D01*
X3087903Y5378209D01*
X3079180Y5373033D01*
X3070848Y5367249D01*
X3062951Y5360884D01*
X3055527Y5353973D01*
X3048615Y5346549D01*
X3042251Y5338651D01*
X3036466Y5330319D01*
X3031290Y5321596D01*
X3026750Y5312526D01*
X3022868Y5303155D01*
X3019665Y5293531D01*
X3017157Y5283703D01*
X3015356Y5273721D01*
X3014272Y5263636D01*
X3013910Y5253500D01*
Y5137500D01*
X3014272Y5127363D01*
X3015356Y5117278D01*
X3017157Y5107296D01*
X3019665Y5097468D01*
X3022868Y5087844D01*
X3026750Y5078473D01*
X3031290Y5069403D01*
X3036466Y5060680D01*
X3042251Y5052348D01*
X3048615Y5044450D01*
X3055527Y5037027D01*
X3062951Y5030115D01*
X3070848Y5023750D01*
X3079180Y5017966D01*
X3087903Y5012790D01*
X3096973Y5008250D01*
X3106345Y5004368D01*
X3115969Y5001165D01*
X3125797Y4998656D01*
X3135779Y4996856D01*
X3145863Y4995771D01*
X3156000Y4995409D01*
X3166137Y4995771D01*
X3176221Y4996856D01*
X3186203Y4998656D01*
X3196031Y5001165D01*
X3205656Y5004368D01*
X3215027Y5008250D01*
X3224097Y5012790D01*
X3232820Y5017966D01*
X3241152Y5023750D01*
X3249049Y5030115D01*
X3256473Y5037027D01*
X3263385Y5044450D01*
X3269749Y5052348D01*
X3275534Y5060680D01*
X3280710Y5069403D01*
X3285250Y5078473D01*
X3289132Y5087844D01*
X3292335Y5097468D01*
X3294843Y5107296D01*
X3296644Y5117278D01*
X3297728Y5127363D01*
X3298090Y5137500D01*
Y5253500D01*
X3297728Y5263636D01*
X3296644Y5273721D01*
X3294843Y5283703D01*
X3292335Y5293531D01*
X3289132Y5303155D01*
X3285250Y5312526D01*
X3280710Y5321596D01*
X3275534Y5330319D01*
X3269749Y5338651D01*
X3263385Y5346549D01*
X3256473Y5353973D01*
X3249049Y5360884D01*
X3241152Y5367249D01*
X3232820Y5373033D01*
X3224097Y5378209D01*
X3215027Y5382749D01*
X3205656Y5386631D01*
X3196031Y5389834D01*
X3186203Y5392343D01*
X3176221Y5394144D01*
X3166137Y5395228D01*
X3156000Y5395590D01*
D02*
G37*
G36*
X2222808Y5013500D02*
X2217192D01*
X2211611Y5012871D01*
X2206136Y5011621D01*
X2200836Y5009767D01*
X2195776Y5007330D01*
X2191021Y5004342D01*
X2186630Y5000841D01*
X2182659Y4996870D01*
X2179158Y4992479D01*
X2176170Y4987724D01*
X2173733Y4982664D01*
X2171879Y4977364D01*
X2170629Y4971889D01*
X2170000Y4966308D01*
Y4960692D01*
X2170629Y4955112D01*
X2171879Y4949637D01*
X2173733Y4944336D01*
X2176170Y4939276D01*
X2179158Y4934521D01*
X2182659Y4930130D01*
X2186630Y4926159D01*
X2191021Y4922658D01*
X2195776Y4919670D01*
X2200836Y4917233D01*
X2206136Y4915379D01*
X2211611Y4914129D01*
X2217192Y4913500D01*
X2222808D01*
X2228388Y4914129D01*
X2233863Y4915379D01*
X2239164Y4917233D01*
X2244224Y4919670D01*
X2248979Y4922658D01*
X2253370Y4926159D01*
X2257341Y4930130D01*
X2260842Y4934521D01*
X2263830Y4939276D01*
X2266266Y4944336D01*
X2268121Y4949637D01*
X2269371Y4955112D01*
X2270000Y4960692D01*
Y4966308D01*
X2269371Y4971889D01*
X2268121Y4977364D01*
X2266266Y4982664D01*
X2263830Y4987724D01*
X2260842Y4992479D01*
X2257341Y4996870D01*
X2253370Y5000841D01*
X2248979Y5004342D01*
X2244224Y5007330D01*
X2239164Y5009767D01*
X2233863Y5011621D01*
X2228388Y5012871D01*
X2222808Y5013500D01*
D02*
G37*
G36*
X7957808Y4899999D02*
X7952192D01*
X7946611Y4899370D01*
X7941136Y4898121D01*
X7935836Y4896266D01*
X7930776Y4893829D01*
X7926021Y4890842D01*
X7921630Y4887340D01*
X7917659Y4883369D01*
X7914158Y4878979D01*
X7911170Y4874223D01*
X7908733Y4869164D01*
X7906879Y4863863D01*
X7905629Y4858388D01*
X7905000Y4852807D01*
Y4847191D01*
X7905629Y4841611D01*
X7906879Y4836136D01*
X7908733Y4830835D01*
X7911170Y4825775D01*
X7914158Y4821020D01*
X7917659Y4816630D01*
X7921630Y4812659D01*
X7926021Y4809157D01*
X7930776Y4806169D01*
X7935836Y4803733D01*
X7941136Y4801878D01*
X7946611Y4800628D01*
X7952192Y4800000D01*
X7957808D01*
X7963388Y4800628D01*
X7968863Y4801878D01*
X7974164Y4803733D01*
X7979224Y4806169D01*
X7983979Y4809157D01*
X7988370Y4812659D01*
X7992341Y4816630D01*
X7995842Y4821020D01*
X7998830Y4825775D01*
X8001266Y4830835D01*
X8003121Y4836136D01*
X8004371Y4841611D01*
X8005000Y4847191D01*
Y4852807D01*
X8004371Y4858388D01*
X8003121Y4863863D01*
X8001266Y4869164D01*
X7998830Y4874223D01*
X7995842Y4878979D01*
X7992341Y4883369D01*
X7988370Y4887340D01*
X7983979Y4890842D01*
X7979224Y4893829D01*
X7974164Y4896266D01*
X7968863Y4898121D01*
X7963388Y4899370D01*
X7957808Y4899999D01*
D02*
G37*
G36*
X2222808Y4886500D02*
X2217192D01*
X2211612Y4885871D01*
X2206137Y4884621D01*
X2200836Y4882766D01*
X2195776Y4880330D01*
X2191021Y4877342D01*
X2186630Y4873841D01*
X2182659Y4869870D01*
X2179158Y4865479D01*
X2176170Y4860724D01*
X2173734Y4855664D01*
X2171879Y4850363D01*
X2170629Y4844888D01*
X2170000Y4839308D01*
Y4833692D01*
X2170629Y4828111D01*
X2171879Y4822636D01*
X2173734Y4817336D01*
X2176170Y4812276D01*
X2179158Y4807521D01*
X2182659Y4803130D01*
X2186630Y4799159D01*
X2191021Y4795658D01*
X2195776Y4792670D01*
X2200836Y4790233D01*
X2206137Y4788379D01*
X2211612Y4787129D01*
X2217192Y4786500D01*
X2222808D01*
X2228389Y4787129D01*
X2233864Y4788379D01*
X2239164Y4790233D01*
X2244224Y4792670D01*
X2248979Y4795658D01*
X2253370Y4799159D01*
X2257341Y4803130D01*
X2260842Y4807521D01*
X2263830Y4812276D01*
X2266267Y4817336D01*
X2268121Y4822636D01*
X2269371Y4828111D01*
X2270000Y4833692D01*
Y4839308D01*
X2269371Y4844888D01*
X2268121Y4850363D01*
X2266267Y4855664D01*
X2263830Y4860724D01*
X2260842Y4865479D01*
X2257341Y4869870D01*
X2253370Y4873841D01*
X2248979Y4877342D01*
X2244224Y4880330D01*
X2239164Y4882766D01*
X2233864Y4884621D01*
X2228389Y4885871D01*
X2222808Y4886500D01*
D02*
G37*
G36*
X2222808Y4759500D02*
X2217192D01*
X2211611Y4758871D01*
X2206136Y4757621D01*
X2200836Y4755767D01*
X2195776Y4753330D01*
X2191021Y4750342D01*
X2186630Y4746841D01*
X2182659Y4742870D01*
X2179158Y4738479D01*
X2176170Y4733724D01*
X2173733Y4728664D01*
X2171879Y4723364D01*
X2170629Y4717889D01*
X2170000Y4712308D01*
Y4706692D01*
X2170629Y4701112D01*
X2171879Y4695637D01*
X2173733Y4690336D01*
X2176170Y4685276D01*
X2179158Y4680521D01*
X2182659Y4676130D01*
X2186630Y4672159D01*
X2191021Y4668658D01*
X2195776Y4665670D01*
X2200836Y4663233D01*
X2206136Y4661379D01*
X2211611Y4660129D01*
X2217192Y4659500D01*
X2222808D01*
X2228388Y4660129D01*
X2233863Y4661379D01*
X2239164Y4663233D01*
X2244224Y4665670D01*
X2248979Y4668658D01*
X2253370Y4672159D01*
X2257341Y4676130D01*
X2260842Y4680521D01*
X2263830Y4685276D01*
X2266266Y4690336D01*
X2268121Y4695637D01*
X2269371Y4701112D01*
X2270000Y4706692D01*
Y4712308D01*
X2269371Y4717889D01*
X2268121Y4723364D01*
X2266266Y4728664D01*
X2263830Y4733724D01*
X2260842Y4738479D01*
X2257341Y4742870D01*
X2253370Y4746841D01*
X2248979Y4750342D01*
X2244224Y4753330D01*
X2239164Y4755767D01*
X2233863Y4757621D01*
X2228388Y4758871D01*
X2222808Y4759500D01*
D02*
G37*
G36*
X7702808Y4592500D02*
X7697192D01*
X7691611Y4591871D01*
X7686137Y4590621D01*
X7680836Y4588766D01*
X7675776Y4586330D01*
X7671021Y4583342D01*
X7666630Y4579840D01*
X7662659Y4575869D01*
X7659158Y4571479D01*
X7656170Y4566724D01*
X7653733Y4561664D01*
X7651879Y4556363D01*
X7650629Y4550888D01*
X7650000Y4545308D01*
Y4539692D01*
X7650629Y4534111D01*
X7651879Y4528636D01*
X7653733Y4523335D01*
X7656170Y4518276D01*
X7659158Y4513521D01*
X7662659Y4509130D01*
X7666630Y4505159D01*
X7671021Y4501657D01*
X7675776Y4498670D01*
X7680836Y4496233D01*
X7686137Y4494378D01*
X7691611Y4493129D01*
X7697192Y4492500D01*
X7702808D01*
X7708389Y4493129D01*
X7713864Y4494378D01*
X7719164Y4496233D01*
X7724224Y4498670D01*
X7728979Y4501657D01*
X7733370Y4505159D01*
X7737341Y4509130D01*
X7740842Y4513521D01*
X7743830Y4518276D01*
X7746267Y4523335D01*
X7748121Y4528636D01*
X7749371Y4534111D01*
X7750000Y4539692D01*
Y4545308D01*
X7749371Y4550888D01*
X7748121Y4556363D01*
X7746267Y4561664D01*
X7743830Y4566724D01*
X7740842Y4571479D01*
X7737341Y4575869D01*
X7733370Y4579840D01*
X7728979Y4583342D01*
X7724224Y4586330D01*
X7719164Y4588766D01*
X7713864Y4590621D01*
X7708389Y4591871D01*
X7702808Y4592500D01*
D02*
G37*
G36*
X7572808Y4555000D02*
X7567192D01*
X7561611Y4554371D01*
X7556136Y4553121D01*
X7550836Y4551266D01*
X7545776Y4548830D01*
X7541021Y4545842D01*
X7536630Y4542341D01*
X7532659Y4538370D01*
X7529158Y4533979D01*
X7526170Y4529224D01*
X7523733Y4524164D01*
X7521879Y4518863D01*
X7520629Y4513388D01*
X7520000Y4507808D01*
Y4502192D01*
X7520629Y4496611D01*
X7521879Y4491136D01*
X7523733Y4485836D01*
X7526170Y4480776D01*
X7529158Y4476021D01*
X7532659Y4471630D01*
X7536630Y4467659D01*
X7541021Y4464158D01*
X7545776Y4461170D01*
X7550836Y4458733D01*
X7556136Y4456879D01*
X7561611Y4455629D01*
X7567192Y4455000D01*
X7572808D01*
X7578388Y4455629D01*
X7583863Y4456879D01*
X7589164Y4458733D01*
X7594224Y4461170D01*
X7598979Y4464158D01*
X7603370Y4467659D01*
X7607341Y4471630D01*
X7610842Y4476021D01*
X7613830Y4480776D01*
X7616266Y4485836D01*
X7618121Y4491136D01*
X7619371Y4496611D01*
X7620000Y4502192D01*
Y4507808D01*
X7619371Y4513388D01*
X7618121Y4518863D01*
X7616266Y4524164D01*
X7613830Y4529224D01*
X7610842Y4533979D01*
X7607341Y4538370D01*
X7603370Y4542341D01*
X7598979Y4545842D01*
X7594224Y4548830D01*
X7589164Y4551266D01*
X7583863Y4553121D01*
X7578388Y4554371D01*
X7572808Y4555000D01*
D02*
G37*
G36*
X913689Y4409561D02*
X908073D01*
X902492Y4408933D01*
X897018Y4407683D01*
X891717Y4405828D01*
X886657Y4403391D01*
X881902Y4400404D01*
X877511Y4396902D01*
X873540Y4392931D01*
X870039Y4388541D01*
X867051Y4383785D01*
X864614Y4378726D01*
X862760Y4373425D01*
X861510Y4367950D01*
X860881Y4362369D01*
Y4356754D01*
X861510Y4351173D01*
X862760Y4345698D01*
X864614Y4340397D01*
X867051Y4335338D01*
X870039Y4330582D01*
X873540Y4326192D01*
X877511Y4322221D01*
X881902Y4318719D01*
X886657Y4315732D01*
X891717Y4313295D01*
X897018Y4311440D01*
X902492Y4310191D01*
X908073Y4309562D01*
X913689D01*
X919270Y4310191D01*
X924745Y4311440D01*
X930045Y4313295D01*
X935105Y4315732D01*
X939860Y4318719D01*
X944251Y4322221D01*
X948222Y4326192D01*
X951723Y4330582D01*
X954711Y4335338D01*
X957148Y4340397D01*
X959002Y4345698D01*
X960252Y4351173D01*
X960881Y4356754D01*
Y4362369D01*
X960252Y4367950D01*
X959002Y4373425D01*
X957148Y4378726D01*
X954711Y4383785D01*
X951723Y4388541D01*
X948222Y4392931D01*
X944251Y4396902D01*
X939860Y4400404D01*
X935105Y4403391D01*
X930045Y4405828D01*
X924745Y4407683D01*
X919270Y4408933D01*
X913689Y4409561D01*
D02*
G37*
G36*
X5374656Y4307574D02*
X5369040D01*
X5363460Y4306945D01*
X5357985Y4305695D01*
X5352684Y4303841D01*
X5347624Y4301404D01*
X5342869Y4298416D01*
X5338479Y4294915D01*
X5334507Y4290944D01*
X5331006Y4286553D01*
X5328018Y4281798D01*
X5325582Y4276738D01*
X5323727Y4271438D01*
X5322477Y4265963D01*
X5321848Y4260382D01*
Y4254766D01*
X5322477Y4249186D01*
X5323727Y4243711D01*
X5325582Y4238410D01*
X5328018Y4233350D01*
X5331006Y4228595D01*
X5334507Y4224204D01*
X5338479Y4220233D01*
X5342869Y4216732D01*
X5347624Y4213744D01*
X5352684Y4211308D01*
X5357985Y4209453D01*
X5363460Y4208203D01*
X5369040Y4207574D01*
X5374656D01*
X5380237Y4208203D01*
X5385712Y4209453D01*
X5391013Y4211308D01*
X5396072Y4213744D01*
X5400827Y4216732D01*
X5405218Y4220233D01*
X5409189Y4224204D01*
X5412690Y4228595D01*
X5415678Y4233350D01*
X5418115Y4238410D01*
X5419970Y4243711D01*
X5421219Y4249186D01*
X5421848Y4254766D01*
Y4260382D01*
X5421219Y4265963D01*
X5419970Y4271438D01*
X5418115Y4276738D01*
X5415678Y4281798D01*
X5412690Y4286553D01*
X5409189Y4290944D01*
X5405218Y4294915D01*
X5400827Y4298416D01*
X5396072Y4301404D01*
X5391013Y4303841D01*
X5385712Y4305695D01*
X5380237Y4306945D01*
X5374656Y4307574D01*
D02*
G37*
G36*
X7957808Y4299999D02*
X7952192D01*
X7946611Y4299370D01*
X7941136Y4298121D01*
X7935836Y4296266D01*
X7930776Y4293829D01*
X7926021Y4290842D01*
X7921630Y4287340D01*
X7917659Y4283369D01*
X7914158Y4278978D01*
X7911170Y4274223D01*
X7908733Y4269164D01*
X7906879Y4263863D01*
X7905629Y4258388D01*
X7905000Y4252807D01*
Y4247191D01*
X7905629Y4241611D01*
X7906879Y4236136D01*
X7908733Y4230835D01*
X7911170Y4225775D01*
X7914158Y4221020D01*
X7917659Y4216630D01*
X7921630Y4212659D01*
X7926021Y4209157D01*
X7930776Y4206169D01*
X7935836Y4203733D01*
X7941136Y4201878D01*
X7946611Y4200628D01*
X7952192Y4199999D01*
X7957808D01*
X7963388Y4200628D01*
X7968863Y4201878D01*
X7974164Y4203733D01*
X7979224Y4206169D01*
X7983979Y4209157D01*
X7988370Y4212659D01*
X7992341Y4216630D01*
X7995842Y4221020D01*
X7998830Y4225775D01*
X8001266Y4230835D01*
X8003121Y4236136D01*
X8004371Y4241611D01*
X8005000Y4247191D01*
Y4252807D01*
X8004371Y4258388D01*
X8003121Y4263863D01*
X8001266Y4269164D01*
X7998830Y4274223D01*
X7995842Y4278978D01*
X7992341Y4283369D01*
X7988370Y4287340D01*
X7983979Y4290842D01*
X7979224Y4293829D01*
X7974164Y4296266D01*
X7968863Y4298121D01*
X7963388Y4299370D01*
X7957808Y4299999D01*
D02*
G37*
G36*
X5268590Y4201508D02*
X5262974D01*
X5257394Y4200879D01*
X5251919Y4199629D01*
X5246618Y4197775D01*
X5241558Y4195338D01*
X5236803Y4192350D01*
X5232412Y4188849D01*
X5228441Y4184878D01*
X5224940Y4180487D01*
X5221952Y4175732D01*
X5219516Y4170672D01*
X5217661Y4165372D01*
X5216411Y4159897D01*
X5215782Y4154316D01*
Y4148700D01*
X5216411Y4143119D01*
X5217661Y4137645D01*
X5219516Y4132344D01*
X5221952Y4127284D01*
X5224940Y4122529D01*
X5228441Y4118138D01*
X5232412Y4114167D01*
X5236803Y4110666D01*
X5241558Y4107678D01*
X5246618Y4105241D01*
X5251919Y4103387D01*
X5257394Y4102137D01*
X5262974Y4101508D01*
X5268590D01*
X5274171Y4102137D01*
X5279646Y4103387D01*
X5284947Y4105241D01*
X5290006Y4107678D01*
X5294761Y4110666D01*
X5299152Y4114167D01*
X5303123Y4118138D01*
X5306624Y4122529D01*
X5309612Y4127284D01*
X5312049Y4132344D01*
X5313904Y4137645D01*
X5315153Y4143119D01*
X5315782Y4148700D01*
Y4154316D01*
X5315153Y4159897D01*
X5313904Y4165372D01*
X5312049Y4170672D01*
X5309612Y4175732D01*
X5306624Y4180487D01*
X5303123Y4184878D01*
X5299152Y4188849D01*
X5294761Y4192350D01*
X5290006Y4195338D01*
X5284947Y4197775D01*
X5279646Y4199629D01*
X5274171Y4200879D01*
X5268590Y4201508D01*
D02*
G37*
G36*
X7572808Y4145000D02*
X7567192D01*
X7561611Y4144371D01*
X7556137Y4143121D01*
X7550836Y4141267D01*
X7545776Y4138830D01*
X7541021Y4135842D01*
X7536630Y4132341D01*
X7532659Y4128370D01*
X7529158Y4123979D01*
X7526170Y4119224D01*
X7523733Y4114164D01*
X7521879Y4108864D01*
X7520629Y4103389D01*
X7520000Y4097808D01*
Y4092192D01*
X7520629Y4086611D01*
X7521879Y4081136D01*
X7523733Y4075836D01*
X7526170Y4070776D01*
X7529158Y4066021D01*
X7532659Y4061630D01*
X7536630Y4057659D01*
X7541021Y4054158D01*
X7545776Y4051170D01*
X7550836Y4048733D01*
X7556137Y4046879D01*
X7561611Y4045629D01*
X7567192Y4045000D01*
X7572808D01*
X7578389Y4045629D01*
X7583864Y4046879D01*
X7589164Y4048733D01*
X7594224Y4051170D01*
X7598979Y4054158D01*
X7603370Y4057659D01*
X7607341Y4061630D01*
X7610842Y4066021D01*
X7613830Y4070776D01*
X7616267Y4075836D01*
X7618121Y4081136D01*
X7619371Y4086611D01*
X7620000Y4092192D01*
Y4097808D01*
X7619371Y4103389D01*
X7618121Y4108864D01*
X7616267Y4114164D01*
X7613830Y4119224D01*
X7610842Y4123979D01*
X7607341Y4128370D01*
X7603370Y4132341D01*
X7598979Y4135842D01*
X7594224Y4138830D01*
X7589164Y4141267D01*
X7583864Y4143121D01*
X7578389Y4144371D01*
X7572808Y4145000D01*
D02*
G37*
G36*
X2002808Y4040000D02*
X1997192D01*
X1991611Y4039371D01*
X1986136Y4038121D01*
X1980836Y4036267D01*
X1975776Y4033830D01*
X1971021Y4030842D01*
X1966630Y4027341D01*
X1962659Y4023370D01*
X1959158Y4018979D01*
X1956170Y4014224D01*
X1955458Y4012744D01*
X1954796Y4012487D01*
X1945204D01*
X1944542Y4012744D01*
X1943830Y4014224D01*
X1940842Y4018979D01*
X1937341Y4023370D01*
X1933370Y4027341D01*
X1928979Y4030842D01*
X1924224Y4033830D01*
X1919164Y4036267D01*
X1913864Y4038121D01*
X1908389Y4039371D01*
X1902808Y4040000D01*
X1897192D01*
X1891611Y4039371D01*
X1886136Y4038121D01*
X1880836Y4036267D01*
X1875776Y4033830D01*
X1871021Y4030842D01*
X1866630Y4027341D01*
X1862659Y4023370D01*
X1859158Y4018979D01*
X1856170Y4014224D01*
X1853733Y4009164D01*
X1851879Y4003863D01*
X1850629Y3998388D01*
X1850000Y3992808D01*
Y3987192D01*
X1850629Y3981611D01*
X1851879Y3976136D01*
X1853733Y3970836D01*
X1856170Y3965776D01*
X1859158Y3961021D01*
X1862659Y3956630D01*
X1866630Y3952659D01*
X1871021Y3949158D01*
X1875776Y3946170D01*
X1880836Y3943733D01*
X1886136Y3941879D01*
X1891611Y3940629D01*
X1897192Y3940000D01*
X1902808D01*
X1908389Y3940629D01*
X1913864Y3941879D01*
X1919164Y3943733D01*
X1924224Y3946170D01*
X1928979Y3949158D01*
X1933370Y3952659D01*
X1937341Y3956630D01*
X1940842Y3961021D01*
X1943830Y3965776D01*
X1944542Y3967255D01*
X1945204Y3967513D01*
X1954796D01*
X1955458Y3967255D01*
X1956170Y3965776D01*
X1959158Y3961021D01*
X1962659Y3956630D01*
X1966630Y3952659D01*
X1971021Y3949158D01*
X1975776Y3946170D01*
X1977256Y3945457D01*
X1977513Y3944796D01*
Y3935204D01*
X1977256Y3934542D01*
X1975776Y3933830D01*
X1971021Y3930842D01*
X1966630Y3927341D01*
X1962659Y3923370D01*
X1959158Y3918979D01*
X1956170Y3914224D01*
X1953733Y3909164D01*
X1951879Y3903863D01*
X1950629Y3898388D01*
X1950000Y3892808D01*
Y3887192D01*
X1950629Y3881611D01*
X1951879Y3876136D01*
X1953733Y3870836D01*
X1956170Y3865776D01*
X1959158Y3861021D01*
X1962659Y3856630D01*
X1966630Y3852659D01*
X1971021Y3849158D01*
X1975776Y3846170D01*
X1980836Y3843733D01*
X1986136Y3841879D01*
X1991611Y3840629D01*
X1997192Y3840000D01*
X2002808D01*
X2008389Y3840629D01*
X2013864Y3841879D01*
X2019164Y3843733D01*
X2024224Y3846170D01*
X2028979Y3849158D01*
X2033370Y3852659D01*
X2037341Y3856630D01*
X2040842Y3861021D01*
X2043830Y3865776D01*
X2046267Y3870836D01*
X2048121Y3876136D01*
X2049371Y3881611D01*
X2050000Y3887192D01*
Y3892808D01*
X2049371Y3898388D01*
X2048121Y3903863D01*
X2046267Y3909164D01*
X2043830Y3914224D01*
X2040842Y3918979D01*
X2037341Y3923370D01*
X2033370Y3927341D01*
X2028979Y3930842D01*
X2024224Y3933830D01*
X2022744Y3934542D01*
X2022487Y3935204D01*
Y3944796D01*
X2022744Y3945457D01*
X2024224Y3946170D01*
X2028979Y3949158D01*
X2033370Y3952659D01*
X2037341Y3956630D01*
X2040842Y3961021D01*
X2043830Y3965776D01*
X2046267Y3970836D01*
X2048121Y3976136D01*
X2049371Y3981611D01*
X2050000Y3987192D01*
Y3992808D01*
X2049371Y3998388D01*
X2048121Y4003863D01*
X2046267Y4009164D01*
X2043830Y4014224D01*
X2040842Y4018979D01*
X2037341Y4023370D01*
X2033370Y4027341D01*
X2028979Y4030842D01*
X2024224Y4033830D01*
X2019164Y4036267D01*
X2013864Y4038121D01*
X2008389Y4039371D01*
X2002808Y4040000D01*
D02*
G37*
G36*
X7702808Y3992500D02*
X7697192D01*
X7691611Y3991871D01*
X7686137Y3990621D01*
X7680836Y3988766D01*
X7675776Y3986330D01*
X7671021Y3983342D01*
X7666630Y3979841D01*
X7662659Y3975870D01*
X7659158Y3971479D01*
X7656170Y3966724D01*
X7653733Y3961664D01*
X7651879Y3956363D01*
X7650629Y3950888D01*
X7650000Y3945308D01*
Y3939692D01*
X7650629Y3934111D01*
X7651879Y3928636D01*
X7653733Y3923336D01*
X7656170Y3918276D01*
X7659158Y3913521D01*
X7662659Y3909130D01*
X7666630Y3905159D01*
X7671021Y3901658D01*
X7675776Y3898670D01*
X7680836Y3896233D01*
X7686137Y3894379D01*
X7691611Y3893129D01*
X7697192Y3892500D01*
X7702808D01*
X7708389Y3893129D01*
X7713864Y3894379D01*
X7719164Y3896233D01*
X7724224Y3898670D01*
X7728979Y3901658D01*
X7733370Y3905159D01*
X7737341Y3909130D01*
X7740842Y3913521D01*
X7743830Y3918276D01*
X7746267Y3923336D01*
X7748121Y3928636D01*
X7749371Y3934111D01*
X7750000Y3939692D01*
Y3945308D01*
X7749371Y3950888D01*
X7748121Y3956363D01*
X7746267Y3961664D01*
X7743830Y3966724D01*
X7740842Y3971479D01*
X7737341Y3975870D01*
X7733370Y3979841D01*
X7728979Y3983342D01*
X7724224Y3986330D01*
X7719164Y3988766D01*
X7713864Y3990621D01*
X7708389Y3991871D01*
X7702808Y3992500D01*
D02*
G37*
G36*
X2152808Y3915000D02*
X2147192D01*
X2141611Y3914371D01*
X2136136Y3913122D01*
X2130836Y3911267D01*
X2125776Y3908830D01*
X2121021Y3905843D01*
X2116630Y3902341D01*
X2112659Y3898370D01*
X2109158Y3893980D01*
X2106170Y3889224D01*
X2103733Y3884165D01*
X2101879Y3878864D01*
X2100629Y3873389D01*
X2100000Y3867808D01*
Y3862192D01*
X2100629Y3856612D01*
X2101879Y3851137D01*
X2103733Y3845836D01*
X2106170Y3840776D01*
X2109158Y3836021D01*
X2112659Y3831631D01*
X2116630Y3827660D01*
X2121021Y3824158D01*
X2125776Y3821170D01*
X2130836Y3818734D01*
X2136136Y3816879D01*
X2141611Y3815629D01*
X2147192Y3815000D01*
X2152808D01*
X2158389Y3815629D01*
X2163864Y3816879D01*
X2169164Y3818734D01*
X2174224Y3821170D01*
X2178979Y3824158D01*
X2183370Y3827660D01*
X2187341Y3831631D01*
X2190842Y3836021D01*
X2193830Y3840776D01*
X2196267Y3845836D01*
X2198121Y3851137D01*
X2199371Y3856612D01*
X2200000Y3862192D01*
Y3867808D01*
X2199371Y3873389D01*
X2198121Y3878864D01*
X2196267Y3884165D01*
X2193830Y3889224D01*
X2190842Y3893980D01*
X2187341Y3898370D01*
X2183370Y3902341D01*
X2178979Y3905843D01*
X2174224Y3908830D01*
X2169164Y3911267D01*
X2163864Y3913122D01*
X2158389Y3914371D01*
X2152808Y3915000D01*
D02*
G37*
G36*
X5574308Y3802500D02*
X5568692D01*
X5563112Y3801871D01*
X5557637Y3800621D01*
X5552336Y3798766D01*
X5547276Y3796330D01*
X5542521Y3793342D01*
X5538130Y3789841D01*
X5534159Y3785869D01*
X5530658Y3781479D01*
X5527670Y3776724D01*
X5525234Y3771664D01*
X5523379Y3766363D01*
X5522129Y3760888D01*
X5521500Y3755308D01*
Y3749692D01*
X5522129Y3744111D01*
X5523379Y3738636D01*
X5525234Y3733335D01*
X5527670Y3728276D01*
X5530658Y3723521D01*
X5534159Y3719130D01*
X5538130Y3715159D01*
X5542521Y3711658D01*
X5547276Y3708670D01*
X5552336Y3706233D01*
X5557637Y3704378D01*
X5563112Y3703129D01*
X5568692Y3702500D01*
X5574308D01*
X5579889Y3703129D01*
X5585364Y3704378D01*
X5590664Y3706233D01*
X5595724Y3708670D01*
X5600479Y3711658D01*
X5604870Y3715159D01*
X5608841Y3719130D01*
X5612342Y3723521D01*
X5615330Y3728276D01*
X5617767Y3733335D01*
X5619621Y3738636D01*
X5620871Y3744111D01*
X5621500Y3749692D01*
Y3755308D01*
X5620871Y3760888D01*
X5619621Y3766363D01*
X5617767Y3771664D01*
X5615330Y3776724D01*
X5612342Y3781479D01*
X5608841Y3785869D01*
X5604870Y3789841D01*
X5600479Y3793342D01*
X5595724Y3796330D01*
X5590664Y3798766D01*
X5585364Y3800621D01*
X5579889Y3801871D01*
X5574308Y3802500D01*
D02*
G37*
G36*
X5419308D02*
X5413692D01*
X5408112Y3801871D01*
X5402637Y3800621D01*
X5397336Y3798766D01*
X5392276Y3796330D01*
X5387521Y3793342D01*
X5383130Y3789841D01*
X5379159Y3785869D01*
X5375658Y3781479D01*
X5372670Y3776724D01*
X5370234Y3771664D01*
X5368379Y3766363D01*
X5367129Y3760888D01*
X5366500Y3755308D01*
Y3749692D01*
X5367129Y3744111D01*
X5368379Y3738636D01*
X5370234Y3733335D01*
X5372670Y3728276D01*
X5375658Y3723521D01*
X5379159Y3719130D01*
X5383130Y3715159D01*
X5387521Y3711658D01*
X5392276Y3708670D01*
X5397336Y3706233D01*
X5402637Y3704378D01*
X5408112Y3703129D01*
X5413692Y3702500D01*
X5419308D01*
X5424889Y3703129D01*
X5430364Y3704378D01*
X5435665Y3706233D01*
X5440724Y3708670D01*
X5445479Y3711658D01*
X5449870Y3715159D01*
X5453841Y3719130D01*
X5457342Y3723521D01*
X5460330Y3728276D01*
X5462767Y3733335D01*
X5464622Y3738636D01*
X5465871Y3744111D01*
X5466500Y3749692D01*
Y3755308D01*
X5465871Y3760888D01*
X5464622Y3766363D01*
X5462767Y3771664D01*
X5460330Y3776724D01*
X5457342Y3781479D01*
X5453841Y3785869D01*
X5449870Y3789841D01*
X5445479Y3793342D01*
X5440724Y3796330D01*
X5435665Y3798766D01*
X5430364Y3800621D01*
X5424889Y3801871D01*
X5419308Y3802500D01*
D02*
G37*
G36*
X906189Y3729562D02*
X900573D01*
X894992Y3728933D01*
X889517Y3727683D01*
X884217Y3725828D01*
X879157Y3723392D01*
X874402Y3720404D01*
X870011Y3716903D01*
X866040Y3712932D01*
X862539Y3708541D01*
X859551Y3703786D01*
X857114Y3698726D01*
X855260Y3693425D01*
X854010Y3687950D01*
X853381Y3682370D01*
Y3676754D01*
X854010Y3671173D01*
X855260Y3665698D01*
X857114Y3660398D01*
X859551Y3655338D01*
X862539Y3650583D01*
X866040Y3646192D01*
X870011Y3642221D01*
X874402Y3638720D01*
X879157Y3635732D01*
X884217Y3633295D01*
X889517Y3631441D01*
X894992Y3630191D01*
X900573Y3629562D01*
X906189D01*
X911770Y3630191D01*
X917245Y3631441D01*
X922545Y3633295D01*
X927605Y3635732D01*
X932360Y3638720D01*
X936751Y3642221D01*
X940722Y3646192D01*
X944223Y3650583D01*
X947211Y3655338D01*
X949648Y3660398D01*
X951502Y3665698D01*
X952752Y3671173D01*
X953381Y3676754D01*
Y3682370D01*
X952752Y3687950D01*
X951502Y3693425D01*
X949648Y3698726D01*
X947211Y3703786D01*
X944223Y3708541D01*
X940722Y3712932D01*
X936751Y3716903D01*
X932360Y3720404D01*
X927605Y3723392D01*
X922545Y3725828D01*
X917245Y3727683D01*
X911770Y3728933D01*
X906189Y3729562D01*
D02*
G37*
G36*
X512307Y3700000D02*
X506691D01*
X501111Y3699371D01*
X495636Y3698121D01*
X490335Y3696266D01*
X485275Y3693830D01*
X480520Y3690842D01*
X476130Y3687341D01*
X472159Y3683370D01*
X468657Y3678979D01*
X465669Y3674224D01*
X463233Y3669164D01*
X461378Y3663863D01*
X460128Y3658388D01*
X459499Y3652808D01*
Y3647192D01*
X460128Y3641611D01*
X461378Y3636136D01*
X463233Y3630836D01*
X465669Y3625776D01*
X468657Y3621021D01*
X472159Y3616630D01*
X476130Y3612659D01*
X480520Y3609158D01*
X485275Y3606170D01*
X490335Y3603733D01*
X495636Y3601878D01*
X501111Y3600629D01*
X506691Y3600000D01*
X512307D01*
X517888Y3600629D01*
X523363Y3601878D01*
X528664Y3603733D01*
X533723Y3606170D01*
X538478Y3609158D01*
X542869Y3612659D01*
X546840Y3616630D01*
X550342Y3621021D01*
X553329Y3625776D01*
X555766Y3630836D01*
X557621Y3636136D01*
X558870Y3641611D01*
X559499Y3647192D01*
Y3652808D01*
X558870Y3658388D01*
X557621Y3663863D01*
X555766Y3669164D01*
X553329Y3674224D01*
X550342Y3678979D01*
X546840Y3683370D01*
X542869Y3687341D01*
X538478Y3690842D01*
X533723Y3693830D01*
X528664Y3696266D01*
X523363Y3698121D01*
X517888Y3699371D01*
X512307Y3700000D01*
D02*
G37*
G36*
X1186189Y3699562D02*
X1180573D01*
X1174993Y3698933D01*
X1169518Y3697683D01*
X1164217Y3695828D01*
X1159157Y3693392D01*
X1154402Y3690404D01*
X1150011Y3686902D01*
X1146040Y3682931D01*
X1142539Y3678541D01*
X1139551Y3673786D01*
X1137115Y3668726D01*
X1135260Y3663425D01*
X1134010Y3657950D01*
X1133381Y3652370D01*
Y3646754D01*
X1134010Y3641173D01*
X1135260Y3635698D01*
X1137115Y3630397D01*
X1139551Y3625338D01*
X1142539Y3620583D01*
X1146040Y3616192D01*
X1150011Y3612221D01*
X1154402Y3608719D01*
X1159157Y3605732D01*
X1164217Y3603295D01*
X1169518Y3601440D01*
X1174993Y3600191D01*
X1180573Y3599562D01*
X1186189D01*
X1191770Y3600191D01*
X1197245Y3601440D01*
X1202545Y3603295D01*
X1207605Y3605732D01*
X1212360Y3608719D01*
X1216751Y3612221D01*
X1220722Y3616192D01*
X1224223Y3620583D01*
X1227211Y3625338D01*
X1229648Y3630397D01*
X1231502Y3635698D01*
X1232752Y3641173D01*
X1233381Y3646754D01*
Y3652370D01*
X1232752Y3657950D01*
X1231502Y3663425D01*
X1229648Y3668726D01*
X1227211Y3673786D01*
X1224223Y3678541D01*
X1220722Y3682931D01*
X1216751Y3686902D01*
X1212360Y3690404D01*
X1207605Y3693392D01*
X1202545Y3695828D01*
X1197245Y3697683D01*
X1191770Y3698933D01*
X1186189Y3699562D01*
D02*
G37*
G36*
X390000Y3728000D02*
X110000D01*
Y3518000D01*
X390000D01*
Y3728000D01*
D02*
G37*
G36*
X903689Y3609562D02*
X898073D01*
X892493Y3608933D01*
X887018Y3607683D01*
X881717Y3605828D01*
X876657Y3603392D01*
X871902Y3600404D01*
X867512Y3596903D01*
X863541Y3592932D01*
X860039Y3588541D01*
X857051Y3583786D01*
X854615Y3578726D01*
X852760Y3573425D01*
X851510Y3567950D01*
X850881Y3562370D01*
Y3556754D01*
X851510Y3551173D01*
X852760Y3545698D01*
X854615Y3540398D01*
X857051Y3535338D01*
X860039Y3530583D01*
X863541Y3526192D01*
X867512Y3522221D01*
X871902Y3518720D01*
X876657Y3515732D01*
X881717Y3513295D01*
X887018Y3511441D01*
X892493Y3510191D01*
X898073Y3509562D01*
X903689D01*
X909270Y3510191D01*
X914745Y3511441D01*
X920046Y3513295D01*
X925105Y3515732D01*
X929860Y3518720D01*
X934251Y3522221D01*
X938222Y3526192D01*
X941724Y3530583D01*
X944711Y3535338D01*
X947148Y3540398D01*
X949003Y3545698D01*
X950252Y3551173D01*
X950881Y3556754D01*
Y3562370D01*
X950252Y3567950D01*
X949003Y3573425D01*
X947148Y3578726D01*
X944711Y3583786D01*
X941724Y3588541D01*
X938222Y3592932D01*
X934251Y3596903D01*
X929860Y3600404D01*
X925105Y3603392D01*
X920046Y3605828D01*
X914745Y3607683D01*
X909270Y3608933D01*
X903689Y3609562D01*
D02*
G37*
G36*
X1358689Y3479561D02*
X1353073D01*
X1347493Y3478933D01*
X1342018Y3477683D01*
X1336717Y3475828D01*
X1331657Y3473392D01*
X1326902Y3470404D01*
X1322512Y3466902D01*
X1318541Y3462931D01*
X1315039Y3458541D01*
X1312051Y3453786D01*
X1309615Y3448726D01*
X1307760Y3443425D01*
X1306510Y3437950D01*
X1305882Y3432370D01*
Y3426754D01*
X1306510Y3421173D01*
X1307760Y3415698D01*
X1309615Y3410397D01*
X1312051Y3405338D01*
X1315039Y3400582D01*
X1318541Y3396192D01*
X1322512Y3392221D01*
X1326902Y3388719D01*
X1331657Y3385732D01*
X1333137Y3385019D01*
X1333394Y3384358D01*
Y3374765D01*
X1333137Y3374104D01*
X1331657Y3373392D01*
X1326902Y3370404D01*
X1322512Y3366903D01*
X1318541Y3362932D01*
X1315039Y3358541D01*
X1312051Y3353786D01*
X1309615Y3348726D01*
X1307760Y3343425D01*
X1306510Y3337950D01*
X1305882Y3332370D01*
Y3326754D01*
X1306510Y3321173D01*
X1307760Y3315698D01*
X1309615Y3310397D01*
X1312051Y3305338D01*
X1315039Y3300583D01*
X1318541Y3296192D01*
X1322512Y3292221D01*
X1326902Y3288720D01*
X1331657Y3285732D01*
X1336717Y3283295D01*
X1342018Y3281440D01*
X1347493Y3280191D01*
X1353073Y3279562D01*
X1358689D01*
X1364270Y3280191D01*
X1369745Y3281440D01*
X1375046Y3283295D01*
X1380105Y3285732D01*
X1384861Y3288720D01*
X1389251Y3292221D01*
X1393222Y3296192D01*
X1396724Y3300583D01*
X1399711Y3305338D01*
X1402148Y3310397D01*
X1404003Y3315698D01*
X1405252Y3321173D01*
X1405881Y3326754D01*
Y3332370D01*
X1405252Y3337950D01*
X1404003Y3343425D01*
X1402148Y3348726D01*
X1399711Y3353786D01*
X1396724Y3358541D01*
X1393222Y3362932D01*
X1389251Y3366903D01*
X1384861Y3370404D01*
X1380105Y3373392D01*
X1378626Y3374104D01*
X1378369Y3374765D01*
Y3384358D01*
X1378626Y3385019D01*
X1380105Y3385732D01*
X1384861Y3388719D01*
X1389251Y3392221D01*
X1393222Y3396192D01*
X1396724Y3400582D01*
X1399711Y3405338D01*
X1402148Y3410397D01*
X1404003Y3415698D01*
X1405252Y3421173D01*
X1405881Y3426754D01*
Y3432370D01*
X1405252Y3437950D01*
X1404003Y3443425D01*
X1402148Y3448726D01*
X1399711Y3453786D01*
X1396724Y3458541D01*
X1393222Y3462931D01*
X1389251Y3466902D01*
X1384861Y3470404D01*
X1380105Y3473392D01*
X1375046Y3475828D01*
X1369745Y3477683D01*
X1364270Y3478933D01*
X1358689Y3479561D01*
D02*
G37*
G36*
X888689D02*
X883073D01*
X877493Y3478933D01*
X872018Y3477683D01*
X866717Y3475828D01*
X861657Y3473392D01*
X856902Y3470404D01*
X852512Y3466902D01*
X848541Y3462931D01*
X845039Y3458541D01*
X842051Y3453786D01*
X839615Y3448726D01*
X837760Y3443425D01*
X836510Y3437950D01*
X835881Y3432370D01*
Y3426754D01*
X836510Y3421173D01*
X837760Y3415698D01*
X839615Y3410397D01*
X842051Y3405338D01*
X845039Y3400582D01*
X848541Y3396192D01*
X852512Y3392221D01*
X856902Y3388719D01*
X861657Y3385732D01*
X863137Y3385019D01*
X863394Y3384358D01*
Y3374765D01*
X863137Y3374104D01*
X861657Y3373392D01*
X856902Y3370404D01*
X852512Y3366903D01*
X848541Y3362932D01*
X845039Y3358541D01*
X842051Y3353786D01*
X839615Y3348726D01*
X837760Y3343425D01*
X836510Y3337950D01*
X835881Y3332370D01*
Y3326754D01*
X836510Y3321173D01*
X837760Y3315698D01*
X839615Y3310397D01*
X842051Y3305338D01*
X845039Y3300583D01*
X848541Y3296192D01*
X852512Y3292221D01*
X856902Y3288720D01*
X861657Y3285732D01*
X866717Y3283295D01*
X872018Y3281440D01*
X877493Y3280191D01*
X883073Y3279562D01*
X888689D01*
X894270Y3280191D01*
X899745Y3281440D01*
X905046Y3283295D01*
X910105Y3285732D01*
X914861Y3288720D01*
X919251Y3292221D01*
X923222Y3296192D01*
X926724Y3300583D01*
X929711Y3305338D01*
X932148Y3310397D01*
X934003Y3315698D01*
X935252Y3321173D01*
X935881Y3326754D01*
Y3332370D01*
X935252Y3337950D01*
X934003Y3343425D01*
X932148Y3348726D01*
X929711Y3353786D01*
X926724Y3358541D01*
X923222Y3362932D01*
X919251Y3366903D01*
X914861Y3370404D01*
X910105Y3373392D01*
X908626Y3374104D01*
X908369Y3374765D01*
Y3384358D01*
X908626Y3385019D01*
X910105Y3385732D01*
X914861Y3388719D01*
X919251Y3392221D01*
X923222Y3396192D01*
X926724Y3400582D01*
X929711Y3405338D01*
X932148Y3410397D01*
X934003Y3415698D01*
X935252Y3421173D01*
X935881Y3426754D01*
Y3432370D01*
X935252Y3437950D01*
X934003Y3443425D01*
X932148Y3448726D01*
X929711Y3453786D01*
X926724Y3458541D01*
X923222Y3462931D01*
X919251Y3466902D01*
X914861Y3470404D01*
X910105Y3473392D01*
X905046Y3475828D01*
X899745Y3477683D01*
X894270Y3478933D01*
X888689Y3479561D01*
D02*
G37*
G36*
X5202808Y3295000D02*
X5197192D01*
X5191611Y3294371D01*
X5186136Y3293122D01*
X5180836Y3291267D01*
X5175776Y3288830D01*
X5171021Y3285843D01*
X5166630Y3282341D01*
X5162659Y3278370D01*
X5159158Y3273979D01*
X5156170Y3269224D01*
X5153733Y3264165D01*
X5151879Y3258864D01*
X5150629Y3253389D01*
X5150000Y3247808D01*
Y3242192D01*
X5150629Y3236612D01*
X5151879Y3231137D01*
X5153733Y3225836D01*
X5156170Y3220776D01*
X5159158Y3216021D01*
X5162659Y3211631D01*
X5166630Y3207660D01*
X5171021Y3204158D01*
X5175776Y3201170D01*
X5180836Y3198734D01*
X5186136Y3196879D01*
X5191611Y3195629D01*
X5197192Y3195000D01*
X5202808D01*
X5208389Y3195629D01*
X5213864Y3196879D01*
X5219164Y3198734D01*
X5224224Y3201170D01*
X5228979Y3204158D01*
X5233370Y3207660D01*
X5237341Y3211631D01*
X5240842Y3216021D01*
X5243830Y3220776D01*
X5246267Y3225836D01*
X5248121Y3231137D01*
X5249371Y3236612D01*
X5250000Y3242192D01*
Y3247808D01*
X5249371Y3253389D01*
X5248121Y3258864D01*
X5246267Y3264165D01*
X5243830Y3269224D01*
X5240842Y3273979D01*
X5237341Y3278370D01*
X5233370Y3282341D01*
X5228979Y3285843D01*
X5224224Y3288830D01*
X5219164Y3291267D01*
X5213864Y3293122D01*
X5208389Y3294371D01*
X5202808Y3295000D01*
D02*
G37*
G36*
X5626808Y3265000D02*
X5621192D01*
X5615611Y3264371D01*
X5610136Y3263121D01*
X5604835Y3261267D01*
X5599776Y3258830D01*
X5595021Y3255842D01*
X5590630Y3252341D01*
X5586659Y3248370D01*
X5583157Y3243979D01*
X5580170Y3239224D01*
X5577733Y3234164D01*
X5575878Y3228863D01*
X5574629Y3223389D01*
X5574000Y3217808D01*
Y3212192D01*
X5574629Y3206611D01*
X5575878Y3201136D01*
X5577733Y3195836D01*
X5580170Y3190776D01*
X5583157Y3186021D01*
X5586659Y3181630D01*
X5590630Y3177659D01*
X5595021Y3174158D01*
X5599776Y3171170D01*
X5604835Y3168733D01*
X5610136Y3166879D01*
X5615611Y3165629D01*
X5621192Y3165000D01*
X5626808D01*
X5632388Y3165629D01*
X5637863Y3166879D01*
X5643164Y3168733D01*
X5648224Y3171170D01*
X5652979Y3174158D01*
X5657369Y3177659D01*
X5661340Y3181630D01*
X5664842Y3186021D01*
X5667830Y3190776D01*
X5670266Y3195836D01*
X5672121Y3201136D01*
X5673371Y3206611D01*
X5674000Y3212192D01*
Y3217808D01*
X5673371Y3223389D01*
X5672121Y3228863D01*
X5670266Y3234164D01*
X5667830Y3239224D01*
X5664842Y3243979D01*
X5661340Y3248370D01*
X5657369Y3252341D01*
X5652979Y3255842D01*
X5648224Y3258830D01*
X5643164Y3261267D01*
X5637863Y3263121D01*
X5632388Y3264371D01*
X5626808Y3265000D01*
D02*
G37*
G36*
X1358689Y3239561D02*
X1353073D01*
X1347493Y3238933D01*
X1342018Y3237683D01*
X1336717Y3235828D01*
X1331657Y3233392D01*
X1326902Y3230404D01*
X1322511Y3226902D01*
X1318540Y3222931D01*
X1315039Y3218541D01*
X1312051Y3213786D01*
X1309615Y3208726D01*
X1307760Y3203425D01*
X1306510Y3197950D01*
X1305881Y3192370D01*
Y3186754D01*
X1306510Y3181173D01*
X1307760Y3175698D01*
X1309615Y3170397D01*
X1312051Y3165338D01*
X1315039Y3160582D01*
X1318540Y3156192D01*
X1322511Y3152221D01*
X1326902Y3148719D01*
X1331657Y3145732D01*
X1333137Y3145019D01*
X1333394Y3144358D01*
Y3134765D01*
X1333137Y3134104D01*
X1331657Y3133392D01*
X1326902Y3130404D01*
X1322511Y3126903D01*
X1318540Y3122932D01*
X1315039Y3118541D01*
X1312051Y3113786D01*
X1309615Y3108726D01*
X1307760Y3103425D01*
X1306510Y3097950D01*
X1305881Y3092370D01*
Y3086754D01*
X1306510Y3081173D01*
X1307760Y3075698D01*
X1309615Y3070397D01*
X1312051Y3065338D01*
X1315039Y3060583D01*
X1318540Y3056192D01*
X1322511Y3052221D01*
X1326902Y3048720D01*
X1331657Y3045732D01*
X1336717Y3043295D01*
X1342018Y3041440D01*
X1347493Y3040191D01*
X1353073Y3039562D01*
X1358689D01*
X1364270Y3040191D01*
X1369745Y3041440D01*
X1375046Y3043295D01*
X1380105Y3045732D01*
X1384860Y3048720D01*
X1389251Y3052221D01*
X1393222Y3056192D01*
X1396723Y3060583D01*
X1399711Y3065338D01*
X1402148Y3070397D01*
X1404003Y3075698D01*
X1405252Y3081173D01*
X1405881Y3086754D01*
Y3092370D01*
X1405252Y3097950D01*
X1404003Y3103425D01*
X1402148Y3108726D01*
X1399711Y3113786D01*
X1396723Y3118541D01*
X1393222Y3122932D01*
X1389251Y3126903D01*
X1384860Y3130404D01*
X1380105Y3133392D01*
X1378626Y3134104D01*
X1378368Y3134765D01*
Y3144358D01*
X1378626Y3145019D01*
X1380105Y3145732D01*
X1384860Y3148719D01*
X1389251Y3152221D01*
X1393222Y3156192D01*
X1396723Y3160582D01*
X1399711Y3165338D01*
X1402148Y3170397D01*
X1404003Y3175698D01*
X1405252Y3181173D01*
X1405881Y3186754D01*
Y3192370D01*
X1405252Y3197950D01*
X1404003Y3203425D01*
X1402148Y3208726D01*
X1399711Y3213786D01*
X1396723Y3218541D01*
X1393222Y3222931D01*
X1389251Y3226902D01*
X1384860Y3230404D01*
X1380105Y3233392D01*
X1375046Y3235828D01*
X1369745Y3237683D01*
X1364270Y3238933D01*
X1358689Y3239561D01*
D02*
G37*
G36*
X888689Y3239561D02*
X883073D01*
X877493Y3238932D01*
X872018Y3237683D01*
X866717Y3235828D01*
X861657Y3233391D01*
X856902Y3230403D01*
X852512Y3226902D01*
X848541Y3222931D01*
X845039Y3218540D01*
X842051Y3213785D01*
X839615Y3208726D01*
X837760Y3203425D01*
X836510Y3197950D01*
X835881Y3192369D01*
Y3186753D01*
X836510Y3181173D01*
X837760Y3175698D01*
X839615Y3170397D01*
X842051Y3165337D01*
X845039Y3160582D01*
X848541Y3156192D01*
X852512Y3152221D01*
X856902Y3148719D01*
X861657Y3145731D01*
X863137Y3145019D01*
X863394Y3144358D01*
Y3134765D01*
X863137Y3134104D01*
X861657Y3133391D01*
X856902Y3130404D01*
X852512Y3126902D01*
X848541Y3122931D01*
X845039Y3118541D01*
X842051Y3113785D01*
X839615Y3108726D01*
X837760Y3103425D01*
X836510Y3097950D01*
X835881Y3092369D01*
Y3086754D01*
X836510Y3081173D01*
X837760Y3075698D01*
X839615Y3070397D01*
X842051Y3065338D01*
X845039Y3060582D01*
X848541Y3056192D01*
X852512Y3052221D01*
X856902Y3048719D01*
X861657Y3045732D01*
X866717Y3043295D01*
X872018Y3041440D01*
X877493Y3040191D01*
X883073Y3039562D01*
X888689D01*
X894270Y3040191D01*
X899745Y3041440D01*
X905046Y3043295D01*
X910105Y3045732D01*
X914861Y3048719D01*
X919251Y3052221D01*
X923222Y3056192D01*
X926724Y3060582D01*
X929711Y3065338D01*
X932148Y3070397D01*
X934003Y3075698D01*
X935252Y3081173D01*
X935881Y3086754D01*
Y3092369D01*
X935252Y3097950D01*
X934003Y3103425D01*
X932148Y3108726D01*
X929711Y3113785D01*
X926724Y3118541D01*
X923222Y3122931D01*
X919251Y3126902D01*
X914861Y3130404D01*
X910105Y3133391D01*
X908626Y3134104D01*
X908369Y3134765D01*
Y3144358D01*
X908626Y3145019D01*
X910105Y3145731D01*
X914861Y3148719D01*
X919251Y3152221D01*
X923222Y3156192D01*
X926724Y3160582D01*
X929711Y3165337D01*
X932148Y3170397D01*
X934003Y3175698D01*
X935252Y3181173D01*
X935881Y3186753D01*
Y3192369D01*
X935252Y3197950D01*
X934003Y3203425D01*
X932148Y3208726D01*
X929711Y3213785D01*
X926724Y3218540D01*
X923222Y3222931D01*
X919251Y3226902D01*
X914861Y3230403D01*
X910105Y3233391D01*
X905046Y3235828D01*
X899745Y3237683D01*
X894270Y3238932D01*
X888689Y3239561D01*
D02*
G37*
G36*
X5574308Y3120000D02*
X5568692D01*
X5563111Y3119371D01*
X5557636Y3118121D01*
X5552336Y3116267D01*
X5547276Y3113830D01*
X5542521Y3110842D01*
X5538130Y3107341D01*
X5534159Y3103370D01*
X5530658Y3098979D01*
X5527670Y3094224D01*
X5525233Y3089164D01*
X5523379Y3083864D01*
X5522129Y3078389D01*
X5521500Y3072808D01*
Y3067192D01*
X5522129Y3061611D01*
X5523379Y3056136D01*
X5525233Y3050836D01*
X5527670Y3045776D01*
X5530658Y3041021D01*
X5534159Y3036630D01*
X5538130Y3032659D01*
X5542521Y3029158D01*
X5547276Y3026170D01*
X5552336Y3023733D01*
X5557636Y3021879D01*
X5563111Y3020629D01*
X5568692Y3020000D01*
X5574308D01*
X5579889Y3020629D01*
X5585363Y3021879D01*
X5590664Y3023733D01*
X5595724Y3026170D01*
X5600479Y3029158D01*
X5604870Y3032659D01*
X5608841Y3036630D01*
X5612342Y3041021D01*
X5615330Y3045776D01*
X5617767Y3050836D01*
X5619621Y3056136D01*
X5620871Y3061611D01*
X5621500Y3067192D01*
Y3072808D01*
X5620871Y3078389D01*
X5619621Y3083864D01*
X5617767Y3089164D01*
X5615330Y3094224D01*
X5612342Y3098979D01*
X5608841Y3103370D01*
X5604870Y3107341D01*
X5600479Y3110842D01*
X5595724Y3113830D01*
X5590664Y3116267D01*
X5585363Y3118121D01*
X5579889Y3119371D01*
X5574308Y3120000D01*
D02*
G37*
G36*
X6880000Y3035097D02*
X6300000D01*
X6296079Y3034711D01*
X6292309Y3033567D01*
X6288835Y3031710D01*
X6285789Y3029211D01*
X6283290Y3026165D01*
X6281433Y3022691D01*
X6280289Y3018921D01*
X6279903Y3015000D01*
Y2650000D01*
X6280289Y2646079D01*
X6281433Y2642309D01*
X6283290Y2638835D01*
X6285789Y2635789D01*
X6288835Y2633290D01*
X6292309Y2631433D01*
X6296079Y2630289D01*
X6300000Y2629903D01*
X6655593D01*
X6656214Y2629964D01*
X6656836Y2629942D01*
X6658167Y2630157D01*
X6659514Y2630289D01*
X6660110Y2630470D01*
X6660725Y2630569D01*
X6661991Y2631041D01*
X6663284Y2631433D01*
X6663833Y2631727D01*
X6664417Y2631944D01*
X6665566Y2632653D01*
X6666758Y2633290D01*
X6667240Y2633685D01*
X6667770Y2634012D01*
X6668759Y2634932D01*
X6669804Y2635789D01*
X6670200Y2636272D01*
X6670655Y2636695D01*
X6671445Y2637789D01*
X6672303Y2638835D01*
X6672596Y2639384D01*
X6672961Y2639889D01*
X6673524Y2641120D01*
X6674160Y2642309D01*
X6674340Y2642905D01*
X6674600Y2643472D01*
X6677274Y2651259D01*
X6683074Y2666551D01*
X6689470Y2681484D01*
X6696493Y2696138D01*
X6704129Y2710483D01*
X6712363Y2724493D01*
X6721179Y2738140D01*
X6730567Y2751407D01*
X6740501Y2764259D01*
X6750972Y2776684D01*
X6761958Y2788657D01*
X6773444Y2800160D01*
X6785397Y2811159D01*
X6797808Y2821649D01*
X6810652Y2831606D01*
X6823901Y2841009D01*
X6837536Y2849846D01*
X6851534Y2858100D01*
X6865871Y2865758D01*
X6880609Y2872847D01*
X6888134Y2876178D01*
X6889644Y2877032D01*
X6891165Y2877845D01*
X6891351Y2877998D01*
X6891563Y2878117D01*
X6892877Y2879250D01*
X6894210Y2880344D01*
X6894364Y2880531D01*
X6894547Y2880689D01*
X6895613Y2882053D01*
X6896710Y2883390D01*
X6896824Y2883603D01*
X6896973Y2883794D01*
X6897753Y2885341D01*
X6898567Y2886864D01*
X6898637Y2887095D01*
X6898746Y2887312D01*
X6899209Y2888981D01*
X6899711Y2890634D01*
X6899734Y2890875D01*
X6899799Y2891108D01*
X6899927Y2892832D01*
X6900097Y2894555D01*
Y3015000D01*
X6899711Y3018921D01*
X6898567Y3022691D01*
X6896710Y3026165D01*
X6894210Y3029211D01*
X6891165Y3031710D01*
X6887691Y3033567D01*
X6883921Y3034711D01*
X6880000Y3035097D01*
D02*
G37*
G36*
X2204148Y2745000D02*
X2195852D01*
X2187588Y2744277D01*
X2179419Y2742836D01*
X2171406Y2740689D01*
X2163610Y2737852D01*
X2156092Y2734346D01*
X2148908Y2730198D01*
X2142113Y2725440D01*
X2135758Y2720108D01*
X2129892Y2714242D01*
X2124560Y2707887D01*
X2119802Y2701092D01*
X2115654Y2693908D01*
X2112148Y2686390D01*
X2109311Y2678594D01*
X2107164Y2670581D01*
X2105723Y2662412D01*
X2105000Y2654148D01*
Y2645852D01*
X2105723Y2637588D01*
X2107164Y2629419D01*
X2109311Y2621406D01*
X2112148Y2613610D01*
X2115654Y2606092D01*
X2119802Y2598908D01*
X2124560Y2592113D01*
X2129892Y2585758D01*
X2135758Y2579892D01*
X2142113Y2574560D01*
X2148908Y2569802D01*
X2156092Y2565654D01*
X2163610Y2562148D01*
X2171406Y2559311D01*
X2179419Y2557164D01*
X2187588Y2555723D01*
X2195852Y2555000D01*
X2204148D01*
X2212412Y2555723D01*
X2220581Y2557164D01*
X2228594Y2559311D01*
X2236389Y2562148D01*
X2243908Y2565654D01*
X2251092Y2569802D01*
X2257887Y2574560D01*
X2264242Y2579892D01*
X2270108Y2585758D01*
X2275440Y2592113D01*
X2280198Y2598908D01*
X2284346Y2606092D01*
X2287852Y2613610D01*
X2290689Y2621406D01*
X2292836Y2629419D01*
X2294277Y2637588D01*
X2295000Y2645852D01*
Y2654148D01*
X2294277Y2662412D01*
X2292836Y2670581D01*
X2290689Y2678594D01*
X2287852Y2686390D01*
X2284346Y2693908D01*
X2280198Y2701092D01*
X2275440Y2707887D01*
X2270108Y2714242D01*
X2264242Y2720108D01*
X2257887Y2725440D01*
X2251092Y2730198D01*
X2243908Y2734346D01*
X2236389Y2737852D01*
X2228594Y2740689D01*
X2220581Y2742836D01*
X2212412Y2744277D01*
X2204148Y2745000D01*
D02*
G37*
G36*
X869715Y2520000D02*
X860285D01*
X850885Y2519260D01*
X841571Y2517785D01*
X832402Y2515584D01*
X823434Y2512670D01*
X814722Y2509062D01*
X806320Y2504780D01*
X798280Y2499854D01*
X790651Y2494311D01*
X783481Y2488187D01*
X776813Y2481519D01*
X770689Y2474349D01*
X765147Y2466720D01*
X760220Y2458680D01*
X755939Y2450278D01*
X752330Y2441566D01*
X749416Y2432598D01*
X747215Y2423429D01*
X745740Y2414115D01*
X745000Y2404715D01*
Y2395285D01*
X745740Y2385885D01*
X747215Y2376571D01*
X749416Y2367402D01*
X752330Y2358434D01*
X755939Y2349722D01*
X760220Y2341320D01*
X765147Y2333280D01*
X770689Y2325651D01*
X776813Y2318481D01*
X783481Y2311813D01*
X790651Y2305689D01*
X798280Y2300147D01*
X806320Y2295220D01*
X814722Y2290939D01*
X823434Y2287330D01*
X832402Y2284416D01*
X841571Y2282215D01*
X850885Y2280740D01*
X860285Y2280000D01*
X869715D01*
X879115Y2280740D01*
X888429Y2282215D01*
X897598Y2284416D01*
X906566Y2287330D01*
X915278Y2290939D01*
X923680Y2295220D01*
X931720Y2300147D01*
X939349Y2305689D01*
X946519Y2311813D01*
X953187Y2318481D01*
X959311Y2325651D01*
X964854Y2333280D01*
X969780Y2341320D01*
X974062Y2349722D01*
X977670Y2358434D01*
X980584Y2367402D01*
X982785Y2376571D01*
X984260Y2385885D01*
X985000Y2395285D01*
Y2404715D01*
X984260Y2414115D01*
X982785Y2423429D01*
X980584Y2432598D01*
X977670Y2441566D01*
X974062Y2450278D01*
X969780Y2458680D01*
X964854Y2466720D01*
X959311Y2474349D01*
X953187Y2481519D01*
X946519Y2488187D01*
X939349Y2494311D01*
X931720Y2499854D01*
X923680Y2504780D01*
X915278Y2509062D01*
X906566Y2512670D01*
X897598Y2515584D01*
X888429Y2517785D01*
X879115Y2519260D01*
X869715Y2520000D01*
D02*
G37*
G36*
Y2220000D02*
X860285D01*
X850885Y2219260D01*
X841571Y2217785D01*
X832402Y2215584D01*
X823434Y2212670D01*
X814722Y2209062D01*
X806320Y2204780D01*
X798280Y2199854D01*
X790651Y2194311D01*
X783481Y2188187D01*
X776813Y2181519D01*
X770689Y2174349D01*
X765147Y2166720D01*
X760220Y2158680D01*
X755939Y2150278D01*
X752330Y2141566D01*
X749416Y2132598D01*
X747215Y2123429D01*
X745740Y2114115D01*
X745000Y2104715D01*
Y2095285D01*
X745740Y2085885D01*
X747215Y2076571D01*
X749416Y2067402D01*
X752330Y2058434D01*
X755939Y2049722D01*
X760220Y2041320D01*
X765147Y2033280D01*
X770689Y2025652D01*
X776813Y2018481D01*
X783481Y2011813D01*
X790651Y2005689D01*
X798280Y2000147D01*
X806320Y1995220D01*
X814722Y1990939D01*
X823434Y1987330D01*
X832402Y1984416D01*
X841571Y1982215D01*
X850885Y1980740D01*
X860285Y1980000D01*
X869715D01*
X879115Y1980740D01*
X888429Y1982215D01*
X897598Y1984416D01*
X906566Y1987330D01*
X915278Y1990939D01*
X923680Y1995220D01*
X931720Y2000147D01*
X939349Y2005689D01*
X946519Y2011813D01*
X953187Y2018481D01*
X959311Y2025652D01*
X964854Y2033280D01*
X969780Y2041320D01*
X974062Y2049722D01*
X977670Y2058434D01*
X980584Y2067402D01*
X982785Y2076571D01*
X984260Y2085885D01*
X985000Y2095285D01*
Y2104715D01*
X984260Y2114115D01*
X982785Y2123429D01*
X980584Y2132598D01*
X977670Y2141566D01*
X974062Y2150278D01*
X969780Y2158680D01*
X964854Y2166720D01*
X959311Y2174349D01*
X953187Y2181519D01*
X946519Y2188187D01*
X939349Y2194311D01*
X931720Y2199854D01*
X923680Y2204780D01*
X915278Y2209062D01*
X906566Y2212670D01*
X897598Y2215584D01*
X888429Y2217785D01*
X879115Y2219260D01*
X869715Y2220000D01*
D02*
G37*
G36*
X440565Y2270000D02*
X429435D01*
X418328Y2269272D01*
X407293Y2267819D01*
X396376Y2265648D01*
X385625Y2262767D01*
X375085Y2259189D01*
X364802Y2254930D01*
X354819Y2250007D01*
X345180Y2244442D01*
X335926Y2238258D01*
X327095Y2231482D01*
X318727Y2224143D01*
X310857Y2216273D01*
X303518Y2207905D01*
X296742Y2199074D01*
X290558Y2189820D01*
X284993Y2180181D01*
X280070Y2170198D01*
X275811Y2159915D01*
X272233Y2149375D01*
X269352Y2138624D01*
X267181Y2127707D01*
X265728Y2116672D01*
X265000Y2105565D01*
Y2094435D01*
X265728Y2083328D01*
X267181Y2072293D01*
X269352Y2061376D01*
X272233Y2050625D01*
X275811Y2040086D01*
X280070Y2029802D01*
X284993Y2019820D01*
X290558Y2010180D01*
X296742Y2000926D01*
X303518Y1992096D01*
X310857Y1983727D01*
X318727Y1975857D01*
X327095Y1968518D01*
X335926Y1961742D01*
X345180Y1955558D01*
X354819Y1949993D01*
X364802Y1945070D01*
X375085Y1940811D01*
X385625Y1937233D01*
X396376Y1934352D01*
X407293Y1932181D01*
X418328Y1930728D01*
X429435Y1930000D01*
X440565D01*
X451672Y1930728D01*
X462707Y1932181D01*
X473624Y1934352D01*
X484375Y1937233D01*
X494914Y1940811D01*
X505198Y1945070D01*
X515180Y1949993D01*
X524820Y1955558D01*
X534074Y1961742D01*
X542904Y1968518D01*
X551273Y1975857D01*
X559143Y1983727D01*
X566482Y1992096D01*
X573258Y2000926D01*
X579442Y2010180D01*
X585007Y2019820D01*
X589930Y2029802D01*
X594189Y2040086D01*
X597767Y2050625D01*
X600648Y2061376D01*
X602819Y2072293D01*
X604272Y2083328D01*
X605000Y2094435D01*
Y2105565D01*
X604272Y2116672D01*
X602819Y2127707D01*
X600648Y2138624D01*
X597767Y2149375D01*
X594189Y2159915D01*
X589930Y2170198D01*
X585007Y2180181D01*
X579442Y2189820D01*
X573258Y2199074D01*
X566482Y2207905D01*
X559143Y2216273D01*
X551273Y2224143D01*
X542904Y2231482D01*
X534074Y2238258D01*
X524820Y2244442D01*
X515180Y2250007D01*
X505198Y2254930D01*
X494914Y2259189D01*
X484375Y2262767D01*
X473624Y2265648D01*
X462707Y2267819D01*
X451672Y2269272D01*
X440565Y2270000D01*
D02*
G37*
G36*
X869715Y1920000D02*
X860285D01*
X850885Y1919260D01*
X841571Y1917785D01*
X832402Y1915584D01*
X823434Y1912670D01*
X814722Y1909061D01*
X806320Y1904780D01*
X798280Y1899853D01*
X790651Y1894311D01*
X783481Y1888187D01*
X776813Y1881519D01*
X770689Y1874349D01*
X765147Y1866720D01*
X760220Y1858680D01*
X755939Y1850278D01*
X752330Y1841566D01*
X749416Y1832598D01*
X747215Y1823429D01*
X745740Y1814115D01*
X745000Y1804715D01*
Y1795285D01*
X745740Y1785885D01*
X747215Y1776571D01*
X749416Y1767402D01*
X752330Y1758434D01*
X755939Y1749722D01*
X760220Y1741320D01*
X765147Y1733280D01*
X770689Y1725651D01*
X776813Y1718481D01*
X783481Y1711813D01*
X790651Y1705689D01*
X798280Y1700146D01*
X806320Y1695220D01*
X814722Y1690938D01*
X823434Y1687330D01*
X832402Y1684416D01*
X841571Y1682215D01*
X850885Y1680740D01*
X860285Y1680000D01*
X869715D01*
X879115Y1680740D01*
X888429Y1682215D01*
X897598Y1684416D01*
X906566Y1687330D01*
X915278Y1690938D01*
X923680Y1695220D01*
X931720Y1700146D01*
X939349Y1705689D01*
X946519Y1711813D01*
X953187Y1718481D01*
X959311Y1725651D01*
X964854Y1733280D01*
X969780Y1741320D01*
X974062Y1749722D01*
X977670Y1758434D01*
X980584Y1767402D01*
X982785Y1776571D01*
X984260Y1785885D01*
X985000Y1795285D01*
Y1804715D01*
X984260Y1814115D01*
X982785Y1823429D01*
X980584Y1832598D01*
X977670Y1841566D01*
X974062Y1850278D01*
X969780Y1858680D01*
X964854Y1866720D01*
X959311Y1874349D01*
X953187Y1881519D01*
X946519Y1888187D01*
X939349Y1894311D01*
X931720Y1899853D01*
X923680Y1904780D01*
X915278Y1909061D01*
X906566Y1912670D01*
X897598Y1915584D01*
X888429Y1917785D01*
X879115Y1919260D01*
X869715Y1920000D01*
D02*
G37*
G36*
X2204148Y1645000D02*
X2195852D01*
X2187588Y1644277D01*
X2179419Y1642837D01*
X2171406Y1640690D01*
X2163610Y1637852D01*
X2156092Y1634346D01*
X2148908Y1630199D01*
X2142113Y1625440D01*
X2135758Y1620108D01*
X2129892Y1614242D01*
X2124560Y1607888D01*
X2119802Y1601092D01*
X2115654Y1593908D01*
X2112148Y1586390D01*
X2109311Y1578595D01*
X2107164Y1570582D01*
X2105723Y1562412D01*
X2105000Y1554148D01*
Y1545853D01*
X2105723Y1537589D01*
X2107164Y1529419D01*
X2109311Y1521406D01*
X2112148Y1513611D01*
X2115654Y1506093D01*
X2119802Y1498909D01*
X2124560Y1492113D01*
X2129892Y1485759D01*
X2135758Y1479893D01*
X2142113Y1474560D01*
X2148908Y1469802D01*
X2156092Y1465654D01*
X2163610Y1462148D01*
X2171406Y1459311D01*
X2179419Y1457164D01*
X2187588Y1455724D01*
X2195852Y1455001D01*
X2204148D01*
X2212412Y1455724D01*
X2220581Y1457164D01*
X2228594Y1459311D01*
X2236389Y1462148D01*
X2243908Y1465654D01*
X2251092Y1469802D01*
X2257887Y1474560D01*
X2264242Y1479893D01*
X2270108Y1485759D01*
X2275440Y1492113D01*
X2280198Y1498909D01*
X2284346Y1506093D01*
X2287852Y1513611D01*
X2290689Y1521406D01*
X2292836Y1529419D01*
X2294277Y1537589D01*
X2295000Y1545853D01*
Y1554148D01*
X2294277Y1562412D01*
X2292836Y1570582D01*
X2290689Y1578595D01*
X2287852Y1586390D01*
X2284346Y1593908D01*
X2280198Y1601092D01*
X2275440Y1607888D01*
X2270108Y1614242D01*
X2264242Y1620108D01*
X2257887Y1625440D01*
X2251092Y1630199D01*
X2243908Y1634346D01*
X2236389Y1637852D01*
X2228594Y1640690D01*
X2220581Y1642837D01*
X2212412Y1644277D01*
X2204148Y1645000D01*
D02*
G37*
G36*
X3540000Y2520097D02*
X3265000D01*
X3261079Y2519711D01*
X3257309Y2518567D01*
X3253835Y2516710D01*
X3250790Y2514211D01*
X3248290Y2511165D01*
X3246433Y2507691D01*
X3245289Y2503921D01*
X3244903Y2500000D01*
Y1100000D01*
X3245289Y1096079D01*
X3246433Y1092309D01*
X3248290Y1088835D01*
X3250790Y1085790D01*
X3253835Y1083290D01*
X3257309Y1081433D01*
X3261079Y1080289D01*
X3265000Y1079903D01*
X3540000D01*
X3543921Y1080289D01*
X3547691Y1081433D01*
X3551165Y1083290D01*
X3554211Y1085790D01*
X3556710Y1088835D01*
X3558567Y1092309D01*
X3559711Y1096079D01*
X3560097Y1100000D01*
Y2500000D01*
X3559711Y2503921D01*
X3558567Y2507691D01*
X3556710Y2511165D01*
X3554211Y2514211D01*
X3551165Y2516710D01*
X3547691Y2518567D01*
X3543921Y2519711D01*
X3540000Y2520097D01*
D02*
G37*
G36*
X2204148Y545000D02*
X2195852D01*
X2187588Y544277D01*
X2179419Y542836D01*
X2171406Y540689D01*
X2163610Y537852D01*
X2156092Y534346D01*
X2148908Y530198D01*
X2142113Y525440D01*
X2135758Y520108D01*
X2129892Y514242D01*
X2124560Y507887D01*
X2119802Y501092D01*
X2115654Y493908D01*
X2112148Y486390D01*
X2109311Y478594D01*
X2107164Y470581D01*
X2105723Y462412D01*
X2105000Y454148D01*
Y445852D01*
X2105723Y437588D01*
X2107164Y429419D01*
X2109311Y421406D01*
X2112148Y413611D01*
X2115654Y406092D01*
X2119802Y398908D01*
X2124560Y392113D01*
X2129892Y385758D01*
X2135758Y379892D01*
X2142113Y374560D01*
X2148908Y369802D01*
X2156092Y365654D01*
X2163610Y362148D01*
X2171406Y359311D01*
X2179419Y357164D01*
X2187588Y355723D01*
X2195852Y355000D01*
X2204148D01*
X2212412Y355723D01*
X2220581Y357164D01*
X2228594Y359311D01*
X2236389Y362148D01*
X2243908Y365654D01*
X2251092Y369802D01*
X2257887Y374560D01*
X2264242Y379892D01*
X2270108Y385758D01*
X2275440Y392113D01*
X2280198Y398908D01*
X2284346Y406092D01*
X2287852Y413611D01*
X2290689Y421406D01*
X2292836Y429419D01*
X2294277Y437588D01*
X2295000Y445852D01*
Y454148D01*
X2294277Y462412D01*
X2292836Y470581D01*
X2290689Y478594D01*
X2287852Y486390D01*
X2284346Y493908D01*
X2280198Y501092D01*
X2275440Y507887D01*
X2270108Y514242D01*
X2264242Y520108D01*
X2257887Y525440D01*
X2251092Y530198D01*
X2243908Y534346D01*
X2236389Y537852D01*
X2228594Y540689D01*
X2220581Y542836D01*
X2212412Y544277D01*
X2204148Y545000D01*
D02*
G37*
%LPD*%
G36*
X6880000Y2894555D02*
X6872182Y2891095D01*
X6856774Y2883683D01*
X6841693Y2875627D01*
X6826965Y2866943D01*
X6812617Y2857644D01*
X6798674Y2847748D01*
X6785161Y2837273D01*
X6772102Y2826236D01*
X6759521Y2814658D01*
X6747440Y2802560D01*
X6735880Y2789962D01*
X6724862Y2776887D01*
X6714406Y2763359D01*
X6704530Y2749402D01*
X6695252Y2735041D01*
X6686588Y2720300D01*
X6678554Y2705207D01*
X6671165Y2689789D01*
X6664433Y2674072D01*
X6658370Y2658085D01*
X6655593Y2650000D01*
X6300000D01*
Y3015000D01*
X6880000D01*
Y2894555D01*
D02*
G37*
G36*
X3540000Y1100000D02*
X3265000D01*
Y2500000D01*
X3540000D01*
Y1100000D01*
D02*
G37*
D54*
X2200000Y2050000D02*
D03*
Y950000D02*
D03*
Y3150000D02*
D03*
D55*
X5192000Y7023000D02*
D03*
Y7277000D02*
D03*
X5446000D02*
D03*
X5700000D02*
D03*
X5954000D02*
D03*
X6208000D02*
D03*
X1165000Y2400000D02*
D03*
Y2100000D02*
D03*
Y1800000D02*
D03*
X8735000Y1900000D02*
D03*
Y2500000D02*
D03*
X9035000Y1900000D02*
D03*
Y2500000D02*
D03*
D57*
X250000Y3877000D02*
D03*
D58*
X7247000Y5767000D02*
D03*
X2653000D02*
D03*
D60*
X600000Y7100000D02*
D03*
X9300000Y600000D02*
D03*
Y7100000D02*
D03*
X600000Y600000D02*
D03*
D61*
X5624000Y3310000D02*
D03*
X5800000Y3245000D02*
D03*
X5192500Y3070000D02*
D03*
X8120000Y5255000D02*
D03*
X7700000Y4057500D02*
D03*
X7900000Y4140000D02*
D03*
X7900000Y4740000D02*
D03*
X7900000Y5340000D02*
D03*
X9445000Y6100000D02*
D03*
X8830000Y6037500D02*
D03*
X6740000Y2885000D02*
D03*
X6640000D02*
D03*
Y2785000D02*
D03*
X6340000Y2685000D02*
D03*
X6540000D02*
D03*
X6440000Y2685000D02*
D03*
Y2885000D02*
D03*
X6540000D02*
D03*
X6340000D02*
D03*
X6440000Y2785000D02*
D03*
X6340000D02*
D03*
X6540000D02*
D03*
X6340000Y2985000D02*
D03*
X6540000D02*
D03*
X6440000D02*
D03*
X6640000D02*
D03*
X6840000D02*
D03*
X6740000D02*
D03*
X605881Y3089562D02*
D03*
Y3189562D02*
D03*
X775000Y5800000D02*
D03*
Y5200000D02*
D03*
X2905000Y6400000D02*
D03*
X1680000Y5909500D02*
D03*
X1680000Y4709500D02*
D03*
X2260000Y3862501D02*
D03*
X6740000Y3195000D02*
D03*
X8157500Y6000000D02*
D03*
Y7200000D02*
D03*
X7700000Y4657500D02*
D03*
X7700000Y5257500D02*
D03*
X2150000Y3625000D02*
D03*
X2000000Y3710000D02*
D03*
X1500000Y5207500D02*
D03*
Y5807500D02*
D03*
X1500000Y6407500D02*
D03*
X1345000Y7200000D02*
D03*
Y7400000D02*
D03*
X3050000Y6392501D02*
D03*
X3450000D02*
D03*
X3200000Y6210000D02*
D03*
X3299999D02*
D03*
X3600000Y6210000D02*
D03*
X3700000D02*
D03*
X3946000Y6943500D02*
D03*
X509499Y3550000D02*
D03*
X4186000Y7016000D02*
D03*
X4241000Y7156000D02*
D03*
X4281000Y7016000D02*
D03*
X3506000Y7056001D02*
D03*
Y6956001D02*
D03*
Y6716001D02*
D03*
Y6816001D02*
D03*
X6478000Y3800000D02*
D03*
Y4000000D02*
D03*
X6578000Y3800000D02*
D03*
Y3900000D02*
D03*
Y3700000D02*
D03*
Y4000000D02*
D03*
X6678000Y3900000D02*
D03*
Y3700000D02*
D03*
Y3800000D02*
D03*
X6778000Y3900000D02*
D03*
Y3800000D02*
D03*
Y3700000D02*
D03*
Y4000000D02*
D03*
X6878000Y3800000D02*
D03*
Y3700000D02*
D03*
Y3900000D02*
D03*
X4710000Y4000000D02*
D03*
Y4100000D02*
D03*
Y4200000D02*
D03*
X6278000Y4100000D02*
D03*
Y4200000D02*
D03*
X6378000Y4100000D02*
D03*
Y4200000D02*
D03*
X6478000Y4100000D02*
D03*
Y4200000D02*
D03*
X6578000Y4100000D02*
D03*
Y4200000D02*
D03*
X6678000Y4000000D02*
D03*
X6678000Y4100000D02*
D03*
Y4200000D02*
D03*
X6778000Y4100000D02*
D03*
Y4200000D02*
D03*
X6878000Y4000000D02*
D03*
Y4100000D02*
D03*
Y4200000D02*
D03*
X6378000Y3700000D02*
D03*
Y4000000D02*
D03*
X6478000Y3700000D02*
D03*
X6378000Y3900000D02*
D03*
X6478000D02*
D03*
X4610000Y3700000D02*
D03*
Y3900000D02*
D03*
X4710000Y3800000D02*
D03*
Y3700000D02*
D03*
Y3900000D02*
D03*
X6278000Y3900000D02*
D03*
Y3700000D02*
D03*
Y3800000D02*
D03*
Y4000000D02*
D03*
X6378000Y3800000D02*
D03*
X4110000Y3700000D02*
D03*
Y3800000D02*
D03*
Y3900000D02*
D03*
X4210000Y3700000D02*
D03*
Y3800000D02*
D03*
Y3900000D02*
D03*
X4310000Y3700000D02*
D03*
Y3800000D02*
D03*
Y3900000D02*
D03*
X4410000Y3700000D02*
D03*
Y3800000D02*
D03*
Y3900000D02*
D03*
X4510000Y3700000D02*
D03*
Y3800000D02*
D03*
Y3900000D02*
D03*
X4610000Y3800000D02*
D03*
X4210000Y4200000D02*
D03*
X4110000Y4000000D02*
D03*
Y4100000D02*
D03*
Y4200000D02*
D03*
X4210000Y4000000D02*
D03*
Y4100000D02*
D03*
X4310000Y4100000D02*
D03*
Y4200000D02*
D03*
X4310000Y4000000D02*
D03*
X4610000Y4200000D02*
D03*
X4410000Y4000000D02*
D03*
Y4100000D02*
D03*
Y4200000D02*
D03*
X4610000Y4100000D02*
D03*
X4510000Y4000000D02*
D03*
Y4100000D02*
D03*
Y4200000D02*
D03*
X4610000Y4000000D02*
D03*
X655899Y3865000D02*
D03*
X540000Y3975000D02*
D03*
X913381Y4239561D02*
D03*
X3150001Y400000D02*
D03*
Y500000D02*
D03*
Y300000D02*
D03*
X3250000Y400000D02*
D03*
Y300000D02*
D03*
Y500000D02*
D03*
X3350000Y400000D02*
D03*
Y500000D02*
D03*
Y300000D02*
D03*
X6840000Y3195000D02*
D03*
X6640000D02*
D03*
X6440000D02*
D03*
X6540000D02*
D03*
X6340000D02*
D03*
X6547500Y400000D02*
D03*
X6447500D02*
D03*
X7229000Y350000D02*
D03*
Y450000D02*
D03*
X7671000Y350000D02*
D03*
Y450000D02*
D03*
X8100000Y979000D02*
D03*
X8200000D02*
D03*
Y1420999D02*
D03*
X8100000D02*
D03*
X8150000Y1980000D02*
D03*
X8250000D02*
D03*
X7800000D02*
D03*
X7900000D02*
D03*
X7450000Y1979999D02*
D03*
X7550000D02*
D03*
X7100000Y1979999D02*
D03*
X7200000D02*
D03*
X6540000Y3395000D02*
D03*
X6340000D02*
D03*
X6440000D02*
D03*
X6340000Y3295000D02*
D03*
X6540000D02*
D03*
X6440000D02*
D03*
Y3495000D02*
D03*
X6540000Y3495000D02*
D03*
X6340000D02*
D03*
X6840000Y3395000D02*
D03*
X6640000D02*
D03*
X6740000D02*
D03*
X6640000Y3295000D02*
D03*
X6840000D02*
D03*
X6740000D02*
D03*
Y3495000D02*
D03*
X6640000Y3495000D02*
D03*
X3550000Y300000D02*
D03*
Y500000D02*
D03*
Y400000D02*
D03*
X3450000Y500000D02*
D03*
Y300000D02*
D03*
Y400000D02*
D03*
X3950000Y300000D02*
D03*
Y500000D02*
D03*
X3950000Y400000D02*
D03*
X3850000Y500000D02*
D03*
Y300000D02*
D03*
Y400000D02*
D03*
X3750000D02*
D03*
Y300000D02*
D03*
Y500000D02*
D03*
X3650000Y400000D02*
D03*
X3650000Y300000D02*
D03*
Y500000D02*
D03*
X9100000Y5650000D02*
D03*
X9350000Y5604999D02*
D03*
X7200000Y2420000D02*
D03*
X7100000D02*
D03*
X7550000Y2419999D02*
D03*
X7450000D02*
D03*
X7900000Y2420000D02*
D03*
X7800000D02*
D03*
X8250000D02*
D03*
X8150000D02*
D03*
X3502500Y2250000D02*
D03*
X3302500D02*
D03*
X3402500D02*
D03*
X3502500Y2150000D02*
D03*
X3302500D02*
D03*
X3402500D02*
D03*
X3502500Y1850000D02*
D03*
X3302500D02*
D03*
X3402500D02*
D03*
X3502500Y1750000D02*
D03*
X3302500D02*
D03*
X3402500D02*
D03*
X3502500Y1450000D02*
D03*
X3302500D02*
D03*
X3402500D02*
D03*
X3502500Y1350000D02*
D03*
X3302500D02*
D03*
X3402500D02*
D03*
Y1250000D02*
D03*
X3302500D02*
D03*
X3502500D02*
D03*
X3402500Y1150000D02*
D03*
X3502500D02*
D03*
X3302500D02*
D03*
X3402500Y1650000D02*
D03*
X3302500D02*
D03*
X3502500D02*
D03*
X3402500Y1550000D02*
D03*
X3502500D02*
D03*
X3302500D02*
D03*
X3402500Y2050000D02*
D03*
X3302500D02*
D03*
X3502500D02*
D03*
X3402500Y1950000D02*
D03*
X3502500D02*
D03*
X3302500D02*
D03*
Y2350000D02*
D03*
X3502500D02*
D03*
X3402500D02*
D03*
X3502500Y2450000D02*
D03*
X3302500D02*
D03*
X3402500D02*
D03*
X170000Y6434999D02*
D03*
X270000D02*
D03*
X169999Y4565000D02*
D03*
X269999D02*
D03*
X1075881Y3089562D02*
D03*
Y3189562D02*
D03*
X1075881Y3329562D02*
D03*
Y3429562D02*
D03*
X605881Y3429562D02*
D03*
X1068381Y3649562D02*
D03*
X745881Y3845562D02*
D03*
X925881Y3845562D02*
D03*
X605881Y3329562D02*
D03*
X788381Y3679562D02*
D03*
%TF.MD5,7bc63406ec1ef0a8454df2f5fa9014e9*%
M02*
