%TF.GenerationSoftware,Altium Limited,Altium Designer,25.7.1 (20)*%
G04 Layer_Color=16711935*
%FSLAX45Y45*%
%MOMM*%
%TF.SameCoordinates,F992C923-051B-4CFE-8532-EDB8D3AF3AE8*%
%TF.FilePolarity,Negative*%
%TF.FileFunction,Soldermask,Bot*%
%TF.Part,Single*%
G01*
G75*
%TA.AperFunction,ComponentPad*%
%ADD29R,1.41000X1.41000*%
%ADD30C,1.41000*%
%TA.AperFunction,ViaPad*%
%ADD31C,5.10200*%
%TA.AperFunction,SMDPad,CuDef*%
%ADD32R,0.75200X0.90200*%
D29*
X15100002Y20450000D02*
D03*
D30*
X14900002D02*
D03*
X14700002D02*
D03*
X14500002D02*
D03*
X14300002D02*
D03*
X14100002D02*
D03*
X13900002D02*
D03*
X13700002D02*
D03*
X13500000D02*
D03*
X13300000D02*
D03*
D31*
X14200000Y10600000D02*
D03*
X15400000D02*
D03*
Y12200000D02*
D03*
X14200000D02*
D03*
X13000000D02*
D03*
X10600000Y10600000D02*
D03*
X11800000D02*
D03*
X13000000D02*
D03*
X11800000Y12200000D02*
D03*
X10600000D02*
D03*
Y13800000D02*
D03*
X11800000D02*
D03*
X13000000D02*
D03*
X14200000D02*
D03*
X15400000D02*
D03*
Y15750000D02*
D03*
X14200000D02*
D03*
X13000000D02*
D03*
X11800000D02*
D03*
X10600000D02*
D03*
Y17700000D02*
D03*
X11800000D02*
D03*
X13000000D02*
D03*
X14200000D02*
D03*
X15400000D02*
D03*
Y19300000D02*
D03*
X14200000D02*
D03*
X13000000D02*
D03*
X11800000D02*
D03*
X10600000D02*
D03*
D32*
X13300000Y19955000D02*
D03*
Y19845000D02*
D03*
X13499998Y19955000D02*
D03*
Y19845000D02*
D03*
X13700000Y19955000D02*
D03*
Y19845000D02*
D03*
X14099998Y19955000D02*
D03*
Y19845000D02*
D03*
X14300000Y19955000D02*
D03*
Y19845000D02*
D03*
X14499998Y19955000D02*
D03*
Y19845000D02*
D03*
X14700000Y19955000D02*
D03*
Y19845000D02*
D03*
X14899998Y19955000D02*
D03*
Y19845000D02*
D03*
%TF.MD5,d67501f5724ad97fd3e1f53e0fc19a83*%
M02*
