%TF.GenerationSoftware,Altium Limited,Altium Designer,25.7.1 (20)*%
G04 Layer_Color=65535*
%FSLAX45Y45*%
%MOMM*%
%TF.SameCoordinates,F992C923-051B-4CFE-8532-EDB8D3AF3AE8*%
%TF.FilePolarity,Positive*%
%TF.FileFunction,Legend,Top*%
%TF.Part,Single*%
G01*
G75*
%TA.AperFunction,NonConductor*%
%ADD21C,0.30000*%
%ADD22C,0.40000*%
%ADD23C,0.20000*%
%ADD24C,0.25000*%
D21*
X11285000Y19850000D02*
G03*
X11285000Y19850000I-15000J0D01*
G01*
D22*
X11390000Y20060001D02*
G03*
X11390000Y20060001I-20000J0D01*
G01*
D23*
X11280000Y20139999D02*
G03*
X11280000Y20260001I0J60000D01*
G01*
Y19980000D02*
Y20139999D01*
Y20260001D02*
Y20420000D01*
X12320000D01*
X11280000Y19980000D02*
X12320000D01*
Y20420000D01*
X15089999Y18210001D02*
Y18789999D01*
X14510001Y18210001D02*
X15089999D01*
X14510001D02*
Y18789999D01*
X15089999D01*
Y16610001D02*
Y17189999D01*
X14510001Y16610001D02*
X15089999D01*
X14510001D02*
Y17189999D01*
X15089999D01*
Y14310001D02*
Y14889999D01*
X14510001Y14310001D02*
X15089999D01*
X14510001D02*
Y14889999D01*
X15089999D01*
Y12710000D02*
Y13289999D01*
X14510001Y12710000D02*
X15089999D01*
X14510001D02*
Y13289999D01*
X15089999D01*
Y11110000D02*
Y11690000D01*
X14510001Y11110000D02*
X15089999D01*
X14510001D02*
Y11690000D01*
X15089999D01*
X13889999Y18210001D02*
Y18789999D01*
X13310001Y18210001D02*
X13889999D01*
X13310001D02*
Y18789999D01*
X13889999D01*
Y16610001D02*
Y17189999D01*
X13310001Y16610001D02*
X13889999D01*
X13310001D02*
Y17189999D01*
X13889999D01*
Y14310001D02*
Y14889999D01*
X13310001Y14310001D02*
X13889999D01*
X13310001D02*
Y14889999D01*
X13889999D01*
Y12710000D02*
Y13289999D01*
X13310001Y12710000D02*
X13889999D01*
X13310001D02*
Y13289999D01*
X13889999D01*
Y11110000D02*
Y11690000D01*
X13310001Y11110000D02*
X13889999D01*
X13310001D02*
Y11690000D01*
X13889999D01*
X12690000Y18210001D02*
Y18789999D01*
X12110000Y18210001D02*
X12690000D01*
X12110000D02*
Y18789999D01*
X12690000D01*
X12690000Y16610001D02*
Y17189999D01*
X12110000Y16610001D02*
X12690000D01*
X12110000D02*
Y17189999D01*
X12690000D01*
Y14310001D02*
Y14889999D01*
X12110000Y14310001D02*
X12690000D01*
X12110000D02*
Y14889999D01*
X12690000D01*
X12690000Y12710000D02*
Y13289999D01*
X12110000Y12710000D02*
X12690000D01*
X12110000D02*
Y13289999D01*
X12690000D01*
Y11110000D02*
Y11690000D01*
X12110000Y11110000D02*
X12690000D01*
X12110000D02*
Y11690000D01*
X12690000D01*
X11490000Y18210001D02*
Y18789999D01*
X10910000Y18210001D02*
X11490000D01*
X10910000D02*
Y18789999D01*
X11490000D01*
Y16610001D02*
Y17189999D01*
X10910000Y16610001D02*
X11490000D01*
X10910000D02*
Y17189999D01*
X11490000D01*
Y14310001D02*
Y14889999D01*
X10910000Y14310001D02*
X11490000D01*
X10910000D02*
Y14889999D01*
X11490000D01*
Y12710000D02*
Y13289999D01*
X10910000Y12710000D02*
X11490000D01*
X10910000D02*
Y13289999D01*
X11490000D01*
Y11110000D02*
Y11690000D01*
X10910000Y11110000D02*
X11490000D01*
X10910000D02*
Y11690000D01*
X11490000D01*
X11080000Y20164999D02*
Y20235001D01*
X10920000Y20164999D02*
Y20235001D01*
D24*
X12511448Y20274985D02*
Y20167863D01*
X12518589Y20146440D01*
X12532872Y20132156D01*
X12554296Y20125015D01*
X12568578D01*
X12590002Y20132156D01*
X12604285Y20146440D01*
X12611426Y20167863D01*
Y20274985D01*
X12652846Y20246419D02*
X12667129Y20253560D01*
X12688552Y20274985D01*
Y20125015D01*
X12297058Y13699763D02*
X12282776Y13714046D01*
X12261352Y13721188D01*
X12232787D01*
X12211363Y13714046D01*
X12197080Y13699763D01*
Y13685481D01*
X12204221Y13671198D01*
X12211363Y13664056D01*
X12225645Y13656915D01*
X12268493Y13642633D01*
X12282776Y13635492D01*
X12289917Y13628351D01*
X12297058Y13614069D01*
Y13592644D01*
X12282776Y13578362D01*
X12261352Y13571220D01*
X12232787D01*
X12211363Y13578362D01*
X12197080Y13592644D01*
X12330623Y13721188D02*
X12366329Y13571220D01*
X12402036Y13721188D02*
X12366329Y13571220D01*
X12402036Y13721188D02*
X12437743Y13571220D01*
X12473449Y13721188D02*
X12437743Y13571220D01*
X12603421Y13721188D02*
X12532008Y13571220D01*
X12503443Y13721188D02*
X12603421D01*
X13442598Y19198865D02*
X13428316Y19213145D01*
X13406892Y19220288D01*
X13378326D01*
X13356903Y19213145D01*
X13342619Y19198865D01*
Y19184581D01*
X13349760Y19170297D01*
X13356903Y19163158D01*
X13371185Y19156017D01*
X13414034Y19141733D01*
X13428316Y19134592D01*
X13435457Y19127451D01*
X13442598Y19113168D01*
Y19091743D01*
X13428316Y19077461D01*
X13406892Y19070320D01*
X13378326D01*
X13356903Y19077461D01*
X13342619Y19091743D01*
X13476163Y19220288D02*
X13511868Y19070320D01*
X13547575Y19220288D02*
X13511868Y19070320D01*
X13547575Y19220288D02*
X13583282Y19070320D01*
X13618990Y19220288D02*
X13583282Y19070320D01*
X13648982Y19191724D02*
X13663266Y19198865D01*
X13684689Y19220288D01*
Y19070320D01*
X13844655Y19220288D02*
X13773242D01*
X13766100Y19156017D01*
X13773242Y19163158D01*
X13794666Y19170297D01*
X13816090D01*
X13837514Y19163158D01*
X13851797Y19148875D01*
X13858939Y19127451D01*
Y19113168D01*
X13851797Y19091743D01*
X13837514Y19077461D01*
X13816090Y19070320D01*
X13794666D01*
X13773242Y19077461D01*
X13766100Y19084602D01*
X13758958Y19098885D01*
X11095638Y19198865D02*
X11081356Y19213145D01*
X11059932Y19220288D01*
X11031367D01*
X11009943Y19213145D01*
X10995660Y19198865D01*
Y19184581D01*
X11002801Y19170297D01*
X11009943Y19163158D01*
X11024225Y19156017D01*
X11067073Y19141733D01*
X11081356Y19134592D01*
X11088497Y19127451D01*
X11095638Y19113168D01*
Y19091743D01*
X11081356Y19077461D01*
X11059932Y19070320D01*
X11031367D01*
X11009943Y19077461D01*
X10995660Y19091743D01*
X11129203Y19220288D02*
X11164909Y19070320D01*
X11200616Y19220288D02*
X11164909Y19070320D01*
X11200616Y19220288D02*
X11236323Y19070320D01*
X11272029Y19220288D02*
X11236323Y19070320D01*
X11387719Y19220288D02*
X11316306D01*
X11309164Y19156017D01*
X11316306Y19163158D01*
X11337729Y19170297D01*
X11359154D01*
X11380577Y19163158D01*
X11394860Y19148875D01*
X11402001Y19127451D01*
Y19113168D01*
X11394860Y19091743D01*
X11380577Y19077461D01*
X11359154Y19070320D01*
X11337729D01*
X11316306Y19077461D01*
X11309164Y19084602D01*
X11302023Y19098885D01*
X12299598Y17598663D02*
X12285316Y17612946D01*
X12263892Y17620088D01*
X12235327D01*
X12213903Y17612946D01*
X12199620Y17598663D01*
Y17584381D01*
X12206761Y17570097D01*
X12213903Y17562956D01*
X12228185Y17555817D01*
X12271033Y17541533D01*
X12285316Y17534392D01*
X12292457Y17527251D01*
X12299598Y17512968D01*
Y17491544D01*
X12285316Y17477261D01*
X12263892Y17470120D01*
X12235327D01*
X12213903Y17477261D01*
X12199620Y17491544D01*
X12333163Y17620088D02*
X12368869Y17470120D01*
X12404576Y17620088D02*
X12368869Y17470120D01*
X12404576Y17620088D02*
X12440283Y17470120D01*
X12475989Y17620088D02*
X12440283Y17470120D01*
X12598820Y17570097D02*
X12591679Y17548676D01*
X12577396Y17534392D01*
X12555972Y17527251D01*
X12548831D01*
X12527407Y17534392D01*
X12513124Y17548676D01*
X12505983Y17570097D01*
Y17577240D01*
X12513124Y17598663D01*
X12527407Y17612946D01*
X12548831Y17620088D01*
X12555972D01*
X12577396Y17612946D01*
X12591679Y17598663D01*
X12598820Y17570097D01*
Y17534392D01*
X12591679Y17498685D01*
X12577396Y17477261D01*
X12555972Y17470120D01*
X12541689D01*
X12520266Y17477261D01*
X12513124Y17491544D01*
X12297058Y15299963D02*
X12282776Y15314246D01*
X12261352Y15321388D01*
X12232787D01*
X12211363Y15314246D01*
X12197080Y15299963D01*
Y15285681D01*
X12204221Y15271397D01*
X12211363Y15264256D01*
X12225645Y15257117D01*
X12268493Y15242833D01*
X12282776Y15235692D01*
X12289917Y15228551D01*
X12297058Y15214268D01*
Y15192844D01*
X12282776Y15178561D01*
X12261352Y15171420D01*
X12232787D01*
X12211363Y15178561D01*
X12197080Y15192844D01*
X12330623Y15321388D02*
X12366329Y15171420D01*
X12402036Y15321388D02*
X12366329Y15171420D01*
X12402036Y15321388D02*
X12437743Y15171420D01*
X12473449Y15321388D02*
X12437743Y15171420D01*
X12539149Y15321388D02*
X12517726Y15314246D01*
X12510584Y15299963D01*
Y15285681D01*
X12517726Y15271397D01*
X12532008Y15264256D01*
X12560574Y15257117D01*
X12581997Y15249976D01*
X12596280Y15235692D01*
X12603421Y15221410D01*
Y15199985D01*
X12596280Y15185703D01*
X12589139Y15178561D01*
X12567715Y15171420D01*
X12539149D01*
X12517726Y15178561D01*
X12510584Y15185703D01*
X12503443Y15199985D01*
Y15221410D01*
X12510584Y15235692D01*
X12524867Y15249976D01*
X12546291Y15257117D01*
X12574856Y15264256D01*
X12589139Y15271397D01*
X12596280Y15285681D01*
Y15299963D01*
X12589139Y15314246D01*
X12567715Y15321388D01*
X12539149D01*
X12241178Y19198865D02*
X12226896Y19213145D01*
X12205472Y19220288D01*
X12176907D01*
X12155483Y19213145D01*
X12141200Y19198865D01*
Y19184581D01*
X12148341Y19170297D01*
X12155483Y19163158D01*
X12169765Y19156017D01*
X12212613Y19141733D01*
X12226896Y19134592D01*
X12234037Y19127451D01*
X12241178Y19113168D01*
Y19091743D01*
X12226896Y19077461D01*
X12205472Y19070320D01*
X12176907D01*
X12155483Y19077461D01*
X12141200Y19091743D01*
X12274743Y19220288D02*
X12310449Y19070320D01*
X12346156Y19220288D02*
X12310449Y19070320D01*
X12346156Y19220288D02*
X12381863Y19070320D01*
X12417569Y19220288D02*
X12381863Y19070320D01*
X12447563Y19191724D02*
X12461846Y19198865D01*
X12483269Y19220288D01*
Y19070320D01*
X12600387Y19220288D02*
X12578963Y19213145D01*
X12564680Y19191724D01*
X12557539Y19156017D01*
Y19134592D01*
X12564680Y19098885D01*
X12578963Y19077461D01*
X12600387Y19070320D01*
X12614670D01*
X12636094Y19077461D01*
X12650377Y19098885D01*
X12657518Y19134592D01*
Y19156017D01*
X12650377Y19191724D01*
X12636094Y19213145D01*
X12614670Y19220288D01*
X12600387D01*
X14628778Y19198865D02*
X14614496Y19213145D01*
X14593073Y19220288D01*
X14564507D01*
X14543083Y19213145D01*
X14528799Y19198865D01*
Y19184581D01*
X14535941Y19170297D01*
X14543083Y19163158D01*
X14557365Y19156017D01*
X14600214Y19141733D01*
X14614496Y19134592D01*
X14621637Y19127451D01*
X14628778Y19113168D01*
Y19091743D01*
X14614496Y19077461D01*
X14593073Y19070320D01*
X14564507D01*
X14543083Y19077461D01*
X14528799Y19091743D01*
X14662343Y19220288D02*
X14698048Y19070320D01*
X14733755Y19220288D02*
X14698048Y19070320D01*
X14733755Y19220288D02*
X14769463Y19070320D01*
X14805170Y19220288D02*
X14769463Y19070320D01*
X14842303Y19184581D02*
Y19191724D01*
X14849446Y19206004D01*
X14856587Y19213145D01*
X14870869Y19220288D01*
X14899435D01*
X14913718Y19213145D01*
X14920859Y19206004D01*
X14928000Y19191724D01*
Y19177440D01*
X14920859Y19163158D01*
X14906577Y19141733D01*
X14835162Y19070320D01*
X14935141D01*
X15011554Y19220288D02*
X14990131Y19213145D01*
X14975847Y19191724D01*
X14968706Y19156017D01*
Y19134592D01*
X14975847Y19098885D01*
X14990131Y19077461D01*
X15011554Y19070320D01*
X15025836D01*
X15047260Y19077461D01*
X15061543Y19098885D01*
X15068684Y19134592D01*
Y19156017D01*
X15061543Y19191724D01*
X15047260Y19213145D01*
X15025836Y19220288D01*
X15011554D01*
X13437518Y17598663D02*
X13423236Y17612946D01*
X13401813Y17620088D01*
X13373247D01*
X13351823Y17612946D01*
X13337540Y17598663D01*
Y17584381D01*
X13344681Y17570097D01*
X13351823Y17562956D01*
X13366106Y17555817D01*
X13408952Y17541533D01*
X13423236Y17534392D01*
X13430377Y17527251D01*
X13437518Y17512968D01*
Y17491544D01*
X13423236Y17477261D01*
X13401813Y17470120D01*
X13373247D01*
X13351823Y17477261D01*
X13337540Y17491544D01*
X13471083Y17620088D02*
X13506789Y17470120D01*
X13542496Y17620088D02*
X13506789Y17470120D01*
X13542496Y17620088D02*
X13578203Y17470120D01*
X13613908Y17620088D02*
X13578203Y17470120D01*
X13643903Y17591524D02*
X13658186Y17598663D01*
X13679610Y17620088D01*
Y17470120D01*
X13825293Y17620088D02*
X13753879Y17520110D01*
X13860999D01*
X13825293Y17620088D02*
Y17470120D01*
X11093098Y17598663D02*
X11078816Y17612946D01*
X11057392Y17620088D01*
X11028827D01*
X11007403Y17612946D01*
X10993120Y17598663D01*
Y17584381D01*
X11000261Y17570097D01*
X11007403Y17562956D01*
X11021685Y17555817D01*
X11064533Y17541533D01*
X11078816Y17534392D01*
X11085957Y17527251D01*
X11093098Y17512968D01*
Y17491544D01*
X11078816Y17477261D01*
X11057392Y17470120D01*
X11028827D01*
X11007403Y17477261D01*
X10993120Y17491544D01*
X11126663Y17620088D02*
X11162369Y17470120D01*
X11198076Y17620088D02*
X11162369Y17470120D01*
X11198076Y17620088D02*
X11233783Y17470120D01*
X11269489Y17620088D02*
X11233783Y17470120D01*
X11370896Y17620088D02*
X11299483Y17520110D01*
X11406603D01*
X11370896Y17620088D02*
Y17470120D01*
X14646558Y17598663D02*
X14632275Y17612946D01*
X14610852Y17620088D01*
X14582288D01*
X14560863Y17612946D01*
X14546581Y17598663D01*
Y17584381D01*
X14553722Y17570097D01*
X14560863Y17562956D01*
X14575145Y17555817D01*
X14617993Y17541533D01*
X14632275Y17534392D01*
X14639417Y17527251D01*
X14646558Y17512968D01*
Y17491544D01*
X14632275Y17477261D01*
X14610852Y17470120D01*
X14582288D01*
X14560863Y17477261D01*
X14546581Y17491544D01*
X14680122Y17620088D02*
X14715829Y17470120D01*
X14751537Y17620088D02*
X14715829Y17470120D01*
X14751537Y17620088D02*
X14787244Y17470120D01*
X14822949Y17620088D02*
X14787244Y17470120D01*
X14852943Y17591524D02*
X14867226Y17598663D01*
X14888649Y17620088D01*
Y17470120D01*
X15055757Y17570097D02*
X15048615Y17548676D01*
X15034332Y17534392D01*
X15012909Y17527251D01*
X15005766D01*
X14984343Y17534392D01*
X14970061Y17548676D01*
X14962920Y17570097D01*
Y17577240D01*
X14970061Y17598663D01*
X14984343Y17612946D01*
X15005766Y17620088D01*
X15012909D01*
X15034332Y17612946D01*
X15048615Y17598663D01*
X15055757Y17570097D01*
Y17534392D01*
X15048615Y17498685D01*
X15034332Y17477261D01*
X15012909Y17470120D01*
X14998627D01*
X14977202Y17477261D01*
X14970061Y17491544D01*
X13442598Y13699763D02*
X13428316Y13714046D01*
X13406892Y13721188D01*
X13378326D01*
X13356903Y13714046D01*
X13342619Y13699763D01*
Y13685481D01*
X13349760Y13671198D01*
X13356903Y13664056D01*
X13371185Y13656915D01*
X13414034Y13642633D01*
X13428316Y13635492D01*
X13435457Y13628351D01*
X13442598Y13614069D01*
Y13592644D01*
X13428316Y13578362D01*
X13406892Y13571220D01*
X13378326D01*
X13356903Y13578362D01*
X13342619Y13592644D01*
X13476163Y13721188D02*
X13511868Y13571220D01*
X13547575Y13721188D02*
X13511868Y13571220D01*
X13547575Y13721188D02*
X13583282Y13571220D01*
X13618990Y13721188D02*
X13583282Y13571220D01*
X13648982Y13692622D02*
X13663266Y13699763D01*
X13684689Y13721188D01*
Y13571220D01*
X13766100Y13685481D02*
Y13692622D01*
X13773242Y13706905D01*
X13780383Y13714046D01*
X13794666Y13721188D01*
X13823232D01*
X13837514Y13714046D01*
X13844655Y13706905D01*
X13851797Y13692622D01*
Y13678340D01*
X13844655Y13664056D01*
X13830373Y13642633D01*
X13758958Y13571220D01*
X13858939D01*
X14641478Y15299963D02*
X14627196Y15314246D01*
X14605772Y15321388D01*
X14577206D01*
X14555783Y15314246D01*
X14541499Y15299963D01*
Y15285681D01*
X14548640Y15271397D01*
X14555783Y15264256D01*
X14570065Y15257117D01*
X14612914Y15242833D01*
X14627196Y15235692D01*
X14634337Y15228551D01*
X14641478Y15214268D01*
Y15192844D01*
X14627196Y15178561D01*
X14605772Y15171420D01*
X14577206D01*
X14555783Y15178561D01*
X14541499Y15192844D01*
X14675043Y15321388D02*
X14710748Y15171420D01*
X14746455Y15321388D02*
X14710748Y15171420D01*
X14746455Y15321388D02*
X14782162Y15171420D01*
X14817870Y15321388D02*
X14782162Y15171420D01*
X14847862Y15292822D02*
X14862146Y15299963D01*
X14883569Y15321388D01*
Y15171420D01*
X14993546Y15321388D02*
X14972122Y15314246D01*
X14964980Y15299963D01*
Y15285681D01*
X14972122Y15271397D01*
X14986404Y15264256D01*
X15014970Y15257117D01*
X15036394Y15249976D01*
X15050677Y15235692D01*
X15057819Y15221410D01*
Y15199985D01*
X15050677Y15185703D01*
X15043535Y15178561D01*
X15022112Y15171420D01*
X14993546D01*
X14972122Y15178561D01*
X14964980Y15185703D01*
X14957838Y15199985D01*
Y15221410D01*
X14964980Y15235692D01*
X14979263Y15249976D01*
X15000687Y15257117D01*
X15029253Y15264256D01*
X15043535Y15271397D01*
X15050677Y15285681D01*
Y15299963D01*
X15043535Y15314246D01*
X15022112Y15321388D01*
X14993546D01*
X11095638Y15299963D02*
X11081356Y15314246D01*
X11059932Y15321388D01*
X11031367D01*
X11009943Y15314246D01*
X10995660Y15299963D01*
Y15285681D01*
X11002801Y15271397D01*
X11009943Y15264256D01*
X11024225Y15257117D01*
X11067073Y15242833D01*
X11081356Y15235692D01*
X11088497Y15228551D01*
X11095638Y15214268D01*
Y15192844D01*
X11081356Y15178561D01*
X11059932Y15171420D01*
X11031367D01*
X11009943Y15178561D01*
X10995660Y15192844D01*
X11129203Y15321388D02*
X11164909Y15171420D01*
X11200616Y15321388D02*
X11164909Y15171420D01*
X11200616Y15321388D02*
X11236323Y15171420D01*
X11272029Y15321388D02*
X11236323Y15171420D01*
X11316306Y15321388D02*
X11394860D01*
X11352012Y15264256D01*
X11373436D01*
X11387719Y15257117D01*
X11394860Y15249976D01*
X11402001Y15228551D01*
Y15214268D01*
X11394860Y15192844D01*
X11380577Y15178561D01*
X11359154Y15171420D01*
X11337729D01*
X11316306Y15178561D01*
X11309164Y15185703D01*
X11302023Y15199985D01*
X14641478Y13699763D02*
X14627196Y13714046D01*
X14605772Y13721188D01*
X14577206D01*
X14555783Y13714046D01*
X14541499Y13699763D01*
Y13685481D01*
X14548640Y13671198D01*
X14555783Y13664056D01*
X14570065Y13656915D01*
X14612914Y13642633D01*
X14627196Y13635492D01*
X14634337Y13628351D01*
X14641478Y13614069D01*
Y13592644D01*
X14627196Y13578362D01*
X14605772Y13571220D01*
X14577206D01*
X14555783Y13578362D01*
X14541499Y13592644D01*
X14675043Y13721188D02*
X14710748Y13571220D01*
X14746455Y13721188D02*
X14710748Y13571220D01*
X14746455Y13721188D02*
X14782162Y13571220D01*
X14817870Y13721188D02*
X14782162Y13571220D01*
X14847862Y13692622D02*
X14862146Y13699763D01*
X14883569Y13721188D01*
Y13571220D01*
X15057819Y13721188D02*
X14986404Y13571220D01*
X14957838Y13721188D02*
X15057819D01*
X12299598Y12099564D02*
X12285316Y12113846D01*
X12263892Y12120988D01*
X12235327D01*
X12213903Y12113846D01*
X12199620Y12099564D01*
Y12085281D01*
X12206761Y12070998D01*
X12213903Y12063857D01*
X12228185Y12056716D01*
X12271033Y12042433D01*
X12285316Y12035292D01*
X12292457Y12028151D01*
X12299598Y12013868D01*
Y11992444D01*
X12285316Y11978161D01*
X12263892Y11971020D01*
X12235327D01*
X12213903Y11978161D01*
X12199620Y11992444D01*
X12333163Y12120988D02*
X12368869Y11971020D01*
X12404576Y12120988D02*
X12368869Y11971020D01*
X12404576Y12120988D02*
X12440283Y11971020D01*
X12475989Y12120988D02*
X12440283Y11971020D01*
X12591679Y12099564D02*
X12584537Y12113846D01*
X12563114Y12120988D01*
X12548831D01*
X12527407Y12113846D01*
X12513124Y12092423D01*
X12505983Y12056716D01*
Y12021009D01*
X12513124Y11992444D01*
X12527407Y11978161D01*
X12548831Y11971020D01*
X12555972D01*
X12577396Y11978161D01*
X12591679Y11992444D01*
X12598820Y12013868D01*
Y12021009D01*
X12591679Y12042433D01*
X12577396Y12056716D01*
X12555972Y12063857D01*
X12548831D01*
X12527407Y12056716D01*
X12513124Y12042433D01*
X12505983Y12021009D01*
X14646558Y12099564D02*
X14632275Y12113846D01*
X14610852Y12120988D01*
X14582288D01*
X14560863Y12113846D01*
X14546581Y12099564D01*
Y12085281D01*
X14553722Y12070998D01*
X14560863Y12063857D01*
X14575145Y12056716D01*
X14617993Y12042433D01*
X14632275Y12035292D01*
X14639417Y12028151D01*
X14646558Y12013868D01*
Y11992444D01*
X14632275Y11978161D01*
X14610852Y11971020D01*
X14582288D01*
X14560863Y11978161D01*
X14546581Y11992444D01*
X14680122Y12120988D02*
X14715829Y11971020D01*
X14751537Y12120988D02*
X14715829Y11971020D01*
X14751537Y12120988D02*
X14787244Y11971020D01*
X14822949Y12120988D02*
X14787244Y11971020D01*
X14852943Y12092423D02*
X14867226Y12099564D01*
X14888649Y12120988D01*
Y11971020D01*
X15048615Y12099564D02*
X15041473Y12113846D01*
X15020050Y12120988D01*
X15005766D01*
X14984343Y12113846D01*
X14970061Y12092423D01*
X14962920Y12056716D01*
Y12021009D01*
X14970061Y11992444D01*
X14984343Y11978161D01*
X15005766Y11971020D01*
X15012909D01*
X15034332Y11978161D01*
X15048615Y11992444D01*
X15055757Y12013868D01*
Y12021009D01*
X15048615Y12042433D01*
X15034332Y12056716D01*
X15012909Y12063857D01*
X15005766D01*
X14984343Y12056716D01*
X14970061Y12042433D01*
X14962920Y12021009D01*
X13473077Y12099564D02*
X13458797Y12113846D01*
X13437372Y12120988D01*
X13408807D01*
X13387383Y12113846D01*
X13373100Y12099564D01*
Y12085281D01*
X13380241Y12070998D01*
X13387383Y12063857D01*
X13401665Y12056716D01*
X13444513Y12042433D01*
X13458797Y12035292D01*
X13465936Y12028151D01*
X13473077Y12013868D01*
Y11992444D01*
X13458797Y11978161D01*
X13437372Y11971020D01*
X13408807D01*
X13387383Y11978161D01*
X13373100Y11992444D01*
X13506644Y12120988D02*
X13542349Y11971020D01*
X13578056Y12120988D02*
X13542349Y11971020D01*
X13578056Y12120988D02*
X13613763Y11971020D01*
X13649469Y12120988D02*
X13613763Y11971020D01*
X13679463Y12092423D02*
X13693745Y12099564D01*
X13715169Y12120988D01*
Y11971020D01*
X13789439Y12092423D02*
X13803722Y12099564D01*
X13825146Y12120988D01*
Y11971020D01*
X11128658Y12099564D02*
X11114376Y12113846D01*
X11092952Y12120988D01*
X11064387D01*
X11042963Y12113846D01*
X11028680Y12099564D01*
Y12085281D01*
X11035821Y12070998D01*
X11042963Y12063857D01*
X11057245Y12056716D01*
X11100093Y12042433D01*
X11114376Y12035292D01*
X11121517Y12028151D01*
X11128658Y12013868D01*
Y11992444D01*
X11114376Y11978161D01*
X11092952Y11971020D01*
X11064387D01*
X11042963Y11978161D01*
X11028680Y11992444D01*
X11162223Y12120988D02*
X11197929Y11971020D01*
X11233636Y12120988D02*
X11197929Y11971020D01*
X11233636Y12120988D02*
X11269343Y11971020D01*
X11305049Y12120988D02*
X11269343Y11971020D01*
X11335043Y12092423D02*
X11349326Y12099564D01*
X11370749Y12120988D01*
Y11971020D01*
X13442598Y15299963D02*
X13428316Y15314246D01*
X13406892Y15321388D01*
X13378326D01*
X13356903Y15314246D01*
X13342619Y15299963D01*
Y15285681D01*
X13349760Y15271397D01*
X13356903Y15264256D01*
X13371185Y15257117D01*
X13414034Y15242833D01*
X13428316Y15235692D01*
X13435457Y15228551D01*
X13442598Y15214268D01*
Y15192844D01*
X13428316Y15178561D01*
X13406892Y15171420D01*
X13378326D01*
X13356903Y15178561D01*
X13342619Y15192844D01*
X13476163Y15321388D02*
X13511868Y15171420D01*
X13547575Y15321388D02*
X13511868Y15171420D01*
X13547575Y15321388D02*
X13583282Y15171420D01*
X13618990Y15321388D02*
X13583282Y15171420D01*
X13648982Y15292822D02*
X13663266Y15299963D01*
X13684689Y15321388D01*
Y15171420D01*
X13773242Y15321388D02*
X13851797D01*
X13808949Y15264256D01*
X13830373D01*
X13844655Y15257117D01*
X13851797Y15249976D01*
X13858939Y15228551D01*
Y15214268D01*
X13851797Y15192844D01*
X13837514Y15178561D01*
X13816090Y15171420D01*
X13794666D01*
X13773242Y15178561D01*
X13766100Y15185703D01*
X13758958Y15199985D01*
X11095638Y13699763D02*
X11081356Y13714046D01*
X11059932Y13721188D01*
X11031367D01*
X11009943Y13714046D01*
X10995660Y13699763D01*
Y13685481D01*
X11002801Y13671198D01*
X11009943Y13664056D01*
X11024225Y13656915D01*
X11067073Y13642633D01*
X11081356Y13635492D01*
X11088497Y13628351D01*
X11095638Y13614069D01*
Y13592644D01*
X11081356Y13578362D01*
X11059932Y13571220D01*
X11031367D01*
X11009943Y13578362D01*
X10995660Y13592644D01*
X11129203Y13721188D02*
X11164909Y13571220D01*
X11200616Y13721188D02*
X11164909Y13571220D01*
X11200616Y13721188D02*
X11236323Y13571220D01*
X11272029Y13721188D02*
X11236323Y13571220D01*
X11309164Y13685481D02*
Y13692622D01*
X11316306Y13706905D01*
X11323447Y13714046D01*
X11337729Y13721188D01*
X11366295D01*
X11380577Y13714046D01*
X11387719Y13706905D01*
X11394860Y13692622D01*
Y13678340D01*
X11387719Y13664056D01*
X11373436Y13642633D01*
X11302023Y13571220D01*
X11402001D01*
X10714640Y20239278D02*
X10707498Y20253560D01*
X10693216Y20267844D01*
X10678933Y20274985D01*
X10650368D01*
X10636085Y20267844D01*
X10621802Y20253560D01*
X10614661Y20239278D01*
X10607520Y20217853D01*
Y20182147D01*
X10614661Y20160722D01*
X10621802Y20146440D01*
X10636085Y20132156D01*
X10650368Y20125015D01*
X10678933D01*
X10693216Y20132156D01*
X10707498Y20146440D01*
X10714640Y20160722D01*
X10756774Y20246419D02*
X10771056Y20253560D01*
X10792480Y20274985D01*
Y20125015D01*
%TF.MD5,1cc2380812fa1290cbaaa1359bba14c0*%
M02*
