%TF.GenerationSoftware,Altium Limited,Altium Designer,25.7.1 (20)*%
G04 Layer_Color=32896*
%FSLAX45Y45*%
%MOMM*%
%TF.SameCoordinates,F992C923-051B-4CFE-8532-EDB8D3AF3AE8*%
%TF.FilePolarity,Positive*%
%TF.FileFunction,Legend,Bot*%
%TF.Part,Single*%
G01*
G75*
%TA.AperFunction,NonConductor*%
%ADD23C,0.20000*%
%ADD24C,0.25000*%
%ADD25C,0.12700*%
D23*
X15110001Y20664600D02*
G03*
X15110001Y20664600I-10000J0D01*
G01*
D24*
X12930847Y20490288D02*
Y20376027D01*
X12937988Y20354604D01*
X12945129Y20347461D01*
X12959412Y20340320D01*
X12973695D01*
X12987978Y20347461D01*
X12995119Y20354604D01*
X13002260Y20376027D01*
Y20390309D01*
X12892284Y20461723D02*
X12878001Y20468864D01*
X12856577Y20490288D01*
Y20340320D01*
X14166760Y19734984D02*
Y19585016D01*
Y19734984D02*
X14102489D01*
X14081065Y19727843D01*
X14073923Y19720702D01*
X14066782Y19706419D01*
Y19692136D01*
X14073923Y19677853D01*
X14081065Y19670712D01*
X14102489Y19663571D01*
X14166760D01*
X14116771D02*
X14066782Y19585016D01*
X13947522Y19734984D02*
X14018935D01*
X14026076Y19670712D01*
X14018935Y19677853D01*
X13997511Y19684995D01*
X13976086D01*
X13954663Y19677853D01*
X13940379Y19663571D01*
X13933240Y19642146D01*
Y19627864D01*
X13940379Y19606441D01*
X13954663Y19592157D01*
X13976086Y19585016D01*
X13997511D01*
X14018935Y19592157D01*
X14026076Y19599300D01*
X14033218Y19613582D01*
X13863190Y19734984D02*
Y19585016D01*
Y19734984D02*
X13798918D01*
X13777493Y19727843D01*
X13770354Y19720702D01*
X13763211Y19706419D01*
Y19692136D01*
X13770354Y19677853D01*
X13777493Y19670712D01*
X13798918Y19663571D01*
X13863190D01*
X13813200D02*
X13763211Y19585016D01*
X13643951Y19713560D02*
X13651093Y19727843D01*
X13672516Y19734984D01*
X13686800D01*
X13708223Y19727843D01*
X13722507Y19706419D01*
X13729646Y19670712D01*
Y19635005D01*
X13722507Y19606441D01*
X13708223Y19592157D01*
X13686800Y19585016D01*
X13679659D01*
X13658234Y19592157D01*
X13643951Y19606441D01*
X13636810Y19627864D01*
Y19635005D01*
X13643951Y19656430D01*
X13658234Y19670712D01*
X13679659Y19677853D01*
X13686800D01*
X13708223Y19670712D01*
X13722507Y19656430D01*
X13729646Y19635005D01*
X13566760Y19734984D02*
Y19585016D01*
Y19734984D02*
X13502489D01*
X13481064Y19727843D01*
X13473923Y19720702D01*
X13466782Y19706419D01*
Y19692136D01*
X13473923Y19677853D01*
X13481064Y19670712D01*
X13502489Y19663571D01*
X13566760D01*
X13516771D02*
X13466782Y19585016D01*
X13333240Y19734984D02*
X13404652Y19585016D01*
X13433217Y19734984D02*
X13333240D01*
X13266760D02*
Y19585016D01*
Y19734984D02*
X13202489D01*
X13181065Y19727843D01*
X13173923Y19720702D01*
X13166782Y19706419D01*
Y19692136D01*
X13173923Y19677853D01*
X13181065Y19670712D01*
X13202489Y19663571D01*
X13266760D01*
X13216771D02*
X13166782Y19585016D01*
X13097511Y19734984D02*
X13118935Y19727843D01*
X13126076Y19713560D01*
Y19699277D01*
X13118935Y19684995D01*
X13104652Y19677853D01*
X13076086Y19670712D01*
X13054663Y19663571D01*
X13040379Y19649287D01*
X13033240Y19635005D01*
Y19613582D01*
X13040379Y19599300D01*
X13047522Y19592157D01*
X13068945Y19585016D01*
X13097511D01*
X13118935Y19592157D01*
X13126076Y19599300D01*
X13133218Y19613582D01*
Y19635005D01*
X13126076Y19649287D01*
X13111794Y19663571D01*
X13090370Y19670712D01*
X13061804Y19677853D01*
X13047522Y19684995D01*
X13040379Y19699277D01*
Y19713560D01*
X13047522Y19727843D01*
X13068945Y19734984D01*
X13097511D01*
X14470331D02*
Y19585016D01*
Y19734984D02*
X14406059D01*
X14384634Y19727843D01*
X14377493Y19720702D01*
X14370354Y19706419D01*
Y19692136D01*
X14377493Y19677853D01*
X14384634Y19670712D01*
X14406059Y19663571D01*
X14470331D01*
X14420341D02*
X14370354Y19585016D01*
X14265375Y19734984D02*
X14336787Y19635005D01*
X14229668D01*
X14265375Y19734984D02*
Y19585016D01*
X14766760Y19734984D02*
Y19585016D01*
Y19734984D02*
X14702489D01*
X14681065Y19727843D01*
X14673923Y19720702D01*
X14666782Y19706419D01*
Y19692136D01*
X14673923Y19677853D01*
X14681065Y19670712D01*
X14702489Y19663571D01*
X14766760D01*
X14716771D02*
X14666782Y19585016D01*
X14618935Y19734984D02*
X14540379D01*
X14583228Y19677853D01*
X14561804D01*
X14547522Y19670712D01*
X14540379Y19663571D01*
X14533240Y19642146D01*
Y19627864D01*
X14540379Y19606441D01*
X14554663Y19592157D01*
X14576086Y19585016D01*
X14597511D01*
X14618935Y19592157D01*
X14626076Y19599300D01*
X14633218Y19613582D01*
X15066760Y19734984D02*
Y19585016D01*
Y19734984D02*
X15002489D01*
X14981065Y19727843D01*
X14973923Y19720702D01*
X14966782Y19706419D01*
Y19692136D01*
X14973923Y19677853D01*
X14981065Y19670712D01*
X15002489Y19663571D01*
X15066760D01*
X15016771D02*
X14966782Y19585016D01*
X14926076Y19699277D02*
Y19706419D01*
X14918935Y19720702D01*
X14911794Y19727843D01*
X14897511Y19734984D01*
X14868945D01*
X14854663Y19727843D01*
X14847522Y19720702D01*
X14840379Y19706419D01*
Y19692136D01*
X14847522Y19677853D01*
X14861804Y19656430D01*
X14933218Y19585016D01*
X14833240D01*
X15334625Y19734984D02*
Y19585016D01*
Y19734984D02*
X15270354D01*
X15248929Y19727843D01*
X15241788Y19720702D01*
X15234647Y19706419D01*
Y19692136D01*
X15241788Y19677853D01*
X15248929Y19670712D01*
X15270354Y19663571D01*
X15334625D01*
X15284634D02*
X15234647Y19585016D01*
X15201082Y19706419D02*
X15186800Y19713560D01*
X15165375Y19734984D01*
Y19585016D01*
D25*
X13105000Y20170000D02*
X15295001Y20170000D01*
X13105000D02*
Y20620000D01*
X15295001Y20170000D02*
Y20620000D01*
X13105000Y20620000D02*
X15295001Y20620000D01*
%TF.MD5,1caedda782f09b592a7da9126f486df9*%
M02*
