%TF.GenerationSoftware,Altium Limited,Altium Designer,25.7.1 (20)*%
G04 Layer_Physical_Order=2*
G04 Layer_Color=15238730*
%FSLAX45Y45*%
%MOMM*%
%TF.SameCoordinates,F992C923-051B-4CFE-8532-EDB8D3AF3AE8*%
%TF.FilePolarity,Positive*%
%TF.FileFunction,Copper,L2,Bot,Signal*%
%TF.Part,Single*%
G01*
G75*
%TA.AperFunction,Conductor*%
%ADD13C,0.25000*%
%TA.AperFunction,ComponentPad*%
%ADD16R,1.30800X1.30800*%
%ADD17C,1.30800*%
%TA.AperFunction,ViaPad*%
%ADD18C,5.00000*%
%ADD19C,0.60000*%
%TA.AperFunction,SMDPad,CuDef*%
%ADD20R,0.65000X0.80000*%
G36*
X11947718Y20749022D02*
X11949518Y20746667D01*
X11951739Y20739021D01*
X11949425Y20736708D01*
X11945574Y20731879D01*
X11942287Y20726646D01*
X11939607Y20721082D01*
X11937566Y20715251D01*
X11936192Y20709229D01*
X11935500Y20703088D01*
Y20696912D01*
X11936192Y20690773D01*
X11937566Y20684750D01*
X11939607Y20678920D01*
X11942287Y20673354D01*
X11945574Y20668124D01*
X11949425Y20663293D01*
X11953793Y20658926D01*
X11958623Y20655074D01*
X11963854Y20651788D01*
X11969419Y20649107D01*
X11975250Y20647067D01*
X11981273Y20645692D01*
X11987411Y20645001D01*
X11992353D01*
X12009920Y20627434D01*
Y20571056D01*
X11966444Y20527580D01*
X11432010D01*
X11427105Y20527258D01*
X11422284Y20526300D01*
X11417629Y20524719D01*
X11413220Y20522545D01*
X11409133Y20519814D01*
X11405437Y20516573D01*
X11103427Y20214563D01*
X11100186Y20210867D01*
X11097455Y20206779D01*
X11095280Y20202371D01*
X11093700Y20197716D01*
X11092741Y20192896D01*
X11092420Y20187990D01*
Y19218066D01*
X10976853Y19102499D01*
X10971911D01*
X10965773Y19101810D01*
X10959750Y19100433D01*
X10953919Y19098393D01*
X10948354Y19095712D01*
X10943123Y19092427D01*
X10938293Y19088576D01*
X10933925Y19084207D01*
X10930073Y19079378D01*
X10926787Y19074147D01*
X10924107Y19068581D01*
X10922066Y19062750D01*
X10920692Y19056728D01*
X10920000Y19050589D01*
Y19044412D01*
X10920692Y19038274D01*
X10922066Y19032249D01*
X10924107Y19026421D01*
X10926787Y19020854D01*
X10930073Y19015623D01*
X10933925Y19010794D01*
X10938293Y19006425D01*
X10943123Y19002574D01*
X10948354Y18999287D01*
X10953919Y18996606D01*
X10959750Y18994566D01*
X10965773Y18993192D01*
X10971911Y18992500D01*
X10978089D01*
X10984227Y18993192D01*
X10990250Y18994566D01*
X10996081Y18996606D01*
X11001646Y18999287D01*
X11006877Y19002574D01*
X11011707Y19006425D01*
X11016075Y19010794D01*
X11019926Y19015623D01*
X11023213Y19020854D01*
X11025893Y19026421D01*
X11027933Y19032249D01*
X11029308Y19038274D01*
X11030000Y19044412D01*
Y19049355D01*
X11152420Y19171773D01*
X11162420Y19167632D01*
Y19130000D01*
X11162741Y19125095D01*
X11163700Y19120274D01*
X11165280Y19115619D01*
X11167454Y19111211D01*
X11170185Y19107123D01*
X11173427Y19103427D01*
X11453427Y18823427D01*
X11457123Y18820184D01*
X11461210Y18817455D01*
X11465619Y18815280D01*
X11470274Y18813699D01*
X11475095Y18812741D01*
X11480000Y18812421D01*
X11977500D01*
X11982405Y18812741D01*
X11987226Y18813699D01*
X11991881Y18815280D01*
X11996290Y18817455D01*
X12000377Y18820184D01*
X12004073Y18823427D01*
X12173147Y18992500D01*
X12178089D01*
X12184227Y18993192D01*
X12190250Y18994566D01*
X12196081Y18996606D01*
X12201646Y18999287D01*
X12206877Y19002574D01*
X12211707Y19006425D01*
X12216075Y19010794D01*
X12219927Y19015623D01*
X12223213Y19020854D01*
X12225893Y19026421D01*
X12227934Y19032249D01*
X12229308Y19038274D01*
X12230000Y19044412D01*
Y19050589D01*
X12229308Y19056728D01*
X12227934Y19062750D01*
X12225893Y19068581D01*
X12223213Y19074147D01*
X12219927Y19079378D01*
X12216075Y19084207D01*
X12211707Y19088576D01*
X12206877Y19092427D01*
X12201646Y19095712D01*
X12200688Y19096175D01*
X12197416Y19106721D01*
X12197669Y19108305D01*
X12200660Y19112421D01*
X12584434D01*
X12723427Y18973427D01*
X12727122Y18970186D01*
X12731209Y18967455D01*
X12735618Y18965280D01*
X12740273Y18963699D01*
X12745095Y18962741D01*
X12750000Y18962421D01*
X13327499D01*
X13332405Y18962741D01*
X13337225Y18963699D01*
X13341881Y18965280D01*
X13346291Y18967455D01*
X13350377Y18970186D01*
X13354073Y18973427D01*
X13373148Y18992500D01*
X13378088D01*
X13384227Y18993192D01*
X13390250Y18994566D01*
X13396082Y18996606D01*
X13401646Y18999287D01*
X13406877Y19002574D01*
X13411707Y19006425D01*
X13416075Y19010794D01*
X13419926Y19015623D01*
X13423213Y19020854D01*
X13425893Y19026421D01*
X13427934Y19032249D01*
X13429308Y19038274D01*
X13430000Y19044412D01*
Y19050589D01*
X13429308Y19056728D01*
X13427934Y19062750D01*
X13425893Y19068581D01*
X13423213Y19074147D01*
X13419926Y19079378D01*
X13416075Y19084207D01*
X13411707Y19088576D01*
X13406877Y19092427D01*
X13401646Y19095712D01*
X13396082Y19098393D01*
X13390250Y19100433D01*
X13384227Y19101810D01*
X13378088Y19102499D01*
X13371912D01*
X13365773Y19101810D01*
X13359750Y19100433D01*
X13353918Y19098393D01*
X13348354Y19095712D01*
X13343123Y19092427D01*
X13338293Y19088576D01*
X13333925Y19084207D01*
X13330074Y19079378D01*
X13326787Y19074147D01*
X13324107Y19068581D01*
X13322067Y19062750D01*
X13320692Y19056728D01*
X13320000Y19050589D01*
Y19045647D01*
X13311934Y19037579D01*
X12765566D01*
X12626573Y19176573D01*
X12622877Y19179816D01*
X12618790Y19182545D01*
X12614381Y19184720D01*
X12609726Y19186301D01*
X12604905Y19187259D01*
X12600000Y19187579D01*
X12178505D01*
X12173600Y19187259D01*
X12168779Y19186301D01*
X12164123Y19184720D01*
X12159715Y19182545D01*
X12155627Y19179816D01*
X12151932Y19176573D01*
X11932939Y18957581D01*
X11524561D01*
X11307580Y19174561D01*
Y20114433D01*
X11505566Y20312421D01*
X12040000D01*
X12044905Y20312741D01*
X12049726Y20313699D01*
X12054382Y20315280D01*
X12058790Y20317455D01*
X12062878Y20320184D01*
X12066573Y20323427D01*
X12214074Y20470927D01*
X12217315Y20474623D01*
X12220046Y20478709D01*
X12222220Y20483119D01*
X12223800Y20487775D01*
X12224759Y20492595D01*
X12225080Y20497501D01*
Y20627435D01*
X12242646Y20645001D01*
X12247588D01*
X12253727Y20645692D01*
X12259750Y20647067D01*
X12265580Y20649107D01*
X12271146Y20651788D01*
X12276377Y20655074D01*
X12281207Y20658926D01*
X12285575Y20663293D01*
X12289426Y20668124D01*
X12292713Y20673354D01*
X12295393Y20678920D01*
X12297433Y20684750D01*
X12298808Y20690773D01*
X12299500Y20696912D01*
Y20703088D01*
X12298808Y20709229D01*
X12297433Y20715250D01*
X12295393Y20721082D01*
X12292713Y20726646D01*
X12289426Y20731879D01*
X12285575Y20736707D01*
X12283260Y20739021D01*
X12285481Y20746666D01*
X12287281Y20749022D01*
X15700000Y20749020D01*
X15716322D01*
X15748686Y20744762D01*
X15780217Y20736311D01*
X15810378Y20723819D01*
X15838646Y20707498D01*
X15864545Y20687625D01*
X15887627Y20664543D01*
X15907500Y20638644D01*
X15923819Y20610378D01*
X15936311Y20580217D01*
X15944762Y20548685D01*
X15949022Y20516321D01*
X15949022Y20499998D01*
X15949020Y10300000D01*
Y10283678D01*
X15944762Y10251313D01*
X15936311Y10219783D01*
X15923820Y10189624D01*
X15907498Y10161354D01*
X15887627Y10135457D01*
X15864545Y10112374D01*
X15838644Y10092501D01*
X15810376Y10076180D01*
X15780217Y10063688D01*
X15748685Y10055239D01*
X15716322Y10050978D01*
X15700002Y10050978D01*
X10300000Y10050979D01*
X10283678D01*
X10251314Y10055239D01*
X10219783Y10063688D01*
X10189624Y10076181D01*
X10161354Y10092502D01*
X10135455Y10112375D01*
X10112374Y10135457D01*
X10092502Y10161355D01*
X10076181Y10189623D01*
X10063688Y10219783D01*
X10055239Y10251315D01*
X10050979Y10283678D01*
X10050979Y10300001D01*
Y20500000D01*
Y20516322D01*
X10055239Y20548686D01*
X10063688Y20580217D01*
X10076181Y20610376D01*
X10092502Y20638646D01*
X10112375Y20664545D01*
X10135457Y20687627D01*
X10161355Y20707498D01*
X10189623Y20723819D01*
X10219783Y20736311D01*
X10251315Y20744762D01*
X10283679Y20749020D01*
X10300001Y20749022D01*
X11947718D01*
D02*
G37*
%LPC*%
G36*
X13912701Y20539961D02*
Y20462700D01*
X13989961D01*
X13988733Y20469672D01*
X13986681Y20477330D01*
X13983969Y20484779D01*
X13980618Y20491966D01*
X13976654Y20498833D01*
X13972105Y20505328D01*
X13967009Y20511401D01*
X13961403Y20517007D01*
X13955328Y20522105D01*
X13948834Y20526653D01*
X13941966Y20530617D01*
X13934781Y20533968D01*
X13927332Y20536681D01*
X13919672Y20538731D01*
X13912701Y20539961D01*
D02*
G37*
G36*
X13887302D02*
X13880328Y20538731D01*
X13872672Y20536681D01*
X13865221Y20533968D01*
X13858034Y20530617D01*
X13851167Y20526653D01*
X13844672Y20522105D01*
X13838599Y20517007D01*
X13832993Y20511401D01*
X13827896Y20505328D01*
X13823347Y20498833D01*
X13819383Y20491966D01*
X13816032Y20484779D01*
X13813321Y20477330D01*
X13811269Y20469672D01*
X13810039Y20462700D01*
X13887302D01*
Y20539961D01*
D02*
G37*
G36*
X13989961Y20437300D02*
X13912701D01*
Y20360039D01*
X13919672Y20361269D01*
X13927332Y20363319D01*
X13934781Y20366032D01*
X13941966Y20369382D01*
X13948834Y20373347D01*
X13955328Y20377895D01*
X13961403Y20382991D01*
X13967009Y20388599D01*
X13972105Y20394672D01*
X13976654Y20401166D01*
X13980618Y20408034D01*
X13983969Y20415219D01*
X13986681Y20422670D01*
X13988733Y20430328D01*
X13989961Y20437300D01*
D02*
G37*
G36*
X13887302D02*
X13810039D01*
X13811269Y20430328D01*
X13813321Y20422670D01*
X13816032Y20415219D01*
X13819383Y20408034D01*
X13823347Y20401166D01*
X13827896Y20394672D01*
X13832993Y20388599D01*
X13838599Y20382991D01*
X13844672Y20377895D01*
X13851167Y20373347D01*
X13858034Y20369382D01*
X13865221Y20366032D01*
X13872672Y20363319D01*
X13880328Y20361269D01*
X13887302Y20360039D01*
Y20437300D01*
D02*
G37*
G36*
X15190401Y20540401D02*
X15009601D01*
Y20359599D01*
X15190401D01*
Y20540401D01*
D02*
G37*
G36*
X14903947D02*
X14896054D01*
X14888190Y20539713D01*
X14880415Y20538341D01*
X14872791Y20536298D01*
X14865373Y20533598D01*
X14858218Y20530263D01*
X14851382Y20526315D01*
X14844916Y20521786D01*
X14838869Y20516713D01*
X14833287Y20511131D01*
X14828214Y20505084D01*
X14823686Y20498618D01*
X14819739Y20491782D01*
X14816402Y20484627D01*
X14813702Y20477209D01*
X14811659Y20469585D01*
X14810289Y20461810D01*
X14809601Y20453947D01*
Y20446053D01*
X14810289Y20438190D01*
X14811659Y20430415D01*
X14813702Y20422791D01*
X14816402Y20415372D01*
X14819739Y20408218D01*
X14823686Y20401382D01*
X14828214Y20394914D01*
X14833287Y20388869D01*
X14838869Y20383286D01*
X14844916Y20378212D01*
X14851382Y20373685D01*
X14858218Y20369737D01*
X14862421Y20367780D01*
Y20020000D01*
X14842499D01*
Y19910400D01*
X14842099D01*
Y19857700D01*
X14957899D01*
Y19910400D01*
X14957500D01*
Y20020000D01*
X14937579D01*
Y20367778D01*
X14941782Y20369737D01*
X14948619Y20373685D01*
X14955086Y20378212D01*
X14961131Y20383286D01*
X14966714Y20388869D01*
X14971788Y20394914D01*
X14976315Y20401382D01*
X14980263Y20408218D01*
X14983598Y20415372D01*
X14986299Y20422791D01*
X14988342Y20430415D01*
X14989713Y20438190D01*
X14990401Y20446053D01*
Y20453947D01*
X14989713Y20461810D01*
X14988342Y20469585D01*
X14986299Y20477209D01*
X14983598Y20484627D01*
X14980263Y20491782D01*
X14976315Y20498618D01*
X14971788Y20505084D01*
X14966714Y20511131D01*
X14961131Y20516713D01*
X14955086Y20521786D01*
X14948619Y20526315D01*
X14941782Y20530263D01*
X14934628Y20533598D01*
X14927209Y20536298D01*
X14919585Y20538341D01*
X14911810Y20539713D01*
X14903947Y20540401D01*
D02*
G37*
G36*
X14703947D02*
X14696054D01*
X14688190Y20539713D01*
X14680415Y20538341D01*
X14672791Y20536298D01*
X14665373Y20533598D01*
X14658218Y20530263D01*
X14651382Y20526315D01*
X14644916Y20521786D01*
X14638869Y20516713D01*
X14633287Y20511131D01*
X14628214Y20505084D01*
X14623686Y20498618D01*
X14619739Y20491782D01*
X14616402Y20484627D01*
X14613702Y20477209D01*
X14611659Y20469585D01*
X14610289Y20461810D01*
X14609601Y20453947D01*
Y20446053D01*
X14610289Y20438190D01*
X14611659Y20430415D01*
X14613702Y20422791D01*
X14616402Y20415372D01*
X14619739Y20408218D01*
X14623686Y20401382D01*
X14628214Y20394914D01*
X14633287Y20388869D01*
X14638869Y20383286D01*
X14644916Y20378212D01*
X14651382Y20373685D01*
X14658218Y20369737D01*
X14662421Y20367780D01*
Y20020000D01*
X14642500D01*
Y19910400D01*
X14642099D01*
Y19857700D01*
X14757899D01*
Y19910400D01*
X14757500D01*
Y20020000D01*
X14737581D01*
Y20367778D01*
X14741782Y20369737D01*
X14748619Y20373685D01*
X14755086Y20378212D01*
X14761131Y20383286D01*
X14766714Y20388869D01*
X14771788Y20394914D01*
X14776315Y20401382D01*
X14780263Y20408218D01*
X14783598Y20415372D01*
X14786299Y20422791D01*
X14788342Y20430415D01*
X14789713Y20438190D01*
X14790401Y20446053D01*
Y20453947D01*
X14789713Y20461810D01*
X14788342Y20469585D01*
X14786299Y20477209D01*
X14783598Y20484627D01*
X14780263Y20491782D01*
X14776315Y20498618D01*
X14771788Y20505084D01*
X14766714Y20511131D01*
X14761131Y20516713D01*
X14755086Y20521786D01*
X14748619Y20526315D01*
X14741782Y20530263D01*
X14734628Y20533598D01*
X14727209Y20536298D01*
X14719585Y20538341D01*
X14711810Y20539713D01*
X14703947Y20540401D01*
D02*
G37*
G36*
X14503947D02*
X14496054D01*
X14488190Y20539713D01*
X14480415Y20538341D01*
X14472791Y20536298D01*
X14465373Y20533598D01*
X14458218Y20530263D01*
X14451382Y20526315D01*
X14444916Y20521786D01*
X14438869Y20516713D01*
X14433287Y20511131D01*
X14428214Y20505084D01*
X14423686Y20498618D01*
X14419739Y20491782D01*
X14416402Y20484627D01*
X14413702Y20477209D01*
X14411659Y20469585D01*
X14410289Y20461810D01*
X14409601Y20453947D01*
Y20446053D01*
X14410289Y20438190D01*
X14411659Y20430415D01*
X14413702Y20422791D01*
X14416402Y20415372D01*
X14419739Y20408218D01*
X14423686Y20401382D01*
X14428214Y20394914D01*
X14433287Y20388869D01*
X14438869Y20383286D01*
X14444916Y20378212D01*
X14451382Y20373685D01*
X14458218Y20369737D01*
X14462421Y20367780D01*
Y20020000D01*
X14442499D01*
Y19910400D01*
X14442099D01*
Y19857700D01*
X14557899D01*
Y19910400D01*
X14557500D01*
Y20020000D01*
X14537581D01*
Y20367778D01*
X14541782Y20369737D01*
X14548619Y20373685D01*
X14555086Y20378212D01*
X14561131Y20383286D01*
X14566714Y20388869D01*
X14571788Y20394914D01*
X14576315Y20401382D01*
X14580263Y20408218D01*
X14583598Y20415372D01*
X14586299Y20422791D01*
X14588342Y20430415D01*
X14589713Y20438190D01*
X14590401Y20446053D01*
Y20453947D01*
X14589713Y20461810D01*
X14588342Y20469585D01*
X14586299Y20477209D01*
X14583598Y20484627D01*
X14580263Y20491782D01*
X14576315Y20498618D01*
X14571788Y20505084D01*
X14566714Y20511131D01*
X14561131Y20516713D01*
X14555086Y20521786D01*
X14548619Y20526315D01*
X14541782Y20530263D01*
X14534628Y20533598D01*
X14527209Y20536298D01*
X14519585Y20538341D01*
X14511810Y20539713D01*
X14503947Y20540401D01*
D02*
G37*
G36*
X14303947D02*
X14296054D01*
X14288190Y20539713D01*
X14280415Y20538341D01*
X14272791Y20536298D01*
X14265373Y20533598D01*
X14258218Y20530263D01*
X14251382Y20526315D01*
X14244916Y20521786D01*
X14238869Y20516713D01*
X14233287Y20511131D01*
X14228214Y20505084D01*
X14223686Y20498618D01*
X14219739Y20491782D01*
X14216402Y20484627D01*
X14213702Y20477209D01*
X14211659Y20469585D01*
X14210289Y20461810D01*
X14209601Y20453947D01*
Y20446053D01*
X14210289Y20438190D01*
X14211659Y20430415D01*
X14213702Y20422791D01*
X14216402Y20415372D01*
X14219739Y20408218D01*
X14223686Y20401382D01*
X14228214Y20394914D01*
X14233287Y20388869D01*
X14238869Y20383286D01*
X14244916Y20378212D01*
X14251382Y20373685D01*
X14258218Y20369737D01*
X14262421Y20367780D01*
Y20020000D01*
X14242500D01*
Y19910400D01*
X14242101D01*
Y19857700D01*
X14357899D01*
Y19910400D01*
X14357500D01*
Y20020000D01*
X14337581D01*
Y20367778D01*
X14341782Y20369737D01*
X14348619Y20373685D01*
X14355086Y20378212D01*
X14361131Y20383286D01*
X14366714Y20388869D01*
X14371788Y20394914D01*
X14376315Y20401382D01*
X14380263Y20408218D01*
X14383598Y20415372D01*
X14386299Y20422791D01*
X14388342Y20430415D01*
X14389713Y20438190D01*
X14390401Y20446053D01*
Y20453947D01*
X14389713Y20461810D01*
X14388342Y20469585D01*
X14386299Y20477209D01*
X14383598Y20484627D01*
X14380263Y20491782D01*
X14376315Y20498618D01*
X14371788Y20505084D01*
X14366714Y20511131D01*
X14361131Y20516713D01*
X14355086Y20521786D01*
X14348619Y20526315D01*
X14341782Y20530263D01*
X14334628Y20533598D01*
X14327209Y20536298D01*
X14319585Y20538341D01*
X14311810Y20539713D01*
X14303947Y20540401D01*
D02*
G37*
G36*
X14103947D02*
X14096054D01*
X14088190Y20539713D01*
X14080415Y20538341D01*
X14072791Y20536298D01*
X14065373Y20533598D01*
X14058218Y20530263D01*
X14051382Y20526315D01*
X14044916Y20521786D01*
X14038869Y20516713D01*
X14033287Y20511131D01*
X14028214Y20505084D01*
X14023686Y20498618D01*
X14019739Y20491782D01*
X14016402Y20484627D01*
X14013702Y20477209D01*
X14011659Y20469585D01*
X14010289Y20461810D01*
X14009601Y20453947D01*
Y20446053D01*
X14010289Y20438190D01*
X14011659Y20430415D01*
X14013702Y20422791D01*
X14016402Y20415372D01*
X14019739Y20408218D01*
X14023686Y20401382D01*
X14028214Y20394914D01*
X14033287Y20388869D01*
X14038869Y20383286D01*
X14044916Y20378212D01*
X14051382Y20373685D01*
X14058218Y20369737D01*
X14062421Y20367778D01*
Y20020000D01*
X14042499D01*
Y19910400D01*
X14042099D01*
Y19857700D01*
X14157899D01*
Y19910400D01*
X14157500D01*
Y20020000D01*
X14137581D01*
Y20367780D01*
X14141782Y20369737D01*
X14148619Y20373685D01*
X14155086Y20378212D01*
X14161131Y20383286D01*
X14166714Y20388869D01*
X14171788Y20394914D01*
X14176315Y20401382D01*
X14180263Y20408218D01*
X14183598Y20415372D01*
X14186299Y20422791D01*
X14188342Y20430415D01*
X14189713Y20438190D01*
X14190401Y20446053D01*
Y20453947D01*
X14189713Y20461810D01*
X14188342Y20469585D01*
X14186299Y20477209D01*
X14183598Y20484627D01*
X14180263Y20491782D01*
X14176315Y20498618D01*
X14171788Y20505084D01*
X14166714Y20511131D01*
X14161131Y20516713D01*
X14155086Y20521786D01*
X14148619Y20526315D01*
X14141782Y20530263D01*
X14134628Y20533598D01*
X14127211Y20536298D01*
X14119585Y20538341D01*
X14111812Y20539713D01*
X14103947Y20540401D01*
D02*
G37*
G36*
X13703947D02*
X13696054D01*
X13688190Y20539713D01*
X13680415Y20538341D01*
X13672791Y20536298D01*
X13665373Y20533598D01*
X13658218Y20530263D01*
X13651382Y20526315D01*
X13644916Y20521786D01*
X13638869Y20516713D01*
X13633287Y20511131D01*
X13628214Y20505084D01*
X13623685Y20498618D01*
X13619739Y20491782D01*
X13616402Y20484627D01*
X13613702Y20477209D01*
X13611659Y20469585D01*
X13610289Y20461810D01*
X13609601Y20453947D01*
Y20446053D01*
X13610289Y20438190D01*
X13611659Y20430415D01*
X13613702Y20422791D01*
X13616402Y20415372D01*
X13619739Y20408218D01*
X13623685Y20401382D01*
X13628214Y20394914D01*
X13633287Y20388869D01*
X13638869Y20383286D01*
X13644916Y20378212D01*
X13651382Y20373685D01*
X13658218Y20369737D01*
X13662421Y20367780D01*
Y20020000D01*
X13642500D01*
Y19910400D01*
X13642099D01*
Y19857700D01*
X13757899D01*
Y19910400D01*
X13757500D01*
Y20020000D01*
X13737579D01*
Y20367778D01*
X13741782Y20369737D01*
X13748619Y20373685D01*
X13755086Y20378212D01*
X13761131Y20383286D01*
X13766714Y20388869D01*
X13771788Y20394914D01*
X13776315Y20401382D01*
X13780263Y20408218D01*
X13783598Y20415372D01*
X13786299Y20422791D01*
X13788342Y20430415D01*
X13789713Y20438190D01*
X13790401Y20446053D01*
Y20453947D01*
X13789713Y20461810D01*
X13788342Y20469585D01*
X13786299Y20477209D01*
X13783598Y20484627D01*
X13780263Y20491782D01*
X13776315Y20498618D01*
X13771788Y20505084D01*
X13766714Y20511131D01*
X13761131Y20516713D01*
X13755086Y20521786D01*
X13748619Y20526315D01*
X13741782Y20530263D01*
X13734628Y20533598D01*
X13727209Y20536298D01*
X13719585Y20538341D01*
X13711810Y20539713D01*
X13703947Y20540401D01*
D02*
G37*
G36*
X13503947D02*
X13496054D01*
X13488190Y20539713D01*
X13480415Y20538341D01*
X13472791Y20536298D01*
X13465373Y20533598D01*
X13458218Y20530263D01*
X13451382Y20526315D01*
X13444916Y20521786D01*
X13438869Y20516713D01*
X13433287Y20511131D01*
X13428214Y20505084D01*
X13423685Y20498618D01*
X13419737Y20491782D01*
X13416402Y20484627D01*
X13413702Y20477209D01*
X13411659Y20469585D01*
X13410289Y20461810D01*
X13409601Y20453947D01*
Y20446053D01*
X13410289Y20438190D01*
X13411659Y20430415D01*
X13413702Y20422791D01*
X13416402Y20415372D01*
X13419737Y20408218D01*
X13423685Y20401382D01*
X13428214Y20394914D01*
X13433287Y20388869D01*
X13438869Y20383286D01*
X13444916Y20378212D01*
X13451382Y20373685D01*
X13458218Y20369737D01*
X13462419Y20367780D01*
Y20020000D01*
X13442499D01*
Y19910400D01*
X13442099D01*
Y19857700D01*
X13557899D01*
Y19910400D01*
X13557500D01*
Y20020000D01*
X13537579D01*
Y20367778D01*
X13541782Y20369737D01*
X13548619Y20373685D01*
X13555086Y20378212D01*
X13561131Y20383286D01*
X13566714Y20388869D01*
X13571788Y20394914D01*
X13576315Y20401382D01*
X13580263Y20408218D01*
X13583598Y20415372D01*
X13586298Y20422791D01*
X13588342Y20430415D01*
X13589713Y20438190D01*
X13590401Y20446053D01*
Y20453947D01*
X13589713Y20461810D01*
X13588342Y20469585D01*
X13586298Y20477209D01*
X13583598Y20484627D01*
X13580263Y20491782D01*
X13576315Y20498618D01*
X13571788Y20505084D01*
X13566714Y20511131D01*
X13561131Y20516713D01*
X13555086Y20521786D01*
X13548619Y20526315D01*
X13541782Y20530263D01*
X13534628Y20533598D01*
X13527209Y20536298D01*
X13519585Y20538341D01*
X13511810Y20539713D01*
X13503947Y20540401D01*
D02*
G37*
G36*
X13303947D02*
X13296053D01*
X13288190Y20539713D01*
X13280415Y20538341D01*
X13272791Y20536298D01*
X13265373Y20533598D01*
X13258218Y20530263D01*
X13251382Y20526315D01*
X13244916Y20521786D01*
X13238869Y20516713D01*
X13233287Y20511131D01*
X13228214Y20505084D01*
X13223685Y20498618D01*
X13219737Y20491782D01*
X13216402Y20484627D01*
X13213702Y20477209D01*
X13211659Y20469585D01*
X13210289Y20461810D01*
X13209599Y20453947D01*
Y20446053D01*
X13210289Y20438190D01*
X13211659Y20430415D01*
X13213702Y20422791D01*
X13216402Y20415372D01*
X13219737Y20408218D01*
X13223685Y20401382D01*
X13228214Y20394914D01*
X13233287Y20388869D01*
X13238869Y20383286D01*
X13244916Y20378212D01*
X13251382Y20373685D01*
X13258218Y20369737D01*
X13262419Y20367780D01*
Y20020000D01*
X13242500D01*
Y19910400D01*
X13242101D01*
Y19857700D01*
X13357899D01*
Y19910400D01*
X13357500D01*
Y20020000D01*
X13337579D01*
Y20367778D01*
X13341782Y20369737D01*
X13348618Y20373685D01*
X13355086Y20378212D01*
X13361131Y20383286D01*
X13366714Y20388869D01*
X13371788Y20394914D01*
X13376315Y20401382D01*
X13380263Y20408218D01*
X13383598Y20415372D01*
X13386298Y20422791D01*
X13388342Y20430415D01*
X13389713Y20438190D01*
X13390401Y20446053D01*
Y20453947D01*
X13389713Y20461810D01*
X13388342Y20469585D01*
X13386298Y20477209D01*
X13383598Y20484627D01*
X13380263Y20491782D01*
X13376315Y20498618D01*
X13371788Y20505084D01*
X13366714Y20511131D01*
X13361131Y20516713D01*
X13355086Y20521786D01*
X13348618Y20526315D01*
X13341782Y20530263D01*
X13334628Y20533598D01*
X13327209Y20536298D01*
X13319585Y20538341D01*
X13311810Y20539713D01*
X13303947Y20540401D01*
D02*
G37*
G36*
X14957899Y19832300D02*
X14912698D01*
Y19779601D01*
X14957899D01*
Y19832300D01*
D02*
G37*
G36*
X14887299D02*
X14842099D01*
Y19779601D01*
X14887299D01*
Y19832300D01*
D02*
G37*
G36*
X14757899D02*
X14712700D01*
Y19779601D01*
X14757899D01*
Y19832300D01*
D02*
G37*
G36*
X14687300D02*
X14642099D01*
Y19779601D01*
X14687300D01*
Y19832300D01*
D02*
G37*
G36*
X14557899D02*
X14512698D01*
Y19779601D01*
X14557899D01*
Y19832300D01*
D02*
G37*
G36*
X14487299D02*
X14442099D01*
Y19779601D01*
X14487299D01*
Y19832300D01*
D02*
G37*
G36*
X14357899D02*
X14312700D01*
Y19779601D01*
X14357899D01*
Y19832300D01*
D02*
G37*
G36*
X14287300D02*
X14242101D01*
Y19779601D01*
X14287300D01*
Y19832300D01*
D02*
G37*
G36*
X14157899D02*
X14112698D01*
Y19779601D01*
X14157899D01*
Y19832300D01*
D02*
G37*
G36*
X14087299D02*
X14042099D01*
Y19779601D01*
X14087299D01*
Y19832300D01*
D02*
G37*
G36*
X13757899D02*
X13712700D01*
Y19779601D01*
X13757899D01*
Y19832300D01*
D02*
G37*
G36*
X13687300D02*
X13642099D01*
Y19779601D01*
X13687300D01*
Y19832300D01*
D02*
G37*
G36*
X13557899D02*
X13512698D01*
Y19779601D01*
X13557899D01*
Y19832300D01*
D02*
G37*
G36*
X13487299D02*
X13442099D01*
Y19779601D01*
X13487299D01*
Y19832300D01*
D02*
G37*
G36*
X13357899D02*
X13312700D01*
Y19779601D01*
X13357899D01*
Y19832300D01*
D02*
G37*
G36*
X13287300D02*
X13242101D01*
Y19779601D01*
X13287300D01*
Y19832300D01*
D02*
G37*
G36*
X12120589Y19755000D02*
X12114411D01*
X12108273Y19754308D01*
X12102250Y19752934D01*
X12096419Y19750893D01*
X12090854Y19748213D01*
X12085623Y19744926D01*
X12080793Y19741075D01*
X12076425Y19736707D01*
X12072574Y19731877D01*
X12069287Y19726646D01*
X12066607Y19721082D01*
X12064566Y19715250D01*
X12063192Y19709227D01*
X12062500Y19703088D01*
Y19696912D01*
X12063192Y19690773D01*
X12064566Y19684750D01*
X12066607Y19678918D01*
X12069287Y19673354D01*
X12072574Y19668123D01*
X12076425Y19663293D01*
X12080793Y19658925D01*
X12085623Y19655074D01*
X12090854Y19651787D01*
X12096419Y19649107D01*
X12102250Y19647066D01*
X12108273Y19645692D01*
X12114411Y19645000D01*
X12120589D01*
X12126727Y19645692D01*
X12132750Y19647066D01*
X12138581Y19649107D01*
X12144146Y19651787D01*
X12149377Y19655074D01*
X12154207Y19658925D01*
X12157701Y19662421D01*
X14346300D01*
X14537421Y19471300D01*
Y19087701D01*
X14533925Y19084207D01*
X14530074Y19079378D01*
X14526787Y19074147D01*
X14524107Y19068581D01*
X14522067Y19062750D01*
X14520692Y19056728D01*
X14520000Y19050589D01*
Y19044412D01*
X14520692Y19038274D01*
X14522067Y19032249D01*
X14524107Y19026421D01*
X14526787Y19020854D01*
X14530074Y19015623D01*
X14533925Y19010794D01*
X14538293Y19006425D01*
X14543123Y19002574D01*
X14548354Y18999287D01*
X14553920Y18996606D01*
X14559750Y18994566D01*
X14565773Y18993192D01*
X14571912Y18992500D01*
X14578088D01*
X14584229Y18993192D01*
X14590250Y18994566D01*
X14596082Y18996606D01*
X14601646Y18999287D01*
X14606877Y19002574D01*
X14611707Y19006425D01*
X14616075Y19010794D01*
X14619926Y19015623D01*
X14623213Y19020854D01*
X14625894Y19026421D01*
X14627934Y19032249D01*
X14629309Y19038274D01*
X14630000Y19044412D01*
Y19050589D01*
X14629309Y19056728D01*
X14627934Y19062750D01*
X14625894Y19068581D01*
X14623213Y19074147D01*
X14619926Y19079378D01*
X14616075Y19084207D01*
X14612581Y19087701D01*
Y19486867D01*
X14612259Y19491771D01*
X14611301Y19496593D01*
X14609720Y19501248D01*
X14607545Y19505656D01*
X14604816Y19509744D01*
X14601575Y19513438D01*
X14388440Y19726573D01*
X14384744Y19729814D01*
X14380656Y19732545D01*
X14376248Y19734720D01*
X14371593Y19736301D01*
X14366772Y19737259D01*
X14361867Y19737579D01*
X12157701D01*
X12154207Y19741075D01*
X12149377Y19744926D01*
X12144146Y19748213D01*
X12138581Y19750893D01*
X12132750Y19752934D01*
X12126727Y19754308D01*
X12120589Y19755000D01*
D02*
G37*
G36*
X14877499Y18137579D02*
X13972501D01*
X13967595Y18137259D01*
X13962775Y18136301D01*
X13958119Y18134720D01*
X13953709Y18132545D01*
X13949623Y18129816D01*
X13945927Y18126573D01*
X13826852Y18007500D01*
X13823146D01*
X13704073Y18126573D01*
X13700377Y18129816D01*
X13696291Y18132545D01*
X13691881Y18134720D01*
X13687225Y18136301D01*
X13682405Y18137259D01*
X13677499Y18137579D01*
X12772500D01*
X12767595Y18137259D01*
X12762774Y18136301D01*
X12758119Y18134720D01*
X12753710Y18132545D01*
X12749622Y18129816D01*
X12745927Y18126573D01*
X12626853Y18007500D01*
X12623146D01*
X12504073Y18126573D01*
X12500377Y18129816D01*
X12496290Y18132545D01*
X12491881Y18134720D01*
X12487226Y18136301D01*
X12482405Y18137259D01*
X12477499Y18137579D01*
X11572500D01*
X11567595Y18137259D01*
X11562773Y18136301D01*
X11558118Y18134720D01*
X11553710Y18132545D01*
X11549622Y18129816D01*
X11545927Y18126573D01*
X11426853Y18007500D01*
X11421911D01*
X11415772Y18006808D01*
X11409750Y18005434D01*
X11403919Y18003394D01*
X11398353Y18000713D01*
X11393123Y17997426D01*
X11388293Y17993575D01*
X11383925Y17989207D01*
X11380073Y17984377D01*
X11376786Y17979146D01*
X11374106Y17973581D01*
X11372066Y17967751D01*
X11370691Y17961726D01*
X11370000Y17955588D01*
Y17949411D01*
X11370691Y17943272D01*
X11372066Y17937250D01*
X11374106Y17931419D01*
X11376786Y17925853D01*
X11380073Y17920622D01*
X11383925Y17915793D01*
X11388293Y17911424D01*
X11393123Y17907573D01*
X11398353Y17904288D01*
X11403919Y17901607D01*
X11409750Y17899567D01*
X11415772Y17898192D01*
X11421911Y17897501D01*
X11428088D01*
X11434227Y17898192D01*
X11440249Y17899567D01*
X11446080Y17901607D01*
X11451646Y17904288D01*
X11456877Y17907573D01*
X11461706Y17911424D01*
X11466074Y17915793D01*
X11469926Y17920622D01*
X11473213Y17925853D01*
X11475893Y17931419D01*
X11477933Y17937250D01*
X11479308Y17943272D01*
X11479999Y17949411D01*
Y17954353D01*
X11588066Y18062421D01*
X12461933D01*
X12570000Y17954353D01*
Y17949411D01*
X12570691Y17943272D01*
X12572066Y17937250D01*
X12574106Y17931419D01*
X12576787Y17925853D01*
X12580073Y17920622D01*
X12583925Y17915793D01*
X12588293Y17911424D01*
X12593123Y17907573D01*
X12598353Y17904288D01*
X12603919Y17901607D01*
X12609750Y17899567D01*
X12615772Y17898192D01*
X12621911Y17897501D01*
X12628088D01*
X12634227Y17898192D01*
X12640250Y17899567D01*
X12646080Y17901607D01*
X12651646Y17904288D01*
X12656877Y17907573D01*
X12661706Y17911424D01*
X12666074Y17915793D01*
X12669926Y17920622D01*
X12673213Y17925853D01*
X12675893Y17931419D01*
X12677933Y17937250D01*
X12679308Y17943272D01*
X12680000Y17949411D01*
Y17954353D01*
X12788066Y18062421D01*
X13661932D01*
X13770000Y17954353D01*
Y17949411D01*
X13770692Y17943272D01*
X13772066Y17937250D01*
X13774107Y17931419D01*
X13776787Y17925853D01*
X13780074Y17920622D01*
X13783925Y17915793D01*
X13788293Y17911424D01*
X13793123Y17907573D01*
X13798354Y17904288D01*
X13803918Y17901607D01*
X13809750Y17899567D01*
X13815771Y17898192D01*
X13821912Y17897501D01*
X13828088D01*
X13834227Y17898192D01*
X13840250Y17899567D01*
X13846082Y17901607D01*
X13851646Y17904288D01*
X13856877Y17907573D01*
X13861707Y17911424D01*
X13866075Y17915793D01*
X13869926Y17920622D01*
X13873213Y17925853D01*
X13875893Y17931419D01*
X13877933Y17937250D01*
X13879308Y17943272D01*
X13880000Y17949411D01*
Y17954353D01*
X13988066Y18062421D01*
X14861932D01*
X14970000Y17954353D01*
Y17949411D01*
X14970692Y17943272D01*
X14972066Y17937250D01*
X14974107Y17931419D01*
X14976787Y17925853D01*
X14980074Y17920622D01*
X14983925Y17915793D01*
X14988293Y17911424D01*
X14993123Y17907573D01*
X14998354Y17904288D01*
X15003918Y17901607D01*
X15009750Y17899567D01*
X15015773Y17898192D01*
X15021912Y17897501D01*
X15028088D01*
X15034227Y17898192D01*
X15040250Y17899567D01*
X15046082Y17901607D01*
X15051646Y17904288D01*
X15056877Y17907573D01*
X15061707Y17911424D01*
X15066075Y17915793D01*
X15069926Y17920622D01*
X15073213Y17925853D01*
X15075893Y17931419D01*
X15077934Y17937250D01*
X15079308Y17943272D01*
X15080000Y17949411D01*
Y17955588D01*
X15079308Y17961726D01*
X15077934Y17967751D01*
X15075893Y17973581D01*
X15073213Y17979146D01*
X15069926Y17984377D01*
X15066075Y17989207D01*
X15061707Y17993575D01*
X15056877Y17997426D01*
X15051646Y18000713D01*
X15046082Y18003394D01*
X15040250Y18005434D01*
X15034227Y18006808D01*
X15028088Y18007500D01*
X15023146D01*
X14904073Y18126573D01*
X14900377Y18129816D01*
X14896291Y18132545D01*
X14891881Y18134720D01*
X14887225Y18136301D01*
X14882405Y18137259D01*
X14877499Y18137579D01*
D02*
G37*
G36*
Y16537581D02*
X13972501D01*
X13967595Y16537259D01*
X13962775Y16536301D01*
X13958119Y16534720D01*
X13953709Y16532545D01*
X13949623Y16529816D01*
X13945927Y16526573D01*
X13826852Y16407500D01*
X13823146D01*
X13704073Y16526573D01*
X13700377Y16529816D01*
X13696291Y16532545D01*
X13691881Y16534720D01*
X13687225Y16536301D01*
X13682405Y16537259D01*
X13677499Y16537581D01*
X12772500D01*
X12767595Y16537259D01*
X12762774Y16536301D01*
X12758119Y16534720D01*
X12753710Y16532545D01*
X12749622Y16529816D01*
X12745927Y16526573D01*
X12626853Y16407500D01*
X12623146D01*
X12504073Y16526573D01*
X12500377Y16529816D01*
X12496290Y16532545D01*
X12491881Y16534720D01*
X12487226Y16536301D01*
X12482405Y16537259D01*
X12477499Y16537581D01*
X11572500D01*
X11567595Y16537259D01*
X11562773Y16536301D01*
X11558118Y16534720D01*
X11553710Y16532545D01*
X11549622Y16529816D01*
X11545927Y16526573D01*
X11426853Y16407500D01*
X11421911D01*
X11415772Y16406808D01*
X11409750Y16405434D01*
X11403919Y16403394D01*
X11398353Y16400713D01*
X11393123Y16397426D01*
X11388293Y16393575D01*
X11383925Y16389207D01*
X11380073Y16384377D01*
X11376786Y16379146D01*
X11374106Y16373581D01*
X11372066Y16367751D01*
X11370691Y16361726D01*
X11370000Y16355589D01*
Y16349411D01*
X11370691Y16343272D01*
X11372066Y16337250D01*
X11374106Y16331419D01*
X11376786Y16325854D01*
X11380073Y16320622D01*
X11383925Y16315793D01*
X11388293Y16311424D01*
X11393123Y16307573D01*
X11398353Y16304288D01*
X11403919Y16301607D01*
X11409750Y16299567D01*
X11415772Y16298192D01*
X11421911Y16297501D01*
X11428088D01*
X11434227Y16298192D01*
X11440249Y16299567D01*
X11446080Y16301607D01*
X11451646Y16304288D01*
X11456877Y16307573D01*
X11461706Y16311424D01*
X11466074Y16315793D01*
X11469926Y16320622D01*
X11473213Y16325854D01*
X11475893Y16331419D01*
X11477933Y16337250D01*
X11479308Y16343272D01*
X11479999Y16349411D01*
Y16354353D01*
X11588066Y16462421D01*
X12461933D01*
X12570000Y16354353D01*
Y16349411D01*
X12570691Y16343272D01*
X12572066Y16337250D01*
X12574106Y16331419D01*
X12576787Y16325854D01*
X12580073Y16320622D01*
X12583925Y16315793D01*
X12588293Y16311424D01*
X12593123Y16307573D01*
X12598353Y16304288D01*
X12603919Y16301607D01*
X12609750Y16299567D01*
X12615772Y16298192D01*
X12621911Y16297501D01*
X12628088D01*
X12634227Y16298192D01*
X12640250Y16299567D01*
X12646080Y16301607D01*
X12651646Y16304288D01*
X12656877Y16307573D01*
X12661706Y16311424D01*
X12666074Y16315793D01*
X12669926Y16320622D01*
X12673213Y16325854D01*
X12675893Y16331419D01*
X12677933Y16337250D01*
X12679308Y16343272D01*
X12680000Y16349411D01*
Y16354353D01*
X12788066Y16462421D01*
X13661932D01*
X13770000Y16354353D01*
Y16349411D01*
X13770692Y16343272D01*
X13772066Y16337250D01*
X13774107Y16331419D01*
X13776787Y16325854D01*
X13780074Y16320622D01*
X13783925Y16315793D01*
X13788293Y16311424D01*
X13793123Y16307573D01*
X13798354Y16304288D01*
X13803918Y16301607D01*
X13809750Y16299567D01*
X13815771Y16298192D01*
X13821912Y16297501D01*
X13828088D01*
X13834227Y16298192D01*
X13840250Y16299567D01*
X13846082Y16301607D01*
X13851646Y16304288D01*
X13856877Y16307573D01*
X13861707Y16311424D01*
X13866075Y16315793D01*
X13869926Y16320622D01*
X13873213Y16325854D01*
X13875893Y16331419D01*
X13877933Y16337250D01*
X13879308Y16343272D01*
X13880000Y16349411D01*
Y16354353D01*
X13988066Y16462421D01*
X14861932D01*
X14970000Y16354353D01*
Y16349411D01*
X14970692Y16343272D01*
X14972066Y16337250D01*
X14974107Y16331419D01*
X14976787Y16325854D01*
X14980074Y16320622D01*
X14983925Y16315793D01*
X14988293Y16311424D01*
X14993123Y16307573D01*
X14998354Y16304288D01*
X15003918Y16301607D01*
X15009750Y16299567D01*
X15015773Y16298192D01*
X15021912Y16297501D01*
X15028088D01*
X15034227Y16298192D01*
X15040250Y16299567D01*
X15046082Y16301607D01*
X15051646Y16304288D01*
X15056877Y16307573D01*
X15061707Y16311424D01*
X15066075Y16315793D01*
X15069926Y16320622D01*
X15073213Y16325854D01*
X15075893Y16331419D01*
X15077934Y16337250D01*
X15079308Y16343272D01*
X15080000Y16349411D01*
Y16355589D01*
X15079308Y16361726D01*
X15077934Y16367751D01*
X15075893Y16373581D01*
X15073213Y16379146D01*
X15069926Y16384377D01*
X15066075Y16389207D01*
X15061707Y16393575D01*
X15056877Y16397426D01*
X15051646Y16400713D01*
X15046082Y16403394D01*
X15040250Y16405434D01*
X15034227Y16406808D01*
X15028088Y16407500D01*
X15023146D01*
X14904073Y16526573D01*
X14900377Y16529816D01*
X14896291Y16532545D01*
X14891881Y16534720D01*
X14887225Y16536301D01*
X14882405Y16537259D01*
X14877499Y16537581D01*
D02*
G37*
G36*
Y14237579D02*
X13972501D01*
X13967595Y14237259D01*
X13962775Y14236301D01*
X13958119Y14234720D01*
X13953709Y14232545D01*
X13949623Y14229814D01*
X13945927Y14226573D01*
X13826852Y14107500D01*
X13823146D01*
X13704073Y14226573D01*
X13700377Y14229814D01*
X13696291Y14232545D01*
X13691881Y14234720D01*
X13687225Y14236301D01*
X13682405Y14237259D01*
X13677499Y14237579D01*
X12772500D01*
X12767595Y14237259D01*
X12762774Y14236301D01*
X12758119Y14234720D01*
X12753710Y14232545D01*
X12749622Y14229814D01*
X12745927Y14226573D01*
X12626853Y14107500D01*
X12623146D01*
X12504073Y14226573D01*
X12500377Y14229814D01*
X12496290Y14232545D01*
X12491881Y14234720D01*
X12487226Y14236301D01*
X12482405Y14237259D01*
X12477499Y14237579D01*
X11572500D01*
X11567595Y14237259D01*
X11562773Y14236301D01*
X11558118Y14234720D01*
X11553710Y14232545D01*
X11549622Y14229814D01*
X11545927Y14226573D01*
X11426853Y14107500D01*
X11421911D01*
X11415772Y14106808D01*
X11409750Y14105434D01*
X11403919Y14103394D01*
X11398353Y14100713D01*
X11393123Y14097426D01*
X11388293Y14093575D01*
X11383925Y14089206D01*
X11380073Y14084377D01*
X11376786Y14079146D01*
X11374106Y14073579D01*
X11372066Y14067749D01*
X11370691Y14061726D01*
X11370000Y14055588D01*
Y14049411D01*
X11370691Y14043272D01*
X11372066Y14037250D01*
X11374106Y14031419D01*
X11376786Y14025853D01*
X11380073Y14020622D01*
X11383925Y14015793D01*
X11388293Y14011424D01*
X11393123Y14007573D01*
X11398353Y14004286D01*
X11403919Y14001607D01*
X11409750Y13999567D01*
X11415772Y13998190D01*
X11421911Y13997501D01*
X11428088D01*
X11434227Y13998190D01*
X11440249Y13999567D01*
X11446080Y14001607D01*
X11451646Y14004286D01*
X11456877Y14007573D01*
X11461706Y14011424D01*
X11466074Y14015793D01*
X11469926Y14020622D01*
X11473213Y14025853D01*
X11475893Y14031419D01*
X11477933Y14037250D01*
X11479308Y14043272D01*
X11479999Y14049411D01*
Y14054353D01*
X11588066Y14162419D01*
X12461933D01*
X12570000Y14054353D01*
Y14049411D01*
X12570691Y14043272D01*
X12572066Y14037250D01*
X12574106Y14031419D01*
X12576787Y14025853D01*
X12580073Y14020622D01*
X12583925Y14015793D01*
X12588293Y14011424D01*
X12593123Y14007573D01*
X12598353Y14004286D01*
X12603919Y14001607D01*
X12609750Y13999567D01*
X12615772Y13998190D01*
X12621911Y13997501D01*
X12628088D01*
X12634227Y13998190D01*
X12640250Y13999567D01*
X12646080Y14001607D01*
X12651646Y14004286D01*
X12656877Y14007573D01*
X12661706Y14011424D01*
X12666074Y14015793D01*
X12669926Y14020622D01*
X12673213Y14025853D01*
X12675893Y14031419D01*
X12677933Y14037250D01*
X12679308Y14043272D01*
X12680000Y14049411D01*
Y14054353D01*
X12788066Y14162419D01*
X13661932D01*
X13770000Y14054353D01*
Y14049411D01*
X13770692Y14043272D01*
X13772066Y14037250D01*
X13774107Y14031419D01*
X13776787Y14025853D01*
X13780074Y14020622D01*
X13783925Y14015793D01*
X13788293Y14011424D01*
X13793123Y14007573D01*
X13798354Y14004286D01*
X13803918Y14001607D01*
X13809750Y13999567D01*
X13815771Y13998190D01*
X13821912Y13997501D01*
X13828088D01*
X13834227Y13998190D01*
X13840250Y13999567D01*
X13846082Y14001607D01*
X13851646Y14004286D01*
X13856877Y14007573D01*
X13861707Y14011424D01*
X13866075Y14015793D01*
X13869926Y14020622D01*
X13873213Y14025853D01*
X13875893Y14031419D01*
X13877933Y14037250D01*
X13879308Y14043272D01*
X13880000Y14049411D01*
Y14054353D01*
X13988066Y14162419D01*
X14861932D01*
X14970000Y14054353D01*
Y14049411D01*
X14970692Y14043272D01*
X14972066Y14037250D01*
X14974107Y14031419D01*
X14976787Y14025853D01*
X14980074Y14020622D01*
X14983925Y14015793D01*
X14988293Y14011424D01*
X14993123Y14007573D01*
X14998354Y14004286D01*
X15003918Y14001607D01*
X15009750Y13999567D01*
X15015773Y13998190D01*
X15021912Y13997501D01*
X15028088D01*
X15034227Y13998190D01*
X15040250Y13999567D01*
X15046082Y14001607D01*
X15051646Y14004286D01*
X15056877Y14007573D01*
X15061707Y14011424D01*
X15066075Y14015793D01*
X15069926Y14020622D01*
X15073213Y14025853D01*
X15075893Y14031419D01*
X15077934Y14037250D01*
X15079308Y14043272D01*
X15080000Y14049411D01*
Y14055588D01*
X15079308Y14061726D01*
X15077934Y14067749D01*
X15075893Y14073579D01*
X15073213Y14079146D01*
X15069926Y14084377D01*
X15066075Y14089206D01*
X15061707Y14093575D01*
X15056877Y14097426D01*
X15051646Y14100713D01*
X15046082Y14103394D01*
X15040250Y14105434D01*
X15034227Y14106808D01*
X15028088Y14107500D01*
X15023146D01*
X14904073Y14226573D01*
X14900377Y14229814D01*
X14896291Y14232545D01*
X14891881Y14234720D01*
X14887225Y14236301D01*
X14882405Y14237259D01*
X14877499Y14237579D01*
D02*
G37*
G36*
Y12637580D02*
X13972501D01*
X13967595Y12637259D01*
X13962775Y12636300D01*
X13958119Y12634720D01*
X13953709Y12632545D01*
X13949623Y12629814D01*
X13945927Y12626573D01*
X13826852Y12507499D01*
X13823146D01*
X13704073Y12626573D01*
X13700377Y12629814D01*
X13696291Y12632545D01*
X13691881Y12634720D01*
X13687225Y12636300D01*
X13682405Y12637259D01*
X13677499Y12637580D01*
X12772500D01*
X12767595Y12637259D01*
X12762774Y12636300D01*
X12758119Y12634720D01*
X12753710Y12632545D01*
X12749622Y12629814D01*
X12745927Y12626573D01*
X12626853Y12507499D01*
X12623146D01*
X12504073Y12626573D01*
X12500377Y12629814D01*
X12496290Y12632545D01*
X12491881Y12634720D01*
X12487226Y12636300D01*
X12482405Y12637259D01*
X12477499Y12637580D01*
X11572500D01*
X11567595Y12637259D01*
X11562773Y12636300D01*
X11558118Y12634720D01*
X11553710Y12632545D01*
X11549622Y12629814D01*
X11545927Y12626573D01*
X11426853Y12507499D01*
X11421911D01*
X11415772Y12506808D01*
X11409750Y12505433D01*
X11403919Y12503393D01*
X11398353Y12500713D01*
X11393123Y12497426D01*
X11388293Y12493574D01*
X11383925Y12489206D01*
X11380073Y12484377D01*
X11376786Y12479146D01*
X11374106Y12473580D01*
X11372066Y12467750D01*
X11370691Y12461727D01*
X11370000Y12455588D01*
Y12449411D01*
X11370691Y12443272D01*
X11372066Y12437250D01*
X11374106Y12431419D01*
X11376786Y12425853D01*
X11380073Y12420623D01*
X11383925Y12415793D01*
X11388293Y12411425D01*
X11393123Y12407573D01*
X11398353Y12404287D01*
X11403919Y12401606D01*
X11409750Y12399566D01*
X11415772Y12398191D01*
X11421911Y12397500D01*
X11428088D01*
X11434227Y12398191D01*
X11440249Y12399566D01*
X11446080Y12401606D01*
X11451646Y12404287D01*
X11456877Y12407573D01*
X11461706Y12411425D01*
X11466074Y12415793D01*
X11469926Y12420623D01*
X11473213Y12425853D01*
X11475893Y12431419D01*
X11477933Y12437250D01*
X11479308Y12443272D01*
X11479999Y12449411D01*
Y12454353D01*
X11588066Y12562420D01*
X12461933D01*
X12570000Y12454353D01*
Y12449411D01*
X12570691Y12443272D01*
X12572066Y12437250D01*
X12574106Y12431419D01*
X12576787Y12425853D01*
X12580073Y12420623D01*
X12583925Y12415793D01*
X12588293Y12411425D01*
X12593123Y12407573D01*
X12598353Y12404287D01*
X12603919Y12401606D01*
X12609750Y12399566D01*
X12615772Y12398191D01*
X12621911Y12397500D01*
X12628088D01*
X12634227Y12398191D01*
X12640250Y12399566D01*
X12646080Y12401606D01*
X12651646Y12404287D01*
X12656877Y12407573D01*
X12661706Y12411425D01*
X12666074Y12415793D01*
X12669926Y12420623D01*
X12673213Y12425853D01*
X12675893Y12431419D01*
X12677933Y12437250D01*
X12679308Y12443272D01*
X12680000Y12449411D01*
Y12454353D01*
X12788066Y12562420D01*
X13661932D01*
X13770000Y12454353D01*
Y12449411D01*
X13770692Y12443272D01*
X13772066Y12437250D01*
X13774107Y12431419D01*
X13776787Y12425853D01*
X13780074Y12420623D01*
X13783925Y12415793D01*
X13788293Y12411425D01*
X13793123Y12407573D01*
X13798354Y12404287D01*
X13803918Y12401606D01*
X13809750Y12399566D01*
X13815771Y12398191D01*
X13821912Y12397500D01*
X13828088D01*
X13834227Y12398191D01*
X13840250Y12399566D01*
X13846082Y12401606D01*
X13851646Y12404287D01*
X13856877Y12407573D01*
X13861707Y12411425D01*
X13866075Y12415793D01*
X13869926Y12420623D01*
X13873213Y12425853D01*
X13875893Y12431419D01*
X13877933Y12437250D01*
X13879308Y12443272D01*
X13880000Y12449411D01*
Y12454353D01*
X13988066Y12562420D01*
X14861932D01*
X14970000Y12454353D01*
Y12449411D01*
X14970692Y12443272D01*
X14972066Y12437250D01*
X14974107Y12431419D01*
X14976787Y12425853D01*
X14980074Y12420623D01*
X14983925Y12415793D01*
X14988293Y12411425D01*
X14993123Y12407573D01*
X14998354Y12404287D01*
X15003918Y12401606D01*
X15009750Y12399566D01*
X15015773Y12398191D01*
X15021912Y12397500D01*
X15028088D01*
X15034227Y12398191D01*
X15040250Y12399566D01*
X15046082Y12401606D01*
X15051646Y12404287D01*
X15056877Y12407573D01*
X15061707Y12411425D01*
X15066075Y12415793D01*
X15069926Y12420623D01*
X15073213Y12425853D01*
X15075893Y12431419D01*
X15077934Y12437250D01*
X15079308Y12443272D01*
X15080000Y12449411D01*
Y12455588D01*
X15079308Y12461727D01*
X15077934Y12467750D01*
X15075893Y12473580D01*
X15073213Y12479146D01*
X15069926Y12484377D01*
X15066075Y12489206D01*
X15061707Y12493574D01*
X15056877Y12497426D01*
X15051646Y12500713D01*
X15046082Y12503393D01*
X15040250Y12505433D01*
X15034227Y12506808D01*
X15028088Y12507499D01*
X15023146D01*
X14904073Y12626573D01*
X14900377Y12629814D01*
X14896291Y12632545D01*
X14891881Y12634720D01*
X14887225Y12636300D01*
X14882405Y12637259D01*
X14877499Y12637580D01*
D02*
G37*
G36*
Y11037580D02*
X13972501D01*
X13967595Y11037259D01*
X13962775Y11036300D01*
X13958119Y11034720D01*
X13953709Y11032546D01*
X13949623Y11029815D01*
X13945927Y11026573D01*
X13826852Y10907500D01*
X13823146D01*
X13704073Y11026573D01*
X13700377Y11029815D01*
X13696291Y11032546D01*
X13691881Y11034720D01*
X13687225Y11036300D01*
X13682405Y11037259D01*
X13677499Y11037580D01*
X12772500D01*
X12767595Y11037259D01*
X12762774Y11036300D01*
X12758119Y11034720D01*
X12753710Y11032546D01*
X12749622Y11029815D01*
X12745927Y11026573D01*
X12626853Y10907500D01*
X12623146D01*
X12504073Y11026573D01*
X12500377Y11029815D01*
X12496290Y11032546D01*
X12491881Y11034720D01*
X12487226Y11036300D01*
X12482405Y11037259D01*
X12477499Y11037580D01*
X11572500D01*
X11567595Y11037259D01*
X11562773Y11036300D01*
X11558118Y11034720D01*
X11553710Y11032546D01*
X11549622Y11029815D01*
X11545927Y11026573D01*
X11426853Y10907500D01*
X11421911D01*
X11415772Y10906808D01*
X11409750Y10905433D01*
X11403919Y10903393D01*
X11398353Y10900713D01*
X11393123Y10897426D01*
X11388293Y10893575D01*
X11383925Y10889207D01*
X11380073Y10884377D01*
X11376786Y10879146D01*
X11374106Y10873580D01*
X11372066Y10867750D01*
X11370691Y10861727D01*
X11370000Y10855588D01*
Y10849411D01*
X11370691Y10843272D01*
X11372066Y10837250D01*
X11374106Y10831419D01*
X11376786Y10825853D01*
X11380073Y10820623D01*
X11383925Y10815793D01*
X11388293Y10811425D01*
X11393123Y10807573D01*
X11398353Y10804287D01*
X11403919Y10801607D01*
X11409750Y10799566D01*
X11415772Y10798192D01*
X11421911Y10797500D01*
X11428088D01*
X11434227Y10798192D01*
X11440249Y10799566D01*
X11446080Y10801607D01*
X11451646Y10804287D01*
X11456877Y10807573D01*
X11461706Y10811425D01*
X11466074Y10815793D01*
X11469926Y10820623D01*
X11473213Y10825853D01*
X11475893Y10831419D01*
X11477933Y10837250D01*
X11479308Y10843272D01*
X11479999Y10849411D01*
Y10854353D01*
X11588066Y10962420D01*
X12461933D01*
X12570000Y10854353D01*
Y10849411D01*
X12570691Y10843272D01*
X12572066Y10837250D01*
X12574106Y10831419D01*
X12576787Y10825853D01*
X12580073Y10820623D01*
X12583925Y10815793D01*
X12588293Y10811425D01*
X12593123Y10807573D01*
X12598353Y10804287D01*
X12603919Y10801607D01*
X12609750Y10799566D01*
X12615772Y10798192D01*
X12621911Y10797500D01*
X12628088D01*
X12634227Y10798192D01*
X12640250Y10799566D01*
X12646080Y10801607D01*
X12651646Y10804287D01*
X12656877Y10807573D01*
X12661706Y10811425D01*
X12666074Y10815793D01*
X12669926Y10820623D01*
X12673213Y10825853D01*
X12675893Y10831419D01*
X12677933Y10837250D01*
X12679308Y10843272D01*
X12680000Y10849411D01*
Y10854353D01*
X12788066Y10962420D01*
X13661932D01*
X13770000Y10854353D01*
Y10849411D01*
X13770692Y10843272D01*
X13772066Y10837250D01*
X13774107Y10831419D01*
X13776787Y10825853D01*
X13780074Y10820623D01*
X13783925Y10815793D01*
X13788293Y10811425D01*
X13793123Y10807573D01*
X13798354Y10804287D01*
X13803918Y10801607D01*
X13809750Y10799566D01*
X13815771Y10798192D01*
X13821912Y10797500D01*
X13828088D01*
X13834227Y10798192D01*
X13840250Y10799566D01*
X13846082Y10801607D01*
X13851646Y10804287D01*
X13856877Y10807573D01*
X13861707Y10811425D01*
X13866075Y10815793D01*
X13869926Y10820623D01*
X13873213Y10825853D01*
X13875893Y10831419D01*
X13877933Y10837250D01*
X13879308Y10843272D01*
X13880000Y10849411D01*
Y10854353D01*
X13988066Y10962420D01*
X14861932D01*
X14970000Y10854353D01*
Y10849411D01*
X14970692Y10843272D01*
X14972066Y10837250D01*
X14974107Y10831419D01*
X14976787Y10825853D01*
X14980074Y10820623D01*
X14983925Y10815793D01*
X14988293Y10811425D01*
X14993123Y10807573D01*
X14998354Y10804287D01*
X15003918Y10801607D01*
X15009750Y10799566D01*
X15015773Y10798192D01*
X15021912Y10797500D01*
X15028088D01*
X15034227Y10798192D01*
X15040250Y10799566D01*
X15046082Y10801607D01*
X15051646Y10804287D01*
X15056877Y10807573D01*
X15061707Y10811425D01*
X15066075Y10815793D01*
X15069926Y10820623D01*
X15073213Y10825853D01*
X15075893Y10831419D01*
X15077934Y10837250D01*
X15079308Y10843272D01*
X15080000Y10849411D01*
Y10855588D01*
X15079308Y10861727D01*
X15077934Y10867750D01*
X15075893Y10873580D01*
X15073213Y10879146D01*
X15069926Y10884377D01*
X15066075Y10889207D01*
X15061707Y10893575D01*
X15056877Y10897426D01*
X15051646Y10900713D01*
X15046082Y10903393D01*
X15040250Y10905433D01*
X15034227Y10906808D01*
X15028088Y10907500D01*
X15023146D01*
X14904073Y11026573D01*
X14900377Y11029815D01*
X14896291Y11032546D01*
X14891881Y11034720D01*
X14887225Y11036300D01*
X14882405Y11037259D01*
X14877499Y11037580D01*
D02*
G37*
%LPD*%
D13*
X13300000Y20500000D02*
X13300000D01*
X13499998Y19955000D02*
Y20450000D01*
X13300000Y19955000D02*
Y20450000D01*
X13700000Y19955000D02*
Y20450000D01*
X14100002Y19952499D02*
Y20400000D01*
X14300000Y20500000D02*
X14300000D01*
X14499998D02*
X14500000D01*
Y19952499D02*
Y20450000D01*
X14700000Y20500000D02*
X14700000D01*
X14899998D02*
X14900000D01*
X14100000Y20450000D02*
Y20500000D01*
X13499998D02*
X13500000D01*
X14300000Y19955000D02*
Y20450000D01*
X14700000Y19955000D02*
Y20450000D01*
X14900000Y19955000D02*
Y20450000D01*
X11990500Y20700002D02*
X12047500Y20642999D01*
X12187500Y20643001D02*
X12244500Y20700002D01*
X12187500Y20497501D02*
Y20643001D01*
X12047500Y20555490D02*
Y20642999D01*
X12117500Y20526495D02*
Y20700002D01*
X12011005Y20420000D02*
X12117500Y20526495D01*
X11982010Y20489999D02*
X12047500Y20555490D01*
X12040000Y20350000D02*
X12187500Y20497501D01*
X11461005Y20420000D02*
X12011005D01*
X11432010Y20489999D02*
X11982010D01*
X11490000Y20350000D02*
X12040000D01*
X11200000Y20158995D02*
X11461005Y20420000D01*
X11130000Y20187990D02*
X11432010Y20489999D01*
X11270000Y20130000D02*
X11490000Y20350000D01*
X13327499Y19000000D02*
X13375000Y19047501D01*
X12750000Y19000000D02*
X13327499D01*
X12600000Y19150000D02*
X12750000Y19000000D01*
X12178505Y19150000D02*
X12600000D01*
X11508995Y18920000D02*
X11948505D01*
X12178505Y19150000D01*
X11270000Y19158995D02*
X11508995Y18920000D01*
X11270000Y19158995D02*
Y20130000D01*
X11200000Y19130000D02*
X11480000Y18850000D01*
X11977500D02*
X12175000Y19047501D01*
X11480000Y18850000D02*
X11977500D01*
X11200000Y19130000D02*
Y20158995D01*
X14877499Y18100000D02*
X15025000Y17952499D01*
X13825000Y10852500D02*
X13972501Y11000000D01*
X14877499D02*
X15025000Y10852500D01*
X13972501Y11000000D02*
X14877499D01*
X12772500D02*
X13677499D01*
X11572500D02*
X12477499D01*
X12625000Y10852500D02*
X12772500Y11000000D01*
X13677499D02*
X13825000Y10852500D01*
X11425000D02*
X11572500Y11000000D01*
X12477499D02*
X12625000Y10852500D01*
X14877499Y12600000D02*
X15025000Y12452500D01*
X13972501Y12600000D02*
X14877499D01*
X13825000Y12452500D02*
X13972501Y12600000D01*
X12772500D02*
X13677499D01*
X11572500D02*
X12477499D01*
X12625000Y12452500D02*
X12772500Y12600000D01*
X13677499D02*
X13825000Y12452500D01*
X11425000D02*
X11572500Y12600000D01*
X12477499D02*
X12625000Y12452500D01*
X14877499Y14200000D02*
X15025000Y14052499D01*
X13972501Y14200000D02*
X14877499D01*
X13825000Y14052499D02*
X13972501Y14200000D01*
X12772500D02*
X13677499D01*
X11572500D02*
X12477499D01*
X13677499D02*
X13825000Y14052499D01*
X12625000D02*
X12772500Y14200000D01*
X11425000Y14052499D02*
X11572500Y14200000D01*
X12477499D02*
X12625000Y14052499D01*
X14877499Y16500000D02*
X15025000Y16352499D01*
X13972501Y16500000D02*
X14877499D01*
X13825000Y16352499D02*
X13972501Y16500000D01*
X12772500D02*
X13677499D01*
X11572500D02*
X12477499D01*
X13677499D02*
X13825000Y16352499D01*
X12625000D02*
X12772500Y16500000D01*
X11425000Y16352499D02*
X11572500Y16500000D01*
X12477499D02*
X12625000Y16352499D01*
X10975000Y19047501D02*
X11130000Y19202501D01*
Y20187990D01*
X13825000Y17952499D02*
X13972501Y18100000D01*
X14877499D01*
X12625000Y17952499D02*
X12772500Y18100000D01*
X13677499D02*
X13825000Y17952499D01*
X12772500Y18100000D02*
X13677499D01*
X11425000Y17952499D02*
X11572500Y18100000D01*
X12477499D02*
X12625000Y17952499D01*
X11572500Y18100000D02*
X12477499D01*
X12117500Y19700000D02*
X14361867D01*
X14575000Y19047501D02*
Y19486867D01*
X14361867Y19700000D02*
X14575000Y19486867D01*
D16*
X15100002Y20450000D02*
D03*
D17*
X14900002D02*
D03*
X14700002D02*
D03*
X14500002D02*
D03*
X14300002D02*
D03*
X14100002D02*
D03*
X13900002D02*
D03*
X13700002D02*
D03*
X13500000D02*
D03*
X13300000D02*
D03*
D18*
X14200000Y10600000D02*
D03*
X15400000D02*
D03*
Y12200000D02*
D03*
X14200000D02*
D03*
X13000000D02*
D03*
X10600000Y10600000D02*
D03*
X11800000D02*
D03*
X13000000D02*
D03*
X11800000Y12200000D02*
D03*
X10600000D02*
D03*
Y13800000D02*
D03*
X11800000D02*
D03*
X13000000D02*
D03*
X14200000D02*
D03*
X15400000D02*
D03*
Y15750000D02*
D03*
X14200000D02*
D03*
X13000000D02*
D03*
X11800000D02*
D03*
X10600000D02*
D03*
Y17700000D02*
D03*
X11800000D02*
D03*
X13000000D02*
D03*
X14200000D02*
D03*
X15400000D02*
D03*
Y19300000D02*
D03*
X14200000D02*
D03*
X13000000D02*
D03*
X11800000D02*
D03*
X10600000D02*
D03*
D19*
X10600000Y10800000D02*
D03*
X10741421Y10741421D02*
D03*
X10800000Y10600000D02*
D03*
X10741421Y10458579D02*
D03*
X10600000Y10400000D02*
D03*
X10458579Y10458579D02*
D03*
X10400000Y10600000D02*
D03*
X10458579Y10741421D02*
D03*
X11800000Y10800000D02*
D03*
X11941421Y10741421D02*
D03*
X12000000Y10600000D02*
D03*
X11941421Y10458579D02*
D03*
X11800000Y10400000D02*
D03*
X11658579Y10458579D02*
D03*
X11600000Y10600000D02*
D03*
X11658579Y10741421D02*
D03*
X13000000Y10800000D02*
D03*
X13141422Y10741421D02*
D03*
X13200000Y10600000D02*
D03*
X13141422Y10458579D02*
D03*
X13000000Y10400000D02*
D03*
X12858578Y10458579D02*
D03*
X12800000Y10600000D02*
D03*
X12858578Y10741421D02*
D03*
X14200000Y10800000D02*
D03*
X14341422Y10741421D02*
D03*
X14400000Y10600000D02*
D03*
X14341422Y10458579D02*
D03*
X14200000Y10400000D02*
D03*
X14058578Y10458579D02*
D03*
X14000000Y10600000D02*
D03*
X14058578Y10741421D02*
D03*
X15400000Y10800000D02*
D03*
X15541422Y10741421D02*
D03*
X15600000Y10600000D02*
D03*
X15541422Y10458579D02*
D03*
X15400000Y10400000D02*
D03*
X15258578Y10458579D02*
D03*
X15200000Y10600000D02*
D03*
X15258578Y10741421D02*
D03*
X15400000Y12400000D02*
D03*
X15541422Y12341421D02*
D03*
X15600000Y12200000D02*
D03*
X15541422Y12058579D02*
D03*
X15400000Y12000000D02*
D03*
X15258578Y12058579D02*
D03*
X15200000Y12200000D02*
D03*
X15258578Y12341421D02*
D03*
X14200000Y12400000D02*
D03*
X14341422Y12341421D02*
D03*
X14400000Y12200000D02*
D03*
X14341422Y12058579D02*
D03*
X14200000Y12000000D02*
D03*
X14058578Y12058579D02*
D03*
X14000000Y12200000D02*
D03*
X14058578Y12341421D02*
D03*
X13000000Y12400000D02*
D03*
X13141422Y12341421D02*
D03*
X13200000Y12200000D02*
D03*
X13141422Y12058579D02*
D03*
X13000000Y12000000D02*
D03*
X12858578Y12058579D02*
D03*
X12800000Y12200000D02*
D03*
X12858578Y12341421D02*
D03*
X11800000Y12400000D02*
D03*
X11941421Y12341421D02*
D03*
X12000000Y12200000D02*
D03*
X11941421Y12058579D02*
D03*
X11800000Y12000000D02*
D03*
X11658579Y12058579D02*
D03*
X11600000Y12200000D02*
D03*
X11658579Y12341421D02*
D03*
X10600000Y12400000D02*
D03*
X10741421Y12341421D02*
D03*
X10800000Y12200000D02*
D03*
X10741421Y12058579D02*
D03*
X10600000Y12000000D02*
D03*
X10458579Y12058579D02*
D03*
X10400000Y12200000D02*
D03*
X10458579Y12341421D02*
D03*
X10600000Y14000000D02*
D03*
X10741421Y13941422D02*
D03*
X10800000Y13800000D02*
D03*
X10741421Y13658578D02*
D03*
X10600000Y13600000D02*
D03*
X10458579Y13658578D02*
D03*
X10400000Y13800000D02*
D03*
X10458579Y13941422D02*
D03*
X11800000Y14000000D02*
D03*
X11941421Y13941422D02*
D03*
X12000000Y13800000D02*
D03*
X11941421Y13658578D02*
D03*
X11800000Y13600000D02*
D03*
X11658579Y13658578D02*
D03*
X11600000Y13800000D02*
D03*
X11658579Y13941422D02*
D03*
X13000000Y14000000D02*
D03*
X13141422Y13941422D02*
D03*
X13200000Y13800000D02*
D03*
X13141422Y13658578D02*
D03*
X13000000Y13600000D02*
D03*
X12858578Y13658578D02*
D03*
X12800000Y13800000D02*
D03*
X12858578Y13941422D02*
D03*
X14200000Y14000000D02*
D03*
X14341422Y13941422D02*
D03*
X14400000Y13800000D02*
D03*
X14341422Y13658578D02*
D03*
X14200000Y13600000D02*
D03*
X14058578Y13658578D02*
D03*
X14000000Y13800000D02*
D03*
X14058578Y13941422D02*
D03*
X15400000Y14000000D02*
D03*
X15541422Y13941422D02*
D03*
X15600000Y13800000D02*
D03*
X15541422Y13658578D02*
D03*
X15400000Y13600000D02*
D03*
X15258578Y13658578D02*
D03*
X15200000Y13800000D02*
D03*
X15258578Y13941422D02*
D03*
X13000000Y17900000D02*
D03*
X13141422Y17841422D02*
D03*
X13200000Y17700000D02*
D03*
X13141422Y17558578D02*
D03*
X13000000Y17500000D02*
D03*
X12858578Y17558578D02*
D03*
X12800000Y17700000D02*
D03*
X12858578Y17841422D02*
D03*
X14200000Y17900000D02*
D03*
X14341422Y17841422D02*
D03*
X14400000Y17700000D02*
D03*
X14341422Y17558578D02*
D03*
X14200000Y17500000D02*
D03*
X14058578Y17558578D02*
D03*
X14000000Y17700000D02*
D03*
X14058578Y17841422D02*
D03*
X15400000Y17900000D02*
D03*
X15541422Y17841422D02*
D03*
X15600000Y17700000D02*
D03*
X15541422Y17558578D02*
D03*
X15400000Y17500000D02*
D03*
X15258578Y17558578D02*
D03*
X15200000Y17700000D02*
D03*
X15258578Y17841422D02*
D03*
X15400000Y15950000D02*
D03*
X15541422Y15891422D02*
D03*
X15600000Y15750000D02*
D03*
X15541422Y15608578D02*
D03*
X15400000Y15550000D02*
D03*
X15258578Y15608578D02*
D03*
X15200000Y15750000D02*
D03*
X15258578Y15891422D02*
D03*
X14200000Y15950000D02*
D03*
X14341422Y15891422D02*
D03*
X14400000Y15750000D02*
D03*
X14341422Y15608578D02*
D03*
X14200000Y15550000D02*
D03*
X14058578Y15608578D02*
D03*
X14000000Y15750000D02*
D03*
X14058578Y15891422D02*
D03*
X13000000Y15950000D02*
D03*
X13141422Y15891422D02*
D03*
X13200000Y15750000D02*
D03*
X13141422Y15608578D02*
D03*
X13000000Y15550000D02*
D03*
X12858578Y15608578D02*
D03*
X12800000Y15750000D02*
D03*
X12858578Y15891422D02*
D03*
X11800000Y15950000D02*
D03*
X11941422Y15891422D02*
D03*
X12000000Y15750000D02*
D03*
X11941422Y15608578D02*
D03*
X11800000Y15550000D02*
D03*
X11658579Y15608578D02*
D03*
X11600000Y15750000D02*
D03*
X11658579Y15891422D02*
D03*
X10600000Y15950000D02*
D03*
X10741421Y15891422D02*
D03*
X10800000Y15750000D02*
D03*
X10741421Y15608578D02*
D03*
X10600000Y15550000D02*
D03*
X10458579Y15608578D02*
D03*
X10400000Y15750000D02*
D03*
X10458579Y15891422D02*
D03*
X11800000Y17900000D02*
D03*
X11941422Y17841422D02*
D03*
X12000000Y17700000D02*
D03*
X11941422Y17558578D02*
D03*
X11800000Y17500000D02*
D03*
X11658579Y17558578D02*
D03*
X11600000Y17700000D02*
D03*
X11658579Y17841422D02*
D03*
X10600000Y17900000D02*
D03*
X10741421Y17841422D02*
D03*
X10800000Y17700000D02*
D03*
X10741421Y17558578D02*
D03*
X10600000Y17500000D02*
D03*
X10458579Y17558578D02*
D03*
X10400000Y17700000D02*
D03*
X10458579Y17841422D02*
D03*
X10600000Y19500000D02*
D03*
X10741421Y19441422D02*
D03*
X10800000Y19300000D02*
D03*
X10741421Y19158578D02*
D03*
X10600000Y19100000D02*
D03*
X10458579Y19158578D02*
D03*
X10400000Y19300000D02*
D03*
X10458579Y19441422D02*
D03*
X11800000Y19500000D02*
D03*
X11941422Y19441422D02*
D03*
X12000000Y19300000D02*
D03*
X11941422Y19158578D02*
D03*
X11800000Y19100000D02*
D03*
X11658579Y19158578D02*
D03*
X11600000Y19300000D02*
D03*
X11658579Y19441422D02*
D03*
X13000000Y19500000D02*
D03*
X13141422Y19441422D02*
D03*
X13200000Y19300000D02*
D03*
X13141422Y19158578D02*
D03*
X13000000Y19100000D02*
D03*
X12858578Y19158578D02*
D03*
X12800000Y19300000D02*
D03*
X12858578Y19441422D02*
D03*
X14200000Y19500000D02*
D03*
X14341422Y19441422D02*
D03*
X14400000Y19300000D02*
D03*
X14341422Y19158578D02*
D03*
X14200000Y19100000D02*
D03*
X14058578Y19158578D02*
D03*
X14000000Y19300000D02*
D03*
X14058578Y19441422D02*
D03*
X15258578D02*
D03*
X15200000Y19300000D02*
D03*
X15258578Y19158578D02*
D03*
X15400000Y19100000D02*
D03*
X15541422Y19158578D02*
D03*
X15600000Y19300000D02*
D03*
X15541422Y19441422D02*
D03*
X15400000Y19500000D02*
D03*
X15025000Y10852500D02*
D03*
X13825000D02*
D03*
X12625000D02*
D03*
X11425000D02*
D03*
X15025000Y12452500D02*
D03*
X13825000D02*
D03*
X12625000D02*
D03*
X11425000D02*
D03*
X15025000Y14052499D02*
D03*
X13825000D02*
D03*
X12625000D02*
D03*
X11425000D02*
D03*
X15025000Y16352499D02*
D03*
X13825000D02*
D03*
X12625000D02*
D03*
X11425000D02*
D03*
Y17952499D02*
D03*
X12625000D02*
D03*
X13825000D02*
D03*
X15025000D02*
D03*
X14575000Y19047501D02*
D03*
X13375000D02*
D03*
X12175000D02*
D03*
X10975000D02*
D03*
X11990500Y20700002D02*
D03*
X12117500Y20700002D02*
D03*
X12244500D02*
D03*
X12117500Y19700000D02*
D03*
D20*
X13300000Y19955000D02*
D03*
Y19845000D02*
D03*
X13499998Y19955000D02*
D03*
Y19845000D02*
D03*
X13700000Y19955000D02*
D03*
Y19845000D02*
D03*
X14099998Y19955000D02*
D03*
Y19845000D02*
D03*
X14300000Y19955000D02*
D03*
Y19845000D02*
D03*
X14499998Y19955000D02*
D03*
Y19845000D02*
D03*
X14700000Y19955000D02*
D03*
Y19845000D02*
D03*
X14899998Y19955000D02*
D03*
Y19845000D02*
D03*
%TF.MD5,40dd997fb1bb57b7ff18ba6e7586e9c8*%
M02*
