%TF.GenerationSoftware,Altium Limited,Altium Designer,25.6.2 (33)*%
G04 Layer_Color=65535*
%FSLAX45Y45*%
%MOMM*%
%TF.SameCoordinates,4265A882-CCA4-4A53-A555-757F884491BB*%
%TF.FilePolarity,Positive*%
%TF.FileFunction,Legend,Top*%
%TF.Part,Single*%
G01*
G75*
%TA.AperFunction,NonConductor*%
%ADD62C,1.20000*%
%ADD63C,0.25000*%
%ADD64C,0.20000*%
%ADD65C,0.40000*%
%ADD66C,0.30000*%
%ADD67C,1.00000*%
%ADD68R,16.30000X0.54500*%
G36*
X738492Y1974543D02*
Y1974404D01*
Y1974127D01*
Y1973572D01*
X738354Y1972878D01*
Y1972046D01*
Y1971076D01*
X738215Y1968718D01*
X738076Y1966083D01*
X737938Y1963309D01*
X737799Y1960536D01*
X737660Y1957901D01*
Y1957762D01*
Y1957623D01*
Y1956791D01*
Y1955682D01*
Y1954295D01*
X737522Y1952631D01*
Y1950966D01*
Y1949441D01*
Y1948054D01*
X736273D01*
X734887Y1948193D01*
X732945Y1948331D01*
X730587D01*
X727952Y1948470D01*
X724901Y1948609D01*
X721712Y1948747D01*
X718106Y1948886D01*
X714500Y1949025D01*
X707011Y1949163D01*
X699522Y1949441D01*
X683573D01*
Y1949163D01*
X683435Y1948470D01*
Y1947222D01*
X683296Y1945558D01*
X683157Y1943616D01*
X682880Y1941258D01*
X682741Y1938624D01*
X682464Y1935711D01*
X682187Y1932660D01*
X682048Y1929332D01*
X681771Y1925865D01*
X681493Y1922259D01*
X680938Y1915047D01*
X680522Y1907697D01*
Y1907558D01*
Y1907420D01*
Y1907004D01*
Y1906449D01*
X680384Y1905755D01*
Y1905062D01*
X680245Y1902982D01*
Y1900485D01*
X680106Y1897712D01*
X679829Y1894383D01*
X679690Y1890778D01*
X679552Y1886756D01*
X679413Y1882595D01*
X679136Y1878296D01*
X678997Y1873719D01*
X678581Y1864150D01*
X678303Y1854442D01*
Y1854304D01*
Y1854165D01*
Y1853333D01*
Y1851946D01*
X678165Y1850143D01*
Y1847924D01*
X678026Y1845428D01*
Y1842654D01*
Y1839603D01*
X677887Y1836275D01*
Y1832946D01*
X677749Y1826012D01*
X677610Y1819217D01*
Y1815888D01*
Y1812837D01*
X668596D01*
X666377Y1812976D01*
X636005D01*
X632815Y1812837D01*
X621304D01*
Y1812976D01*
X621443Y1813531D01*
Y1814501D01*
X621582Y1815611D01*
X621720Y1817136D01*
X621859Y1819078D01*
X622136Y1821158D01*
X622275Y1823654D01*
X622552Y1826428D01*
X622830Y1829479D01*
X623107Y1832808D01*
X623385Y1836413D01*
X623662Y1840158D01*
X623939Y1844318D01*
X624217Y1848618D01*
X624633Y1853194D01*
X624910Y1857909D01*
X625187Y1862902D01*
X625604Y1868033D01*
X625881Y1873442D01*
X626158Y1878989D01*
X626574Y1884675D01*
X626852Y1890639D01*
X627129Y1896602D01*
X627406Y1902843D01*
X627684Y1909084D01*
X628100Y1922120D01*
X628516Y1935572D01*
X628793Y1949441D01*
X574429Y1948054D01*
X575123Y1962200D01*
Y1962338D01*
Y1962755D01*
Y1963309D01*
X575261Y1964141D01*
Y1965251D01*
Y1966499D01*
X575400Y1968025D01*
Y1969550D01*
X575539Y1971353D01*
Y1973295D01*
X575677Y1977594D01*
X575816Y1982170D01*
X575955Y1987163D01*
X585801D01*
X587743Y1987024D01*
X612429D01*
X619501Y1986886D01*
X660413D01*
X691894Y1987024D01*
X722544D01*
X739186Y1987163D01*
X738492Y1974543D01*
D02*
G37*
G36*
X523671Y1933908D02*
X561532Y1831421D01*
X569020Y1812837D01*
X559590D01*
X557371Y1812976D01*
X524226D01*
X521174Y1812837D01*
X510496D01*
Y1813114D01*
X510218Y1813808D01*
X509941Y1814917D01*
X509525Y1816582D01*
X508832Y1818523D01*
X508138Y1821019D01*
X507306Y1823793D01*
X506474Y1826844D01*
X505364Y1830311D01*
X504116Y1834194D01*
X502868Y1838216D01*
X501343Y1842515D01*
X499817Y1847231D01*
X498153Y1852085D01*
X496350Y1857077D01*
X494408Y1862347D01*
X430059D01*
X429920Y1862070D01*
X429504Y1861377D01*
X428950Y1860128D01*
X428118Y1858464D01*
X427147Y1856384D01*
X425899Y1853749D01*
X424512Y1850975D01*
X422986Y1847785D01*
X421322Y1844180D01*
X419658Y1840435D01*
X417716Y1836275D01*
X415775Y1831976D01*
X413694Y1827399D01*
X411614Y1822684D01*
X409395Y1817830D01*
X407176Y1812837D01*
X397052D01*
X394556Y1812976D01*
X360717D01*
X357527Y1812837D01*
X334922D01*
X330484Y1812976D01*
X239369D01*
X227026Y1812837D01*
X215099D01*
Y1812976D01*
Y1813253D01*
X215238Y1813669D01*
Y1814224D01*
X215376Y1814917D01*
Y1815749D01*
X215654Y1817830D01*
X215931Y1820465D01*
X216208Y1823377D01*
X216486Y1826706D01*
X216902Y1830311D01*
X217179Y1834056D01*
X217595Y1838078D01*
X218427Y1846260D01*
X218705Y1850282D01*
X219121Y1854304D01*
X219398Y1858187D01*
X219675Y1861931D01*
Y1862070D01*
Y1862347D01*
X219814Y1862763D01*
Y1863457D01*
Y1864289D01*
X219953Y1865398D01*
Y1866508D01*
X220092Y1867895D01*
X220230Y1869420D01*
X220369Y1871084D01*
X220508Y1872887D01*
X220646Y1874690D01*
X220924Y1878989D01*
X221201Y1883566D01*
X221478Y1888697D01*
X221756Y1894106D01*
X222172Y1899792D01*
X222449Y1905755D01*
X222865Y1911857D01*
X223143Y1918237D01*
X223697Y1930996D01*
Y1931135D01*
Y1931412D01*
Y1931828D01*
Y1932521D01*
X223836Y1933354D01*
Y1934324D01*
Y1935434D01*
X223975Y1936682D01*
Y1939594D01*
X224113Y1943061D01*
X224252Y1946806D01*
X224391Y1950828D01*
X224529Y1955266D01*
X224668Y1959703D01*
X224807Y1969134D01*
X224945Y1973849D01*
X225084Y1978426D01*
Y1982864D01*
Y1987163D01*
X229522D01*
X231325Y1987024D01*
X240201D01*
X245332Y1986886D01*
X264193D01*
X266135Y1987024D01*
X275981D01*
X278894Y1987163D01*
X281945D01*
X278755Y1940842D01*
X275010Y1868588D01*
X274456Y1850837D01*
X277923D01*
X279726Y1850698D01*
X286244D01*
X291098Y1850559D01*
X295813D01*
X297893Y1850420D01*
X314535D01*
X318141Y1850559D01*
X330207D01*
X338666Y1850837D01*
X342827D01*
X346710Y1850975D01*
X350454Y1851114D01*
X353922Y1851253D01*
X351784Y1821650D01*
X357250Y1831143D01*
X423264Y1955543D01*
X430336Y1969411D01*
Y1969550D01*
X430475Y1969689D01*
X430614Y1970105D01*
X430891Y1970521D01*
X431169Y1971214D01*
X431585Y1972046D01*
X432555Y1973988D01*
X433804Y1976484D01*
X435190Y1979535D01*
X436993Y1983141D01*
X438935Y1987163D01*
X444482D01*
X446562Y1987024D01*
X456825D01*
X462234Y1986886D01*
X485117D01*
X487752Y1987024D01*
X499124D01*
X504948Y1987163D01*
X523671Y1933908D01*
D02*
G37*
G36*
X-212464Y1982864D02*
Y1982725D01*
Y1982448D01*
Y1981893D01*
X-212603Y1980922D01*
X-212741Y1979535D01*
Y1978564D01*
Y1977594D01*
X-212880Y1976346D01*
X-213019Y1974959D01*
Y1973433D01*
X-213157Y1971769D01*
X-213851Y1957901D01*
Y1957762D01*
Y1957207D01*
X-213989Y1956236D01*
Y1955127D01*
Y1953740D01*
X-214128Y1952215D01*
Y1948886D01*
X-215238D01*
X-216486Y1949025D01*
X-218289D01*
X-220369Y1949163D01*
X-222865D01*
X-225639Y1949302D01*
X-228551Y1949441D01*
X-231741D01*
X-235069Y1949580D01*
X-242004Y1949718D01*
X-248938Y1949857D01*
X-273762D01*
X-275704Y1949718D01*
X-285273D01*
X-286660Y1949580D01*
X-291514D01*
X-293455Y1949441D01*
X-297893D01*
X-300390Y1949302D01*
X-302054Y1920040D01*
X-299419D01*
X-297893Y1919901D01*
X-291930D01*
X-289572Y1919762D01*
X-280835D01*
X-277645Y1919624D01*
X-263084D01*
X-261419Y1919762D01*
X-257120D01*
X-254485Y1919901D01*
X-251434D01*
X-247828Y1920040D01*
X-243806Y1920179D01*
X-239369Y1920317D01*
X-234376Y1920456D01*
X-231602D01*
X-228829Y1920595D01*
Y1920456D01*
Y1919901D01*
X-228967Y1918930D01*
X-229106Y1917682D01*
X-229245Y1916157D01*
X-229383Y1914215D01*
X-229522Y1911996D01*
X-229661Y1909639D01*
X-229799Y1906865D01*
X-230077Y1903953D01*
X-230215Y1900624D01*
X-230493Y1897296D01*
X-230631Y1893551D01*
X-230909Y1889807D01*
X-231048Y1885785D01*
X-231325Y1881624D01*
X-241310D01*
X-243806Y1881763D01*
X-274317D01*
X-276813Y1881624D01*
X-282638D01*
X-285966Y1881486D01*
X-289295D01*
X-292901Y1881347D01*
X-296784Y1881208D01*
X-304689Y1880931D01*
X-306214Y1849866D01*
X-284025D01*
X-282083Y1850004D01*
X-271682D01*
X-268215Y1850143D01*
X-264609D01*
X-238120Y1850837D01*
X-236318D01*
X-235485Y1850975D01*
X-233405D01*
X-232157Y1851114D01*
X-230770D01*
X-229106Y1851253D01*
X-227303Y1851391D01*
X-225361Y1851530D01*
X-223281Y1851669D01*
X-220924Y1851807D01*
X-218427Y1851946D01*
Y1851669D01*
Y1851114D01*
X-218566Y1850004D01*
X-218705Y1848618D01*
X-218843Y1846953D01*
X-218982Y1844873D01*
X-219121Y1842515D01*
X-219398Y1839880D01*
X-219537Y1837107D01*
X-219814Y1834056D01*
X-219953Y1830866D01*
X-220230Y1827399D01*
X-220646Y1820326D01*
X-221062Y1812837D01*
X-236872D01*
X-241310Y1812976D01*
X-289434D01*
X-345601Y1812837D01*
X-363629D01*
Y1812976D01*
Y1813253D01*
X-363491Y1813669D01*
Y1814363D01*
X-363352Y1815056D01*
Y1816027D01*
X-363213Y1817136D01*
X-363075Y1818384D01*
X-362936Y1821158D01*
X-362520Y1824348D01*
X-362243Y1828092D01*
X-361965Y1832114D01*
X-361549Y1836275D01*
X-361133Y1840713D01*
X-360440Y1850004D01*
X-359746Y1859158D01*
X-359330Y1863595D01*
X-359053Y1867895D01*
Y1868172D01*
X-358914Y1868865D01*
Y1870252D01*
X-358776Y1871917D01*
X-358637Y1874135D01*
X-358498Y1876909D01*
X-358359Y1880099D01*
X-358082Y1883705D01*
X-357943Y1887726D01*
X-357666Y1892164D01*
X-357389Y1897018D01*
X-357111Y1902288D01*
X-356973Y1907836D01*
X-356695Y1913938D01*
X-356418Y1920317D01*
X-356141Y1926974D01*
Y1927113D01*
Y1927390D01*
Y1927945D01*
X-356002Y1928638D01*
Y1929470D01*
Y1930441D01*
Y1931689D01*
X-355863Y1932937D01*
X-355724Y1935850D01*
X-355586Y1939317D01*
X-355447Y1942923D01*
X-355308Y1946945D01*
X-355170Y1950966D01*
X-355031Y1955127D01*
Y1959149D01*
X-354892Y1963171D01*
X-354754Y1966915D01*
X-354615Y1970243D01*
Y1973295D01*
Y1974543D01*
Y1975791D01*
X-354754Y1987163D01*
X-346433D01*
X-344768Y1987024D01*
X-323688D01*
X-317725Y1986886D01*
X-253098D01*
X-247551Y1987024D01*
X-223836D01*
X-218011Y1987163D01*
X-212187D01*
X-212464Y1982864D01*
D02*
G37*
G36*
X-637946D02*
Y1982725D01*
Y1982448D01*
Y1981893D01*
X-638085Y1980922D01*
X-638224Y1979535D01*
Y1978564D01*
Y1977594D01*
X-638362Y1976346D01*
X-638501Y1974959D01*
Y1973433D01*
X-638640Y1971769D01*
X-639333Y1957901D01*
Y1957762D01*
Y1957207D01*
X-639472Y1956236D01*
Y1955127D01*
Y1953740D01*
X-639611Y1952215D01*
Y1948886D01*
X-640720D01*
X-641968Y1949025D01*
X-643771D01*
X-645851Y1949163D01*
X-648348D01*
X-651121Y1949302D01*
X-654034Y1949441D01*
X-657223D01*
X-660552Y1949580D01*
X-667486Y1949718D01*
X-674420Y1949857D01*
X-699245D01*
X-701186Y1949718D01*
X-710756D01*
X-712142Y1949580D01*
X-716996D01*
X-718938Y1949441D01*
X-723376D01*
X-725872Y1949302D01*
X-727536Y1920040D01*
X-724901D01*
X-723376Y1919901D01*
X-717412D01*
X-715055Y1919762D01*
X-706318D01*
X-703128Y1919624D01*
X-688566D01*
X-686902Y1919762D01*
X-682603D01*
X-679968Y1919901D01*
X-676917D01*
X-673311Y1920040D01*
X-669289Y1920179D01*
X-664851Y1920317D01*
X-659858Y1920456D01*
X-657085D01*
X-654311Y1920595D01*
Y1920456D01*
Y1919901D01*
X-654450Y1918930D01*
X-654588Y1917682D01*
X-654727Y1916157D01*
X-654866Y1914215D01*
X-655005Y1911996D01*
X-655143Y1909639D01*
X-655282Y1906865D01*
X-655559Y1903953D01*
X-655698Y1900624D01*
X-655975Y1897296D01*
X-656114Y1893551D01*
X-656391Y1889807D01*
X-656530Y1885785D01*
X-656807Y1881624D01*
X-666793D01*
X-669289Y1881763D01*
X-699799D01*
X-702296Y1881624D01*
X-708121D01*
X-711449Y1881486D01*
X-714777D01*
X-718383Y1881347D01*
X-722266Y1881208D01*
X-730171Y1880931D01*
X-731697Y1849866D01*
X-709507D01*
X-707566Y1850004D01*
X-697164D01*
X-693697Y1850143D01*
X-690092D01*
X-663603Y1850837D01*
X-661800D01*
X-660968Y1850975D01*
X-658888D01*
X-657640Y1851114D01*
X-656253D01*
X-654588Y1851253D01*
X-652786Y1851391D01*
X-650844Y1851530D01*
X-648764Y1851669D01*
X-646406Y1851807D01*
X-643910Y1851946D01*
Y1851669D01*
Y1851114D01*
X-644048Y1850004D01*
X-644187Y1848618D01*
X-644326Y1846953D01*
X-644465Y1844873D01*
X-644603Y1842515D01*
X-644881Y1839880D01*
X-645019Y1837107D01*
X-645297Y1834056D01*
X-645435Y1830866D01*
X-645713Y1827399D01*
X-646129Y1820326D01*
X-646545Y1812837D01*
X-662355D01*
X-666793Y1812976D01*
X-714916D01*
X-771083Y1812837D01*
X-789112D01*
Y1812976D01*
Y1813253D01*
X-788973Y1813669D01*
Y1814363D01*
X-788835Y1815056D01*
Y1816027D01*
X-788696Y1817136D01*
X-788557Y1818384D01*
X-788419Y1821158D01*
X-788002Y1824348D01*
X-787725Y1828092D01*
X-787448Y1832114D01*
X-787032Y1836275D01*
X-786616Y1840713D01*
X-785922Y1850004D01*
X-785229Y1859158D01*
X-784813Y1863595D01*
X-784535Y1867895D01*
Y1868172D01*
X-784397Y1868865D01*
Y1870252D01*
X-784258Y1871917D01*
X-784119Y1874135D01*
X-783981Y1876909D01*
X-783842Y1880099D01*
X-783565Y1883705D01*
X-783426Y1887726D01*
X-783149Y1892164D01*
X-782871Y1897018D01*
X-782594Y1902288D01*
X-782455Y1907836D01*
X-782178Y1913938D01*
X-781900Y1920317D01*
X-781623Y1926974D01*
Y1927113D01*
Y1927390D01*
Y1927945D01*
X-781484Y1928638D01*
Y1929470D01*
Y1930441D01*
Y1931689D01*
X-781346Y1932937D01*
X-781207Y1935850D01*
X-781068Y1939317D01*
X-780930Y1942923D01*
X-780791Y1946945D01*
X-780652Y1950966D01*
X-780514Y1955127D01*
Y1959149D01*
X-780375Y1963171D01*
X-780236Y1966915D01*
X-780098Y1970243D01*
Y1973295D01*
Y1974543D01*
Y1975791D01*
X-780236Y1987163D01*
X-771915D01*
X-770251Y1987024D01*
X-749171D01*
X-743208Y1986886D01*
X-678581D01*
X-673033Y1987024D01*
X-649318D01*
X-643494Y1987163D01*
X-637669D01*
X-637946Y1982864D01*
D02*
G37*
G36*
X1070086Y1987718D02*
X1072166D01*
X1074246Y1987579D01*
X1076604D01*
X1081458Y1987302D01*
X1086589Y1987024D01*
X1091443Y1986608D01*
X1091859D01*
X1092414Y1986469D01*
X1093107D01*
X1093939Y1986331D01*
X1094910Y1986192D01*
X1097268Y1985776D01*
X1099903Y1985221D01*
X1102815Y1984667D01*
X1105866Y1983834D01*
X1108779Y1982864D01*
X1108917D01*
X1109195Y1982725D01*
X1109611Y1982586D01*
X1110165Y1982309D01*
X1111552Y1981754D01*
X1113355Y1980922D01*
X1115435Y1979951D01*
X1117654Y1978842D01*
X1119873Y1977455D01*
X1121954Y1976068D01*
X1122231Y1975929D01*
X1122924Y1975375D01*
X1123895Y1974543D01*
X1125143Y1973433D01*
X1126530Y1972046D01*
X1128056Y1970521D01*
X1129581Y1968857D01*
X1130968Y1967054D01*
X1131107Y1966776D01*
X1131523Y1966222D01*
X1132216Y1965112D01*
X1133048Y1963725D01*
X1133880Y1961922D01*
X1134851Y1959981D01*
X1135683Y1957762D01*
X1136515Y1955266D01*
Y1955127D01*
X1136654Y1954988D01*
Y1954572D01*
X1136793Y1954156D01*
X1137209Y1952769D01*
X1137625Y1950966D01*
X1137902Y1948886D01*
X1138318Y1946390D01*
X1138457Y1943755D01*
X1138596Y1940981D01*
Y1940842D01*
Y1940565D01*
Y1940149D01*
Y1939594D01*
Y1938762D01*
X1138457Y1937930D01*
X1138318Y1935711D01*
X1138041Y1933215D01*
X1137625Y1930580D01*
X1137070Y1927806D01*
X1136377Y1924894D01*
Y1924755D01*
X1136238Y1924616D01*
X1136099Y1924200D01*
X1135961Y1923646D01*
X1135406Y1922120D01*
X1134712Y1920317D01*
X1133742Y1918237D01*
X1132494Y1915879D01*
X1131107Y1913383D01*
X1129442Y1910887D01*
Y1910748D01*
X1129304Y1910609D01*
X1128610Y1909777D01*
X1127640Y1908529D01*
X1126253Y1907004D01*
X1124589Y1905201D01*
X1122647Y1903398D01*
X1120289Y1901456D01*
X1117793Y1899515D01*
X1117654D01*
X1117516Y1899237D01*
X1117100Y1899099D01*
X1116545Y1898683D01*
X1115713Y1898266D01*
X1114881Y1897712D01*
X1113910Y1897157D01*
X1112662Y1896464D01*
X1111275Y1895770D01*
X1109888Y1895077D01*
X1108224Y1894245D01*
X1106421Y1893413D01*
X1104479Y1892442D01*
X1102538Y1891610D01*
X1097961Y1889807D01*
X1104618Y1873581D01*
Y1873442D01*
X1104757Y1873303D01*
X1104895Y1872887D01*
X1105173Y1872471D01*
X1105728Y1871084D01*
X1106421Y1869282D01*
X1107253Y1867201D01*
X1108363Y1864844D01*
X1109472Y1862347D01*
X1110581Y1859712D01*
X1127640Y1822406D01*
Y1822268D01*
X1127917Y1821852D01*
X1128194Y1821297D01*
X1128610Y1820326D01*
X1129165Y1818939D01*
X1129859Y1817275D01*
X1130691Y1815333D01*
X1131800Y1812837D01*
X1122647D01*
X1120289Y1812976D01*
X1086867D01*
X1083815Y1812837D01*
X1073275D01*
Y1812976D01*
X1073137Y1813114D01*
X1072998Y1813531D01*
X1072859Y1814085D01*
X1072582Y1814917D01*
X1072305Y1815888D01*
X1072027Y1816998D01*
X1071611Y1818384D01*
X1071057Y1819910D01*
X1070640Y1821713D01*
X1069947Y1823654D01*
X1069254Y1826012D01*
X1068560Y1828370D01*
X1067728Y1831143D01*
X1066896Y1834194D01*
X1065925Y1837384D01*
Y1837523D01*
X1065787Y1837662D01*
X1065648Y1838078D01*
X1065509Y1838632D01*
X1065093Y1840019D01*
X1064677Y1841683D01*
X1063984Y1843486D01*
X1063429Y1845428D01*
X1062735Y1847369D01*
X1062181Y1849034D01*
Y1849172D01*
X1062042Y1849450D01*
X1061903Y1850004D01*
X1061626Y1850698D01*
X1061349Y1851669D01*
X1060933Y1852778D01*
X1060378Y1854026D01*
X1059962Y1855552D01*
X1059268Y1857355D01*
X1058575Y1859158D01*
X1057882Y1861238D01*
X1057049Y1863595D01*
X1056217Y1865953D01*
X1055247Y1868588D01*
X1054276Y1871500D01*
X1053166Y1874413D01*
X1039991Y1910609D01*
X1040269D01*
X1040685Y1910471D01*
X1041239D01*
X1042488Y1910193D01*
X1044291Y1910055D01*
X1046371Y1909777D01*
X1048590Y1909500D01*
X1051086Y1909361D01*
X1055108D01*
X1055940Y1909500D01*
X1056911D01*
X1059130Y1909777D01*
X1061765Y1910055D01*
X1064538Y1910471D01*
X1067451Y1911164D01*
X1070363Y1912135D01*
X1070502D01*
X1070640Y1912274D01*
X1071057Y1912412D01*
X1071611Y1912690D01*
X1072998Y1913383D01*
X1074662Y1914215D01*
X1076465Y1915463D01*
X1078407Y1916989D01*
X1080210Y1918653D01*
X1081874Y1920733D01*
Y1920872D01*
X1082013Y1921011D01*
X1082567Y1921704D01*
X1083122Y1922952D01*
X1083954Y1924478D01*
X1084648Y1926419D01*
X1085341Y1928500D01*
X1085757Y1930857D01*
X1085896Y1933215D01*
Y1933492D01*
Y1934186D01*
X1085757Y1935156D01*
X1085480Y1936405D01*
X1085202Y1937930D01*
X1084648Y1939594D01*
X1083815Y1941120D01*
X1082845Y1942784D01*
X1082706Y1942923D01*
X1082290Y1943477D01*
X1081597Y1944171D01*
X1080626Y1945142D01*
X1079239Y1946112D01*
X1077713Y1947222D01*
X1075772Y1948193D01*
X1073553Y1949025D01*
X1073275Y1949163D01*
X1072859D01*
X1072443Y1949302D01*
X1071750Y1949580D01*
X1070918Y1949718D01*
X1069947Y1949857D01*
X1068838Y1950134D01*
X1067451Y1950273D01*
X1066064Y1950412D01*
X1064538Y1950689D01*
X1062735Y1950828D01*
X1060794Y1950966D01*
X1058714D01*
X1056495Y1951105D01*
X1049977D01*
X1048312Y1950966D01*
X1044845Y1950828D01*
X1043042D01*
X1041656Y1950689D01*
X1038188D01*
X1036108Y1950550D01*
X1033751D01*
Y1950412D01*
Y1950273D01*
Y1949857D01*
X1033612Y1949302D01*
Y1948747D01*
Y1947915D01*
X1033473Y1945835D01*
X1033334Y1943339D01*
X1033196Y1940288D01*
X1032918Y1936682D01*
X1032780Y1932799D01*
X1032502Y1928222D01*
X1032364Y1923368D01*
X1032086Y1918098D01*
X1031809Y1912551D01*
X1031532Y1906587D01*
X1031393Y1900208D01*
X1031116Y1893551D01*
X1030838Y1886617D01*
Y1886478D01*
Y1886201D01*
Y1885646D01*
Y1884953D01*
X1030699Y1883982D01*
Y1882873D01*
Y1881624D01*
Y1880238D01*
X1030561Y1878573D01*
Y1876770D01*
X1030422Y1874829D01*
Y1872887D01*
X1030283Y1868311D01*
X1030145Y1863318D01*
X1030006Y1857909D01*
X1029867Y1852085D01*
X1029729Y1845983D01*
X1029590Y1839603D01*
X1029451Y1833085D01*
X1029313Y1826428D01*
X1029174Y1812837D01*
X1020021D01*
X1017663Y1812976D01*
X987153D01*
X984379Y1812837D01*
X974810D01*
Y1813114D01*
X974949Y1813808D01*
X975087Y1815056D01*
X975226Y1816582D01*
X975365Y1818662D01*
X975642Y1820881D01*
X975919Y1823516D01*
X976197Y1826289D01*
X976474Y1829341D01*
X976751Y1832530D01*
X977445Y1839326D01*
X978000Y1846260D01*
X978554Y1853194D01*
Y1853472D01*
Y1854026D01*
X978693Y1854997D01*
X978832Y1856384D01*
X978970Y1858048D01*
X979109Y1860128D01*
X979248Y1862486D01*
X979386Y1865121D01*
X979525Y1868172D01*
X979802Y1871362D01*
X979941Y1874690D01*
X980080Y1878435D01*
X980357Y1882318D01*
X980496Y1886340D01*
X980773Y1890500D01*
X980912Y1894938D01*
Y1895077D01*
Y1895215D01*
Y1896048D01*
X981051Y1897296D01*
Y1899099D01*
X981189Y1901318D01*
X981328Y1903814D01*
X981467Y1906865D01*
Y1910193D01*
X981605Y1913799D01*
X981744Y1917682D01*
X981883Y1921843D01*
X982021Y1926142D01*
X982160Y1930719D01*
X982299Y1935434D01*
X982437Y1945142D01*
Y1945280D01*
Y1945419D01*
Y1945835D01*
Y1946251D01*
Y1947638D01*
X982576Y1949441D01*
Y1951798D01*
Y1954295D01*
X982715Y1957207D01*
Y1960258D01*
Y1963587D01*
X982854Y1967054D01*
Y1973988D01*
X982992Y1977455D01*
Y1980922D01*
Y1984112D01*
Y1987163D01*
X985627D01*
X987014Y1987024D01*
X992145D01*
X996306Y1986886D01*
X1000605D01*
X1004904Y1986747D01*
X1014196D01*
X1015722Y1986886D01*
X1021408D01*
X1023627Y1987024D01*
X1028342Y1987163D01*
X1033612Y1987302D01*
X1034999D01*
X1036108Y1987440D01*
X1039021D01*
X1040823Y1987579D01*
X1044845D01*
X1047064Y1987718D01*
X1051918D01*
X1057049Y1987856D01*
X1068144D01*
X1070086Y1987718D01*
D02*
G37*
G36*
X-451694D02*
X-449614D01*
X-447533Y1987579D01*
X-445176D01*
X-440322Y1987302D01*
X-435190Y1987024D01*
X-430336Y1986608D01*
X-429920D01*
X-429366Y1986469D01*
X-428672D01*
X-427840Y1986331D01*
X-426869Y1986192D01*
X-424512Y1985776D01*
X-421877Y1985221D01*
X-418964Y1984667D01*
X-415913Y1983834D01*
X-413001Y1982864D01*
X-412862D01*
X-412585Y1982725D01*
X-412169Y1982586D01*
X-411614Y1982309D01*
X-410227Y1981754D01*
X-408424Y1980922D01*
X-406344Y1979951D01*
X-404125Y1978842D01*
X-401906Y1977455D01*
X-399826Y1976068D01*
X-399549Y1975929D01*
X-398855Y1975375D01*
X-397884Y1974543D01*
X-396636Y1973433D01*
X-395249Y1972046D01*
X-393724Y1970521D01*
X-392198Y1968857D01*
X-390812Y1967054D01*
X-390673Y1966776D01*
X-390257Y1966222D01*
X-389563Y1965112D01*
X-388731Y1963725D01*
X-387899Y1961922D01*
X-386928Y1959981D01*
X-386096Y1957762D01*
X-385264Y1955266D01*
Y1955127D01*
X-385125Y1954988D01*
Y1954572D01*
X-384987Y1954156D01*
X-384571Y1952769D01*
X-384155Y1950966D01*
X-383877Y1948886D01*
X-383461Y1946390D01*
X-383323Y1943755D01*
X-383184Y1940981D01*
Y1940842D01*
Y1940565D01*
Y1940149D01*
Y1939594D01*
Y1938762D01*
X-383323Y1937930D01*
X-383461Y1935711D01*
X-383739Y1933215D01*
X-384155Y1930580D01*
X-384709Y1927806D01*
X-385403Y1924894D01*
Y1924755D01*
X-385542Y1924616D01*
X-385680Y1924200D01*
X-385819Y1923646D01*
X-386374Y1922120D01*
X-387067Y1920317D01*
X-388038Y1918237D01*
X-389286Y1915879D01*
X-390673Y1913383D01*
X-392337Y1910887D01*
Y1910748D01*
X-392476Y1910609D01*
X-393169Y1909777D01*
X-394140Y1908529D01*
X-395527Y1907004D01*
X-397191Y1905201D01*
X-399133Y1903398D01*
X-401490Y1901456D01*
X-403986Y1899515D01*
X-404125D01*
X-404264Y1899237D01*
X-404680Y1899099D01*
X-405235Y1898683D01*
X-406067Y1898266D01*
X-406899Y1897712D01*
X-407870Y1897157D01*
X-409118Y1896464D01*
X-410505Y1895770D01*
X-411891Y1895077D01*
X-413556Y1894245D01*
X-415359Y1893413D01*
X-417300Y1892442D01*
X-419242Y1891610D01*
X-423818Y1889807D01*
X-417161Y1873581D01*
Y1873442D01*
X-417023Y1873303D01*
X-416884Y1872887D01*
X-416607Y1872471D01*
X-416052Y1871084D01*
X-415359Y1869282D01*
X-414526Y1867201D01*
X-413417Y1864844D01*
X-412308Y1862347D01*
X-411198Y1859712D01*
X-394140Y1822406D01*
Y1822268D01*
X-393863Y1821852D01*
X-393585Y1821297D01*
X-393169Y1820326D01*
X-392614Y1818939D01*
X-391921Y1817275D01*
X-391089Y1815333D01*
X-389979Y1812837D01*
X-399133D01*
X-401490Y1812976D01*
X-434913D01*
X-437964Y1812837D01*
X-448504D01*
Y1812976D01*
X-448643Y1813114D01*
X-448781Y1813531D01*
X-448920Y1814085D01*
X-449197Y1814917D01*
X-449475Y1815888D01*
X-449752Y1816998D01*
X-450168Y1818384D01*
X-450723Y1819910D01*
X-451139Y1821713D01*
X-451832Y1823654D01*
X-452526Y1826012D01*
X-453219Y1828370D01*
X-454051Y1831143D01*
X-454884Y1834194D01*
X-455854Y1837384D01*
Y1837523D01*
X-455993Y1837662D01*
X-456132Y1838078D01*
X-456270Y1838632D01*
X-456686Y1840019D01*
X-457102Y1841683D01*
X-457796Y1843486D01*
X-458351Y1845428D01*
X-459044Y1847369D01*
X-459599Y1849034D01*
Y1849172D01*
X-459737Y1849450D01*
X-459876Y1850004D01*
X-460154Y1850698D01*
X-460431Y1851669D01*
X-460847Y1852778D01*
X-461402Y1854026D01*
X-461818Y1855552D01*
X-462511Y1857355D01*
X-463205Y1859158D01*
X-463898Y1861238D01*
X-464730Y1863595D01*
X-465562Y1865953D01*
X-466533Y1868588D01*
X-467504Y1871500D01*
X-468613Y1874413D01*
X-481788Y1910609D01*
X-481511D01*
X-481095Y1910471D01*
X-480540D01*
X-479292Y1910193D01*
X-477489Y1910055D01*
X-475409Y1909777D01*
X-473190Y1909500D01*
X-470693Y1909361D01*
X-466672D01*
X-465840Y1909500D01*
X-464869D01*
X-462650Y1909777D01*
X-460015Y1910055D01*
X-457241Y1910471D01*
X-454329Y1911164D01*
X-451416Y1912135D01*
X-451278D01*
X-451139Y1912274D01*
X-450723Y1912412D01*
X-450168Y1912690D01*
X-448781Y1913383D01*
X-447117Y1914215D01*
X-445314Y1915463D01*
X-443373Y1916989D01*
X-441570Y1918653D01*
X-439906Y1920733D01*
Y1920872D01*
X-439767Y1921011D01*
X-439212Y1921704D01*
X-438657Y1922952D01*
X-437825Y1924478D01*
X-437132Y1926419D01*
X-436439Y1928500D01*
X-436022Y1930857D01*
X-435884Y1933215D01*
Y1933492D01*
Y1934186D01*
X-436022Y1935156D01*
X-436300Y1936405D01*
X-436577Y1937930D01*
X-437132Y1939594D01*
X-437964Y1941120D01*
X-438935Y1942784D01*
X-439074Y1942923D01*
X-439490Y1943477D01*
X-440183Y1944171D01*
X-441154Y1945142D01*
X-442541Y1946112D01*
X-444066Y1947222D01*
X-446008Y1948193D01*
X-448227Y1949025D01*
X-448504Y1949163D01*
X-448920D01*
X-449336Y1949302D01*
X-450030Y1949580D01*
X-450862Y1949718D01*
X-451832Y1949857D01*
X-452942Y1950134D01*
X-454329Y1950273D01*
X-455716Y1950412D01*
X-457241Y1950689D01*
X-459044Y1950828D01*
X-460986Y1950966D01*
X-463066D01*
X-465285Y1951105D01*
X-471803D01*
X-473467Y1950966D01*
X-476934Y1950828D01*
X-478737D01*
X-480124Y1950689D01*
X-483591D01*
X-485671Y1950550D01*
X-488029D01*
Y1950412D01*
Y1950273D01*
Y1949857D01*
X-488168Y1949302D01*
Y1948747D01*
Y1947915D01*
X-488306Y1945835D01*
X-488445Y1943339D01*
X-488584Y1940288D01*
X-488861Y1936682D01*
X-489000Y1932799D01*
X-489277Y1928222D01*
X-489416Y1923368D01*
X-489693Y1918098D01*
X-489971Y1912551D01*
X-490248Y1906587D01*
X-490387Y1900208D01*
X-490664Y1893551D01*
X-490941Y1886617D01*
Y1886478D01*
Y1886201D01*
Y1885646D01*
Y1884953D01*
X-491080Y1883982D01*
Y1882873D01*
Y1881624D01*
Y1880238D01*
X-491219Y1878573D01*
Y1876770D01*
X-491357Y1874829D01*
Y1872887D01*
X-491496Y1868311D01*
X-491635Y1863318D01*
X-491773Y1857909D01*
X-491912Y1852085D01*
X-492051Y1845983D01*
X-492190Y1839603D01*
X-492328Y1833085D01*
X-492467Y1826428D01*
X-492606Y1812837D01*
X-501759D01*
X-504116Y1812976D01*
X-534627D01*
X-537400Y1812837D01*
X-546970D01*
Y1813114D01*
X-546831Y1813808D01*
X-546692Y1815056D01*
X-546554Y1816582D01*
X-546415Y1818662D01*
X-546138Y1820881D01*
X-545860Y1823516D01*
X-545583Y1826289D01*
X-545305Y1829341D01*
X-545028Y1832530D01*
X-544335Y1839326D01*
X-543780Y1846260D01*
X-543225Y1853194D01*
Y1853472D01*
Y1854026D01*
X-543087Y1854997D01*
X-542948Y1856384D01*
X-542809Y1858048D01*
X-542670Y1860128D01*
X-542532Y1862486D01*
X-542393Y1865121D01*
X-542254Y1868172D01*
X-541977Y1871362D01*
X-541838Y1874690D01*
X-541700Y1878435D01*
X-541422Y1882318D01*
X-541284Y1886340D01*
X-541006Y1890500D01*
X-540868Y1894938D01*
Y1895077D01*
Y1895215D01*
Y1896048D01*
X-540729Y1897296D01*
Y1899099D01*
X-540590Y1901318D01*
X-540452Y1903814D01*
X-540313Y1906865D01*
Y1910193D01*
X-540174Y1913799D01*
X-540035Y1917682D01*
X-539897Y1921843D01*
X-539758Y1926142D01*
X-539619Y1930719D01*
X-539481Y1935434D01*
X-539342Y1945142D01*
Y1945280D01*
Y1945419D01*
Y1945835D01*
Y1946251D01*
Y1947638D01*
X-539203Y1949441D01*
Y1951798D01*
Y1954295D01*
X-539065Y1957207D01*
Y1960258D01*
Y1963587D01*
X-538926Y1967054D01*
Y1973988D01*
X-538787Y1977455D01*
Y1980922D01*
Y1984112D01*
Y1987163D01*
X-536152D01*
X-534766Y1987024D01*
X-529634D01*
X-525474Y1986886D01*
X-521174D01*
X-516875Y1986747D01*
X-507583D01*
X-506058Y1986886D01*
X-500372D01*
X-498153Y1987024D01*
X-493438Y1987163D01*
X-488168Y1987302D01*
X-486781D01*
X-485671Y1987440D01*
X-482759D01*
X-480956Y1987579D01*
X-476934D01*
X-474715Y1987718D01*
X-469861D01*
X-464730Y1987856D01*
X-453635D01*
X-451694Y1987718D01*
D02*
G37*
G36*
X-877176D02*
X-875096D01*
X-873016Y1987579D01*
X-870658D01*
X-865804Y1987302D01*
X-860673Y1987024D01*
X-855819Y1986608D01*
X-855403D01*
X-854848Y1986469D01*
X-854155D01*
X-853323Y1986331D01*
X-852352Y1986192D01*
X-849994Y1985776D01*
X-847359Y1985221D01*
X-844447Y1984667D01*
X-841396Y1983834D01*
X-838483Y1982864D01*
X-838345D01*
X-838067Y1982725D01*
X-837651Y1982586D01*
X-837097Y1982309D01*
X-835710Y1981754D01*
X-833907Y1980922D01*
X-831827Y1979951D01*
X-829608Y1978842D01*
X-827389Y1977455D01*
X-825308Y1976068D01*
X-825031Y1975929D01*
X-824338Y1975375D01*
X-823367Y1974543D01*
X-822119Y1973433D01*
X-820732Y1972046D01*
X-819206Y1970521D01*
X-817681Y1968857D01*
X-816294Y1967054D01*
X-816155Y1966776D01*
X-815739Y1966222D01*
X-815046Y1965112D01*
X-814214Y1963725D01*
X-813382Y1961922D01*
X-812411Y1959981D01*
X-811579Y1957762D01*
X-810747Y1955266D01*
Y1955127D01*
X-810608Y1954988D01*
Y1954572D01*
X-810469Y1954156D01*
X-810053Y1952769D01*
X-809637Y1950966D01*
X-809360Y1948886D01*
X-808944Y1946390D01*
X-808805Y1943755D01*
X-808666Y1940981D01*
Y1940842D01*
Y1940565D01*
Y1940149D01*
Y1939594D01*
Y1938762D01*
X-808805Y1937930D01*
X-808944Y1935711D01*
X-809221Y1933215D01*
X-809637Y1930580D01*
X-810192Y1927806D01*
X-810885Y1924894D01*
Y1924755D01*
X-811024Y1924616D01*
X-811163Y1924200D01*
X-811301Y1923646D01*
X-811856Y1922120D01*
X-812550Y1920317D01*
X-813520Y1918237D01*
X-814768Y1915879D01*
X-816155Y1913383D01*
X-817820Y1910887D01*
Y1910748D01*
X-817958Y1910609D01*
X-818652Y1909777D01*
X-819622Y1908529D01*
X-821009Y1907004D01*
X-822673Y1905201D01*
X-824615Y1903398D01*
X-826973Y1901456D01*
X-829469Y1899515D01*
X-829608D01*
X-829746Y1899237D01*
X-830162Y1899099D01*
X-830717Y1898683D01*
X-831549Y1898266D01*
X-832381Y1897712D01*
X-833352Y1897157D01*
X-834600Y1896464D01*
X-835987Y1895770D01*
X-837374Y1895077D01*
X-839038Y1894245D01*
X-840841Y1893413D01*
X-842783Y1892442D01*
X-844724Y1891610D01*
X-849301Y1889807D01*
X-842644Y1873581D01*
Y1873442D01*
X-842505Y1873303D01*
X-842367Y1872887D01*
X-842089Y1872471D01*
X-841535Y1871084D01*
X-840841Y1869282D01*
X-840009Y1867201D01*
X-838900Y1864844D01*
X-837790Y1862347D01*
X-836681Y1859712D01*
X-819622Y1822406D01*
Y1822268D01*
X-819345Y1821852D01*
X-819068Y1821297D01*
X-818652Y1820326D01*
X-818097Y1818939D01*
X-817403Y1817275D01*
X-816571Y1815333D01*
X-815462Y1812837D01*
X-824615D01*
X-826973Y1812976D01*
X-860396D01*
X-863447Y1812837D01*
X-873987D01*
Y1812976D01*
X-874125Y1813114D01*
X-874264Y1813531D01*
X-874403Y1814085D01*
X-874680Y1814917D01*
X-874957Y1815888D01*
X-875235Y1816998D01*
X-875651Y1818384D01*
X-876206Y1819910D01*
X-876622Y1821713D01*
X-877315Y1823654D01*
X-878008Y1826012D01*
X-878702Y1828370D01*
X-879534Y1831143D01*
X-880366Y1834194D01*
X-881337Y1837384D01*
Y1837523D01*
X-881476Y1837662D01*
X-881614Y1838078D01*
X-881753Y1838632D01*
X-882169Y1840019D01*
X-882585Y1841683D01*
X-883278Y1843486D01*
X-883833Y1845428D01*
X-884527Y1847369D01*
X-885081Y1849034D01*
Y1849172D01*
X-885220Y1849450D01*
X-885359Y1850004D01*
X-885636Y1850698D01*
X-885913Y1851669D01*
X-886329Y1852778D01*
X-886884Y1854026D01*
X-887300Y1855552D01*
X-887994Y1857355D01*
X-888687Y1859158D01*
X-889380Y1861238D01*
X-890213Y1863595D01*
X-891045Y1865953D01*
X-892015Y1868588D01*
X-892986Y1871500D01*
X-894096Y1874413D01*
X-907271Y1910609D01*
X-906993D01*
X-906577Y1910471D01*
X-906023D01*
X-904774Y1910193D01*
X-902972Y1910055D01*
X-900891Y1909777D01*
X-898672Y1909500D01*
X-896176Y1909361D01*
X-892154D01*
X-891322Y1909500D01*
X-890351D01*
X-888132Y1909777D01*
X-885497Y1910055D01*
X-882724Y1910471D01*
X-879811Y1911164D01*
X-876899Y1912135D01*
X-876760D01*
X-876622Y1912274D01*
X-876206Y1912412D01*
X-875651Y1912690D01*
X-874264Y1913383D01*
X-872600Y1914215D01*
X-870797Y1915463D01*
X-868855Y1916989D01*
X-867052Y1918653D01*
X-865388Y1920733D01*
Y1920872D01*
X-865249Y1921011D01*
X-864695Y1921704D01*
X-864140Y1922952D01*
X-863308Y1924478D01*
X-862614Y1926419D01*
X-861921Y1928500D01*
X-861505Y1930857D01*
X-861366Y1933215D01*
Y1933492D01*
Y1934186D01*
X-861505Y1935156D01*
X-861782Y1936405D01*
X-862060Y1937930D01*
X-862614Y1939594D01*
X-863447Y1941120D01*
X-864417Y1942784D01*
X-864556Y1942923D01*
X-864972Y1943477D01*
X-865666Y1944171D01*
X-866636Y1945142D01*
X-868023Y1946112D01*
X-869549Y1947222D01*
X-871490Y1948193D01*
X-873709Y1949025D01*
X-873987Y1949163D01*
X-874403D01*
X-874819Y1949302D01*
X-875512Y1949580D01*
X-876344Y1949718D01*
X-877315Y1949857D01*
X-878424Y1950134D01*
X-879811Y1950273D01*
X-881198Y1950412D01*
X-882724Y1950689D01*
X-884527Y1950828D01*
X-886468Y1950966D01*
X-888548D01*
X-890767Y1951105D01*
X-897285D01*
X-898950Y1950966D01*
X-902417Y1950828D01*
X-904220D01*
X-905607Y1950689D01*
X-909074D01*
X-911154Y1950550D01*
X-913512D01*
Y1950412D01*
Y1950273D01*
Y1949857D01*
X-913650Y1949302D01*
Y1948747D01*
Y1947915D01*
X-913789Y1945835D01*
X-913928Y1943339D01*
X-914066Y1940288D01*
X-914344Y1936682D01*
X-914482Y1932799D01*
X-914760Y1928222D01*
X-914898Y1923368D01*
X-915176Y1918098D01*
X-915453Y1912551D01*
X-915730Y1906587D01*
X-915869Y1900208D01*
X-916147Y1893551D01*
X-916424Y1886617D01*
Y1886478D01*
Y1886201D01*
Y1885646D01*
Y1884953D01*
X-916563Y1883982D01*
Y1882873D01*
Y1881624D01*
Y1880238D01*
X-916701Y1878573D01*
Y1876770D01*
X-916840Y1874829D01*
Y1872887D01*
X-916979Y1868311D01*
X-917117Y1863318D01*
X-917256Y1857909D01*
X-917395Y1852085D01*
X-917533Y1845983D01*
X-917672Y1839603D01*
X-917811Y1833085D01*
X-917949Y1826428D01*
X-918088Y1812837D01*
X-927241D01*
X-929599Y1812976D01*
X-960109D01*
X-962883Y1812837D01*
X-972452D01*
Y1813114D01*
X-972314Y1813808D01*
X-972175Y1815056D01*
X-972036Y1816582D01*
X-971897Y1818662D01*
X-971620Y1820881D01*
X-971343Y1823516D01*
X-971065Y1826289D01*
X-970788Y1829341D01*
X-970511Y1832530D01*
X-969817Y1839326D01*
X-969262Y1846260D01*
X-968708Y1853194D01*
Y1853472D01*
Y1854026D01*
X-968569Y1854997D01*
X-968430Y1856384D01*
X-968292Y1858048D01*
X-968153Y1860128D01*
X-968014Y1862486D01*
X-967876Y1865121D01*
X-967737Y1868172D01*
X-967460Y1871362D01*
X-967321Y1874690D01*
X-967182Y1878435D01*
X-966905Y1882318D01*
X-966766Y1886340D01*
X-966489Y1890500D01*
X-966350Y1894938D01*
Y1895077D01*
Y1895215D01*
Y1896048D01*
X-966211Y1897296D01*
Y1899099D01*
X-966073Y1901318D01*
X-965934Y1903814D01*
X-965795Y1906865D01*
Y1910193D01*
X-965657Y1913799D01*
X-965518Y1917682D01*
X-965379Y1921843D01*
X-965241Y1926142D01*
X-965102Y1930719D01*
X-964963Y1935434D01*
X-964825Y1945142D01*
Y1945280D01*
Y1945419D01*
Y1945835D01*
Y1946251D01*
Y1947638D01*
X-964686Y1949441D01*
Y1951798D01*
Y1954295D01*
X-964547Y1957207D01*
Y1960258D01*
Y1963587D01*
X-964409Y1967054D01*
Y1973988D01*
X-964270Y1977455D01*
Y1980922D01*
Y1984112D01*
Y1987163D01*
X-961635D01*
X-960248Y1987024D01*
X-955117D01*
X-950956Y1986886D01*
X-946657D01*
X-942358Y1986747D01*
X-933066D01*
X-931540Y1986886D01*
X-925854D01*
X-923635Y1987024D01*
X-918920Y1987163D01*
X-913650Y1987302D01*
X-912263D01*
X-911154Y1987440D01*
X-908242D01*
X-906439Y1987579D01*
X-902417D01*
X-900198Y1987718D01*
X-895344D01*
X-890213Y1987856D01*
X-879118D01*
X-877176Y1987718D01*
D02*
G37*
G36*
X-1042626D02*
X-1040823D01*
X-1038882Y1987579D01*
X-1034721Y1987302D01*
X-1030422Y1986886D01*
X-1026539Y1986331D01*
X-1024736Y1986053D01*
X-1023072Y1985637D01*
X-1022933D01*
X-1022656Y1985499D01*
X-1022240Y1985360D01*
X-1021685Y1985221D01*
X-1020021Y1984667D01*
X-1018079Y1983973D01*
X-1015722Y1983002D01*
X-1013225Y1981893D01*
X-1010590Y1980506D01*
X-1008094Y1978842D01*
X-1007955D01*
X-1007817Y1978703D01*
X-1006985Y1978010D01*
X-1005736Y1977039D01*
X-1004211Y1975791D01*
X-1002547Y1974127D01*
X-1000605Y1972324D01*
X-998802Y1970243D01*
X-997138Y1967886D01*
X-996999Y1967608D01*
X-996445Y1966776D01*
X-995612Y1965528D01*
X-994642Y1963725D01*
X-993671Y1961645D01*
X-992561Y1959287D01*
X-991591Y1956514D01*
X-990620Y1953601D01*
Y1953463D01*
X-990481Y1953185D01*
X-990342Y1952769D01*
X-990204Y1952215D01*
X-990065Y1951521D01*
X-989926Y1950689D01*
X-989510Y1948609D01*
X-989094Y1946112D01*
X-988678Y1943477D01*
X-988540Y1940426D01*
X-988401Y1937375D01*
Y1937237D01*
Y1936682D01*
Y1935711D01*
X-988540Y1934463D01*
X-988678Y1932937D01*
X-988817Y1931273D01*
X-989094Y1929193D01*
X-989372Y1927113D01*
X-989926Y1924755D01*
X-990481Y1922259D01*
X-991036Y1919624D01*
X-991868Y1916989D01*
X-992839Y1914354D01*
X-993948Y1911580D01*
X-995196Y1908806D01*
X-996722Y1906171D01*
X-996861Y1906033D01*
X-997138Y1905617D01*
X-997554Y1904785D01*
X-998247Y1903814D01*
X-999080Y1902704D01*
X-1000189Y1901318D01*
X-1001437Y1899792D01*
X-1002824Y1898266D01*
X-1004350Y1896464D01*
X-1006152Y1894799D01*
X-1007955Y1892996D01*
X-1010174Y1891194D01*
X-1012393Y1889529D01*
X-1014751Y1887865D01*
X-1017386Y1886340D01*
X-1020160Y1884953D01*
X-1020298Y1884814D01*
X-1020853Y1884675D01*
X-1021685Y1884259D01*
X-1022795Y1883843D01*
X-1024181Y1883289D01*
X-1025846Y1882734D01*
X-1027787Y1882179D01*
X-1030006Y1881486D01*
X-1032364Y1880792D01*
X-1034999Y1880238D01*
X-1037772Y1879683D01*
X-1040685Y1879128D01*
X-1043736Y1878712D01*
X-1047064Y1878296D01*
X-1050393Y1878157D01*
X-1053860Y1878019D01*
X-1055108D01*
X-1056495Y1878157D01*
X-1058436D01*
X-1060794Y1878435D01*
X-1063568Y1878712D01*
X-1066480Y1878989D01*
X-1069808Y1879544D01*
Y1879821D01*
X-1070086Y1880654D01*
X-1070363Y1882040D01*
X-1070779Y1883843D01*
X-1071334Y1886340D01*
X-1072027Y1889252D01*
X-1072859Y1892858D01*
X-1073830Y1896880D01*
Y1897018D01*
X-1073969Y1897434D01*
X-1074108Y1897989D01*
X-1074246Y1898821D01*
X-1074524Y1899792D01*
X-1074801Y1900901D01*
X-1075356Y1903398D01*
X-1076188Y1906171D01*
X-1076881Y1909084D01*
X-1077575Y1911857D01*
X-1077991Y1913106D01*
X-1078268Y1914215D01*
X-1077991D01*
X-1077297Y1914076D01*
X-1076188Y1913938D01*
X-1074662Y1913660D01*
X-1072998Y1913522D01*
X-1071057Y1913244D01*
X-1068838Y1913106D01*
X-1065370D01*
X-1064538Y1913244D01*
X-1063429D01*
X-1062181Y1913383D01*
X-1059407Y1913938D01*
X-1056217Y1914631D01*
X-1053028Y1915741D01*
X-1049977Y1917266D01*
X-1048590Y1918098D01*
X-1047342Y1919208D01*
X-1047203Y1919346D01*
X-1047064Y1919485D01*
X-1046371Y1920317D01*
X-1045261Y1921704D01*
X-1044152Y1923507D01*
X-1043042Y1925587D01*
X-1041933Y1928222D01*
X-1041239Y1931135D01*
X-1040962Y1932660D01*
Y1934324D01*
Y1934463D01*
Y1935018D01*
X-1041101Y1935850D01*
Y1936959D01*
X-1041378Y1938069D01*
X-1041656Y1939317D01*
X-1041933Y1940704D01*
X-1042488Y1941952D01*
Y1942091D01*
X-1042765Y1942507D01*
X-1043042Y1943200D01*
X-1043597Y1943893D01*
X-1044152Y1944864D01*
X-1044984Y1945696D01*
X-1045816Y1946667D01*
X-1046926Y1947499D01*
X-1047064Y1947638D01*
X-1047480Y1947915D01*
X-1048035Y1948193D01*
X-1048867Y1948747D01*
X-1049977Y1949163D01*
X-1051086Y1949718D01*
X-1052334Y1950134D01*
X-1053721Y1950412D01*
X-1053860D01*
X-1054414Y1950550D01*
X-1055108Y1950689D01*
X-1056217Y1950828D01*
X-1057465D01*
X-1058852Y1950966D01*
X-1060517Y1951105D01*
X-1066480D01*
X-1068144Y1950966D01*
X-1071750Y1950828D01*
X-1082429Y1949996D01*
Y1949718D01*
X-1082567Y1948886D01*
Y1947499D01*
X-1082706Y1945696D01*
X-1082845Y1943339D01*
X-1082983Y1940565D01*
X-1083261Y1937375D01*
X-1083399Y1933908D01*
X-1083677Y1930025D01*
X-1083815Y1925726D01*
X-1084093Y1921288D01*
X-1084232Y1916434D01*
X-1084509Y1911441D01*
X-1084648Y1906171D01*
X-1084925Y1900763D01*
X-1085064Y1895215D01*
Y1895077D01*
Y1894661D01*
Y1893829D01*
Y1892858D01*
X-1085202Y1891610D01*
Y1890084D01*
Y1888420D01*
X-1085341Y1886478D01*
Y1884398D01*
X-1085480Y1882179D01*
Y1879821D01*
X-1085618Y1877325D01*
X-1085757Y1871917D01*
X-1085896Y1866369D01*
X-1086034Y1860683D01*
X-1086173Y1854997D01*
X-1086312Y1849450D01*
X-1086450Y1844318D01*
Y1841822D01*
X-1086589Y1839464D01*
Y1837384D01*
Y1835304D01*
X-1086728Y1833501D01*
Y1831837D01*
Y1830450D01*
Y1829341D01*
Y1812837D01*
X-1112107Y1812976D01*
X-1125559D01*
X-1128333Y1812837D01*
X-1138596D01*
X-1136099Y1845428D01*
X-1132771Y1909361D01*
X-1131384Y1954572D01*
Y1954711D01*
Y1954850D01*
Y1955266D01*
Y1955820D01*
Y1957207D01*
X-1131245Y1959149D01*
Y1961368D01*
Y1963725D01*
Y1966360D01*
Y1969134D01*
Y1969411D01*
Y1970243D01*
Y1970798D01*
Y1971492D01*
Y1972462D01*
Y1973433D01*
Y1974543D01*
Y1975929D01*
Y1977455D01*
Y1978981D01*
X-1131384Y1980783D01*
Y1982725D01*
Y1984944D01*
Y1987163D01*
X-1128610D01*
X-1127224Y1987024D01*
X-1121676D01*
X-1117377Y1986886D01*
X-1112939D01*
X-1108501Y1986747D01*
X-1098932D01*
X-1097268Y1986886D01*
X-1091166D01*
X-1088808Y1987024D01*
X-1086312D01*
X-1083538Y1987163D01*
X-1080487D01*
X-1077436Y1987302D01*
X-1075772D01*
X-1074524Y1987440D01*
X-1071334D01*
X-1069392Y1987579D01*
X-1067312D01*
X-1062735Y1987718D01*
X-1057882D01*
X-1053028Y1987856D01*
X-1044152D01*
X-1042626Y1987718D01*
D02*
G37*
G36*
X-77108Y1990353D02*
X-74473D01*
X-71284Y1990075D01*
X-67678Y1989937D01*
X-63656Y1989659D01*
X-59357Y1989243D01*
X-54503Y1988827D01*
X-49372Y1988272D01*
X-43963Y1987579D01*
X-38277Y1986886D01*
X-32452Y1985915D01*
X-26211Y1984944D01*
X-19970Y1983696D01*
Y1983418D01*
Y1982864D01*
Y1981754D01*
Y1980367D01*
Y1978703D01*
X-19832Y1976623D01*
Y1974127D01*
X-19693Y1971492D01*
Y1968579D01*
X-19554Y1965390D01*
X-19416Y1961922D01*
X-19277Y1958317D01*
X-19138Y1954572D01*
X-18861Y1950550D01*
X-18306Y1942229D01*
X-18445D01*
X-18722Y1942368D01*
X-19138Y1942507D01*
X-19832Y1942784D01*
X-20664Y1942923D01*
X-21496Y1943339D01*
X-23715Y1943893D01*
X-26073Y1944726D01*
X-28569Y1945419D01*
X-31065Y1946112D01*
X-33284Y1946806D01*
X-33562Y1946945D01*
X-34255Y1947083D01*
X-35503Y1947361D01*
X-37029Y1947777D01*
X-38970Y1948193D01*
X-41328Y1948747D01*
X-43824Y1949302D01*
X-46598Y1949718D01*
X-46875D01*
X-47291Y1949857D01*
X-47846Y1949996D01*
X-49372Y1950134D01*
X-51174Y1950550D01*
X-53393Y1950828D01*
X-55890Y1951244D01*
X-61021Y1951798D01*
X-61298D01*
X-62130Y1951937D01*
X-63379Y1952076D01*
X-65043Y1952215D01*
X-66984D01*
X-68926Y1952353D01*
X-71006Y1952492D01*
X-75444D01*
X-76692Y1952353D01*
X-78218Y1952215D01*
X-79882D01*
X-81685Y1951937D01*
X-83626Y1951798D01*
X-85845Y1951521D01*
X-90283Y1950689D01*
X-94999Y1949718D01*
X-99714Y1948331D01*
X-99852D01*
X-100269Y1948193D01*
X-100962Y1947915D01*
X-101794Y1947638D01*
X-102904Y1947083D01*
X-104152Y1946667D01*
X-105539Y1945974D01*
X-107064Y1945280D01*
X-110392Y1943616D01*
X-113998Y1941397D01*
X-117743Y1938901D01*
X-121210Y1935989D01*
X-121349Y1935850D01*
X-121626Y1935572D01*
X-122042Y1935156D01*
X-122735Y1934463D01*
X-123429Y1933770D01*
X-124261Y1932799D01*
X-125232Y1931689D01*
X-126202Y1930441D01*
X-128421Y1927529D01*
X-130640Y1924062D01*
X-132859Y1920179D01*
X-134662Y1916018D01*
Y1915879D01*
X-134801Y1915463D01*
X-135078Y1914909D01*
X-135356Y1913938D01*
X-135633Y1912967D01*
X-136049Y1911719D01*
X-136465Y1910193D01*
X-136881Y1908529D01*
X-137297Y1906865D01*
X-137713Y1904923D01*
X-138407Y1900763D01*
X-138961Y1896186D01*
X-139100Y1891471D01*
Y1891332D01*
Y1890916D01*
Y1890223D01*
X-138961Y1889252D01*
Y1888143D01*
X-138823Y1886756D01*
X-138684Y1885230D01*
X-138407Y1883566D01*
X-137852Y1879960D01*
X-137020Y1876077D01*
X-135772Y1872055D01*
X-134107Y1868033D01*
Y1867895D01*
X-133830Y1867617D01*
X-133553Y1867063D01*
X-133137Y1866369D01*
X-132582Y1865537D01*
X-131888Y1864566D01*
X-130086Y1862209D01*
X-127867Y1859712D01*
X-125093Y1857077D01*
X-121765Y1854581D01*
X-119823Y1853472D01*
X-117881Y1852362D01*
X-117743D01*
X-117327Y1852085D01*
X-116772Y1851946D01*
X-115940Y1851530D01*
X-114830Y1851114D01*
X-113582Y1850698D01*
X-112195Y1850282D01*
X-110670Y1849727D01*
X-108867Y1849172D01*
X-106925Y1848756D01*
X-102765Y1847924D01*
X-98050Y1847369D01*
X-93057Y1847092D01*
X-91115D01*
X-90006Y1847231D01*
X-88758D01*
X-87232Y1847369D01*
X-85707Y1847508D01*
X-83904Y1847647D01*
X-81962Y1847924D01*
X-77663Y1848479D01*
X-73086Y1849311D01*
X-68094Y1850420D01*
X-66707Y1878019D01*
X-67539D01*
X-68094Y1878157D01*
X-69481D01*
X-71006Y1878296D01*
X-72809D01*
X-74335Y1878435D01*
X-76554D01*
X-90006Y1878296D01*
X-89174Y1893967D01*
Y1894106D01*
Y1894383D01*
Y1895077D01*
X-89035Y1895770D01*
Y1896880D01*
X-88896Y1898128D01*
Y1899653D01*
X-88758Y1901318D01*
Y1901595D01*
Y1902150D01*
X-88619Y1903259D01*
Y1904785D01*
Y1906726D01*
X-88480Y1908945D01*
Y1911580D01*
Y1914492D01*
X-83904D01*
X-82101Y1914354D01*
X-72670D01*
X-67123Y1914215D01*
X-36474D01*
X-33007Y1914354D01*
X-19000D01*
X-15810Y1914492D01*
X-12759D01*
Y1914354D01*
X-12898Y1913660D01*
Y1912690D01*
X-13036Y1911303D01*
X-13175Y1909500D01*
X-13452Y1907281D01*
X-13591Y1904646D01*
X-13868Y1901734D01*
X-14146Y1898405D01*
X-14423Y1894661D01*
X-14701Y1890500D01*
X-14978Y1886062D01*
X-15394Y1881347D01*
X-15671Y1876216D01*
X-16087Y1870668D01*
X-16365Y1864844D01*
Y1864705D01*
Y1864428D01*
Y1864012D01*
Y1863457D01*
X-16503Y1862625D01*
Y1861793D01*
X-16642Y1859574D01*
X-16781Y1856939D01*
X-16919Y1853888D01*
X-17058Y1850420D01*
X-17197Y1846815D01*
X-17336Y1842932D01*
X-17613Y1839048D01*
X-17890Y1831005D01*
X-18029Y1827122D01*
X-18168Y1823377D01*
Y1819771D01*
X-18306Y1816582D01*
X-18445D01*
X-19000Y1816443D01*
X-19693Y1816304D01*
X-20803Y1816166D01*
X-22051Y1815888D01*
X-23438Y1815611D01*
X-25102Y1815333D01*
X-26905Y1815056D01*
X-30788Y1814363D01*
X-34810Y1813808D01*
X-38832Y1813253D01*
X-42715Y1812698D01*
X-43131D01*
X-43685Y1812560D01*
X-44379D01*
X-45350Y1812421D01*
X-46459Y1812282D01*
X-47707Y1812144D01*
X-49233Y1812005D01*
X-50758Y1811728D01*
X-52561Y1811589D01*
X-54503Y1811450D01*
X-56583Y1811173D01*
X-61021Y1810896D01*
X-65875Y1810479D01*
X-66430D01*
X-67262Y1810341D01*
X-68094D01*
X-69342Y1810202D01*
X-70729D01*
X-72254Y1810063D01*
X-73919D01*
X-77802Y1809786D01*
X-81824Y1809647D01*
X-85984Y1809509D01*
X-92918D01*
X-94582Y1809647D01*
X-96385D01*
X-98466Y1809786D01*
X-100823Y1809925D01*
X-103320Y1810063D01*
X-105955Y1810202D01*
X-108728Y1810479D01*
X-111641Y1810618D01*
X-117881Y1811312D01*
X-124122Y1812282D01*
X-124261D01*
X-124816Y1812421D01*
X-125786Y1812560D01*
X-126896Y1812837D01*
X-128421Y1813114D01*
X-130086Y1813531D01*
X-132027Y1813947D01*
X-134107Y1814501D01*
X-136465Y1815056D01*
X-138823Y1815749D01*
X-143815Y1817275D01*
X-148947Y1819078D01*
X-154078Y1821297D01*
X-154217Y1821436D01*
X-154633Y1821574D01*
X-155326Y1821990D01*
X-156297Y1822406D01*
X-157406Y1823100D01*
X-158654Y1823793D01*
X-160180Y1824764D01*
X-161706Y1825735D01*
X-165311Y1828231D01*
X-168917Y1831005D01*
X-172662Y1834472D01*
X-176129Y1838216D01*
X-176267Y1838355D01*
X-176545Y1838771D01*
X-176961Y1839326D01*
X-177516Y1840158D01*
X-178348Y1841129D01*
X-179180Y1842377D01*
X-180151Y1843902D01*
X-181121Y1845428D01*
X-182231Y1847231D01*
X-183340Y1849172D01*
X-184450Y1851253D01*
X-185559Y1853610D01*
X-187778Y1858464D01*
X-189720Y1863734D01*
Y1863873D01*
X-189858Y1864428D01*
X-190136Y1865260D01*
X-190413Y1866230D01*
X-190829Y1867617D01*
X-191245Y1869282D01*
X-191661Y1871084D01*
X-192077Y1873026D01*
X-192493Y1875245D01*
X-192909Y1877603D01*
X-193325Y1880099D01*
X-193742Y1882734D01*
X-194296Y1888281D01*
X-194435Y1894106D01*
Y1894245D01*
Y1894383D01*
Y1894799D01*
Y1895215D01*
X-194296Y1896602D01*
Y1898544D01*
X-194019Y1900763D01*
X-193742Y1903536D01*
X-193325Y1906449D01*
X-192771Y1909916D01*
X-192077Y1913383D01*
X-191245Y1917266D01*
X-190274Y1921288D01*
X-189026Y1925310D01*
X-187501Y1929609D01*
X-185837Y1933770D01*
X-183756Y1938069D01*
X-181537Y1942229D01*
X-181399Y1942507D01*
X-180983Y1943200D01*
X-180151Y1944448D01*
X-179180Y1945974D01*
X-177793Y1947777D01*
X-176129Y1949996D01*
X-174326Y1952353D01*
X-172107Y1954988D01*
X-169611Y1957762D01*
X-166837Y1960674D01*
X-163786Y1963587D01*
X-160457Y1966499D01*
X-156852Y1969411D01*
X-152968Y1972185D01*
X-148947Y1974959D01*
X-144509Y1977455D01*
X-144370D01*
X-144231Y1977594D01*
X-143399Y1978010D01*
X-142012Y1978703D01*
X-140071Y1979535D01*
X-137713Y1980506D01*
X-134801Y1981616D01*
X-131472Y1982725D01*
X-127589Y1983973D01*
X-123290Y1985221D01*
X-118575Y1986331D01*
X-113444Y1987440D01*
X-107896Y1988411D01*
X-101933Y1989243D01*
X-95692Y1989937D01*
X-89035Y1990353D01*
X-81962Y1990491D01*
X-78218D01*
X-77108Y1990353D01*
D02*
G37*
G36*
X-559174Y1898266D02*
Y1897712D01*
X-559313Y1896741D01*
X-559451Y1895493D01*
X-559590Y1893967D01*
X-559729Y1892164D01*
X-559867Y1890084D01*
X-560006Y1887726D01*
X-560145Y1885091D01*
X-560422Y1882456D01*
X-560561Y1879405D01*
X-560699Y1876354D01*
X-560838Y1873165D01*
X-560977Y1869698D01*
X-561115Y1862763D01*
X-562918D01*
X-564167Y1862902D01*
X-569853D01*
X-572210Y1863041D01*
X-577480D01*
X-583305Y1863179D01*
X-605910D01*
X-608407Y1863041D01*
X-616866D01*
X-623107Y1862902D01*
X-629764Y1862763D01*
Y1863041D01*
X-629625Y1863595D01*
Y1864566D01*
X-629487Y1865953D01*
X-629348Y1867617D01*
X-629209Y1869559D01*
X-629071Y1871778D01*
X-628932Y1874135D01*
X-628793Y1876770D01*
X-628655Y1879683D01*
X-628516Y1882595D01*
X-628377Y1885646D01*
X-628100Y1892026D01*
X-627961Y1898405D01*
X-626158D01*
X-624910Y1898266D01*
X-621304D01*
X-619224Y1898128D01*
X-614370D01*
X-611596Y1897989D01*
X-605772D01*
X-599808Y1897850D01*
X-585524D01*
X-583305Y1897989D01*
X-575261D01*
X-572210Y1898128D01*
X-565831Y1898266D01*
X-559174Y1898405D01*
Y1898266D01*
D02*
G37*
G36*
X189304Y1896464D02*
Y1896325D01*
Y1896048D01*
Y1895493D01*
Y1894938D01*
X189165Y1893551D01*
Y1892164D01*
Y1892026D01*
Y1891887D01*
Y1891471D01*
Y1891055D01*
Y1889668D01*
X189026Y1887865D01*
Y1885646D01*
X188888Y1883150D01*
X188749Y1880515D01*
X188610Y1877603D01*
X188194Y1871362D01*
X187639Y1865260D01*
X187362Y1862209D01*
X186946Y1859435D01*
X186530Y1856939D01*
X185975Y1854720D01*
Y1854581D01*
X185837Y1854304D01*
X185698Y1853610D01*
X185421Y1852917D01*
X185143Y1851946D01*
X184727Y1850837D01*
X183756Y1848202D01*
X182508Y1845289D01*
X180983Y1842099D01*
X179041Y1838910D01*
X176822Y1835720D01*
X176683Y1835581D01*
X176545Y1835304D01*
X176129Y1834888D01*
X175574Y1834333D01*
X175019Y1833640D01*
X174187Y1832808D01*
X173216Y1831976D01*
X172107Y1830866D01*
X170859Y1829757D01*
X169472Y1828647D01*
X167946Y1827399D01*
X166282Y1826151D01*
X164479Y1824903D01*
X162399Y1823654D01*
X160319Y1822406D01*
X158100Y1821158D01*
X157961D01*
X157545Y1820881D01*
X156852Y1820603D01*
X156020Y1820187D01*
X154771Y1819633D01*
X153385Y1818939D01*
X151859Y1818384D01*
X150056Y1817691D01*
X148115Y1816859D01*
X146034Y1816166D01*
X143677Y1815472D01*
X141319Y1814640D01*
X136049Y1813253D01*
X130363Y1812144D01*
X130224D01*
X129670Y1812005D01*
X128837Y1811866D01*
X127728Y1811728D01*
X126341Y1811589D01*
X124677Y1811312D01*
X122735Y1811034D01*
X120655Y1810896D01*
X118297Y1810618D01*
X115801Y1810341D01*
X113305Y1810063D01*
X110531Y1809925D01*
X104845Y1809647D01*
X98882Y1809509D01*
X95137D01*
X93612Y1809647D01*
X91947D01*
X90145Y1809786D01*
X88064Y1809925D01*
X85845Y1810063D01*
X81269Y1810341D01*
X76276Y1810896D01*
X71284Y1811589D01*
X71145D01*
X70729Y1811728D01*
X70035Y1811866D01*
X69203Y1812005D01*
X68094Y1812144D01*
X66846Y1812421D01*
X65459Y1812698D01*
X63933Y1813114D01*
X60466Y1813808D01*
X56722Y1814917D01*
X52839Y1816027D01*
X49094Y1817414D01*
X48955D01*
X48678Y1817552D01*
X48123Y1817830D01*
X47430Y1818107D01*
X46598Y1818523D01*
X45627Y1818939D01*
X43269Y1820049D01*
X40634Y1821297D01*
X37861Y1822961D01*
X34948Y1824625D01*
X32036Y1826567D01*
X31897D01*
X31759Y1826844D01*
X30927Y1827399D01*
X29678Y1828370D01*
X28292Y1829618D01*
X26627Y1831143D01*
X24963Y1832808D01*
X23299Y1834611D01*
X21773Y1836413D01*
X21635Y1836691D01*
X21219Y1837384D01*
X20525Y1838355D01*
X19832Y1839880D01*
X18861Y1841683D01*
X18029Y1843625D01*
X17058Y1845983D01*
X16226Y1848479D01*
Y1848618D01*
X16087Y1848895D01*
Y1849311D01*
X15949Y1849866D01*
X15671Y1850559D01*
X15533Y1851530D01*
X15117Y1853610D01*
X14701Y1856107D01*
X14423Y1859019D01*
X14146Y1862209D01*
X14007Y1865537D01*
Y1865676D01*
Y1866092D01*
Y1866785D01*
Y1867895D01*
Y1869143D01*
Y1870668D01*
X14146Y1872610D01*
Y1874690D01*
Y1874829D01*
Y1874968D01*
Y1875384D01*
Y1875800D01*
X14284Y1876493D01*
Y1877325D01*
Y1878157D01*
X14423Y1879267D01*
X14562Y1881763D01*
X14839Y1884814D01*
X15117Y1888420D01*
X15394Y1892580D01*
X17058Y1912967D01*
Y1913106D01*
Y1913383D01*
Y1913799D01*
X17197Y1914492D01*
Y1915325D01*
X17336Y1916295D01*
Y1917544D01*
X17474Y1918930D01*
Y1920595D01*
X17613Y1922259D01*
X17752Y1924200D01*
X17890Y1926419D01*
X18029Y1928638D01*
X18168Y1931135D01*
X18306Y1933770D01*
X18445Y1936682D01*
X20803Y1987163D01*
X25657D01*
X27459Y1987024D01*
X36335D01*
X41050Y1986886D01*
X57970D01*
X60050Y1987024D01*
X70035D01*
X73086Y1987163D01*
X76138D01*
X72254Y1932799D01*
Y1932660D01*
Y1932105D01*
X72116Y1931273D01*
Y1930164D01*
X71977Y1928777D01*
X71838Y1927251D01*
X71700Y1925449D01*
X71561Y1923368D01*
X71422Y1921288D01*
X71284Y1918930D01*
X71006Y1914076D01*
X70729Y1909084D01*
X70451Y1903953D01*
Y1903814D01*
Y1903398D01*
Y1902704D01*
X70313Y1901734D01*
Y1900763D01*
Y1899515D01*
X70174Y1896602D01*
X70035Y1893551D01*
Y1890500D01*
X69897Y1887726D01*
Y1886617D01*
Y1885508D01*
Y1885369D01*
Y1885091D01*
Y1884537D01*
Y1883843D01*
Y1883011D01*
X70035Y1882040D01*
Y1879821D01*
X70174Y1877325D01*
X70451Y1874551D01*
X70868Y1871917D01*
X71284Y1869282D01*
Y1869143D01*
X71422Y1869004D01*
X71561Y1868172D01*
X71977Y1866924D01*
X72393Y1865398D01*
X73086Y1863734D01*
X74057Y1861793D01*
X75167Y1859990D01*
X76415Y1858187D01*
X76554Y1858048D01*
X77108Y1857493D01*
X77940Y1856661D01*
X79050Y1855690D01*
X80575Y1854581D01*
X82378Y1853472D01*
X84320Y1852362D01*
X86678Y1851391D01*
X86816D01*
X86955Y1851253D01*
X87787Y1851114D01*
X89174Y1850698D01*
X90838Y1850282D01*
X92918Y1849866D01*
X95276Y1849588D01*
X97772Y1849311D01*
X100407Y1849172D01*
X101517D01*
X102626Y1849311D01*
X104152Y1849450D01*
X105816Y1849588D01*
X107757Y1849866D01*
X109838Y1850282D01*
X111779Y1850837D01*
X111918D01*
X112473Y1851114D01*
X113305Y1851391D01*
X114414Y1851807D01*
X115524Y1852362D01*
X116772Y1852917D01*
X119407Y1854581D01*
X119546Y1854720D01*
X119962Y1854997D01*
X120378Y1855413D01*
X121071Y1856107D01*
X121903Y1856800D01*
X122735Y1857771D01*
X124400Y1859851D01*
X124538Y1859990D01*
X124816Y1860544D01*
X125370Y1861377D01*
X126064Y1862347D01*
X126757Y1863734D01*
X127589Y1865260D01*
X128421Y1867063D01*
X129115Y1869004D01*
X129253Y1869282D01*
X129531Y1869975D01*
X129808Y1871084D01*
X130363Y1872610D01*
X130779Y1874551D01*
X131334Y1876909D01*
X131888Y1879544D01*
X132305Y1882456D01*
Y1882595D01*
Y1882873D01*
X132443Y1883427D01*
X132582Y1884259D01*
Y1885230D01*
X132721Y1886617D01*
X132859Y1888281D01*
X133137Y1890361D01*
X133275Y1892719D01*
X133553Y1895354D01*
X133830Y1898544D01*
X134107Y1902011D01*
X134385Y1905894D01*
X134662Y1910332D01*
X134940Y1915186D01*
X135356Y1920456D01*
Y1920595D01*
Y1920733D01*
X135494Y1921565D01*
Y1922952D01*
X135633Y1924755D01*
X135772Y1926974D01*
X135910Y1929609D01*
X136049Y1932521D01*
X136326Y1935711D01*
X136465Y1939178D01*
X136742Y1942923D01*
X136881Y1946667D01*
X137158Y1950689D01*
X137575Y1958733D01*
X137852Y1966776D01*
Y1967054D01*
Y1967608D01*
X137991Y1968718D01*
Y1969966D01*
X138129Y1971492D01*
Y1973295D01*
X138407Y1977039D01*
X138545Y1980783D01*
X138684Y1982448D01*
X138823Y1983973D01*
X138961Y1985221D01*
X139100Y1986331D01*
X139239Y1986886D01*
X139377Y1987163D01*
X195683D01*
X189304Y1896464D01*
D02*
G37*
G36*
X857344Y1990353D02*
X859286D01*
X861366Y1990214D01*
X863863Y1990075D01*
X866498Y1989798D01*
X869410Y1989521D01*
X872461Y1989104D01*
X875789Y1988688D01*
X879118Y1988134D01*
X886191Y1986747D01*
X893264Y1984944D01*
X893541D01*
X894096Y1984667D01*
X895067Y1984389D01*
X896453Y1983834D01*
X898118Y1983280D01*
X900059Y1982586D01*
X902139Y1981616D01*
X904497Y1980645D01*
X906993Y1979535D01*
X909767Y1978148D01*
X912402Y1976762D01*
X915314Y1975236D01*
X918088Y1973433D01*
X920862Y1971492D01*
X923774Y1969550D01*
X926409Y1967331D01*
X926548Y1967192D01*
X927103Y1966776D01*
X927796Y1966083D01*
X928767Y1965251D01*
X929876Y1964003D01*
X931263Y1962755D01*
X932789Y1961090D01*
X934314Y1959287D01*
X936117Y1957346D01*
X937781Y1955266D01*
X939584Y1952908D01*
X941387Y1950550D01*
X944715Y1945280D01*
X946241Y1942507D01*
X947628Y1939594D01*
X947766Y1939456D01*
X947905Y1938901D01*
X948321Y1938069D01*
X948737Y1936821D01*
X949292Y1935295D01*
X949847Y1933492D01*
X950540Y1931551D01*
X951234Y1929193D01*
X951788Y1926697D01*
X952482Y1923923D01*
X953036Y1920872D01*
X953591Y1917682D01*
X954007Y1914354D01*
X954423Y1910887D01*
X954562Y1907142D01*
X954701Y1903398D01*
Y1903120D01*
Y1902427D01*
Y1901318D01*
X954562Y1899792D01*
X954423Y1897850D01*
X954285Y1895631D01*
X954007Y1893274D01*
X953730Y1890500D01*
X953314Y1887588D01*
X952759Y1884398D01*
X952204Y1881208D01*
X951372Y1877741D01*
X950540Y1874413D01*
X949569Y1870946D01*
X948321Y1867479D01*
X946934Y1864012D01*
X946796Y1863873D01*
X946518Y1863179D01*
X946102Y1862347D01*
X945548Y1860960D01*
X944715Y1859435D01*
X943745Y1857632D01*
X942496Y1855690D01*
X941248Y1853472D01*
X939723Y1851114D01*
X938059Y1848756D01*
X936256Y1846121D01*
X934175Y1843625D01*
X932095Y1840990D01*
X929738Y1838494D01*
X927241Y1835859D01*
X924606Y1833501D01*
X924468Y1833362D01*
X923913Y1832946D01*
X923081Y1832253D01*
X921971Y1831421D01*
X920584Y1830450D01*
X918920Y1829202D01*
X916979Y1827954D01*
X914760Y1826567D01*
X912402Y1825041D01*
X909767Y1823516D01*
X906855Y1821990D01*
X903804Y1820465D01*
X900475Y1819078D01*
X897147Y1817691D01*
X893541Y1816304D01*
X889797Y1815195D01*
X889519D01*
X888826Y1814917D01*
X887855Y1814640D01*
X886329Y1814363D01*
X884527Y1813947D01*
X882308Y1813392D01*
X879811Y1812837D01*
X877038Y1812421D01*
X873987Y1811866D01*
X870658Y1811312D01*
X867191Y1810896D01*
X863585Y1810341D01*
X859841Y1810063D01*
X855819Y1809786D01*
X847775Y1809509D01*
X845695D01*
X844170Y1809647D01*
X842228D01*
X839870Y1809786D01*
X837374Y1809925D01*
X834600Y1810202D01*
X831549Y1810479D01*
X828221Y1810896D01*
X824892Y1811312D01*
X821287Y1811866D01*
X813936Y1813253D01*
X806447Y1815056D01*
X806170Y1815195D01*
X805615Y1815333D01*
X804506Y1815611D01*
X803119Y1816166D01*
X801455Y1816720D01*
X799375Y1817552D01*
X797156Y1818384D01*
X794659Y1819494D01*
X792024Y1820742D01*
X789251Y1822129D01*
X786477Y1823516D01*
X783565Y1825180D01*
X780514Y1827122D01*
X777601Y1829063D01*
X774689Y1831143D01*
X771915Y1833501D01*
X771776Y1833640D01*
X771222Y1834056D01*
X770528Y1834749D01*
X769558Y1835720D01*
X768309Y1836968D01*
X766923Y1838355D01*
X765536Y1840019D01*
X763871Y1841822D01*
X762207Y1843902D01*
X760543Y1845983D01*
X758740Y1848340D01*
X757076Y1850837D01*
X753886Y1856107D01*
X752499Y1858880D01*
X751251Y1861793D01*
Y1861931D01*
X750974Y1862486D01*
X750696Y1863318D01*
X750280Y1864566D01*
X749864Y1865953D01*
X749310Y1867756D01*
X748755Y1869698D01*
X748200Y1871917D01*
X747645Y1874413D01*
X747091Y1877048D01*
X746536Y1879960D01*
X746120Y1883011D01*
X745704Y1886201D01*
X745426Y1889529D01*
X745288Y1892858D01*
X745149Y1896464D01*
Y1896602D01*
Y1896741D01*
Y1897157D01*
Y1897712D01*
X745288Y1899237D01*
Y1901179D01*
X745565Y1903536D01*
X745843Y1906449D01*
X746259Y1909639D01*
X746813Y1913106D01*
X747507Y1916711D01*
X748339Y1920733D01*
X749310Y1924755D01*
X750558Y1928916D01*
X752083Y1933076D01*
X753748Y1937237D01*
X755828Y1941397D01*
X758047Y1945419D01*
X758185Y1945696D01*
X758601Y1946390D01*
X759434Y1947499D01*
X760543Y1948886D01*
X761791Y1950689D01*
X763455Y1952769D01*
X765536Y1954988D01*
X767755Y1957485D01*
X770251Y1960120D01*
X773163Y1962893D01*
X776353Y1965528D01*
X779820Y1968302D01*
X783565Y1971076D01*
X787586Y1973711D01*
X791886Y1976207D01*
X796462Y1978564D01*
X796601D01*
X796740Y1978703D01*
X797156Y1978842D01*
X797572Y1979119D01*
X799097Y1979674D01*
X800900Y1980367D01*
X803396Y1981338D01*
X806170Y1982309D01*
X809499Y1983418D01*
X813243Y1984528D01*
X817265Y1985637D01*
X821703Y1986747D01*
X826418Y1987718D01*
X831411Y1988688D01*
X836681Y1989382D01*
X842228Y1989937D01*
X847914Y1990353D01*
X853877Y1990491D01*
X855958D01*
X857344Y1990353D01*
D02*
G37*
G36*
X1048590Y2257864D02*
Y2257725D01*
Y2257448D01*
Y2256893D01*
X1048451Y2255922D01*
X1048312Y2254535D01*
Y2253564D01*
Y2252594D01*
X1048174Y2251346D01*
X1048035Y2249959D01*
Y2248433D01*
X1047896Y2246769D01*
X1047203Y2232901D01*
Y2232762D01*
Y2232207D01*
X1047064Y2231236D01*
Y2230127D01*
Y2228740D01*
X1046926Y2227214D01*
Y2223886D01*
X1045816D01*
X1044568Y2224025D01*
X1042765D01*
X1040685Y2224163D01*
X1038188D01*
X1035415Y2224302D01*
X1032502Y2224441D01*
X1029313D01*
X1025984Y2224579D01*
X1019050Y2224718D01*
X1012116Y2224857D01*
X987291D01*
X985350Y2224718D01*
X975781D01*
X974394Y2224579D01*
X969540D01*
X967598Y2224441D01*
X963160D01*
X960664Y2224302D01*
X959000Y2195040D01*
X961635D01*
X963160Y2194901D01*
X969124D01*
X971481Y2194762D01*
X980219D01*
X983408Y2194624D01*
X997970D01*
X999634Y2194762D01*
X1003933D01*
X1006568Y2194901D01*
X1009620D01*
X1013225Y2195040D01*
X1017247Y2195178D01*
X1021685Y2195317D01*
X1026678Y2195456D01*
X1029451D01*
X1032225Y2195595D01*
Y2195456D01*
Y2194901D01*
X1032086Y2193930D01*
X1031948Y2192682D01*
X1031809Y2191157D01*
X1031670Y2189215D01*
X1031532Y2186996D01*
X1031393Y2184639D01*
X1031254Y2181865D01*
X1030977Y2178952D01*
X1030838Y2175624D01*
X1030561Y2172296D01*
X1030422Y2168551D01*
X1030145Y2164807D01*
X1030006Y2160785D01*
X1029729Y2156624D01*
X1019743D01*
X1017247Y2156763D01*
X986737D01*
X984240Y2156624D01*
X978416D01*
X975087Y2156486D01*
X971759D01*
X968153Y2156347D01*
X964270Y2156208D01*
X956365Y2155931D01*
X954839Y2124866D01*
X977029D01*
X978970Y2125004D01*
X989372D01*
X992839Y2125143D01*
X996445D01*
X1022933Y2125836D01*
X1024736D01*
X1025568Y2125975D01*
X1027648D01*
X1028897Y2126114D01*
X1030283D01*
X1031948Y2126253D01*
X1033751Y2126391D01*
X1035692Y2126530D01*
X1037772Y2126669D01*
X1040130Y2126807D01*
X1042626Y2126946D01*
Y2126669D01*
Y2126114D01*
X1042488Y2125004D01*
X1042349Y2123618D01*
X1042210Y2121953D01*
X1042072Y2119873D01*
X1041933Y2117515D01*
X1041656Y2114880D01*
X1041517Y2112107D01*
X1041239Y2109056D01*
X1041101Y2105866D01*
X1040823Y2102399D01*
X1040407Y2095326D01*
X1039991Y2087837D01*
X1024181D01*
X1019743Y2087976D01*
X971620D01*
X915453Y2087837D01*
X897424D01*
Y2087976D01*
Y2088253D01*
X897563Y2088669D01*
Y2089363D01*
X897702Y2090056D01*
Y2091027D01*
X897840Y2092136D01*
X897979Y2093384D01*
X898118Y2096158D01*
X898534Y2099348D01*
X898811Y2103092D01*
X899088Y2107114D01*
X899504Y2111275D01*
X899920Y2115713D01*
X900614Y2125004D01*
X901307Y2134158D01*
X901723Y2138595D01*
X902001Y2142895D01*
Y2143172D01*
X902139Y2143865D01*
Y2145252D01*
X902278Y2146916D01*
X902417Y2149135D01*
X902555Y2151909D01*
X902694Y2155099D01*
X902972Y2158705D01*
X903110Y2162726D01*
X903388Y2167164D01*
X903665Y2172018D01*
X903942Y2177288D01*
X904081Y2182836D01*
X904358Y2188938D01*
X904636Y2195317D01*
X904913Y2201974D01*
Y2202113D01*
Y2202390D01*
Y2202945D01*
X905052Y2203638D01*
Y2204470D01*
Y2205441D01*
Y2206689D01*
X905190Y2207937D01*
X905329Y2210850D01*
X905468Y2214317D01*
X905607Y2217923D01*
X905745Y2221945D01*
X905884Y2225966D01*
X906023Y2230127D01*
Y2234149D01*
X906161Y2238171D01*
X906300Y2241915D01*
X906439Y2245243D01*
Y2248294D01*
Y2249543D01*
Y2250791D01*
X906300Y2262163D01*
X914621D01*
X916285Y2262024D01*
X937365D01*
X943329Y2261885D01*
X1007955D01*
X1013503Y2262024D01*
X1037218D01*
X1043042Y2262163D01*
X1048867D01*
X1048590Y2257864D01*
D02*
G37*
G36*
X634618Y2208908D02*
X672479Y2106421D01*
X679968Y2087837D01*
X670537D01*
X668318Y2087976D01*
X635173D01*
X632122Y2087837D01*
X621443D01*
Y2088114D01*
X621166Y2088808D01*
X620888Y2089917D01*
X620472Y2091582D01*
X619779Y2093523D01*
X619085Y2096019D01*
X618253Y2098793D01*
X617421Y2101844D01*
X616312Y2105311D01*
X615064Y2109194D01*
X613815Y2113216D01*
X612290Y2117515D01*
X610764Y2122231D01*
X609100Y2127085D01*
X607297Y2132077D01*
X605356Y2137347D01*
X541006D01*
X540868Y2137070D01*
X540452Y2136376D01*
X539897Y2135128D01*
X539065Y2133464D01*
X538094Y2131384D01*
X536846Y2128749D01*
X535459Y2125975D01*
X533933Y2122785D01*
X532269Y2119180D01*
X530605Y2115435D01*
X528663Y2111275D01*
X526722Y2106975D01*
X524642Y2102399D01*
X522561Y2097684D01*
X520342Y2092830D01*
X518123Y2087837D01*
X507999D01*
X505503Y2087976D01*
X471664D01*
X468475Y2087837D01*
X457657D01*
X468197Y2106143D01*
X534211Y2230543D01*
X541284Y2244411D01*
Y2244550D01*
X541422Y2244689D01*
X541561Y2245105D01*
X541838Y2245521D01*
X542116Y2246214D01*
X542532Y2247046D01*
X543503Y2248988D01*
X544751Y2251484D01*
X546138Y2254535D01*
X547940Y2258141D01*
X549882Y2262163D01*
X555429D01*
X557510Y2262024D01*
X567772D01*
X573181Y2261885D01*
X596064D01*
X598699Y2262024D01*
X610071D01*
X615896Y2262163D01*
X634618Y2208908D01*
D02*
G37*
G36*
X470555Y2249543D02*
Y2249404D01*
Y2249127D01*
Y2248572D01*
X470416Y2247878D01*
Y2247046D01*
Y2246076D01*
X470277Y2243718D01*
X470139Y2241083D01*
X470000Y2238309D01*
X469861Y2235536D01*
X469723Y2232901D01*
Y2232762D01*
Y2232623D01*
Y2231791D01*
Y2230682D01*
Y2229295D01*
X469584Y2227631D01*
Y2225966D01*
Y2224441D01*
Y2223054D01*
X468336D01*
X466949Y2223193D01*
X465007Y2223331D01*
X462650D01*
X460015Y2223470D01*
X456964Y2223609D01*
X453774Y2223747D01*
X450168Y2223886D01*
X446562Y2224025D01*
X439074Y2224163D01*
X431585Y2224441D01*
X415636D01*
Y2224163D01*
X415497Y2223470D01*
Y2222222D01*
X415359Y2220558D01*
X415220Y2218616D01*
X414943Y2216258D01*
X414804Y2213623D01*
X414526Y2210711D01*
X414249Y2207660D01*
X414110Y2204332D01*
X413833Y2200865D01*
X413556Y2197259D01*
X413001Y2190047D01*
X412585Y2182697D01*
Y2182558D01*
Y2182420D01*
Y2182004D01*
Y2181449D01*
X412446Y2180755D01*
Y2180062D01*
X412308Y2177982D01*
Y2175485D01*
X412169Y2172712D01*
X411891Y2169383D01*
X411753Y2165777D01*
X411614Y2161756D01*
X411475Y2157595D01*
X411198Y2153296D01*
X411059Y2148719D01*
X410643Y2139150D01*
X410366Y2129442D01*
Y2129304D01*
Y2129165D01*
Y2128333D01*
Y2126946D01*
X410227Y2125143D01*
Y2122924D01*
X410089Y2120428D01*
Y2117654D01*
Y2114603D01*
X409950Y2111275D01*
Y2107946D01*
X409811Y2101012D01*
X409673Y2094217D01*
Y2090888D01*
Y2087837D01*
X400658D01*
X398439Y2087976D01*
X368067D01*
X364878Y2087837D01*
X353367D01*
Y2087976D01*
X353506Y2088530D01*
Y2089501D01*
X353644Y2090611D01*
X353783Y2092136D01*
X353922Y2094078D01*
X354199Y2096158D01*
X354338Y2098654D01*
X354615Y2101428D01*
X354892Y2104479D01*
X355170Y2107808D01*
X355447Y2111413D01*
X355724Y2115158D01*
X356002Y2119318D01*
X356279Y2123618D01*
X356695Y2128194D01*
X356973Y2132909D01*
X357250Y2137902D01*
X357666Y2143033D01*
X357943Y2148442D01*
X358221Y2153989D01*
X358637Y2159675D01*
X358914Y2165639D01*
X359192Y2171602D01*
X359469Y2177843D01*
X359746Y2184084D01*
X360162Y2197120D01*
X360578Y2210572D01*
X360856Y2224441D01*
X306492Y2223054D01*
X307185Y2237200D01*
Y2237338D01*
Y2237754D01*
Y2238309D01*
X307324Y2239141D01*
Y2240251D01*
Y2241499D01*
X307462Y2243024D01*
Y2244550D01*
X307601Y2246353D01*
Y2248294D01*
X307740Y2252594D01*
X307878Y2257170D01*
X308017Y2262163D01*
X317864D01*
X319805Y2262024D01*
X344491D01*
X351564Y2261885D01*
X392476D01*
X423957Y2262024D01*
X454606D01*
X471248Y2262163D01*
X470555Y2249543D01*
D02*
G37*
G36*
X223697Y2215842D02*
X219953Y2143588D01*
X219398Y2125836D01*
X222865D01*
X224668Y2125698D01*
X231186D01*
X236040Y2125559D01*
X240755D01*
X242836Y2125420D01*
X259478D01*
X263084Y2125559D01*
X275149D01*
X283609Y2125836D01*
X287769D01*
X291652Y2125975D01*
X295397Y2126114D01*
X298864Y2126253D01*
X296090Y2087837D01*
X279864D01*
X275426Y2087976D01*
X184311D01*
X171968Y2087837D01*
X160041D01*
Y2087976D01*
Y2088253D01*
X160180Y2088669D01*
Y2089224D01*
X160319Y2089917D01*
Y2090749D01*
X160596Y2092830D01*
X160873Y2095465D01*
X161151Y2098377D01*
X161428Y2101705D01*
X161844Y2105311D01*
X162122Y2109056D01*
X162538Y2113078D01*
X163370Y2121260D01*
X163647Y2125282D01*
X164063Y2129304D01*
X164341Y2133187D01*
X164618Y2136931D01*
Y2137070D01*
Y2137347D01*
X164757Y2137763D01*
Y2138457D01*
Y2139289D01*
X164895Y2140398D01*
Y2141508D01*
X165034Y2142895D01*
X165173Y2144420D01*
X165311Y2146084D01*
X165450Y2147887D01*
X165589Y2149690D01*
X165866Y2153989D01*
X166143Y2158566D01*
X166421Y2163697D01*
X166698Y2169106D01*
X167114Y2174792D01*
X167392Y2180755D01*
X167808Y2186857D01*
X168085Y2193237D01*
X168640Y2205996D01*
Y2206135D01*
Y2206412D01*
Y2206828D01*
Y2207521D01*
X168778Y2208353D01*
Y2209324D01*
Y2210434D01*
X168917Y2211682D01*
Y2214594D01*
X169056Y2218061D01*
X169194Y2221806D01*
X169333Y2225828D01*
X169472Y2230266D01*
X169611Y2234703D01*
X169749Y2244134D01*
X169888Y2248849D01*
X170027Y2253426D01*
Y2257864D01*
Y2262163D01*
X174464D01*
X176267Y2262024D01*
X185143D01*
X190274Y2261885D01*
X209135D01*
X211077Y2262024D01*
X220924D01*
X223836Y2262163D01*
X226887D01*
X223697Y2215842D01*
D02*
G37*
G36*
X-65320Y2261885D02*
X-65736Y2261053D01*
X-66430Y2259667D01*
X-67539Y2257864D01*
X-68649Y2255506D01*
X-70174Y2252732D01*
X-71838Y2249543D01*
X-73780Y2245937D01*
X-75860Y2242054D01*
X-78079Y2237616D01*
X-80575Y2233039D01*
X-83072Y2228047D01*
X-85845Y2222777D01*
X-88758Y2217229D01*
X-91670Y2211405D01*
X-94721Y2205441D01*
X-138823Y2118070D01*
Y2117932D01*
X-139100Y2117515D01*
X-139516Y2116822D01*
X-139932Y2115851D01*
X-140487Y2114603D01*
X-141319Y2113078D01*
X-142012Y2111413D01*
X-142983Y2109472D01*
X-143954Y2107392D01*
X-145063Y2105034D01*
X-146312Y2102538D01*
X-147560Y2099903D01*
X-148808Y2097129D01*
X-150195Y2094217D01*
X-153107Y2087837D01*
X-162676D01*
X-165034Y2087976D01*
X-200953D01*
X-204282Y2087837D01*
X-216070D01*
X-220785Y2103370D01*
X-251989Y2193098D01*
X-276397Y2262163D01*
X-271959D01*
X-270156Y2262024D01*
X-261281D01*
X-256149Y2261885D01*
X-237566D01*
X-235624Y2262024D01*
X-225778D01*
X-222727Y2262163D01*
X-219537D01*
Y2262024D01*
X-219398Y2261608D01*
X-219259Y2261053D01*
X-218982Y2260360D01*
X-218843Y2259389D01*
X-218566Y2258280D01*
X-217873Y2255783D01*
X-217179Y2252871D01*
X-216347Y2250097D01*
X-215654Y2247324D01*
X-214960Y2244827D01*
Y2244689D01*
X-214822Y2244411D01*
X-214683Y2243995D01*
X-214544Y2243302D01*
X-214267Y2242470D01*
X-213851Y2241360D01*
X-213435Y2240112D01*
X-213019Y2238587D01*
X-212464Y2236784D01*
X-211770Y2234703D01*
X-211077Y2232484D01*
X-210245Y2229988D01*
X-209413Y2227214D01*
X-208442Y2224163D01*
X-207333Y2220835D01*
X-206223Y2217229D01*
X-187501Y2156902D01*
Y2156763D01*
X-187362Y2156486D01*
X-187223Y2155931D01*
X-186946Y2155237D01*
X-186669Y2154267D01*
X-186391Y2153157D01*
X-185975Y2151770D01*
X-185559Y2150245D01*
X-185004Y2148581D01*
X-184588Y2146778D01*
X-183895Y2144698D01*
X-183340Y2142479D01*
X-182647Y2140121D01*
X-181953Y2137625D01*
X-181260Y2134990D01*
X-180567Y2132216D01*
X-174603Y2146916D01*
X-130086Y2244411D01*
Y2244550D01*
X-129947Y2244827D01*
X-129670Y2245382D01*
X-129392Y2246214D01*
X-128976Y2247046D01*
X-128560Y2248156D01*
X-127589Y2250513D01*
X-127451Y2250652D01*
X-127312Y2251207D01*
X-126896Y2252039D01*
X-126480Y2253287D01*
X-125786Y2254951D01*
X-124954Y2256893D01*
X-123983Y2259250D01*
X-122874Y2262163D01*
X-118159D01*
X-116356Y2262024D01*
X-107480D01*
X-102487Y2261885D01*
X-85152D01*
X-83210Y2262024D01*
X-72393D01*
X-68926Y2262163D01*
X-65181D01*
X-65320Y2261885D01*
D02*
G37*
G36*
X-351980Y2262024D02*
Y2261469D01*
X-352119Y2260499D01*
Y2259250D01*
X-352257Y2257725D01*
X-352396Y2255922D01*
X-352535Y2253703D01*
X-352673Y2251346D01*
X-352951Y2248711D01*
X-353089Y2245937D01*
X-353367Y2242886D01*
X-353506Y2239696D01*
X-353783Y2236229D01*
X-354060Y2232762D01*
X-354476Y2225273D01*
X-355031Y2217507D01*
X-355447Y2209463D01*
X-356002Y2201281D01*
X-356418Y2193237D01*
X-356973Y2185332D01*
X-357389Y2177843D01*
X-357527Y2174237D01*
X-357666Y2170770D01*
X-357805Y2167442D01*
X-357943Y2164391D01*
Y2164252D01*
Y2163975D01*
Y2163559D01*
Y2163004D01*
X-358082Y2162172D01*
Y2161201D01*
Y2159953D01*
Y2158705D01*
X-358221Y2157318D01*
Y2155654D01*
Y2153851D01*
X-358359Y2151909D01*
Y2149829D01*
X-358498Y2147749D01*
Y2142895D01*
X-358637Y2137486D01*
X-358776Y2131661D01*
X-358914Y2125420D01*
X-359053Y2118625D01*
Y2111552D01*
X-359192Y2103924D01*
Y2096019D01*
Y2087837D01*
X-387067Y2087976D01*
X-402322D01*
X-405373Y2087837D01*
X-416884D01*
Y2087976D01*
Y2088253D01*
X-416745Y2088669D01*
Y2089224D01*
X-416607Y2090056D01*
Y2090888D01*
X-416468Y2091998D01*
X-416329Y2093246D01*
Y2094633D01*
X-416191Y2096158D01*
X-416052Y2097822D01*
X-415913Y2099625D01*
X-415497Y2103508D01*
X-415220Y2108085D01*
X-414804Y2113078D01*
X-414526Y2118486D01*
X-414110Y2124311D01*
X-413833Y2130552D01*
X-413417Y2137070D01*
X-413140Y2144004D01*
X-412862Y2151077D01*
X-412585Y2158566D01*
X-482204D01*
X-484423Y2087837D01*
X-514102Y2087976D01*
X-527970D01*
X-530744Y2087837D01*
X-541284D01*
X-536291Y2157456D01*
X-534072Y2208353D01*
X-533379Y2230959D01*
Y2231098D01*
Y2231375D01*
Y2231930D01*
Y2232623D01*
Y2233455D01*
X-533240Y2234565D01*
Y2237061D01*
Y2239835D01*
X-533101Y2243024D01*
Y2246492D01*
Y2249820D01*
X-533240Y2262163D01*
X-528247D01*
X-526306Y2262024D01*
X-517153D01*
X-512160Y2261885D01*
X-495102D01*
X-493160Y2262024D01*
X-482759D01*
X-479569Y2262163D01*
X-476102D01*
Y2262024D01*
Y2261747D01*
X-476241Y2261192D01*
Y2260499D01*
Y2259667D01*
X-476380Y2258557D01*
X-476518Y2257309D01*
X-476657Y2255922D01*
Y2254397D01*
X-476796Y2252732D01*
X-477073Y2249127D01*
X-477489Y2244827D01*
X-477766Y2240251D01*
X-478044Y2235397D01*
X-478460Y2230266D01*
X-478737Y2224857D01*
X-479015Y2219310D01*
X-479708Y2208215D01*
X-479847Y2202806D01*
X-480124Y2197397D01*
X-410643D01*
Y2197536D01*
Y2197952D01*
X-410505Y2198507D01*
Y2199339D01*
Y2200310D01*
X-410366Y2201697D01*
Y2203083D01*
X-410227Y2204886D01*
X-410089Y2206689D01*
Y2208908D01*
X-409950Y2211266D01*
X-409811Y2213762D01*
X-409673Y2216397D01*
Y2219310D01*
X-409534Y2222361D01*
X-409395Y2225689D01*
Y2225828D01*
Y2226521D01*
Y2227353D01*
X-409256Y2228601D01*
Y2229988D01*
Y2231652D01*
X-409118Y2233455D01*
Y2235397D01*
X-408979Y2239557D01*
Y2243579D01*
X-408840Y2245382D01*
Y2247185D01*
Y2248711D01*
Y2250097D01*
Y2250236D01*
Y2250791D01*
Y2251623D01*
Y2252871D01*
Y2254535D01*
X-408979Y2256616D01*
Y2259112D01*
X-409118Y2262163D01*
X-378885Y2261885D01*
X-372089D01*
X-370286Y2262024D01*
X-359469D01*
X-356002Y2262163D01*
X-351980D01*
Y2262024D01*
D02*
G37*
G36*
X-770251D02*
Y2261885D01*
Y2261469D01*
X-770390Y2260915D01*
Y2260221D01*
X-770528Y2259389D01*
X-770667Y2257309D01*
X-770806Y2254674D01*
X-771083Y2251623D01*
X-771360Y2248294D01*
X-771638Y2244550D01*
X-771915Y2240528D01*
X-772193Y2236229D01*
X-772470Y2231652D01*
X-772886Y2226937D01*
X-773441Y2217368D01*
X-773995Y2207660D01*
Y2207521D01*
Y2207244D01*
Y2206689D01*
X-774134Y2206135D01*
Y2205164D01*
Y2204193D01*
X-774273Y2202945D01*
Y2201558D01*
X-774411Y2200032D01*
Y2198368D01*
X-774550Y2194762D01*
X-774828Y2190463D01*
X-774966Y2185887D01*
X-775244Y2180894D01*
X-775382Y2175624D01*
X-775660Y2170077D01*
X-775798Y2164391D01*
X-776214Y2152603D01*
X-776630Y2140814D01*
Y2140676D01*
Y2140398D01*
Y2139982D01*
Y2139428D01*
Y2138734D01*
X-776769Y2137763D01*
Y2135683D01*
Y2132909D01*
X-776908Y2129858D01*
Y2126391D01*
X-777046Y2122508D01*
X-777185Y2118486D01*
Y2114187D01*
X-777324Y2109888D01*
Y2105311D01*
X-777463Y2096435D01*
Y2091998D01*
Y2087837D01*
X-803535Y2087976D01*
X-820038D01*
X-823228Y2087837D01*
X-834878D01*
Y2087976D01*
Y2088114D01*
Y2088530D01*
X-834739Y2088947D01*
Y2090472D01*
X-834600Y2092414D01*
X-834323Y2094771D01*
X-834184Y2097684D01*
X-833907Y2101012D01*
X-833768Y2104757D01*
X-833491Y2108778D01*
X-833213Y2113355D01*
X-832797Y2118070D01*
X-832520Y2123201D01*
X-832243Y2128610D01*
X-831827Y2134158D01*
X-831549Y2139982D01*
X-831133Y2145946D01*
X-830856Y2152186D01*
X-830578Y2158427D01*
X-829885Y2171464D01*
X-829192Y2184500D01*
X-828637Y2197675D01*
X-828221Y2210572D01*
X-827943Y2216813D01*
X-827805Y2223054D01*
X-827666Y2229017D01*
Y2234703D01*
X-827527Y2240389D01*
Y2245659D01*
X-827666Y2262163D01*
X-822257D01*
X-820177Y2262024D01*
X-810469D01*
X-805615Y2261885D01*
X-791470D01*
X-789528Y2262024D01*
X-778295D01*
X-774550Y2262163D01*
X-770251D01*
Y2262024D01*
D02*
G37*
G36*
X-859563D02*
Y2261469D01*
X-859702Y2260499D01*
Y2259250D01*
X-859841Y2257725D01*
X-859979Y2255922D01*
X-860118Y2253703D01*
X-860257Y2251346D01*
X-860534Y2248711D01*
X-860673Y2245937D01*
X-860950Y2242886D01*
X-861089Y2239696D01*
X-861366Y2236229D01*
X-861644Y2232762D01*
X-862060Y2225273D01*
X-862614Y2217507D01*
X-863031Y2209463D01*
X-863585Y2201281D01*
X-864001Y2193237D01*
X-864556Y2185332D01*
X-864972Y2177843D01*
X-865111Y2174237D01*
X-865249Y2170770D01*
X-865388Y2167442D01*
X-865527Y2164391D01*
Y2164252D01*
Y2163975D01*
Y2163559D01*
Y2163004D01*
X-865666Y2162172D01*
Y2161201D01*
Y2159953D01*
Y2158705D01*
X-865804Y2157318D01*
Y2155654D01*
Y2153851D01*
X-865943Y2151909D01*
Y2149829D01*
X-866082Y2147749D01*
Y2142895D01*
X-866220Y2137486D01*
X-866359Y2131661D01*
X-866498Y2125420D01*
X-866636Y2118625D01*
Y2111552D01*
X-866775Y2103924D01*
Y2096019D01*
Y2087837D01*
X-894650Y2087976D01*
X-909906D01*
X-912957Y2087837D01*
X-924468D01*
Y2087976D01*
Y2088253D01*
X-924329Y2088669D01*
Y2089224D01*
X-924190Y2090056D01*
Y2090888D01*
X-924051Y2091998D01*
X-923913Y2093246D01*
Y2094633D01*
X-923774Y2096158D01*
X-923635Y2097822D01*
X-923497Y2099625D01*
X-923081Y2103508D01*
X-922803Y2108085D01*
X-922387Y2113078D01*
X-922110Y2118486D01*
X-921694Y2124311D01*
X-921416Y2130552D01*
X-921000Y2137070D01*
X-920723Y2144004D01*
X-920446Y2151077D01*
X-920168Y2158566D01*
X-989788D01*
X-992007Y2087837D01*
X-1021685Y2087976D01*
X-1035553D01*
X-1038327Y2087837D01*
X-1048867D01*
X-1043874Y2157456D01*
X-1041656Y2208353D01*
X-1040962Y2230959D01*
Y2231098D01*
Y2231375D01*
Y2231930D01*
Y2232623D01*
Y2233455D01*
X-1040823Y2234565D01*
Y2237061D01*
Y2239835D01*
X-1040685Y2243024D01*
Y2246492D01*
Y2249820D01*
X-1040823Y2262163D01*
X-1035831D01*
X-1033889Y2262024D01*
X-1024736D01*
X-1019743Y2261885D01*
X-1002685D01*
X-1000744Y2262024D01*
X-990342D01*
X-987153Y2262163D01*
X-983686D01*
Y2262024D01*
Y2261747D01*
X-983824Y2261192D01*
Y2260499D01*
Y2259667D01*
X-983963Y2258557D01*
X-984102Y2257309D01*
X-984240Y2255922D01*
Y2254397D01*
X-984379Y2252732D01*
X-984656Y2249127D01*
X-985072Y2244827D01*
X-985350Y2240251D01*
X-985627Y2235397D01*
X-986043Y2230266D01*
X-986321Y2224857D01*
X-986598Y2219310D01*
X-987291Y2208215D01*
X-987430Y2202806D01*
X-987707Y2197397D01*
X-918227D01*
Y2197536D01*
Y2197952D01*
X-918088Y2198507D01*
Y2199339D01*
Y2200310D01*
X-917949Y2201697D01*
Y2203083D01*
X-917811Y2204886D01*
X-917672Y2206689D01*
Y2208908D01*
X-917533Y2211266D01*
X-917395Y2213762D01*
X-917256Y2216397D01*
Y2219310D01*
X-917117Y2222361D01*
X-916979Y2225689D01*
Y2225828D01*
Y2226521D01*
Y2227353D01*
X-916840Y2228601D01*
Y2229988D01*
Y2231652D01*
X-916701Y2233455D01*
Y2235397D01*
X-916563Y2239557D01*
Y2243579D01*
X-916424Y2245382D01*
Y2247185D01*
Y2248711D01*
Y2250097D01*
Y2250236D01*
Y2250791D01*
Y2251623D01*
Y2252871D01*
Y2254535D01*
X-916563Y2256616D01*
Y2259112D01*
X-916701Y2262163D01*
X-886468Y2261885D01*
X-879673D01*
X-877870Y2262024D01*
X-867052D01*
X-863585Y2262163D01*
X-859563D01*
Y2262024D01*
D02*
G37*
G36*
X807418Y2265353D02*
X810053D01*
X813243Y2265075D01*
X816849Y2264937D01*
X820871Y2264659D01*
X825170Y2264243D01*
X830024Y2263827D01*
X835155Y2263272D01*
X840564Y2262579D01*
X846250Y2261885D01*
X852074Y2260915D01*
X858315Y2259944D01*
X864556Y2258696D01*
Y2258418D01*
Y2257864D01*
Y2256754D01*
Y2255367D01*
Y2253703D01*
X864695Y2251623D01*
Y2249127D01*
X864833Y2246492D01*
Y2243579D01*
X864972Y2240389D01*
X865111Y2236922D01*
X865249Y2233317D01*
X865388Y2229572D01*
X865666Y2225550D01*
X866220Y2217229D01*
X866082D01*
X865804Y2217368D01*
X865388Y2217507D01*
X864695Y2217784D01*
X863863Y2217923D01*
X863031Y2218339D01*
X860812Y2218893D01*
X858454Y2219726D01*
X855958Y2220419D01*
X853461Y2221112D01*
X851242Y2221806D01*
X850965Y2221945D01*
X850272Y2222083D01*
X849023Y2222361D01*
X847498Y2222777D01*
X845556Y2223193D01*
X843199Y2223747D01*
X840702Y2224302D01*
X837929Y2224718D01*
X837651D01*
X837235Y2224857D01*
X836681Y2224996D01*
X835155Y2225134D01*
X833352Y2225550D01*
X831133Y2225828D01*
X828637Y2226244D01*
X823506Y2226798D01*
X823228D01*
X822396Y2226937D01*
X821148Y2227076D01*
X819484Y2227214D01*
X817542D01*
X815601Y2227353D01*
X813520Y2227492D01*
X809082D01*
X807834Y2227353D01*
X806309Y2227214D01*
X804645D01*
X802842Y2226937D01*
X800900Y2226798D01*
X798681Y2226521D01*
X794243Y2225689D01*
X789528Y2224718D01*
X784813Y2223331D01*
X784674D01*
X784258Y2223193D01*
X783565Y2222915D01*
X782732Y2222638D01*
X781623Y2222083D01*
X780375Y2221667D01*
X778988Y2220974D01*
X777463Y2220280D01*
X774134Y2218616D01*
X770528Y2216397D01*
X766784Y2213901D01*
X763317Y2210988D01*
X763178Y2210850D01*
X762901Y2210572D01*
X762485Y2210156D01*
X761791Y2209463D01*
X761098Y2208770D01*
X760266Y2207799D01*
X759295Y2206689D01*
X758324Y2205441D01*
X756105Y2202529D01*
X753886Y2199062D01*
X751667Y2195178D01*
X749864Y2191018D01*
Y2190879D01*
X749726Y2190463D01*
X749448Y2189908D01*
X749171Y2188938D01*
X748894Y2187967D01*
X748478Y2186719D01*
X748061Y2185193D01*
X747645Y2183529D01*
X747229Y2181865D01*
X746813Y2179923D01*
X746120Y2175763D01*
X745565Y2171186D01*
X745426Y2166471D01*
Y2166332D01*
Y2165916D01*
Y2165223D01*
X745565Y2164252D01*
Y2163142D01*
X745704Y2161756D01*
X745843Y2160230D01*
X746120Y2158566D01*
X746675Y2154960D01*
X747507Y2151077D01*
X748755Y2147055D01*
X750419Y2143033D01*
Y2142895D01*
X750696Y2142617D01*
X750974Y2142063D01*
X751390Y2141369D01*
X751945Y2140537D01*
X752638Y2139566D01*
X754441Y2137209D01*
X756660Y2134712D01*
X759434Y2132077D01*
X762762Y2129581D01*
X764704Y2128471D01*
X766645Y2127362D01*
X766784D01*
X767200Y2127085D01*
X767755Y2126946D01*
X768587Y2126530D01*
X769696Y2126114D01*
X770944Y2125698D01*
X772331Y2125282D01*
X773857Y2124727D01*
X775660Y2124172D01*
X777601Y2123756D01*
X781762Y2122924D01*
X786477Y2122369D01*
X791470Y2122092D01*
X793411D01*
X794521Y2122231D01*
X795769D01*
X797294Y2122369D01*
X798820Y2122508D01*
X800623Y2122647D01*
X802564Y2122924D01*
X806864Y2123479D01*
X811440Y2124311D01*
X816433Y2125420D01*
X817820Y2153019D01*
X816987D01*
X816433Y2153157D01*
X815046D01*
X813520Y2153296D01*
X811717D01*
X810192Y2153435D01*
X807973D01*
X794521Y2153296D01*
X795353Y2168967D01*
Y2169106D01*
Y2169383D01*
Y2170077D01*
X795491Y2170770D01*
Y2171880D01*
X795630Y2173128D01*
Y2174653D01*
X795769Y2176317D01*
Y2176595D01*
Y2177150D01*
X795907Y2178259D01*
Y2179785D01*
Y2181726D01*
X796046Y2183945D01*
Y2186580D01*
Y2189492D01*
X800623D01*
X802426Y2189354D01*
X811856D01*
X817403Y2189215D01*
X848053D01*
X851520Y2189354D01*
X865527D01*
X868717Y2189492D01*
X871768D01*
Y2189354D01*
X871629Y2188660D01*
Y2187690D01*
X871490Y2186303D01*
X871352Y2184500D01*
X871074Y2182281D01*
X870936Y2179646D01*
X870658Y2176734D01*
X870381Y2173405D01*
X870103Y2169661D01*
X869826Y2165500D01*
X869549Y2161062D01*
X869133Y2156347D01*
X868855Y2151216D01*
X868439Y2145668D01*
X868162Y2139844D01*
Y2139705D01*
Y2139428D01*
Y2139011D01*
Y2138457D01*
X868023Y2137625D01*
Y2136793D01*
X867884Y2134574D01*
X867746Y2131939D01*
X867607Y2128888D01*
X867468Y2125420D01*
X867330Y2121815D01*
X867191Y2117932D01*
X866914Y2114048D01*
X866636Y2106005D01*
X866498Y2102122D01*
X866359Y2098377D01*
Y2094771D01*
X866220Y2091582D01*
X866082D01*
X865527Y2091443D01*
X864833Y2091304D01*
X863724Y2091165D01*
X862476Y2090888D01*
X861089Y2090611D01*
X859425Y2090333D01*
X857622Y2090056D01*
X853739Y2089363D01*
X849717Y2088808D01*
X845695Y2088253D01*
X841812Y2087698D01*
X841396D01*
X840841Y2087560D01*
X840148D01*
X839177Y2087421D01*
X838067Y2087282D01*
X836819Y2087144D01*
X835294Y2087005D01*
X833768Y2086728D01*
X831965Y2086589D01*
X830024Y2086450D01*
X827943Y2086173D01*
X823506Y2085895D01*
X818652Y2085479D01*
X818097D01*
X817265Y2085341D01*
X816433D01*
X815185Y2085202D01*
X813798D01*
X812272Y2085063D01*
X810608D01*
X806725Y2084786D01*
X802703Y2084647D01*
X798542Y2084509D01*
X791608D01*
X789944Y2084647D01*
X788141D01*
X786061Y2084786D01*
X783703Y2084925D01*
X781207Y2085063D01*
X778572Y2085202D01*
X775798Y2085479D01*
X772886Y2085618D01*
X766645Y2086312D01*
X760404Y2087282D01*
X760266D01*
X759711Y2087421D01*
X758740Y2087560D01*
X757631Y2087837D01*
X756105Y2088114D01*
X754441Y2088530D01*
X752499Y2088947D01*
X750419Y2089501D01*
X748061Y2090056D01*
X745704Y2090749D01*
X740711Y2092275D01*
X735580Y2094078D01*
X730449Y2096297D01*
X730310Y2096435D01*
X729894Y2096574D01*
X729200Y2096990D01*
X728230Y2097406D01*
X727120Y2098100D01*
X725872Y2098793D01*
X724347Y2099764D01*
X722821Y2100735D01*
X719215Y2103231D01*
X715609Y2106005D01*
X711865Y2109472D01*
X708398Y2113216D01*
X708259Y2113355D01*
X707982Y2113771D01*
X707566Y2114326D01*
X707011Y2115158D01*
X706179Y2116129D01*
X705347Y2117377D01*
X704376Y2118902D01*
X703405Y2120428D01*
X702296Y2122231D01*
X701186Y2124172D01*
X700077Y2126253D01*
X698967Y2128610D01*
X696748Y2133464D01*
X694807Y2138734D01*
Y2138873D01*
X694668Y2139428D01*
X694391Y2140260D01*
X694113Y2141230D01*
X693697Y2142617D01*
X693281Y2144281D01*
X692865Y2146084D01*
X692449Y2148026D01*
X692033Y2150245D01*
X691617Y2152603D01*
X691201Y2155099D01*
X690785Y2157734D01*
X690230Y2163281D01*
X690092Y2169106D01*
Y2169245D01*
Y2169383D01*
Y2169799D01*
Y2170215D01*
X690230Y2171602D01*
Y2173544D01*
X690508Y2175763D01*
X690785Y2178536D01*
X691201Y2181449D01*
X691756Y2184916D01*
X692449Y2188383D01*
X693281Y2192266D01*
X694252Y2196288D01*
X695500Y2200310D01*
X697026Y2204609D01*
X698690Y2208770D01*
X700770Y2213069D01*
X702989Y2217229D01*
X703128Y2217507D01*
X703544Y2218200D01*
X704376Y2219448D01*
X705347Y2220974D01*
X706734Y2222777D01*
X708398Y2224996D01*
X710201Y2227353D01*
X712420Y2229988D01*
X714916Y2232762D01*
X717690Y2235674D01*
X720741Y2238587D01*
X724069Y2241499D01*
X727675Y2244411D01*
X731558Y2247185D01*
X735580Y2249959D01*
X740018Y2252455D01*
X740157D01*
X740295Y2252594D01*
X741127Y2253010D01*
X742514Y2253703D01*
X744456Y2254535D01*
X746813Y2255506D01*
X749726Y2256616D01*
X753054Y2257725D01*
X756937Y2258973D01*
X761236Y2260221D01*
X765952Y2261331D01*
X771083Y2262440D01*
X776630Y2263411D01*
X782594Y2264243D01*
X788835Y2264937D01*
X795491Y2265353D01*
X802564Y2265491D01*
X806309D01*
X807418Y2265353D01*
D02*
G37*
G36*
X-631983D02*
X-629348D01*
X-626158Y2265075D01*
X-622552Y2264937D01*
X-618531Y2264659D01*
X-614231Y2264243D01*
X-609377Y2263827D01*
X-604246Y2263272D01*
X-598838Y2262579D01*
X-593151Y2261885D01*
X-587327Y2260915D01*
X-581086Y2259944D01*
X-574845Y2258696D01*
Y2258418D01*
Y2257864D01*
Y2256754D01*
Y2255367D01*
Y2253703D01*
X-574706Y2251623D01*
Y2249127D01*
X-574568Y2246492D01*
Y2243579D01*
X-574429Y2240389D01*
X-574290Y2236922D01*
X-574152Y2233317D01*
X-574013Y2229572D01*
X-573736Y2225550D01*
X-573181Y2217229D01*
X-573320D01*
X-573597Y2217368D01*
X-574013Y2217507D01*
X-574706Y2217784D01*
X-575539Y2217923D01*
X-576371Y2218339D01*
X-578590Y2218893D01*
X-580947Y2219726D01*
X-583444Y2220419D01*
X-585940Y2221112D01*
X-588159Y2221806D01*
X-588436Y2221945D01*
X-589130Y2222083D01*
X-590378Y2222361D01*
X-591903Y2222777D01*
X-593845Y2223193D01*
X-596203Y2223747D01*
X-598699Y2224302D01*
X-601473Y2224718D01*
X-601750D01*
X-602166Y2224857D01*
X-602721Y2224996D01*
X-604246Y2225134D01*
X-606049Y2225550D01*
X-608268Y2225828D01*
X-610764Y2226244D01*
X-615896Y2226798D01*
X-616173D01*
X-617005Y2226937D01*
X-618253Y2227076D01*
X-619917Y2227214D01*
X-621859D01*
X-623801Y2227353D01*
X-625881Y2227492D01*
X-630319D01*
X-631567Y2227353D01*
X-633092Y2227214D01*
X-634757D01*
X-636560Y2226937D01*
X-638501Y2226798D01*
X-640720Y2226521D01*
X-645158Y2225689D01*
X-649873Y2224718D01*
X-654588Y2223331D01*
X-654727D01*
X-655143Y2223193D01*
X-655837Y2222915D01*
X-656669Y2222638D01*
X-657778Y2222083D01*
X-659026Y2221667D01*
X-660413Y2220974D01*
X-661939Y2220280D01*
X-665267Y2218616D01*
X-668873Y2216397D01*
X-672617Y2213901D01*
X-676084Y2210988D01*
X-676223Y2210850D01*
X-676501Y2210572D01*
X-676917Y2210156D01*
X-677610Y2209463D01*
X-678303Y2208770D01*
X-679136Y2207799D01*
X-680106Y2206689D01*
X-681077Y2205441D01*
X-683296Y2202529D01*
X-685515Y2199062D01*
X-687734Y2195178D01*
X-689537Y2191018D01*
Y2190879D01*
X-689676Y2190463D01*
X-689953Y2189908D01*
X-690230Y2188938D01*
X-690508Y2187967D01*
X-690924Y2186719D01*
X-691340Y2185193D01*
X-691756Y2183529D01*
X-692172Y2181865D01*
X-692588Y2179923D01*
X-693281Y2175763D01*
X-693836Y2171186D01*
X-693975Y2166471D01*
Y2166332D01*
Y2165916D01*
Y2165223D01*
X-693836Y2164252D01*
Y2163142D01*
X-693697Y2161756D01*
X-693559Y2160230D01*
X-693281Y2158566D01*
X-692727Y2154960D01*
X-691894Y2151077D01*
X-690646Y2147055D01*
X-688982Y2143033D01*
Y2142895D01*
X-688705Y2142617D01*
X-688427Y2142063D01*
X-688011Y2141369D01*
X-687457Y2140537D01*
X-686763Y2139566D01*
X-684960Y2137209D01*
X-682741Y2134712D01*
X-679968Y2132077D01*
X-676639Y2129581D01*
X-674698Y2128471D01*
X-672756Y2127362D01*
X-672617D01*
X-672201Y2127085D01*
X-671647Y2126946D01*
X-670815Y2126530D01*
X-669705Y2126114D01*
X-668457Y2125698D01*
X-667070Y2125282D01*
X-665545Y2124727D01*
X-663742Y2124172D01*
X-661800Y2123756D01*
X-657640Y2122924D01*
X-652924Y2122369D01*
X-647932Y2122092D01*
X-645990D01*
X-644881Y2122231D01*
X-643632D01*
X-642107Y2122369D01*
X-640581Y2122508D01*
X-638779Y2122647D01*
X-636837Y2122924D01*
X-632538Y2123479D01*
X-627961Y2124311D01*
X-622969Y2125420D01*
X-621582Y2153019D01*
X-622414D01*
X-622969Y2153157D01*
X-624355D01*
X-625881Y2153296D01*
X-627684D01*
X-629209Y2153435D01*
X-631428D01*
X-644881Y2153296D01*
X-644048Y2168967D01*
Y2169106D01*
Y2169383D01*
Y2170077D01*
X-643910Y2170770D01*
Y2171880D01*
X-643771Y2173128D01*
Y2174653D01*
X-643632Y2176317D01*
Y2176595D01*
Y2177150D01*
X-643494Y2178259D01*
Y2179785D01*
Y2181726D01*
X-643355Y2183945D01*
Y2186580D01*
Y2189492D01*
X-638779D01*
X-636976Y2189354D01*
X-627545D01*
X-621998Y2189215D01*
X-591349D01*
X-587881Y2189354D01*
X-573874D01*
X-570685Y2189492D01*
X-567634D01*
Y2189354D01*
X-567772Y2188660D01*
Y2187690D01*
X-567911Y2186303D01*
X-568050Y2184500D01*
X-568327Y2182281D01*
X-568466Y2179646D01*
X-568743Y2176734D01*
X-569020Y2173405D01*
X-569298Y2169661D01*
X-569575Y2165500D01*
X-569853Y2161062D01*
X-570269Y2156347D01*
X-570546Y2151216D01*
X-570962Y2145668D01*
X-571239Y2139844D01*
Y2139705D01*
Y2139428D01*
Y2139011D01*
Y2138457D01*
X-571378Y2137625D01*
Y2136793D01*
X-571517Y2134574D01*
X-571655Y2131939D01*
X-571794Y2128888D01*
X-571933Y2125420D01*
X-572071Y2121815D01*
X-572210Y2117932D01*
X-572488Y2114048D01*
X-572765Y2106005D01*
X-572904Y2102122D01*
X-573042Y2098377D01*
Y2094771D01*
X-573181Y2091582D01*
X-573320D01*
X-573874Y2091443D01*
X-574568Y2091304D01*
X-575677Y2091165D01*
X-576925Y2090888D01*
X-578312Y2090611D01*
X-579976Y2090333D01*
X-581779Y2090056D01*
X-585663Y2089363D01*
X-589684Y2088808D01*
X-593706Y2088253D01*
X-597589Y2087698D01*
X-598005D01*
X-598560Y2087560D01*
X-599254D01*
X-600224Y2087421D01*
X-601334Y2087282D01*
X-602582Y2087144D01*
X-604108Y2087005D01*
X-605633Y2086728D01*
X-607436Y2086589D01*
X-609377Y2086450D01*
X-611458Y2086173D01*
X-615896Y2085895D01*
X-620750Y2085479D01*
X-621304D01*
X-622136Y2085341D01*
X-622969D01*
X-624217Y2085202D01*
X-625604D01*
X-627129Y2085063D01*
X-628793D01*
X-632676Y2084786D01*
X-636698Y2084647D01*
X-640859Y2084509D01*
X-647793D01*
X-649457Y2084647D01*
X-651260D01*
X-653340Y2084786D01*
X-655698Y2084925D01*
X-658194Y2085063D01*
X-660829Y2085202D01*
X-663603Y2085479D01*
X-666515Y2085618D01*
X-672756Y2086312D01*
X-678997Y2087282D01*
X-679136D01*
X-679690Y2087421D01*
X-680661Y2087560D01*
X-681771Y2087837D01*
X-683296Y2088114D01*
X-684960Y2088530D01*
X-686902Y2088947D01*
X-688982Y2089501D01*
X-691340Y2090056D01*
X-693697Y2090749D01*
X-698690Y2092275D01*
X-703821Y2094078D01*
X-708953Y2096297D01*
X-709091Y2096435D01*
X-709507Y2096574D01*
X-710201Y2096990D01*
X-711172Y2097406D01*
X-712281Y2098100D01*
X-713529Y2098793D01*
X-715055Y2099764D01*
X-716580Y2100735D01*
X-720186Y2103231D01*
X-723792Y2106005D01*
X-727536Y2109472D01*
X-731003Y2113216D01*
X-731142Y2113355D01*
X-731419Y2113771D01*
X-731835Y2114326D01*
X-732390Y2115158D01*
X-733222Y2116129D01*
X-734054Y2117377D01*
X-735025Y2118902D01*
X-735996Y2120428D01*
X-737105Y2122231D01*
X-738215Y2124172D01*
X-739324Y2126253D01*
X-740434Y2128610D01*
X-742653Y2133464D01*
X-744594Y2138734D01*
Y2138873D01*
X-744733Y2139428D01*
X-745010Y2140260D01*
X-745288Y2141230D01*
X-745704Y2142617D01*
X-746120Y2144281D01*
X-746536Y2146084D01*
X-746952Y2148026D01*
X-747368Y2150245D01*
X-747784Y2152603D01*
X-748200Y2155099D01*
X-748616Y2157734D01*
X-749171Y2163281D01*
X-749310Y2169106D01*
Y2169245D01*
Y2169383D01*
Y2169799D01*
Y2170215D01*
X-749171Y2171602D01*
Y2173544D01*
X-748894Y2175763D01*
X-748616Y2178536D01*
X-748200Y2181449D01*
X-747645Y2184916D01*
X-746952Y2188383D01*
X-746120Y2192266D01*
X-745149Y2196288D01*
X-743901Y2200310D01*
X-742375Y2204609D01*
X-740711Y2208770D01*
X-738631Y2213069D01*
X-736412Y2217229D01*
X-736273Y2217507D01*
X-735857Y2218200D01*
X-735025Y2219448D01*
X-734054Y2220974D01*
X-732668Y2222777D01*
X-731003Y2224996D01*
X-729200Y2227353D01*
X-726982Y2229988D01*
X-724485Y2232762D01*
X-721712Y2235674D01*
X-718660Y2238587D01*
X-715332Y2241499D01*
X-711726Y2244411D01*
X-707843Y2247185D01*
X-703821Y2249959D01*
X-699383Y2252455D01*
X-699245D01*
X-699106Y2252594D01*
X-698274Y2253010D01*
X-696887Y2253703D01*
X-694946Y2254535D01*
X-692588Y2255506D01*
X-689676Y2256616D01*
X-686347Y2257725D01*
X-682464Y2258973D01*
X-678165Y2260221D01*
X-673450Y2261331D01*
X-668318Y2262440D01*
X-662771Y2263411D01*
X-656807Y2264243D01*
X-650567Y2264937D01*
X-643910Y2265353D01*
X-636837Y2265491D01*
X-633092D01*
X-631983Y2265353D01*
D02*
G37*
G36*
X43547D02*
X45488D01*
X47569Y2265214D01*
X50065Y2265075D01*
X52700Y2264798D01*
X55612Y2264520D01*
X58663Y2264104D01*
X61992Y2263688D01*
X65320Y2263134D01*
X72393Y2261747D01*
X79466Y2259944D01*
X79743D01*
X80298Y2259667D01*
X81269Y2259389D01*
X82656Y2258834D01*
X84320Y2258280D01*
X86261Y2257586D01*
X88342Y2256616D01*
X90699Y2255645D01*
X93196Y2254535D01*
X95969Y2253148D01*
X98604Y2251762D01*
X101517Y2250236D01*
X104290Y2248433D01*
X107064Y2246492D01*
X109976Y2244550D01*
X112611Y2242331D01*
X112750Y2242192D01*
X113305Y2241776D01*
X113998Y2241083D01*
X114969Y2240251D01*
X116079Y2239003D01*
X117465Y2237754D01*
X118991Y2236090D01*
X120516Y2234287D01*
X122319Y2232346D01*
X123983Y2230266D01*
X125786Y2227908D01*
X127589Y2225550D01*
X130918Y2220280D01*
X132443Y2217507D01*
X133830Y2214594D01*
X133969Y2214456D01*
X134107Y2213901D01*
X134523Y2213069D01*
X134940Y2211821D01*
X135494Y2210295D01*
X136049Y2208492D01*
X136742Y2206551D01*
X137436Y2204193D01*
X137991Y2201697D01*
X138684Y2198923D01*
X139239Y2195872D01*
X139793Y2192682D01*
X140210Y2189354D01*
X140626Y2185887D01*
X140764Y2182142D01*
X140903Y2178398D01*
Y2178120D01*
Y2177427D01*
Y2176317D01*
X140764Y2174792D01*
X140626Y2172850D01*
X140487Y2170631D01*
X140210Y2168274D01*
X139932Y2165500D01*
X139516Y2162588D01*
X138961Y2159398D01*
X138407Y2156208D01*
X137575Y2152741D01*
X136742Y2149413D01*
X135772Y2145946D01*
X134523Y2142479D01*
X133137Y2139011D01*
X132998Y2138873D01*
X132721Y2138179D01*
X132305Y2137347D01*
X131750Y2135960D01*
X130918Y2134435D01*
X129947Y2132632D01*
X128699Y2130690D01*
X127451Y2128471D01*
X125925Y2126114D01*
X124261Y2123756D01*
X122458Y2121121D01*
X120378Y2118625D01*
X118297Y2115990D01*
X115940Y2113494D01*
X113444Y2110859D01*
X110809Y2108501D01*
X110670Y2108362D01*
X110115Y2107946D01*
X109283Y2107253D01*
X108174Y2106421D01*
X106787Y2105450D01*
X105122Y2104202D01*
X103181Y2102954D01*
X100962Y2101567D01*
X98604Y2100041D01*
X95969Y2098516D01*
X93057Y2096990D01*
X90006Y2095465D01*
X86678Y2094078D01*
X83349Y2092691D01*
X79743Y2091304D01*
X75999Y2090195D01*
X75721D01*
X75028Y2089917D01*
X74057Y2089640D01*
X72532Y2089363D01*
X70729Y2088947D01*
X68510Y2088392D01*
X66014Y2087837D01*
X63240Y2087421D01*
X60189Y2086866D01*
X56860Y2086312D01*
X53393Y2085895D01*
X49788Y2085341D01*
X46043Y2085063D01*
X42021Y2084786D01*
X33978Y2084509D01*
X31897D01*
X30372Y2084647D01*
X28430D01*
X26073Y2084786D01*
X23576Y2084925D01*
X20803Y2085202D01*
X17752Y2085479D01*
X14423Y2085895D01*
X11095Y2086312D01*
X7489Y2086866D01*
X139Y2088253D01*
X-7350Y2090056D01*
X-7628Y2090195D01*
X-8182Y2090333D01*
X-9292Y2090611D01*
X-10679Y2091165D01*
X-12343Y2091720D01*
X-14423Y2092552D01*
X-16642Y2093384D01*
X-19138Y2094494D01*
X-21773Y2095742D01*
X-24547Y2097129D01*
X-27321Y2098516D01*
X-30233Y2100180D01*
X-33284Y2102122D01*
X-36197Y2104063D01*
X-39109Y2106143D01*
X-41883Y2108501D01*
X-42021Y2108640D01*
X-42576Y2109056D01*
X-43269Y2109749D01*
X-44240Y2110720D01*
X-45488Y2111968D01*
X-46875Y2113355D01*
X-48262Y2115019D01*
X-49926Y2116822D01*
X-51590Y2118902D01*
X-53255Y2120983D01*
X-55058Y2123340D01*
X-56722Y2125836D01*
X-59911Y2131106D01*
X-61298Y2133880D01*
X-62546Y2136793D01*
Y2136931D01*
X-62824Y2137486D01*
X-63101Y2138318D01*
X-63517Y2139566D01*
X-63933Y2140953D01*
X-64488Y2142756D01*
X-65043Y2144698D01*
X-65598Y2146916D01*
X-66152Y2149413D01*
X-66707Y2152048D01*
X-67262Y2154960D01*
X-67678Y2158011D01*
X-68094Y2161201D01*
X-68371Y2164529D01*
X-68510Y2167858D01*
X-68649Y2171464D01*
Y2171602D01*
Y2171741D01*
Y2172157D01*
Y2172712D01*
X-68510Y2174237D01*
Y2176179D01*
X-68233Y2178536D01*
X-67955Y2181449D01*
X-67539Y2184639D01*
X-66984Y2188106D01*
X-66291Y2191711D01*
X-65459Y2195733D01*
X-64488Y2199755D01*
X-63240Y2203916D01*
X-61714Y2208076D01*
X-60050Y2212237D01*
X-57970Y2216397D01*
X-55751Y2220419D01*
X-55612Y2220696D01*
X-55196Y2221390D01*
X-54364Y2222499D01*
X-53255Y2223886D01*
X-52006Y2225689D01*
X-50342Y2227769D01*
X-48262Y2229988D01*
X-46043Y2232484D01*
X-43547Y2235119D01*
X-40634Y2237893D01*
X-37445Y2240528D01*
X-33978Y2243302D01*
X-30233Y2246076D01*
X-26211Y2248711D01*
X-21912Y2251207D01*
X-17336Y2253564D01*
X-17197D01*
X-17058Y2253703D01*
X-16642Y2253842D01*
X-16226Y2254119D01*
X-14701Y2254674D01*
X-12898Y2255367D01*
X-10401Y2256338D01*
X-7628Y2257309D01*
X-4299Y2258418D01*
X-555Y2259528D01*
X3467Y2260637D01*
X7905Y2261747D01*
X12620Y2262718D01*
X17613Y2263688D01*
X22883Y2264382D01*
X28430Y2264937D01*
X34116Y2265353D01*
X40080Y2265491D01*
X42160D01*
X43547Y2265353D01*
D02*
G37*
%LPC*%
G36*
X469029Y1949025D02*
X468891Y1948747D01*
X468613Y1948193D01*
X468197Y1947222D01*
X467642Y1945974D01*
X466949Y1944310D01*
X466117Y1942507D01*
X465146Y1940426D01*
X464037Y1938207D01*
X462927Y1935711D01*
X461818Y1933354D01*
X459460Y1928084D01*
X457102Y1923091D01*
X455854Y1920595D01*
X454745Y1918237D01*
X445592Y1899515D01*
X485117D01*
Y1899653D01*
X484978Y1900069D01*
X484701Y1900624D01*
X484423Y1901456D01*
X484146Y1902427D01*
X483730Y1903675D01*
X483314Y1905062D01*
X482759Y1906587D01*
X481650Y1910055D01*
X480401Y1913938D01*
X479015Y1918098D01*
X477628Y1922536D01*
X476102Y1926974D01*
X474715Y1931273D01*
X473328Y1935434D01*
X472080Y1939317D01*
X471526Y1941120D01*
X470971Y1942645D01*
X470555Y1944171D01*
X470139Y1945558D01*
X469723Y1946667D01*
X469445Y1947638D01*
X469168Y1948470D01*
X469029Y1949025D01*
D02*
G37*
G36*
X854293Y1952076D02*
X850272D01*
X849162Y1951937D01*
X847914Y1951798D01*
X846388Y1951660D01*
X844724Y1951521D01*
X842783Y1951105D01*
X840841Y1950828D01*
X838761Y1950273D01*
X834184Y1949025D01*
X831965Y1948193D01*
X829608Y1947222D01*
X827250Y1945974D01*
X825031Y1944726D01*
X824892Y1944587D01*
X824476Y1944448D01*
X823922Y1944032D01*
X823090Y1943339D01*
X822119Y1942645D01*
X821009Y1941813D01*
X819761Y1940704D01*
X818374Y1939456D01*
X816849Y1938207D01*
X815462Y1936682D01*
X813936Y1935018D01*
X812411Y1933215D01*
X810885Y1931273D01*
X809499Y1929193D01*
X806864Y1924616D01*
Y1924478D01*
X806586Y1924062D01*
X806309Y1923368D01*
X805893Y1922397D01*
X805338Y1921149D01*
X804783Y1919762D01*
X804229Y1918237D01*
X803674Y1916434D01*
X803119Y1914492D01*
X802564Y1912274D01*
X802010Y1910055D01*
X801455Y1907697D01*
X800761Y1902566D01*
X800623Y1899931D01*
X800484Y1897157D01*
Y1897018D01*
Y1896602D01*
Y1895909D01*
X800623Y1894938D01*
Y1893690D01*
X800761Y1892303D01*
X800900Y1890778D01*
X801177Y1888975D01*
X801871Y1885230D01*
X802842Y1881070D01*
X804229Y1876770D01*
X806170Y1872471D01*
X806309Y1872333D01*
X806447Y1871917D01*
X806725Y1871362D01*
X807280Y1870668D01*
X807834Y1869698D01*
X808666Y1868588D01*
X809499Y1867340D01*
X810608Y1866092D01*
X811717Y1864705D01*
X813104Y1863179D01*
X814491Y1861793D01*
X816155Y1860267D01*
X817820Y1858880D01*
X819761Y1857493D01*
X821703Y1856107D01*
X823922Y1854858D01*
X824060D01*
X824476Y1854581D01*
X825170Y1854304D01*
X826002Y1853888D01*
X827111Y1853472D01*
X828360Y1852917D01*
X829885Y1852362D01*
X831549Y1851807D01*
X833352Y1851114D01*
X835294Y1850559D01*
X839593Y1849588D01*
X844170Y1848895D01*
X846527Y1848756D01*
X849023Y1848618D01*
X850410D01*
X851381Y1848756D01*
X852768Y1848895D01*
X854155Y1849034D01*
X855819Y1849172D01*
X857622Y1849450D01*
X861644Y1850282D01*
X866082Y1851669D01*
X868301Y1852362D01*
X870658Y1853333D01*
X872877Y1854442D01*
X875096Y1855690D01*
X875235Y1855829D01*
X875651Y1855968D01*
X876206Y1856384D01*
X877038Y1856939D01*
X878008Y1857771D01*
X879118Y1858603D01*
X880366Y1859574D01*
X881753Y1860822D01*
X883140Y1862209D01*
X884665Y1863595D01*
X886191Y1865260D01*
X887716Y1867063D01*
X889103Y1869004D01*
X890629Y1870946D01*
X893125Y1875522D01*
X893264Y1875661D01*
X893402Y1876077D01*
X893680Y1876770D01*
X894096Y1877741D01*
X894512Y1878989D01*
X895067Y1880376D01*
X895621Y1881902D01*
X896315Y1883705D01*
X896869Y1885646D01*
X897424Y1887726D01*
X898395Y1892303D01*
X899088Y1897296D01*
X899366Y1899792D01*
Y1902427D01*
Y1902566D01*
Y1902982D01*
Y1903814D01*
X899227Y1904785D01*
Y1906033D01*
X899088Y1907420D01*
X898950Y1908945D01*
X898672Y1910748D01*
X897979Y1914631D01*
X896869Y1918930D01*
X895483Y1923230D01*
X893541Y1927667D01*
Y1927806D01*
X893264Y1928222D01*
X892986Y1928777D01*
X892432Y1929609D01*
X891877Y1930580D01*
X891183Y1931689D01*
X889242Y1934186D01*
X886884Y1937098D01*
X883972Y1940010D01*
X880643Y1942923D01*
X876622Y1945558D01*
X876483Y1945696D01*
X876067Y1945835D01*
X875512Y1946112D01*
X874680Y1946528D01*
X873571Y1947083D01*
X872322Y1947638D01*
X870936Y1948193D01*
X869410Y1948886D01*
X867607Y1949441D01*
X865666Y1949996D01*
X861366Y1951105D01*
X856651Y1951798D01*
X854293Y1952076D01*
D02*
G37*
G36*
X579976Y2224025D02*
X579838Y2223747D01*
X579560Y2223193D01*
X579144Y2222222D01*
X578590Y2220974D01*
X577896Y2219310D01*
X577064Y2217507D01*
X576093Y2215426D01*
X574984Y2213207D01*
X573874Y2210711D01*
X572765Y2208353D01*
X570407Y2203083D01*
X568050Y2198091D01*
X566802Y2195595D01*
X565692Y2193237D01*
X556539Y2174515D01*
X596064D01*
Y2174653D01*
X595925Y2175069D01*
X595648Y2175624D01*
X595370Y2176456D01*
X595093Y2177427D01*
X594677Y2178675D01*
X594261Y2180062D01*
X593706Y2181587D01*
X592597Y2185055D01*
X591349Y2188938D01*
X589962Y2193098D01*
X588575Y2197536D01*
X587049Y2201974D01*
X585663Y2206273D01*
X584276Y2210434D01*
X583028Y2214317D01*
X582473Y2216120D01*
X581918Y2217645D01*
X581502Y2219171D01*
X581086Y2220558D01*
X580670Y2221667D01*
X580393Y2222638D01*
X580115Y2223470D01*
X579976Y2224025D01*
D02*
G37*
G36*
X40496Y2227076D02*
X36474D01*
X35364Y2226937D01*
X34116Y2226798D01*
X32591Y2226660D01*
X30927Y2226521D01*
X28985Y2226105D01*
X27043Y2225828D01*
X24963Y2225273D01*
X20387Y2224025D01*
X18168Y2223193D01*
X15810Y2222222D01*
X13452Y2220974D01*
X11233Y2219726D01*
X11095Y2219587D01*
X10679Y2219448D01*
X10124Y2219032D01*
X9292Y2218339D01*
X8321Y2217645D01*
X7212Y2216813D01*
X5963Y2215704D01*
X4577Y2214456D01*
X3051Y2213207D01*
X1664Y2211682D01*
X139Y2210018D01*
X-1387Y2208215D01*
X-2912Y2206273D01*
X-4299Y2204193D01*
X-6934Y2199616D01*
Y2199478D01*
X-7212Y2199062D01*
X-7489Y2198368D01*
X-7905Y2197397D01*
X-8460Y2196149D01*
X-9014Y2194762D01*
X-9569Y2193237D01*
X-10124Y2191434D01*
X-10679Y2189492D01*
X-11233Y2187274D01*
X-11788Y2185055D01*
X-12343Y2182697D01*
X-13036Y2177566D01*
X-13175Y2174931D01*
X-13314Y2172157D01*
Y2172018D01*
Y2171602D01*
Y2170909D01*
X-13175Y2169938D01*
Y2168690D01*
X-13036Y2167303D01*
X-12898Y2165777D01*
X-12620Y2163975D01*
X-11927Y2160230D01*
X-10956Y2156070D01*
X-9569Y2151770D01*
X-7628Y2147471D01*
X-7489Y2147333D01*
X-7350Y2146916D01*
X-7073Y2146362D01*
X-6518Y2145668D01*
X-5963Y2144698D01*
X-5131Y2143588D01*
X-4299Y2142340D01*
X-3190Y2141092D01*
X-2080Y2139705D01*
X-693Y2138179D01*
X693Y2136793D01*
X2358Y2135267D01*
X4022Y2133880D01*
X5963Y2132493D01*
X7905Y2131106D01*
X10124Y2129858D01*
X10263D01*
X10679Y2129581D01*
X11372Y2129304D01*
X12204Y2128888D01*
X13314Y2128471D01*
X14562Y2127917D01*
X16087Y2127362D01*
X17752Y2126807D01*
X19554Y2126114D01*
X21496Y2125559D01*
X25795Y2124588D01*
X30372Y2123895D01*
X32729Y2123756D01*
X35226Y2123618D01*
X36613D01*
X37583Y2123756D01*
X38970Y2123895D01*
X40357Y2124034D01*
X42021Y2124172D01*
X43824Y2124450D01*
X47846Y2125282D01*
X52284Y2126669D01*
X54503Y2127362D01*
X56860Y2128333D01*
X59079Y2129442D01*
X61298Y2130690D01*
X61437Y2130829D01*
X61853Y2130968D01*
X62408Y2131384D01*
X63240Y2131939D01*
X64211Y2132771D01*
X65320Y2133603D01*
X66568Y2134574D01*
X67955Y2135822D01*
X69342Y2137209D01*
X70868Y2138595D01*
X72393Y2140260D01*
X73919Y2142063D01*
X75305Y2144004D01*
X76831Y2145946D01*
X79327Y2150522D01*
X79466Y2150661D01*
X79605Y2151077D01*
X79882Y2151770D01*
X80298Y2152741D01*
X80714Y2153989D01*
X81269Y2155376D01*
X81824Y2156902D01*
X82517Y2158705D01*
X83072Y2160646D01*
X83626Y2162726D01*
X84597Y2167303D01*
X85291Y2172296D01*
X85568Y2174792D01*
Y2177427D01*
Y2177566D01*
Y2177982D01*
Y2178814D01*
X85429Y2179785D01*
Y2181033D01*
X85291Y2182420D01*
X85152Y2183945D01*
X84875Y2185748D01*
X84181Y2189631D01*
X83072Y2193930D01*
X81685Y2198230D01*
X79743Y2202667D01*
Y2202806D01*
X79466Y2203222D01*
X79189Y2203777D01*
X78634Y2204609D01*
X78079Y2205580D01*
X77386Y2206689D01*
X75444Y2209186D01*
X73086Y2212098D01*
X70174Y2215010D01*
X66846Y2217923D01*
X62824Y2220558D01*
X62685Y2220696D01*
X62269Y2220835D01*
X61714Y2221112D01*
X60882Y2221528D01*
X59773Y2222083D01*
X58525Y2222638D01*
X57138Y2223193D01*
X55612Y2223886D01*
X53809Y2224441D01*
X51868Y2224996D01*
X47569Y2226105D01*
X42853Y2226798D01*
X40496Y2227076D01*
D02*
G37*
%LPD*%
D62*
X-1180000Y4850000D02*
G03*
X-1180000Y4850000I-20000J0D01*
G01*
X-1780000Y5100000D02*
G03*
X-1780000Y5100000I-20000J0D01*
G01*
D63*
X-1685000Y6190000D02*
G03*
X-1685000Y6190000I-10000J0D01*
G01*
D64*
X1845000Y7845000D02*
G03*
X1845000Y7845000I-10000J0D01*
G01*
X1935000Y7785000D02*
G03*
X1935000Y7785000I-10000J0D01*
G01*
X-100000Y1410000D02*
X100000D01*
X-100000Y1190000D02*
X100000D01*
X-100000Y1110000D02*
X100000D01*
X-100000Y890000D02*
X100000D01*
X-100000Y810000D02*
X100000D01*
X-100000Y590000D02*
X100000D01*
X-100000Y510000D02*
X100000D01*
X-100000Y290000D02*
X100000D01*
X-2050000Y6750000D02*
X-1950000D01*
X-1850000D02*
X-1750000D01*
X-1050000D02*
X-950000D01*
X-1250001D02*
X-1150000D01*
X-1450001D02*
X-1350001D01*
X-1650000D02*
X-1550000D01*
X350001D02*
X450001D01*
X150000D02*
X250001D01*
X-849999D02*
X-749999D01*
X-649999D02*
X-549999D01*
X-449999D02*
X-349999D01*
X-249999D02*
X-149999D01*
X-50000D02*
X50000D01*
X-2050000Y8430000D02*
X-1950000D01*
X-2050000Y7418000D02*
Y8430000D01*
X450000Y7418000D02*
Y8430000D01*
X350000Y5730000D02*
X450000D01*
X-2050000D02*
Y7032000D01*
X450000Y5730000D02*
Y7032000D01*
X350000Y8430000D02*
X450000D01*
X-2050000Y5730000D02*
X-1950000D01*
X-2015000Y6010000D02*
X-1705000D01*
X-2015000Y6110000D02*
X-1705000D01*
X-2015000Y6010000D02*
Y6110000D01*
X-1705000Y6010000D02*
Y6110000D01*
X-2100000Y6465000D02*
Y6555000D01*
X-1940000Y6465000D02*
Y6555000D01*
X-1860000Y6465000D02*
Y6555000D01*
X-1700000Y6465000D02*
Y6555000D01*
X-30000Y5777200D02*
X30000D01*
X-30000Y6122800D02*
X30000D01*
X1900000Y7830000D02*
X2000000D01*
X1900000Y7610000D02*
X2000000D01*
X-1615000Y6695500D02*
Y6750000D01*
Y6695500D02*
X15000D01*
Y6750000D01*
Y6220000D02*
Y6750000D01*
X-1615000Y6220000D02*
X15000D01*
X-1615000D02*
Y6750000D01*
X15000D01*
X1810000Y8160000D02*
X1890000D01*
X2010000D02*
X2090000D01*
X-1120000Y5935000D02*
Y6005000D01*
X-1280000Y5935000D02*
Y6005000D01*
X-1366279Y1704983D02*
Y1585009D01*
Y1704983D02*
X-1314861D01*
X-1297722Y1699270D01*
X-1292009Y1693557D01*
X-1286296Y1682131D01*
Y1670705D01*
X-1292009Y1659279D01*
X-1297722Y1653565D01*
X-1314861Y1647852D01*
X-1366279D01*
X-1326287D02*
X-1286296Y1585009D01*
X-1259445Y1630713D02*
X-1190888D01*
Y1642139D01*
X-1196601Y1653565D01*
X-1202314Y1659279D01*
X-1213740Y1664992D01*
X-1230879D01*
X-1242305Y1659279D01*
X-1253732Y1647852D01*
X-1259445Y1630713D01*
Y1619287D01*
X-1253732Y1602148D01*
X-1242305Y1590722D01*
X-1230879Y1585009D01*
X-1213740D01*
X-1202314Y1590722D01*
X-1190888Y1602148D01*
X-1165179Y1664992D02*
X-1130901Y1585009D01*
X-1096622Y1664992D02*
X-1130901Y1585009D01*
X-1071485Y1596435D02*
X-1077198Y1590722D01*
X-1071485Y1585009D01*
X-1065772Y1590722D01*
X-1071485Y1596435D01*
X-945226Y1704983D02*
Y1585009D01*
Y1704983D02*
X-893808D01*
X-876669Y1699270D01*
X-870956Y1693557D01*
X-865243Y1682131D01*
Y1670705D01*
X-870956Y1659279D01*
X-876669Y1653565D01*
X-893808Y1647852D01*
X-945226D02*
X-893808D01*
X-876669Y1642139D01*
X-870956Y1636426D01*
X-865243Y1625000D01*
Y1607861D01*
X-870956Y1596435D01*
X-876669Y1590722D01*
X-893808Y1585009D01*
X-945226D01*
X-744126Y1704983D02*
Y1585009D01*
X-567593Y1704983D02*
Y1613574D01*
X-573306Y1596435D01*
X-579019Y1590722D01*
X-590445Y1585009D01*
X-601871D01*
X-613297Y1590722D01*
X-619010Y1596435D01*
X-624723Y1613574D01*
Y1625000D01*
X-536742Y1664992D02*
Y1607861D01*
X-531029Y1590722D01*
X-519603Y1585009D01*
X-502464D01*
X-491038Y1590722D01*
X-473898Y1607861D01*
Y1664992D02*
Y1585009D01*
X-373920Y1704983D02*
Y1585009D01*
Y1647852D02*
X-385346Y1659279D01*
X-396772Y1664992D01*
X-413911D01*
X-425337Y1659279D01*
X-436764Y1647852D01*
X-442477Y1630713D01*
Y1619287D01*
X-436764Y1602148D01*
X-425337Y1590722D01*
X-413911Y1585009D01*
X-396772D01*
X-385346Y1590722D01*
X-373920Y1602148D01*
X-273370Y1704983D02*
Y1585009D01*
Y1647852D02*
X-284796Y1659279D01*
X-296222Y1664992D01*
X-313361D01*
X-324788Y1659279D01*
X-336214Y1647852D01*
X-341927Y1630713D01*
Y1619287D01*
X-336214Y1602148D01*
X-324788Y1590722D01*
X-313361Y1585009D01*
X-296222D01*
X-284796Y1590722D01*
X-273370Y1602148D01*
X-147111Y1704983D02*
Y1585009D01*
Y1704983D02*
X-72841D01*
X-147111Y1647852D02*
X-101407D01*
X-30565Y1664992D02*
X-41991Y1659279D01*
X-53417Y1647852D01*
X-59130Y1630713D01*
Y1619287D01*
X-53417Y1602148D01*
X-41991Y1590722D01*
X-30565Y1585009D01*
X-13425D01*
X-1999Y1590722D01*
X9427Y1602148D01*
X15140Y1619287D01*
Y1630713D01*
X9427Y1647852D01*
X-1999Y1659279D01*
X-13425Y1664992D01*
X-30565D01*
X104264Y1647852D02*
X98551Y1659279D01*
X81412Y1664992D01*
X64272D01*
X47133Y1659279D01*
X41420Y1647852D01*
X47133Y1636426D01*
X58559Y1630713D01*
X87125Y1625000D01*
X98551Y1619287D01*
X104264Y1607861D01*
Y1602148D01*
X98551Y1590722D01*
X81412Y1585009D01*
X64272D01*
X47133Y1590722D01*
X41420Y1602148D01*
X146540Y1704983D02*
Y1607861D01*
X152253Y1590722D01*
X163680Y1585009D01*
X175106D01*
X129401Y1664992D02*
X169393D01*
X192245Y1630713D02*
X260802D01*
Y1642139D01*
X255089Y1653565D01*
X249376Y1659279D01*
X237949Y1664992D01*
X220810D01*
X209384Y1659279D01*
X197958Y1647852D01*
X192245Y1630713D01*
Y1619287D01*
X197958Y1602148D01*
X209384Y1590722D01*
X220810Y1585009D01*
X237949D01*
X249376Y1590722D01*
X260802Y1602148D01*
X286510Y1664992D02*
Y1585009D01*
Y1630713D02*
X292223Y1647852D01*
X303650Y1659279D01*
X315076Y1664992D01*
X332215D01*
X437335Y1704983D02*
Y1585009D01*
X556738Y1704983D02*
Y1585009D01*
Y1704983D02*
X602443Y1585009D01*
X648147Y1704983D02*
X602443Y1585009D01*
X648147Y1704983D02*
Y1585009D01*
X750982Y1664992D02*
Y1585009D01*
Y1647852D02*
X739556Y1659279D01*
X728130Y1664992D01*
X710991D01*
X699565Y1659279D01*
X688138Y1647852D01*
X682425Y1630713D01*
Y1619287D01*
X688138Y1602148D01*
X699565Y1590722D01*
X710991Y1585009D01*
X728130D01*
X739556Y1590722D01*
X750982Y1602148D01*
X788688Y1664992D02*
X822967Y1585009D01*
X857245Y1664992D02*
X822967Y1585009D01*
X811541Y1562157D01*
X800114Y1550730D01*
X788688Y1545017D01*
X782975D01*
X977219Y1676418D02*
Y1682131D01*
X982933Y1693557D01*
X988645Y1699270D01*
X1000072Y1704983D01*
X1022924D01*
X1034350Y1699270D01*
X1040063Y1693557D01*
X1045776Y1682131D01*
Y1670705D01*
X1040063Y1659279D01*
X1028637Y1642139D01*
X971506Y1585009D01*
X1051489D01*
X1112619Y1704983D02*
X1095480Y1699270D01*
X1084053Y1682131D01*
X1078340Y1653565D01*
Y1636426D01*
X1084053Y1607861D01*
X1095480Y1590722D01*
X1112619Y1585009D01*
X1124045D01*
X1141184Y1590722D01*
X1152610Y1607861D01*
X1158323Y1636426D01*
Y1653565D01*
X1152610Y1682131D01*
X1141184Y1699270D01*
X1124045Y1704983D01*
X1112619D01*
X1190888Y1676418D02*
Y1682131D01*
X1196601Y1693557D01*
X1202314Y1699270D01*
X1213740Y1704983D01*
X1236592D01*
X1248018Y1699270D01*
X1253731Y1693557D01*
X1259445Y1682131D01*
Y1670705D01*
X1253731Y1659279D01*
X1242305Y1642139D01*
X1185175Y1585009D01*
X1265157D01*
X1360565Y1687844D02*
X1354853Y1699270D01*
X1337713Y1704983D01*
X1326287D01*
X1309148Y1699270D01*
X1297722Y1682131D01*
X1292009Y1653565D01*
Y1625000D01*
X1297722Y1602148D01*
X1309148Y1590722D01*
X1326287Y1585009D01*
X1332000D01*
X1349140Y1590722D01*
X1360565Y1602148D01*
X1366279Y1619287D01*
Y1625000D01*
X1360565Y1642139D01*
X1349140Y1653565D01*
X1332000Y1659279D01*
X1326287D01*
X1309148Y1653565D01*
X1297722Y1642139D01*
X1292009Y1625000D01*
D65*
X1891035Y7230000D02*
G03*
X1891035Y7230000I-20000J0D01*
G01*
X-1632500Y5187500D02*
X1632500Y5187500D01*
X-1632500Y5000000D02*
Y5187500D01*
X1632500Y5000000D02*
Y5187500D01*
Y2512500D02*
Y2700000D01*
X-1632500Y2512500D02*
X1632500Y2512500D01*
X-1632500Y2512500D02*
Y2700000D01*
D66*
X880000Y6665000D02*
Y7135000D01*
X1170000D01*
X880000Y6665000D02*
X1170000D01*
X2120000D02*
Y7135000D01*
X1830000D02*
X2120000D01*
X1830000Y6665000D02*
X2120000D01*
D67*
X700000Y500000D02*
X1100001D01*
X900000Y300000D02*
Y700000D01*
X-1100000Y500000D02*
X-700000D01*
D68*
X-800000Y6722750D02*
D03*
%TF.MD5,7aa30f3b9f90bf1836a02b172c53fd52*%
M02*
