%TF.GenerationSoftware,Altium Limited,Altium Designer,25.6.2 (33)*%
G04 Layer_Color=8421504*
%FSLAX45Y45*%
%MOMM*%
%TF.SameCoordinates,4265A882-CCA4-4A53-A555-757F884491BB*%
%TF.FilePolarity,Positive*%
%TF.FileFunction,Paste,Top*%
%TF.Part,Single*%
G01*
G75*
%TA.AperFunction,SMDPad,CuDef*%
%ADD10R,2.75000X2.00000*%
%ADD11R,0.65000X0.80000*%
%ADD12R,0.65000X2.76000*%
%ADD13R,3.05000X3.68000*%
%ADD14R,0.85000X0.60000*%
%ADD15R,0.60000X1.10000*%
%ADD16R,1.80000X1.30000*%
%ADD17R,0.80000X0.65000*%
%ADD18R,1.55000X2.20000*%
%ADD20R,0.60000X0.42000*%
%ADD21R,0.80000X0.80000*%
D10*
X-1547500Y4850000D02*
D03*
Y4450000D02*
D03*
Y4050000D02*
D03*
Y3650000D02*
D03*
Y3250000D02*
D03*
Y2850000D02*
D03*
X1547500D02*
D03*
Y3250000D02*
D03*
Y3650000D02*
D03*
Y4050000D02*
D03*
Y4450000D02*
D03*
Y4850000D02*
D03*
D11*
X1850000Y7945000D02*
D03*
X2050000D02*
D03*
X1150000Y5955000D02*
D03*
X1350000D02*
D03*
X1850000D02*
D03*
X1250000D02*
D03*
X1950000D02*
D03*
X2050000D02*
D03*
X800000D02*
D03*
X900000D02*
D03*
X700000D02*
D03*
X1850000Y7505000D02*
D03*
Y7395000D02*
D03*
Y6065000D02*
D03*
X1950000D02*
D03*
X2050000D02*
D03*
X1850000Y8055000D02*
D03*
X2050000D02*
D03*
X1150000Y6065000D02*
D03*
X1250000D02*
D03*
X1350000D02*
D03*
X2050000Y7395000D02*
D03*
Y7505000D02*
D03*
X700000Y6065000D02*
D03*
X800000D02*
D03*
X900000D02*
D03*
X1370000Y6365000D02*
D03*
Y6475000D02*
D03*
X1500000Y6365000D02*
D03*
Y6475000D02*
D03*
X1630000Y6365000D02*
D03*
Y6475000D02*
D03*
D12*
X1754000Y7102000D02*
D03*
X1627000D02*
D03*
X1373000D02*
D03*
X1500000D02*
D03*
X1246000D02*
D03*
Y6698000D02*
D03*
X1373000D02*
D03*
X1500000D02*
D03*
X1627000D02*
D03*
X1754000D02*
D03*
D13*
X216000Y5950000D02*
D03*
X-216000D02*
D03*
D14*
X-1482500Y6140000D02*
D03*
X-1597500D02*
D03*
D15*
X-1860000Y5930000D02*
D03*
X-1955000D02*
D03*
X-1765000D02*
D03*
X-1955000Y6190000D02*
D03*
X-1860000D02*
D03*
X-1765000D02*
D03*
D16*
X-1200000Y5830000D02*
D03*
X-2020000Y6360000D02*
D03*
Y6660000D02*
D03*
X-1780000Y6360000D02*
D03*
Y6660000D02*
D03*
X-1200000Y6110000D02*
D03*
D17*
X-1865000Y5790000D02*
D03*
X-1755000D02*
D03*
D18*
X-220000Y700000D02*
D03*
Y400000D02*
D03*
Y1000000D02*
D03*
Y1300000D02*
D03*
X220000D02*
D03*
Y1000000D02*
D03*
Y700000D02*
D03*
Y400000D02*
D03*
D20*
X1855000Y7655000D02*
D03*
X2045000Y7655000D02*
D03*
Y7785000D02*
D03*
Y7720000D02*
D03*
X1855000Y7785000D02*
D03*
Y7720000D02*
D03*
D21*
X1850000Y8375000D02*
D03*
Y8225000D02*
D03*
X2050000D02*
D03*
Y8375000D02*
D03*
%TF.MD5,2c51e711a4ffd51eb76c4659d1df5916*%
M02*
