%TF.GenerationSoftware,Altium Limited,Altium Designer,25.6.2 (33)*%
G04 Layer_Color=0*
%FSLAX45Y45*%
%MOMM*%
%TF.SameCoordinates,4265A882-CCA4-4A53-A555-757F884491BB*%
%TF.FilePolarity,Positive*%
%TF.FileFunction,Plated,1,6,PTH,Drill*%
%TF.Part,Single*%
G01*
G75*
%TA.AperFunction,ComponentDrill*%
%ADD123C,1.02000*%
%ADD124C,1.80000*%
%ADD125C,0.75000*%
%ADD126C,0.75000*%
%ADD127C,0.75000*%
%ADD128C,2.67000*%
%ADD129C,0.80000*%
%ADD130C,4.40000*%
%ADD131C,1.10000*%
%TA.AperFunction,ViaDrill,NotFilled*%
%ADD132C,0.30000*%
D123*
X1350000Y8200000D02*
D03*
X1350000Y7900000D02*
D03*
X1350000Y7600000D02*
D03*
X1050000Y8200000D02*
D03*
Y7600000D02*
D03*
X1050000Y7900000D02*
D03*
D124*
X-800000Y6445500D02*
D03*
X-256000D02*
D03*
X-1344000D02*
D03*
D125*
X1456606Y5854788D02*
D03*
X1743394Y5445212D02*
D03*
D126*
X550000Y5900000D02*
D03*
X-550000D02*
D03*
X550000Y5400000D02*
D03*
X-550000D02*
D03*
D127*
X-1456606Y5854788D02*
D03*
X-1743394Y5445212D02*
D03*
D128*
X247000Y7200000D02*
D03*
X-1847000D02*
D03*
D129*
X-1100000Y8085000D02*
D03*
X-500000D02*
D03*
X-100000D02*
D03*
X-300000D02*
D03*
X-700000D02*
D03*
X-900000D02*
D03*
X-1300000D02*
D03*
X-1500000D02*
D03*
D130*
X-1600000Y500000D02*
D03*
X1600000D02*
D03*
D131*
X-1900000Y4548000D02*
D03*
Y4802000D02*
D03*
D132*
X-420000Y2255000D02*
D03*
X-650000Y930000D02*
D03*
X-535000Y1934058D02*
D03*
X-495000Y661532D02*
D03*
X-640999Y1302886D02*
D03*
X-535000Y1646156D02*
D03*
X884588Y3321434D02*
D03*
X386183Y2695660D02*
D03*
X-1397500Y3600000D02*
D03*
Y3700000D02*
D03*
Y3800000D02*
D03*
Y3999999D02*
D03*
Y3900000D02*
D03*
Y4199999D02*
D03*
Y4099999D02*
D03*
Y4399999D02*
D03*
Y4299999D02*
D03*
Y4599998D02*
D03*
Y4499998D02*
D03*
Y4799998D02*
D03*
Y4699998D02*
D03*
Y4999997D02*
D03*
Y4899998D02*
D03*
X-1497500D02*
D03*
X-1597500D02*
D03*
Y4999997D02*
D03*
X-1497500D02*
D03*
Y4699998D02*
D03*
X-1597500D02*
D03*
Y4799998D02*
D03*
X-1497500D02*
D03*
Y4499998D02*
D03*
X-1597500D02*
D03*
Y4599998D02*
D03*
X-1497500D02*
D03*
Y4299999D02*
D03*
X-1597500D02*
D03*
Y4399999D02*
D03*
X-1497500D02*
D03*
Y4099999D02*
D03*
X-1597500D02*
D03*
Y4199999D02*
D03*
X-1497500D02*
D03*
Y3900000D02*
D03*
X-1597500D02*
D03*
Y3999999D02*
D03*
X-1497500D02*
D03*
Y3800000D02*
D03*
X-1597500D02*
D03*
Y3700000D02*
D03*
X-1497500D02*
D03*
Y3600000D02*
D03*
X-1597500D02*
D03*
X1650000Y1069000D02*
D03*
X1550000D02*
D03*
Y1169000D02*
D03*
X1650000D02*
D03*
X1597500Y2900000D02*
D03*
X1497500D02*
D03*
Y2800000D02*
D03*
X1597500D02*
D03*
X1650000Y2411000D02*
D03*
X1550000D02*
D03*
Y2311000D02*
D03*
X1650000D02*
D03*
X1125000Y5800000D02*
D03*
X1025000D02*
D03*
X2125000Y7952499D02*
D03*
Y7592499D02*
D03*
Y7152499D02*
D03*
Y6752499D02*
D03*
Y5952499D02*
D03*
X1925000Y3474999D02*
D03*
X635386Y3008547D02*
D03*
X-120000Y2650000D02*
D03*
X-2125002Y5700000D02*
D03*
Y5300000D02*
D03*
Y4900000D02*
D03*
Y4500000D02*
D03*
Y4100000D02*
D03*
Y3700000D02*
D03*
Y3300000D02*
D03*
Y2900000D02*
D03*
Y2500000D02*
D03*
Y2100000D02*
D03*
Y1700000D02*
D03*
Y1300000D02*
D03*
Y900000D02*
D03*
Y500000D02*
D03*
X-500000Y74998D02*
D03*
X-900000D02*
D03*
X-1300000D02*
D03*
X-2100000D02*
D03*
X-1700000D02*
D03*
X-200000Y144999D02*
D03*
X-300000D02*
D03*
Y244999D02*
D03*
X-200000D02*
D03*
Y544999D02*
D03*
X-300000D02*
D03*
X-200000Y444999D02*
D03*
X-300000D02*
D03*
Y344999D02*
D03*
X-200000D02*
D03*
X200000D02*
D03*
X300000D02*
D03*
Y444999D02*
D03*
X200000D02*
D03*
X300000Y544999D02*
D03*
X200000D02*
D03*
Y644999D02*
D03*
X300000D02*
D03*
Y745000D02*
D03*
X200000D02*
D03*
Y845000D02*
D03*
X300000D02*
D03*
X-2125002Y7200001D02*
D03*
Y7600001D02*
D03*
Y8000001D02*
D03*
X1500000Y8425002D02*
D03*
X1100000D02*
D03*
X700000D02*
D03*
X300000D02*
D03*
X-100000D02*
D03*
X-500000D02*
D03*
X-900000D02*
D03*
X-1300000D02*
D03*
X-2100000D02*
D03*
X-1700000D02*
D03*
X2125000Y6352499D02*
D03*
Y5552499D02*
D03*
Y5152499D02*
D03*
Y4752499D02*
D03*
Y4352499D02*
D03*
Y3674999D02*
D03*
Y3952499D02*
D03*
X1875000Y4162500D02*
D03*
Y4062500D02*
D03*
Y3687500D02*
D03*
X1775000Y4062500D02*
D03*
X1875000Y3587500D02*
D03*
X1775000Y3687500D02*
D03*
Y3587500D02*
D03*
Y4162500D02*
D03*
X-720000Y4165000D02*
D03*
Y4265000D02*
D03*
X1775000Y4512500D02*
D03*
X1875000D02*
D03*
X1775000Y4412500D02*
D03*
X1875000D02*
D03*
X1087500Y4090000D02*
D03*
Y4190000D02*
D03*
Y3790000D02*
D03*
Y3690000D02*
D03*
X1187500Y4090000D02*
D03*
Y4190000D02*
D03*
Y3790000D02*
D03*
Y3690000D02*
D03*
Y4890000D02*
D03*
Y4990000D02*
D03*
Y4590000D02*
D03*
Y4490000D02*
D03*
X1087500Y4890000D02*
D03*
Y4990000D02*
D03*
Y4590000D02*
D03*
Y4490000D02*
D03*
X-975000Y2530001D02*
D03*
X-1075000D02*
D03*
Y2630000D02*
D03*
Y2730000D02*
D03*
X-975000D02*
D03*
Y2630000D02*
D03*
X-1075000Y2430001D02*
D03*
X-975000D02*
D03*
X-1175000Y2530001D02*
D03*
Y2430001D02*
D03*
Y2630000D02*
D03*
X1850000Y7945000D02*
D03*
X1500000Y7190000D02*
D03*
X1627000D02*
D03*
X1373000D02*
D03*
X2040500Y6897500D02*
D03*
X1950000Y5955000D02*
D03*
X1850000D02*
D03*
X1560000Y6907500D02*
D03*
X1440500Y6897500D02*
D03*
X1350000Y5955000D02*
D03*
X960000Y6907500D02*
D03*
X360000D02*
D03*
X840500Y6820000D02*
D03*
X800000Y5955000D02*
D03*
X900000D02*
D03*
X700000D02*
D03*
X1250000D02*
D03*
X1150000D02*
D03*
X300000Y6300000D02*
D03*
Y6200000D02*
D03*
Y6500000D02*
D03*
Y6000000D02*
D03*
Y6100000D02*
D03*
X712500Y4890000D02*
D03*
Y4590000D02*
D03*
X1875000Y4887500D02*
D03*
X712500Y3690000D02*
D03*
X1775000Y4887500D02*
D03*
X712500Y4090000D02*
D03*
Y4490000D02*
D03*
Y4990000D02*
D03*
X612500D02*
D03*
Y4590000D02*
D03*
Y4490000D02*
D03*
Y4890000D02*
D03*
X300000Y5800000D02*
D03*
Y5700000D02*
D03*
Y5900000D02*
D03*
X377500Y4300000D02*
D03*
X300000Y5600000D02*
D03*
X712500Y4190000D02*
D03*
Y3790000D02*
D03*
X1875000Y4987500D02*
D03*
X1775000D02*
D03*
X612500Y4190000D02*
D03*
Y4090000D02*
D03*
Y3690000D02*
D03*
Y3790000D02*
D03*
X200000Y6400000D02*
D03*
X300000D02*
D03*
X200000Y6500000D02*
D03*
Y6200000D02*
D03*
Y6100000D02*
D03*
Y6300000D02*
D03*
X100000D02*
D03*
Y6400000D02*
D03*
Y6100000D02*
D03*
Y6200000D02*
D03*
X200000Y5900000D02*
D03*
Y5800000D02*
D03*
Y6000000D02*
D03*
Y5700000D02*
D03*
Y5600000D02*
D03*
X100000D02*
D03*
Y5900000D02*
D03*
Y5800000D02*
D03*
Y6000000D02*
D03*
Y5700000D02*
D03*
X-1730000Y6825000D02*
D03*
X100000Y6500000D02*
D03*
X-1482500Y6140000D02*
D03*
X-1830000Y6825000D02*
D03*
X-1250000Y5830000D02*
D03*
X-1150000D02*
D03*
X-1860000Y5930000D02*
D03*
X-1955000D02*
D03*
X-1865000Y5790000D02*
D03*
X95000Y3390000D02*
D03*
X-57500Y4500000D02*
D03*
X50000Y3260000D02*
D03*
X-130000Y4740000D02*
D03*
X-260000Y4685000D02*
D03*
X-132500Y3240000D02*
D03*
X220000Y2880000D02*
D03*
X-512500Y4900000D02*
D03*
X-612500D02*
D03*
X-512500Y4800000D02*
D03*
X-612500D02*
D03*
X-1230000Y4415000D02*
D03*
X-1097500Y4410000D02*
D03*
X-837500D02*
D03*
X-460000Y4215000D02*
D03*
X-560000Y3287500D02*
D03*
Y3387500D02*
D03*
X-1200000Y2242500D02*
D03*
X-1755000Y5790000D02*
D03*
X1754000Y6598000D02*
D03*
X2045000Y7655000D02*
D03*
X50000Y6650000D02*
D03*
Y6750000D02*
D03*
Y6850000D02*
D03*
X150000Y6750000D02*
D03*
Y6850000D02*
D03*
X-729999Y2630001D02*
D03*
X-630000D02*
D03*
X-530000D02*
D03*
X-430000D02*
D03*
Y2730000D02*
D03*
X-530000D02*
D03*
X-630000D02*
D03*
X-729999D02*
D03*
Y2830000D02*
D03*
X-630000D02*
D03*
X-729999Y2930000D02*
D03*
X-630000D02*
D03*
X-530000Y2830000D02*
D03*
Y2930000D02*
D03*
X-430000D02*
D03*
Y2830000D02*
D03*
X925000Y5800000D02*
D03*
X2050000Y7395000D02*
D03*
X1850000D02*
D03*
X-242500Y3737500D02*
D03*
X42500Y4127500D02*
D03*
X122500Y4062500D02*
D03*
X42500Y3997500D02*
D03*
X122500Y3932500D02*
D03*
X42500Y3867500D02*
D03*
X122500Y3802500D02*
D03*
X42500Y3737500D02*
D03*
X122500Y3672500D02*
D03*
X42500Y3607500D02*
D03*
X-242500D02*
D03*
X-322500Y3672500D02*
D03*
Y4062500D02*
D03*
X-242500Y4127500D02*
D03*
X1800000Y7295000D02*
D03*
X1900000Y7295000D02*
D03*
X600000Y7295000D02*
D03*
X700000Y7295000D02*
D03*
X-1450000Y7600000D02*
D03*
X-1150000D02*
D03*
X-950000D02*
D03*
X-650000D02*
D03*
X-450000D02*
D03*
X-150000D02*
D03*
X-100000Y5900000D02*
D03*
X1300000Y7295000D02*
D03*
X1200000Y7295000D02*
D03*
X262500Y4300000D02*
D03*
X-49000Y4390000D02*
D03*
X-141000Y3350000D02*
D03*
X2050000Y6065000D02*
D03*
X1950000D02*
D03*
X1850000D02*
D03*
X1350000D02*
D03*
X1250000D02*
D03*
X1150000D02*
D03*
X700000D02*
D03*
X800000D02*
D03*
X900000D02*
D03*
X-1765000Y6190000D02*
D03*
X-1665000D02*
D03*
X260000Y4685000D02*
D03*
X-130000Y4645000D02*
D03*
%TF.MD5,5b9c3781b504d24e45aa3883ac579513*%
M02*
