%TF.GenerationSoftware,Altium Limited,Altium Designer,25.6.2 (33)*%
G04 Layer_Physical_Order=1*
G04 Layer_Color=10066410*
%FSLAX45Y45*%
%MOMM*%
%TF.SameCoordinates,4265A882-CCA4-4A53-A555-757F884491BB*%
%TF.FilePolarity,Positive*%
%TF.FileFunction,Copper,L1,Top,Signal*%
%TF.Part,Single*%
G01*
G75*
%TA.AperFunction,SMDPad,CuDef*%
%ADD10R,2.75000X2.00000*%
%ADD11R,0.65000X0.80000*%
%ADD12R,0.65000X2.76000*%
%ADD13R,3.05000X3.68000*%
%ADD14R,0.85000X0.60000*%
%ADD15R,0.60000X1.10000*%
%ADD16R,1.80000X1.30000*%
%ADD17R,0.80000X0.65000*%
%ADD18R,1.55000X2.20000*%
%ADD19C,1.00000*%
%ADD20R,0.60000X0.42000*%
%ADD21R,0.80000X0.80000*%
%TA.AperFunction,Conductor*%
%ADD22C,0.40000*%
%ADD23C,0.20000*%
%ADD24C,0.12000*%
%ADD25R,2.85000X4.00000*%
%TA.AperFunction,ComponentPad*%
%ADD26O,2.44000X3.60000*%
%ADD27C,1.50000*%
%ADD28C,1.80000*%
%ADD29C,4.00000*%
%ADD30C,1.30800*%
%ADD31C,5.00000*%
%ADD32R,1.30800X1.30800*%
%ADD33O,2.40000X1.70000*%
%ADD34R,2.40000X1.70000*%
%TA.AperFunction,ViaPad*%
%ADD35C,0.60000*%
G36*
X2107338Y8474512D02*
X2121734Y8471649D01*
X2135294Y8466031D01*
X2147498Y8457877D01*
X2157876Y8447499D01*
X2166031Y8435294D01*
X2171648Y8421734D01*
X2174511Y8407339D01*
X2174511Y8400001D01*
X2174511Y3659255D01*
X2174215Y3653978D01*
X2172644Y3640038D01*
X2170294Y3626207D01*
X2167172Y3612530D01*
X2163289Y3599050D01*
X2158655Y3585808D01*
X2153287Y3572847D01*
X2147200Y3560208D01*
X2140414Y3547929D01*
X2132950Y3536051D01*
X2124832Y3524610D01*
X2116085Y3513642D01*
X2106737Y3503181D01*
X2096818Y3493261D01*
X2086357Y3483914D01*
X2075389Y3475167D01*
X2063948Y3467049D01*
X2052070Y3459585D01*
X2039791Y3452799D01*
X2027152Y3446712D01*
X2014191Y3441344D01*
X2000949Y3436710D01*
X1987469Y3432827D01*
X1973792Y3429705D01*
X1959961Y3427355D01*
X1946021Y3425784D01*
X1932014Y3424998D01*
X1901508D01*
X1897337Y3424997D01*
X1889024Y3425692D01*
X1880798Y3427077D01*
X1872716Y3429141D01*
X1864834Y3431872D01*
X1857207Y3435249D01*
X1849887Y3439250D01*
X1842926Y3443847D01*
X1839649Y3446426D01*
X1834131Y3450648D01*
X1822754Y3458622D01*
X1810952Y3465952D01*
X1798762Y3472616D01*
X1786219Y3478592D01*
X1773365Y3483861D01*
X1760237Y3488409D01*
X1746877Y3492221D01*
X1733326Y3495284D01*
X1719625Y3497590D01*
X1705818Y3499131D01*
X1691947Y3499903D01*
X1685000Y3499999D01*
X1410000Y3499999D01*
X1410000Y3499999D01*
X1403053Y3499902D01*
X1389182Y3499131D01*
X1375375Y3497590D01*
X1361675Y3495284D01*
X1348124Y3492221D01*
X1334764Y3488410D01*
X1321636Y3483862D01*
X1308782Y3478592D01*
X1296240Y3472617D01*
X1284049Y3465953D01*
X1272247Y3458624D01*
X1260871Y3450649D01*
X1255353Y3446428D01*
X1252076Y3443848D01*
X1245115Y3439252D01*
X1237796Y3435251D01*
X1230168Y3431874D01*
X1222286Y3429144D01*
X1214204Y3427079D01*
X1205978Y3425694D01*
X1197665Y3425000D01*
X1149859D01*
X1149859Y3425000D01*
X1142842Y3424901D01*
X1128831Y3424114D01*
X1114887Y3422542D01*
X1101053Y3420189D01*
X1087372Y3417065D01*
X1073888Y3413177D01*
X1060644Y3408539D01*
X1047681Y3403166D01*
X1035040Y3397073D01*
X1022760Y3390281D01*
X1010881Y3382810D01*
X999440Y3374685D01*
X988473Y3365931D01*
X978014Y3356574D01*
X968097Y3346646D01*
X958752Y3336177D01*
X954304Y3330751D01*
X417333Y2656550D01*
X414709Y2653255D01*
X409100Y2646971D01*
X403147Y2641012D01*
X396870Y2635396D01*
X390287Y2630142D01*
X383419Y2625264D01*
X376289Y2620780D01*
X368918Y2616703D01*
X361331Y2613046D01*
X353550Y2609821D01*
X345600Y2607037D01*
X337507Y2604704D01*
X329295Y2602828D01*
X320991Y2601416D01*
X312621Y2600472D01*
X304211Y2600000D01*
X-170000D01*
Y2600000D01*
X-175609Y2599921D01*
X-186810Y2599292D01*
X-197958Y2598036D01*
X-209018Y2596157D01*
X-219955Y2593660D01*
X-230735Y2590555D01*
X-241324Y2586849D01*
X-251689Y2582556D01*
X-261796Y2577689D01*
X-271615Y2572262D01*
X-281114Y2566294D01*
X-290263Y2559802D01*
X-299034Y2552807D01*
X-307399Y2545332D01*
X-315332Y2537399D01*
X-322807Y2529034D01*
X-329802Y2520263D01*
X-336294Y2511114D01*
X-342262Y2501615D01*
X-347689Y2491796D01*
X-352557Y2481688D01*
X-356850Y2471324D01*
X-360555Y2460735D01*
X-363661Y2449955D01*
X-366157Y2439018D01*
X-368036Y2427958D01*
X-369292Y2416810D01*
X-369921Y2405609D01*
X-370000Y2400000D01*
X-370000Y2200000D01*
X-370001Y2200000D01*
Y2196087D01*
X-370532Y2188279D01*
X-371594Y2180526D01*
X-373180Y2172862D01*
X-375283Y2165325D01*
X-377894Y2157947D01*
X-381000Y2150764D01*
X-384587Y2143809D01*
X-388638Y2137114D01*
X-393136Y2130709D01*
X-398058Y2124625D01*
X-403382Y2118890D01*
X-406233Y2116210D01*
Y2116209D01*
X-410823Y2111783D01*
X-419658Y2102585D01*
X-428012Y2092949D01*
X-435863Y2082900D01*
X-443192Y2072463D01*
X-449980Y2061666D01*
X-456207Y2050537D01*
X-461859Y2039105D01*
X-466921Y2027399D01*
X-471380Y2015451D01*
X-475223Y2003290D01*
X-478441Y1990950D01*
X-481025Y1978462D01*
X-482970Y1965858D01*
X-484269Y1953171D01*
X-484919Y1940434D01*
X-485000Y1934058D01*
Y1640000D01*
X-485000D01*
X-484911Y1635485D01*
X-484203Y1626483D01*
X-482790Y1617564D01*
X-480682Y1608784D01*
X-477892Y1600196D01*
X-474436Y1591854D01*
X-470337Y1583809D01*
X-465619Y1576109D01*
X-460311Y1568804D01*
X-454447Y1561938D01*
X-448062Y1555553D01*
X-441196Y1549689D01*
X-433891Y1544381D01*
X-426191Y1539663D01*
X-418146Y1535564D01*
X-409804Y1532108D01*
X-401216Y1529318D01*
X-392436Y1527210D01*
X-383517Y1525797D01*
X-374515Y1525089D01*
X-370000Y1525000D01*
X-257501Y1525000D01*
X-257500Y1524999D01*
X-257500Y1524999D01*
X-257493D01*
X-248264Y1524628D01*
X-243973Y1524291D01*
X-235048Y1522877D01*
X-226261Y1520767D01*
X-217666Y1517975D01*
X-209318Y1514517D01*
X-201266Y1510414D01*
X-193561Y1505692D01*
X-186250Y1500381D01*
X-179378Y1494512D01*
X-172988Y1488122D01*
X-167120Y1481250D01*
X-161808Y1473939D01*
X-157086Y1466234D01*
X-152984Y1458183D01*
X-149525Y1449834D01*
X-146733Y1441239D01*
X-144623Y1432452D01*
X-143210Y1423527D01*
X-142501Y1414518D01*
X-142501Y1410000D01*
X-142500Y99998D01*
X-142501D01*
Y96314D01*
X-143223Y88980D01*
X-144661Y81753D01*
X-146800Y74701D01*
X-149620Y67893D01*
X-153093Y61394D01*
X-157187Y55267D01*
X-161862Y49571D01*
X-167073Y44360D01*
X-172769Y39685D01*
X-178897Y35591D01*
X-185395Y32117D01*
X-192203Y29297D01*
X-199255Y27158D01*
X-206482Y25721D01*
X-208843Y25488D01*
X-2107339D01*
X-2121734Y28351D01*
X-2135294Y33968D01*
X-2147499Y42123D01*
X-2157876Y52501D01*
X-2166031Y64705D01*
X-2171648Y78266D01*
X-2174512Y92661D01*
Y100000D01*
Y5994777D01*
X-2165321Y5999391D01*
X-2164512Y5999540D01*
X-2158604Y5995593D01*
X-2152105Y5992119D01*
X-2145297Y5989299D01*
X-2138245Y5987160D01*
X-2131018Y5985723D01*
X-2123685Y5985000D01*
X-2116316D01*
X-2108982Y5985723D01*
X-2101755Y5987160D01*
X-2094703Y5989299D01*
X-2087895Y5992119D01*
X-2081396Y5995593D01*
X-2075269Y5999687D01*
X-2069572Y6004362D01*
X-2064362Y6009572D01*
X-2059687Y6015269D01*
X-2055593Y6021396D01*
X-2053707Y6024925D01*
X-1817744D01*
X-1813946Y6020000D01*
X-1818640Y6010000D01*
X-1820000D01*
Y5850001D01*
X-1820000D01*
X-1820000Y5847500D01*
X-1820000D01*
Y5732500D01*
X-1700000D01*
Y5055066D01*
X-1702732Y5052732D01*
X-1705288Y5049740D01*
X-1707344Y5046385D01*
X-1708850Y5042749D01*
X-1709768Y5038923D01*
X-1710077Y5035000D01*
Y3550000D01*
X-1710000Y3549019D01*
Y3525000D01*
X-1685981D01*
X-1685000Y3524923D01*
X-1325000D01*
Y3234604D01*
X-1324910Y3227586D01*
X-1324194Y3213568D01*
X-1322764Y3199605D01*
X-1320623Y3185733D01*
X-1317777Y3171989D01*
X-1314233Y3158407D01*
X-1310001Y3145024D01*
X-1305091Y3131875D01*
X-1304837Y3131287D01*
X-1304836Y3131285D01*
X-1299518Y3118992D01*
X-1293294Y3106412D01*
X-1286436Y3094165D01*
X-1278962Y3082284D01*
X-1275000Y3076490D01*
Y3076490D01*
X-1271771Y3071895D01*
X-1265790Y3062387D01*
X-1260302Y3052586D01*
X-1255321Y3042519D01*
X-1250861Y3032210D01*
X-1246932Y3021687D01*
X-1243545Y3010977D01*
X-1240709Y3000108D01*
X-1238432Y2989109D01*
X-1236718Y2978008D01*
X-1235574Y2966834D01*
X-1235000Y2955615D01*
X-1235001Y2949999D01*
X-1235000Y2800981D01*
X-1235077Y2800000D01*
Y2400000D01*
X-1234768Y2396077D01*
X-1233850Y2392251D01*
X-1232344Y2388615D01*
X-1230288Y2385260D01*
X-1227732Y2382268D01*
X-1224740Y2379712D01*
X-1221385Y2377656D01*
X-1217749Y2376150D01*
X-1213923Y2375232D01*
X-1210000Y2374923D01*
X-925000D01*
X-921077Y2375232D01*
X-917251Y2376150D01*
X-913615Y2377656D01*
X-910260Y2379712D01*
X-907268Y2382268D01*
X-904712Y2385260D01*
X-902656Y2388615D01*
X-901150Y2392251D01*
X-900232Y2396077D01*
X-899923Y2400000D01*
Y2700000D01*
X-776105D01*
X-774926Y2698123D01*
X-771074Y2693294D01*
X-766706Y2688926D01*
X-763043Y2686004D01*
X-762064Y2680000D01*
X-763043Y2673997D01*
X-766706Y2671075D01*
X-771074Y2666707D01*
X-774926Y2661878D01*
X-778212Y2656647D01*
X-780893Y2651081D01*
X-782933Y2645250D01*
X-784308Y2639228D01*
X-784999Y2633089D01*
Y2626912D01*
X-784308Y2620773D01*
X-782933Y2614751D01*
X-780893Y2608920D01*
X-778212Y2603354D01*
X-774926Y2598124D01*
X-771074Y2593294D01*
X-766706Y2588926D01*
X-761876Y2585074D01*
X-756646Y2581788D01*
X-751080Y2579107D01*
X-745249Y2577067D01*
X-739227Y2575692D01*
X-733088Y2575001D01*
X-726911D01*
X-720772Y2575692D01*
X-714749Y2577067D01*
X-708919Y2579107D01*
X-703353Y2581788D01*
X-698122Y2585074D01*
X-693292Y2588926D01*
X-688924Y2593294D01*
X-686003Y2596957D01*
X-679999Y2597936D01*
X-673996Y2596957D01*
X-671074Y2593294D01*
X-666706Y2588926D01*
X-661877Y2585074D01*
X-656646Y2581788D01*
X-651080Y2579107D01*
X-645249Y2577067D01*
X-639227Y2575692D01*
X-633088Y2575001D01*
X-626911D01*
X-620772Y2575692D01*
X-614750Y2577067D01*
X-608919Y2579107D01*
X-603353Y2581788D01*
X-598123Y2585074D01*
X-593293Y2588926D01*
X-588925Y2593294D01*
X-586003Y2596957D01*
X-580000Y2597936D01*
X-573996Y2596957D01*
X-571075Y2593294D01*
X-566707Y2588926D01*
X-561877Y2585074D01*
X-556646Y2581788D01*
X-551080Y2579107D01*
X-545250Y2577067D01*
X-539227Y2575692D01*
X-533088Y2575001D01*
X-526911D01*
X-520772Y2575692D01*
X-514750Y2577067D01*
X-508919Y2579107D01*
X-503353Y2581788D01*
X-498123Y2585074D01*
X-493293Y2588926D01*
X-488925Y2593294D01*
X-486004Y2596957D01*
X-480000Y2597936D01*
X-473996Y2596957D01*
X-471075Y2593294D01*
X-466707Y2588926D01*
X-461877Y2585074D01*
X-456646Y2581788D01*
X-451081Y2579107D01*
X-445250Y2577067D01*
X-439227Y2575692D01*
X-433089Y2575001D01*
X-426911D01*
X-420773Y2575692D01*
X-414750Y2577067D01*
X-408919Y2579107D01*
X-403354Y2581788D01*
X-398123Y2585074D01*
X-393293Y2588926D01*
X-388925Y2593294D01*
X-385073Y2598124D01*
X-381787Y2603354D01*
X-379107Y2608920D01*
X-377066Y2614751D01*
X-375692Y2620773D01*
X-375000Y2626912D01*
Y2633089D01*
X-375692Y2639228D01*
X-377066Y2645250D01*
X-379107Y2651081D01*
X-381787Y2656647D01*
X-385073Y2661878D01*
X-388925Y2666707D01*
X-393293Y2671075D01*
X-396956Y2673997D01*
X-397935Y2680000D01*
X-396956Y2686004D01*
X-393293Y2688926D01*
X-388925Y2693294D01*
X-385073Y2698123D01*
X-383894Y2700000D01*
X-373362D01*
X299999D01*
X300000Y2699999D01*
X300370Y2700009D01*
X300917Y2700025D01*
X301747Y2700048D01*
X301751Y2700048D01*
X302805Y2700078D01*
X303839Y2700195D01*
X303856Y2700196D01*
X306969Y2700547D01*
X306983Y2700549D01*
X306984Y2700549D01*
X308364Y2700705D01*
X308381Y2700706D01*
X309276Y2700911D01*
X313851Y2701956D01*
X319147Y2703810D01*
Y2703811D01*
X324201Y2706247D01*
X328951Y2709234D01*
X328951Y2709234D01*
X328951Y2709234D01*
X333336Y2712734D01*
X336556Y2715957D01*
X336557Y2715958D01*
X337302Y2716704D01*
X339111Y2718849D01*
X706410Y3180017D01*
X747189Y3231217D01*
X876081Y3393049D01*
X876082Y3393051D01*
X882146Y3400537D01*
X891316Y3411045D01*
X902173Y3422414D01*
X913532Y3433285D01*
X925366Y3443635D01*
X937653Y3453443D01*
X950368Y3462689D01*
X963485Y3471356D01*
X976976Y3479423D01*
X976978Y3479424D01*
X990820Y3486879D01*
X1004982Y3493704D01*
X1019437Y3499888D01*
X1034155Y3505415D01*
X1049106Y3510277D01*
X1064260Y3514462D01*
X1079586Y3517963D01*
X1095055Y3520772D01*
X1110634Y3522883D01*
X1110634Y3522883D01*
X1110635Y3522884D01*
X1126292Y3524294D01*
X1141998Y3525000D01*
X1149859Y3525000D01*
X1721925Y3524999D01*
X1924999D01*
X1924999Y3524999D01*
X1929291Y3525068D01*
X1929295Y3525069D01*
X1929907Y3525079D01*
X1930468Y3525116D01*
X1930506Y3525119D01*
X1930524Y3525119D01*
X1939702Y3525721D01*
X1949434Y3527002D01*
X1949435Y3527003D01*
X1959061Y3528918D01*
X1959061D01*
X1959062Y3528918D01*
X1968542Y3531458D01*
X1977837Y3534613D01*
X1986906Y3538370D01*
X1986906Y3538369D01*
X1986906Y3538370D01*
X1995709Y3542711D01*
X2004210Y3547619D01*
X2012371Y3553072D01*
X2020159Y3559047D01*
X2027538Y3565520D01*
X2034479Y3572460D01*
X2040951Y3579840D01*
X2046427Y3586977D01*
X2046428Y3586979D01*
X2046926Y3587628D01*
X2047381Y3588308D01*
X2047383Y3588311D01*
X2052380Y3595789D01*
X2057287Y3604290D01*
X2061629Y3613093D01*
X2061629Y3613093D01*
X2065385Y3622162D01*
X2068540Y3631456D01*
X2070869Y3640145D01*
X2070869Y3640146D01*
X2071081Y3640938D01*
X2072996Y3650565D01*
X2074277Y3660296D01*
X2074919Y3670091D01*
X2074999Y3674999D01*
X2074999Y6000000D01*
X2107500D01*
Y6130000D01*
X2075000D01*
Y6808333D01*
Y7330000D01*
X2107500D01*
Y7440000D01*
Y7570000D01*
X2083567D01*
X2082405Y7573423D01*
X2080376Y7577538D01*
X2077827Y7581353D01*
X2075000Y7584576D01*
X2075000Y7608894D01*
X2075169Y7609000D01*
X2100000D01*
Y7674000D01*
Y7739000D01*
Y7831000D01*
X2075000D01*
Y7990000D01*
X2107500D01*
Y8120000D01*
X2085075D01*
Y8160000D01*
X2115000D01*
Y8290000D01*
X2075000D01*
Y8310000D01*
X2115000D01*
Y8440000D01*
X1985000D01*
Y8408567D01*
X1981577Y8407405D01*
X1977462Y8405376D01*
X1973648Y8402827D01*
X1970198Y8399802D01*
X1956607Y8386211D01*
X1955524Y8385611D01*
X1950680Y8384802D01*
X1949320D01*
X1944476Y8385611D01*
X1943393Y8386211D01*
X1929802Y8399802D01*
X1926353Y8402827D01*
X1922537Y8405376D01*
X1918423Y8407405D01*
X1915000Y8408567D01*
Y8440000D01*
X1785000D01*
Y8375001D01*
X1005276D01*
X1004671Y8375738D01*
X999738Y8380671D01*
X994345Y8385096D01*
X988545Y8388972D01*
X982393Y8392260D01*
X975948Y8394930D01*
X969272Y8396955D01*
X962430Y8398316D01*
X955488Y8399000D01*
X948512D01*
X941569Y8398316D01*
X934728Y8396955D01*
X928052Y8394930D01*
X921607Y8392260D01*
X915455Y8388972D01*
X909654Y8385096D01*
X904262Y8380671D01*
X899329Y8375738D01*
X898724Y8375001D01*
X691589D01*
X-1570808Y8375001D01*
X-1646999D01*
Y8349924D01*
Y6807000D01*
X-2174512D01*
Y8400000D01*
Y8407339D01*
X-2171648Y8421734D01*
X-2166031Y8435294D01*
X-2157876Y8447499D01*
X-2147499Y8457877D01*
X-2135295Y8466031D01*
X-2121734Y8471648D01*
X-2107339Y8474512D01*
X-2100001Y8474511D01*
X2099999Y8474512D01*
X2107338Y8474512D01*
D02*
G37*
G36*
X-1405183Y6724371D02*
X-1394031Y6723114D01*
X-1382966Y6721234D01*
X-1372025Y6718737D01*
X-1361241Y6715630D01*
X-1350647Y6711923D01*
X-1340279Y6707628D01*
X-1330167Y6702759D01*
X-1320345Y6697330D01*
X-1310842Y6691359D01*
X-1301689Y6684865D01*
X-1292915Y6677868D01*
X-1284546Y6670389D01*
X-1276611Y6662453D01*
X-1269132Y6654085D01*
X-1262135Y6645311D01*
X-1255640Y6636158D01*
X-1249669Y6626655D01*
X-1244241Y6616832D01*
X-1239371Y6606721D01*
X-1235077Y6596352D01*
X-1231370Y6585759D01*
X-1228263Y6574975D01*
X-1225765Y6564033D01*
X-1223886Y6552969D01*
X-1222629Y6541816D01*
X-1222000Y6530611D01*
Y6525000D01*
Y6387500D01*
X-1466000D01*
Y6445000D01*
X-1466080Y6449908D01*
X-1466722Y6459702D01*
X-1468003Y6469434D01*
X-1469918Y6479061D01*
X-1472459Y6488542D01*
X-1475614Y6497837D01*
X-1479370Y6506906D01*
X-1483712Y6515709D01*
X-1488619Y6524210D01*
X-1494073Y6532371D01*
X-1500048Y6540159D01*
X-1506520Y6547539D01*
X-1513461Y6554479D01*
X-1520841Y6560951D01*
X-1528628Y6566927D01*
X-1536790Y6572380D01*
X-1545290Y6577288D01*
X-1554094Y6581629D01*
X-1563162Y6585386D01*
X-1572457Y6588541D01*
X-1581938Y6591081D01*
X-1591565Y6592996D01*
X-1601297Y6594277D01*
X-1611092Y6594919D01*
X-1616000Y6595000D01*
X-2110000D01*
Y6725000D01*
X-1416388D01*
X-1405183Y6724371D01*
D02*
G37*
G36*
X-1690000Y6295000D02*
X-1830000D01*
Y6135000D01*
X-1890000D01*
Y6425000D01*
X-1690000D01*
Y6295000D01*
D02*
G37*
G36*
X-1925000Y6135000D02*
X-1985000D01*
Y6295000D01*
X-2110000D01*
Y6425000D01*
X-1925000D01*
Y6135000D01*
D02*
G37*
G36*
X-1555000Y6085000D02*
X-1415000D01*
Y6175000D01*
X-1110000D01*
Y6000000D01*
X-1685000D01*
X-1795000Y6110000D01*
Y6245000D01*
X-1555000D01*
Y6085000D01*
D02*
G37*
G36*
X875041Y8349923D02*
X881981Y8339923D01*
X881684Y8338430D01*
X881000Y8331488D01*
Y8324512D01*
X881684Y8317569D01*
X883045Y8310728D01*
X885070Y8304052D01*
X887739Y8297607D01*
X891028Y8291455D01*
X894903Y8285654D01*
X899329Y8280262D01*
X904262Y8275329D01*
X909654Y8270903D01*
X915455Y8267028D01*
X921607Y8263739D01*
X928052Y8261070D01*
X934728Y8259045D01*
X939328Y8258130D01*
X943978Y8251836D01*
X944915Y8249563D01*
X945112Y8247286D01*
X942025Y8239834D01*
X939233Y8231240D01*
X937123Y8222452D01*
X935709Y8213527D01*
X935000Y8204518D01*
Y8195481D01*
X935709Y8186473D01*
X937123Y8177547D01*
X939233Y8168760D01*
X942025Y8160166D01*
X945483Y8151817D01*
X949586Y8143765D01*
X954307Y8136060D01*
X959619Y8128749D01*
X965488Y8121878D01*
X971878Y8115488D01*
X978749Y8109619D01*
X986060Y8104307D01*
X993765Y8099586D01*
X1001817Y8095483D01*
X1010166Y8092025D01*
X1018760Y8089232D01*
X1027547Y8087123D01*
X1036473Y8085709D01*
X1045482Y8085000D01*
X1054518D01*
X1063527Y8085709D01*
X1072453Y8087123D01*
X1081240Y8089232D01*
X1089834Y8092025D01*
X1098183Y8095483D01*
X1106235Y8099586D01*
X1113940Y8104307D01*
X1121250Y8109619D01*
X1128122Y8115488D01*
X1134512Y8121878D01*
X1140381Y8128749D01*
X1145692Y8136060D01*
X1150414Y8143765D01*
X1154517Y8151817D01*
X1157975Y8160166D01*
X1160767Y8168760D01*
X1162877Y8177547D01*
X1164291Y8186473D01*
X1165000Y8195481D01*
Y8204518D01*
X1164291Y8213527D01*
X1162877Y8222452D01*
X1160767Y8231240D01*
X1157975Y8239834D01*
X1154517Y8248183D01*
X1150414Y8256234D01*
X1145692Y8263940D01*
X1140381Y8271250D01*
X1134512Y8278122D01*
X1128122Y8284512D01*
X1121250Y8290381D01*
X1113940Y8295692D01*
X1106235Y8300414D01*
X1098183Y8304517D01*
X1089834Y8307975D01*
X1081240Y8310767D01*
X1072453Y8312877D01*
X1063527Y8314290D01*
X1054518Y8315000D01*
X1045482D01*
X1036473Y8314290D01*
X1031710Y8313536D01*
X1029155Y8314633D01*
X1024222Y8319212D01*
X1022753Y8322010D01*
X1023000Y8324512D01*
Y8331488D01*
X1022316Y8338430D01*
X1022019Y8339923D01*
X1028959Y8349923D01*
X1785000D01*
Y8310000D01*
X1884925D01*
Y8290000D01*
X1785000D01*
Y8160000D01*
X1814925D01*
Y8120000D01*
X1792500D01*
Y7990000D01*
Y7880000D01*
X1884925D01*
Y7831000D01*
X1800000D01*
Y7820075D01*
X1745000D01*
X1740422Y7819775D01*
X1735922Y7818880D01*
X1731577Y7817405D01*
X1727462Y7815376D01*
X1723647Y7812827D01*
X1720198Y7809802D01*
X1675198Y7764802D01*
X1672173Y7761352D01*
X1669624Y7757537D01*
X1667595Y7753422D01*
X1666120Y7749078D01*
X1665225Y7744578D01*
X1664925Y7740000D01*
Y7540000D01*
X1665225Y7535422D01*
X1666120Y7530922D01*
X1667595Y7526577D01*
X1669624Y7522462D01*
X1672173Y7518647D01*
X1675198Y7515198D01*
X1710198Y7480198D01*
X1713647Y7477173D01*
X1717462Y7474624D01*
X1721577Y7472595D01*
X1725922Y7471120D01*
X1730421Y7470225D01*
X1735000Y7469925D01*
X1792500D01*
Y7349503D01*
X1790773Y7349308D01*
X1784750Y7347933D01*
X1778919Y7345893D01*
X1773354Y7343213D01*
X1768123Y7339926D01*
X1763293Y7336075D01*
X1758925Y7331707D01*
X1755073Y7326877D01*
X1751787Y7321646D01*
X1749107Y7316081D01*
X1747066Y7310250D01*
X1745692Y7304227D01*
X1745000Y7298089D01*
Y7291911D01*
X1745692Y7285773D01*
X1747066Y7279750D01*
X1748729Y7275000D01*
X1747373Y7271647D01*
X1742303Y7265000D01*
X1696500D01*
Y7137075D01*
X1684500D01*
Y7265000D01*
X1569500D01*
Y6978777D01*
X1559705Y6971345D01*
X1557500Y6972029D01*
Y7265000D01*
X1442500D01*
Y6962411D01*
X1440483Y6961743D01*
X1430500Y6968970D01*
Y7265000D01*
X1357697D01*
X1352626Y7271648D01*
X1351271Y7275000D01*
X1352934Y7279750D01*
X1354308Y7285773D01*
X1355000Y7291912D01*
Y7298089D01*
X1354308Y7304227D01*
X1352934Y7310250D01*
X1350893Y7316081D01*
X1348213Y7321647D01*
X1344926Y7326877D01*
X1341075Y7331707D01*
X1336707Y7336075D01*
X1331877Y7339927D01*
X1326646Y7343213D01*
X1321081Y7345893D01*
X1315250Y7347934D01*
X1309227Y7349308D01*
X1303089Y7350000D01*
X1296911D01*
X1290773Y7349308D01*
X1284750Y7347934D01*
X1278919Y7345893D01*
X1273354Y7343213D01*
X1268123Y7339927D01*
X1263293Y7336075D01*
X1258925Y7331707D01*
X1256004Y7328044D01*
X1250000Y7327064D01*
X1243996Y7328044D01*
X1241075Y7331707D01*
X1236707Y7336075D01*
X1231877Y7339926D01*
X1226646Y7343213D01*
X1221081Y7345893D01*
X1215250Y7347933D01*
X1209227Y7349308D01*
X1203089Y7350000D01*
X1196911D01*
X1190773Y7349308D01*
X1184750Y7347933D01*
X1178919Y7345893D01*
X1173354Y7343213D01*
X1168123Y7339926D01*
X1163293Y7336075D01*
X1158925Y7331707D01*
X1155073Y7326877D01*
X1151787Y7321646D01*
X1149107Y7316081D01*
X1147066Y7310250D01*
X1145692Y7304227D01*
X1145000Y7298089D01*
Y7291911D01*
X1145692Y7285773D01*
X1147066Y7279750D01*
X1149107Y7273919D01*
X1151787Y7268354D01*
X1155073Y7263123D01*
X1158925Y7258293D01*
X1163293Y7253925D01*
X1168123Y7250073D01*
X1173354Y7246787D01*
X1178919Y7244107D01*
X1184750Y7242066D01*
X1188500Y7241210D01*
Y6939000D01*
X1210925D01*
Y6861000D01*
X1188500D01*
Y6535000D01*
X1303500D01*
X1303500Y6535000D01*
Y6534999D01*
X1303500Y6535000D01*
X1312500Y6532586D01*
Y6410000D01*
Y6301096D01*
X1058579D01*
X1053714Y6300713D01*
X1048970Y6299574D01*
X1044462Y6297706D01*
X1040301Y6295157D01*
X1036591Y6291988D01*
X948012Y6203409D01*
X944843Y6199699D01*
X942294Y6195538D01*
X940426Y6191031D01*
X939287Y6186286D01*
X938904Y6181421D01*
Y6130000D01*
X642500D01*
Y6000000D01*
Y5890000D01*
X938904D01*
Y5862751D01*
X938404Y5861848D01*
X930195Y5854763D01*
X928089Y5855000D01*
X921912D01*
X915773Y5854308D01*
X909751Y5852934D01*
X903920Y5850893D01*
X898354Y5848213D01*
X893123Y5844927D01*
X888294Y5841075D01*
X883926Y5836707D01*
X880074Y5831877D01*
X876787Y5826646D01*
X874107Y5821081D01*
X872067Y5815250D01*
X870692Y5809227D01*
X870001Y5803089D01*
Y5796911D01*
X870692Y5790773D01*
X872067Y5784750D01*
X874107Y5778919D01*
X876787Y5773354D01*
X880074Y5768123D01*
X883926Y5763293D01*
X888294Y5758925D01*
X893123Y5755074D01*
X898354Y5751787D01*
X903920Y5749107D01*
X909751Y5747066D01*
X915773Y5745692D01*
X921912Y5745000D01*
X928089D01*
X934228Y5745692D01*
X940250Y5747066D01*
X946081Y5749107D01*
X951647Y5751787D01*
X956877Y5755074D01*
X961707Y5758925D01*
X966075Y5763293D01*
X968997Y5766956D01*
X975000Y5767936D01*
X981004Y5766956D01*
X983925Y5763293D01*
X988293Y5758925D01*
X993123Y5755074D01*
X998354Y5751787D01*
X1003920Y5749107D01*
X1009750Y5747066D01*
X1015773Y5745692D01*
X1021912Y5745000D01*
X1028089D01*
X1034228Y5745692D01*
X1040250Y5747066D01*
X1046081Y5749107D01*
X1051647Y5751787D01*
X1056877Y5755074D01*
X1061707Y5758925D01*
X1066075Y5763293D01*
X1068997Y5766956D01*
X1075000Y5767936D01*
X1081004Y5766956D01*
X1083925Y5763293D01*
X1088293Y5758925D01*
X1093123Y5755074D01*
X1098354Y5751787D01*
X1103920Y5749107D01*
X1109750Y5747066D01*
X1115773Y5745692D01*
X1121912Y5745000D01*
X1128089D01*
X1134228Y5745692D01*
X1140250Y5747066D01*
X1146081Y5749107D01*
X1151647Y5751787D01*
X1156877Y5755074D01*
X1161707Y5758925D01*
X1166075Y5763293D01*
X1169927Y5768123D01*
X1173213Y5773354D01*
X1175894Y5778919D01*
X1177934Y5784750D01*
X1179309Y5790773D01*
X1180000Y5796911D01*
Y5803089D01*
X1179309Y5809227D01*
X1177934Y5815250D01*
X1175894Y5821081D01*
X1173213Y5826646D01*
X1169927Y5831877D01*
X1166075Y5836707D01*
X1161707Y5841075D01*
X1156877Y5844927D01*
X1151647Y5848213D01*
X1146081Y5850893D01*
X1140250Y5852934D01*
X1134228Y5854308D01*
X1128089Y5855000D01*
X1121912D01*
X1119804Y5854762D01*
X1111596Y5861847D01*
X1111096Y5862751D01*
Y5890000D01*
X1407500D01*
Y6000000D01*
Y6129999D01*
X1407500D01*
X1410144Y6138904D01*
X1540000D01*
X1544865Y6139287D01*
X1549610Y6140426D01*
X1554117Y6142294D01*
X1558278Y6144843D01*
X1561988Y6148012D01*
X1651988Y6238012D01*
X1655157Y6241722D01*
X1657707Y6245883D01*
X1659574Y6250391D01*
X1660713Y6255136D01*
X1661096Y6260000D01*
Y6300000D01*
X1687500D01*
Y6410000D01*
Y6530000D01*
X1687500Y6532585D01*
X1696500Y6534999D01*
X1697341Y6534999D01*
X1702014Y6535000D01*
X1702743Y6535000D01*
X1811500D01*
Y6861000D01*
X1696500D01*
Y6552864D01*
X1686500Y6547851D01*
X1684500Y6549344D01*
Y6861000D01*
X1605424D01*
X1601336Y6870205D01*
X1601240Y6871000D01*
X1604926Y6875623D01*
X1608213Y6880854D01*
X1610893Y6886419D01*
X1612934Y6892250D01*
X1614308Y6898273D01*
X1615000Y6904411D01*
Y6910589D01*
X1614308Y6916727D01*
X1612934Y6922750D01*
X1610893Y6928581D01*
X1610691Y6929000D01*
X1616646Y6939000D01*
X1684500D01*
Y7066925D01*
X1696500D01*
Y6939000D01*
X1811500D01*
Y7241210D01*
X1815250Y7242066D01*
X1821081Y7244107D01*
X1826646Y7246787D01*
X1831877Y7250073D01*
X1836707Y7253925D01*
X1841075Y7258293D01*
X1843996Y7261957D01*
X1850000Y7262936D01*
X1856004Y7261957D01*
X1858925Y7258293D01*
X1863293Y7253925D01*
X1868123Y7250074D01*
X1873354Y7246787D01*
X1878919Y7244107D01*
X1884750Y7242067D01*
X1890773Y7240692D01*
X1896911Y7240000D01*
X1903089D01*
X1909227Y7240692D01*
X1915250Y7242067D01*
X1921081Y7244107D01*
X1926646Y7246787D01*
X1931877Y7250074D01*
X1936707Y7253925D01*
X1941075Y7258293D01*
X1944927Y7263123D01*
X1948213Y7268354D01*
X1950893Y7273919D01*
X1952934Y7279750D01*
X1954308Y7285773D01*
X1955000Y7291912D01*
Y7298089D01*
X1954308Y7304227D01*
X1952934Y7310250D01*
X1950893Y7316081D01*
X1948213Y7321647D01*
X1944927Y7326877D01*
X1941075Y7331707D01*
X1936707Y7336075D01*
X1931877Y7339927D01*
X1926646Y7343213D01*
X1921081Y7345893D01*
X1915250Y7347934D01*
X1909227Y7349308D01*
X1907500Y7349503D01*
Y7440000D01*
Y7554925D01*
X1992500D01*
Y7440000D01*
Y7330000D01*
X2049922D01*
Y6961849D01*
X2043588Y6952500D01*
X2037411D01*
X2031273Y6951808D01*
X2025250Y6950433D01*
X2019419Y6948393D01*
X2013854Y6945713D01*
X2008623Y6942426D01*
X2003793Y6938575D01*
X1999425Y6934207D01*
X1995574Y6929377D01*
X1992287Y6924146D01*
X1989607Y6918581D01*
X1987567Y6912750D01*
X1986192Y6906727D01*
X1985500Y6900588D01*
Y6894411D01*
X1986192Y6888272D01*
X1987567Y6882250D01*
X1989607Y6876419D01*
X1992287Y6870853D01*
X1995574Y6865623D01*
X1999425Y6860793D01*
X2003793Y6856425D01*
X2008623Y6852573D01*
X2013854Y6849287D01*
X2019419Y6846607D01*
X2025250Y6844566D01*
X2031273Y6843192D01*
X2037411Y6842500D01*
X2043588D01*
X2049922Y6833150D01*
Y6130000D01*
X1792500D01*
Y6000000D01*
Y5890000D01*
X2049922D01*
X2049922Y3858925D01*
Y3675207D01*
X2049855Y3671117D01*
X2049307Y3662753D01*
X2048241Y3654654D01*
X2046646Y3646635D01*
X2044530Y3638738D01*
X2041903Y3631000D01*
X2038775Y3623448D01*
X2035160Y3616119D01*
X2031071Y3609036D01*
X2026532Y3602243D01*
X2021555Y3595756D01*
X2016166Y3589612D01*
X2010386Y3583832D01*
X2004241Y3578443D01*
X1997755Y3573466D01*
X1990960Y3568926D01*
X1983881Y3564839D01*
X1976549Y3561223D01*
X1969000Y3558096D01*
X1961259Y3555469D01*
X1953364Y3553353D01*
X1945343Y3551757D01*
X1937246Y3550691D01*
X1932660Y3550391D01*
X1932658Y3550391D01*
X1928881Y3550143D01*
X1928151Y3550131D01*
X1923381Y3556948D01*
X1922725Y3560076D01*
X1923213Y3560854D01*
X1925893Y3566419D01*
X1927933Y3572250D01*
X1929308Y3578273D01*
X1930000Y3584411D01*
Y3590589D01*
X1929308Y3596727D01*
X1927933Y3602750D01*
X1925893Y3608581D01*
X1923213Y3614146D01*
X1919926Y3619377D01*
X1916075Y3624207D01*
X1911707Y3628575D01*
X1908043Y3631496D01*
X1907064Y3637500D01*
X1908043Y3643504D01*
X1911707Y3646425D01*
X1916075Y3650793D01*
X1919926Y3655623D01*
X1923213Y3660853D01*
X1925893Y3666419D01*
X1927933Y3672250D01*
X1929308Y3678273D01*
X1930000Y3684411D01*
Y3690589D01*
X1929308Y3696727D01*
X1927933Y3702750D01*
X1925893Y3708581D01*
X1923213Y3714146D01*
X1919926Y3719377D01*
X1916075Y3724207D01*
X1911707Y3728575D01*
X1906877Y3732426D01*
X1901646Y3735713D01*
X1896081Y3738393D01*
X1890250Y3740433D01*
X1884227Y3741808D01*
X1878088Y3742500D01*
X1871911D01*
X1865772Y3741808D01*
X1859750Y3740433D01*
X1853919Y3738393D01*
X1848353Y3735713D01*
X1843123Y3732426D01*
X1838293Y3728575D01*
X1833925Y3724207D01*
X1831004Y3720543D01*
X1825000Y3719564D01*
X1818996Y3720543D01*
X1816075Y3724207D01*
X1811707Y3728575D01*
X1806877Y3732426D01*
X1801646Y3735713D01*
X1796081Y3738393D01*
X1790250Y3740433D01*
X1784227Y3741808D01*
X1778089Y3742500D01*
X1771911D01*
X1765773Y3741808D01*
X1759750Y3740433D01*
X1753919Y3738393D01*
X1748354Y3735713D01*
X1743123Y3732426D01*
X1738293Y3728575D01*
X1733925Y3724207D01*
X1730074Y3719377D01*
X1726787Y3714146D01*
X1724107Y3708581D01*
X1722066Y3702750D01*
X1720692Y3696727D01*
X1720000Y3690589D01*
Y3684411D01*
X1720692Y3678273D01*
X1722066Y3672250D01*
X1724107Y3666419D01*
X1726787Y3660853D01*
X1730074Y3655623D01*
X1733925Y3650793D01*
X1738293Y3646425D01*
X1741956Y3643504D01*
X1742936Y3637500D01*
X1741956Y3631496D01*
X1738293Y3628575D01*
X1733925Y3624207D01*
X1730074Y3619377D01*
X1726787Y3614146D01*
X1724107Y3608581D01*
X1722066Y3602750D01*
X1720692Y3596727D01*
X1720000Y3590589D01*
Y3584411D01*
X1720692Y3578273D01*
X1722066Y3572250D01*
X1724107Y3566419D01*
X1726787Y3560854D01*
X1727275Y3560077D01*
X1721925Y3550076D01*
X1149859Y3550077D01*
X1141998Y3550077D01*
X1141435Y3550033D01*
X1140872Y3550052D01*
X1125166Y3549346D01*
X1124607Y3549276D01*
X1124043Y3549270D01*
X1108385Y3547860D01*
X1107828Y3547765D01*
X1107266Y3547734D01*
X1091686Y3545622D01*
X1091135Y3545502D01*
X1090574Y3545446D01*
X1075105Y3542636D01*
X1074559Y3542492D01*
X1074002Y3542410D01*
X1058676Y3538910D01*
X1058138Y3538741D01*
X1057584Y3538634D01*
X1042429Y3534449D01*
X1041899Y3534256D01*
X1041351Y3534125D01*
X1026400Y3529263D01*
X1025880Y3529048D01*
X1025337Y3528891D01*
X1010620Y3523364D01*
X1010108Y3523124D01*
X1009574Y3522944D01*
X995120Y3516761D01*
X994620Y3516499D01*
X994095Y3516295D01*
X979932Y3509469D01*
X979446Y3509186D01*
X978929Y3508958D01*
X965087Y3501503D01*
X964614Y3501198D01*
X964108Y3500947D01*
X950615Y3492878D01*
X950155Y3492551D01*
X949662Y3492279D01*
X936544Y3483613D01*
X936100Y3483266D01*
X935619Y3482971D01*
X922904Y3473724D01*
X922475Y3473358D01*
X922008Y3473042D01*
X909721Y3463234D01*
X909311Y3462849D01*
X908857Y3462512D01*
X897023Y3452162D01*
X896629Y3451759D01*
X896192Y3451402D01*
X884835Y3440531D01*
X884459Y3440111D01*
X884039Y3439735D01*
X873180Y3428365D01*
X872824Y3427928D01*
X872421Y3427533D01*
X863253Y3417027D01*
X862978Y3416657D01*
X862661Y3416323D01*
X856596Y3408836D01*
X856538Y3408751D01*
X856466Y3408674D01*
X319714Y2734747D01*
X318814Y2733680D01*
X316590Y2731453D01*
X314408Y2729712D01*
X312045Y2728226D01*
X309529Y2727013D01*
X306892Y2726090D01*
X304172Y2725468D01*
X301045Y2725115D01*
X299667Y2725077D01*
X-373360D01*
X-375000Y2726912D01*
Y2733089D01*
X-375692Y2739228D01*
X-377066Y2745250D01*
X-379107Y2751081D01*
X-381787Y2756647D01*
X-385073Y2761877D01*
X-388925Y2766707D01*
X-393293Y2771075D01*
X-396956Y2773996D01*
X-397935Y2780000D01*
X-396956Y2786004D01*
X-393293Y2788925D01*
X-388925Y2793293D01*
X-385073Y2798123D01*
X-381787Y2803354D01*
X-379107Y2808919D01*
X-377066Y2814750D01*
X-375692Y2820773D01*
X-375000Y2826912D01*
Y2833089D01*
X-375692Y2839227D01*
X-377066Y2845250D01*
X-379107Y2851081D01*
X-381787Y2856647D01*
X-385073Y2861877D01*
X-388925Y2866707D01*
X-393293Y2871075D01*
X-396956Y2873996D01*
X-397935Y2880000D01*
X-396956Y2886004D01*
X-393293Y2888925D01*
X-388925Y2893293D01*
X-385073Y2898123D01*
X-381787Y2903354D01*
X-379107Y2908919D01*
X-377066Y2914750D01*
X-375692Y2920773D01*
X-375000Y2926911D01*
Y2933089D01*
X-375692Y2939227D01*
X-377066Y2945250D01*
X-379107Y2951081D01*
X-381787Y2956646D01*
X-385073Y2961877D01*
X-388925Y2966707D01*
X-393293Y2971075D01*
X-398123Y2974926D01*
X-403354Y2978213D01*
X-408919Y2980893D01*
X-414750Y2982934D01*
X-420773Y2984308D01*
X-426911Y2985000D01*
X-433089D01*
X-439227Y2984308D01*
X-445250Y2982934D01*
X-451081Y2980893D01*
X-456646Y2978213D01*
X-461877Y2974926D01*
X-466707Y2971075D01*
X-471075Y2966707D01*
X-473996Y2963044D01*
X-480000Y2962064D01*
X-486004Y2963044D01*
X-488925Y2966707D01*
X-493293Y2971075D01*
X-498123Y2974926D01*
X-503353Y2978213D01*
X-508919Y2980893D01*
X-514750Y2982934D01*
X-520772Y2984308D01*
X-526911Y2985000D01*
X-533088D01*
X-539227Y2984308D01*
X-545250Y2982934D01*
X-551080Y2980893D01*
X-556646Y2978213D01*
X-561877Y2974926D01*
X-566707Y2971075D01*
X-571075Y2966707D01*
X-573996Y2963044D01*
X-580000Y2962064D01*
X-586003Y2963044D01*
X-588925Y2966707D01*
X-593293Y2971075D01*
X-598123Y2974926D01*
X-603353Y2978213D01*
X-608919Y2980893D01*
X-614750Y2982934D01*
X-620772Y2984308D01*
X-626911Y2985000D01*
X-633088D01*
X-639227Y2984308D01*
X-645249Y2982934D01*
X-651080Y2980893D01*
X-656646Y2978213D01*
X-661877Y2974926D01*
X-666706Y2971075D01*
X-671074Y2966707D01*
X-673996Y2963044D01*
X-679999Y2962064D01*
X-686003Y2963044D01*
X-688924Y2966707D01*
X-693292Y2971075D01*
X-698122Y2974926D01*
X-703353Y2978213D01*
X-708919Y2980893D01*
X-714749Y2982934D01*
X-720772Y2984308D01*
X-726911Y2985000D01*
X-733088D01*
X-739227Y2984308D01*
X-745249Y2982934D01*
X-751080Y2980893D01*
X-756646Y2978213D01*
X-761876Y2974926D01*
X-766706Y2971075D01*
X-771074Y2966707D01*
X-774926Y2961877D01*
X-778212Y2956646D01*
X-780893Y2951081D01*
X-782933Y2945250D01*
X-784308Y2939227D01*
X-784999Y2933089D01*
Y2926911D01*
X-784308Y2920773D01*
X-782933Y2914750D01*
X-780893Y2908919D01*
X-778212Y2903354D01*
X-774926Y2898123D01*
X-771074Y2893293D01*
X-766706Y2888925D01*
X-763043Y2886004D01*
X-762064Y2880000D01*
X-763043Y2873996D01*
X-766706Y2871075D01*
X-771074Y2866707D01*
X-774926Y2861877D01*
X-778212Y2856647D01*
X-780893Y2851081D01*
X-782933Y2845250D01*
X-784308Y2839227D01*
X-784999Y2833089D01*
Y2826912D01*
X-784308Y2820773D01*
X-782933Y2814750D01*
X-780893Y2808919D01*
X-778212Y2803354D01*
X-774926Y2798123D01*
X-771074Y2793293D01*
X-766706Y2788925D01*
X-763043Y2786004D01*
X-762064Y2780000D01*
X-763043Y2773996D01*
X-766706Y2771075D01*
X-771074Y2766707D01*
X-774926Y2761877D01*
X-778212Y2756647D01*
X-780893Y2751081D01*
X-782933Y2745250D01*
X-784308Y2739228D01*
X-784999Y2733089D01*
Y2726912D01*
X-786639Y2725077D01*
X-899923D01*
X-900904Y2725000D01*
X-1138685D01*
X-1146018Y2725722D01*
X-1153246Y2727160D01*
X-1160297Y2729299D01*
X-1167105Y2732119D01*
X-1173604Y2735592D01*
X-1179731Y2739686D01*
X-1185428Y2744361D01*
X-1190638Y2749572D01*
X-1195313Y2755268D01*
X-1199407Y2761396D01*
X-1202881Y2767894D01*
X-1205701Y2774702D01*
X-1207840Y2781754D01*
X-1209278Y2788981D01*
X-1210000Y2796315D01*
Y2800000D01*
X-1210000D01*
X-1210000Y2800000D01*
X-1209923Y2800980D01*
X-1209923Y2949998D01*
X-1209923Y2955615D01*
X-1209973Y2956255D01*
X-1209956Y2956895D01*
X-1210529Y2968113D01*
X-1210612Y2968748D01*
X-1210627Y2969389D01*
X-1211772Y2980564D01*
X-1211887Y2981193D01*
X-1211935Y2981833D01*
X-1213648Y2992934D01*
X-1213795Y2993558D01*
X-1213875Y2994194D01*
X-1216153Y3005193D01*
X-1216332Y3005808D01*
X-1216444Y3006439D01*
X-1219280Y3017308D01*
X-1219491Y3017914D01*
X-1219635Y3018538D01*
X-1223022Y3029248D01*
X-1223262Y3029840D01*
X-1223439Y3030458D01*
X-1227368Y3040981D01*
X-1227638Y3041561D01*
X-1227846Y3042168D01*
X-1232306Y3052477D01*
X-1232607Y3053045D01*
X-1232845Y3053639D01*
X-1237826Y3063707D01*
X-1238153Y3064255D01*
X-1238422Y3064838D01*
X-1243910Y3074639D01*
X-1244266Y3075173D01*
X-1244564Y3075740D01*
X-1250545Y3085248D01*
X-1250927Y3085762D01*
X-1251254Y3086313D01*
X-1254383Y3090766D01*
X-1257991Y3096043D01*
X-1264869Y3106977D01*
X-1271099Y3118103D01*
X-1276758Y3129542D01*
X-1281821Y3141243D01*
X-1286284Y3153196D01*
X-1290131Y3165361D01*
X-1293351Y3177702D01*
X-1295936Y3190189D01*
X-1297882Y3202798D01*
X-1299183Y3215489D01*
X-1299841Y3228383D01*
X-1299923Y3234764D01*
Y5035000D01*
X-1300000Y5035981D01*
Y5060000D01*
X-1324019D01*
X-1325000Y5060077D01*
X-1342727D01*
X-1343708Y5060000D01*
X-1651292D01*
X-1652273Y5060077D01*
X-1674923D01*
Y5372262D01*
X-1669596Y5377589D01*
X-1663983Y5384278D01*
X-1658975Y5391431D01*
X-1654609Y5398993D01*
X-1650918Y5406907D01*
X-1647932Y5415113D01*
X-1645672Y5423547D01*
X-1644155Y5432147D01*
X-1643395Y5440846D01*
X-1643394Y5449578D01*
X-1644155Y5458277D01*
X-1645672Y5466877D01*
X-1647932Y5475311D01*
X-1650919Y5483517D01*
X-1654609Y5491431D01*
X-1658975Y5498993D01*
X-1663983Y5506146D01*
X-1669597Y5512835D01*
X-1674923Y5518162D01*
Y5732500D01*
X-1675000Y5733481D01*
Y5974923D01*
X-1110000D01*
X-1109019Y5975000D01*
X-1085000D01*
Y5999016D01*
X-1084923Y6000000D01*
Y6175000D01*
X-1085000Y6175984D01*
Y6200000D01*
X-1109016D01*
X-1110000Y6200077D01*
X-1150000D01*
X-1150000Y6535000D01*
X-1150082Y6541675D01*
X-1150737Y6555009D01*
X-1152046Y6568295D01*
X-1154005Y6581501D01*
X-1156609Y6594595D01*
X-1159853Y6607546D01*
X-1163729Y6620321D01*
X-1168226Y6632891D01*
X-1173335Y6645225D01*
X-1179043Y6657294D01*
X-1185337Y6669068D01*
X-1192200Y6680519D01*
X-1199617Y6691619D01*
X-1207570Y6702342D01*
X-1216039Y6712662D01*
X-1225005Y6722554D01*
X-1234445Y6731995D01*
X-1244337Y6740960D01*
X-1254657Y6749429D01*
X-1265380Y6757382D01*
X-1276481Y6764800D01*
X-1287932Y6771663D01*
X-1299706Y6777956D01*
X-1311774Y6783664D01*
X-1324109Y6788773D01*
X-1336679Y6793271D01*
X-1349454Y6797146D01*
X-1362404Y6800390D01*
X-1375498Y6802995D01*
X-1388704Y6804954D01*
X-1401990Y6806262D01*
X-1415325Y6806917D01*
X-1422000Y6806999D01*
Y6807000D01*
X-1621922D01*
Y8349924D01*
X875041Y8349923D01*
D02*
G37*
G36*
X-1325000Y3550000D02*
X-1685000D01*
Y5035000D01*
X-1325000D01*
Y3550000D01*
D02*
G37*
G36*
X1698065Y3349239D02*
X1706665Y3347722D01*
X1715099Y3345462D01*
X1723305Y3342476D01*
X1731219Y3338785D01*
X1738781Y3334419D01*
X1745934Y3329411D01*
X1752623Y3323798D01*
X1758798Y3317623D01*
X1764411Y3310934D01*
X1769420Y3303781D01*
X1773786Y3296219D01*
X1777476Y3288305D01*
X1780463Y3280099D01*
X1782723Y3271664D01*
X1784239Y3263065D01*
X1785000Y3254366D01*
Y3245634D01*
X1784239Y3236935D01*
X1782723Y3228335D01*
X1780463Y3219901D01*
X1777476Y3211695D01*
X1773786Y3203781D01*
X1769420Y3196219D01*
X1764411Y3189066D01*
X1758798Y3182376D01*
X1752623Y3176202D01*
X1745934Y3170589D01*
X1738781Y3165580D01*
X1731219Y3161214D01*
X1723305Y3157524D01*
X1715099Y3154537D01*
X1706665Y3152277D01*
X1698065Y3150761D01*
X1689366Y3150000D01*
X1405634D01*
X1396935Y3150761D01*
X1388335Y3152277D01*
X1379901Y3154537D01*
X1371695Y3157524D01*
X1363781Y3161214D01*
X1356219Y3165580D01*
X1349066Y3170589D01*
X1342377Y3176202D01*
X1336202Y3182376D01*
X1330589Y3189066D01*
X1325580Y3196219D01*
X1321214Y3203781D01*
X1317524Y3211695D01*
X1314537Y3219901D01*
X1312277Y3228335D01*
X1310761Y3236935D01*
X1310000Y3245634D01*
Y3254366D01*
X1310761Y3263065D01*
X1312277Y3271664D01*
X1314537Y3280099D01*
X1317524Y3288305D01*
X1321214Y3296219D01*
X1325580Y3303781D01*
X1330589Y3310934D01*
X1336202Y3317623D01*
X1342377Y3323798D01*
X1349066Y3329411D01*
X1356219Y3334419D01*
X1363781Y3338785D01*
X1371695Y3342476D01*
X1379901Y3345462D01*
X1388335Y3347722D01*
X1396935Y3349239D01*
X1405634Y3350000D01*
X1689366D01*
X1698065Y3349239D01*
D02*
G37*
G36*
X1748912Y2949383D02*
X1756674Y2948154D01*
X1764314Y2946319D01*
X1771788Y2943891D01*
X1779048Y2940884D01*
X1786050Y2937317D01*
X1792750Y2933211D01*
X1799107Y2928592D01*
X1805082Y2923489D01*
X1810638Y2917932D01*
X1815742Y2911957D01*
X1820361Y2905600D01*
X1824467Y2898900D01*
X1828034Y2891898D01*
X1831041Y2884638D01*
X1833469Y2877165D01*
X1835304Y2869524D01*
X1836533Y2861763D01*
X1837150Y2853929D01*
Y2850000D01*
Y2353050D01*
Y2349121D01*
X1836533Y2341287D01*
X1835304Y2333526D01*
X1833469Y2325885D01*
X1831041Y2318412D01*
X1828034Y2311152D01*
X1824467Y2304150D01*
X1820361Y2297450D01*
X1815742Y2291093D01*
X1810638Y2285118D01*
X1805082Y2279561D01*
X1799107Y2274458D01*
X1792750Y2269839D01*
X1786050Y2265733D01*
X1779048Y2262166D01*
X1771788Y2259159D01*
X1764314Y2256730D01*
X1756674Y2254896D01*
X1748912Y2253667D01*
X1741079Y2253050D01*
X1406071D01*
X1398237Y2253667D01*
X1390476Y2254896D01*
X1382835Y2256730D01*
X1375361Y2259159D01*
X1368102Y2262166D01*
X1361100Y2265733D01*
X1354400Y2269839D01*
X1348043Y2274458D01*
X1342067Y2279561D01*
X1336511Y2285118D01*
X1331408Y2291093D01*
X1326789Y2297450D01*
X1322683Y2304150D01*
X1319115Y2311152D01*
X1316108Y2318412D01*
X1313680Y2325885D01*
X1311845Y2333526D01*
X1310616Y2341287D01*
X1310000Y2349121D01*
Y2353050D01*
Y2850000D01*
Y2853929D01*
X1310616Y2861763D01*
X1311845Y2869524D01*
X1313680Y2877165D01*
X1316108Y2884638D01*
X1319115Y2891898D01*
X1322683Y2898900D01*
X1326789Y2905600D01*
X1331408Y2911957D01*
X1336511Y2917932D01*
X1342067Y2923489D01*
X1348043Y2928592D01*
X1354400Y2933211D01*
X1361100Y2937317D01*
X1368102Y2940884D01*
X1375361Y2943891D01*
X1382835Y2946319D01*
X1390476Y2948154D01*
X1398237Y2949383D01*
X1406071Y2950000D01*
X1741079D01*
X1748912Y2949383D01*
D02*
G37*
G36*
X314079Y1564210D02*
X325038Y1562634D01*
X335857Y1560281D01*
X346480Y1557161D01*
X356854Y1553293D01*
X366925Y1548693D01*
X376642Y1543387D01*
X385956Y1537401D01*
X394820Y1530766D01*
X403187Y1523516D01*
X411016Y1515687D01*
X418266Y1507320D01*
X424901Y1498456D01*
X430887Y1489142D01*
X436193Y1479425D01*
X440793Y1469354D01*
X444662Y1458980D01*
X447781Y1448357D01*
X450134Y1437538D01*
X451710Y1426579D01*
X452500Y1415536D01*
Y1410000D01*
Y1050000D01*
X452577Y1046074D01*
X453193Y1038246D01*
X454421Y1030490D01*
X456254Y1022855D01*
X458681Y1015388D01*
X461686Y1008134D01*
X465250Y1001137D01*
X469353Y994443D01*
X473968Y988090D01*
X479068Y982119D01*
X484620Y976567D01*
X490591Y971468D01*
X496943Y966853D01*
X503638Y962750D01*
X510634Y959185D01*
X517888Y956180D01*
X525356Y953754D01*
X532991Y951921D01*
X540746Y950693D01*
X548574Y950077D01*
X552500Y950000D01*
X674974D01*
X684898Y949341D01*
X694757Y948026D01*
X704507Y946061D01*
X714106Y943455D01*
X723511Y940218D01*
X732681Y936366D01*
X741576Y931915D01*
X750156Y926884D01*
X758385Y921296D01*
X766225Y915176D01*
X773642Y908549D01*
X780605Y901446D01*
X787081Y893897D01*
X793044Y885936D01*
X798466Y877597D01*
X803323Y868918D01*
X807595Y859936D01*
X811263Y850690D01*
X814310Y841222D01*
X815517Y836398D01*
X824483Y800552D01*
X824483Y800552D01*
X825769Y795750D01*
X828815Y786287D01*
X832481Y777047D01*
X836751Y768070D01*
X841606Y759395D01*
X847024Y751061D01*
X852984Y743104D01*
X859456Y735559D01*
X866415Y728460D01*
X873829Y721837D01*
X881664Y715720D01*
X889888Y710135D01*
X898464Y705107D01*
X907354Y700658D01*
X916519Y696808D01*
X925919Y693573D01*
X935512Y690969D01*
X945257Y689005D01*
X955111Y687691D01*
X965030Y687032D01*
X970000Y686950D01*
X1112849D01*
X1119861Y687048D01*
X1133862Y687835D01*
X1147797Y689405D01*
X1161622Y691754D01*
X1175293Y694874D01*
X1188769Y698756D01*
X1202005Y703388D01*
X1214960Y708754D01*
X1227595Y714839D01*
X1239868Y721622D01*
X1251742Y729083D01*
X1263179Y737197D01*
X1274142Y745941D01*
X1284599Y755285D01*
X1294514Y765201D01*
X1303859Y775657D01*
X1312602Y786621D01*
X1320717Y798057D01*
X1328177Y809931D01*
X1334961Y822205D01*
X1341045Y834839D01*
X1346412Y847795D01*
X1351043Y861031D01*
X1354925Y874506D01*
X1358046Y888177D01*
X1360395Y902003D01*
X1361965Y915937D01*
X1362751Y929938D01*
X1362849Y936950D01*
Y1126950D01*
Y1130879D01*
X1363466Y1138713D01*
X1364695Y1146474D01*
X1366530Y1154115D01*
X1368958Y1161588D01*
X1371965Y1168848D01*
X1375532Y1175850D01*
X1379638Y1182550D01*
X1384257Y1188907D01*
X1389360Y1194882D01*
X1394917Y1200439D01*
X1400892Y1205542D01*
X1407249Y1210161D01*
X1413949Y1214267D01*
X1420951Y1217834D01*
X1428211Y1220841D01*
X1435684Y1223270D01*
X1443325Y1225104D01*
X1451087Y1226333D01*
X1458920Y1226950D01*
X2078930D01*
X2086764Y1226333D01*
X2094525Y1225104D01*
X2102166Y1223270D01*
X2109640Y1220841D01*
X2116899Y1217834D01*
X2123901Y1214267D01*
X2130601Y1210161D01*
X2136958Y1205542D01*
X2142934Y1200439D01*
X2148490Y1194882D01*
X2153594Y1188907D01*
X2158212Y1182550D01*
X2162318Y1175850D01*
X2165886Y1168848D01*
X2168893Y1161588D01*
X2171321Y1154115D01*
X2173156Y1146474D01*
X2174385Y1138713D01*
X2175001Y1130879D01*
Y1126950D01*
Y100000D01*
Y96315D01*
X2174279Y88981D01*
X2172841Y81754D01*
X2170702Y74702D01*
X2167882Y67894D01*
X2164408Y61395D01*
X2160314Y55267D01*
X2155639Y49571D01*
X2150429Y44360D01*
X2144732Y39685D01*
X2138605Y35591D01*
X2132106Y32117D01*
X2125298Y29297D01*
X2118246Y27158D01*
X2111018Y25720D01*
X2103684Y24998D01*
X213816D01*
X206482Y25720D01*
X199255Y27158D01*
X192203Y29297D01*
X185395Y32117D01*
X178896Y35591D01*
X172769Y39685D01*
X167072Y44360D01*
X161862Y49570D01*
X157187Y55267D01*
X153093Y61394D01*
X149619Y67893D01*
X146799Y74701D01*
X144660Y81753D01*
X143222Y88980D01*
X142500Y96314D01*
Y99998D01*
Y1410000D01*
Y1415536D01*
X143290Y1426579D01*
X144866Y1437538D01*
X147219Y1448357D01*
X150338Y1458980D01*
X154207Y1469354D01*
X158807Y1479425D01*
X164113Y1489142D01*
X170098Y1498456D01*
X176733Y1507320D01*
X183984Y1515687D01*
X191813Y1523516D01*
X200180Y1530766D01*
X209044Y1537401D01*
X218358Y1543387D01*
X228075Y1548693D01*
X238146Y1553293D01*
X248520Y1557161D01*
X259143Y1560281D01*
X269962Y1562634D01*
X280921Y1564210D01*
X291964Y1565000D01*
X303036D01*
X314079Y1564210D01*
D02*
G37*
%LPC*%
G36*
X-1755000Y4912000D02*
X-2045000D01*
Y4692000D01*
X-1755000D01*
Y4912000D01*
D02*
G37*
G36*
X-1865000Y4658085D02*
X-1935000D01*
X-1943637Y4657746D01*
X-1952221Y4656730D01*
X-1960699Y4655043D01*
X-1969018Y4652697D01*
X-1977128Y4649705D01*
X-1984977Y4646086D01*
X-1992519Y4641863D01*
X-1999706Y4637061D01*
X-2006494Y4631709D01*
X-2012842Y4625842D01*
X-2018709Y4619494D01*
X-2024060Y4612706D01*
X-2028863Y4605519D01*
X-2033086Y4597978D01*
X-2036705Y4590128D01*
X-2039697Y4582018D01*
X-2042043Y4573699D01*
X-2043729Y4565221D01*
X-2044745Y4556637D01*
X-2045085Y4548000D01*
X-2044745Y4539363D01*
X-2043729Y4530779D01*
X-2042043Y4522302D01*
X-2039697Y4513982D01*
X-2036705Y4505873D01*
X-2033086Y4498023D01*
X-2028863Y4490481D01*
X-2024060Y4483294D01*
X-2018709Y4476506D01*
X-2012842Y4470159D01*
X-2006494Y4464291D01*
X-1999706Y4458940D01*
X-1992519Y4454138D01*
X-1984977Y4449914D01*
X-1977128Y4446295D01*
X-1969018Y4443304D01*
X-1960699Y4440957D01*
X-1952221Y4439271D01*
X-1943637Y4438255D01*
X-1935000Y4437916D01*
X-1865000D01*
X-1856363Y4438255D01*
X-1847779Y4439271D01*
X-1839301Y4440957D01*
X-1830982Y4443304D01*
X-1822872Y4446295D01*
X-1815023Y4449914D01*
X-1807481Y4454138D01*
X-1800294Y4458940D01*
X-1793506Y4464291D01*
X-1787158Y4470159D01*
X-1781291Y4476506D01*
X-1775940Y4483294D01*
X-1771137Y4490481D01*
X-1766914Y4498023D01*
X-1763295Y4505873D01*
X-1760303Y4513982D01*
X-1757957Y4522302D01*
X-1756271Y4530779D01*
X-1755255Y4539363D01*
X-1754915Y4548000D01*
X-1755255Y4556637D01*
X-1756271Y4565221D01*
X-1757957Y4573699D01*
X-1760303Y4582018D01*
X-1763295Y4590128D01*
X-1766914Y4597978D01*
X-1771137Y4605519D01*
X-1775940Y4612706D01*
X-1781291Y4619494D01*
X-1787158Y4625842D01*
X-1793506Y4631709D01*
X-1800294Y4637061D01*
X-1807481Y4641863D01*
X-1815023Y4646086D01*
X-1822872Y4649705D01*
X-1830982Y4652697D01*
X-1839301Y4655043D01*
X-1847779Y4656730D01*
X-1856363Y4657746D01*
X-1865000Y4658085D01*
D02*
G37*
G36*
X-1385000Y3375000D02*
X-1710000D01*
Y3125000D01*
X-1385000D01*
Y3375000D01*
D02*
G37*
G36*
X1362699Y8314757D02*
Y8212700D01*
X1464757D01*
X1464688Y8213574D01*
X1463270Y8222531D01*
X1461153Y8231348D01*
X1458351Y8239973D01*
X1454880Y8248351D01*
X1450763Y8256430D01*
X1446025Y8264162D01*
X1440695Y8271498D01*
X1434806Y8278394D01*
X1428394Y8284806D01*
X1421498Y8290695D01*
X1414162Y8296025D01*
X1406430Y8300763D01*
X1398351Y8304880D01*
X1389973Y8308351D01*
X1381348Y8311153D01*
X1372531Y8313270D01*
X1363574Y8314688D01*
X1362699Y8314757D01*
D02*
G37*
G36*
X1337299D02*
X1336426Y8314688D01*
X1327469Y8313270D01*
X1318651Y8311153D01*
X1310027Y8308351D01*
X1301649Y8304880D01*
X1293569Y8300763D01*
X1285838Y8296025D01*
X1278501Y8290695D01*
X1271606Y8284806D01*
X1265194Y8278394D01*
X1259304Y8271498D01*
X1253974Y8264162D01*
X1249236Y8256430D01*
X1245119Y8248351D01*
X1241649Y8239973D01*
X1238847Y8231348D01*
X1236730Y8222531D01*
X1235311Y8213574D01*
X1235243Y8212700D01*
X1337299D01*
Y8314757D01*
D02*
G37*
G36*
Y8187300D02*
X1235243D01*
X1235311Y8186426D01*
X1236730Y8177469D01*
X1238847Y8168651D01*
X1241649Y8160027D01*
X1245119Y8151649D01*
X1249236Y8143569D01*
X1253974Y8135838D01*
X1259304Y8128501D01*
X1265194Y8121606D01*
X1271606Y8115194D01*
X1278501Y8109304D01*
X1285838Y8103974D01*
X1293569Y8099236D01*
X1301649Y8095119D01*
X1310027Y8091649D01*
X1318651Y8088847D01*
X1327469Y8086730D01*
X1336426Y8085311D01*
X1337299Y8085243D01*
Y8187300D01*
D02*
G37*
G36*
X1464757D02*
X1362699D01*
Y8085243D01*
X1363574Y8085311D01*
X1372531Y8086730D01*
X1381348Y8088847D01*
X1389973Y8091649D01*
X1398351Y8095119D01*
X1406430Y8099236D01*
X1414162Y8103974D01*
X1421498Y8109304D01*
X1428394Y8115194D01*
X1434806Y8121606D01*
X1440695Y8128501D01*
X1446025Y8135838D01*
X1450763Y8143569D01*
X1454880Y8151649D01*
X1458351Y8160027D01*
X1461153Y8168651D01*
X1463270Y8177469D01*
X1464688Y8186426D01*
X1464757Y8187300D01*
D02*
G37*
G36*
X-9600Y8175400D02*
X-190400D01*
Y7994600D01*
X-9600D01*
Y8175400D01*
D02*
G37*
G36*
X-296053D02*
X-303947D01*
X-311811Y8174712D01*
X-319585Y8173341D01*
X-327210Y8171298D01*
X-334627Y8168598D01*
X-341782Y8165262D01*
X-348618Y8161315D01*
X-355084Y8156787D01*
X-361131Y8151713D01*
X-366713Y8146131D01*
X-371787Y8140084D01*
X-376315Y8133618D01*
X-380262Y8126782D01*
X-383598Y8119627D01*
X-386298Y8112210D01*
X-388341Y8104585D01*
X-389712Y8096811D01*
X-390400Y8088947D01*
Y8081053D01*
X-389712Y8073189D01*
X-388341Y8065415D01*
X-386298Y8057790D01*
X-383598Y8050372D01*
X-380262Y8043218D01*
X-376315Y8036382D01*
X-371787Y8029915D01*
X-366713Y8023868D01*
X-361131Y8018286D01*
X-355084Y8013213D01*
X-348618Y8008685D01*
X-341782Y8004738D01*
X-334627Y8001402D01*
X-327210Y7998702D01*
X-319585Y7996659D01*
X-311811Y7995288D01*
X-303947Y7994600D01*
X-296053D01*
X-288189Y7995288D01*
X-280415Y7996659D01*
X-272790Y7998702D01*
X-265372Y8001402D01*
X-258218Y8004738D01*
X-251382Y8008685D01*
X-244915Y8013213D01*
X-238868Y8018286D01*
X-233287Y8023868D01*
X-228213Y8029915D01*
X-223685Y8036382D01*
X-219738Y8043218D01*
X-216402Y8050372D01*
X-213702Y8057790D01*
X-211659Y8065415D01*
X-210288Y8073189D01*
X-209600Y8081053D01*
Y8088947D01*
X-210288Y8096811D01*
X-211659Y8104585D01*
X-213702Y8112210D01*
X-216402Y8119627D01*
X-219738Y8126782D01*
X-223685Y8133618D01*
X-228213Y8140084D01*
X-233287Y8146131D01*
X-238868Y8151713D01*
X-244915Y8156787D01*
X-251382Y8161315D01*
X-258218Y8165262D01*
X-265372Y8168598D01*
X-272790Y8171298D01*
X-280415Y8173341D01*
X-288189Y8174712D01*
X-296053Y8175400D01*
D02*
G37*
G36*
X-496053D02*
X-503947D01*
X-511811Y8174712D01*
X-519585Y8173341D01*
X-527210Y8171298D01*
X-534628Y8168598D01*
X-541782Y8165262D01*
X-548618Y8161315D01*
X-555084Y8156787D01*
X-561131Y8151713D01*
X-566713Y8146131D01*
X-571787Y8140084D01*
X-576315Y8133618D01*
X-580262Y8126782D01*
X-583598Y8119627D01*
X-586298Y8112210D01*
X-588341Y8104585D01*
X-589712Y8096811D01*
X-590400Y8088947D01*
Y8081053D01*
X-589712Y8073189D01*
X-588341Y8065415D01*
X-586298Y8057790D01*
X-583598Y8050372D01*
X-580262Y8043218D01*
X-576315Y8036382D01*
X-571787Y8029915D01*
X-566713Y8023868D01*
X-561131Y8018286D01*
X-555084Y8013213D01*
X-548618Y8008685D01*
X-541782Y8004738D01*
X-534628Y8001402D01*
X-527210Y7998702D01*
X-519585Y7996659D01*
X-511811Y7995288D01*
X-503947Y7994600D01*
X-496053D01*
X-488189Y7995288D01*
X-480415Y7996659D01*
X-472790Y7998702D01*
X-465372Y8001402D01*
X-458218Y8004738D01*
X-451382Y8008685D01*
X-444916Y8013213D01*
X-438869Y8018286D01*
X-433287Y8023868D01*
X-428213Y8029915D01*
X-423685Y8036382D01*
X-419738Y8043218D01*
X-416402Y8050372D01*
X-413702Y8057790D01*
X-411659Y8065415D01*
X-410288Y8073189D01*
X-409600Y8081053D01*
Y8088947D01*
X-410288Y8096811D01*
X-411659Y8104585D01*
X-413702Y8112210D01*
X-416402Y8119627D01*
X-419738Y8126782D01*
X-423685Y8133618D01*
X-428213Y8140084D01*
X-433287Y8146131D01*
X-438869Y8151713D01*
X-444916Y8156787D01*
X-451382Y8161315D01*
X-458218Y8165262D01*
X-465372Y8168598D01*
X-472790Y8171298D01*
X-480415Y8173341D01*
X-488189Y8174712D01*
X-496053Y8175400D01*
D02*
G37*
G36*
X-696053D02*
X-703947D01*
X-711811Y8174712D01*
X-719585Y8173341D01*
X-727210Y8171298D01*
X-734627Y8168598D01*
X-741782Y8165262D01*
X-748618Y8161315D01*
X-755084Y8156787D01*
X-761131Y8151713D01*
X-766713Y8146131D01*
X-771787Y8140084D01*
X-776315Y8133618D01*
X-780262Y8126782D01*
X-783598Y8119627D01*
X-786298Y8112210D01*
X-788341Y8104585D01*
X-789712Y8096811D01*
X-790400Y8088947D01*
Y8081053D01*
X-789712Y8073189D01*
X-788341Y8065415D01*
X-786298Y8057790D01*
X-783598Y8050372D01*
X-780262Y8043218D01*
X-776315Y8036382D01*
X-771787Y8029915D01*
X-766713Y8023868D01*
X-761131Y8018286D01*
X-755084Y8013213D01*
X-748618Y8008685D01*
X-741782Y8004738D01*
X-734627Y8001402D01*
X-727210Y7998702D01*
X-719585Y7996659D01*
X-711811Y7995288D01*
X-703947Y7994600D01*
X-696053D01*
X-688189Y7995288D01*
X-680415Y7996659D01*
X-672790Y7998702D01*
X-665372Y8001402D01*
X-658218Y8004738D01*
X-651382Y8008685D01*
X-644915Y8013213D01*
X-638868Y8018286D01*
X-633287Y8023868D01*
X-628213Y8029915D01*
X-623685Y8036382D01*
X-619738Y8043218D01*
X-616402Y8050372D01*
X-613702Y8057790D01*
X-611659Y8065415D01*
X-610288Y8073189D01*
X-609600Y8081053D01*
Y8088947D01*
X-610288Y8096811D01*
X-611659Y8104585D01*
X-613702Y8112210D01*
X-616402Y8119627D01*
X-619738Y8126782D01*
X-623685Y8133618D01*
X-628213Y8140084D01*
X-633287Y8146131D01*
X-638868Y8151713D01*
X-644915Y8156787D01*
X-651382Y8161315D01*
X-658218Y8165262D01*
X-665372Y8168598D01*
X-672790Y8171298D01*
X-680415Y8173341D01*
X-688189Y8174712D01*
X-696053Y8175400D01*
D02*
G37*
G36*
X-896053D02*
X-903947D01*
X-911811Y8174712D01*
X-919585Y8173341D01*
X-927210Y8171298D01*
X-934628Y8168598D01*
X-941782Y8165262D01*
X-948618Y8161315D01*
X-955084Y8156787D01*
X-961131Y8151713D01*
X-966713Y8146131D01*
X-971787Y8140084D01*
X-976315Y8133618D01*
X-980262Y8126782D01*
X-983598Y8119627D01*
X-986298Y8112210D01*
X-988341Y8104585D01*
X-989712Y8096811D01*
X-990400Y8088947D01*
Y8081053D01*
X-989712Y8073189D01*
X-988341Y8065415D01*
X-986298Y8057790D01*
X-983598Y8050372D01*
X-980262Y8043218D01*
X-976315Y8036382D01*
X-971787Y8029915D01*
X-966713Y8023868D01*
X-961131Y8018286D01*
X-955084Y8013213D01*
X-948618Y8008685D01*
X-941782Y8004738D01*
X-934628Y8001402D01*
X-927210Y7998702D01*
X-919585Y7996659D01*
X-911811Y7995288D01*
X-903947Y7994600D01*
X-896053D01*
X-888189Y7995288D01*
X-880415Y7996659D01*
X-872790Y7998702D01*
X-865372Y8001402D01*
X-858218Y8004738D01*
X-851382Y8008685D01*
X-844916Y8013213D01*
X-838869Y8018286D01*
X-833287Y8023868D01*
X-828213Y8029915D01*
X-823685Y8036382D01*
X-819738Y8043218D01*
X-816402Y8050372D01*
X-813702Y8057790D01*
X-811659Y8065415D01*
X-810288Y8073189D01*
X-809600Y8081053D01*
Y8088947D01*
X-810288Y8096811D01*
X-811659Y8104585D01*
X-813702Y8112210D01*
X-816402Y8119627D01*
X-819738Y8126782D01*
X-823685Y8133618D01*
X-828213Y8140084D01*
X-833287Y8146131D01*
X-838869Y8151713D01*
X-844916Y8156787D01*
X-851382Y8161315D01*
X-858218Y8165262D01*
X-865372Y8168598D01*
X-872790Y8171298D01*
X-880415Y8173341D01*
X-888189Y8174712D01*
X-896053Y8175400D01*
D02*
G37*
G36*
X-1096053D02*
X-1103947D01*
X-1111811Y8174712D01*
X-1119585Y8173341D01*
X-1127210Y8171298D01*
X-1134627Y8168598D01*
X-1141782Y8165262D01*
X-1148618Y8161315D01*
X-1155084Y8156787D01*
X-1161131Y8151713D01*
X-1166713Y8146131D01*
X-1171787Y8140084D01*
X-1176315Y8133618D01*
X-1180262Y8126782D01*
X-1183598Y8119627D01*
X-1186298Y8112210D01*
X-1188341Y8104585D01*
X-1189712Y8096811D01*
X-1190400Y8088947D01*
Y8081053D01*
X-1189712Y8073189D01*
X-1188341Y8065415D01*
X-1186298Y8057790D01*
X-1183598Y8050372D01*
X-1180262Y8043218D01*
X-1176315Y8036382D01*
X-1171787Y8029915D01*
X-1166713Y8023868D01*
X-1161131Y8018286D01*
X-1155084Y8013213D01*
X-1148618Y8008685D01*
X-1141782Y8004738D01*
X-1134627Y8001402D01*
X-1127210Y7998702D01*
X-1119585Y7996659D01*
X-1111811Y7995288D01*
X-1103947Y7994600D01*
X-1096053D01*
X-1088189Y7995288D01*
X-1080415Y7996659D01*
X-1072790Y7998702D01*
X-1065372Y8001402D01*
X-1058218Y8004738D01*
X-1051382Y8008685D01*
X-1044915Y8013213D01*
X-1038868Y8018286D01*
X-1033286Y8023868D01*
X-1028213Y8029915D01*
X-1023685Y8036382D01*
X-1019738Y8043218D01*
X-1016402Y8050372D01*
X-1013702Y8057790D01*
X-1011659Y8065415D01*
X-1010288Y8073189D01*
X-1009600Y8081053D01*
Y8088947D01*
X-1010288Y8096811D01*
X-1011659Y8104585D01*
X-1013702Y8112210D01*
X-1016402Y8119627D01*
X-1019738Y8126782D01*
X-1023685Y8133618D01*
X-1028213Y8140084D01*
X-1033286Y8146131D01*
X-1038868Y8151713D01*
X-1044915Y8156787D01*
X-1051382Y8161315D01*
X-1058218Y8165262D01*
X-1065372Y8168598D01*
X-1072790Y8171298D01*
X-1080415Y8173341D01*
X-1088189Y8174712D01*
X-1096053Y8175400D01*
D02*
G37*
G36*
X-1296053D02*
X-1303947D01*
X-1311811Y8174712D01*
X-1319585Y8173341D01*
X-1327210Y8171298D01*
X-1334628Y8168598D01*
X-1341782Y8165262D01*
X-1348618Y8161315D01*
X-1355084Y8156787D01*
X-1361131Y8151713D01*
X-1366713Y8146131D01*
X-1371787Y8140084D01*
X-1376315Y8133618D01*
X-1380262Y8126782D01*
X-1383598Y8119627D01*
X-1386298Y8112210D01*
X-1388341Y8104585D01*
X-1389712Y8096811D01*
X-1390400Y8088947D01*
Y8081053D01*
X-1389712Y8073189D01*
X-1388341Y8065415D01*
X-1386298Y8057790D01*
X-1383598Y8050372D01*
X-1380262Y8043218D01*
X-1376315Y8036382D01*
X-1371787Y8029915D01*
X-1366713Y8023868D01*
X-1361131Y8018286D01*
X-1355084Y8013213D01*
X-1348618Y8008685D01*
X-1341782Y8004738D01*
X-1334628Y8001402D01*
X-1327210Y7998702D01*
X-1319585Y7996659D01*
X-1311811Y7995288D01*
X-1303947Y7994600D01*
X-1296053D01*
X-1288189Y7995288D01*
X-1280415Y7996659D01*
X-1272790Y7998702D01*
X-1265372Y8001402D01*
X-1258218Y8004738D01*
X-1251382Y8008685D01*
X-1244915Y8013213D01*
X-1238868Y8018286D01*
X-1233287Y8023868D01*
X-1228213Y8029915D01*
X-1223685Y8036382D01*
X-1219738Y8043218D01*
X-1216402Y8050372D01*
X-1213702Y8057790D01*
X-1211659Y8065415D01*
X-1210288Y8073189D01*
X-1209600Y8081053D01*
Y8088947D01*
X-1210288Y8096811D01*
X-1211659Y8104585D01*
X-1213702Y8112210D01*
X-1216402Y8119627D01*
X-1219738Y8126782D01*
X-1223685Y8133618D01*
X-1228213Y8140084D01*
X-1233287Y8146131D01*
X-1238868Y8151713D01*
X-1244915Y8156787D01*
X-1251382Y8161315D01*
X-1258218Y8165262D01*
X-1265372Y8168598D01*
X-1272790Y8171298D01*
X-1280415Y8173341D01*
X-1288189Y8174712D01*
X-1296053Y8175400D01*
D02*
G37*
G36*
X-1496053D02*
X-1503947D01*
X-1511811Y8174712D01*
X-1519585Y8173341D01*
X-1527210Y8171298D01*
X-1534628Y8168598D01*
X-1541782Y8165262D01*
X-1548618Y8161315D01*
X-1555085Y8156787D01*
X-1561131Y8151713D01*
X-1566713Y8146131D01*
X-1571787Y8140084D01*
X-1576315Y8133618D01*
X-1580262Y8126782D01*
X-1583598Y8119627D01*
X-1586298Y8112210D01*
X-1588341Y8104585D01*
X-1589712Y8096811D01*
X-1590400Y8088947D01*
Y8081053D01*
X-1589712Y8073189D01*
X-1588341Y8065415D01*
X-1586298Y8057790D01*
X-1583598Y8050372D01*
X-1580262Y8043218D01*
X-1576315Y8036382D01*
X-1571787Y8029915D01*
X-1566713Y8023868D01*
X-1561131Y8018286D01*
X-1555085Y8013213D01*
X-1548618Y8008685D01*
X-1541782Y8004738D01*
X-1534628Y8001402D01*
X-1527210Y7998702D01*
X-1519585Y7996659D01*
X-1511811Y7995288D01*
X-1503947Y7994600D01*
X-1496053D01*
X-1488189Y7995288D01*
X-1480415Y7996659D01*
X-1472790Y7998702D01*
X-1465372Y8001402D01*
X-1458218Y8004738D01*
X-1451382Y8008685D01*
X-1444916Y8013213D01*
X-1438869Y8018286D01*
X-1433287Y8023868D01*
X-1428213Y8029915D01*
X-1423685Y8036382D01*
X-1419738Y8043218D01*
X-1416402Y8050372D01*
X-1413702Y8057790D01*
X-1411659Y8065415D01*
X-1410288Y8073189D01*
X-1409600Y8081053D01*
Y8088947D01*
X-1410288Y8096811D01*
X-1411659Y8104585D01*
X-1413702Y8112210D01*
X-1416402Y8119627D01*
X-1419738Y8126782D01*
X-1423685Y8133618D01*
X-1428213Y8140084D01*
X-1433287Y8146131D01*
X-1438869Y8151713D01*
X-1444916Y8156787D01*
X-1451382Y8161315D01*
X-1458218Y8165262D01*
X-1465372Y8168598D01*
X-1472790Y8171298D01*
X-1480415Y8173341D01*
X-1488189Y8174712D01*
X-1496053Y8175400D01*
D02*
G37*
G36*
X1362701Y8014757D02*
Y7912700D01*
X1464757D01*
X1464688Y7913574D01*
X1463270Y7922531D01*
X1461153Y7931348D01*
X1458351Y7939973D01*
X1454881Y7948351D01*
X1450764Y7956430D01*
X1446026Y7964162D01*
X1440696Y7971498D01*
X1434806Y7978394D01*
X1428394Y7984806D01*
X1421499Y7990695D01*
X1414162Y7996025D01*
X1406431Y8000764D01*
X1398351Y8004880D01*
X1389973Y8008351D01*
X1381349Y8011153D01*
X1372531Y8013270D01*
X1363574Y8014688D01*
X1362701Y8014757D01*
D02*
G37*
G36*
X1337301D02*
X1336426Y8014688D01*
X1327469Y8013270D01*
X1318652Y8011153D01*
X1310027Y8008351D01*
X1301649Y8004880D01*
X1293570Y8000764D01*
X1285838Y7996025D01*
X1278502Y7990695D01*
X1271606Y7984806D01*
X1265194Y7978394D01*
X1259305Y7971498D01*
X1253975Y7964162D01*
X1249237Y7956430D01*
X1245120Y7948351D01*
X1241649Y7939973D01*
X1238847Y7931348D01*
X1236730Y7922531D01*
X1235312Y7913574D01*
X1235243Y7912700D01*
X1337301D01*
Y8014757D01*
D02*
G37*
G36*
X1464757Y7887300D02*
X1362701D01*
Y7785243D01*
X1363574Y7785312D01*
X1372531Y7786730D01*
X1381349Y7788847D01*
X1389973Y7791649D01*
X1398351Y7795120D01*
X1406431Y7799236D01*
X1414162Y7803974D01*
X1421499Y7809304D01*
X1428394Y7815194D01*
X1434806Y7821606D01*
X1440696Y7828501D01*
X1446026Y7835838D01*
X1450764Y7843570D01*
X1454881Y7851649D01*
X1458351Y7860027D01*
X1461153Y7868652D01*
X1463270Y7877469D01*
X1464688Y7886426D01*
X1464757Y7887300D01*
D02*
G37*
G36*
X1337301D02*
X1235243D01*
X1235312Y7886426D01*
X1236730Y7877469D01*
X1238847Y7868652D01*
X1241649Y7860027D01*
X1245120Y7851649D01*
X1249237Y7843570D01*
X1253975Y7835838D01*
X1259305Y7828501D01*
X1265194Y7821606D01*
X1271606Y7815194D01*
X1278502Y7809304D01*
X1285838Y7803974D01*
X1293570Y7799236D01*
X1301649Y7795120D01*
X1310027Y7791649D01*
X1318652Y7788847D01*
X1327469Y7786730D01*
X1336426Y7785312D01*
X1337301Y7785243D01*
Y7887300D01*
D02*
G37*
G36*
X1054518Y8015000D02*
X1045481D01*
X1036472Y8014291D01*
X1027547Y8012877D01*
X1018760Y8010767D01*
X1010166Y8007975D01*
X1001817Y8004517D01*
X993765Y8000414D01*
X986060Y7995692D01*
X978749Y7990381D01*
X971878Y7984512D01*
X965488Y7978122D01*
X959619Y7971251D01*
X954307Y7963940D01*
X949586Y7956235D01*
X945483Y7948183D01*
X942025Y7939834D01*
X939232Y7931240D01*
X937123Y7922453D01*
X935709Y7913527D01*
X935000Y7904518D01*
Y7895482D01*
X935709Y7886473D01*
X937123Y7877547D01*
X939232Y7868760D01*
X942025Y7860166D01*
X945483Y7851817D01*
X949586Y7843765D01*
X954307Y7836060D01*
X959619Y7828749D01*
X965488Y7821878D01*
X971878Y7815488D01*
X978749Y7809619D01*
X986060Y7804307D01*
X993765Y7799586D01*
X1001817Y7795483D01*
X1010166Y7792025D01*
X1018760Y7789233D01*
X1027547Y7787123D01*
X1036472Y7785709D01*
X1045481Y7785000D01*
X1054518D01*
X1063527Y7785709D01*
X1072452Y7787123D01*
X1081239Y7789233D01*
X1089834Y7792025D01*
X1098182Y7795483D01*
X1106234Y7799586D01*
X1113939Y7804307D01*
X1121250Y7809619D01*
X1128122Y7815488D01*
X1134512Y7821878D01*
X1140380Y7828749D01*
X1145692Y7836060D01*
X1150414Y7843765D01*
X1154516Y7851817D01*
X1157975Y7860166D01*
X1160767Y7868760D01*
X1162877Y7877547D01*
X1164290Y7886473D01*
X1164999Y7895482D01*
Y7904518D01*
X1164290Y7913527D01*
X1162877Y7922453D01*
X1160767Y7931240D01*
X1157975Y7939834D01*
X1154516Y7948183D01*
X1150414Y7956235D01*
X1145692Y7963940D01*
X1140380Y7971251D01*
X1134512Y7978122D01*
X1128122Y7984512D01*
X1121250Y7990381D01*
X1113939Y7995692D01*
X1106234Y8000414D01*
X1098182Y8004517D01*
X1089834Y8007975D01*
X1081239Y8010767D01*
X1072452Y8012877D01*
X1063527Y8014291D01*
X1054518Y8015000D01*
D02*
G37*
G36*
X1362699Y7714757D02*
Y7612700D01*
X1464757D01*
X1464688Y7613574D01*
X1463270Y7622531D01*
X1461153Y7631348D01*
X1458351Y7639973D01*
X1454880Y7648351D01*
X1450763Y7656430D01*
X1446025Y7664162D01*
X1440695Y7671498D01*
X1434806Y7678394D01*
X1428394Y7684806D01*
X1421498Y7690696D01*
X1414162Y7696026D01*
X1406430Y7700764D01*
X1398351Y7704880D01*
X1389973Y7708351D01*
X1381348Y7711153D01*
X1372531Y7713270D01*
X1363574Y7714688D01*
X1362699Y7714757D01*
D02*
G37*
G36*
X1337299D02*
X1336426Y7714688D01*
X1327469Y7713270D01*
X1318651Y7711153D01*
X1310027Y7708351D01*
X1301649Y7704880D01*
X1293569Y7700764D01*
X1285838Y7696026D01*
X1278501Y7690696D01*
X1271606Y7684806D01*
X1265194Y7678394D01*
X1259304Y7671498D01*
X1253974Y7664162D01*
X1249236Y7656430D01*
X1245119Y7648351D01*
X1241649Y7639973D01*
X1238847Y7631348D01*
X1236730Y7622531D01*
X1235311Y7613574D01*
X1235243Y7612700D01*
X1337299D01*
Y7714757D01*
D02*
G37*
G36*
X-146911Y7655000D02*
X-153088D01*
X-159227Y7654308D01*
X-165250Y7652934D01*
X-171080Y7650893D01*
X-176646Y7648213D01*
X-181877Y7644927D01*
X-186707Y7641075D01*
X-191075Y7636707D01*
X-194926Y7631877D01*
X-198213Y7626646D01*
X-200893Y7621081D01*
X-202933Y7615250D01*
X-204308Y7609227D01*
X-205000Y7603089D01*
Y7596911D01*
X-204308Y7590773D01*
X-202933Y7584750D01*
X-200893Y7578919D01*
X-198213Y7573354D01*
X-194926Y7568123D01*
X-191075Y7563293D01*
X-186707Y7558925D01*
X-181877Y7555074D01*
X-176646Y7551787D01*
X-171080Y7549107D01*
X-165250Y7547066D01*
X-159227Y7545692D01*
X-153088Y7545000D01*
X-146911D01*
X-140772Y7545692D01*
X-134750Y7547066D01*
X-128919Y7549107D01*
X-123353Y7551787D01*
X-118123Y7555074D01*
X-113293Y7558925D01*
X-108925Y7563293D01*
X-105073Y7568123D01*
X-101787Y7573354D01*
X-99106Y7578919D01*
X-97066Y7584750D01*
X-95691Y7590773D01*
X-95000Y7596911D01*
Y7603089D01*
X-95691Y7609227D01*
X-97066Y7615250D01*
X-99106Y7621081D01*
X-101787Y7626646D01*
X-105073Y7631877D01*
X-108925Y7636707D01*
X-113293Y7641075D01*
X-118123Y7644927D01*
X-123353Y7648213D01*
X-128919Y7650893D01*
X-134750Y7652934D01*
X-140772Y7654308D01*
X-146911Y7655000D01*
D02*
G37*
G36*
X-446911D02*
X-453089D01*
X-459227Y7654308D01*
X-465250Y7652934D01*
X-471081Y7650893D01*
X-476646Y7648213D01*
X-481877Y7644927D01*
X-486707Y7641075D01*
X-491075Y7636707D01*
X-494927Y7631877D01*
X-498213Y7626646D01*
X-500893Y7621081D01*
X-502934Y7615250D01*
X-504308Y7609227D01*
X-505000Y7603089D01*
Y7596911D01*
X-504308Y7590773D01*
X-502934Y7584750D01*
X-500893Y7578919D01*
X-498213Y7573354D01*
X-494927Y7568123D01*
X-491075Y7563293D01*
X-486707Y7558925D01*
X-481877Y7555074D01*
X-476646Y7551787D01*
X-471081Y7549107D01*
X-465250Y7547066D01*
X-459227Y7545692D01*
X-453089Y7545000D01*
X-446911D01*
X-440773Y7545692D01*
X-434750Y7547066D01*
X-428919Y7549107D01*
X-423354Y7551787D01*
X-418123Y7555074D01*
X-413293Y7558925D01*
X-408925Y7563293D01*
X-405074Y7568123D01*
X-401787Y7573354D01*
X-399107Y7578919D01*
X-397067Y7584750D01*
X-395692Y7590773D01*
X-395000Y7596911D01*
Y7603089D01*
X-395692Y7609227D01*
X-397067Y7615250D01*
X-399107Y7621081D01*
X-401787Y7626646D01*
X-405074Y7631877D01*
X-408925Y7636707D01*
X-413293Y7641075D01*
X-418123Y7644927D01*
X-423354Y7648213D01*
X-428919Y7650893D01*
X-434750Y7652934D01*
X-440773Y7654308D01*
X-446911Y7655000D01*
D02*
G37*
G36*
X-646911D02*
X-653088D01*
X-659227Y7654308D01*
X-665250Y7652934D01*
X-671080Y7650893D01*
X-676646Y7648213D01*
X-681877Y7644927D01*
X-686707Y7641075D01*
X-691075Y7636707D01*
X-694926Y7631877D01*
X-698213Y7626646D01*
X-700893Y7621081D01*
X-702933Y7615250D01*
X-704308Y7609227D01*
X-705000Y7603089D01*
Y7596911D01*
X-704308Y7590773D01*
X-702933Y7584750D01*
X-700893Y7578919D01*
X-698213Y7573354D01*
X-694926Y7568123D01*
X-691075Y7563293D01*
X-686707Y7558925D01*
X-681877Y7555074D01*
X-676646Y7551787D01*
X-671080Y7549107D01*
X-665250Y7547066D01*
X-659227Y7545692D01*
X-653088Y7545000D01*
X-646911D01*
X-640772Y7545692D01*
X-634750Y7547066D01*
X-628919Y7549107D01*
X-623353Y7551787D01*
X-618123Y7555074D01*
X-613293Y7558925D01*
X-608925Y7563293D01*
X-605073Y7568123D01*
X-601787Y7573354D01*
X-599106Y7578919D01*
X-597066Y7584750D01*
X-595691Y7590773D01*
X-595000Y7596911D01*
Y7603089D01*
X-595691Y7609227D01*
X-597066Y7615250D01*
X-599106Y7621081D01*
X-601787Y7626646D01*
X-605073Y7631877D01*
X-608925Y7636707D01*
X-613293Y7641075D01*
X-618123Y7644927D01*
X-623353Y7648213D01*
X-628919Y7650893D01*
X-634750Y7652934D01*
X-640772Y7654308D01*
X-646911Y7655000D01*
D02*
G37*
G36*
X-946911D02*
X-953089D01*
X-959227Y7654308D01*
X-965250Y7652934D01*
X-971081Y7650893D01*
X-976647Y7648213D01*
X-981877Y7644927D01*
X-986707Y7641075D01*
X-991075Y7636707D01*
X-994927Y7631877D01*
X-998213Y7626646D01*
X-1000893Y7621081D01*
X-1002934Y7615250D01*
X-1004308Y7609227D01*
X-1005000Y7603089D01*
Y7596911D01*
X-1004308Y7590773D01*
X-1002934Y7584750D01*
X-1000893Y7578919D01*
X-998213Y7573354D01*
X-994927Y7568123D01*
X-991075Y7563293D01*
X-986707Y7558925D01*
X-981877Y7555074D01*
X-976647Y7551787D01*
X-971081Y7549107D01*
X-965250Y7547066D01*
X-959227Y7545692D01*
X-953089Y7545000D01*
X-946911D01*
X-940773Y7545692D01*
X-934750Y7547066D01*
X-928919Y7549107D01*
X-923354Y7551787D01*
X-918123Y7555074D01*
X-913293Y7558925D01*
X-908925Y7563293D01*
X-905074Y7568123D01*
X-901787Y7573354D01*
X-899107Y7578919D01*
X-897067Y7584750D01*
X-895692Y7590773D01*
X-895000Y7596911D01*
Y7603089D01*
X-895692Y7609227D01*
X-897067Y7615250D01*
X-899107Y7621081D01*
X-901787Y7626646D01*
X-905074Y7631877D01*
X-908925Y7636707D01*
X-913293Y7641075D01*
X-918123Y7644927D01*
X-923354Y7648213D01*
X-928919Y7650893D01*
X-934750Y7652934D01*
X-940773Y7654308D01*
X-946911Y7655000D01*
D02*
G37*
G36*
X-1146911D02*
X-1153088D01*
X-1159227Y7654308D01*
X-1165250Y7652934D01*
X-1171080Y7650893D01*
X-1176646Y7648213D01*
X-1181877Y7644927D01*
X-1186707Y7641075D01*
X-1191075Y7636707D01*
X-1194926Y7631877D01*
X-1198213Y7626646D01*
X-1200893Y7621081D01*
X-1202933Y7615250D01*
X-1204308Y7609227D01*
X-1205000Y7603089D01*
Y7596911D01*
X-1204308Y7590773D01*
X-1202933Y7584750D01*
X-1200893Y7578919D01*
X-1198213Y7573354D01*
X-1194926Y7568123D01*
X-1191075Y7563293D01*
X-1186707Y7558925D01*
X-1181877Y7555074D01*
X-1176646Y7551787D01*
X-1171080Y7549107D01*
X-1165250Y7547066D01*
X-1159227Y7545692D01*
X-1153088Y7545000D01*
X-1146911D01*
X-1140772Y7545692D01*
X-1134750Y7547066D01*
X-1128919Y7549107D01*
X-1123353Y7551787D01*
X-1118123Y7555074D01*
X-1113293Y7558925D01*
X-1108925Y7563293D01*
X-1105073Y7568123D01*
X-1101787Y7573354D01*
X-1099107Y7578919D01*
X-1097066Y7584750D01*
X-1095691Y7590773D01*
X-1095000Y7596911D01*
Y7603089D01*
X-1095691Y7609227D01*
X-1097066Y7615250D01*
X-1099107Y7621081D01*
X-1101787Y7626646D01*
X-1105073Y7631877D01*
X-1108925Y7636707D01*
X-1113293Y7641075D01*
X-1118123Y7644927D01*
X-1123353Y7648213D01*
X-1128919Y7650893D01*
X-1134750Y7652934D01*
X-1140772Y7654308D01*
X-1146911Y7655000D01*
D02*
G37*
G36*
X-1446912D02*
X-1453089D01*
X-1459227Y7654308D01*
X-1465250Y7652934D01*
X-1471081Y7650893D01*
X-1476647Y7648213D01*
X-1481877Y7644927D01*
X-1486707Y7641075D01*
X-1491075Y7636707D01*
X-1494927Y7631877D01*
X-1498213Y7626646D01*
X-1500893Y7621081D01*
X-1502934Y7615250D01*
X-1504308Y7609227D01*
X-1505000Y7603089D01*
Y7596911D01*
X-1504308Y7590773D01*
X-1502934Y7584750D01*
X-1500893Y7578919D01*
X-1498213Y7573354D01*
X-1494927Y7568123D01*
X-1491075Y7563293D01*
X-1486707Y7558925D01*
X-1481877Y7555074D01*
X-1476647Y7551787D01*
X-1471081Y7549107D01*
X-1465250Y7547066D01*
X-1459227Y7545692D01*
X-1453089Y7545000D01*
X-1446912D01*
X-1440773Y7545692D01*
X-1434750Y7547066D01*
X-1428919Y7549107D01*
X-1423354Y7551787D01*
X-1418123Y7555074D01*
X-1413293Y7558925D01*
X-1408925Y7563293D01*
X-1405074Y7568123D01*
X-1401787Y7573354D01*
X-1399107Y7578919D01*
X-1397067Y7584750D01*
X-1395692Y7590773D01*
X-1395000Y7596911D01*
Y7603089D01*
X-1395692Y7609227D01*
X-1397067Y7615250D01*
X-1399107Y7621081D01*
X-1401787Y7626646D01*
X-1405074Y7631877D01*
X-1408925Y7636707D01*
X-1413293Y7641075D01*
X-1418123Y7644927D01*
X-1423354Y7648213D01*
X-1428919Y7650893D01*
X-1434750Y7652934D01*
X-1440773Y7654308D01*
X-1446912Y7655000D01*
D02*
G37*
G36*
X1337299Y7587300D02*
X1235243D01*
X1235311Y7586426D01*
X1236730Y7577469D01*
X1238847Y7568652D01*
X1241649Y7560027D01*
X1245119Y7551649D01*
X1249236Y7543570D01*
X1253974Y7535838D01*
X1259304Y7528502D01*
X1265194Y7521606D01*
X1271606Y7515194D01*
X1278501Y7509305D01*
X1285838Y7503975D01*
X1293569Y7499236D01*
X1301649Y7495120D01*
X1310027Y7491649D01*
X1318651Y7488847D01*
X1327469Y7486730D01*
X1336426Y7485312D01*
X1337299Y7485243D01*
Y7587300D01*
D02*
G37*
G36*
X1464757D02*
X1362699D01*
Y7485243D01*
X1363574Y7485312D01*
X1372531Y7486730D01*
X1381348Y7488847D01*
X1389973Y7491649D01*
X1398351Y7495120D01*
X1406430Y7499236D01*
X1414162Y7503975D01*
X1421498Y7509305D01*
X1428394Y7515194D01*
X1434806Y7521606D01*
X1440695Y7528502D01*
X1446025Y7535838D01*
X1450763Y7543570D01*
X1454880Y7551649D01*
X1458351Y7560027D01*
X1461153Y7568652D01*
X1463270Y7577469D01*
X1464688Y7586426D01*
X1464757Y7587300D01*
D02*
G37*
G36*
X1054518Y7715000D02*
X1045482D01*
X1036473Y7714291D01*
X1027547Y7712877D01*
X1018760Y7710767D01*
X1010166Y7707975D01*
X1001817Y7704517D01*
X993765Y7700414D01*
X986060Y7695693D01*
X978749Y7690381D01*
X971878Y7684512D01*
X965488Y7678122D01*
X959619Y7671251D01*
X954307Y7663940D01*
X949586Y7656235D01*
X945483Y7648183D01*
X942025Y7639834D01*
X939233Y7631240D01*
X937123Y7622453D01*
X935709Y7613527D01*
X935000Y7604518D01*
Y7595482D01*
X935709Y7586473D01*
X937123Y7577547D01*
X939233Y7568760D01*
X942025Y7560166D01*
X945483Y7551817D01*
X949586Y7543765D01*
X954307Y7536060D01*
X959619Y7528749D01*
X965488Y7521878D01*
X971878Y7515488D01*
X978749Y7509619D01*
X986060Y7504308D01*
X993765Y7499586D01*
X1001817Y7495483D01*
X1010166Y7492025D01*
X1018760Y7489233D01*
X1027547Y7487123D01*
X1036473Y7485709D01*
X1045482Y7485000D01*
X1054518D01*
X1063527Y7485709D01*
X1072453Y7487123D01*
X1081240Y7489233D01*
X1089834Y7492025D01*
X1098183Y7495483D01*
X1106235Y7499586D01*
X1113940Y7504308D01*
X1121250Y7509619D01*
X1128122Y7515488D01*
X1134512Y7521878D01*
X1140381Y7528749D01*
X1145692Y7536060D01*
X1150414Y7543765D01*
X1154517Y7551817D01*
X1157975Y7560166D01*
X1160767Y7568760D01*
X1162877Y7577547D01*
X1164291Y7586473D01*
X1165000Y7595482D01*
Y7604518D01*
X1164291Y7613527D01*
X1162877Y7622453D01*
X1160767Y7631240D01*
X1157975Y7639834D01*
X1154517Y7648183D01*
X1150414Y7656235D01*
X1145692Y7663940D01*
X1140381Y7671251D01*
X1134512Y7678122D01*
X1128122Y7684512D01*
X1121250Y7690381D01*
X1113940Y7695693D01*
X1106235Y7700414D01*
X1098183Y7704517D01*
X1089834Y7707975D01*
X1081240Y7710767D01*
X1072453Y7712877D01*
X1063527Y7714291D01*
X1054518Y7715000D01*
D02*
G37*
G36*
X703089Y7350000D02*
X696911D01*
X690773Y7349308D01*
X684750Y7347934D01*
X678919Y7345893D01*
X673354Y7343213D01*
X668123Y7339927D01*
X663293Y7336075D01*
X658925Y7331707D01*
X656004Y7328044D01*
X650000Y7327064D01*
X643996Y7328044D01*
X641075Y7331707D01*
X636707Y7336075D01*
X631877Y7339926D01*
X626646Y7343213D01*
X621081Y7345893D01*
X615250Y7347933D01*
X609227Y7349308D01*
X603089Y7350000D01*
X596911D01*
X590773Y7349308D01*
X584750Y7347933D01*
X578919Y7345893D01*
X573354Y7343213D01*
X568123Y7339926D01*
X563293Y7336075D01*
X558925Y7331707D01*
X555074Y7326877D01*
X551787Y7321646D01*
X549107Y7316081D01*
X547066Y7310250D01*
X545692Y7304227D01*
X545000Y7298089D01*
Y7291911D01*
X545692Y7285773D01*
X547066Y7279750D01*
X549107Y7273919D01*
X551787Y7268354D01*
X555074Y7263123D01*
X558925Y7258293D01*
X563293Y7253925D01*
X568123Y7250073D01*
X573354Y7246787D01*
X578919Y7244107D01*
X584750Y7242066D01*
X590773Y7240692D01*
X596911Y7240000D01*
X603089D01*
X609227Y7240692D01*
X615250Y7242066D01*
X621081Y7244107D01*
X626646Y7246787D01*
X631877Y7250073D01*
X636707Y7253925D01*
X641075Y7258293D01*
X643996Y7261957D01*
X650000Y7262936D01*
X656004Y7261957D01*
X658925Y7258293D01*
X663293Y7253925D01*
X668123Y7250074D01*
X673354Y7246787D01*
X678919Y7244107D01*
X684750Y7242067D01*
X690773Y7240692D01*
X696911Y7240000D01*
X703089D01*
X709227Y7240692D01*
X715250Y7242067D01*
X721081Y7244107D01*
X726647Y7246787D01*
X731877Y7250074D01*
X736707Y7253925D01*
X741075Y7258293D01*
X744927Y7263123D01*
X748213Y7268354D01*
X750893Y7273919D01*
X752934Y7279750D01*
X754308Y7285773D01*
X755000Y7291912D01*
Y7298089D01*
X754308Y7304227D01*
X752934Y7310250D01*
X750893Y7316081D01*
X748213Y7321647D01*
X744927Y7326877D01*
X741075Y7331707D01*
X736707Y7336075D01*
X731877Y7339927D01*
X726647Y7343213D01*
X721081Y7345893D01*
X715250Y7347934D01*
X709227Y7349308D01*
X703089Y7350000D01*
D02*
G37*
G36*
X253313Y7425000D02*
X240687D01*
X228082Y7424292D01*
X215535Y7422879D01*
X203088Y7420764D01*
X190778Y7417954D01*
X178646Y7414459D01*
X166729Y7410289D01*
X155064Y7405457D01*
X143689Y7399979D01*
X132638Y7393872D01*
X121948Y7387155D01*
X111651Y7379848D01*
X101780Y7371976D01*
X92365Y7363563D01*
X83437Y7354636D01*
X75024Y7345221D01*
X67152Y7335350D01*
X59846Y7325053D01*
X53129Y7314362D01*
X47021Y7303312D01*
X41543Y7291936D01*
X36712Y7280272D01*
X32542Y7268355D01*
X29046Y7256222D01*
X26237Y7243913D01*
X24122Y7231466D01*
X22708Y7218919D01*
X22000Y7206313D01*
Y7193687D01*
X22708Y7181082D01*
X24122Y7168535D01*
X26237Y7156088D01*
X29046Y7143778D01*
X32542Y7131646D01*
X36712Y7119729D01*
X41543Y7108064D01*
X47021Y7096689D01*
X53129Y7085638D01*
X59846Y7074948D01*
X67152Y7064651D01*
X75024Y7054780D01*
X83437Y7045365D01*
X92365Y7036438D01*
X101780Y7028024D01*
X111651Y7020152D01*
X121948Y7012846D01*
X132638Y7006129D01*
X143689Y7000022D01*
X155064Y6994543D01*
X166729Y6989712D01*
X178646Y6985542D01*
X190778Y6982046D01*
X203088Y6979237D01*
X215535Y6977122D01*
X228082Y6975708D01*
X240687Y6975001D01*
X253313D01*
X265919Y6975708D01*
X278466Y6977122D01*
X290913Y6979237D01*
X303222Y6982046D01*
X315354Y6985542D01*
X327272Y6989712D01*
X338936Y6994543D01*
X350312Y7000022D01*
X361362Y7006129D01*
X372053Y7012846D01*
X382350Y7020152D01*
X392221Y7028024D01*
X401635Y7036438D01*
X410563Y7045365D01*
X418976Y7054780D01*
X426848Y7064651D01*
X434155Y7074948D01*
X440872Y7085638D01*
X446979Y7096689D01*
X452457Y7108064D01*
X457289Y7119729D01*
X461459Y7131646D01*
X464954Y7143778D01*
X467764Y7156088D01*
X469879Y7168535D01*
X471292Y7181082D01*
X472000Y7193687D01*
Y7206313D01*
X471292Y7218919D01*
X469879Y7231466D01*
X467764Y7243913D01*
X464954Y7256222D01*
X461459Y7268355D01*
X457289Y7280272D01*
X452457Y7291936D01*
X446979Y7303312D01*
X440872Y7314362D01*
X434155Y7325053D01*
X426848Y7335350D01*
X418976Y7345221D01*
X410563Y7354636D01*
X401635Y7363563D01*
X392221Y7371976D01*
X382350Y7379848D01*
X372053Y7387155D01*
X361362Y7393872D01*
X350312Y7399979D01*
X338936Y7405457D01*
X327272Y7410289D01*
X315354Y7414459D01*
X303222Y7417954D01*
X290913Y7420764D01*
X278466Y7422879D01*
X265919Y7424292D01*
X253313Y7425000D01*
D02*
G37*
G36*
X153089Y6905000D02*
X146911D01*
X140773Y6904308D01*
X134750Y6902934D01*
X128919Y6900893D01*
X123354Y6898213D01*
X118123Y6894927D01*
X113293Y6891075D01*
X108925Y6886707D01*
X106004Y6883044D01*
X100000Y6882064D01*
X93996Y6883044D01*
X91075Y6886707D01*
X86707Y6891075D01*
X81877Y6894927D01*
X76646Y6898213D01*
X71081Y6900893D01*
X65250Y6902934D01*
X59227Y6904308D01*
X53089Y6905000D01*
X46911D01*
X40773Y6904308D01*
X34750Y6902934D01*
X28919Y6900893D01*
X23354Y6898213D01*
X18123Y6894927D01*
X13293Y6891075D01*
X8925Y6886707D01*
X5073Y6881877D01*
X1787Y6876646D01*
X-893Y6871081D01*
X-2934Y6865250D01*
X-4308Y6859227D01*
X-5000Y6853089D01*
Y6846911D01*
X-4308Y6840773D01*
X-2934Y6834750D01*
X-893Y6828919D01*
X1787Y6823354D01*
X5073Y6818123D01*
X8925Y6813293D01*
X13293Y6808925D01*
X16956Y6806004D01*
X17936Y6800000D01*
X16956Y6793996D01*
X13293Y6791075D01*
X8925Y6786707D01*
X5073Y6781877D01*
X1787Y6776646D01*
X-893Y6771081D01*
X-2934Y6765250D01*
X-4308Y6759227D01*
X-5000Y6753089D01*
Y6746911D01*
X-4308Y6740773D01*
X-2934Y6734750D01*
X-893Y6728919D01*
X1787Y6723354D01*
X5073Y6718123D01*
X8925Y6713293D01*
X13293Y6708925D01*
X16956Y6706004D01*
X17936Y6700000D01*
X16956Y6693996D01*
X13293Y6691075D01*
X8925Y6686707D01*
X5073Y6681877D01*
X1787Y6676646D01*
X-893Y6671081D01*
X-2934Y6665250D01*
X-4308Y6659227D01*
X-5000Y6653089D01*
Y6646911D01*
X-4308Y6640773D01*
X-2934Y6634750D01*
X-893Y6628919D01*
X1787Y6623354D01*
X5073Y6618123D01*
X8925Y6613293D01*
X13293Y6608925D01*
X18123Y6605073D01*
X23354Y6601787D01*
X28919Y6599107D01*
X34750Y6597066D01*
X40773Y6595692D01*
X46911Y6595000D01*
X53089D01*
X58242Y6595581D01*
X60319Y6593607D01*
X64027Y6586530D01*
X63694Y6586072D01*
X63181Y6585234D01*
X62600Y6584435D01*
X57591Y6576261D01*
X57143Y6575382D01*
X56629Y6574543D01*
X52277Y6566001D01*
X51899Y6565089D01*
X51453Y6564213D01*
X47784Y6555356D01*
X47479Y6554418D01*
X47102Y6553508D01*
X44140Y6544391D01*
X43910Y6543433D01*
X43605Y6542496D01*
X41367Y6533174D01*
X41213Y6532202D01*
X40983Y6531242D01*
X39483Y6521774D01*
X39406Y6520791D01*
X39252Y6519818D01*
X38500Y6510261D01*
Y6509275D01*
X38423Y6508294D01*
Y6503500D01*
Y5616000D01*
Y5611206D01*
X38500Y5610225D01*
Y5609239D01*
X39252Y5599682D01*
X39406Y5598709D01*
X39483Y5597726D01*
X40983Y5588257D01*
X41213Y5587298D01*
X41367Y5586326D01*
X43605Y5577004D01*
X43910Y5576067D01*
X44140Y5575109D01*
X47102Y5565992D01*
X47479Y5565081D01*
X47784Y5564144D01*
X51453Y5555287D01*
X51899Y5554410D01*
X52277Y5553499D01*
X56629Y5544957D01*
X57144Y5544117D01*
X57591Y5543239D01*
X62600Y5535065D01*
X63180Y5534267D01*
X63694Y5533428D01*
X69329Y5525672D01*
X69969Y5524923D01*
X70548Y5524126D01*
X76774Y5516836D01*
X77471Y5516140D01*
X78111Y5515390D01*
X84890Y5508611D01*
X85640Y5507970D01*
X86336Y5507274D01*
X93626Y5501048D01*
X94421Y5500470D01*
X95172Y5499829D01*
X102928Y5494194D01*
X103766Y5493681D01*
X104565Y5493100D01*
X112739Y5488091D01*
X113618Y5487643D01*
X114457Y5487129D01*
X122999Y5482776D01*
X123911Y5482399D01*
X124787Y5481952D01*
X133644Y5478284D01*
X134581Y5477979D01*
X135492Y5477602D01*
X144609Y5474640D01*
X145567Y5474410D01*
X146504Y5474105D01*
X155826Y5471867D01*
X156798Y5471713D01*
X157757Y5471483D01*
X167226Y5469983D01*
X168209Y5469906D01*
X169182Y5469752D01*
X178739Y5469000D01*
X179725D01*
X180706Y5468923D01*
X260793D01*
X261774Y5469000D01*
X262760D01*
X272317Y5469752D01*
X273290Y5469906D01*
X274273Y5469983D01*
X283742Y5471483D01*
X284701Y5471713D01*
X285673Y5471867D01*
X294995Y5474105D01*
X295932Y5474410D01*
X296890Y5474640D01*
X306008Y5477602D01*
X306918Y5477979D01*
X307855Y5478284D01*
X316712Y5481952D01*
X317589Y5482399D01*
X318500Y5482776D01*
X327042Y5487129D01*
X327882Y5487644D01*
X328761Y5488091D01*
X336935Y5493100D01*
X337732Y5493680D01*
X338572Y5494194D01*
X346327Y5499829D01*
X347076Y5500469D01*
X347874Y5501048D01*
X355163Y5507274D01*
X355860Y5507970D01*
X356609Y5508611D01*
X363388Y5515390D01*
X364029Y5516140D01*
X364725Y5516836D01*
X370951Y5524126D01*
X371529Y5524921D01*
X372170Y5525672D01*
X377805Y5533428D01*
X378318Y5534266D01*
X378899Y5535065D01*
X383908Y5543239D01*
X384356Y5544118D01*
X384870Y5544957D01*
X389223Y5553499D01*
X389600Y5554411D01*
X390047Y5555287D01*
X393715Y5564144D01*
X394020Y5565081D01*
X394397Y5565992D01*
X397360Y5575109D01*
X397590Y5576067D01*
X397894Y5577004D01*
X400132Y5586326D01*
X400286Y5587297D01*
X400516Y5588257D01*
X402016Y5597726D01*
X402093Y5598708D01*
X402247Y5599681D01*
X403000Y5609238D01*
Y5610225D01*
X403077Y5611206D01*
Y5616000D01*
Y6503500D01*
Y6508294D01*
X402999Y6509278D01*
Y6510262D01*
X402247Y6519819D01*
X402093Y6520792D01*
X402016Y6521773D01*
X400516Y6531242D01*
X400286Y6532202D01*
X400132Y6533174D01*
X397894Y6542496D01*
X397590Y6543433D01*
X397360Y6544391D01*
X394397Y6553508D01*
X394020Y6554419D01*
X393715Y6555356D01*
X390047Y6564213D01*
X389600Y6565089D01*
X389223Y6566001D01*
X384870Y6574543D01*
X384356Y6575383D01*
X383908Y6576261D01*
X378899Y6584435D01*
X378319Y6585233D01*
X377805Y6586072D01*
X372170Y6593828D01*
X371531Y6594576D01*
X370951Y6595374D01*
X364725Y6602664D01*
X364029Y6603360D01*
X363388Y6604110D01*
X356609Y6610889D01*
X355860Y6611529D01*
X355163Y6612226D01*
X347874Y6618452D01*
X347078Y6619030D01*
X346327Y6619671D01*
X338571Y6625306D01*
X337734Y6625819D01*
X336935Y6626399D01*
X328761Y6631409D01*
X327881Y6631856D01*
X327042Y6632371D01*
X318500Y6636723D01*
X317589Y6637101D01*
X316712Y6637547D01*
X307855Y6641216D01*
X306918Y6641521D01*
X306008Y6641898D01*
X296890Y6644860D01*
X295933Y6645090D01*
X294995Y6645395D01*
X285673Y6647633D01*
X284702Y6647787D01*
X283742Y6648017D01*
X274273Y6649517D01*
X273291Y6649594D01*
X272318Y6649748D01*
X262761Y6650500D01*
X261774D01*
X260793Y6650578D01*
X180706D01*
X179722Y6650500D01*
X178738D01*
X169181Y6649748D01*
X168208Y6649594D01*
X167226Y6649517D01*
X157757Y6648017D01*
X156798Y6647787D01*
X155826Y6647633D01*
X146504Y6645395D01*
X145567Y6645090D01*
X144609Y6644860D01*
X135492Y6641898D01*
X134581Y6641521D01*
X133644Y6641216D01*
X124787Y6637547D01*
X123910Y6637101D01*
X122999Y6636723D01*
X114457Y6632371D01*
X113617Y6631856D01*
X112739Y6631409D01*
X112255Y6631112D01*
X109297Y6632267D01*
X103565Y6637515D01*
X104308Y6640773D01*
X105000Y6646911D01*
Y6653089D01*
X104308Y6659227D01*
X102934Y6665250D01*
X100893Y6671081D01*
X98213Y6676646D01*
X94926Y6681877D01*
X91075Y6686707D01*
X86707Y6691075D01*
X83044Y6693996D01*
X82064Y6700000D01*
X83044Y6706004D01*
X86707Y6708925D01*
X91075Y6713293D01*
X93996Y6716956D01*
X100000Y6717936D01*
X106004Y6716956D01*
X108925Y6713293D01*
X113293Y6708925D01*
X118123Y6705073D01*
X123354Y6701787D01*
X128919Y6699107D01*
X134750Y6697066D01*
X140773Y6695692D01*
X146911Y6695000D01*
X153089D01*
X159227Y6695692D01*
X165250Y6697066D01*
X171081Y6699107D01*
X176646Y6701787D01*
X181877Y6705073D01*
X186707Y6708925D01*
X191075Y6713293D01*
X194926Y6718123D01*
X198213Y6723354D01*
X200893Y6728919D01*
X202934Y6734750D01*
X204308Y6740773D01*
X205000Y6746911D01*
Y6753089D01*
X204308Y6759227D01*
X202934Y6765250D01*
X200893Y6771081D01*
X198213Y6776646D01*
X194926Y6781877D01*
X191075Y6786707D01*
X186707Y6791075D01*
X183044Y6793996D01*
X182064Y6800000D01*
X183044Y6806004D01*
X186707Y6808925D01*
X191075Y6813293D01*
X194926Y6818123D01*
X198213Y6823354D01*
X200893Y6828919D01*
X202934Y6834750D01*
X204308Y6840773D01*
X205000Y6846911D01*
Y6853089D01*
X204308Y6859227D01*
X202934Y6865250D01*
X200893Y6871081D01*
X198213Y6876646D01*
X194926Y6881877D01*
X191075Y6886707D01*
X186707Y6891075D01*
X181877Y6894927D01*
X176646Y6898213D01*
X171081Y6900893D01*
X165250Y6902934D01*
X159227Y6904308D01*
X153089Y6905000D01*
D02*
G37*
G36*
X963089Y6962500D02*
X956911D01*
X950773Y6961808D01*
X944750Y6960434D01*
X938919Y6958393D01*
X933354Y6955713D01*
X928123Y6952427D01*
X923293Y6948575D01*
X918925Y6944207D01*
X915074Y6939377D01*
X911787Y6934146D01*
X909107Y6928581D01*
X907067Y6922750D01*
X905692Y6916727D01*
X905000Y6910589D01*
Y6904411D01*
X905692Y6898273D01*
X907067Y6892250D01*
X909107Y6886419D01*
X911787Y6880854D01*
X915074Y6875623D01*
X918925Y6870793D01*
X923293Y6866425D01*
X928123Y6862574D01*
X933354Y6859287D01*
X938919Y6856607D01*
X944750Y6854566D01*
X950773Y6853192D01*
X956911Y6852500D01*
X963089D01*
X969227Y6853192D01*
X975250Y6854566D01*
X981081Y6856607D01*
X986646Y6859287D01*
X991877Y6862574D01*
X996707Y6866425D01*
X1001075Y6870793D01*
X1004927Y6875623D01*
X1008213Y6880854D01*
X1010893Y6886419D01*
X1012934Y6892250D01*
X1014308Y6898273D01*
X1015000Y6904411D01*
Y6910589D01*
X1014308Y6916727D01*
X1012934Y6922750D01*
X1010893Y6928581D01*
X1008213Y6934146D01*
X1004927Y6939377D01*
X1001075Y6944207D01*
X996707Y6948575D01*
X991877Y6952427D01*
X986646Y6955713D01*
X981081Y6958393D01*
X975250Y6960434D01*
X969227Y6961808D01*
X963089Y6962500D01*
D02*
G37*
G36*
X363089D02*
X356911D01*
X350773Y6961808D01*
X344750Y6960434D01*
X338919Y6958393D01*
X333354Y6955713D01*
X328123Y6952427D01*
X323293Y6948575D01*
X318925Y6944207D01*
X315074Y6939377D01*
X311787Y6934146D01*
X309107Y6928581D01*
X307066Y6922750D01*
X305692Y6916727D01*
X305000Y6910589D01*
Y6904411D01*
X305692Y6898273D01*
X307066Y6892250D01*
X309107Y6886419D01*
X311787Y6880854D01*
X315074Y6875623D01*
X318925Y6870793D01*
X323293Y6866425D01*
X328123Y6862574D01*
X333354Y6859287D01*
X338919Y6856607D01*
X344750Y6854566D01*
X350773Y6853192D01*
X356911Y6852500D01*
X363089D01*
X369227Y6853192D01*
X375250Y6854566D01*
X381081Y6856607D01*
X386646Y6859287D01*
X391877Y6862574D01*
X396707Y6866425D01*
X401075Y6870793D01*
X404927Y6875623D01*
X408213Y6880854D01*
X410893Y6886419D01*
X412934Y6892250D01*
X414308Y6898273D01*
X415000Y6904411D01*
Y6910589D01*
X414308Y6916727D01*
X412934Y6922750D01*
X410893Y6928581D01*
X408213Y6934146D01*
X404927Y6939377D01*
X401075Y6944207D01*
X396707Y6948575D01*
X391877Y6952427D01*
X386646Y6955713D01*
X381081Y6958393D01*
X375250Y6960434D01*
X369227Y6961808D01*
X363089Y6962500D01*
D02*
G37*
G36*
X843589Y6875000D02*
X837411D01*
X831273Y6874308D01*
X825250Y6872933D01*
X819419Y6870893D01*
X813854Y6868213D01*
X808623Y6864926D01*
X803793Y6861075D01*
X799425Y6856707D01*
X795573Y6851877D01*
X792287Y6846646D01*
X789607Y6841081D01*
X787566Y6835250D01*
X786192Y6829227D01*
X785500Y6823088D01*
Y6816911D01*
X786192Y6810773D01*
X787566Y6804750D01*
X789607Y6798919D01*
X792287Y6793353D01*
X795573Y6788123D01*
X799425Y6783293D01*
X803793Y6778925D01*
X808623Y6775073D01*
X813854Y6771787D01*
X819419Y6769107D01*
X825250Y6767066D01*
X831273Y6765692D01*
X837411Y6765000D01*
X843589D01*
X849727Y6765692D01*
X855750Y6767066D01*
X861581Y6769107D01*
X867146Y6771787D01*
X872377Y6775073D01*
X877207Y6778925D01*
X881575Y6783293D01*
X885426Y6788123D01*
X888713Y6793353D01*
X891393Y6798919D01*
X893434Y6804750D01*
X894808Y6810773D01*
X895500Y6816911D01*
Y6823088D01*
X894808Y6829227D01*
X893434Y6835250D01*
X891393Y6841081D01*
X888713Y6846646D01*
X885426Y6851877D01*
X881575Y6856707D01*
X877207Y6861075D01*
X872377Y6864926D01*
X867146Y6868213D01*
X861581Y6870893D01*
X855750Y6872933D01*
X849727Y6874308D01*
X843589Y6875000D01*
D02*
G37*
G36*
X-800000Y6650594D02*
X-810493Y6650219D01*
X-820933Y6649097D01*
X-831267Y6647232D01*
X-841441Y6644635D01*
X-851404Y6641319D01*
X-861105Y6637301D01*
X-870494Y6632601D01*
X-879525Y6627243D01*
X-888150Y6621255D01*
X-896326Y6614666D01*
X-904011Y6607511D01*
X-911166Y6599826D01*
X-917754Y6591650D01*
X-923743Y6583025D01*
X-929101Y6573994D01*
X-933801Y6564605D01*
X-937819Y6554904D01*
X-941135Y6544941D01*
X-943732Y6534767D01*
X-945596Y6524434D01*
X-946718Y6513994D01*
X-947093Y6503500D01*
Y6387500D01*
X-946718Y6377007D01*
X-945596Y6366567D01*
X-943732Y6356233D01*
X-941135Y6346059D01*
X-937819Y6336096D01*
X-933801Y6326395D01*
X-929101Y6317006D01*
X-923743Y6307975D01*
X-917754Y6299350D01*
X-911166Y6291174D01*
X-904011Y6283489D01*
X-896326Y6276334D01*
X-888150Y6269746D01*
X-879525Y6263757D01*
X-870494Y6258399D01*
X-861105Y6253699D01*
X-851404Y6249681D01*
X-841441Y6246365D01*
X-831267Y6243768D01*
X-820933Y6241904D01*
X-810493Y6240782D01*
X-800000Y6240407D01*
X-789506Y6240782D01*
X-779066Y6241904D01*
X-768733Y6243768D01*
X-758559Y6246365D01*
X-748596Y6249681D01*
X-738895Y6253699D01*
X-729505Y6258399D01*
X-720475Y6263757D01*
X-711850Y6269746D01*
X-703674Y6276334D01*
X-695989Y6283489D01*
X-688834Y6291174D01*
X-682245Y6299350D01*
X-676257Y6307975D01*
X-670899Y6317006D01*
X-666199Y6326395D01*
X-662180Y6336096D01*
X-658864Y6346059D01*
X-656267Y6356233D01*
X-654403Y6366567D01*
X-653281Y6377007D01*
X-652906Y6387500D01*
Y6503500D01*
X-653281Y6513994D01*
X-654403Y6524434D01*
X-656267Y6534767D01*
X-658864Y6544941D01*
X-662180Y6554904D01*
X-666199Y6564605D01*
X-670899Y6573994D01*
X-676257Y6583025D01*
X-682245Y6591650D01*
X-688834Y6599826D01*
X-695989Y6607511D01*
X-703674Y6614666D01*
X-711850Y6621255D01*
X-720475Y6627243D01*
X-729505Y6632601D01*
X-738895Y6637301D01*
X-748596Y6641319D01*
X-758559Y6644635D01*
X-768733Y6647232D01*
X-779066Y6649097D01*
X-789506Y6650219D01*
X-800000Y6650594D01*
D02*
G37*
G36*
X-1085000Y5920000D02*
X-1315000D01*
Y5740000D01*
X-1085000D01*
Y5920000D01*
D02*
G37*
G36*
X-256000Y6650594D02*
X-256455Y6650578D01*
X-260793D01*
X-261777Y6650500D01*
X-262761D01*
X-266202Y6650229D01*
X-266493Y6650219D01*
X-266928Y6650172D01*
X-272318Y6649748D01*
X-273291Y6649594D01*
X-274273Y6649517D01*
X-276905Y6649100D01*
X-276933Y6649097D01*
X-277000Y6649085D01*
X-283742Y6648017D01*
X-284702Y6647787D01*
X-285674Y6647633D01*
X-294995Y6645395D01*
X-295932Y6645090D01*
X-296890Y6644860D01*
X-306008Y6641898D01*
X-306918Y6641521D01*
X-307856Y6641216D01*
X-316713Y6637547D01*
X-317589Y6637101D01*
X-318500Y6636723D01*
X-327042Y6632371D01*
X-327882Y6631856D01*
X-328761Y6631409D01*
X-336935Y6626399D01*
X-337733Y6625820D01*
X-338572Y6625306D01*
X-344091Y6621295D01*
X-344150Y6621255D01*
X-344173Y6621236D01*
X-346327Y6619671D01*
X-347076Y6619031D01*
X-347874Y6618452D01*
X-351981Y6614944D01*
X-352326Y6614666D01*
X-352542Y6614465D01*
X-355164Y6612226D01*
X-355860Y6611529D01*
X-356610Y6610889D01*
X-359676Y6607823D01*
X-360011Y6607511D01*
X-360323Y6607176D01*
X-363389Y6604110D01*
X-364029Y6603360D01*
X-364725Y6602664D01*
X-366965Y6600042D01*
X-367166Y6599826D01*
X-367443Y6599481D01*
X-370951Y6595374D01*
X-371529Y6594578D01*
X-372170Y6593828D01*
X-373737Y6591672D01*
X-373754Y6591650D01*
X-373792Y6591596D01*
X-377805Y6586072D01*
X-378319Y6585234D01*
X-378899Y6584435D01*
X-383908Y6576261D01*
X-384356Y6575382D01*
X-384870Y6574543D01*
X-389223Y6566001D01*
X-389600Y6565089D01*
X-390047Y6564213D01*
X-393716Y6555356D01*
X-394020Y6554418D01*
X-394397Y6553508D01*
X-397360Y6544391D01*
X-397590Y6543433D01*
X-397894Y6542496D01*
X-400132Y6533174D01*
X-400286Y6532202D01*
X-400517Y6531242D01*
X-401585Y6524499D01*
X-401596Y6524434D01*
X-401599Y6524406D01*
X-402016Y6521774D01*
X-402093Y6520791D01*
X-402248Y6519818D01*
X-402672Y6514430D01*
X-402719Y6513994D01*
X-402729Y6513701D01*
X-403000Y6510261D01*
Y6509275D01*
X-403077Y6508294D01*
Y6503962D01*
X-403093Y6503500D01*
Y6387500D01*
X-403077Y6387038D01*
Y5716000D01*
X-402768Y5712077D01*
X-401850Y5708250D01*
X-400344Y5704615D01*
X-398287Y5701260D01*
X-395732Y5698267D01*
X-392740Y5695712D01*
X-389385Y5693656D01*
X-385749Y5692150D01*
X-381923Y5691231D01*
X-378000Y5690923D01*
X-63500D01*
X-59577Y5691231D01*
X-55750Y5692150D01*
X-52115Y5693656D01*
X-48760Y5695712D01*
X-45767Y5698267D01*
X-43212Y5701260D01*
X-41156Y5704615D01*
X-39650Y5708250D01*
X-38731Y5712077D01*
X-38423Y5716000D01*
Y6508294D01*
X-38500Y6509278D01*
Y6510262D01*
X-39252Y6519819D01*
X-39406Y6520792D01*
X-39484Y6521773D01*
X-40983Y6531242D01*
X-41214Y6532202D01*
X-41367Y6533174D01*
X-43605Y6542496D01*
X-43910Y6543433D01*
X-44140Y6544391D01*
X-47102Y6553508D01*
X-47479Y6554419D01*
X-47784Y6555356D01*
X-51453Y6564213D01*
X-51899Y6565089D01*
X-52277Y6566001D01*
X-56629Y6574543D01*
X-57144Y6575383D01*
X-57591Y6576261D01*
X-62601Y6584435D01*
X-63180Y6585233D01*
X-63695Y6586072D01*
X-69330Y6593828D01*
X-69969Y6594576D01*
X-70548Y6595374D01*
X-76775Y6602664D01*
X-77471Y6603360D01*
X-78111Y6604110D01*
X-84890Y6610889D01*
X-85640Y6611529D01*
X-86336Y6612226D01*
X-93626Y6618452D01*
X-94422Y6619030D01*
X-95172Y6619671D01*
X-102928Y6625306D01*
X-103766Y6625819D01*
X-104565Y6626399D01*
X-112739Y6631409D01*
X-113618Y6631856D01*
X-114457Y6632371D01*
X-122999Y6636723D01*
X-123911Y6637101D01*
X-124787Y6637547D01*
X-133644Y6641216D01*
X-134582Y6641521D01*
X-135492Y6641898D01*
X-144610Y6644860D01*
X-145567Y6645090D01*
X-146504Y6645395D01*
X-155826Y6647633D01*
X-156798Y6647787D01*
X-157758Y6648017D01*
X-167226Y6649517D01*
X-168209Y6649594D01*
X-169181Y6649748D01*
X-178739Y6650500D01*
X-179725D01*
X-180707Y6650578D01*
X-255545D01*
X-256000Y6650594D01*
D02*
G37*
G36*
X1747760Y5545212D02*
X1739028Y5545211D01*
X1730329Y5544451D01*
X1721730Y5542934D01*
X1713295Y5540674D01*
X1705090Y5537688D01*
X1697175Y5533997D01*
X1689613Y5529631D01*
X1682460Y5524623D01*
X1675771Y5519010D01*
X1669597Y5512835D01*
X1663983Y5506146D01*
X1658975Y5498993D01*
X1654609Y5491431D01*
X1650919Y5483517D01*
X1647932Y5475311D01*
X1645672Y5466877D01*
X1644155Y5458277D01*
X1643394Y5449578D01*
X1643395Y5440846D01*
X1644155Y5432147D01*
X1645672Y5423547D01*
X1647932Y5415113D01*
X1650918Y5406907D01*
X1654609Y5398993D01*
X1658975Y5391431D01*
X1663983Y5384278D01*
X1669596Y5377589D01*
X1675771Y5371414D01*
X1682460Y5365801D01*
X1689613Y5360792D01*
X1697175Y5356426D01*
X1705090Y5352736D01*
X1713295Y5349750D01*
X1721730Y5347489D01*
X1730329Y5345973D01*
X1739028Y5345212D01*
X1747760Y5345212D01*
X1756459Y5345973D01*
X1765059Y5347489D01*
X1773493Y5349750D01*
X1781699Y5352736D01*
X1789613Y5356426D01*
X1797175Y5360793D01*
X1804328Y5365801D01*
X1811017Y5371414D01*
X1817192Y5377588D01*
X1822805Y5384278D01*
X1827814Y5391431D01*
X1832180Y5398993D01*
X1835870Y5406907D01*
X1838857Y5415113D01*
X1841117Y5423547D01*
X1842633Y5432147D01*
X1843394Y5440846D01*
X1843394Y5449578D01*
X1842633Y5458277D01*
X1841117Y5466877D01*
X1838857Y5475311D01*
X1835870Y5483517D01*
X1832180Y5491431D01*
X1827813Y5498993D01*
X1822805Y5506146D01*
X1817192Y5512835D01*
X1811018Y5519010D01*
X1804328Y5524623D01*
X1797175Y5529631D01*
X1789613Y5533997D01*
X1781699Y5537687D01*
X1773494Y5540674D01*
X1765059Y5542934D01*
X1756459Y5544451D01*
X1747760Y5545212D01*
D02*
G37*
G36*
X554366Y5500000D02*
X545634D01*
X536935Y5499239D01*
X528336Y5497722D01*
X519901Y5495462D01*
X511695Y5492476D01*
X503781Y5488785D01*
X496219Y5484419D01*
X489066Y5479411D01*
X482377Y5473798D01*
X476202Y5467623D01*
X470589Y5460934D01*
X465581Y5453781D01*
X461215Y5446219D01*
X457524Y5438305D01*
X454538Y5430099D01*
X452278Y5421664D01*
X450761Y5413065D01*
X450000Y5404366D01*
Y5395634D01*
X450761Y5386935D01*
X452278Y5378335D01*
X454538Y5369901D01*
X457524Y5361695D01*
X461215Y5353781D01*
X465581Y5346219D01*
X470589Y5339066D01*
X476202Y5332377D01*
X482377Y5326202D01*
X489066Y5320589D01*
X496219Y5315581D01*
X503781Y5311214D01*
X511695Y5307524D01*
X519901Y5304538D01*
X528336Y5302277D01*
X536935Y5300761D01*
X545634Y5300000D01*
X554366D01*
X563065Y5300761D01*
X571665Y5302277D01*
X580099Y5304538D01*
X588305Y5307524D01*
X596219Y5311214D01*
X603781Y5315581D01*
X610934Y5320589D01*
X617623Y5326202D01*
X623798Y5332377D01*
X629411Y5339066D01*
X634419Y5346219D01*
X638786Y5353781D01*
X642476Y5361695D01*
X645463Y5369901D01*
X647723Y5378335D01*
X649239Y5386935D01*
X650000Y5395634D01*
Y5404366D01*
X649239Y5413065D01*
X647723Y5421664D01*
X645463Y5430099D01*
X642476Y5438305D01*
X638786Y5446219D01*
X634419Y5453781D01*
X629411Y5460934D01*
X623798Y5467623D01*
X617623Y5473798D01*
X610934Y5479411D01*
X603781Y5484419D01*
X596219Y5488785D01*
X588305Y5492476D01*
X580099Y5495462D01*
X571665Y5497722D01*
X563065Y5499239D01*
X554366Y5500000D01*
D02*
G37*
G36*
X-545634D02*
X-554366D01*
X-563065Y5499239D01*
X-571664Y5497722D01*
X-580099Y5495462D01*
X-588305Y5492476D01*
X-596219Y5488785D01*
X-603781Y5484419D01*
X-610934Y5479411D01*
X-617623Y5473798D01*
X-623798Y5467623D01*
X-629411Y5460934D01*
X-634419Y5453781D01*
X-638785Y5446219D01*
X-642476Y5438305D01*
X-645462Y5430099D01*
X-647722Y5421664D01*
X-649239Y5413065D01*
X-650000Y5404366D01*
Y5395634D01*
X-649239Y5386935D01*
X-647722Y5378335D01*
X-645462Y5369901D01*
X-642476Y5361695D01*
X-638785Y5353781D01*
X-634419Y5346219D01*
X-629411Y5339066D01*
X-623798Y5332377D01*
X-617623Y5326202D01*
X-610934Y5320589D01*
X-603781Y5315581D01*
X-596219Y5311214D01*
X-588305Y5307524D01*
X-580099Y5304538D01*
X-571664Y5302277D01*
X-563065Y5300761D01*
X-554366Y5300000D01*
X-545634D01*
X-536935Y5300761D01*
X-528335Y5302277D01*
X-519901Y5304538D01*
X-511695Y5307524D01*
X-503781Y5311214D01*
X-496219Y5315581D01*
X-489066Y5320589D01*
X-482377Y5326202D01*
X-476202Y5332377D01*
X-470589Y5339066D01*
X-465581Y5346219D01*
X-461214Y5353781D01*
X-457524Y5361695D01*
X-454538Y5369901D01*
X-452277Y5378335D01*
X-450761Y5386935D01*
X-450000Y5395634D01*
Y5404366D01*
X-450761Y5413065D01*
X-452277Y5421664D01*
X-454538Y5430099D01*
X-457524Y5438305D01*
X-461214Y5446219D01*
X-465581Y5453781D01*
X-470589Y5460934D01*
X-476202Y5467623D01*
X-482377Y5473798D01*
X-489066Y5479411D01*
X-496219Y5484419D01*
X-503781Y5488785D01*
X-511695Y5492476D01*
X-519901Y5495462D01*
X-528335Y5497722D01*
X-536935Y5499239D01*
X-545634Y5500000D01*
D02*
G37*
G36*
X715588Y5045000D02*
X709411D01*
X703272Y5044308D01*
X697250Y5042933D01*
X691419Y5040893D01*
X685853Y5038213D01*
X680623Y5034926D01*
X675793Y5031075D01*
X671425Y5026706D01*
X668504Y5023043D01*
X662500Y5022064D01*
X656496Y5023043D01*
X653575Y5026706D01*
X649207Y5031075D01*
X644377Y5034926D01*
X639146Y5038213D01*
X633581Y5040893D01*
X627750Y5042933D01*
X621727Y5044308D01*
X615589Y5045000D01*
X609411D01*
X603273Y5044308D01*
X597250Y5042933D01*
X591419Y5040893D01*
X585854Y5038213D01*
X580623Y5034926D01*
X575793Y5031075D01*
X571425Y5026706D01*
X567573Y5021877D01*
X564287Y5016646D01*
X561607Y5011080D01*
X559566Y5005250D01*
X558192Y4999227D01*
X557500Y4993088D01*
Y4986911D01*
X558192Y4980772D01*
X559566Y4974750D01*
X561607Y4968919D01*
X564287Y4963353D01*
X567573Y4958123D01*
X571425Y4953293D01*
X575793Y4948925D01*
X579456Y4946004D01*
X580435Y4940000D01*
X579456Y4933996D01*
X575793Y4931075D01*
X571425Y4926707D01*
X567573Y4921877D01*
X564287Y4916646D01*
X561607Y4911081D01*
X559566Y4905250D01*
X558192Y4899227D01*
X557500Y4893089D01*
Y4886911D01*
X558192Y4880773D01*
X559566Y4874750D01*
X561607Y4868919D01*
X564287Y4863353D01*
X567573Y4858123D01*
X571425Y4853293D01*
X575793Y4848925D01*
X580623Y4845073D01*
X585854Y4841787D01*
X591419Y4839107D01*
X597250Y4837066D01*
X603273Y4835692D01*
X609411Y4835000D01*
X615589D01*
X621727Y4835692D01*
X627750Y4837066D01*
X633581Y4839107D01*
X639146Y4841787D01*
X644377Y4845073D01*
X649207Y4848925D01*
X653575Y4853293D01*
X656496Y4856956D01*
X662500Y4857935D01*
X668504Y4856956D01*
X671425Y4853293D01*
X675793Y4848925D01*
X680623Y4845073D01*
X685853Y4841787D01*
X691419Y4839107D01*
X697250Y4837066D01*
X703272Y4835692D01*
X709411Y4835000D01*
X715588D01*
X721727Y4835692D01*
X727750Y4837066D01*
X733580Y4839107D01*
X739146Y4841787D01*
X744377Y4845073D01*
X749207Y4848925D01*
X753575Y4853293D01*
X757426Y4858123D01*
X760713Y4863353D01*
X763393Y4868919D01*
X765433Y4874750D01*
X766808Y4880773D01*
X767500Y4886911D01*
Y4893089D01*
X766808Y4899227D01*
X765433Y4905250D01*
X763393Y4911081D01*
X760713Y4916646D01*
X757426Y4921877D01*
X753575Y4926707D01*
X749207Y4931075D01*
X745543Y4933996D01*
X744564Y4940000D01*
X745543Y4946004D01*
X749207Y4948925D01*
X753575Y4953293D01*
X757426Y4958123D01*
X760713Y4963353D01*
X763393Y4968919D01*
X765433Y4974750D01*
X766808Y4980772D01*
X767500Y4986911D01*
Y4993088D01*
X766808Y4999227D01*
X765433Y5005250D01*
X763393Y5011080D01*
X760713Y5016646D01*
X757426Y5021877D01*
X753575Y5026706D01*
X749207Y5031075D01*
X744377Y5034926D01*
X739146Y5038213D01*
X733580Y5040893D01*
X727750Y5042933D01*
X721727Y5044308D01*
X715588Y5045000D01*
D02*
G37*
G36*
X1878088Y5042500D02*
X1871911D01*
X1865772Y5041808D01*
X1859750Y5040434D01*
X1853919Y5038393D01*
X1848353Y5035713D01*
X1843123Y5032427D01*
X1838293Y5028575D01*
X1833925Y5024207D01*
X1831004Y5020544D01*
X1825000Y5019565D01*
X1818996Y5020544D01*
X1816075Y5024207D01*
X1811707Y5028575D01*
X1806877Y5032427D01*
X1801646Y5035713D01*
X1796081Y5038393D01*
X1790250Y5040434D01*
X1784227Y5041808D01*
X1778089Y5042500D01*
X1771911D01*
X1765773Y5041808D01*
X1759750Y5040434D01*
X1753919Y5038393D01*
X1748354Y5035713D01*
X1743123Y5032427D01*
X1738293Y5028575D01*
X1733925Y5024207D01*
X1730074Y5019377D01*
X1726787Y5014146D01*
X1724107Y5008581D01*
X1722066Y5002750D01*
X1720692Y4996727D01*
X1720000Y4990589D01*
Y4984411D01*
X1720692Y4978273D01*
X1722066Y4972250D01*
X1724107Y4966419D01*
X1726787Y4960854D01*
X1730074Y4955623D01*
X1733925Y4950793D01*
X1738293Y4946425D01*
X1741956Y4943504D01*
X1742936Y4937500D01*
X1741956Y4931496D01*
X1738293Y4928575D01*
X1733925Y4924207D01*
X1730074Y4919377D01*
X1726787Y4914147D01*
X1724107Y4908581D01*
X1722066Y4902750D01*
X1720692Y4896728D01*
X1720000Y4890589D01*
Y4884412D01*
X1720692Y4878273D01*
X1722066Y4872250D01*
X1724107Y4866420D01*
X1726787Y4860854D01*
X1730074Y4855623D01*
X1733925Y4850793D01*
X1738293Y4846425D01*
X1743123Y4842574D01*
X1748354Y4839287D01*
X1753919Y4836607D01*
X1759750Y4834567D01*
X1765773Y4833192D01*
X1771911Y4832500D01*
X1778089D01*
X1784227Y4833192D01*
X1790250Y4834567D01*
X1796081Y4836607D01*
X1801646Y4839287D01*
X1806877Y4842574D01*
X1811707Y4846425D01*
X1816075Y4850793D01*
X1818996Y4854457D01*
X1825000Y4855436D01*
X1831004Y4854457D01*
X1833925Y4850793D01*
X1838293Y4846425D01*
X1843123Y4842574D01*
X1848353Y4839287D01*
X1853919Y4836607D01*
X1859750Y4834567D01*
X1865772Y4833192D01*
X1871911Y4832500D01*
X1878088D01*
X1884227Y4833192D01*
X1890250Y4834567D01*
X1896081Y4836607D01*
X1901646Y4839287D01*
X1906877Y4842574D01*
X1911707Y4846425D01*
X1916075Y4850793D01*
X1919926Y4855623D01*
X1923213Y4860854D01*
X1925893Y4866420D01*
X1927933Y4872250D01*
X1929308Y4878273D01*
X1930000Y4884412D01*
Y4890589D01*
X1929308Y4896728D01*
X1927933Y4902750D01*
X1925893Y4908581D01*
X1923213Y4914147D01*
X1919926Y4919377D01*
X1916075Y4924207D01*
X1911707Y4928575D01*
X1908043Y4931496D01*
X1907064Y4937500D01*
X1908043Y4943504D01*
X1911707Y4946425D01*
X1916075Y4950793D01*
X1919926Y4955623D01*
X1923213Y4960854D01*
X1925893Y4966419D01*
X1927933Y4972250D01*
X1929308Y4978273D01*
X1930000Y4984411D01*
Y4990589D01*
X1929308Y4996727D01*
X1927933Y5002750D01*
X1925893Y5008581D01*
X1923213Y5014146D01*
X1919926Y5019377D01*
X1916075Y5024207D01*
X1911707Y5028575D01*
X1906877Y5032427D01*
X1901646Y5035713D01*
X1896081Y5038393D01*
X1890250Y5040434D01*
X1884227Y5041808D01*
X1878088Y5042500D01*
D02*
G37*
G36*
X-509411Y4955000D02*
X-515589D01*
X-521727Y4954308D01*
X-527750Y4952933D01*
X-533581Y4950893D01*
X-539146Y4948213D01*
X-544377Y4944926D01*
X-549207Y4941075D01*
X-553575Y4936707D01*
X-556496Y4933043D01*
X-562500Y4932064D01*
X-568504Y4933043D01*
X-571425Y4936707D01*
X-575793Y4941075D01*
X-580623Y4944926D01*
X-585853Y4948213D01*
X-591419Y4950893D01*
X-597250Y4952933D01*
X-603272Y4954308D01*
X-609411Y4955000D01*
X-615588D01*
X-621727Y4954308D01*
X-627750Y4952933D01*
X-633580Y4950893D01*
X-639146Y4948213D01*
X-644377Y4944926D01*
X-649206Y4941075D01*
X-653575Y4936707D01*
X-657426Y4931877D01*
X-660713Y4926646D01*
X-663393Y4921081D01*
X-665433Y4915250D01*
X-666808Y4909227D01*
X-667500Y4903088D01*
Y4896911D01*
X-666808Y4890773D01*
X-665433Y4884750D01*
X-663393Y4878919D01*
X-660713Y4873353D01*
X-657426Y4868123D01*
X-653575Y4863293D01*
X-649206Y4858925D01*
X-645543Y4856004D01*
X-644564Y4850000D01*
X-645543Y4843996D01*
X-649206Y4841075D01*
X-653575Y4836707D01*
X-657426Y4831877D01*
X-660713Y4826646D01*
X-663393Y4821081D01*
X-665433Y4815250D01*
X-666808Y4809227D01*
X-667500Y4803089D01*
Y4796911D01*
X-666808Y4790773D01*
X-665433Y4784750D01*
X-663393Y4778919D01*
X-660713Y4773354D01*
X-657426Y4768123D01*
X-653575Y4763293D01*
X-649206Y4758925D01*
X-644377Y4755074D01*
X-639146Y4751787D01*
X-633580Y4749107D01*
X-627750Y4747066D01*
X-621727Y4745692D01*
X-615588Y4745000D01*
X-609411D01*
X-603272Y4745692D01*
X-597250Y4747066D01*
X-591419Y4749107D01*
X-585853Y4751787D01*
X-580623Y4755074D01*
X-575793Y4758925D01*
X-571425Y4763293D01*
X-568504Y4766956D01*
X-562500Y4767936D01*
X-556496Y4766956D01*
X-553575Y4763293D01*
X-549207Y4758925D01*
X-544377Y4755074D01*
X-539146Y4751787D01*
X-533581Y4749107D01*
X-527750Y4747066D01*
X-521727Y4745692D01*
X-515589Y4745000D01*
X-509411D01*
X-503273Y4745692D01*
X-497250Y4747066D01*
X-491419Y4749107D01*
X-485853Y4751787D01*
X-480623Y4755074D01*
X-475793Y4758925D01*
X-471425Y4763293D01*
X-467573Y4768123D01*
X-464287Y4773354D01*
X-461607Y4778919D01*
X-459566Y4784750D01*
X-458192Y4790773D01*
X-457500Y4796911D01*
Y4803089D01*
X-458192Y4809227D01*
X-459566Y4815250D01*
X-461607Y4821081D01*
X-464287Y4826646D01*
X-467573Y4831877D01*
X-471425Y4836707D01*
X-475793Y4841075D01*
X-479456Y4843996D01*
X-480435Y4850000D01*
X-479456Y4856004D01*
X-475793Y4858925D01*
X-471425Y4863293D01*
X-467573Y4868123D01*
X-464287Y4873353D01*
X-461607Y4878919D01*
X-459566Y4884750D01*
X-458192Y4890773D01*
X-457500Y4896911D01*
Y4903088D01*
X-458192Y4909227D01*
X-459566Y4915250D01*
X-461607Y4921081D01*
X-464287Y4926646D01*
X-467573Y4931877D01*
X-471425Y4936707D01*
X-475793Y4941075D01*
X-480623Y4944926D01*
X-485853Y4948213D01*
X-491419Y4950893D01*
X-497250Y4952933D01*
X-503273Y4954308D01*
X-509411Y4955000D01*
D02*
G37*
G36*
X263089Y4740000D02*
X256911D01*
X250773Y4739308D01*
X244750Y4737934D01*
X238919Y4735893D01*
X233354Y4733213D01*
X228123Y4729927D01*
X223293Y4726075D01*
X218925Y4721707D01*
X215073Y4716877D01*
X211787Y4711646D01*
X209107Y4706081D01*
X207066Y4700250D01*
X205692Y4694227D01*
X205000Y4688089D01*
Y4681911D01*
X205692Y4675773D01*
X207066Y4669750D01*
X209107Y4663919D01*
X211787Y4658354D01*
X215073Y4653123D01*
X218925Y4648293D01*
X223293Y4643925D01*
X228123Y4640074D01*
X233354Y4636787D01*
X238919Y4634107D01*
X244750Y4632066D01*
X250773Y4630692D01*
X256911Y4630000D01*
X263089D01*
X269227Y4630692D01*
X275250Y4632066D01*
X281081Y4634107D01*
X286646Y4636787D01*
X291877Y4640074D01*
X296707Y4643925D01*
X301075Y4648293D01*
X304926Y4653123D01*
X308213Y4658354D01*
X310893Y4663919D01*
X312934Y4669750D01*
X314308Y4675773D01*
X315000Y4681911D01*
Y4688089D01*
X314308Y4694227D01*
X312934Y4700250D01*
X310893Y4706081D01*
X308213Y4711646D01*
X304926Y4716877D01*
X301075Y4721707D01*
X296707Y4726075D01*
X291877Y4729927D01*
X286646Y4733213D01*
X281081Y4735893D01*
X275250Y4737934D01*
X269227Y4739308D01*
X263089Y4740000D01*
D02*
G37*
G36*
X-256911D02*
X-263089D01*
X-269227Y4739308D01*
X-275250Y4737934D01*
X-281081Y4735893D01*
X-286646Y4733213D01*
X-291877Y4729927D01*
X-296707Y4726075D01*
X-301075Y4721707D01*
X-304926Y4716877D01*
X-308213Y4711646D01*
X-310893Y4706081D01*
X-312934Y4700250D01*
X-314308Y4694227D01*
X-315000Y4688089D01*
Y4681911D01*
X-314308Y4675773D01*
X-312934Y4669750D01*
X-310893Y4663919D01*
X-308213Y4658354D01*
X-304926Y4653123D01*
X-301075Y4648293D01*
X-296707Y4643925D01*
X-291877Y4640074D01*
X-286646Y4636787D01*
X-281081Y4634107D01*
X-275250Y4632066D01*
X-269227Y4630692D01*
X-263089Y4630000D01*
X-256911D01*
X-250773Y4630692D01*
X-244750Y4632066D01*
X-238919Y4634107D01*
X-233354Y4636787D01*
X-228123Y4640074D01*
X-223293Y4643925D01*
X-218925Y4648293D01*
X-215073Y4653123D01*
X-211787Y4658354D01*
X-209107Y4663919D01*
X-207066Y4669750D01*
X-205692Y4675773D01*
X-205000Y4681911D01*
Y4688089D01*
X-205692Y4694227D01*
X-207066Y4700250D01*
X-209107Y4706081D01*
X-211787Y4711646D01*
X-215073Y4716877D01*
X-218925Y4721707D01*
X-223293Y4726075D01*
X-228123Y4729927D01*
X-233354Y4733213D01*
X-238919Y4735893D01*
X-244750Y4737934D01*
X-250773Y4739308D01*
X-256911Y4740000D01*
D02*
G37*
G36*
X715588Y4645000D02*
X709411D01*
X703272Y4644308D01*
X697250Y4642933D01*
X691419Y4640893D01*
X685853Y4638213D01*
X680623Y4634926D01*
X675793Y4631075D01*
X671425Y4626707D01*
X668504Y4623043D01*
X662500Y4622064D01*
X656496Y4623043D01*
X653575Y4626707D01*
X649207Y4631075D01*
X644377Y4634926D01*
X639146Y4638213D01*
X633581Y4640893D01*
X627750Y4642933D01*
X621727Y4644308D01*
X615589Y4645000D01*
X609411D01*
X603273Y4644308D01*
X597250Y4642933D01*
X591419Y4640893D01*
X585854Y4638213D01*
X580623Y4634926D01*
X575793Y4631075D01*
X571425Y4626707D01*
X567573Y4621877D01*
X564287Y4616646D01*
X561607Y4611080D01*
X559566Y4605250D01*
X558192Y4599227D01*
X557500Y4593088D01*
Y4586911D01*
X558192Y4580772D01*
X559566Y4574750D01*
X561607Y4568919D01*
X564287Y4563353D01*
X567573Y4558123D01*
X571425Y4553293D01*
X575793Y4548925D01*
X579456Y4546004D01*
X580435Y4540000D01*
X579456Y4533996D01*
X575793Y4531075D01*
X571425Y4526707D01*
X567573Y4521877D01*
X564287Y4516646D01*
X561607Y4511081D01*
X559566Y4505250D01*
X558192Y4499227D01*
X557500Y4493089D01*
Y4486911D01*
X558192Y4480773D01*
X559566Y4474750D01*
X561607Y4468919D01*
X564287Y4463354D01*
X567573Y4458123D01*
X571425Y4453293D01*
X575793Y4448925D01*
X580623Y4445073D01*
X585854Y4441787D01*
X591419Y4439107D01*
X597250Y4437066D01*
X603273Y4435692D01*
X609411Y4435000D01*
X615589D01*
X621727Y4435692D01*
X627750Y4437066D01*
X633581Y4439107D01*
X639146Y4441787D01*
X644377Y4445073D01*
X649207Y4448925D01*
X653575Y4453293D01*
X656496Y4456956D01*
X662500Y4457935D01*
X668504Y4456956D01*
X671425Y4453293D01*
X675793Y4448925D01*
X680623Y4445073D01*
X685853Y4441787D01*
X691419Y4439107D01*
X697250Y4437066D01*
X703272Y4435692D01*
X709411Y4435000D01*
X715588D01*
X721727Y4435692D01*
X727750Y4437066D01*
X733580Y4439107D01*
X739146Y4441787D01*
X744377Y4445073D01*
X749207Y4448925D01*
X753575Y4453293D01*
X757426Y4458123D01*
X760713Y4463354D01*
X763393Y4468919D01*
X765433Y4474750D01*
X766808Y4480773D01*
X767500Y4486911D01*
Y4493089D01*
X766808Y4499227D01*
X765433Y4505250D01*
X763393Y4511081D01*
X760713Y4516646D01*
X757426Y4521877D01*
X753575Y4526707D01*
X749207Y4531075D01*
X745543Y4533996D01*
X744564Y4540000D01*
X745543Y4546004D01*
X749207Y4548925D01*
X753575Y4553293D01*
X757426Y4558123D01*
X760713Y4563353D01*
X763393Y4568919D01*
X765433Y4574750D01*
X766808Y4580772D01*
X767500Y4586911D01*
Y4593088D01*
X766808Y4599227D01*
X765433Y4605250D01*
X763393Y4611080D01*
X760713Y4616646D01*
X757426Y4621877D01*
X753575Y4626707D01*
X749207Y4631075D01*
X744377Y4634926D01*
X739146Y4638213D01*
X733580Y4640893D01*
X727750Y4642933D01*
X721727Y4644308D01*
X715588Y4645000D01*
D02*
G37*
G36*
X-126911Y4795000D02*
X-133089D01*
X-139227Y4794308D01*
X-145250Y4792934D01*
X-151081Y4790893D01*
X-156646Y4788213D01*
X-161877Y4784926D01*
X-166707Y4781075D01*
X-171075Y4776707D01*
X-174926Y4771877D01*
X-178213Y4766646D01*
X-180893Y4761081D01*
X-182934Y4755250D01*
X-184308Y4749227D01*
X-185000Y4743089D01*
Y4736911D01*
X-184308Y4730773D01*
X-182934Y4724750D01*
X-180893Y4718919D01*
X-178213Y4713354D01*
X-174926Y4708123D01*
X-171075Y4703293D01*
X-166707Y4698925D01*
X-166550Y4698800D01*
X-165993Y4697741D01*
Y4687259D01*
X-166550Y4686199D01*
X-166707Y4686075D01*
X-171075Y4681707D01*
X-174926Y4676877D01*
X-178213Y4671646D01*
X-180893Y4666081D01*
X-182934Y4660250D01*
X-184308Y4654227D01*
X-185000Y4648088D01*
Y4641911D01*
X-184308Y4635773D01*
X-182934Y4629750D01*
X-180893Y4623919D01*
X-178213Y4618353D01*
X-174926Y4613123D01*
X-171075Y4608293D01*
X-166707Y4603925D01*
X-161877Y4600073D01*
X-156646Y4596787D01*
X-151081Y4594107D01*
X-145250Y4592066D01*
X-139227Y4590692D01*
X-133089Y4590000D01*
X-126911D01*
X-120773Y4590692D01*
X-114750Y4592066D01*
X-108919Y4594107D01*
X-103354Y4596787D01*
X-98123Y4600073D01*
X-93293Y4603925D01*
X-88925Y4608293D01*
X-85073Y4613123D01*
X-81787Y4618353D01*
X-79107Y4623919D01*
X-77066Y4629750D01*
X-75692Y4635773D01*
X-75000Y4641911D01*
Y4648088D01*
X-75692Y4654227D01*
X-77066Y4660250D01*
X-79107Y4666081D01*
X-81787Y4671646D01*
X-85073Y4676877D01*
X-88925Y4681707D01*
X-93293Y4686075D01*
X-93450Y4686199D01*
X-94007Y4687259D01*
Y4697741D01*
X-93450Y4698800D01*
X-93293Y4698925D01*
X-88925Y4703293D01*
X-85073Y4708123D01*
X-81787Y4713354D01*
X-79107Y4718919D01*
X-77066Y4724750D01*
X-75692Y4730773D01*
X-75000Y4736911D01*
Y4743089D01*
X-75692Y4749227D01*
X-77066Y4755250D01*
X-79107Y4761081D01*
X-81787Y4766646D01*
X-85073Y4771877D01*
X-88925Y4776707D01*
X-93293Y4781075D01*
X-98123Y4784926D01*
X-103354Y4788213D01*
X-108919Y4790893D01*
X-114750Y4792934D01*
X-120773Y4794308D01*
X-126911Y4795000D01*
D02*
G37*
G36*
X-1226911Y4470000D02*
X-1233089D01*
X-1239227Y4469309D01*
X-1245250Y4467934D01*
X-1251081Y4465894D01*
X-1256646Y4463213D01*
X-1261877Y4459927D01*
X-1266707Y4456075D01*
X-1271075Y4451707D01*
X-1274927Y4446877D01*
X-1278213Y4441647D01*
X-1280893Y4436081D01*
X-1282934Y4430250D01*
X-1284308Y4424228D01*
X-1285000Y4418089D01*
Y4411912D01*
X-1284308Y4405773D01*
X-1282934Y4399750D01*
X-1280893Y4393920D01*
X-1278213Y4388354D01*
X-1274927Y4383123D01*
X-1271075Y4378294D01*
X-1266707Y4373925D01*
X-1261877Y4370074D01*
X-1256646Y4366787D01*
X-1251081Y4364107D01*
X-1245250Y4362067D01*
X-1239227Y4360692D01*
X-1233089Y4360000D01*
X-1226911D01*
X-1220773Y4360692D01*
X-1214750Y4362067D01*
X-1208919Y4364107D01*
X-1203354Y4366787D01*
X-1198123Y4370074D01*
X-1193293Y4373925D01*
X-1188925Y4378294D01*
X-1185074Y4383123D01*
X-1181787Y4388354D01*
X-1179107Y4393920D01*
X-1177066Y4399750D01*
X-1175692Y4405773D01*
X-1175000Y4411912D01*
Y4418089D01*
X-1175692Y4424228D01*
X-1177066Y4430250D01*
X-1179107Y4436081D01*
X-1181787Y4441647D01*
X-1185074Y4446877D01*
X-1188925Y4451707D01*
X-1193293Y4456075D01*
X-1198123Y4459927D01*
X-1203354Y4463213D01*
X-1208919Y4465894D01*
X-1214750Y4467934D01*
X-1220773Y4469309D01*
X-1226911Y4470000D01*
D02*
G37*
G36*
X-834411Y4465000D02*
X-840588D01*
X-846727Y4464308D01*
X-852750Y4462934D01*
X-858580Y4460893D01*
X-864146Y4458213D01*
X-869377Y4454927D01*
X-874207Y4451075D01*
X-878575Y4446707D01*
X-882426Y4441877D01*
X-885713Y4436646D01*
X-888393Y4431081D01*
X-890433Y4425250D01*
X-891808Y4419227D01*
X-892500Y4413089D01*
Y4406911D01*
X-891808Y4400773D01*
X-890433Y4394750D01*
X-888393Y4388919D01*
X-885713Y4383354D01*
X-882426Y4378123D01*
X-878575Y4373293D01*
X-874207Y4368925D01*
X-869377Y4365074D01*
X-864146Y4361787D01*
X-858580Y4359107D01*
X-852750Y4357066D01*
X-846727Y4355692D01*
X-840588Y4355000D01*
X-834411D01*
X-828272Y4355692D01*
X-822250Y4357066D01*
X-816419Y4359107D01*
X-810853Y4361787D01*
X-805623Y4365074D01*
X-800793Y4368925D01*
X-796425Y4373293D01*
X-792573Y4378123D01*
X-789287Y4383354D01*
X-786607Y4388919D01*
X-784566Y4394750D01*
X-783191Y4400773D01*
X-782500Y4406911D01*
Y4413089D01*
X-783191Y4419227D01*
X-784566Y4425250D01*
X-786607Y4431081D01*
X-789287Y4436646D01*
X-792573Y4441877D01*
X-796425Y4446707D01*
X-800793Y4451075D01*
X-805623Y4454927D01*
X-810853Y4458213D01*
X-816419Y4460893D01*
X-822250Y4462934D01*
X-828272Y4464308D01*
X-834411Y4465000D01*
D02*
G37*
G36*
X-1094411D02*
X-1100589D01*
X-1106727Y4464308D01*
X-1112750Y4462934D01*
X-1118581Y4460893D01*
X-1124146Y4458213D01*
X-1129377Y4454927D01*
X-1134207Y4451075D01*
X-1138575Y4446707D01*
X-1142426Y4441877D01*
X-1145713Y4436646D01*
X-1148393Y4431081D01*
X-1150434Y4425250D01*
X-1151808Y4419227D01*
X-1152500Y4413089D01*
Y4406911D01*
X-1151808Y4400773D01*
X-1150434Y4394750D01*
X-1148393Y4388919D01*
X-1145713Y4383354D01*
X-1142426Y4378123D01*
X-1138575Y4373293D01*
X-1134207Y4368925D01*
X-1129377Y4365074D01*
X-1124146Y4361787D01*
X-1118581Y4359107D01*
X-1112750Y4357066D01*
X-1106727Y4355692D01*
X-1100589Y4355000D01*
X-1094411D01*
X-1088273Y4355692D01*
X-1082250Y4357066D01*
X-1076419Y4359107D01*
X-1070854Y4361787D01*
X-1065623Y4365074D01*
X-1060793Y4368925D01*
X-1056425Y4373293D01*
X-1052573Y4378123D01*
X-1049287Y4383354D01*
X-1046607Y4388919D01*
X-1044566Y4394750D01*
X-1043192Y4400773D01*
X-1042500Y4406911D01*
Y4413089D01*
X-1043192Y4419227D01*
X-1044566Y4425250D01*
X-1046607Y4431081D01*
X-1049287Y4436646D01*
X-1052573Y4441877D01*
X-1056425Y4446707D01*
X-1060793Y4451075D01*
X-1065623Y4454927D01*
X-1070854Y4458213D01*
X-1076419Y4460893D01*
X-1082250Y4462934D01*
X-1088273Y4464308D01*
X-1094411Y4465000D01*
D02*
G37*
G36*
X-54411Y4555000D02*
X-60589D01*
X-66727Y4554308D01*
X-72750Y4552933D01*
X-78581Y4550893D01*
X-84146Y4548213D01*
X-89377Y4544926D01*
X-94207Y4541075D01*
X-98575Y4536707D01*
X-102427Y4531877D01*
X-105713Y4526646D01*
X-108393Y4521081D01*
X-110434Y4515250D01*
X-111808Y4509227D01*
X-112500Y4503089D01*
Y4496911D01*
X-111808Y4490773D01*
X-110434Y4484750D01*
X-108393Y4478919D01*
X-105713Y4473354D01*
X-102427Y4468123D01*
X-98575Y4463293D01*
X-94207Y4458925D01*
X-89377Y4455073D01*
X-84146Y4451787D01*
X-78581Y4449107D01*
X-77128Y4448598D01*
X-75950Y4440339D01*
X-76390Y4437746D01*
X-80877Y4434926D01*
X-85707Y4431075D01*
X-90075Y4426707D01*
X-93927Y4421877D01*
X-97213Y4416646D01*
X-99893Y4411081D01*
X-101934Y4405250D01*
X-103308Y4399227D01*
X-104000Y4393088D01*
Y4386911D01*
X-103308Y4380773D01*
X-101934Y4374750D01*
X-99893Y4368919D01*
X-97213Y4363353D01*
X-93927Y4358123D01*
X-90075Y4353293D01*
X-85707Y4348925D01*
X-80877Y4345073D01*
X-75647Y4341787D01*
X-70081Y4339107D01*
X-64250Y4337066D01*
X-58227Y4335692D01*
X-52089Y4335000D01*
X-45912D01*
X-39773Y4335692D01*
X-33750Y4337066D01*
X-27919Y4339107D01*
X-22354Y4341787D01*
X-17123Y4345073D01*
X-12293Y4348925D01*
X-7925Y4353293D01*
X-4074Y4358123D01*
X-787Y4363353D01*
X1893Y4368919D01*
X3933Y4374750D01*
X5308Y4380773D01*
X6000Y4386911D01*
Y4393088D01*
X5308Y4399227D01*
X3933Y4405250D01*
X1893Y4411081D01*
X-787Y4416646D01*
X-4074Y4421877D01*
X-7925Y4426707D01*
X-12293Y4431075D01*
X-17123Y4434926D01*
X-22354Y4438213D01*
X-27919Y4440893D01*
X-29372Y4441401D01*
X-30550Y4449660D01*
X-30110Y4452254D01*
X-25623Y4455073D01*
X-20793Y4458925D01*
X-16425Y4463293D01*
X-12574Y4468123D01*
X-9287Y4473354D01*
X-6607Y4478919D01*
X-4566Y4484750D01*
X-3192Y4490773D01*
X-2500Y4496911D01*
Y4503089D01*
X-3192Y4509227D01*
X-4566Y4515250D01*
X-6607Y4521081D01*
X-9287Y4526646D01*
X-12574Y4531877D01*
X-16425Y4536707D01*
X-20793Y4541075D01*
X-25623Y4544926D01*
X-30854Y4548213D01*
X-36419Y4550893D01*
X-42250Y4552933D01*
X-48273Y4554308D01*
X-54411Y4555000D01*
D02*
G37*
G36*
X380589Y4355000D02*
X374411D01*
X368273Y4354308D01*
X362250Y4352934D01*
X356419Y4350893D01*
X350854Y4348213D01*
X345623Y4344927D01*
X340793Y4341075D01*
X336425Y4336707D01*
X332574Y4331877D01*
X329287Y4326646D01*
X326607Y4321081D01*
X325247Y4317195D01*
X320000Y4316155D01*
X314753Y4317195D01*
X313393Y4321081D01*
X310713Y4326646D01*
X307427Y4331877D01*
X303575Y4336707D01*
X299207Y4341075D01*
X294377Y4344927D01*
X289146Y4348213D01*
X283581Y4350893D01*
X277750Y4352934D01*
X271727Y4354308D01*
X265589Y4355000D01*
X259411D01*
X253273Y4354308D01*
X247250Y4352934D01*
X241419Y4350893D01*
X235854Y4348213D01*
X230623Y4344927D01*
X225793Y4341075D01*
X221425Y4336707D01*
X217574Y4331877D01*
X214287Y4326646D01*
X211607Y4321081D01*
X209567Y4315250D01*
X208192Y4309227D01*
X207500Y4303089D01*
Y4296911D01*
X208192Y4290773D01*
X209567Y4284750D01*
X211607Y4278919D01*
X214287Y4273354D01*
X217574Y4268123D01*
X221425Y4263293D01*
X225793Y4258925D01*
X230623Y4255074D01*
X235854Y4251787D01*
X241419Y4249107D01*
X247250Y4247066D01*
X253273Y4245692D01*
X259411Y4245000D01*
X265589D01*
X271727Y4245692D01*
X277750Y4247066D01*
X283581Y4249107D01*
X289146Y4251787D01*
X294377Y4255074D01*
X299207Y4258925D01*
X303575Y4263293D01*
X307427Y4268123D01*
X310713Y4273354D01*
X313393Y4278919D01*
X314753Y4282805D01*
X320000Y4283845D01*
X325247Y4282805D01*
X326607Y4278919D01*
X329287Y4273354D01*
X332574Y4268123D01*
X336425Y4263293D01*
X340793Y4258925D01*
X345623Y4255074D01*
X350854Y4251787D01*
X356419Y4249107D01*
X362250Y4247066D01*
X368273Y4245692D01*
X374411Y4245000D01*
X380589D01*
X386727Y4245692D01*
X392750Y4247066D01*
X398581Y4249107D01*
X404147Y4251787D01*
X409377Y4255074D01*
X414207Y4258925D01*
X418575Y4263293D01*
X422427Y4268123D01*
X425713Y4273354D01*
X428393Y4278919D01*
X430434Y4284750D01*
X431808Y4290773D01*
X432500Y4296911D01*
Y4303089D01*
X431808Y4309227D01*
X430434Y4315250D01*
X428393Y4321081D01*
X425713Y4326646D01*
X422427Y4331877D01*
X418575Y4336707D01*
X414207Y4341075D01*
X409377Y4344927D01*
X404147Y4348213D01*
X398581Y4350893D01*
X392750Y4352934D01*
X386727Y4354308D01*
X380589Y4355000D01*
D02*
G37*
G36*
X715588Y4245000D02*
X709411D01*
X703272Y4244308D01*
X697250Y4242933D01*
X691419Y4240893D01*
X685853Y4238213D01*
X680623Y4234926D01*
X675793Y4231075D01*
X671425Y4226707D01*
X668504Y4223043D01*
X662500Y4222064D01*
X656496Y4223043D01*
X653575Y4226707D01*
X649207Y4231075D01*
X644377Y4234926D01*
X639146Y4238213D01*
X633581Y4240893D01*
X627750Y4242933D01*
X621727Y4244308D01*
X615589Y4245000D01*
X609411D01*
X603273Y4244308D01*
X597250Y4242933D01*
X591419Y4240893D01*
X585854Y4238213D01*
X580623Y4234926D01*
X575793Y4231075D01*
X571425Y4226707D01*
X567573Y4221877D01*
X564287Y4216646D01*
X561607Y4211080D01*
X559566Y4205250D01*
X558192Y4199227D01*
X557500Y4193088D01*
Y4186911D01*
X558192Y4180772D01*
X559566Y4174750D01*
X561607Y4168919D01*
X564287Y4163353D01*
X567573Y4158123D01*
X571425Y4153293D01*
X575793Y4148925D01*
X579456Y4146004D01*
X580435Y4140000D01*
X579456Y4133996D01*
X575793Y4131075D01*
X571425Y4126707D01*
X567573Y4121877D01*
X564287Y4116646D01*
X561607Y4111081D01*
X559566Y4105250D01*
X558192Y4099227D01*
X557500Y4093089D01*
Y4086911D01*
X558192Y4080773D01*
X559566Y4074750D01*
X561607Y4068919D01*
X564287Y4063354D01*
X567573Y4058123D01*
X571425Y4053293D01*
X575793Y4048925D01*
X580623Y4045073D01*
X585854Y4041787D01*
X591419Y4039107D01*
X597250Y4037066D01*
X603273Y4035692D01*
X609411Y4035000D01*
X615589D01*
X621727Y4035692D01*
X627750Y4037066D01*
X633581Y4039107D01*
X639146Y4041787D01*
X644377Y4045073D01*
X649207Y4048925D01*
X653575Y4053293D01*
X656496Y4056956D01*
X662500Y4057935D01*
X668504Y4056956D01*
X671425Y4053293D01*
X675793Y4048925D01*
X680623Y4045073D01*
X685853Y4041787D01*
X691419Y4039107D01*
X697250Y4037066D01*
X703272Y4035692D01*
X709411Y4035000D01*
X715588D01*
X721727Y4035692D01*
X727750Y4037066D01*
X733580Y4039107D01*
X739146Y4041787D01*
X744377Y4045073D01*
X749207Y4048925D01*
X753575Y4053293D01*
X757426Y4058123D01*
X760713Y4063354D01*
X763393Y4068919D01*
X765433Y4074750D01*
X766808Y4080773D01*
X767500Y4086911D01*
Y4093089D01*
X766808Y4099227D01*
X765433Y4105250D01*
X763393Y4111081D01*
X760713Y4116646D01*
X757426Y4121877D01*
X753575Y4126707D01*
X749207Y4131075D01*
X745543Y4133996D01*
X744564Y4140000D01*
X745543Y4146004D01*
X749207Y4148925D01*
X753575Y4153293D01*
X757426Y4158123D01*
X760713Y4163353D01*
X763393Y4168919D01*
X765433Y4174750D01*
X766808Y4180772D01*
X767500Y4186911D01*
Y4193088D01*
X766808Y4199227D01*
X765433Y4205250D01*
X763393Y4211080D01*
X760713Y4216646D01*
X757426Y4221877D01*
X753575Y4226707D01*
X749207Y4231075D01*
X744377Y4234926D01*
X739146Y4238213D01*
X733580Y4240893D01*
X727750Y4242933D01*
X721727Y4244308D01*
X715588Y4245000D01*
D02*
G37*
G36*
X-456911Y4270000D02*
X-463089D01*
X-469227Y4269308D01*
X-475250Y4267934D01*
X-481081Y4265893D01*
X-486646Y4263213D01*
X-491877Y4259927D01*
X-496707Y4256075D01*
X-501075Y4251707D01*
X-504927Y4246877D01*
X-508213Y4241647D01*
X-510893Y4236081D01*
X-512934Y4230250D01*
X-514308Y4224228D01*
X-515000Y4218089D01*
Y4211912D01*
X-514308Y4205773D01*
X-512934Y4199750D01*
X-510893Y4193919D01*
X-508213Y4188354D01*
X-504927Y4183123D01*
X-501075Y4178293D01*
X-496707Y4173925D01*
X-491877Y4170074D01*
X-486646Y4166787D01*
X-481081Y4164107D01*
X-475250Y4162067D01*
X-469227Y4160692D01*
X-463089Y4160000D01*
X-456911D01*
X-450773Y4160692D01*
X-444750Y4162067D01*
X-438919Y4164107D01*
X-433354Y4166787D01*
X-428123Y4170074D01*
X-423293Y4173925D01*
X-418925Y4178293D01*
X-415074Y4183123D01*
X-411787Y4188354D01*
X-409107Y4193919D01*
X-407066Y4199750D01*
X-405692Y4205773D01*
X-405000Y4211912D01*
Y4218089D01*
X-405692Y4224228D01*
X-407066Y4230250D01*
X-409107Y4236081D01*
X-411787Y4241647D01*
X-415074Y4246877D01*
X-418925Y4251707D01*
X-423293Y4256075D01*
X-428123Y4259927D01*
X-433354Y4263213D01*
X-438919Y4265893D01*
X-444750Y4267934D01*
X-450773Y4269308D01*
X-456911Y4270000D01*
D02*
G37*
G36*
X-239412Y4182500D02*
X-245589D01*
X-251727Y4181808D01*
X-257750Y4180434D01*
X-263581Y4178393D01*
X-269147Y4175713D01*
X-274377Y4172427D01*
X-279207Y4168575D01*
X-283575Y4164207D01*
X-287427Y4159377D01*
X-290713Y4154146D01*
X-293393Y4148581D01*
X-295434Y4142750D01*
X-296808Y4136727D01*
X-297500Y4130589D01*
Y4124411D01*
X-297275Y4122414D01*
X-297590Y4121728D01*
X-304335Y4115782D01*
X-306345Y4115117D01*
X-307250Y4115434D01*
X-313273Y4116808D01*
X-319411Y4117500D01*
X-325589D01*
X-331727Y4116808D01*
X-337750Y4115434D01*
X-343581Y4113393D01*
X-349146Y4110713D01*
X-354377Y4107427D01*
X-359207Y4103575D01*
X-363575Y4099207D01*
X-367426Y4094377D01*
X-370713Y4089147D01*
X-373393Y4083581D01*
X-375434Y4077750D01*
X-376808Y4071727D01*
X-377500Y4065589D01*
Y4059411D01*
X-376808Y4053273D01*
X-375434Y4047250D01*
X-373393Y4041419D01*
X-370713Y4035854D01*
X-367426Y4030623D01*
X-363575Y4025793D01*
X-359207Y4021425D01*
X-354377Y4017574D01*
X-349146Y4014287D01*
X-343581Y4011607D01*
X-337750Y4009567D01*
X-331727Y4008192D01*
X-325589Y4007500D01*
X-319411D01*
X-313273Y4008192D01*
X-307250Y4009567D01*
X-301419Y4011607D01*
X-295854Y4014287D01*
X-290623Y4017574D01*
X-285793Y4021425D01*
X-281425Y4025793D01*
X-277573Y4030623D01*
X-274287Y4035854D01*
X-271607Y4041419D01*
X-269566Y4047250D01*
X-268192Y4053273D01*
X-267500Y4059411D01*
Y4065589D01*
X-267725Y4067586D01*
X-267410Y4068272D01*
X-260665Y4074218D01*
X-258655Y4074883D01*
X-257750Y4074566D01*
X-251727Y4073192D01*
X-245589Y4072500D01*
X-239412D01*
X-233273Y4073192D01*
X-227250Y4074566D01*
X-221419Y4076607D01*
X-215854Y4079287D01*
X-210623Y4082573D01*
X-205793Y4086425D01*
X-201425Y4090793D01*
X-197574Y4095623D01*
X-194287Y4100854D01*
X-191607Y4106419D01*
X-189567Y4112250D01*
X-188192Y4118273D01*
X-187500Y4124411D01*
Y4130589D01*
X-188192Y4136727D01*
X-189567Y4142750D01*
X-191607Y4148581D01*
X-194287Y4154146D01*
X-197574Y4159377D01*
X-201425Y4164207D01*
X-205793Y4168575D01*
X-210623Y4172427D01*
X-215854Y4175713D01*
X-221419Y4178393D01*
X-227250Y4180434D01*
X-233273Y4181808D01*
X-239412Y4182500D01*
D02*
G37*
G36*
X45589D02*
X39411D01*
X33273Y4181808D01*
X27250Y4180434D01*
X21419Y4178393D01*
X15854Y4175713D01*
X10623Y4172427D01*
X5793Y4168575D01*
X1425Y4164207D01*
X-2426Y4159377D01*
X-5713Y4154146D01*
X-8393Y4148581D01*
X-10434Y4142750D01*
X-11808Y4136727D01*
X-12500Y4130589D01*
Y4124411D01*
X-11808Y4118273D01*
X-10434Y4112250D01*
X-8393Y4106419D01*
X-5713Y4100854D01*
X-2426Y4095623D01*
X1425Y4090793D01*
X5793Y4086425D01*
X10623Y4082573D01*
X15854Y4079287D01*
X21419Y4076607D01*
X27250Y4074566D01*
X33273Y4073192D01*
X39411Y4072500D01*
X45589D01*
X51727Y4073192D01*
X57750Y4074566D01*
X58655Y4074883D01*
X60665Y4074218D01*
X67410Y4068272D01*
X67725Y4067586D01*
X67500Y4065589D01*
Y4059411D01*
X67725Y4057414D01*
X67410Y4056728D01*
X60665Y4050782D01*
X58655Y4050117D01*
X57750Y4050434D01*
X51727Y4051808D01*
X45589Y4052500D01*
X39411D01*
X33273Y4051808D01*
X27250Y4050434D01*
X21419Y4048393D01*
X15854Y4045713D01*
X10623Y4042427D01*
X5793Y4038575D01*
X1425Y4034207D01*
X-2426Y4029377D01*
X-5713Y4024146D01*
X-8393Y4018581D01*
X-10434Y4012750D01*
X-11808Y4006727D01*
X-12500Y4000589D01*
Y3994411D01*
X-11808Y3988273D01*
X-10434Y3982250D01*
X-8393Y3976419D01*
X-5713Y3970854D01*
X-2426Y3965623D01*
X1425Y3960793D01*
X5793Y3956425D01*
X10623Y3952574D01*
X15854Y3949287D01*
X21419Y3946607D01*
X27250Y3944566D01*
X33273Y3943192D01*
X39411Y3942500D01*
X45589D01*
X51727Y3943192D01*
X57750Y3944566D01*
X58655Y3944883D01*
X60665Y3944218D01*
X67410Y3938272D01*
X67725Y3937586D01*
X67500Y3935589D01*
Y3929411D01*
X67725Y3927414D01*
X67410Y3926728D01*
X60665Y3920782D01*
X58655Y3920117D01*
X57750Y3920434D01*
X51727Y3921808D01*
X45589Y3922500D01*
X39411D01*
X33273Y3921808D01*
X27250Y3920434D01*
X21419Y3918393D01*
X15854Y3915713D01*
X10623Y3912427D01*
X5793Y3908575D01*
X1425Y3904207D01*
X-2426Y3899377D01*
X-5713Y3894146D01*
X-8393Y3888581D01*
X-10434Y3882750D01*
X-11808Y3876727D01*
X-12500Y3870589D01*
Y3864411D01*
X-11808Y3858273D01*
X-10434Y3852250D01*
X-8393Y3846419D01*
X-5713Y3840854D01*
X-2426Y3835623D01*
X1425Y3830793D01*
X5793Y3826425D01*
X10623Y3822574D01*
X15854Y3819287D01*
X21419Y3816607D01*
X27250Y3814566D01*
X33273Y3813192D01*
X39411Y3812500D01*
X45589D01*
X51727Y3813192D01*
X57750Y3814566D01*
X58655Y3814883D01*
X60665Y3814218D01*
X67410Y3808272D01*
X67725Y3807586D01*
X67500Y3805589D01*
Y3799412D01*
X67725Y3797414D01*
X67410Y3796728D01*
X60665Y3790782D01*
X58655Y3790117D01*
X57750Y3790434D01*
X51727Y3791808D01*
X45589Y3792500D01*
X39411D01*
X33273Y3791808D01*
X27250Y3790434D01*
X21419Y3788393D01*
X15854Y3785713D01*
X10623Y3782427D01*
X5793Y3778575D01*
X1425Y3774207D01*
X-2426Y3769377D01*
X-5713Y3764146D01*
X-8393Y3758581D01*
X-10434Y3752750D01*
X-11808Y3746727D01*
X-12500Y3740589D01*
Y3734411D01*
X-11808Y3728273D01*
X-10434Y3722250D01*
X-8393Y3716419D01*
X-5713Y3710854D01*
X-2426Y3705623D01*
X1425Y3700793D01*
X5793Y3696425D01*
X10623Y3692574D01*
X15854Y3689287D01*
X21419Y3686607D01*
X27250Y3684566D01*
X33273Y3683192D01*
X39411Y3682500D01*
X45589D01*
X51727Y3683192D01*
X57750Y3684566D01*
X58655Y3684883D01*
X60665Y3684218D01*
X67410Y3678272D01*
X67725Y3677586D01*
X67500Y3675589D01*
Y3669412D01*
X67725Y3667414D01*
X67410Y3666728D01*
X60665Y3660782D01*
X58655Y3660117D01*
X57750Y3660434D01*
X51727Y3661808D01*
X45589Y3662500D01*
X39411D01*
X33273Y3661808D01*
X27250Y3660434D01*
X21419Y3658393D01*
X15854Y3655713D01*
X10623Y3652427D01*
X5793Y3648575D01*
X1425Y3644207D01*
X-2426Y3639377D01*
X-5713Y3634146D01*
X-8393Y3628581D01*
X-10434Y3622750D01*
X-11808Y3616727D01*
X-12500Y3610589D01*
Y3604411D01*
X-11808Y3598273D01*
X-10434Y3592250D01*
X-8393Y3586419D01*
X-5713Y3580854D01*
X-2426Y3575623D01*
X1425Y3570793D01*
X5793Y3566425D01*
X10623Y3562574D01*
X15854Y3559287D01*
X21419Y3556607D01*
X27250Y3554566D01*
X33273Y3553192D01*
X39411Y3552500D01*
X45589D01*
X51727Y3553192D01*
X57750Y3554566D01*
X63581Y3556607D01*
X69146Y3559287D01*
X74377Y3562574D01*
X79207Y3566425D01*
X83575Y3570793D01*
X87427Y3575623D01*
X90713Y3580854D01*
X93393Y3586419D01*
X95434Y3592250D01*
X96808Y3598273D01*
X97500Y3604411D01*
Y3610589D01*
X97275Y3612586D01*
X97590Y3613272D01*
X104335Y3619218D01*
X106345Y3619883D01*
X107250Y3619567D01*
X113273Y3618192D01*
X119411Y3617500D01*
X125589D01*
X131727Y3618192D01*
X137750Y3619567D01*
X143581Y3621607D01*
X149146Y3624287D01*
X154377Y3627574D01*
X159207Y3631425D01*
X163575Y3635793D01*
X167426Y3640623D01*
X170713Y3645854D01*
X173393Y3651419D01*
X175433Y3657250D01*
X176808Y3663273D01*
X177500Y3669412D01*
Y3675589D01*
X176808Y3681727D01*
X175433Y3687750D01*
X173393Y3693581D01*
X170713Y3699147D01*
X167426Y3704377D01*
X163575Y3709207D01*
X159207Y3713575D01*
X154377Y3717427D01*
X149146Y3720713D01*
X143581Y3723393D01*
X137750Y3725434D01*
X131727Y3726808D01*
X125589Y3727500D01*
X119411D01*
X113273Y3726808D01*
X107250Y3725434D01*
X106345Y3725117D01*
X104335Y3725782D01*
X97590Y3731728D01*
X97275Y3732414D01*
X97500Y3734411D01*
Y3740589D01*
X97275Y3742586D01*
X97590Y3743272D01*
X104335Y3749218D01*
X106345Y3749883D01*
X107250Y3749567D01*
X113273Y3748192D01*
X119411Y3747500D01*
X125589D01*
X131727Y3748192D01*
X137750Y3749567D01*
X143581Y3751607D01*
X149146Y3754287D01*
X154377Y3757574D01*
X159207Y3761425D01*
X163575Y3765793D01*
X167426Y3770623D01*
X170713Y3775854D01*
X173393Y3781419D01*
X175433Y3787250D01*
X176808Y3793273D01*
X177500Y3799412D01*
Y3805589D01*
X176808Y3811727D01*
X175433Y3817750D01*
X173393Y3823581D01*
X170713Y3829147D01*
X167426Y3834377D01*
X163575Y3839207D01*
X159207Y3843575D01*
X154377Y3847427D01*
X149146Y3850713D01*
X143581Y3853393D01*
X137750Y3855434D01*
X131727Y3856808D01*
X125589Y3857500D01*
X119411D01*
X113273Y3856808D01*
X107250Y3855434D01*
X106345Y3855117D01*
X104335Y3855782D01*
X97590Y3861728D01*
X97275Y3862414D01*
X97500Y3864411D01*
Y3870589D01*
X97275Y3872586D01*
X97590Y3873272D01*
X104335Y3879218D01*
X106345Y3879883D01*
X107250Y3879567D01*
X113273Y3878192D01*
X119411Y3877500D01*
X125589D01*
X131727Y3878192D01*
X137750Y3879567D01*
X143581Y3881607D01*
X149146Y3884287D01*
X154377Y3887574D01*
X159207Y3891425D01*
X163575Y3895793D01*
X167426Y3900623D01*
X170713Y3905854D01*
X173393Y3911419D01*
X175433Y3917250D01*
X176808Y3923273D01*
X177500Y3929411D01*
Y3935589D01*
X176808Y3941727D01*
X175433Y3947750D01*
X173393Y3953581D01*
X170713Y3959147D01*
X167426Y3964377D01*
X163575Y3969207D01*
X159207Y3973575D01*
X154377Y3977427D01*
X149146Y3980713D01*
X143581Y3983393D01*
X137750Y3985434D01*
X131727Y3986808D01*
X125589Y3987500D01*
X119411D01*
X113273Y3986808D01*
X107250Y3985434D01*
X106345Y3985117D01*
X104335Y3985782D01*
X97590Y3991728D01*
X97275Y3992414D01*
X97500Y3994411D01*
Y4000589D01*
X97275Y4002586D01*
X97590Y4003272D01*
X104335Y4009218D01*
X106345Y4009883D01*
X107250Y4009567D01*
X113273Y4008192D01*
X119411Y4007500D01*
X125589D01*
X131727Y4008192D01*
X137750Y4009567D01*
X143581Y4011607D01*
X149146Y4014287D01*
X154377Y4017574D01*
X159207Y4021425D01*
X163575Y4025793D01*
X167426Y4030623D01*
X170713Y4035854D01*
X173393Y4041419D01*
X175433Y4047250D01*
X176808Y4053273D01*
X177500Y4059411D01*
Y4065589D01*
X176808Y4071727D01*
X175433Y4077750D01*
X173393Y4083581D01*
X170713Y4089147D01*
X167426Y4094377D01*
X163575Y4099207D01*
X159207Y4103575D01*
X154377Y4107427D01*
X149146Y4110713D01*
X143581Y4113393D01*
X137750Y4115434D01*
X131727Y4116808D01*
X125589Y4117500D01*
X119411D01*
X113273Y4116808D01*
X107250Y4115434D01*
X106345Y4115117D01*
X104335Y4115782D01*
X97590Y4121728D01*
X97275Y4122414D01*
X97500Y4124411D01*
Y4130589D01*
X96808Y4136727D01*
X95434Y4142750D01*
X93393Y4148581D01*
X90713Y4154146D01*
X87427Y4159377D01*
X83575Y4164207D01*
X79207Y4168575D01*
X74377Y4172427D01*
X69146Y4175713D01*
X63581Y4178393D01*
X57750Y4180434D01*
X51727Y4181808D01*
X45589Y4182500D01*
D02*
G37*
G36*
X715588Y3845000D02*
X709411D01*
X703272Y3844308D01*
X697250Y3842933D01*
X691419Y3840893D01*
X685853Y3838213D01*
X680623Y3834926D01*
X675793Y3831075D01*
X671425Y3826707D01*
X668504Y3823043D01*
X662500Y3822064D01*
X656496Y3823043D01*
X653575Y3826707D01*
X649207Y3831075D01*
X644377Y3834926D01*
X639146Y3838213D01*
X633581Y3840893D01*
X627750Y3842933D01*
X621727Y3844308D01*
X615589Y3845000D01*
X609411D01*
X603273Y3844308D01*
X597250Y3842933D01*
X591419Y3840893D01*
X585854Y3838213D01*
X580623Y3834926D01*
X575793Y3831075D01*
X571425Y3826707D01*
X567573Y3821877D01*
X564287Y3816646D01*
X561607Y3811081D01*
X559566Y3805250D01*
X558192Y3799227D01*
X557500Y3793088D01*
Y3786911D01*
X558192Y3780772D01*
X559566Y3774750D01*
X561607Y3768919D01*
X564287Y3763353D01*
X567573Y3758123D01*
X571425Y3753293D01*
X575793Y3748925D01*
X579456Y3746004D01*
X580435Y3740000D01*
X579456Y3733996D01*
X575793Y3731075D01*
X571425Y3726707D01*
X567573Y3721877D01*
X564287Y3716646D01*
X561607Y3711081D01*
X559566Y3705250D01*
X558192Y3699227D01*
X557500Y3693089D01*
Y3686911D01*
X558192Y3680773D01*
X559566Y3674750D01*
X561607Y3668919D01*
X564287Y3663354D01*
X567573Y3658123D01*
X571425Y3653293D01*
X575793Y3648925D01*
X580623Y3645073D01*
X585854Y3641787D01*
X591419Y3639107D01*
X597250Y3637066D01*
X603273Y3635692D01*
X609411Y3635000D01*
X615589D01*
X621727Y3635692D01*
X627750Y3637066D01*
X633581Y3639107D01*
X639146Y3641787D01*
X644377Y3645073D01*
X649207Y3648925D01*
X653575Y3653293D01*
X656496Y3656956D01*
X662500Y3657936D01*
X668504Y3656956D01*
X671425Y3653293D01*
X675793Y3648925D01*
X680623Y3645073D01*
X685853Y3641787D01*
X691419Y3639107D01*
X697250Y3637066D01*
X703272Y3635692D01*
X709411Y3635000D01*
X715588D01*
X721727Y3635692D01*
X727750Y3637066D01*
X733580Y3639107D01*
X739146Y3641787D01*
X744377Y3645073D01*
X749207Y3648925D01*
X753575Y3653293D01*
X757426Y3658123D01*
X760713Y3663354D01*
X763393Y3668919D01*
X765433Y3674750D01*
X766808Y3680773D01*
X767500Y3686911D01*
Y3693089D01*
X766808Y3699227D01*
X765433Y3705250D01*
X763393Y3711081D01*
X760713Y3716646D01*
X757426Y3721877D01*
X753575Y3726707D01*
X749207Y3731075D01*
X745543Y3733996D01*
X744564Y3740000D01*
X745543Y3746004D01*
X749207Y3748925D01*
X753575Y3753293D01*
X757426Y3758123D01*
X760713Y3763353D01*
X763393Y3768919D01*
X765433Y3774750D01*
X766808Y3780772D01*
X767500Y3786911D01*
Y3793088D01*
X766808Y3799227D01*
X765433Y3805250D01*
X763393Y3811081D01*
X760713Y3816646D01*
X757426Y3821877D01*
X753575Y3826707D01*
X749207Y3831075D01*
X744377Y3834926D01*
X739146Y3838213D01*
X733580Y3840893D01*
X727750Y3842933D01*
X721727Y3844308D01*
X715588Y3845000D01*
D02*
G37*
G36*
X-239412Y3792500D02*
X-245589D01*
X-251727Y3791808D01*
X-257750Y3790434D01*
X-263581Y3788393D01*
X-269147Y3785713D01*
X-274377Y3782427D01*
X-279207Y3778575D01*
X-283575Y3774207D01*
X-287427Y3769377D01*
X-290713Y3764146D01*
X-293393Y3758581D01*
X-295434Y3752750D01*
X-296808Y3746727D01*
X-297500Y3740589D01*
Y3734411D01*
X-297275Y3732414D01*
X-297590Y3731728D01*
X-304335Y3725782D01*
X-306345Y3725117D01*
X-307250Y3725434D01*
X-313273Y3726808D01*
X-319411Y3727500D01*
X-325589D01*
X-331727Y3726808D01*
X-337750Y3725434D01*
X-343581Y3723393D01*
X-349146Y3720713D01*
X-354377Y3717427D01*
X-359207Y3713575D01*
X-363575Y3709207D01*
X-367426Y3704377D01*
X-370713Y3699147D01*
X-373393Y3693581D01*
X-375434Y3687750D01*
X-376808Y3681727D01*
X-377500Y3675589D01*
Y3669412D01*
X-376808Y3663273D01*
X-375434Y3657250D01*
X-373393Y3651419D01*
X-370713Y3645854D01*
X-367426Y3640623D01*
X-363575Y3635793D01*
X-359207Y3631425D01*
X-354377Y3627574D01*
X-349146Y3624287D01*
X-343581Y3621607D01*
X-337750Y3619567D01*
X-331727Y3618192D01*
X-325589Y3617500D01*
X-319411D01*
X-313273Y3618192D01*
X-307250Y3619567D01*
X-306345Y3619883D01*
X-304335Y3619218D01*
X-297590Y3613272D01*
X-297275Y3612586D01*
X-297500Y3610589D01*
Y3604411D01*
X-296808Y3598273D01*
X-295434Y3592250D01*
X-293393Y3586419D01*
X-290713Y3580854D01*
X-287427Y3575623D01*
X-283575Y3570793D01*
X-279207Y3566425D01*
X-274377Y3562574D01*
X-269147Y3559287D01*
X-263581Y3556607D01*
X-257750Y3554566D01*
X-251727Y3553192D01*
X-245589Y3552500D01*
X-239412D01*
X-233273Y3553192D01*
X-227250Y3554566D01*
X-221419Y3556607D01*
X-215854Y3559287D01*
X-210623Y3562574D01*
X-205793Y3566425D01*
X-201425Y3570793D01*
X-197574Y3575623D01*
X-194287Y3580854D01*
X-191607Y3586419D01*
X-189567Y3592250D01*
X-188192Y3598273D01*
X-187500Y3604411D01*
Y3610589D01*
X-188192Y3616727D01*
X-189567Y3622750D01*
X-191607Y3628581D01*
X-194287Y3634146D01*
X-197574Y3639377D01*
X-201425Y3644207D01*
X-205793Y3648575D01*
X-210623Y3652427D01*
X-215854Y3655713D01*
X-221419Y3658393D01*
X-227250Y3660434D01*
X-233273Y3661808D01*
X-239412Y3662500D01*
X-245589D01*
X-251727Y3661808D01*
X-257750Y3660434D01*
X-258655Y3660117D01*
X-260665Y3660782D01*
X-267410Y3666728D01*
X-267725Y3667414D01*
X-267500Y3669412D01*
Y3675589D01*
X-267725Y3677586D01*
X-267410Y3678272D01*
X-260665Y3684218D01*
X-258655Y3684883D01*
X-257750Y3684566D01*
X-251727Y3683192D01*
X-245589Y3682500D01*
X-239412D01*
X-233273Y3683192D01*
X-227250Y3684566D01*
X-221419Y3686607D01*
X-215854Y3689287D01*
X-210623Y3692574D01*
X-205793Y3696425D01*
X-201425Y3700793D01*
X-197574Y3705623D01*
X-194287Y3710854D01*
X-191607Y3716419D01*
X-189567Y3722250D01*
X-188192Y3728273D01*
X-187500Y3734411D01*
Y3740589D01*
X-188192Y3746727D01*
X-189567Y3752750D01*
X-191607Y3758581D01*
X-194287Y3764146D01*
X-197574Y3769377D01*
X-201425Y3774207D01*
X-205793Y3778575D01*
X-210623Y3782427D01*
X-215854Y3785713D01*
X-221419Y3788393D01*
X-227250Y3790434D01*
X-233273Y3791808D01*
X-239412Y3792500D01*
D02*
G37*
G36*
X98089Y3445000D02*
X91911D01*
X85773Y3444308D01*
X79750Y3442934D01*
X73919Y3440893D01*
X68354Y3438213D01*
X63123Y3434927D01*
X58293Y3431075D01*
X53925Y3426707D01*
X50074Y3421877D01*
X46787Y3416646D01*
X44107Y3411081D01*
X42066Y3405250D01*
X40692Y3399227D01*
X40000Y3393089D01*
Y3386911D01*
X40692Y3380773D01*
X42066Y3374750D01*
X44107Y3368919D01*
X46787Y3363354D01*
X50074Y3358123D01*
X53925Y3353293D01*
X58293Y3348925D01*
X63123Y3345074D01*
X68354Y3341787D01*
X73919Y3339107D01*
X79750Y3337066D01*
X85773Y3335692D01*
X91911Y3335000D01*
X98089D01*
X104227Y3335692D01*
X110250Y3337066D01*
X116081Y3339107D01*
X121646Y3341787D01*
X126877Y3345074D01*
X131707Y3348925D01*
X136075Y3353293D01*
X139927Y3358123D01*
X143213Y3363354D01*
X145893Y3368919D01*
X147934Y3374750D01*
X149308Y3380773D01*
X150000Y3386911D01*
Y3393089D01*
X149308Y3399227D01*
X147934Y3405250D01*
X145893Y3411081D01*
X143213Y3416646D01*
X139927Y3421877D01*
X136075Y3426707D01*
X131707Y3431075D01*
X126877Y3434927D01*
X121646Y3438213D01*
X116081Y3440893D01*
X110250Y3442934D01*
X104227Y3444308D01*
X98089Y3445000D01*
D02*
G37*
G36*
X-556911Y3442500D02*
X-563089D01*
X-569227Y3441808D01*
X-575250Y3440434D01*
X-581081Y3438393D01*
X-586646Y3435713D01*
X-591877Y3432427D01*
X-596707Y3428575D01*
X-601075Y3424207D01*
X-604926Y3419377D01*
X-608213Y3414147D01*
X-610893Y3408581D01*
X-612933Y3402750D01*
X-614308Y3396728D01*
X-615000Y3390589D01*
Y3384412D01*
X-614308Y3378273D01*
X-612933Y3372250D01*
X-610893Y3366419D01*
X-608213Y3360854D01*
X-604926Y3355623D01*
X-601075Y3350793D01*
X-596707Y3346425D01*
X-593044Y3343504D01*
X-592064Y3337500D01*
X-593044Y3331497D01*
X-596707Y3328575D01*
X-601075Y3324207D01*
X-604926Y3319377D01*
X-608213Y3314147D01*
X-610893Y3308581D01*
X-612933Y3302750D01*
X-614308Y3296727D01*
X-615000Y3290589D01*
Y3284412D01*
X-614308Y3278273D01*
X-612933Y3272250D01*
X-610893Y3266419D01*
X-608213Y3260854D01*
X-604926Y3255623D01*
X-601075Y3250793D01*
X-596707Y3246425D01*
X-591877Y3242574D01*
X-586646Y3239287D01*
X-581081Y3236607D01*
X-575250Y3234567D01*
X-569227Y3233192D01*
X-563089Y3232500D01*
X-556911D01*
X-550773Y3233192D01*
X-544750Y3234567D01*
X-538919Y3236607D01*
X-533354Y3239287D01*
X-528123Y3242574D01*
X-523293Y3246425D01*
X-518925Y3250793D01*
X-515073Y3255623D01*
X-511787Y3260854D01*
X-509107Y3266419D01*
X-507066Y3272250D01*
X-505692Y3278273D01*
X-505000Y3284412D01*
Y3290589D01*
X-505692Y3296727D01*
X-507066Y3302750D01*
X-509107Y3308581D01*
X-511787Y3314147D01*
X-515073Y3319377D01*
X-518925Y3324207D01*
X-523293Y3328575D01*
X-526956Y3331497D01*
X-527936Y3337500D01*
X-526956Y3343504D01*
X-523293Y3346425D01*
X-518925Y3350793D01*
X-515073Y3355623D01*
X-511787Y3360854D01*
X-509107Y3366419D01*
X-507066Y3372250D01*
X-505692Y3378273D01*
X-505000Y3384412D01*
Y3390589D01*
X-505692Y3396728D01*
X-507066Y3402750D01*
X-509107Y3408581D01*
X-511787Y3414147D01*
X-515073Y3419377D01*
X-518925Y3424207D01*
X-523293Y3428575D01*
X-528123Y3432427D01*
X-533354Y3435713D01*
X-538919Y3438393D01*
X-544750Y3440434D01*
X-550773Y3441808D01*
X-556911Y3442500D01*
D02*
G37*
G36*
X53089Y3315000D02*
X46911D01*
X40773Y3314309D01*
X34750Y3312934D01*
X28919Y3310894D01*
X23354Y3308213D01*
X18123Y3304927D01*
X13293Y3301075D01*
X8925Y3296707D01*
X5073Y3291877D01*
X1787Y3286647D01*
X-893Y3281081D01*
X-2934Y3275250D01*
X-4308Y3269228D01*
X-5000Y3263089D01*
Y3256912D01*
X-4308Y3250773D01*
X-2934Y3244750D01*
X-893Y3238920D01*
X1787Y3233354D01*
X5073Y3228123D01*
X8925Y3223294D01*
X13293Y3218925D01*
X18123Y3215074D01*
X23354Y3211787D01*
X28919Y3209107D01*
X34750Y3207067D01*
X40773Y3205692D01*
X46911Y3205000D01*
X53089D01*
X59227Y3205692D01*
X65250Y3207067D01*
X71081Y3209107D01*
X76646Y3211787D01*
X81877Y3215074D01*
X86707Y3218925D01*
X91075Y3223294D01*
X94926Y3228123D01*
X98213Y3233354D01*
X100893Y3238920D01*
X102934Y3244750D01*
X104308Y3250773D01*
X105000Y3256912D01*
Y3263089D01*
X104308Y3269228D01*
X102934Y3275250D01*
X100893Y3281081D01*
X98213Y3286647D01*
X94926Y3291877D01*
X91075Y3296707D01*
X86707Y3301075D01*
X81877Y3304927D01*
X76646Y3308213D01*
X71081Y3310894D01*
X65250Y3312934D01*
X59227Y3314309D01*
X53089Y3315000D01*
D02*
G37*
G36*
X-137911Y3405000D02*
X-144088D01*
X-150227Y3404308D01*
X-156250Y3402934D01*
X-162080Y3400893D01*
X-167646Y3398213D01*
X-172877Y3394926D01*
X-177707Y3391075D01*
X-182075Y3386707D01*
X-185926Y3381877D01*
X-189213Y3376646D01*
X-191893Y3371081D01*
X-193933Y3365250D01*
X-195308Y3359227D01*
X-196000Y3353089D01*
Y3346911D01*
X-195308Y3340773D01*
X-193933Y3334750D01*
X-191893Y3328919D01*
X-189213Y3323354D01*
X-185926Y3318123D01*
X-182075Y3313293D01*
X-177707Y3308925D01*
X-172877Y3305073D01*
X-167646Y3301787D01*
X-162080Y3299107D01*
X-160628Y3298598D01*
X-159450Y3290339D01*
X-159890Y3287746D01*
X-164377Y3284926D01*
X-169207Y3281075D01*
X-173575Y3276707D01*
X-177426Y3271877D01*
X-180713Y3266646D01*
X-183393Y3261081D01*
X-185433Y3255250D01*
X-186808Y3249227D01*
X-187500Y3243089D01*
Y3236911D01*
X-186808Y3230773D01*
X-185433Y3224750D01*
X-183393Y3218919D01*
X-180713Y3213353D01*
X-177426Y3208123D01*
X-173575Y3203293D01*
X-169207Y3198925D01*
X-164377Y3195073D01*
X-159146Y3191787D01*
X-153581Y3189107D01*
X-147750Y3187066D01*
X-141727Y3185692D01*
X-135589Y3185000D01*
X-129411D01*
X-123273Y3185692D01*
X-117250Y3187066D01*
X-111419Y3189107D01*
X-105853Y3191787D01*
X-100623Y3195073D01*
X-95793Y3198925D01*
X-91425Y3203293D01*
X-87573Y3208123D01*
X-84287Y3213353D01*
X-81607Y3218919D01*
X-79566Y3224750D01*
X-78192Y3230773D01*
X-77500Y3236911D01*
Y3243089D01*
X-78192Y3249227D01*
X-79566Y3255250D01*
X-81607Y3261081D01*
X-84287Y3266646D01*
X-87573Y3271877D01*
X-91425Y3276707D01*
X-95793Y3281075D01*
X-100623Y3284926D01*
X-105853Y3288213D01*
X-111419Y3290893D01*
X-112872Y3291401D01*
X-114050Y3299660D01*
X-113610Y3302254D01*
X-109123Y3305073D01*
X-104293Y3308925D01*
X-99925Y3313293D01*
X-96073Y3318123D01*
X-92787Y3323354D01*
X-90106Y3328919D01*
X-88066Y3334750D01*
X-86691Y3340773D01*
X-86000Y3346911D01*
Y3353089D01*
X-86691Y3359227D01*
X-88066Y3365250D01*
X-90106Y3371081D01*
X-92787Y3376646D01*
X-96073Y3381877D01*
X-99925Y3386707D01*
X-104293Y3391075D01*
X-109123Y3394926D01*
X-114353Y3398213D01*
X-119919Y3400893D01*
X-125750Y3402934D01*
X-131772Y3404308D01*
X-137911Y3405000D01*
D02*
G37*
G36*
X223089Y2934999D02*
X216911D01*
X210773Y2934308D01*
X204750Y2932933D01*
X198919Y2930893D01*
X193354Y2928213D01*
X188123Y2924926D01*
X183293Y2921074D01*
X178925Y2916706D01*
X175074Y2911877D01*
X171787Y2906646D01*
X169107Y2901080D01*
X167066Y2895249D01*
X165692Y2889227D01*
X165000Y2883088D01*
Y2876911D01*
X165692Y2870772D01*
X167066Y2864750D01*
X169107Y2858919D01*
X171787Y2853353D01*
X175074Y2848123D01*
X178925Y2843293D01*
X183293Y2838925D01*
X188123Y2835073D01*
X193354Y2831787D01*
X198919Y2829106D01*
X204750Y2827066D01*
X210773Y2825691D01*
X216911Y2825000D01*
X223089D01*
X229227Y2825691D01*
X235250Y2827066D01*
X241081Y2829106D01*
X246646Y2831787D01*
X251877Y2835073D01*
X256707Y2838925D01*
X261075Y2843293D01*
X264927Y2848123D01*
X268213Y2853353D01*
X270893Y2858919D01*
X272934Y2864750D01*
X274308Y2870772D01*
X275000Y2876911D01*
Y2883088D01*
X274308Y2889227D01*
X272934Y2895249D01*
X270893Y2901080D01*
X268213Y2906646D01*
X264927Y2911877D01*
X261075Y2916706D01*
X256707Y2921074D01*
X251877Y2924926D01*
X246646Y2928213D01*
X241081Y2930893D01*
X235250Y2932933D01*
X229227Y2934308D01*
X223089Y2934999D01*
D02*
G37*
%LPD*%
G36*
X270350Y6624748D02*
X279819Y6623248D01*
X289141Y6621010D01*
X298258Y6618048D01*
X307115Y6614379D01*
X315657Y6610027D01*
X323831Y6605018D01*
X331587Y6599383D01*
X338877Y6593157D01*
X345656Y6586378D01*
X351882Y6579088D01*
X357517Y6571332D01*
X362526Y6563158D01*
X366879Y6554616D01*
X370547Y6545759D01*
X373510Y6536641D01*
X375748Y6527320D01*
X377247Y6517851D01*
X378000Y6508294D01*
Y6503500D01*
Y5616000D01*
Y5611206D01*
X377247Y5601649D01*
X375748Y5592180D01*
X373510Y5582858D01*
X370547Y5573741D01*
X366879Y5564884D01*
X362526Y5556342D01*
X357517Y5548168D01*
X351882Y5540412D01*
X345656Y5533122D01*
X338877Y5526343D01*
X331587Y5520117D01*
X323831Y5514482D01*
X315657Y5509473D01*
X307115Y5505121D01*
X298258Y5501452D01*
X289141Y5498489D01*
X279819Y5496251D01*
X270350Y5494752D01*
X260793Y5494000D01*
X180706D01*
X171149Y5494752D01*
X161680Y5496251D01*
X152358Y5498489D01*
X143241Y5501452D01*
X134384Y5505121D01*
X125842Y5509473D01*
X117668Y5514482D01*
X109912Y5520117D01*
X102622Y5526343D01*
X95843Y5533122D01*
X89617Y5540412D01*
X83982Y5548168D01*
X78973Y5556342D01*
X74621Y5564884D01*
X70952Y5573741D01*
X67989Y5582858D01*
X65751Y5592180D01*
X64252Y5601649D01*
X63500Y5611206D01*
Y5616000D01*
Y5616000D01*
Y6503500D01*
Y6508294D01*
X64252Y6517851D01*
X65751Y6527320D01*
X67989Y6536641D01*
X70952Y6545759D01*
X74621Y6554616D01*
X78973Y6563158D01*
X83982Y6571332D01*
X89617Y6579088D01*
X95843Y6586378D01*
X102622Y6593157D01*
X109912Y6599383D01*
X117668Y6605018D01*
X125842Y6610027D01*
X134384Y6614379D01*
X143241Y6618048D01*
X152358Y6621010D01*
X161680Y6623248D01*
X171149Y6624748D01*
X180706Y6625500D01*
X260793D01*
X270350Y6624748D01*
D02*
G37*
G36*
X-171149D02*
X-161680Y6623248D01*
X-152359Y6621010D01*
X-143241Y6618048D01*
X-134384Y6614379D01*
X-125842Y6610027D01*
X-117668Y6605018D01*
X-109912Y6599383D01*
X-102622Y6593157D01*
X-95843Y6586378D01*
X-89617Y6579088D01*
X-83982Y6571332D01*
X-78973Y6563158D01*
X-74621Y6554616D01*
X-70952Y6545759D01*
X-67990Y6536641D01*
X-65752Y6527320D01*
X-64252Y6517851D01*
X-63500Y6508294D01*
Y6503500D01*
Y5716000D01*
X-378000D01*
Y6503500D01*
Y6508294D01*
X-377248Y6517851D01*
X-375748Y6527320D01*
X-373510Y6536641D01*
X-370548Y6545759D01*
X-366879Y6554616D01*
X-362527Y6563158D01*
X-357517Y6571332D01*
X-351882Y6579088D01*
X-345656Y6586378D01*
X-338877Y6593157D01*
X-331588Y6599383D01*
X-323832Y6605018D01*
X-315658Y6610027D01*
X-307116Y6614379D01*
X-298259Y6618048D01*
X-289141Y6621010D01*
X-279819Y6623248D01*
X-270350Y6624748D01*
X-260793Y6625500D01*
X-180707D01*
X-171149Y6624748D01*
D02*
G37*
D10*
X-1547500Y4850000D02*
D03*
Y4450000D02*
D03*
Y4050000D02*
D03*
Y3650000D02*
D03*
Y3250000D02*
D03*
Y2850000D02*
D03*
X1547500D02*
D03*
Y3250000D02*
D03*
Y3650000D02*
D03*
Y4050000D02*
D03*
Y4450000D02*
D03*
Y4850000D02*
D03*
D11*
X1850000Y7945000D02*
D03*
X2050000D02*
D03*
X1150000Y5955000D02*
D03*
X1350000D02*
D03*
X1850000D02*
D03*
X1250000D02*
D03*
X1950000D02*
D03*
X2050000D02*
D03*
X800000D02*
D03*
X900000D02*
D03*
X700000D02*
D03*
X1850000Y7505000D02*
D03*
Y7395000D02*
D03*
Y6065000D02*
D03*
X1950000D02*
D03*
X2050000D02*
D03*
X1850000Y8055000D02*
D03*
X2050000D02*
D03*
X1150000Y6065000D02*
D03*
X1250000D02*
D03*
X1350000D02*
D03*
X2050000Y7395000D02*
D03*
Y7505000D02*
D03*
X700000Y6065000D02*
D03*
X800000D02*
D03*
X900000D02*
D03*
X1370000Y6365000D02*
D03*
Y6475000D02*
D03*
X1500000Y6365000D02*
D03*
Y6475000D02*
D03*
X1630000Y6365000D02*
D03*
Y6475000D02*
D03*
D12*
X1754000Y7102000D02*
D03*
X1627000D02*
D03*
X1373000D02*
D03*
X1500000D02*
D03*
X1246000D02*
D03*
Y6698000D02*
D03*
X1373000D02*
D03*
X1500000D02*
D03*
X1627000D02*
D03*
X1754000D02*
D03*
D13*
X216000Y5950000D02*
D03*
X-216000D02*
D03*
D14*
X-1482500Y6140000D02*
D03*
X-1597500D02*
D03*
D15*
X-1860000Y5930000D02*
D03*
X-1955000D02*
D03*
X-1765000D02*
D03*
X-1955000Y6190000D02*
D03*
X-1860000D02*
D03*
X-1765000D02*
D03*
D16*
X-1200000Y5830000D02*
D03*
X-2020000Y6360000D02*
D03*
Y6660000D02*
D03*
X-1780000Y6360000D02*
D03*
Y6660000D02*
D03*
X-1200000Y6110000D02*
D03*
D17*
X-1865000Y5790000D02*
D03*
X-1755000D02*
D03*
D18*
X-220000Y700000D02*
D03*
Y400000D02*
D03*
Y1000000D02*
D03*
Y1300000D02*
D03*
X220000D02*
D03*
Y1000000D02*
D03*
Y700000D02*
D03*
Y400000D02*
D03*
D19*
X-2120000Y6060000D02*
D03*
D20*
X1855000Y7655000D02*
D03*
X2045000Y7655000D02*
D03*
Y7785000D02*
D03*
Y7720000D02*
D03*
X1855000Y7785000D02*
D03*
Y7720000D02*
D03*
D21*
X1850000Y8375000D02*
D03*
Y8225000D02*
D03*
X2050000D02*
D03*
Y8375000D02*
D03*
D22*
X2045000Y7655000D02*
Y7720000D01*
D23*
X1246000Y7102000D02*
X1373000D01*
X1627000D02*
X1754000D01*
X1246000Y6698000D02*
Y7102000D01*
X2050000Y7505000D02*
Y7560000D01*
X2020000Y7590000D02*
X2050000Y7560000D01*
X1780000Y7590000D02*
X2020000D01*
X1760000Y7610000D02*
X1780000Y7590000D01*
X1760000Y7610000D02*
Y7690000D01*
X1789999Y7720000D02*
X1855000D01*
X1760000Y7690000D02*
X1789999Y7720000D01*
X1700000Y7540000D02*
Y7740000D01*
X1745000Y7785000D02*
X1855000D01*
X1700000Y7740000D02*
X1745000Y7785000D01*
X1700000Y7540000D02*
X1735000Y7505000D01*
X1850000D01*
X1920000Y7690000D02*
Y8360000D01*
X1855000Y7655000D02*
X1885000D01*
X1920000Y7690000D01*
X2015000Y7785000D02*
X2045000D01*
X1980000Y7820000D02*
Y8360000D01*
Y7820000D02*
X2015000Y7785000D01*
X1905000Y8375000D02*
X1920000Y8360000D01*
X1850000Y8375000D02*
X1905000D01*
X1980000Y8360000D02*
X1995000Y8375000D01*
X2050000D01*
X1850000Y8055000D02*
Y8225000D01*
X2050000Y8055000D02*
Y8225000D01*
X1627000Y6478000D02*
X1630000Y6475000D01*
X1627000Y6478000D02*
Y6698000D01*
X1500000Y6475000D02*
Y6698000D01*
X1370000Y6475000D02*
X1373000Y6478000D01*
Y6698000D01*
X-2120000Y6060000D02*
X-1800000D01*
X-1765000Y6025000D01*
Y5930000D02*
Y6025000D01*
Y5845000D02*
Y5930000D01*
Y5845000D02*
X-1755000Y5835000D01*
Y5790000D02*
Y5835000D01*
D24*
X1080000Y5845000D02*
Y6150000D01*
X970000Y5845000D02*
Y6181421D01*
X1025000Y6165711D02*
X1079289Y6220000D01*
X1025000Y5800000D02*
Y6165711D01*
X1100000Y6170000D02*
X1540000D01*
X1058579Y6270000D02*
X1340000D01*
X1080000Y6150000D02*
X1100000Y6170000D01*
X1079289Y6220000D02*
X1440000D01*
X970000Y6181421D02*
X1058579Y6270000D01*
X1540000Y6170000D02*
X1630000Y6260000D01*
X1080000Y5845000D02*
X1125000Y5800000D01*
X1440000Y6220000D02*
X1500000Y6280000D01*
X925000Y5800000D02*
X970000Y5845000D01*
X1630000Y6260000D02*
Y6365000D01*
X1500000Y6280000D02*
Y6365000D01*
X1340000Y6270000D02*
X1370000Y6300000D01*
Y6365000D01*
D25*
X-1067500Y2600000D02*
D03*
D26*
X-800000Y6445500D02*
D03*
X-256000D02*
D03*
X-1344000D02*
D03*
D27*
X1456606Y5854788D02*
D03*
X1743394Y5445212D02*
D03*
X550000Y5900000D02*
D03*
X-1456606Y5854788D02*
D03*
X-550000Y5900000D02*
D03*
X550000Y5400000D02*
D03*
X-550000D02*
D03*
X-1743394Y5445212D02*
D03*
D28*
X1350000Y8200000D02*
D03*
X1350000Y7900000D02*
D03*
X1350000Y7600000D02*
D03*
X1050000Y8200000D02*
D03*
Y7600000D02*
D03*
X1050000Y7900000D02*
D03*
D29*
X247000Y7200000D02*
D03*
X-1847000D02*
D03*
D30*
X-1100000Y8085000D02*
D03*
X-500000D02*
D03*
X-300000D02*
D03*
X-700000D02*
D03*
X-900000D02*
D03*
X-1300000D02*
D03*
X-1500000D02*
D03*
D31*
X-1600000Y500000D02*
D03*
X1600000D02*
D03*
D32*
X-100000Y8085000D02*
D03*
D33*
X-1900000Y4548000D02*
D03*
D34*
Y4802000D02*
D03*
D35*
X-420000Y2255000D02*
D03*
X-650000Y930000D02*
D03*
X-535000Y1934058D02*
D03*
X-495000Y661532D02*
D03*
X-640999Y1302886D02*
D03*
X-535000Y1646156D02*
D03*
X884588Y3321434D02*
D03*
X386183Y2695660D02*
D03*
X-1397500Y3600000D02*
D03*
Y3700000D02*
D03*
Y3800000D02*
D03*
Y3999999D02*
D03*
Y3900000D02*
D03*
Y4199999D02*
D03*
Y4099999D02*
D03*
Y4399999D02*
D03*
Y4299999D02*
D03*
Y4599998D02*
D03*
Y4499998D02*
D03*
Y4799998D02*
D03*
Y4699998D02*
D03*
Y4999997D02*
D03*
Y4899998D02*
D03*
X-1497500D02*
D03*
X-1597500D02*
D03*
Y4999997D02*
D03*
X-1497500D02*
D03*
Y4699998D02*
D03*
X-1597500D02*
D03*
Y4799998D02*
D03*
X-1497500D02*
D03*
Y4499998D02*
D03*
X-1597500D02*
D03*
Y4599998D02*
D03*
X-1497500D02*
D03*
Y4299999D02*
D03*
X-1597500D02*
D03*
Y4399999D02*
D03*
X-1497500D02*
D03*
Y4099999D02*
D03*
X-1597500D02*
D03*
Y4199999D02*
D03*
X-1497500D02*
D03*
Y3900000D02*
D03*
X-1597500D02*
D03*
Y3999999D02*
D03*
X-1497500D02*
D03*
Y3800000D02*
D03*
X-1597500D02*
D03*
Y3700000D02*
D03*
X-1497500D02*
D03*
Y3600000D02*
D03*
X-1597500D02*
D03*
X1650000Y1069000D02*
D03*
X1550000D02*
D03*
Y1169000D02*
D03*
X1650000D02*
D03*
X1597500Y2900000D02*
D03*
X1497500D02*
D03*
Y2800000D02*
D03*
X1597500D02*
D03*
X1650000Y2411000D02*
D03*
X1550000D02*
D03*
Y2311000D02*
D03*
X1650000D02*
D03*
X1125000Y5800000D02*
D03*
X1025000D02*
D03*
X2125000Y7952499D02*
D03*
Y7592499D02*
D03*
Y7152499D02*
D03*
Y6752499D02*
D03*
Y5952499D02*
D03*
X1925000Y3474999D02*
D03*
X635386Y3008547D02*
D03*
X-120000Y2650000D02*
D03*
X-2125002Y5700000D02*
D03*
Y5300000D02*
D03*
Y4900000D02*
D03*
Y4500000D02*
D03*
Y4100000D02*
D03*
Y3700000D02*
D03*
Y3300000D02*
D03*
Y2900000D02*
D03*
Y2500000D02*
D03*
Y2100000D02*
D03*
Y1700000D02*
D03*
Y1300000D02*
D03*
Y900000D02*
D03*
Y500000D02*
D03*
X-500000Y74998D02*
D03*
X-900000D02*
D03*
X-1300000D02*
D03*
X-2100000D02*
D03*
X-1700000D02*
D03*
X-200000Y144999D02*
D03*
X-300000D02*
D03*
Y244999D02*
D03*
X-200000D02*
D03*
Y544999D02*
D03*
X-300000D02*
D03*
X-200000Y444999D02*
D03*
X-300000D02*
D03*
Y344999D02*
D03*
X-200000D02*
D03*
X200000D02*
D03*
X300000D02*
D03*
Y444999D02*
D03*
X200000D02*
D03*
X300000Y544999D02*
D03*
X200000D02*
D03*
Y644999D02*
D03*
X300000D02*
D03*
Y745000D02*
D03*
X200000D02*
D03*
Y845000D02*
D03*
X300000D02*
D03*
X-2125002Y7200001D02*
D03*
Y7600001D02*
D03*
Y8000001D02*
D03*
X1500000Y8425002D02*
D03*
X1100000D02*
D03*
X700000D02*
D03*
X300000D02*
D03*
X-100000D02*
D03*
X-500000D02*
D03*
X-900000D02*
D03*
X-1300000D02*
D03*
X-2100000D02*
D03*
X-1700000D02*
D03*
X2125000Y6352499D02*
D03*
Y5552499D02*
D03*
Y5152499D02*
D03*
Y4752499D02*
D03*
Y4352499D02*
D03*
Y3674999D02*
D03*
Y3952499D02*
D03*
X1875000Y4162500D02*
D03*
Y4062500D02*
D03*
Y3687500D02*
D03*
X1775000Y4062500D02*
D03*
X1875000Y3587500D02*
D03*
X1775000Y3687500D02*
D03*
Y3587500D02*
D03*
Y4162500D02*
D03*
X-720000Y4165000D02*
D03*
Y4265000D02*
D03*
X1775000Y4512500D02*
D03*
X1875000D02*
D03*
X1775000Y4412500D02*
D03*
X1875000D02*
D03*
X1087500Y4090000D02*
D03*
Y4190000D02*
D03*
Y3790000D02*
D03*
Y3690000D02*
D03*
X1187500Y4090000D02*
D03*
Y4190000D02*
D03*
Y3790000D02*
D03*
Y3690000D02*
D03*
Y4890000D02*
D03*
Y4990000D02*
D03*
Y4590000D02*
D03*
Y4490000D02*
D03*
X1087500Y4890000D02*
D03*
Y4990000D02*
D03*
Y4590000D02*
D03*
Y4490000D02*
D03*
X-975000Y2530001D02*
D03*
X-1075000D02*
D03*
Y2630000D02*
D03*
Y2730000D02*
D03*
X-975000D02*
D03*
Y2630000D02*
D03*
X-1075000Y2430001D02*
D03*
X-975000D02*
D03*
X-1175000Y2530001D02*
D03*
Y2430001D02*
D03*
Y2630000D02*
D03*
X1850000Y7945000D02*
D03*
X1500000Y7190000D02*
D03*
X1627000D02*
D03*
X1373000D02*
D03*
X2040500Y6897500D02*
D03*
X1950000Y5955000D02*
D03*
X1850000D02*
D03*
X1560000Y6907500D02*
D03*
X1440500Y6897500D02*
D03*
X1350000Y5955000D02*
D03*
X960000Y6907500D02*
D03*
X360000D02*
D03*
X840500Y6820000D02*
D03*
X800000Y5955000D02*
D03*
X900000D02*
D03*
X700000D02*
D03*
X1250000D02*
D03*
X1150000D02*
D03*
X300000Y6300000D02*
D03*
Y6200000D02*
D03*
Y6500000D02*
D03*
Y6000000D02*
D03*
Y6100000D02*
D03*
X712500Y4890000D02*
D03*
Y4590000D02*
D03*
X1875000Y4887500D02*
D03*
X712500Y3690000D02*
D03*
X1775000Y4887500D02*
D03*
X712500Y4090000D02*
D03*
Y4490000D02*
D03*
Y4990000D02*
D03*
X612500D02*
D03*
Y4590000D02*
D03*
Y4490000D02*
D03*
Y4890000D02*
D03*
X300000Y5800000D02*
D03*
Y5700000D02*
D03*
Y5900000D02*
D03*
X377500Y4300000D02*
D03*
X300000Y5600000D02*
D03*
X712500Y4190000D02*
D03*
Y3790000D02*
D03*
X1875000Y4987500D02*
D03*
X1775000D02*
D03*
X612500Y4190000D02*
D03*
Y4090000D02*
D03*
Y3690000D02*
D03*
Y3790000D02*
D03*
X200000Y6400000D02*
D03*
X300000D02*
D03*
X200000Y6500000D02*
D03*
Y6200000D02*
D03*
Y6100000D02*
D03*
Y6300000D02*
D03*
X100000D02*
D03*
Y6400000D02*
D03*
Y6100000D02*
D03*
Y6200000D02*
D03*
X200000Y5900000D02*
D03*
Y5800000D02*
D03*
Y6000000D02*
D03*
Y5700000D02*
D03*
Y5600000D02*
D03*
X100000D02*
D03*
Y5900000D02*
D03*
Y5800000D02*
D03*
Y6000000D02*
D03*
Y5700000D02*
D03*
X-1730000Y6825000D02*
D03*
X100000Y6500000D02*
D03*
X-1482500Y6140000D02*
D03*
X-1830000Y6825000D02*
D03*
X-1250000Y5830000D02*
D03*
X-1150000D02*
D03*
X-1860000Y5930000D02*
D03*
X-1955000D02*
D03*
X-1865000Y5790000D02*
D03*
X95000Y3390000D02*
D03*
X-57500Y4500000D02*
D03*
X50000Y3260000D02*
D03*
X-130000Y4740000D02*
D03*
X-260000Y4685000D02*
D03*
X-132500Y3240000D02*
D03*
X220000Y2880000D02*
D03*
X-512500Y4900000D02*
D03*
X-612500D02*
D03*
X-512500Y4800000D02*
D03*
X-612500D02*
D03*
X-1230000Y4415000D02*
D03*
X-1097500Y4410000D02*
D03*
X-837500D02*
D03*
X-460000Y4215000D02*
D03*
X-560000Y3287500D02*
D03*
Y3387500D02*
D03*
X-1200000Y2242500D02*
D03*
X-1755000Y5790000D02*
D03*
X1754000Y6598000D02*
D03*
X2045000Y7655000D02*
D03*
X50000Y6650000D02*
D03*
Y6750000D02*
D03*
Y6850000D02*
D03*
X150000Y6750000D02*
D03*
Y6850000D02*
D03*
X-729999Y2630001D02*
D03*
X-630000D02*
D03*
X-530000D02*
D03*
X-430000D02*
D03*
Y2730000D02*
D03*
X-530000D02*
D03*
X-630000D02*
D03*
X-729999D02*
D03*
Y2830000D02*
D03*
X-630000D02*
D03*
X-729999Y2930000D02*
D03*
X-630000D02*
D03*
X-530000Y2830000D02*
D03*
Y2930000D02*
D03*
X-430000D02*
D03*
Y2830000D02*
D03*
X925000Y5800000D02*
D03*
X2050000Y7395000D02*
D03*
X1850000D02*
D03*
X-242500Y3737500D02*
D03*
X42500Y4127500D02*
D03*
X122500Y4062500D02*
D03*
X42500Y3997500D02*
D03*
X122500Y3932500D02*
D03*
X42500Y3867500D02*
D03*
X122500Y3802500D02*
D03*
X42500Y3737500D02*
D03*
X122500Y3672500D02*
D03*
X42500Y3607500D02*
D03*
X-242500D02*
D03*
X-322500Y3672500D02*
D03*
Y4062500D02*
D03*
X-242500Y4127500D02*
D03*
X1800000Y7295000D02*
D03*
X1900000Y7295000D02*
D03*
X600000Y7295000D02*
D03*
X700000Y7295000D02*
D03*
X-1450000Y7600000D02*
D03*
X-1150000D02*
D03*
X-950000D02*
D03*
X-650000D02*
D03*
X-450000D02*
D03*
X-150000D02*
D03*
X-100000Y5900000D02*
D03*
X1300000Y7295000D02*
D03*
X1200000Y7295000D02*
D03*
X262500Y4300000D02*
D03*
X-49000Y4390000D02*
D03*
X-141000Y3350000D02*
D03*
X2050000Y6065000D02*
D03*
X1950000D02*
D03*
X1850000D02*
D03*
X1350000D02*
D03*
X1250000D02*
D03*
X1150000D02*
D03*
X700000D02*
D03*
X800000D02*
D03*
X900000D02*
D03*
X-1765000Y6190000D02*
D03*
X-1665000D02*
D03*
X260000Y4685000D02*
D03*
X-130000Y4645000D02*
D03*
%TF.MD5,6e87d7598031a15be691f07cda30bba4*%
M02*
