%TF.GenerationSoftware,Altium Limited,Altium Designer,25.6.2 (33)*%
G04 Layer_Color=32896*
%FSLAX45Y45*%
%MOMM*%
%TF.SameCoordinates,4265A882-CCA4-4A53-A555-757F884491BB*%
%TF.FilePolarity,Positive*%
%TF.FileFunction,Legend,Bot*%
%TF.Part,Single*%
G01*
G75*
%TA.AperFunction,NonConductor*%
%ADD63C,0.25000*%
%ADD64C,0.20000*%
%ADD65C,0.40000*%
%ADD66C,0.30000*%
%ADD69C,0.60000*%
%ADD70C,0.12700*%
%ADD71C,0.50000*%
%ADD72R,1.26900X1.65100*%
%ADD73R,2.47501X0.85000*%
%ADD74R,2.47501X0.85000*%
%ADD75R,0.80000X5.90000*%
%ADD76R,0.27500X1.50000*%
%ADD77R,3.94999X0.80000*%
%ADD78R,0.27500X1.50000*%
%ADD79R,3.94999X0.80000*%
G36*
X-2084247Y5532938D02*
X-2081397Y5514881D01*
X-2007493Y5360260D01*
X-1919738Y5265593D01*
X-1835129Y5208735D01*
X-1716264Y5163705D01*
X-1585866Y5150200D01*
X-1547145Y5156855D01*
X-2084247Y5532938D01*
D02*
G37*
G36*
X-879528Y5276356D02*
X-866836Y5263199D01*
X-717611Y5178930D01*
X-591427Y5151719D01*
X-489507Y5153673D01*
X-366311Y5184964D01*
X-251748Y5248695D01*
X-223848Y5276356D01*
X-879528D01*
D02*
G37*
G36*
X220473D02*
X233164Y5263199D01*
X382389Y5178930D01*
X508573Y5151719D01*
X610493Y5153673D01*
X733689Y5184964D01*
X848252Y5248695D01*
X876152Y5276356D01*
X220473D01*
D02*
G37*
G36*
X1544380Y5154919D02*
X1562323Y5151421D01*
X1732896Y5167985D01*
X1851867Y5218070D01*
X1934235Y5278130D01*
X2017203Y5374425D01*
X2074493Y5492340D01*
X2081482Y5531002D01*
X1544380Y5154919D01*
D02*
G37*
D63*
X1667500Y4250000D02*
G03*
X1667500Y4250000I-12500J0D01*
G01*
X-377500Y2725000D02*
G03*
X-377500Y2725000I-12500J0D01*
G01*
X-1162500Y4680000D02*
G03*
X-1162500Y4680000I-12500J0D01*
G01*
X-1267500Y4215000D02*
G03*
X-1267500Y4215000I-12500J0D01*
G01*
X-120000Y4575000D02*
G03*
X-120000Y4575000I-10000J0D01*
G01*
X2007500Y4325000D02*
G03*
X2007500Y4325000I-12500J0D01*
G01*
X1287500Y5110000D02*
G03*
X1287500Y5110000I-12500J0D01*
G01*
Y4710000D02*
G03*
X1287500Y4710000I-12500J0D01*
G01*
Y4310000D02*
G03*
X1287500Y4310000I-12500J0D01*
G01*
Y3910000D02*
G03*
X1287500Y3910000I-12500J0D01*
G01*
D64*
X2100000Y5650000D02*
G03*
X2100000Y5650000I-500000J0D01*
G01*
X-50000D02*
G03*
X-50000Y5650000I-500000J0D01*
G01*
X-90000Y8299600D02*
G03*
X-90000Y8299600I-10000J0D01*
G01*
X1050000Y5650000D02*
G03*
X1050000Y5650000I-500000J0D01*
G01*
X-640000Y4540000D02*
G03*
X-640000Y4540000I-10000J0D01*
G01*
X2100000Y6600000D02*
G03*
X2100000Y6500000I0J-50000D01*
G01*
X1500000Y6600000D02*
G03*
X1500000Y6500000I0J-50000D01*
G01*
X900000Y6600000D02*
G03*
X900000Y6500000I0J-50000D01*
G01*
X232500Y3160000D02*
G03*
X232500Y3160000I-10000J0D01*
G01*
X-1000000Y2760000D02*
G03*
X-1000000Y2760000I-10000J0D01*
G01*
X-1100000Y5650000D02*
G03*
X-1100000Y5650000I-500000J0D01*
G01*
X-340000Y3525000D02*
Y4275000D01*
X140000D01*
X-340000Y3525000D02*
X140000D01*
Y4275000D01*
X-1110000Y2310000D02*
X-490000D01*
X-1110000Y2220000D02*
Y2310000D01*
X-490000Y2220000D02*
Y2310000D01*
X1655000Y3565000D02*
Y4185000D01*
X1995000Y3565000D02*
Y4185000D01*
X1655000D02*
X1670000D01*
X1655000Y3565000D02*
X1670000D01*
X1980000Y4185000D02*
X1995000D01*
X1980000Y3565000D02*
X1995000D01*
X-730000Y3410000D02*
X-715000D01*
X-730000Y2790000D02*
X-715000D01*
X-405000Y3410000D02*
X-390000D01*
X-405000Y2790000D02*
X-390000D01*
X-730000D02*
Y3410000D01*
X-390000Y2790000D02*
Y3410000D01*
X-845000Y7680000D02*
X-755000D01*
X-845000Y7520000D02*
X-755000D01*
X-490000Y5005000D02*
Y5020000D01*
X-1110000Y5005000D02*
Y5020000D01*
X-490000Y4680000D02*
Y4695000D01*
X-1110000Y4680000D02*
Y4695000D01*
Y5020000D02*
X-490000D01*
X-1110000Y4680000D02*
X-490000D01*
X-1700000Y6485000D02*
Y6555000D01*
X-1860000Y6485000D02*
Y6555000D01*
X-1740000Y4375000D02*
Y4975000D01*
X-2060000Y4375000D02*
X-1740000D01*
X-2060000D02*
Y4975000D01*
X-1740000D01*
X-800000Y4582500D02*
X-760000D01*
X-800000Y4497500D02*
X-760000D01*
X-615000Y3760000D02*
Y4080000D01*
X-1285000Y3760000D02*
Y4080000D01*
Y3760000D02*
X-615000D01*
X-1285000Y4080000D02*
X-615000Y4080000D01*
X1600000Y6400000D02*
X2100000D01*
X1600000Y6700000D02*
X2100000D01*
Y6600000D02*
Y6700000D01*
Y6400000D02*
Y6500000D01*
X1600000Y6400000D02*
Y6700000D01*
X1000000Y6400000D02*
X1500000D01*
X1000000Y6700000D02*
X1500000D01*
Y6600000D02*
Y6700000D01*
Y6400000D02*
Y6500000D01*
X1000000Y6400000D02*
Y6700000D01*
X400000Y6400000D02*
X900000D01*
X400000Y6700000D02*
X900000D01*
Y6600000D02*
Y6700000D01*
Y6400000D02*
Y6500000D01*
X400000Y6400000D02*
Y6700000D01*
X115000Y2845000D02*
Y3155000D01*
X-115000Y2845000D02*
Y3155000D01*
X115000D01*
X-115000Y2845000D02*
X115000D01*
X-50000Y4585000D02*
X50000D01*
X-50000Y4895000D02*
X50000D01*
X-50000Y4585000D02*
Y4895000D01*
X50000Y4585000D02*
Y4895000D01*
X-1345000Y7520000D02*
X-1255000D01*
X-1345000Y7680000D02*
X-1255000D01*
X-345000Y7520000D02*
X-255000D01*
X-345000Y7680000D02*
X-255000D01*
X260000Y2590000D02*
Y2610000D01*
X140000Y2590000D02*
Y2610000D01*
X360000Y2190000D02*
Y2210000D01*
X240000Y2190000D02*
Y2210000D01*
X460000Y1790000D02*
Y1810000D01*
X340000Y1790000D02*
Y1810000D01*
X560000Y1390000D02*
Y1410000D01*
X440000Y1390000D02*
Y1410000D01*
X660000Y990000D02*
Y1010000D01*
X540000Y990000D02*
Y1010000D01*
X-900000Y2717500D02*
X-860000D01*
X-900000Y2802500D02*
X-860000D01*
X1402500Y1110000D02*
Y1570000D01*
X1797500Y1110000D02*
Y1570000D01*
X1770000D02*
X1797500D01*
X1770000Y1110000D02*
X1797500D01*
X1402500D02*
X1430000D01*
X1402500Y1570000D02*
X1430000D01*
X1770000Y1110000D02*
Y1260000D01*
X1430000D02*
X1770000D01*
X1430000Y1110000D02*
Y1260000D01*
X1402500Y1260000D02*
X1430000Y1260000D01*
X1770000D02*
X1797500D01*
X1402500Y1910000D02*
Y2370000D01*
X1797500Y1910000D02*
Y2370000D01*
X1770000D02*
X1797500D01*
X1770000Y1910000D02*
X1797500D01*
X1402500D02*
X1430000D01*
X1402500Y2370000D02*
X1430000D01*
X1770000Y1910000D02*
Y2060000D01*
X1430000D02*
X1770000D01*
X1430000Y1910000D02*
Y2060000D01*
X1402500Y2060000D02*
X1430000Y2060000D01*
X1770000D02*
X1797500D01*
X1995000Y4390000D02*
Y5010000D01*
X1655000Y4390000D02*
Y5010000D01*
X1980000Y4390000D02*
X1995000D01*
X1980000Y5010000D02*
X1995000D01*
X1655000Y4390000D02*
X1670000D01*
X1655000Y5010000D02*
X1670000D01*
X590000Y5110000D02*
X1210000D01*
X590000Y4770000D02*
X1210000D01*
Y5095000D02*
Y5110000D01*
X590000Y5095000D02*
Y5110000D01*
X1210000Y4770000D02*
Y4785000D01*
X590000Y4770000D02*
Y4785000D01*
Y4710000D02*
X1210000D01*
X590000Y4370000D02*
X1210000D01*
Y4695000D02*
Y4710000D01*
X590000Y4695000D02*
Y4710000D01*
X1210000Y4370000D02*
Y4385000D01*
X590000Y4370000D02*
Y4385000D01*
X130000Y3210000D02*
X170000D01*
X130000Y3310000D02*
X170000D01*
X-50000Y2580000D02*
Y2620000D01*
X50000Y2580000D02*
Y2620000D01*
X50000Y2180000D02*
Y2220000D01*
X150000Y2180000D02*
Y2220000D01*
X150000Y1780000D02*
Y1820000D01*
X250000Y1780000D02*
Y1820000D01*
X250000Y1380000D02*
Y1420000D01*
X350000Y1380000D02*
Y1420000D01*
X350000Y980000D02*
Y1020000D01*
X450000Y980000D02*
Y1020000D01*
X590000Y4310000D02*
X1210000D01*
X590000Y3970000D02*
X1210000D01*
Y4295000D02*
Y4310000D01*
X590000Y4295000D02*
Y4310000D01*
X1210000Y3970000D02*
Y3985000D01*
X590000Y3970000D02*
Y3985000D01*
Y3910000D02*
X1210000D01*
X590000Y3570000D02*
X1210000D01*
Y3895000D02*
Y3910000D01*
X590000Y3895000D02*
Y3910000D01*
X1210000Y3570000D02*
Y3585000D01*
X590000Y3570000D02*
Y3585000D01*
D65*
X500000Y730000D02*
G03*
X500000Y730000I-20000J0D01*
G01*
X2020000Y6471000D02*
G03*
X2020000Y6471000I-20000J0D01*
G01*
X1420000D02*
G03*
X1420000Y6471000I-20000J0D01*
G01*
X820000D02*
G03*
X820000Y6471000I-20000J0D01*
G01*
D66*
X425000Y4192500D02*
G03*
X425000Y4192500I-15000J0D01*
G01*
X2135000Y6280000D02*
G03*
X2135000Y6280000I-15000J0D01*
G01*
X1535000D02*
G03*
X1535000Y6280000I-15000J0D01*
G01*
X935000D02*
G03*
X935000Y6280000I-15000J0D01*
G01*
X1810000Y1030000D02*
G03*
X1810000Y1030000I-10000J0D01*
G01*
Y1830000D02*
G03*
X1810000Y1830000I-10000J0D01*
G01*
X857000Y7407500D02*
Y8392500D01*
Y7407500D02*
X857000D01*
X1543000Y7407500D01*
Y8392500D01*
X1543000D02*
X1543000D01*
X1034900D02*
X1543000D01*
X730100Y7976200D02*
X857100D01*
X730100D02*
X730100Y7811100D01*
X857100D01*
X150000Y610000D02*
X397500Y610000D01*
X150000Y190000D02*
X397500Y190000D01*
X-397500Y695000D02*
X397500D01*
Y610000D02*
Y695000D01*
X-397500Y610000D02*
Y695000D01*
Y105000D02*
Y190000D01*
X397500Y105000D02*
Y190000D01*
X-397500Y105000D02*
X397500D01*
D69*
X50000Y4152500D02*
G03*
X50000Y4152500I-30000J0D01*
G01*
X45000Y3055000D02*
G03*
X45000Y3055000I-30000J0D01*
G01*
D70*
X-1695000Y7805000D02*
X95000D01*
X-1695000D02*
Y8255000D01*
X95000Y7805000D02*
Y8255000D01*
X-1695000D02*
X95000D01*
D71*
X1800000Y7800000D02*
Y8000000D01*
X1700000Y7900000D02*
X1900000D01*
X400000D02*
X600000D01*
D72*
X793550Y7893649D02*
D03*
D73*
X273748Y652499D02*
D03*
D74*
Y147502D02*
D03*
D75*
X139997Y400000D02*
D03*
D76*
X1783753Y1185013D02*
D03*
X1416254Y1185004D02*
D03*
X1783732Y1984995D02*
D03*
D77*
X1599999Y1300000D02*
D03*
D78*
X1416254Y1985004D02*
D03*
D79*
X1599999Y2100000D02*
D03*
%TF.MD5,46bf033c974537f0288962b307dd5087*%
M02*
