%TF.GenerationSoftware,Altium Limited,Altium Designer,25.6.2 (33)*%
G04 Layer_Color=128*
%FSLAX45Y45*%
%MOMM*%
%TF.SameCoordinates,4265A882-CCA4-4A53-A555-757F884491BB*%
%TF.FilePolarity,Positive*%
%TF.FileFunction,Paste,Bot*%
%TF.Part,Single*%
G01*
G75*
%TA.AperFunction,SMDPad,CuDef*%
%ADD11R,0.65000X0.80000*%
%ADD14R,0.85000X0.60000*%
%ADD16R,1.80000X1.30000*%
%ADD17R,0.80000X0.65000*%
%ADD38R,1.75000X0.45000*%
%ADD39R,6.30000X6.10000*%
%ADD40R,1.50000X2.80000*%
%ADD41R,2.30000X2.45000*%
%ADD42R,2.74300X2.15900*%
%ADD43R,0.90000X2.10000*%
%ADD44R,0.50000X0.60000*%
%ADD45R,2.45000X2.30000*%
%ADD46R,0.60000X0.85000*%
G04:AMPARAMS|DCode=47|XSize=1.55mm|YSize=0.6mm|CornerRadius=0.05mm|HoleSize=0mm|Usage=FLASHONLY|Rotation=90.000|XOffset=0mm|YOffset=0mm|HoleType=Round|Shape=RoundedRectangle|*
%AMROUNDEDRECTD47*
21,1,1.55000,0.50000,0,0,90.0*
21,1,1.45000,0.60000,0,0,90.0*
1,1,0.10000,0.25000,0.72500*
1,1,0.10000,0.25000,-0.72500*
1,1,0.10000,-0.25000,-0.72500*
1,1,0.10000,-0.25000,0.72500*
%
%ADD47ROUNDEDRECTD47*%
%ADD48R,1.00000X1.15000*%
%ADD49R,1.10000X0.60000*%
%ADD50R,1.45000X0.45000*%
%ADD51R,2.40000X3.30000*%
%ADD52R,1.30000X1.80000*%
%ADD53R,3.30000X2.10000*%
%ADD54R,0.57000X0.64000*%
%ADD55R,1.40000X1.05000*%
%ADD56R,1.15000X1.00000*%
D11*
X1850000Y7505000D02*
D03*
Y7395000D02*
D03*
X50000Y5225000D02*
D03*
X-260000Y4685000D02*
D03*
X-1230000Y4415000D02*
D03*
X700000Y7105000D02*
D03*
X600000D02*
D03*
X1900000D02*
D03*
X1800000D02*
D03*
X1300000D02*
D03*
X1200000D02*
D03*
X-1230000Y4525000D02*
D03*
X1900000Y6995000D02*
D03*
X1800000D02*
D03*
X1300000D02*
D03*
X1200000D02*
D03*
X700000D02*
D03*
X600000D02*
D03*
X-260000Y4795000D02*
D03*
X260000D02*
D03*
Y4685000D02*
D03*
X50000Y5115000D02*
D03*
X-50000D02*
D03*
Y5225000D02*
D03*
D14*
X-722500Y4410000D02*
D03*
X377500Y4300000D02*
D03*
X-57500Y4500000D02*
D03*
X-132500Y3240000D02*
D03*
X-1097500Y4410000D02*
D03*
X-837500D02*
D03*
X-982500D02*
D03*
X-247500Y3240000D02*
D03*
X262500Y4300000D02*
D03*
X57500Y4500000D02*
D03*
X-57500Y4980000D02*
D03*
X57500D02*
D03*
D16*
X-1780000Y6660000D02*
D03*
Y6380000D02*
D03*
D17*
X95000Y3390000D02*
D03*
X-985000Y4520000D02*
D03*
X-1095000D02*
D03*
X205000Y3390000D02*
D03*
D38*
X-460000Y4192500D02*
D03*
Y4127500D02*
D03*
Y4062500D02*
D03*
Y3997500D02*
D03*
Y3932500D02*
D03*
Y3867500D02*
D03*
Y3802500D02*
D03*
Y3737500D02*
D03*
Y3672500D02*
D03*
Y3607500D02*
D03*
X260000D02*
D03*
Y3672500D02*
D03*
Y3737500D02*
D03*
Y3802500D02*
D03*
Y3867500D02*
D03*
Y3932500D02*
D03*
Y3997500D02*
D03*
Y4062500D02*
D03*
Y4127500D02*
D03*
Y4192500D02*
D03*
D39*
X-800000Y1875000D02*
D03*
D40*
X-571400Y2500000D02*
D03*
X-1028600D02*
D03*
D41*
X1825000Y4112500D02*
D03*
Y3637500D02*
D03*
Y4462500D02*
D03*
Y4937500D02*
D03*
X-560000Y3337500D02*
D03*
Y2862500D02*
D03*
D42*
X1600000Y2361000D02*
D03*
Y1561000D02*
D03*
Y1119000D02*
D03*
Y1919000D02*
D03*
D43*
X-720000Y4215000D02*
D03*
X-950000D02*
D03*
X-1180000D02*
D03*
D44*
X-710000Y4540000D02*
D03*
X-950000Y2760000D02*
D03*
X-850000Y4540000D02*
D03*
X-810000Y2760000D02*
D03*
D45*
X1137500Y4940000D02*
D03*
Y4540000D02*
D03*
Y4140000D02*
D03*
Y3740000D02*
D03*
X662500Y4940000D02*
D03*
Y4540000D02*
D03*
Y4140000D02*
D03*
Y3740000D02*
D03*
X-562500Y4850000D02*
D03*
X-1037500D02*
D03*
D46*
X-1200000Y2357500D02*
D03*
X1560000Y6907500D02*
D03*
X360000D02*
D03*
X960000D02*
D03*
X-400000Y2242500D02*
D03*
X-1200000D02*
D03*
X-400000Y2357500D02*
D03*
X1560000Y6792500D02*
D03*
X960000D02*
D03*
X360000D02*
D03*
D47*
X2040500Y6820000D02*
D03*
X1440500D02*
D03*
X840500D02*
D03*
X2040500Y6280000D02*
D03*
X1913500D02*
D03*
X1786500D02*
D03*
X1659500D02*
D03*
Y6820000D02*
D03*
X1786500D02*
D03*
X1913500D02*
D03*
X1440500Y6280000D02*
D03*
X1313500D02*
D03*
X1186500D02*
D03*
X1059500D02*
D03*
Y6820000D02*
D03*
X1186500D02*
D03*
X1313500D02*
D03*
X840500Y6280000D02*
D03*
X713500D02*
D03*
X586500D02*
D03*
X459500D02*
D03*
Y6820000D02*
D03*
X586500D02*
D03*
X713500D02*
D03*
D48*
X50000Y3260000D02*
D03*
X250000D02*
D03*
D49*
X-130000Y4740000D02*
D03*
Y4645000D02*
D03*
Y4835000D02*
D03*
X130000D02*
D03*
Y4740000D02*
D03*
Y4645000D02*
D03*
D50*
X220000Y2902500D02*
D03*
X-220000Y3097500D02*
D03*
X220000D02*
D03*
Y3032500D02*
D03*
Y2967500D02*
D03*
X-220000Y3032500D02*
D03*
Y2967500D02*
D03*
Y2902500D02*
D03*
D51*
X-330000Y400000D02*
D03*
X330000D02*
D03*
D52*
X-450000Y7600000D02*
D03*
X-150000D02*
D03*
X-1450000D02*
D03*
X-1150000D02*
D03*
X-950000D02*
D03*
X-650000D02*
D03*
D53*
X-950000Y3625000D02*
D03*
D54*
X-141000Y3350000D02*
D03*
X-239000D02*
D03*
X-49000Y4390000D02*
D03*
X49000D02*
D03*
D55*
X200000Y2497500D02*
D03*
Y2702500D02*
D03*
X300000Y2097500D02*
D03*
Y2302500D02*
D03*
X400000Y1697500D02*
D03*
Y1902500D02*
D03*
X500000Y1297500D02*
D03*
Y1502500D02*
D03*
X600000Y897500D02*
D03*
Y1102500D02*
D03*
D56*
X0Y2500000D02*
D03*
Y2700000D02*
D03*
X100000Y2100000D02*
D03*
Y2300000D02*
D03*
X200000Y1700000D02*
D03*
Y1900000D02*
D03*
X300000Y1300000D02*
D03*
Y1500000D02*
D03*
X400000Y900000D02*
D03*
Y1100000D02*
D03*
%TF.MD5,890d75b94b0657f0781affcf3f5f0004*%
M02*
