%TF.GenerationSoftware,Altium Limited,Altium Designer,25.6.2 (33)*%
G04 Layer_Physical_Order=6*
G04 Layer_Color=15238730*
%FSLAX45Y45*%
%MOMM*%
%TF.SameCoordinates,4265A882-CCA4-4A53-A555-757F884491BB*%
%TF.FilePolarity,Positive*%
%TF.FileFunction,Copper,L6,Bot,Signal*%
%TF.Part,Single*%
G01*
G75*
%TA.AperFunction,SMDPad,CuDef*%
%ADD11R,0.65000X0.80000*%
%ADD14R,0.85000X0.60000*%
%ADD16R,1.80000X1.30000*%
%ADD17R,0.80000X0.65000*%
%ADD19C,1.00000*%
%TA.AperFunction,Conductor*%
%ADD22C,0.40000*%
%ADD23C,0.20000*%
%TA.AperFunction,ComponentPad*%
%ADD26O,2.44000X3.60000*%
%ADD27C,1.50000*%
%ADD28C,1.80000*%
%ADD29C,4.00000*%
%ADD30C,1.30800*%
%ADD32R,1.30800X1.30800*%
%ADD33O,2.40000X1.70000*%
%ADD34R,2.40000X1.70000*%
%TA.AperFunction,ViaPad*%
%ADD35C,0.60000*%
%TA.AperFunction,Conductor*%
%ADD36C,0.15000*%
%TA.AperFunction,SMDPad,CuDef*%
%ADD38R,1.75000X0.45000*%
%ADD39R,6.30000X6.10000*%
%ADD40R,1.50000X2.80000*%
%ADD41R,2.30000X2.45000*%
%ADD42R,2.74300X2.15900*%
%ADD43R,0.90000X2.10000*%
%ADD44R,0.50000X0.60000*%
%ADD45R,2.45000X2.30000*%
%ADD46R,0.60000X0.85000*%
G04:AMPARAMS|DCode=47|XSize=1.55mm|YSize=0.6mm|CornerRadius=0.05mm|HoleSize=0mm|Usage=FLASHONLY|Rotation=90.000|XOffset=0mm|YOffset=0mm|HoleType=Round|Shape=RoundedRectangle|*
%AMROUNDEDRECTD47*
21,1,1.55000,0.50000,0,0,90.0*
21,1,1.45000,0.60000,0,0,90.0*
1,1,0.10000,0.25000,0.72500*
1,1,0.10000,0.25000,-0.72500*
1,1,0.10000,-0.25000,-0.72500*
1,1,0.10000,-0.25000,0.72500*
%
%ADD47ROUNDEDRECTD47*%
%ADD48R,1.00000X1.15000*%
%ADD49R,1.10000X0.60000*%
%ADD50R,1.45000X0.45000*%
%ADD51R,2.40000X3.30000*%
%ADD52R,1.30000X1.80000*%
%ADD53R,3.30000X2.10000*%
%ADD54R,0.57000X0.64000*%
%ADD55R,1.40000X1.05000*%
%ADD56R,1.15000X1.00000*%
%TA.AperFunction,Conductor*%
%ADD57C,2.00000*%
%ADD58R,4.25000X0.85828*%
%ADD59R,1.20000X1.42500*%
%ADD60R,1.70000X4.12000*%
%TA.AperFunction,ComponentPad*%
%ADD61C,7.40000*%
G36*
X2111018Y8474278D02*
X2118245Y8472841D01*
X2125297Y8470702D01*
X2132105Y8467882D01*
X2138604Y8464408D01*
X2144731Y8460314D01*
X2150428Y8455639D01*
X2155638Y8450428D01*
X2160313Y8444732D01*
X2164407Y8438605D01*
X2167881Y8432106D01*
X2170701Y8425298D01*
X2172840Y8418246D01*
X2174278Y8411018D01*
X2175000Y8403685D01*
Y8400000D01*
Y6000000D01*
X1725904D01*
X1724923Y6000077D01*
X1410892D01*
X1410465Y6000044D01*
X1410041Y6000062D01*
X1409487Y6000000D01*
X1090515D01*
X1089959Y6000063D01*
X1089534Y6000044D01*
X1089109Y6000077D01*
X960892D01*
X960465Y6000044D01*
X960041Y6000062D01*
X959488Y6000000D01*
X640515D01*
X639959Y6000063D01*
X639534Y6000044D01*
X639109Y6000077D01*
X462500D01*
X461519Y6000000D01*
X437500D01*
Y5975984D01*
X437423Y5975000D01*
Y5502860D01*
X437447Y5502547D01*
X437430Y5502234D01*
X437500Y5501564D01*
Y5402145D01*
X582583Y5257062D01*
X583225Y5256311D01*
X777268Y5062267D01*
X778019Y5061627D01*
X791627Y5048019D01*
X791626Y5048018D01*
X791627Y5048018D01*
X792267Y5047268D01*
X887423Y4952113D01*
Y3549999D01*
X887500Y3549019D01*
Y3524999D01*
X911519D01*
X912500Y3524922D01*
X1685000D01*
X1685981Y3524999D01*
X1925000D01*
Y3525000D01*
X1929908Y3525080D01*
X1939702Y3525722D01*
X1949434Y3527003D01*
X1959061Y3528918D01*
X1968542Y3531458D01*
X1977837Y3534613D01*
X1982547Y3536564D01*
X1983680Y3536884D01*
X1984128Y3537090D01*
X1984596Y3537243D01*
X1986969Y3538225D01*
X1987848Y3538673D01*
X1988757Y3539050D01*
X1997509Y3543509D01*
X1998349Y3544024D01*
X1999227Y3544471D01*
X2007603Y3549604D01*
X2008399Y3550182D01*
X2009240Y3550697D01*
X2017186Y3556471D01*
X2017934Y3557110D01*
X2018733Y3557690D01*
X2026202Y3564069D01*
X2026897Y3564765D01*
X2027648Y3565406D01*
X2034593Y3572351D01*
X2035234Y3573101D01*
X2035930Y3573797D01*
X2042309Y3581266D01*
X2042888Y3582064D01*
X2043528Y3582813D01*
X2049302Y3590760D01*
X2049816Y3591599D01*
X2050395Y3592396D01*
X2055528Y3600772D01*
X2055975Y3601650D01*
X2056490Y3602490D01*
X2060949Y3611241D01*
X2061326Y3612151D01*
X2061774Y3613030D01*
X2065533Y3622105D01*
X2065837Y3623042D01*
X2066214Y3623952D01*
X2069249Y3633294D01*
X2069479Y3634250D01*
X2069784Y3635188D01*
X2072077Y3644739D01*
X2072231Y3645713D01*
X2072461Y3646671D01*
X2073998Y3656373D01*
X2074075Y3657357D01*
X2074229Y3658328D01*
X2075000Y3668120D01*
Y3669104D01*
X2075077Y3670088D01*
Y3674999D01*
Y5897858D01*
X2075000Y5898839D01*
Y5975000D01*
X2175000D01*
X2175000Y3674999D01*
X2175000Y3674999D01*
X2174999Y3667985D01*
X2174213Y3653978D01*
X2172642Y3640038D01*
X2170292Y3626207D01*
X2167171Y3612530D01*
X2163287Y3599050D01*
X2158654Y3585809D01*
X2153285Y3572848D01*
X2147198Y3560209D01*
X2140413Y3547930D01*
X2132949Y3536052D01*
X2124831Y3524611D01*
X2116084Y3513643D01*
X2106736Y3503182D01*
X2096816Y3493263D01*
X2086356Y3483915D01*
X2075388Y3475168D01*
X2063947Y3467050D01*
X2052068Y3459586D01*
X2039790Y3452800D01*
X2027151Y3446713D01*
X2014190Y3441345D01*
X2000949Y3436712D01*
X1987468Y3432828D01*
X1973791Y3429706D01*
X1959961Y3427356D01*
X1946020Y3425786D01*
X1932014Y3424999D01*
X1901508D01*
X1897337Y3424999D01*
X1889024Y3425694D01*
X1880798Y3427078D01*
X1872716Y3429143D01*
X1864834Y3431873D01*
X1857207Y3435251D01*
X1849887Y3439251D01*
X1842926Y3443848D01*
X1839649Y3446428D01*
X1834131Y3450649D01*
X1822754Y3458624D01*
X1810952Y3465954D01*
X1798762Y3472617D01*
X1786219Y3478593D01*
X1773365Y3483863D01*
X1760237Y3488411D01*
X1746877Y3492222D01*
X1733326Y3495285D01*
X1719625Y3497591D01*
X1705818Y3499132D01*
X1691947Y3499904D01*
X1685000Y3500000D01*
X1410000Y3500001D01*
X1410000Y3500000D01*
X1403053Y3499904D01*
X1389182Y3499132D01*
X1375375Y3497591D01*
X1361675Y3495285D01*
X1348124Y3492222D01*
X1334764Y3488411D01*
X1321636Y3483863D01*
X1308782Y3478594D01*
X1296240Y3472618D01*
X1284049Y3465955D01*
X1272247Y3458625D01*
X1260871Y3450651D01*
X1255353Y3446430D01*
X1252076Y3443850D01*
X1245115Y3439253D01*
X1237796Y3435253D01*
X1230168Y3431876D01*
X1222286Y3429145D01*
X1214204Y3427081D01*
X1205978Y3425696D01*
X1197665Y3425002D01*
X1193494D01*
X1149859Y3424999D01*
X1149859Y3424999D01*
X1142842Y3424900D01*
X1128831Y3424113D01*
X1114887Y3422541D01*
X1101053Y3420189D01*
X1087372Y3417064D01*
X1073888Y3413177D01*
X1060644Y3408539D01*
X1047681Y3403166D01*
X1035040Y3397073D01*
X1022760Y3390281D01*
X1010881Y3382810D01*
X999440Y3374685D01*
X988472Y3365931D01*
X978014Y3356575D01*
X968096Y3346647D01*
X958752Y3336178D01*
X954303Y3330751D01*
X417333Y2656550D01*
X414709Y2653255D01*
X409100Y2646971D01*
X403147Y2641012D01*
X396870Y2635396D01*
X390287Y2630142D01*
X383419Y2625264D01*
X376289Y2620780D01*
X368918Y2616703D01*
X361331Y2613046D01*
X353550Y2609821D01*
X345600Y2607037D01*
X337507Y2604704D01*
X329295Y2602828D01*
X320991Y2601416D01*
X312621Y2600472D01*
X304211Y2600000D01*
X-344923D01*
Y2985000D01*
X-345232Y2988923D01*
X-345330Y2989333D01*
X-344562Y2991235D01*
X-340165Y2996204D01*
X-337415Y2997792D01*
X-337078Y2997725D01*
X-332500Y2997425D01*
X-317500D01*
Y2920000D01*
Y2855000D01*
X-255075D01*
Y2766293D01*
X-258604Y2764407D01*
X-264731Y2760313D01*
X-270428Y2755638D01*
X-275638Y2750428D01*
X-280313Y2744731D01*
X-284407Y2738604D01*
X-287881Y2732105D01*
X-290701Y2725297D01*
X-292840Y2718245D01*
X-294278Y2711018D01*
X-295000Y2703684D01*
Y2696315D01*
X-294278Y2688982D01*
X-292840Y2681755D01*
X-290701Y2674703D01*
X-287881Y2667895D01*
X-284407Y2661396D01*
X-280313Y2655269D01*
X-275638Y2649572D01*
X-270428Y2644362D01*
X-264731Y2639687D01*
X-258604Y2635593D01*
X-252105Y2632119D01*
X-245297Y2629299D01*
X-238245Y2627160D01*
X-231018Y2625722D01*
X-223685Y2625000D01*
X-216316D01*
X-208982Y2625722D01*
X-201755Y2627160D01*
X-194703Y2629299D01*
X-187895Y2632119D01*
X-181396Y2635593D01*
X-175269Y2639687D01*
X-169572Y2644362D01*
X-164362Y2649572D01*
X-159687Y2655269D01*
X-155593Y2661396D01*
X-152119Y2667895D01*
X-149299Y2674703D01*
X-147160Y2681755D01*
X-145723Y2688982D01*
X-145630Y2689925D01*
X-82500D01*
Y2625000D01*
X82500D01*
Y2664925D01*
X105000D01*
Y2625000D01*
X295000D01*
Y2780000D01*
X105000D01*
Y2735075D01*
X82500D01*
Y2775000D01*
X-82500D01*
Y2760075D01*
X-174979D01*
X-175269Y2760313D01*
X-181396Y2764407D01*
X-184925Y2766293D01*
Y2855000D01*
X-122500D01*
Y2867425D01*
X-37500D01*
X-32922Y2867725D01*
X-28422Y2868620D01*
X-24078Y2870095D01*
X-19963Y2872124D01*
X-16148Y2874673D01*
X-12698Y2877698D01*
X42028Y2932425D01*
X122500D01*
Y2920000D01*
X317500D01*
Y2932425D01*
X327500D01*
X332078Y2932725D01*
X336578Y2933620D01*
X340922Y2935095D01*
X345037Y2937124D01*
X348852Y2939673D01*
X352302Y2942698D01*
X384802Y2975198D01*
X387827Y2978648D01*
X390376Y2982462D01*
X392405Y2986577D01*
X393880Y2990922D01*
X394775Y2995422D01*
X395075Y3000000D01*
Y3220000D01*
X394775Y3224578D01*
X393880Y3229078D01*
X392405Y3233423D01*
X390376Y3237538D01*
X387827Y3241353D01*
X384802Y3244802D01*
X344802Y3284802D01*
X341352Y3287827D01*
X337537Y3290376D01*
X333422Y3292405D01*
X329078Y3293880D01*
X325000Y3294692D01*
Y3342500D01*
X270000D01*
Y3447500D01*
X140000D01*
Y3332500D01*
X169925D01*
Y3305000D01*
X170225Y3300422D01*
X171120Y3295922D01*
X172595Y3291578D01*
X174624Y3287463D01*
X175000Y3286900D01*
Y3177500D01*
X324925D01*
Y3151216D01*
X317500Y3145000D01*
X122500D01*
Y3050000D01*
Y3002575D01*
X27500D01*
X22922Y3002275D01*
X18422Y3001380D01*
X14077Y2999905D01*
X9962Y2997876D01*
X6147Y2995327D01*
X2698Y2992302D01*
X-52029Y2937575D01*
X-122500D01*
Y2985000D01*
Y3096519D01*
X-122423Y3097500D01*
Y3185000D01*
X-122732Y3188923D01*
X-123650Y3192749D01*
X-125156Y3196385D01*
X-127212Y3199740D01*
X-129768Y3202732D01*
X-132760Y3205288D01*
X-136115Y3207344D01*
X-139751Y3208850D01*
X-143577Y3209768D01*
X-147500Y3210077D01*
X-179923D01*
Y3293000D01*
X-87500D01*
Y3337231D01*
X-86691Y3340773D01*
X-86000Y3346911D01*
Y3353089D01*
X-86691Y3359227D01*
X-87500Y3362769D01*
Y3407000D01*
X-204016D01*
X-205000Y3407077D01*
X-292500D01*
X-296423Y3406768D01*
X-300249Y3405850D01*
X-303885Y3404344D01*
X-307240Y3402288D01*
X-310232Y3399732D01*
X-312788Y3396740D01*
X-314844Y3393385D01*
X-314925Y3393190D01*
X-324925Y3395179D01*
Y3460000D01*
X-325225Y3464579D01*
X-326120Y3469078D01*
X-327595Y3473423D01*
X-329624Y3477538D01*
X-332173Y3481353D01*
X-335198Y3484802D01*
X-395198Y3544802D01*
X-398647Y3547827D01*
X-401900Y3550000D01*
X-402078Y3551122D01*
X-398274Y3560000D01*
X-347500D01*
Y3572425D01*
X-284876D01*
X-283575Y3570793D01*
X-279207Y3566425D01*
X-274377Y3562574D01*
X-269147Y3559287D01*
X-263581Y3556607D01*
X-257750Y3554566D01*
X-251727Y3553192D01*
X-245589Y3552500D01*
X-239412D01*
X-233273Y3553192D01*
X-227250Y3554566D01*
X-221419Y3556607D01*
X-215854Y3559287D01*
X-210623Y3562574D01*
X-205793Y3566425D01*
X-201425Y3570793D01*
X-197574Y3575623D01*
X-194287Y3580854D01*
X-191607Y3586419D01*
X-189567Y3592250D01*
X-188192Y3598273D01*
X-187500Y3604411D01*
Y3610589D01*
X-188192Y3616727D01*
X-189567Y3622750D01*
X-191607Y3628581D01*
X-194287Y3634146D01*
X-197574Y3639377D01*
X-201425Y3644207D01*
X-205793Y3648575D01*
X-210623Y3652427D01*
X-215854Y3655713D01*
X-221419Y3658393D01*
X-227250Y3660434D01*
X-233273Y3661808D01*
X-239412Y3662500D01*
X-245589D01*
X-251727Y3661808D01*
X-257750Y3660434D01*
X-258655Y3660117D01*
X-260665Y3660782D01*
X-267410Y3666728D01*
X-267725Y3667414D01*
X-267500Y3669412D01*
Y3675589D01*
X-267725Y3677586D01*
X-267410Y3678272D01*
X-260665Y3684218D01*
X-258655Y3684883D01*
X-257750Y3684566D01*
X-251727Y3683192D01*
X-245589Y3682500D01*
X-239412D01*
X-233273Y3683192D01*
X-227250Y3684566D01*
X-221419Y3686607D01*
X-215854Y3689287D01*
X-210623Y3692574D01*
X-205793Y3696425D01*
X-201425Y3700793D01*
X-197574Y3705623D01*
X-194287Y3710854D01*
X-191607Y3716419D01*
X-189567Y3722250D01*
X-188192Y3728273D01*
X-187500Y3734411D01*
Y3740589D01*
X-188192Y3746727D01*
X-189567Y3752750D01*
X-191607Y3758581D01*
X-194287Y3764146D01*
X-197574Y3769377D01*
X-201425Y3774207D01*
X-205793Y3778575D01*
X-210623Y3782427D01*
X-215854Y3785713D01*
X-221419Y3788393D01*
X-227250Y3790434D01*
X-233273Y3791808D01*
X-239412Y3792500D01*
X-245589D01*
X-251727Y3791808D01*
X-257750Y3790434D01*
X-263581Y3788393D01*
X-269147Y3785713D01*
X-274377Y3782427D01*
X-279207Y3778575D01*
X-283575Y3774207D01*
X-284876Y3772575D01*
X-347500D01*
Y3832425D01*
X-172500D01*
X-167922Y3832725D01*
X-163422Y3833620D01*
X-159077Y3835095D01*
X-154962Y3837124D01*
X-151147Y3839673D01*
X-147698Y3842698D01*
X-105198Y3885198D01*
X-102173Y3888647D01*
X-99624Y3892462D01*
X-97595Y3896577D01*
X-96120Y3900922D01*
X-95225Y3905422D01*
X-94925Y3910000D01*
Y4333000D01*
X14016D01*
X15000Y4332923D01*
X185000D01*
X192946Y4327389D01*
X195000Y4324406D01*
Y4245000D01*
X187071Y4240000D01*
X147500D01*
Y4162575D01*
X84876D01*
X83575Y4164207D01*
X79207Y4168575D01*
X74377Y4172427D01*
X69146Y4175713D01*
X63581Y4178393D01*
X57750Y4180434D01*
X51727Y4181808D01*
X45589Y4182500D01*
X39411D01*
X33273Y4181808D01*
X27250Y4180434D01*
X21419Y4178393D01*
X15854Y4175713D01*
X10623Y4172427D01*
X5793Y4168575D01*
X1425Y4164207D01*
X-2426Y4159377D01*
X-5713Y4154146D01*
X-8393Y4148581D01*
X-10434Y4142750D01*
X-11808Y4136727D01*
X-12500Y4130589D01*
Y4124411D01*
X-11808Y4118273D01*
X-10434Y4112250D01*
X-8393Y4106419D01*
X-5713Y4100854D01*
X-2426Y4095623D01*
X1425Y4090793D01*
X5793Y4086425D01*
X10623Y4082573D01*
X15854Y4079287D01*
X21419Y4076607D01*
X27250Y4074566D01*
X33273Y4073192D01*
X39411Y4072500D01*
X45589D01*
X51727Y4073192D01*
X57750Y4074566D01*
X58655Y4074883D01*
X60665Y4074218D01*
X67410Y4068272D01*
X67725Y4067586D01*
X67500Y4065589D01*
Y4059411D01*
X67725Y4057414D01*
X67410Y4056728D01*
X60665Y4050782D01*
X58655Y4050117D01*
X57750Y4050434D01*
X51727Y4051808D01*
X45589Y4052500D01*
X39411D01*
X33273Y4051808D01*
X27250Y4050434D01*
X21419Y4048393D01*
X15854Y4045713D01*
X10623Y4042427D01*
X5793Y4038575D01*
X1425Y4034207D01*
X-2426Y4029377D01*
X-5713Y4024146D01*
X-8393Y4018581D01*
X-10434Y4012750D01*
X-11808Y4006727D01*
X-12500Y4000589D01*
Y3994411D01*
X-11808Y3988273D01*
X-10434Y3982250D01*
X-8393Y3976419D01*
X-5713Y3970854D01*
X-2426Y3965623D01*
X1425Y3960793D01*
X5793Y3956425D01*
X10623Y3952574D01*
X15854Y3949287D01*
X21419Y3946607D01*
X27250Y3944566D01*
X33273Y3943192D01*
X39411Y3942500D01*
X45589D01*
X51727Y3943192D01*
X57750Y3944566D01*
X58655Y3944883D01*
X60665Y3944218D01*
X67410Y3938272D01*
X67725Y3937586D01*
X67500Y3935589D01*
Y3929411D01*
X67725Y3927414D01*
X67410Y3926728D01*
X60665Y3920782D01*
X58655Y3920117D01*
X57750Y3920434D01*
X51727Y3921808D01*
X45589Y3922500D01*
X39411D01*
X33273Y3921808D01*
X27250Y3920434D01*
X21419Y3918393D01*
X15854Y3915713D01*
X10623Y3912427D01*
X5793Y3908575D01*
X1425Y3904207D01*
X-2426Y3899377D01*
X-5713Y3894146D01*
X-8393Y3888581D01*
X-10434Y3882750D01*
X-11808Y3876727D01*
X-12500Y3870589D01*
Y3864411D01*
X-11808Y3858273D01*
X-10434Y3852250D01*
X-8393Y3846419D01*
X-5713Y3840854D01*
X-2426Y3835623D01*
X1425Y3830793D01*
X5793Y3826425D01*
X10623Y3822574D01*
X15854Y3819287D01*
X21419Y3816607D01*
X27250Y3814566D01*
X33273Y3813192D01*
X39411Y3812500D01*
X45589D01*
X51727Y3813192D01*
X57750Y3814566D01*
X58655Y3814883D01*
X60665Y3814218D01*
X67410Y3808272D01*
X67725Y3807586D01*
X67500Y3805589D01*
Y3799412D01*
X67725Y3797414D01*
X67410Y3796728D01*
X60665Y3790782D01*
X58655Y3790117D01*
X57750Y3790434D01*
X51727Y3791808D01*
X45589Y3792500D01*
X39411D01*
X33273Y3791808D01*
X27250Y3790434D01*
X21419Y3788393D01*
X15854Y3785713D01*
X10623Y3782427D01*
X5793Y3778575D01*
X1425Y3774207D01*
X-2426Y3769377D01*
X-5713Y3764146D01*
X-8393Y3758581D01*
X-10434Y3752750D01*
X-11808Y3746727D01*
X-12500Y3740589D01*
Y3734411D01*
X-11808Y3728273D01*
X-10434Y3722250D01*
X-8393Y3716419D01*
X-5713Y3710854D01*
X-2426Y3705623D01*
X1425Y3700793D01*
X5793Y3696425D01*
X10623Y3692574D01*
X15854Y3689287D01*
X21419Y3686607D01*
X27250Y3684566D01*
X33273Y3683192D01*
X39411Y3682500D01*
X45589D01*
X51727Y3683192D01*
X57750Y3684566D01*
X58655Y3684883D01*
X60665Y3684218D01*
X67410Y3678272D01*
X67725Y3677586D01*
X67500Y3675589D01*
Y3669412D01*
X67725Y3667414D01*
X67410Y3666728D01*
X60665Y3660782D01*
X58655Y3660117D01*
X57750Y3660434D01*
X51727Y3661808D01*
X45589Y3662500D01*
X39411D01*
X33273Y3661808D01*
X27250Y3660434D01*
X21419Y3658393D01*
X15854Y3655713D01*
X10623Y3652427D01*
X5793Y3648575D01*
X1425Y3644207D01*
X-2426Y3639377D01*
X-5713Y3634146D01*
X-8393Y3628581D01*
X-10434Y3622750D01*
X-11808Y3616727D01*
X-12500Y3610589D01*
Y3604411D01*
X-11808Y3598273D01*
X-10434Y3592250D01*
X-8393Y3586419D01*
X-5713Y3580854D01*
X-2426Y3575623D01*
X1425Y3570793D01*
X5793Y3566425D01*
X10623Y3562574D01*
X15854Y3559287D01*
X21419Y3556607D01*
X27250Y3554566D01*
X33273Y3553192D01*
X39411Y3552500D01*
X45589D01*
X51727Y3553192D01*
X57750Y3554566D01*
X63581Y3556607D01*
X69146Y3559287D01*
X74377Y3562574D01*
X79207Y3566425D01*
X83575Y3570793D01*
X84876Y3572425D01*
X147500D01*
Y3560000D01*
X372500D01*
Y3625000D01*
Y3690000D01*
Y3755000D01*
Y3820000D01*
Y3885000D01*
Y3950000D01*
Y4015000D01*
Y4080000D01*
Y4145000D01*
Y4240000D01*
X337929D01*
X330000Y4245000D01*
Y4355000D01*
X212850D01*
X210077Y4358000D01*
Y4620000D01*
X317500D01*
Y4730000D01*
Y4860000D01*
X244576D01*
X241353Y4862827D01*
X237538Y4865376D01*
X233423Y4867405D01*
X229079Y4868880D01*
X224578Y4869775D01*
X220000Y4870075D01*
X210000D01*
Y4890000D01*
X55075D01*
Y4925000D01*
X125000D01*
Y5020562D01*
X135000Y5026514D01*
X138982Y5025722D01*
X146315Y5025000D01*
X153684D01*
X161018Y5025722D01*
X168245Y5027160D01*
X175297Y5029299D01*
X182105Y5032119D01*
X188604Y5035593D01*
X194731Y5039687D01*
X200428Y5044362D01*
X205638Y5049572D01*
X210313Y5055269D01*
X214407Y5061396D01*
X217881Y5067895D01*
X220701Y5074703D01*
X222840Y5081755D01*
X224277Y5088982D01*
X225000Y5096315D01*
Y5103684D01*
X224277Y5111018D01*
X222840Y5118245D01*
X220701Y5125297D01*
X217881Y5132105D01*
X214407Y5138604D01*
X210313Y5144731D01*
X205638Y5150428D01*
X200428Y5155638D01*
X194731Y5160313D01*
X188604Y5164407D01*
X182105Y5167881D01*
X175297Y5170701D01*
X168245Y5172840D01*
X161018Y5174277D01*
X153684Y5175000D01*
X146315D01*
X138982Y5174277D01*
X131755Y5172840D01*
X124703Y5170701D01*
X120452Y5168940D01*
X112171Y5174007D01*
X111414Y5174817D01*
X111400Y5176669D01*
X120302Y5185000D01*
X150000D01*
Y5950000D01*
X-77065D01*
X-78919Y5950893D01*
X-84750Y5952933D01*
X-90773Y5954308D01*
X-96911Y5955000D01*
X-103089D01*
X-109227Y5954308D01*
X-115250Y5952933D01*
X-121081Y5950893D01*
X-122935Y5950000D01*
X-150000D01*
Y5922936D01*
X-150893Y5921081D01*
X-152934Y5915250D01*
X-154308Y5909227D01*
X-155000Y5903089D01*
Y5896911D01*
X-154308Y5890773D01*
X-152934Y5884750D01*
X-150893Y5878919D01*
X-150000Y5877064D01*
Y5185000D01*
X-107500D01*
Y5173664D01*
X-117500Y5167670D01*
X-117895Y5167881D01*
X-124703Y5170701D01*
X-131755Y5172840D01*
X-138982Y5174277D01*
X-146315Y5175000D01*
X-153684D01*
X-161018Y5174277D01*
X-168245Y5172840D01*
X-175297Y5170701D01*
X-182105Y5167881D01*
X-188604Y5164407D01*
X-194731Y5160313D01*
X-200428Y5155638D01*
X-205638Y5150428D01*
X-210313Y5144731D01*
X-214407Y5138604D01*
X-217881Y5132105D01*
X-220701Y5125297D01*
X-222840Y5118245D01*
X-224277Y5111018D01*
X-225000Y5103684D01*
Y5096315D01*
X-224277Y5088982D01*
X-222840Y5081755D01*
X-220701Y5074703D01*
X-217881Y5067895D01*
X-214407Y5061396D01*
X-210313Y5055269D01*
X-205638Y5049572D01*
X-200428Y5044362D01*
X-194731Y5039687D01*
X-188604Y5035593D01*
X-182105Y5032119D01*
X-175297Y5029299D01*
X-168245Y5027160D01*
X-161018Y5025722D01*
X-153684Y5025000D01*
X-146315D01*
X-138982Y5025722D01*
X-135000Y5026514D01*
X-125000Y5020562D01*
Y4925000D01*
X-55075D01*
Y4890000D01*
X-210000D01*
Y4870075D01*
X-220000D01*
X-224578Y4869775D01*
X-229079Y4868880D01*
X-233423Y4867405D01*
X-237538Y4865376D01*
X-241353Y4862827D01*
X-244576Y4860000D01*
X-317500D01*
Y4730000D01*
X-202500D01*
Y4780000D01*
X-50000D01*
Y4799925D01*
X-45000D01*
X-40422Y4800225D01*
X-35922Y4801120D01*
X-31578Y4802595D01*
X-27463Y4804624D01*
X-23648Y4807173D01*
X-20198Y4810198D01*
X0Y4830396D01*
X20198Y4810198D01*
X23648Y4807173D01*
X26784Y4805077D01*
X26932Y4803950D01*
X22057Y4795077D01*
X15000D01*
X11077Y4794768D01*
X7251Y4793850D01*
X3615Y4792344D01*
X260Y4790288D01*
X-2732Y4787732D01*
X-5288Y4784740D01*
X-7344Y4781385D01*
X-8850Y4777749D01*
X-9768Y4773923D01*
X-10077Y4770000D01*
Y4447000D01*
X-94925D01*
Y4590000D01*
X-50000D01*
Y4700000D01*
X-210000D01*
Y4590000D01*
X-165075D01*
Y3924528D01*
X-187028Y3902575D01*
X-347500D01*
Y4002719D01*
X-337750Y4009567D01*
X-331727Y4008192D01*
X-325589Y4007500D01*
X-319411D01*
X-313273Y4008192D01*
X-307250Y4009567D01*
X-301419Y4011607D01*
X-295854Y4014287D01*
X-290623Y4017574D01*
X-285793Y4021425D01*
X-281425Y4025793D01*
X-277573Y4030623D01*
X-274287Y4035854D01*
X-271607Y4041419D01*
X-269566Y4047250D01*
X-268192Y4053273D01*
X-267500Y4059411D01*
Y4065589D01*
X-267725Y4067586D01*
X-267410Y4068272D01*
X-260665Y4074218D01*
X-258655Y4074883D01*
X-257750Y4074566D01*
X-251727Y4073192D01*
X-245589Y4072500D01*
X-239412D01*
X-233273Y4073192D01*
X-227250Y4074566D01*
X-221419Y4076607D01*
X-215854Y4079287D01*
X-210623Y4082573D01*
X-205793Y4086425D01*
X-201425Y4090793D01*
X-197574Y4095623D01*
X-194287Y4100854D01*
X-191607Y4106419D01*
X-189567Y4112250D01*
X-188192Y4118273D01*
X-187500Y4124411D01*
Y4130589D01*
X-188192Y4136727D01*
X-189567Y4142750D01*
X-191607Y4148581D01*
X-194287Y4154146D01*
X-197574Y4159377D01*
X-201425Y4164207D01*
X-205793Y4168575D01*
X-210623Y4172427D01*
X-215854Y4175713D01*
X-221419Y4178393D01*
X-227250Y4180434D01*
X-233273Y4181808D01*
X-239412Y4182500D01*
X-245589D01*
X-251727Y4181808D01*
X-257750Y4180434D01*
X-263581Y4178393D01*
X-269147Y4175713D01*
X-274377Y4172427D01*
X-279207Y4168575D01*
X-283575Y4164207D01*
X-284876Y4162575D01*
X-347100D01*
Y4179800D01*
X-460000D01*
X-572900D01*
Y4144600D01*
X-572500D01*
Y4031067D01*
X-575923Y4029905D01*
X-580038Y4027876D01*
X-583853Y4025327D01*
X-587303Y4022302D01*
X-599802Y4009802D01*
X-602827Y4006353D01*
X-605376Y4002538D01*
X-607405Y3998423D01*
X-608880Y3994079D01*
X-609775Y3989579D01*
X-610075Y3985001D01*
Y3944999D01*
X-609775Y3940421D01*
X-608880Y3935921D01*
X-607405Y3931577D01*
X-605376Y3927462D01*
X-602827Y3923647D01*
X-599802Y3920198D01*
X-587303Y3907698D01*
X-583853Y3904673D01*
X-580038Y3902124D01*
X-575923Y3900095D01*
X-572500Y3898933D01*
Y3837575D01*
X-577500D01*
X-582078Y3837275D01*
X-586578Y3836380D01*
X-590923Y3834905D01*
X-595037Y3832876D01*
X-598852Y3830327D01*
X-602302Y3827302D01*
X-654802Y3774802D01*
X-657827Y3771353D01*
X-660376Y3767538D01*
X-662405Y3763423D01*
X-663880Y3759078D01*
X-664775Y3754578D01*
X-665075Y3750000D01*
Y3570000D01*
X-664775Y3565422D01*
X-663880Y3560922D01*
X-662405Y3556577D01*
X-660376Y3552463D01*
X-657827Y3548647D01*
X-654802Y3545198D01*
X-604802Y3495198D01*
X-601353Y3492173D01*
X-597538Y3489624D01*
X-593423Y3487595D01*
X-589078Y3486120D01*
X-584578Y3485225D01*
X-580000Y3484925D01*
X-434528D01*
X-395075Y3445472D01*
Y3060000D01*
X-394775Y3055422D01*
X-393880Y3050922D01*
X-392405Y3046577D01*
X-390376Y3042463D01*
X-387827Y3038647D01*
X-384802Y3035198D01*
X-369544Y3019940D01*
X-369558Y3019622D01*
X-373823Y3010077D01*
X-835000D01*
X-838923Y3009768D01*
X-842749Y3008850D01*
X-846385Y3007344D01*
X-849740Y3005288D01*
X-852732Y3002732D01*
X-855288Y2999740D01*
X-857344Y2996385D01*
X-858850Y2992749D01*
X-859768Y2988923D01*
X-860077Y2985000D01*
Y2315000D01*
X-859768Y2311077D01*
X-858850Y2307251D01*
X-857344Y2303615D01*
X-855288Y2300260D01*
X-852732Y2297268D01*
X-849740Y2294712D01*
X-846385Y2292656D01*
X-842749Y2291150D01*
X-838923Y2290232D01*
X-835000Y2289923D01*
X-370000D01*
Y2200000D01*
X-370001Y2200000D01*
Y2196087D01*
X-370532Y2188279D01*
X-371594Y2180526D01*
X-373180Y2172862D01*
X-375283Y2165325D01*
X-377894Y2157947D01*
X-381000Y2150764D01*
X-384587Y2143809D01*
X-388638Y2137114D01*
X-393136Y2130709D01*
X-398058Y2124625D01*
X-403382Y2118890D01*
X-406233Y2116210D01*
X-410823Y2111783D01*
X-419658Y2102585D01*
X-428012Y2092949D01*
X-435863Y2082900D01*
X-443192Y2072463D01*
X-449980Y2061666D01*
X-456207Y2050537D01*
X-461859Y2039105D01*
X-466921Y2027399D01*
X-471380Y2015451D01*
X-475223Y2003291D01*
X-478441Y1990950D01*
X-481025Y1978462D01*
X-482970Y1965858D01*
X-484269Y1953171D01*
X-484919Y1940435D01*
X-485000Y1934058D01*
Y1611157D01*
X-485001Y1611156D01*
X-485000Y1605474D01*
X-485517Y1594119D01*
X-486549Y1582801D01*
X-488094Y1571541D01*
X-490149Y1560362D01*
X-492710Y1549289D01*
X-495771Y1538343D01*
X-499327Y1527548D01*
X-503369Y1516926D01*
X-507891Y1506498D01*
X-512881Y1496286D01*
X-518330Y1486312D01*
X-521278Y1481454D01*
X-526008Y1473508D01*
X-535058Y1457380D01*
X-543553Y1440953D01*
X-551484Y1424246D01*
X-558840Y1407279D01*
X-565614Y1390071D01*
X-571797Y1372641D01*
X-577382Y1355012D01*
X-582364Y1337202D01*
X-586735Y1319232D01*
X-590492Y1301124D01*
X-593629Y1282898D01*
X-596143Y1264577D01*
X-598031Y1246180D01*
X-599291Y1227729D01*
X-599921Y1209246D01*
X-600000Y1200000D01*
Y930000D01*
X-599902Y922988D01*
X-599116Y908987D01*
X-597545Y895052D01*
X-595196Y881227D01*
X-592076Y867556D01*
X-588194Y854081D01*
X-583562Y840844D01*
X-578196Y827889D01*
X-572112Y815254D01*
X-565328Y802981D01*
X-557868Y791107D01*
X-549753Y779671D01*
X-541010Y768707D01*
X-531665Y758250D01*
X-521750Y748335D01*
X-511293Y738990D01*
X-500329Y730247D01*
X-488893Y722132D01*
X-477019Y714672D01*
X-464746Y707888D01*
X-452111Y701804D01*
X-439156Y696438D01*
X-425919Y691806D01*
X-412444Y687924D01*
X-398773Y684804D01*
X-384948Y682455D01*
X-371013Y680884D01*
X-357012Y680098D01*
X-350000Y680000D01*
X-257500D01*
Y680000D01*
X-252982D01*
X-243973Y679290D01*
X-235048Y677877D01*
X-226261Y675767D01*
X-217666Y672975D01*
X-209318Y669517D01*
X-201266Y665414D01*
X-193561Y660692D01*
X-186250Y655381D01*
X-179378Y649512D01*
X-172988Y643122D01*
X-167120Y636250D01*
X-161808Y628940D01*
X-157086Y621234D01*
X-152984Y613183D01*
X-149525Y604834D01*
X-146733Y596239D01*
X-144623Y587452D01*
X-143210Y578527D01*
X-142501Y569518D01*
X-142500Y99998D01*
X-142501D01*
Y96314D01*
X-143223Y88980D01*
X-144661Y81753D01*
X-146800Y74701D01*
X-149620Y67893D01*
X-153093Y61394D01*
X-157187Y55267D01*
X-161862Y49571D01*
X-167073Y44360D01*
X-172769Y39685D01*
X-178897Y35591D01*
X-185395Y32117D01*
X-192203Y29297D01*
X-199255Y27158D01*
X-206482Y25721D01*
X-208843Y25488D01*
X-2107339D01*
X-2121734Y28351D01*
X-2135294Y33968D01*
X-2147499Y42123D01*
X-2157876Y52501D01*
X-2166031Y64705D01*
X-2171648Y78266D01*
X-2174512Y92661D01*
Y100000D01*
Y8400000D01*
X-2174999Y8402452D01*
Y8403685D01*
X-2174277Y8411018D01*
X-2172839Y8418246D01*
X-2170700Y8425297D01*
X-2167880Y8432105D01*
X-2164407Y8438604D01*
X-2160313Y8444731D01*
X-2155638Y8450428D01*
X-2150427Y8455638D01*
X-2144731Y8460313D01*
X-2138604Y8464407D01*
X-2132105Y8467881D01*
X-2125297Y8470701D01*
X-2118245Y8472840D01*
X-2111018Y8474277D01*
X-2103684Y8475000D01*
X-2100000D01*
X2100000Y8475001D01*
X2103684D01*
X2111018Y8474278D01*
D02*
G37*
G36*
X1724923Y5922936D02*
X1725232Y5919013D01*
X1726150Y5915186D01*
X1727656Y5911551D01*
X1729712Y5908196D01*
X1732268Y5905203D01*
X1735260Y5902648D01*
X1738615Y5900592D01*
X1742251Y5899086D01*
X1746077Y5898167D01*
X1750000Y5897858D01*
X2050000D01*
Y3674999D01*
Y3670088D01*
X2049229Y3660296D01*
X2047693Y3650594D01*
X2045400Y3641043D01*
X2042364Y3631701D01*
X2038605Y3622626D01*
X2034146Y3613874D01*
X2029014Y3605499D01*
X2023240Y3597553D01*
X2016861Y3590083D01*
X2009915Y3583138D01*
X2002446Y3576759D01*
X1994500Y3570985D01*
X1986125Y3565853D01*
X1977373Y3561394D01*
X1975000Y3560411D01*
X1965000Y3567093D01*
Y3785000D01*
X1685000D01*
Y3549999D01*
X912500D01*
Y4962500D01*
X810000Y5065001D01*
Y5080000D01*
X795000D01*
X600957Y5274043D01*
X638457Y5311543D01*
X645124Y5318756D01*
X651205Y5326470D01*
X656662Y5334637D01*
X661462Y5343207D01*
X665574Y5352128D01*
X668974Y5361343D01*
X671640Y5370797D01*
X673557Y5380430D01*
X674711Y5390185D01*
X675097Y5400000D01*
X674711Y5409815D01*
X673557Y5419569D01*
X671640Y5429203D01*
X668974Y5438657D01*
X665574Y5447872D01*
X661462Y5456792D01*
X656662Y5465363D01*
X651205Y5473530D01*
X645124Y5481244D01*
X638457Y5488457D01*
X631244Y5495124D01*
X623530Y5501205D01*
X615363Y5506662D01*
X606793Y5511462D01*
X597873Y5515574D01*
X588657Y5518974D01*
X579203Y5521640D01*
X569570Y5523556D01*
X559815Y5524711D01*
X550000Y5525096D01*
X540185Y5524711D01*
X530431Y5523556D01*
X520797Y5521640D01*
X511343Y5518974D01*
X502128Y5515574D01*
X493208Y5511462D01*
X484637Y5506662D01*
X476470Y5501205D01*
X472500Y5498075D01*
X462500Y5502860D01*
Y5975000D01*
X639109D01*
X645868Y5965000D01*
X645692Y5964227D01*
X645000Y5958088D01*
Y5951911D01*
X645692Y5945772D01*
X647067Y5939750D01*
X649107Y5933919D01*
X651787Y5928353D01*
X655074Y5923123D01*
X658925Y5918293D01*
X663293Y5913925D01*
X668123Y5910073D01*
X673354Y5906787D01*
X678919Y5904107D01*
X684750Y5902066D01*
X690773Y5900692D01*
X696911Y5900000D01*
X703089D01*
X709227Y5900692D01*
X715250Y5902066D01*
X721081Y5904107D01*
X726647Y5906787D01*
X731877Y5910073D01*
X736707Y5913925D01*
X741075Y5918293D01*
X743996Y5921956D01*
X750000Y5922936D01*
X756004Y5921956D01*
X758925Y5918293D01*
X763293Y5913925D01*
X768123Y5910073D01*
X773354Y5906787D01*
X778919Y5904107D01*
X784750Y5902066D01*
X790773Y5900692D01*
X796912Y5900000D01*
X803089D01*
X809227Y5900692D01*
X815250Y5902066D01*
X821081Y5904107D01*
X826647Y5906787D01*
X831877Y5910073D01*
X836707Y5913925D01*
X841075Y5918293D01*
X843997Y5921956D01*
X850000Y5922936D01*
X856004Y5921956D01*
X858925Y5918293D01*
X863293Y5913925D01*
X868123Y5910073D01*
X873354Y5906787D01*
X878920Y5904107D01*
X884750Y5902066D01*
X890773Y5900692D01*
X896912Y5900000D01*
X903089D01*
X909228Y5900692D01*
X915250Y5902066D01*
X921081Y5904107D01*
X926647Y5906787D01*
X931877Y5910073D01*
X936707Y5913925D01*
X941075Y5918293D01*
X944927Y5923123D01*
X948213Y5928353D01*
X950893Y5933919D01*
X952934Y5939750D01*
X954308Y5945772D01*
X955000Y5951911D01*
Y5958088D01*
X954308Y5964227D01*
X954132Y5965000D01*
X960892Y5975000D01*
X1089109D01*
X1095868Y5965000D01*
X1095692Y5964227D01*
X1095000Y5958088D01*
Y5951911D01*
X1095692Y5945772D01*
X1097066Y5939750D01*
X1099107Y5933919D01*
X1101787Y5928353D01*
X1105073Y5923123D01*
X1108925Y5918293D01*
X1113293Y5913925D01*
X1118123Y5910073D01*
X1123354Y5906787D01*
X1128919Y5904107D01*
X1134750Y5902066D01*
X1140773Y5900692D01*
X1146911Y5900000D01*
X1153089D01*
X1159227Y5900692D01*
X1165250Y5902066D01*
X1171081Y5904107D01*
X1176646Y5906787D01*
X1181877Y5910073D01*
X1186707Y5913925D01*
X1191075Y5918293D01*
X1193996Y5921956D01*
X1200000Y5922936D01*
X1206004Y5921956D01*
X1208925Y5918293D01*
X1213293Y5913925D01*
X1218123Y5910073D01*
X1223354Y5906787D01*
X1228919Y5904107D01*
X1234750Y5902066D01*
X1240773Y5900692D01*
X1246911Y5900000D01*
X1253089D01*
X1259227Y5900692D01*
X1265250Y5902066D01*
X1271081Y5904107D01*
X1276646Y5906787D01*
X1281877Y5910073D01*
X1286707Y5913925D01*
X1291075Y5918293D01*
X1293996Y5921956D01*
X1300000Y5922936D01*
X1306004Y5921956D01*
X1308925Y5918293D01*
X1313293Y5913925D01*
X1318123Y5910073D01*
X1323354Y5906787D01*
X1328919Y5904107D01*
X1334750Y5902066D01*
X1340773Y5900692D01*
X1346911Y5900000D01*
X1353089D01*
X1359227Y5900692D01*
X1365250Y5902066D01*
X1371081Y5904107D01*
X1376646Y5906787D01*
X1381877Y5910073D01*
X1386707Y5913925D01*
X1391075Y5918293D01*
X1394927Y5923123D01*
X1398213Y5928353D01*
X1400893Y5933919D01*
X1402934Y5939750D01*
X1404308Y5945772D01*
X1405000Y5951911D01*
Y5958088D01*
X1404308Y5964227D01*
X1404132Y5965000D01*
X1410892Y5975000D01*
X1724923D01*
Y5922936D01*
D02*
G37*
G36*
X-205000Y3185000D02*
X-147500D01*
Y3097500D01*
X-292500D01*
Y3382000D01*
X-205000D01*
Y3185000D01*
D02*
G37*
G36*
X-370000Y2315000D02*
X-835000D01*
Y2985000D01*
X-370000D01*
Y2315000D01*
D02*
G37*
G36*
X1748912Y2949383D02*
X1756674Y2948154D01*
X1764314Y2946319D01*
X1771788Y2943891D01*
X1779048Y2940884D01*
X1786050Y2937317D01*
X1792750Y2933211D01*
X1799107Y2928592D01*
X1805082Y2923489D01*
X1810638Y2917932D01*
X1815742Y2911957D01*
X1820361Y2905600D01*
X1824467Y2898900D01*
X1828034Y2891898D01*
X1831041Y2884638D01*
X1833469Y2877165D01*
X1835304Y2869524D01*
X1836533Y2861763D01*
X1837150Y2853929D01*
Y2850000D01*
Y2353050D01*
Y2349121D01*
X1836533Y2341287D01*
X1835304Y2333526D01*
X1833469Y2325885D01*
X1831041Y2318412D01*
X1828034Y2311152D01*
X1824467Y2304150D01*
X1820361Y2297450D01*
X1815742Y2291093D01*
X1810638Y2285118D01*
X1805082Y2279561D01*
X1799107Y2274458D01*
X1792750Y2269839D01*
X1786050Y2265733D01*
X1779048Y2262166D01*
X1771788Y2259159D01*
X1764314Y2256730D01*
X1756674Y2254896D01*
X1748912Y2253667D01*
X1741079Y2253050D01*
X1406071D01*
X1398237Y2253667D01*
X1390476Y2254896D01*
X1382835Y2256730D01*
X1375361Y2259159D01*
X1368102Y2262166D01*
X1361100Y2265733D01*
X1354400Y2269839D01*
X1348043Y2274458D01*
X1342067Y2279561D01*
X1336511Y2285118D01*
X1331408Y2291093D01*
X1326789Y2297450D01*
X1322683Y2304150D01*
X1319115Y2311152D01*
X1316108Y2318412D01*
X1313680Y2325885D01*
X1311845Y2333526D01*
X1310616Y2341287D01*
X1310000Y2349121D01*
Y2353050D01*
Y2850000D01*
Y2853929D01*
X1310616Y2861763D01*
X1311845Y2869524D01*
X1313680Y2877165D01*
X1316108Y2884638D01*
X1319115Y2891898D01*
X1322683Y2898900D01*
X1326789Y2905600D01*
X1331408Y2911957D01*
X1336511Y2917932D01*
X1342067Y2923489D01*
X1348043Y2928592D01*
X1354400Y2933211D01*
X1361100Y2937317D01*
X1368102Y2940884D01*
X1375361Y2943891D01*
X1382835Y2946319D01*
X1390476Y2948154D01*
X1398237Y2949383D01*
X1406071Y2950000D01*
X1741079D01*
X1748912Y2949383D01*
D02*
G37*
G36*
X386045Y2549235D02*
X396650Y2547710D01*
X407120Y2545433D01*
X417400Y2542414D01*
X427439Y2538670D01*
X437186Y2534219D01*
X446589Y2529084D01*
X455603Y2523291D01*
X464180Y2516870D01*
X472278Y2509854D01*
X479854Y2502277D01*
X486871Y2494180D01*
X493292Y2485603D01*
X499085Y2476589D01*
X504219Y2467185D01*
X508670Y2457439D01*
X512415Y2447400D01*
X515433Y2437119D01*
X517711Y2426650D01*
X519236Y2416044D01*
X520000Y2405357D01*
Y2394642D01*
X519236Y2383955D01*
X517711Y2373350D01*
X515433Y2362880D01*
X512415Y2352600D01*
X508670Y2342560D01*
X504219Y2332814D01*
X499085Y2323410D01*
X493292Y2314397D01*
X486871Y2305819D01*
X479854Y2297722D01*
X472278Y2290146D01*
X464180Y2283129D01*
X455603Y2276708D01*
X446589Y2270915D01*
X437186Y2265780D01*
X427439Y2261329D01*
X417400Y2257585D01*
X407120Y2254566D01*
X396650Y2252289D01*
X386045Y2250764D01*
X375357Y2250000D01*
X-62857D01*
X-73545Y2250764D01*
X-84150Y2252289D01*
X-94620Y2254566D01*
X-104900Y2257585D01*
X-114939Y2261329D01*
X-124686Y2265780D01*
X-134089Y2270915D01*
X-143103Y2276708D01*
X-151680Y2283129D01*
X-159778Y2290146D01*
X-167354Y2297722D01*
X-174371Y2305819D01*
X-180792Y2314397D01*
X-186585Y2323410D01*
X-191719Y2332814D01*
X-196170Y2342560D01*
X-199915Y2352600D01*
X-202933Y2362880D01*
X-205211Y2373350D01*
X-206736Y2383955D01*
X-207500Y2394642D01*
Y2405357D01*
X-206736Y2416044D01*
X-205211Y2426650D01*
X-202933Y2437119D01*
X-199915Y2447400D01*
X-196170Y2457439D01*
X-191719Y2467185D01*
X-186585Y2476589D01*
X-180792Y2485603D01*
X-174371Y2494180D01*
X-167354Y2502277D01*
X-159778Y2509854D01*
X-151680Y2516870D01*
X-143103Y2523291D01*
X-134089Y2529084D01*
X-124686Y2534219D01*
X-114939Y2538670D01*
X-104900Y2542414D01*
X-94620Y2545433D01*
X-84150Y2547710D01*
X-73545Y2549235D01*
X-62857Y2550000D01*
X375357D01*
X386045Y2549235D01*
D02*
G37*
G36*
X486045Y2149235D02*
X496650Y2147710D01*
X507120Y2145433D01*
X517400Y2142414D01*
X527439Y2138670D01*
X537186Y2134219D01*
X546589Y2129084D01*
X555603Y2123291D01*
X564180Y2116870D01*
X572278Y2109854D01*
X579854Y2102277D01*
X586871Y2094180D01*
X593292Y2085603D01*
X599085Y2076589D01*
X604220Y2067185D01*
X608670Y2057439D01*
X612415Y2047400D01*
X615433Y2037119D01*
X617711Y2026650D01*
X619236Y2016044D01*
X620000Y2005357D01*
Y1994642D01*
X619236Y1983955D01*
X617711Y1973350D01*
X615433Y1962880D01*
X612415Y1952600D01*
X608670Y1942561D01*
X604220Y1932814D01*
X599085Y1923410D01*
X593292Y1914397D01*
X586871Y1905819D01*
X579854Y1897722D01*
X572278Y1890146D01*
X564180Y1883129D01*
X555603Y1876708D01*
X546589Y1870915D01*
X537186Y1865780D01*
X527439Y1861330D01*
X517400Y1857585D01*
X507120Y1854567D01*
X496650Y1852289D01*
X486045Y1850764D01*
X475357Y1850000D01*
X37143D01*
X26455Y1850764D01*
X15850Y1852289D01*
X5380Y1854567D01*
X-4900Y1857585D01*
X-14939Y1861330D01*
X-24685Y1865780D01*
X-34089Y1870915D01*
X-43103Y1876708D01*
X-51680Y1883129D01*
X-59778Y1890146D01*
X-67354Y1897722D01*
X-74371Y1905819D01*
X-80792Y1914397D01*
X-86585Y1923410D01*
X-91719Y1932814D01*
X-96170Y1942561D01*
X-99915Y1952600D01*
X-102933Y1962880D01*
X-105211Y1973350D01*
X-106736Y1983955D01*
X-107500Y1994642D01*
Y2005357D01*
X-106736Y2016044D01*
X-105211Y2026650D01*
X-102933Y2037119D01*
X-99915Y2047400D01*
X-96170Y2057439D01*
X-91719Y2067185D01*
X-86585Y2076589D01*
X-80792Y2085603D01*
X-74371Y2094180D01*
X-67354Y2102277D01*
X-59778Y2109854D01*
X-51680Y2116870D01*
X-43103Y2123291D01*
X-34089Y2129084D01*
X-24685Y2134219D01*
X-14939Y2138670D01*
X-4900Y2142414D01*
X5380Y2145433D01*
X15850Y2147710D01*
X26455Y2149235D01*
X37143Y2150000D01*
X475357D01*
X486045Y2149235D01*
D02*
G37*
G36*
X1748912Y2026334D02*
X1756674Y2025104D01*
X1764314Y2023270D01*
X1771788Y2020842D01*
X1779048Y2017834D01*
X1786050Y2014267D01*
X1792750Y2010161D01*
X1799107Y2005542D01*
X1805082Y2000439D01*
X1810638Y1994882D01*
X1815742Y1988907D01*
X1820361Y1982550D01*
X1824467Y1975850D01*
X1828034Y1968848D01*
X1831041Y1961588D01*
X1833469Y1954115D01*
X1835304Y1946474D01*
X1836533Y1938713D01*
X1837150Y1930879D01*
Y1926950D01*
Y1553050D01*
Y1549121D01*
X1836533Y1541287D01*
X1835304Y1533526D01*
X1833469Y1525885D01*
X1831041Y1518411D01*
X1828034Y1511152D01*
X1824467Y1504150D01*
X1820361Y1497450D01*
X1815742Y1491093D01*
X1810638Y1485117D01*
X1805082Y1479561D01*
X1799107Y1474458D01*
X1792750Y1469839D01*
X1786050Y1465733D01*
X1779048Y1462165D01*
X1771788Y1459158D01*
X1764314Y1456730D01*
X1756674Y1454895D01*
X1748912Y1453666D01*
X1741079Y1453050D01*
X1458920D01*
X1451087Y1453666D01*
X1443325Y1454895D01*
X1435684Y1456730D01*
X1428211Y1459158D01*
X1420951Y1462165D01*
X1413949Y1465733D01*
X1407249Y1469839D01*
X1400892Y1474458D01*
X1394917Y1479561D01*
X1389360Y1485117D01*
X1384257Y1491093D01*
X1379638Y1497450D01*
X1375532Y1504150D01*
X1371965Y1511152D01*
X1368958Y1518411D01*
X1366530Y1525885D01*
X1364695Y1533526D01*
X1363466Y1541287D01*
X1362849Y1549121D01*
Y1553050D01*
Y1926950D01*
Y1930879D01*
X1363466Y1938713D01*
X1364695Y1946474D01*
X1366530Y1954115D01*
X1368958Y1961588D01*
X1371965Y1968848D01*
X1375532Y1975850D01*
X1379638Y1982550D01*
X1384257Y1988907D01*
X1389360Y1994882D01*
X1394917Y2000439D01*
X1400892Y2005542D01*
X1407249Y2010161D01*
X1413949Y2014267D01*
X1420951Y2017834D01*
X1428211Y2020842D01*
X1435684Y2023270D01*
X1443325Y2025104D01*
X1451087Y2026334D01*
X1458920Y2026950D01*
X1741079D01*
X1748912Y2026334D01*
D02*
G37*
G36*
X586045Y1749235D02*
X596650Y1747710D01*
X607120Y1745433D01*
X617400Y1742414D01*
X627439Y1738670D01*
X637186Y1734219D01*
X646590Y1729084D01*
X655603Y1723291D01*
X664181Y1716870D01*
X672278Y1709854D01*
X679854Y1702277D01*
X686871Y1694180D01*
X693292Y1685602D01*
X699085Y1676589D01*
X704220Y1667185D01*
X708670Y1657439D01*
X712415Y1647400D01*
X715433Y1637119D01*
X717711Y1626650D01*
X719236Y1616044D01*
X720000Y1605357D01*
Y1594642D01*
X719236Y1583955D01*
X717711Y1573349D01*
X715433Y1562880D01*
X712415Y1552599D01*
X708670Y1542560D01*
X704220Y1532814D01*
X699085Y1523410D01*
X693292Y1514397D01*
X686871Y1505819D01*
X679854Y1497722D01*
X672278Y1490145D01*
X664181Y1483129D01*
X655603Y1476708D01*
X646590Y1470915D01*
X637186Y1465780D01*
X627439Y1461329D01*
X617400Y1457585D01*
X607120Y1454566D01*
X596650Y1452289D01*
X586045Y1450764D01*
X575357Y1450000D01*
X137143D01*
X126455Y1450764D01*
X115850Y1452289D01*
X105380Y1454566D01*
X95100Y1457585D01*
X85061Y1461329D01*
X75315Y1465780D01*
X65911Y1470915D01*
X56897Y1476708D01*
X48320Y1483129D01*
X40222Y1490145D01*
X32646Y1497722D01*
X25629Y1505819D01*
X19208Y1514397D01*
X13416Y1523410D01*
X8281Y1532814D01*
X3830Y1542560D01*
X85Y1552599D01*
X-2933Y1562880D01*
X-5211Y1573349D01*
X-6736Y1583955D01*
X-7500Y1594642D01*
Y1605357D01*
X-6736Y1616044D01*
X-5211Y1626650D01*
X-2933Y1637119D01*
X85Y1647400D01*
X3830Y1657439D01*
X8281Y1667185D01*
X13416Y1676589D01*
X19208Y1685602D01*
X25629Y1694180D01*
X32646Y1702277D01*
X40222Y1709854D01*
X48320Y1716870D01*
X56897Y1723291D01*
X65911Y1729084D01*
X75315Y1734219D01*
X85061Y1738670D01*
X95100Y1742414D01*
X105380Y1745433D01*
X115850Y1747710D01*
X126455Y1749235D01*
X137143Y1750000D01*
X575357D01*
X586045Y1749235D01*
D02*
G37*
G36*
X686045Y1349235D02*
X696650Y1347710D01*
X707120Y1345433D01*
X717400Y1342414D01*
X727439Y1338670D01*
X737186Y1334219D01*
X746590Y1329084D01*
X755603Y1323291D01*
X764181Y1316870D01*
X772278Y1309854D01*
X779854Y1302277D01*
X786871Y1294180D01*
X793292Y1285602D01*
X799085Y1276589D01*
X804220Y1267185D01*
X808670Y1257439D01*
X812415Y1247400D01*
X815433Y1237119D01*
X817711Y1226650D01*
X819236Y1216044D01*
X820000Y1205357D01*
Y1194642D01*
X819236Y1183955D01*
X817711Y1173349D01*
X815433Y1162880D01*
X812415Y1152599D01*
X808670Y1142560D01*
X804220Y1132814D01*
X799085Y1123410D01*
X793292Y1114397D01*
X786871Y1105819D01*
X779854Y1097722D01*
X772278Y1090145D01*
X764181Y1083129D01*
X755603Y1076708D01*
X746590Y1070915D01*
X737186Y1065780D01*
X727439Y1061329D01*
X717400Y1057585D01*
X707120Y1054566D01*
X696650Y1052289D01*
X686045Y1050764D01*
X675358Y1050000D01*
X237143D01*
X226455Y1050764D01*
X215850Y1052289D01*
X205380Y1054566D01*
X195100Y1057585D01*
X185061Y1061329D01*
X175315Y1065780D01*
X165911Y1070915D01*
X156897Y1076708D01*
X148320Y1083129D01*
X140222Y1090145D01*
X132646Y1097722D01*
X125629Y1105819D01*
X119208Y1114397D01*
X113416Y1123410D01*
X108281Y1132814D01*
X103830Y1142560D01*
X100085Y1152599D01*
X97067Y1162880D01*
X94789Y1173349D01*
X93264Y1183955D01*
X92500Y1194642D01*
Y1205357D01*
X93264Y1216044D01*
X94789Y1226650D01*
X97067Y1237119D01*
X100085Y1247400D01*
X103830Y1257439D01*
X108281Y1267185D01*
X113416Y1276589D01*
X119208Y1285602D01*
X125629Y1294180D01*
X132646Y1302277D01*
X140222Y1309854D01*
X148320Y1316870D01*
X156897Y1323291D01*
X165911Y1329084D01*
X175315Y1334219D01*
X185061Y1338670D01*
X195100Y1342414D01*
X205380Y1345433D01*
X215850Y1347710D01*
X226455Y1349235D01*
X237143Y1350000D01*
X675358D01*
X686045Y1349235D01*
D02*
G37*
G36*
X2086764Y1226333D02*
X2094525Y1225104D01*
X2102166Y1223270D01*
X2109640Y1220841D01*
X2116899Y1217834D01*
X2123901Y1214267D01*
X2130601Y1210161D01*
X2136958Y1205542D01*
X2142934Y1200439D01*
X2148490Y1194882D01*
X2153594Y1188907D01*
X2158212Y1182550D01*
X2162318Y1175850D01*
X2165886Y1168848D01*
X2168893Y1161588D01*
X2171321Y1154115D01*
X2173156Y1146474D01*
X2174385Y1138713D01*
X2175001Y1130879D01*
Y1126950D01*
Y100000D01*
Y96315D01*
X2174279Y88981D01*
X2172841Y81754D01*
X2170702Y74702D01*
X2167882Y67894D01*
X2164408Y61395D01*
X2160314Y55267D01*
X2155639Y49571D01*
X2150429Y44360D01*
X2144732Y39685D01*
X2138605Y35591D01*
X2132106Y32117D01*
X2125298Y29297D01*
X2118246Y27158D01*
X2111018Y25720D01*
X2103684Y24998D01*
X213816D01*
X206482Y25720D01*
X199255Y27158D01*
X192203Y29297D01*
X185395Y32117D01*
X178896Y35591D01*
X172769Y39685D01*
X167072Y44360D01*
X161862Y49570D01*
X157187Y55267D01*
X153093Y61394D01*
X149619Y67893D01*
X146799Y74701D01*
X144660Y81753D01*
X143222Y88980D01*
X142500Y96314D01*
Y99998D01*
Y822499D01*
Y827509D01*
X143286Y837497D01*
X144853Y847393D01*
X147192Y857135D01*
X150288Y866663D01*
X154122Y875920D01*
X158671Y884847D01*
X163906Y893389D01*
X169795Y901495D01*
X176302Y909113D01*
X183386Y916198D01*
X191005Y922705D01*
X199110Y928594D01*
X207653Y933828D01*
X216580Y938377D01*
X225836Y942211D01*
X235365Y945307D01*
X245107Y947646D01*
X255003Y949213D01*
X264991Y950000D01*
X674974D01*
X684898Y949341D01*
X694757Y948026D01*
X704507Y946061D01*
X714106Y943455D01*
X723511Y940218D01*
X732681Y936366D01*
X741576Y931915D01*
X750156Y926884D01*
X758385Y921296D01*
X766225Y915176D01*
X773642Y908549D01*
X780605Y901446D01*
X787081Y893897D01*
X793044Y885936D01*
X798466Y877597D01*
X803323Y868918D01*
X807595Y859936D01*
X811263Y850690D01*
X814310Y841222D01*
X815517Y836398D01*
X824483Y800552D01*
X824483Y800552D01*
X825769Y795750D01*
X828815Y786287D01*
X832481Y777047D01*
X836751Y768070D01*
X841606Y759395D01*
X847024Y751061D01*
X852984Y743104D01*
X859456Y735559D01*
X866415Y728460D01*
X873829Y721837D01*
X881664Y715720D01*
X889888Y710135D01*
X898464Y705107D01*
X907354Y700658D01*
X916519Y696808D01*
X925919Y693573D01*
X935512Y690969D01*
X945257Y689005D01*
X955111Y687691D01*
X965030Y687032D01*
X970000Y686950D01*
X1112849D01*
X1119861Y687048D01*
X1133862Y687835D01*
X1147797Y689405D01*
X1161622Y691754D01*
X1175293Y694874D01*
X1188769Y698756D01*
X1202005Y703388D01*
X1214960Y708754D01*
X1227595Y714839D01*
X1239868Y721622D01*
X1251742Y729083D01*
X1263179Y737197D01*
X1274142Y745941D01*
X1284599Y755285D01*
X1294514Y765201D01*
X1303859Y775657D01*
X1312602Y786621D01*
X1320717Y798057D01*
X1328177Y809931D01*
X1334961Y822205D01*
X1341045Y834839D01*
X1346412Y847795D01*
X1351043Y861031D01*
X1354925Y874506D01*
X1358046Y888177D01*
X1360395Y902003D01*
X1361965Y915937D01*
X1362751Y929938D01*
X1362849Y936950D01*
Y1126950D01*
Y1130879D01*
X1363466Y1138713D01*
X1364695Y1146474D01*
X1366530Y1154115D01*
X1368958Y1161588D01*
X1371965Y1168848D01*
X1375532Y1175850D01*
X1379638Y1182550D01*
X1384257Y1188907D01*
X1389360Y1194882D01*
X1394917Y1200439D01*
X1400892Y1205542D01*
X1407249Y1210161D01*
X1413949Y1214267D01*
X1420951Y1217834D01*
X1428211Y1220841D01*
X1435684Y1223270D01*
X1443325Y1225104D01*
X1451087Y1226333D01*
X1458920Y1226950D01*
X2078930D01*
X2086764Y1226333D01*
D02*
G37*
%LPC*%
G36*
X1062700Y8314757D02*
Y8212700D01*
X1164757D01*
X1164688Y8213574D01*
X1163270Y8222531D01*
X1161153Y8231348D01*
X1158351Y8239973D01*
X1154880Y8248351D01*
X1150764Y8256430D01*
X1146025Y8264162D01*
X1140695Y8271498D01*
X1134806Y8278394D01*
X1128394Y8284806D01*
X1121498Y8290695D01*
X1114162Y8296025D01*
X1106430Y8300763D01*
X1098351Y8304880D01*
X1089973Y8308351D01*
X1081348Y8311153D01*
X1072531Y8313270D01*
X1063574Y8314688D01*
X1062700Y8314757D01*
D02*
G37*
G36*
X955488Y8399000D02*
X948512D01*
X941569Y8398316D01*
X934728Y8396955D01*
X928052Y8394930D01*
X921607Y8392260D01*
X915455Y8388972D01*
X909654Y8385096D01*
X904262Y8380671D01*
X899329Y8375738D01*
X894903Y8370345D01*
X891028Y8364545D01*
X887739Y8358393D01*
X885070Y8351948D01*
X883045Y8345272D01*
X881684Y8338430D01*
X881000Y8331488D01*
Y8324512D01*
X881684Y8317569D01*
X883045Y8310728D01*
X885070Y8304052D01*
X887739Y8297607D01*
X891028Y8291455D01*
X894903Y8285654D01*
X899329Y8280262D01*
X904262Y8275329D01*
X909654Y8270903D01*
X915455Y8267028D01*
X921607Y8263739D01*
X928052Y8261070D01*
X934728Y8259045D01*
X938920Y8258211D01*
X943856Y8251300D01*
X944696Y8247327D01*
X941649Y8239973D01*
X938847Y8231348D01*
X936730Y8222531D01*
X935312Y8213574D01*
X935243Y8212700D01*
X1037300D01*
Y8314757D01*
X1036426Y8314688D01*
X1031793Y8313954D01*
X1029731Y8314741D01*
X1024109Y8319855D01*
X1022795Y8322432D01*
X1023000Y8324512D01*
Y8331488D01*
X1022316Y8338430D01*
X1020955Y8345272D01*
X1018930Y8351948D01*
X1016260Y8358393D01*
X1012972Y8364545D01*
X1009096Y8370345D01*
X1004671Y8375738D01*
X999738Y8380671D01*
X994345Y8385096D01*
X988545Y8388972D01*
X982393Y8392260D01*
X975948Y8394930D01*
X969272Y8396955D01*
X962430Y8398316D01*
X955488Y8399000D01*
D02*
G37*
G36*
X1037300Y8187300D02*
X935243D01*
X935312Y8186426D01*
X936730Y8177469D01*
X938847Y8168651D01*
X941649Y8160027D01*
X945120Y8151649D01*
X949236Y8143569D01*
X953974Y8135838D01*
X959304Y8128501D01*
X965194Y8121606D01*
X971606Y8115194D01*
X978501Y8109304D01*
X985838Y8103974D01*
X993570Y8099236D01*
X1001649Y8095119D01*
X1010027Y8091649D01*
X1018652Y8088847D01*
X1027469Y8086730D01*
X1036426Y8085311D01*
X1037300Y8085243D01*
Y8187300D01*
D02*
G37*
G36*
X1164757D02*
X1062700D01*
Y8085243D01*
X1063574Y8085311D01*
X1072531Y8086730D01*
X1081348Y8088847D01*
X1089973Y8091649D01*
X1098351Y8095119D01*
X1106430Y8099236D01*
X1114162Y8103974D01*
X1121498Y8109304D01*
X1128394Y8115194D01*
X1134806Y8121606D01*
X1140695Y8128501D01*
X1146025Y8135838D01*
X1150764Y8143569D01*
X1154880Y8151649D01*
X1158351Y8160027D01*
X1161153Y8168651D01*
X1163270Y8177469D01*
X1164688Y8186426D01*
X1164757Y8187300D01*
D02*
G37*
G36*
X1354518Y8315000D02*
X1345481D01*
X1336473Y8314290D01*
X1327547Y8312877D01*
X1318760Y8310767D01*
X1310166Y8307975D01*
X1301817Y8304517D01*
X1293765Y8300414D01*
X1286060Y8295692D01*
X1278749Y8290381D01*
X1271878Y8284512D01*
X1265488Y8278122D01*
X1259619Y8271250D01*
X1254307Y8263940D01*
X1249586Y8256234D01*
X1245483Y8248183D01*
X1242025Y8239834D01*
X1239232Y8231240D01*
X1237123Y8222452D01*
X1235709Y8213527D01*
X1235000Y8204518D01*
Y8195481D01*
X1235709Y8186473D01*
X1237123Y8177547D01*
X1239232Y8168760D01*
X1242025Y8160166D01*
X1245483Y8151817D01*
X1249586Y8143765D01*
X1254307Y8136060D01*
X1259619Y8128749D01*
X1265488Y8121878D01*
X1271878Y8115488D01*
X1278749Y8109619D01*
X1286060Y8104307D01*
X1293765Y8099586D01*
X1301817Y8095483D01*
X1310166Y8092025D01*
X1318760Y8089232D01*
X1327547Y8087123D01*
X1336473Y8085709D01*
X1345481Y8085000D01*
X1354518D01*
X1363527Y8085709D01*
X1372452Y8087123D01*
X1381240Y8089232D01*
X1389834Y8092025D01*
X1398183Y8095483D01*
X1406234Y8099586D01*
X1413940Y8104307D01*
X1421250Y8109619D01*
X1428122Y8115488D01*
X1434512Y8121878D01*
X1440381Y8128749D01*
X1445692Y8136060D01*
X1450414Y8143765D01*
X1454517Y8151817D01*
X1457975Y8160166D01*
X1460767Y8168760D01*
X1462877Y8177547D01*
X1464290Y8186473D01*
X1465000Y8195481D01*
Y8204518D01*
X1464290Y8213527D01*
X1462877Y8222452D01*
X1460767Y8231240D01*
X1457975Y8239834D01*
X1454517Y8248183D01*
X1450414Y8256234D01*
X1445692Y8263940D01*
X1440381Y8271250D01*
X1434512Y8278122D01*
X1428122Y8284512D01*
X1421250Y8290381D01*
X1413940Y8295692D01*
X1406234Y8300414D01*
X1398183Y8304517D01*
X1389834Y8307975D01*
X1381240Y8310767D01*
X1372452Y8312877D01*
X1363527Y8314290D01*
X1354518Y8315000D01*
D02*
G37*
G36*
X-9600Y8175400D02*
X-190400D01*
Y8040660D01*
X-200000Y8031060D01*
X-217327Y8048388D01*
X-216402Y8050372D01*
X-213702Y8057790D01*
X-211659Y8065415D01*
X-210288Y8073189D01*
X-209600Y8081053D01*
Y8088947D01*
X-210288Y8096811D01*
X-211659Y8104585D01*
X-213702Y8112210D01*
X-216402Y8119627D01*
X-219738Y8126782D01*
X-223685Y8133618D01*
X-228213Y8140084D01*
X-233287Y8146131D01*
X-238868Y8151713D01*
X-244915Y8156787D01*
X-251382Y8161315D01*
X-258218Y8165262D01*
X-265372Y8168598D01*
X-272790Y8171298D01*
X-280415Y8173341D01*
X-288189Y8174712D01*
X-296053Y8175400D01*
X-303947D01*
X-311811Y8174712D01*
X-319585Y8173341D01*
X-327210Y8171298D01*
X-334627Y8168598D01*
X-341782Y8165262D01*
X-348618Y8161315D01*
X-355084Y8156787D01*
X-361131Y8151713D01*
X-366713Y8146131D01*
X-371787Y8140084D01*
X-376315Y8133618D01*
X-380262Y8126782D01*
X-383598Y8119627D01*
X-386298Y8112210D01*
X-388341Y8104585D01*
X-389712Y8096811D01*
X-390400Y8088947D01*
Y8081053D01*
X-389712Y8073189D01*
X-388341Y8065415D01*
X-386298Y8057790D01*
X-383598Y8050372D01*
X-380262Y8043218D01*
X-376315Y8036382D01*
X-371787Y8029915D01*
X-366713Y8023868D01*
X-361131Y8018286D01*
X-355084Y8013213D01*
X-348618Y8008685D01*
X-341782Y8004738D01*
X-334627Y8001402D01*
X-327210Y7998702D01*
X-319585Y7996659D01*
X-311811Y7995288D01*
X-303947Y7994600D01*
X-296053D01*
X-288189Y7995288D01*
X-280415Y7996659D01*
X-272790Y7998702D01*
X-265372Y8001402D01*
X-263388Y8002327D01*
X-250070Y7989009D01*
Y7925991D01*
X-340530Y7835530D01*
X-343339Y7832327D01*
X-345706Y7828785D01*
X-347590Y7824964D01*
X-348960Y7820930D01*
X-349791Y7816751D01*
X-350070Y7812500D01*
Y7715167D01*
X-360001Y7715000D01*
Y7715000D01*
X-540000D01*
Y7485000D01*
X-360000D01*
Y7567430D01*
X-340000D01*
X-335749Y7567709D01*
X-331570Y7568540D01*
X-327536Y7569910D01*
X-323715Y7571794D01*
X-320173Y7574161D01*
X-316970Y7576970D01*
X-300000Y7593940D01*
X-283030Y7576970D01*
X-279827Y7574161D01*
X-276285Y7571794D01*
X-272464Y7569910D01*
X-268430Y7568540D01*
X-264251Y7567709D01*
X-260000Y7567430D01*
X-240000D01*
Y7485000D01*
X-60000D01*
Y7715000D01*
X-239999D01*
Y7715000D01*
X-249930Y7715167D01*
Y7784512D01*
X-159470Y7874972D01*
X-156661Y7878175D01*
X-154294Y7881718D01*
X-152410Y7885538D01*
X-151040Y7889573D01*
X-150209Y7893751D01*
X-149930Y7898002D01*
Y7989009D01*
X-144339Y7994600D01*
X-9600D01*
Y8175400D01*
D02*
G37*
G36*
X-696053D02*
X-703947D01*
X-711811Y8174712D01*
X-719585Y8173341D01*
X-727210Y8171298D01*
X-734627Y8168598D01*
X-741782Y8165262D01*
X-748618Y8161315D01*
X-755084Y8156787D01*
X-761131Y8151713D01*
X-766713Y8146131D01*
X-771787Y8140084D01*
X-776315Y8133618D01*
X-780262Y8126782D01*
X-783598Y8119627D01*
X-786298Y8112210D01*
X-788341Y8104585D01*
X-789712Y8096811D01*
X-790400Y8088947D01*
Y8081053D01*
X-789712Y8073189D01*
X-788341Y8065415D01*
X-786298Y8057790D01*
X-783598Y8050372D01*
X-782673Y8048388D01*
X-800000Y8031060D01*
X-817327Y8048388D01*
X-816402Y8050372D01*
X-813702Y8057790D01*
X-811659Y8065415D01*
X-810288Y8073189D01*
X-809600Y8081053D01*
Y8088947D01*
X-810288Y8096811D01*
X-811659Y8104585D01*
X-813702Y8112210D01*
X-816402Y8119627D01*
X-819738Y8126782D01*
X-823685Y8133618D01*
X-828213Y8140084D01*
X-833287Y8146131D01*
X-838869Y8151713D01*
X-844916Y8156787D01*
X-851382Y8161315D01*
X-858218Y8165262D01*
X-865372Y8168598D01*
X-872790Y8171298D01*
X-880415Y8173341D01*
X-888189Y8174712D01*
X-896053Y8175400D01*
X-903947D01*
X-911811Y8174712D01*
X-919585Y8173341D01*
X-927210Y8171298D01*
X-934628Y8168598D01*
X-941782Y8165262D01*
X-948618Y8161315D01*
X-955084Y8156787D01*
X-961131Y8151713D01*
X-966713Y8146131D01*
X-971787Y8140084D01*
X-976315Y8133618D01*
X-980262Y8126782D01*
X-983598Y8119627D01*
X-986298Y8112210D01*
X-988341Y8104585D01*
X-989712Y8096811D01*
X-990400Y8088947D01*
Y8081053D01*
X-989712Y8073189D01*
X-988341Y8065415D01*
X-986298Y8057790D01*
X-983598Y8050372D01*
X-980262Y8043218D01*
X-976315Y8036382D01*
X-971787Y8029915D01*
X-966713Y8023868D01*
X-961131Y8018286D01*
X-955084Y8013213D01*
X-948618Y8008685D01*
X-941782Y8004738D01*
X-934628Y8001402D01*
X-927210Y7998702D01*
X-919585Y7996659D01*
X-911811Y7995288D01*
X-903947Y7994600D01*
X-896053D01*
X-888189Y7995288D01*
X-880415Y7996659D01*
X-872790Y7998702D01*
X-865372Y8001402D01*
X-863388Y8002327D01*
X-850070Y7989009D01*
Y7715167D01*
X-860001Y7715000D01*
Y7715000D01*
X-1040000D01*
Y7485000D01*
X-860000D01*
Y7567430D01*
X-840000D01*
X-835749Y7567709D01*
X-831570Y7568540D01*
X-827536Y7569910D01*
X-823715Y7571794D01*
X-820173Y7574161D01*
X-816970Y7576970D01*
X-800000Y7593940D01*
X-783030Y7576970D01*
X-779827Y7574161D01*
X-776285Y7571794D01*
X-772464Y7569910D01*
X-768430Y7568540D01*
X-764251Y7567709D01*
X-760000Y7567430D01*
X-740000D01*
Y7485000D01*
X-560000D01*
Y7715000D01*
X-739999D01*
Y7715000D01*
X-749930Y7715167D01*
Y7989009D01*
X-736612Y8002327D01*
X-734627Y8001402D01*
X-727210Y7998702D01*
X-719585Y7996659D01*
X-711811Y7995288D01*
X-703947Y7994600D01*
X-696053D01*
X-688189Y7995288D01*
X-680415Y7996659D01*
X-672790Y7998702D01*
X-665372Y8001402D01*
X-658218Y8004738D01*
X-651382Y8008685D01*
X-644915Y8013213D01*
X-638868Y8018286D01*
X-633287Y8023868D01*
X-628213Y8029915D01*
X-623685Y8036382D01*
X-619738Y8043218D01*
X-616402Y8050372D01*
X-613702Y8057790D01*
X-611659Y8065415D01*
X-610288Y8073189D01*
X-609600Y8081053D01*
Y8088947D01*
X-610288Y8096811D01*
X-611659Y8104585D01*
X-613702Y8112210D01*
X-616402Y8119627D01*
X-619738Y8126782D01*
X-623685Y8133618D01*
X-628213Y8140084D01*
X-633287Y8146131D01*
X-638868Y8151713D01*
X-644915Y8156787D01*
X-651382Y8161315D01*
X-658218Y8165262D01*
X-665372Y8168598D01*
X-672790Y8171298D01*
X-680415Y8173341D01*
X-688189Y8174712D01*
X-696053Y8175400D01*
D02*
G37*
G36*
X-1296053D02*
X-1303947D01*
X-1311811Y8174712D01*
X-1319585Y8173341D01*
X-1327210Y8171298D01*
X-1334628Y8168598D01*
X-1341782Y8165262D01*
X-1348618Y8161315D01*
X-1355084Y8156787D01*
X-1361131Y8151713D01*
X-1366713Y8146131D01*
X-1371787Y8140084D01*
X-1376315Y8133618D01*
X-1380262Y8126782D01*
X-1383598Y8119627D01*
X-1386298Y8112210D01*
X-1388341Y8104585D01*
X-1389712Y8096811D01*
X-1390400Y8088947D01*
Y8081053D01*
X-1389712Y8073189D01*
X-1388341Y8065415D01*
X-1386298Y8057790D01*
X-1383598Y8050372D01*
X-1382673Y8048388D01*
X-1400000Y8031060D01*
X-1417327Y8048388D01*
X-1416402Y8050372D01*
X-1413702Y8057790D01*
X-1411659Y8065415D01*
X-1410288Y8073189D01*
X-1409600Y8081053D01*
Y8088947D01*
X-1410288Y8096811D01*
X-1411659Y8104585D01*
X-1413702Y8112210D01*
X-1416402Y8119627D01*
X-1419738Y8126782D01*
X-1423685Y8133618D01*
X-1428213Y8140084D01*
X-1433287Y8146131D01*
X-1438869Y8151713D01*
X-1444916Y8156787D01*
X-1451382Y8161315D01*
X-1458218Y8165262D01*
X-1465372Y8168598D01*
X-1472790Y8171298D01*
X-1480415Y8173341D01*
X-1488189Y8174712D01*
X-1496053Y8175400D01*
X-1503947D01*
X-1511811Y8174712D01*
X-1519585Y8173341D01*
X-1527210Y8171298D01*
X-1534628Y8168598D01*
X-1541782Y8165262D01*
X-1548618Y8161315D01*
X-1555085Y8156787D01*
X-1561131Y8151713D01*
X-1566713Y8146131D01*
X-1571787Y8140084D01*
X-1576315Y8133618D01*
X-1580262Y8126782D01*
X-1583598Y8119627D01*
X-1586298Y8112210D01*
X-1588341Y8104585D01*
X-1589712Y8096811D01*
X-1590400Y8088947D01*
Y8081053D01*
X-1589712Y8073189D01*
X-1588341Y8065415D01*
X-1586298Y8057790D01*
X-1583598Y8050372D01*
X-1580262Y8043218D01*
X-1576315Y8036382D01*
X-1571787Y8029915D01*
X-1566713Y8023868D01*
X-1561131Y8018286D01*
X-1555085Y8013213D01*
X-1548618Y8008685D01*
X-1541782Y8004738D01*
X-1534628Y8001402D01*
X-1527210Y7998702D01*
X-1519585Y7996659D01*
X-1511811Y7995288D01*
X-1503947Y7994600D01*
X-1496053D01*
X-1488189Y7995288D01*
X-1480415Y7996659D01*
X-1472790Y7998702D01*
X-1465372Y8001402D01*
X-1463388Y8002327D01*
X-1450069Y7989009D01*
Y7898002D01*
X-1449791Y7893751D01*
X-1448960Y7889573D01*
X-1447590Y7885539D01*
X-1445706Y7881718D01*
X-1443339Y7878175D01*
X-1440530Y7874972D01*
X-1350069Y7784512D01*
Y7715167D01*
X-1360001Y7715000D01*
Y7715000D01*
X-1540000D01*
Y7485000D01*
X-1360000D01*
Y7567430D01*
X-1340000D01*
X-1335749Y7567709D01*
X-1331570Y7568540D01*
X-1327536Y7569910D01*
X-1323715Y7571794D01*
X-1320173Y7574161D01*
X-1316970Y7576970D01*
X-1300000Y7593940D01*
X-1283030Y7576970D01*
X-1279827Y7574161D01*
X-1276285Y7571794D01*
X-1272464Y7569910D01*
X-1268430Y7568540D01*
X-1264251Y7567709D01*
X-1260000Y7567430D01*
X-1240000D01*
Y7485000D01*
X-1060000D01*
Y7715000D01*
X-1239999D01*
Y7715000D01*
X-1249930Y7715167D01*
Y7812500D01*
X-1250209Y7816751D01*
X-1251040Y7820930D01*
X-1252409Y7824964D01*
X-1254294Y7828785D01*
X-1256661Y7832327D01*
X-1259470Y7835530D01*
X-1349930Y7925991D01*
Y7989009D01*
X-1336612Y8002327D01*
X-1334628Y8001402D01*
X-1327210Y7998702D01*
X-1319585Y7996659D01*
X-1311811Y7995288D01*
X-1303947Y7994600D01*
X-1296053D01*
X-1288189Y7995288D01*
X-1280415Y7996659D01*
X-1272790Y7998702D01*
X-1265372Y8001402D01*
X-1258218Y8004738D01*
X-1251382Y8008685D01*
X-1244915Y8013213D01*
X-1238868Y8018286D01*
X-1233287Y8023868D01*
X-1228213Y8029915D01*
X-1223685Y8036382D01*
X-1219738Y8043218D01*
X-1216402Y8050372D01*
X-1213702Y8057790D01*
X-1211659Y8065415D01*
X-1210288Y8073189D01*
X-1209600Y8081053D01*
Y8088947D01*
X-1210288Y8096811D01*
X-1211659Y8104585D01*
X-1213702Y8112210D01*
X-1216402Y8119627D01*
X-1219738Y8126782D01*
X-1223685Y8133618D01*
X-1228213Y8140084D01*
X-1233287Y8146131D01*
X-1238868Y8151713D01*
X-1244915Y8156787D01*
X-1251382Y8161315D01*
X-1258218Y8165262D01*
X-1265372Y8168598D01*
X-1272790Y8171298D01*
X-1280415Y8173341D01*
X-1288189Y8174712D01*
X-1296053Y8175400D01*
D02*
G37*
G36*
X1062700Y8014757D02*
Y7912700D01*
X1164757D01*
X1164688Y7913574D01*
X1163269Y7922531D01*
X1161153Y7931348D01*
X1158350Y7939973D01*
X1154880Y7948351D01*
X1150763Y7956430D01*
X1146025Y7964162D01*
X1140695Y7971498D01*
X1134806Y7978394D01*
X1128394Y7984806D01*
X1121498Y7990695D01*
X1114162Y7996025D01*
X1106430Y8000764D01*
X1098350Y8004880D01*
X1089972Y8008351D01*
X1081348Y8011153D01*
X1072530Y8013270D01*
X1063574Y8014688D01*
X1062700Y8014757D01*
D02*
G37*
G36*
X1037300D02*
X1036425Y8014688D01*
X1027469Y8013270D01*
X1018651Y8011153D01*
X1010027Y8008351D01*
X1001649Y8004880D01*
X993569Y8000764D01*
X985838Y7996025D01*
X978501Y7990695D01*
X971606Y7984806D01*
X965194Y7978394D01*
X959304Y7971498D01*
X953974Y7964162D01*
X949236Y7956430D01*
X945119Y7948351D01*
X941649Y7939973D01*
X938847Y7931348D01*
X936730Y7922531D01*
X935311Y7913574D01*
X935242Y7912700D01*
X1037300D01*
Y8014757D01*
D02*
G37*
G36*
X1164757Y7887300D02*
X1062700D01*
Y7785243D01*
X1063574Y7785312D01*
X1072530Y7786730D01*
X1081348Y7788847D01*
X1089972Y7791649D01*
X1098350Y7795120D01*
X1106430Y7799236D01*
X1114162Y7803974D01*
X1121498Y7809304D01*
X1128394Y7815194D01*
X1134806Y7821606D01*
X1140695Y7828501D01*
X1146025Y7835838D01*
X1150763Y7843570D01*
X1154880Y7851649D01*
X1158350Y7860027D01*
X1161153Y7868652D01*
X1163269Y7877469D01*
X1164688Y7886426D01*
X1164757Y7887300D01*
D02*
G37*
G36*
X1037300D02*
X935242D01*
X935311Y7886426D01*
X936730Y7877469D01*
X938847Y7868652D01*
X941649Y7860027D01*
X945119Y7851649D01*
X949236Y7843570D01*
X953974Y7835838D01*
X959304Y7828501D01*
X965194Y7821606D01*
X971606Y7815194D01*
X978501Y7809304D01*
X985838Y7803974D01*
X993569Y7799236D01*
X1001649Y7795120D01*
X1010027Y7791649D01*
X1018651Y7788847D01*
X1027469Y7786730D01*
X1036425Y7785312D01*
X1037300Y7785243D01*
Y7887300D01*
D02*
G37*
G36*
X1354518Y8015000D02*
X1345482D01*
X1336473Y8014291D01*
X1327548Y8012877D01*
X1318760Y8010767D01*
X1310166Y8007975D01*
X1301817Y8004517D01*
X1293766Y8000414D01*
X1286060Y7995692D01*
X1278750Y7990381D01*
X1271878Y7984512D01*
X1265488Y7978122D01*
X1259619Y7971251D01*
X1254308Y7963940D01*
X1249586Y7956235D01*
X1245483Y7948183D01*
X1242025Y7939834D01*
X1239233Y7931240D01*
X1237123Y7922453D01*
X1235709Y7913527D01*
X1235000Y7904518D01*
Y7895482D01*
X1235709Y7886473D01*
X1237123Y7877547D01*
X1239233Y7868760D01*
X1242025Y7860166D01*
X1245483Y7851817D01*
X1249586Y7843765D01*
X1254308Y7836060D01*
X1259619Y7828749D01*
X1265488Y7821878D01*
X1271878Y7815488D01*
X1278750Y7809619D01*
X1286060Y7804307D01*
X1293766Y7799586D01*
X1301817Y7795483D01*
X1310166Y7792025D01*
X1318760Y7789233D01*
X1327548Y7787123D01*
X1336473Y7785709D01*
X1345482Y7785000D01*
X1354518D01*
X1363527Y7785709D01*
X1372453Y7787123D01*
X1381240Y7789233D01*
X1389834Y7792025D01*
X1398183Y7795483D01*
X1406235Y7799586D01*
X1413940Y7804307D01*
X1421251Y7809619D01*
X1428122Y7815488D01*
X1434512Y7821878D01*
X1440381Y7828749D01*
X1445693Y7836060D01*
X1450414Y7843765D01*
X1454517Y7851817D01*
X1457975Y7860166D01*
X1460767Y7868760D01*
X1462877Y7877547D01*
X1464291Y7886473D01*
X1465000Y7895482D01*
Y7904518D01*
X1464291Y7913527D01*
X1462877Y7922453D01*
X1460767Y7931240D01*
X1457975Y7939834D01*
X1454517Y7948183D01*
X1450414Y7956235D01*
X1445693Y7963940D01*
X1440381Y7971251D01*
X1434512Y7978122D01*
X1428122Y7984512D01*
X1421251Y7990381D01*
X1413940Y7995692D01*
X1406235Y8000414D01*
X1398183Y8004517D01*
X1389834Y8007975D01*
X1381240Y8010767D01*
X1372453Y8012877D01*
X1363527Y8014291D01*
X1354518Y8015000D01*
D02*
G37*
G36*
X1062700Y7714757D02*
Y7612700D01*
X1164757D01*
X1164688Y7613574D01*
X1163270Y7622531D01*
X1161153Y7631348D01*
X1158351Y7639973D01*
X1154880Y7648351D01*
X1150764Y7656430D01*
X1146025Y7664162D01*
X1140695Y7671498D01*
X1134806Y7678394D01*
X1128394Y7684806D01*
X1121498Y7690696D01*
X1114162Y7696026D01*
X1106430Y7700764D01*
X1098351Y7704880D01*
X1089973Y7708351D01*
X1081348Y7711153D01*
X1072531Y7713270D01*
X1063574Y7714688D01*
X1062700Y7714757D01*
D02*
G37*
G36*
X1037300D02*
X1036426Y7714688D01*
X1027469Y7713270D01*
X1018652Y7711153D01*
X1010027Y7708351D01*
X1001649Y7704880D01*
X993570Y7700764D01*
X985838Y7696026D01*
X978501Y7690696D01*
X971606Y7684806D01*
X965194Y7678394D01*
X959304Y7671498D01*
X953974Y7664162D01*
X949236Y7656430D01*
X945120Y7648351D01*
X941649Y7639973D01*
X938847Y7631348D01*
X936730Y7622531D01*
X935312Y7613574D01*
X935243Y7612700D01*
X1037300D01*
Y7714757D01*
D02*
G37*
G36*
X2048089Y7710000D02*
X2041911D01*
X2035773Y7709308D01*
X2029750Y7707934D01*
X2023919Y7705893D01*
X2018354Y7703213D01*
X2013393Y7700096D01*
X1930000D01*
X1924114Y7699711D01*
X1918328Y7698560D01*
X1912742Y7696664D01*
X1907452Y7694054D01*
X1902547Y7690777D01*
X1898112Y7686888D01*
X1818112Y7606888D01*
X1814223Y7602453D01*
X1810946Y7597548D01*
X1808336Y7592258D01*
X1806440Y7586672D01*
X1805290Y7580886D01*
X1804904Y7575000D01*
Y7570000D01*
X1792500D01*
Y7440000D01*
Y7349503D01*
X1790773Y7349308D01*
X1784750Y7347933D01*
X1778919Y7345893D01*
X1773354Y7343213D01*
X1768123Y7339926D01*
X1763293Y7336075D01*
X1758925Y7331707D01*
X1755073Y7326877D01*
X1751787Y7321646D01*
X1749107Y7316081D01*
X1747066Y7310250D01*
X1745692Y7304227D01*
X1745000Y7298089D01*
Y7291911D01*
X1745692Y7285773D01*
X1747066Y7279750D01*
X1749107Y7273919D01*
X1751787Y7268354D01*
X1755073Y7263123D01*
X1758925Y7258293D01*
X1763293Y7253925D01*
X1767430Y7250626D01*
Y7170000D01*
X1742500D01*
Y7040000D01*
Y6930000D01*
X1747509D01*
X1749498Y6920000D01*
X1747838Y6919313D01*
X1743812Y6916845D01*
X1740222Y6913778D01*
X1737155Y6910188D01*
X1734687Y6906162D01*
X1732880Y6901799D01*
X1731778Y6897207D01*
X1731408Y6892500D01*
Y6747500D01*
X1731778Y6742792D01*
X1732880Y6738201D01*
X1734687Y6733838D01*
X1737155Y6729812D01*
X1739063Y6727577D01*
X1737923Y6722456D01*
X1734945Y6717577D01*
X1714577D01*
Y6747303D01*
X1714593Y6747500D01*
Y6892500D01*
X1714222Y6897207D01*
X1713120Y6901799D01*
X1711313Y6906162D01*
X1708845Y6910188D01*
X1705779Y6913778D01*
X1702188Y6916845D01*
X1698162Y6919313D01*
X1693799Y6921120D01*
X1689208Y6922222D01*
X1684500Y6922592D01*
X1634500D01*
X1629793Y6922222D01*
X1625201Y6921120D01*
X1620838Y6919313D01*
X1616812Y6916845D01*
X1613222Y6913778D01*
X1610155Y6910188D01*
X1607687Y6906162D01*
X1605880Y6901799D01*
X1604778Y6897207D01*
X1604408Y6892500D01*
Y6860077D01*
X1530000D01*
X1529019Y6860000D01*
X1505000D01*
Y6835981D01*
X1504923Y6835000D01*
Y6735077D01*
X1376270D01*
X1371836Y6739327D01*
X1368402Y6745077D01*
X1368593Y6747500D01*
Y6892500D01*
X1368222Y6897207D01*
X1367120Y6901799D01*
X1365313Y6906162D01*
X1362845Y6910188D01*
X1359779Y6913778D01*
X1356188Y6916845D01*
X1352162Y6919313D01*
X1350503Y6920000D01*
X1352492Y6930000D01*
X1357500D01*
Y7040000D01*
Y7170000D01*
X1332570D01*
Y7250626D01*
X1336707Y7253925D01*
X1341075Y7258293D01*
X1344926Y7263123D01*
X1348213Y7268354D01*
X1350893Y7273919D01*
X1352934Y7279750D01*
X1354308Y7285773D01*
X1355000Y7291912D01*
Y7298089D01*
X1354308Y7304227D01*
X1352934Y7310250D01*
X1350893Y7316081D01*
X1348213Y7321647D01*
X1344926Y7326877D01*
X1341075Y7331707D01*
X1336707Y7336075D01*
X1331877Y7339927D01*
X1326646Y7343213D01*
X1321081Y7345893D01*
X1315250Y7347934D01*
X1309227Y7349308D01*
X1303089Y7350000D01*
X1296911D01*
X1290773Y7349308D01*
X1284750Y7347934D01*
X1278919Y7345893D01*
X1273354Y7343213D01*
X1268123Y7339927D01*
X1263293Y7336075D01*
X1258925Y7331707D01*
X1256004Y7328044D01*
X1250000Y7327064D01*
X1243996Y7328044D01*
X1241075Y7331707D01*
X1236707Y7336075D01*
X1231877Y7339926D01*
X1226646Y7343213D01*
X1221081Y7345893D01*
X1215250Y7347933D01*
X1209227Y7349308D01*
X1203089Y7350000D01*
X1196911D01*
X1190773Y7349308D01*
X1184750Y7347933D01*
X1178919Y7345893D01*
X1173354Y7343213D01*
X1168123Y7339926D01*
X1163293Y7336075D01*
X1158925Y7331707D01*
X1155073Y7326877D01*
X1151787Y7321646D01*
X1149107Y7316081D01*
X1147066Y7310250D01*
X1145692Y7304227D01*
X1145000Y7298089D01*
Y7291911D01*
X1145692Y7285773D01*
X1147066Y7279750D01*
X1149107Y7273919D01*
X1151787Y7268354D01*
X1155073Y7263123D01*
X1158925Y7258293D01*
X1163293Y7253925D01*
X1167430Y7250626D01*
Y7170000D01*
X1142500D01*
Y7040000D01*
Y6930000D01*
X1147508D01*
X1149498Y6920000D01*
X1147838Y6919313D01*
X1143812Y6916845D01*
X1140221Y6913778D01*
X1137155Y6910188D01*
X1134687Y6906162D01*
X1132880Y6901799D01*
X1131778Y6897207D01*
X1131407Y6892500D01*
Y6747500D01*
X1131598Y6745077D01*
X1128164Y6739327D01*
X1124577Y6735889D01*
X1114577Y6737213D01*
Y6747303D01*
X1114593Y6747500D01*
Y6892500D01*
X1114222Y6897207D01*
X1113120Y6901799D01*
X1111313Y6906162D01*
X1108845Y6910188D01*
X1105779Y6913778D01*
X1102188Y6916845D01*
X1098162Y6919313D01*
X1093799Y6921120D01*
X1089208Y6922222D01*
X1084500Y6922592D01*
X1034500D01*
X1029792Y6922222D01*
X1025201Y6921120D01*
X1020838Y6919313D01*
X1016812Y6916845D01*
X1013221Y6913778D01*
X1010155Y6910188D01*
X1007687Y6906162D01*
X1005880Y6901799D01*
X1004778Y6897207D01*
X1004407Y6892500D01*
Y6860077D01*
X930000D01*
X929019Y6860000D01*
X905000D01*
Y6835981D01*
X904923Y6835000D01*
Y6735077D01*
X776270D01*
X771836Y6739327D01*
X768402Y6745077D01*
X768593Y6747500D01*
Y6892500D01*
X768222Y6897207D01*
X767120Y6901799D01*
X765313Y6906162D01*
X762845Y6910188D01*
X759779Y6913778D01*
X756188Y6916845D01*
X752162Y6919313D01*
X750502Y6920000D01*
X752492Y6930000D01*
X757500D01*
Y7040000D01*
Y7170000D01*
X732570D01*
Y7250626D01*
X736707Y7253925D01*
X741075Y7258293D01*
X744927Y7263123D01*
X748213Y7268354D01*
X750893Y7273919D01*
X752934Y7279750D01*
X754308Y7285773D01*
X755000Y7291912D01*
Y7298089D01*
X754308Y7304227D01*
X752934Y7310250D01*
X750893Y7316081D01*
X748213Y7321647D01*
X744927Y7326877D01*
X741075Y7331707D01*
X736707Y7336075D01*
X731877Y7339927D01*
X726647Y7343213D01*
X721081Y7345893D01*
X715250Y7347934D01*
X709227Y7349308D01*
X703089Y7350000D01*
X696911D01*
X690773Y7349308D01*
X684750Y7347934D01*
X678919Y7345893D01*
X673354Y7343213D01*
X668123Y7339927D01*
X663293Y7336075D01*
X658925Y7331707D01*
X656004Y7328044D01*
X650000Y7327064D01*
X643996Y7328044D01*
X641075Y7331707D01*
X636707Y7336075D01*
X631877Y7339926D01*
X626646Y7343213D01*
X621081Y7345893D01*
X615250Y7347933D01*
X609227Y7349308D01*
X603089Y7350000D01*
X596911D01*
X590773Y7349308D01*
X584750Y7347933D01*
X578919Y7345893D01*
X573354Y7343213D01*
X568123Y7339926D01*
X563293Y7336075D01*
X558925Y7331707D01*
X555074Y7326877D01*
X551787Y7321646D01*
X549107Y7316081D01*
X547066Y7310250D01*
X545692Y7304227D01*
X545000Y7298089D01*
Y7291911D01*
X545692Y7285773D01*
X547066Y7279750D01*
X549107Y7273919D01*
X551787Y7268354D01*
X555074Y7263123D01*
X558925Y7258293D01*
X563293Y7253925D01*
X567430Y7250626D01*
Y7170000D01*
X542500D01*
Y7040000D01*
Y6930000D01*
X547508D01*
X549498Y6920000D01*
X547838Y6919313D01*
X543812Y6916845D01*
X540221Y6913778D01*
X537155Y6910188D01*
X534687Y6906162D01*
X532880Y6901799D01*
X531778Y6897207D01*
X531407Y6892500D01*
Y6747500D01*
X531598Y6745077D01*
X528164Y6739327D01*
X524577Y6735889D01*
X514577Y6737213D01*
Y6747303D01*
X514593Y6747500D01*
Y6892500D01*
X514222Y6897207D01*
X513120Y6901799D01*
X511313Y6906162D01*
X508845Y6910188D01*
X505779Y6913778D01*
X502188Y6916845D01*
X498162Y6919313D01*
X493799Y6921120D01*
X489208Y6922222D01*
X484500Y6922592D01*
X434500D01*
X429792Y6922222D01*
X425201Y6921120D01*
X420838Y6919313D01*
X416812Y6916845D01*
X413221Y6913778D01*
X410155Y6910188D01*
X407687Y6906162D01*
X405880Y6901799D01*
X404778Y6897207D01*
X404407Y6892500D01*
Y6860077D01*
X330077D01*
Y6900000D01*
X329768Y6903923D01*
X328850Y6907749D01*
X327344Y6911385D01*
X325288Y6914740D01*
X322732Y6917732D01*
X319740Y6920288D01*
X316385Y6922344D01*
X312749Y6923850D01*
X308923Y6924768D01*
X305000Y6925077D01*
X0D01*
X-3923Y6924768D01*
X-7749Y6923850D01*
X-11385Y6922344D01*
X-14740Y6920288D01*
X-17732Y6917732D01*
X-20288Y6914740D01*
X-22344Y6911385D01*
X-23850Y6907749D01*
X-24768Y6903923D01*
X-25077Y6900000D01*
Y6550000D01*
X-24768Y6546077D01*
X-23850Y6542251D01*
X-22344Y6538615D01*
X-20288Y6535260D01*
X-17732Y6532268D01*
X-14740Y6529712D01*
X-11385Y6527656D01*
X-7749Y6526150D01*
X-3923Y6525232D01*
X0Y6524923D01*
X77064D01*
X78741Y6525055D01*
X80431Y6525150D01*
X80708Y6525210D01*
X80987Y6525232D01*
X82629Y6525626D01*
X84276Y6525983D01*
X84538Y6526084D01*
X84814Y6526150D01*
X86375Y6526797D01*
X87945Y6527406D01*
X88532Y6527689D01*
X91702Y6528798D01*
X94982Y6529547D01*
X98319Y6529923D01*
X101681D01*
X105019Y6529547D01*
X108298Y6528798D01*
X111469Y6527689D01*
X112055Y6527407D01*
X113622Y6526798D01*
X115186Y6526150D01*
X115462Y6526084D01*
X115724Y6525983D01*
X117371Y6525626D01*
X119013Y6525232D01*
X119292Y6525210D01*
X119569Y6525150D01*
X121259Y6525055D01*
X122936Y6524923D01*
X177064D01*
X178741Y6525055D01*
X180431Y6525150D01*
X180708Y6525210D01*
X180987Y6525232D01*
X182629Y6525626D01*
X184276Y6525983D01*
X184538Y6526084D01*
X184814Y6526150D01*
X186375Y6526797D01*
X187945Y6527406D01*
X188532Y6527689D01*
X191702Y6528798D01*
X194982Y6529547D01*
X198319Y6529923D01*
X201681D01*
X205019Y6529547D01*
X208298Y6528798D01*
X211469Y6527689D01*
X212055Y6527407D01*
X213622Y6526798D01*
X215187Y6526150D01*
X215462Y6526084D01*
X215724Y6525983D01*
X217371Y6525626D01*
X219013Y6525232D01*
X219292Y6525210D01*
X219570Y6525150D01*
X221259Y6525055D01*
X222936Y6524923D01*
X277064D01*
X278741Y6525055D01*
X280431Y6525150D01*
X280708Y6525210D01*
X280987Y6525232D01*
X282629Y6525626D01*
X284277Y6525983D01*
X284538Y6526084D01*
X284814Y6526150D01*
X286375Y6526797D01*
X287945Y6527406D01*
X288532Y6527689D01*
X291702Y6528798D01*
X294982Y6529547D01*
X298319Y6529923D01*
X301681D01*
X305019Y6529547D01*
X308298Y6528798D01*
X311469Y6527689D01*
X312055Y6527407D01*
X313622Y6526798D01*
X315187Y6526150D01*
X315462Y6526084D01*
X315724Y6525983D01*
X317371Y6525626D01*
X319013Y6525232D01*
X319292Y6525210D01*
X319570Y6525150D01*
X321259Y6525055D01*
X322936Y6524923D01*
X1790000D01*
X1793923Y6525232D01*
X1797749Y6526150D01*
X1801385Y6527656D01*
X1804740Y6529712D01*
X1807732Y6532268D01*
X1810288Y6535260D01*
X1812344Y6538615D01*
X1813850Y6542251D01*
X1814768Y6546077D01*
X1815077Y6550000D01*
Y6692500D01*
X1814768Y6696423D01*
X1813850Y6700249D01*
X1812344Y6703885D01*
X1810288Y6707240D01*
X1810145Y6707407D01*
X1810675Y6711318D01*
X1812952Y6716084D01*
X1814332Y6717630D01*
X1816208Y6717778D01*
X1820799Y6718880D01*
X1825162Y6720687D01*
X1829188Y6723154D01*
X1832779Y6726221D01*
X1835845Y6729812D01*
X1838313Y6733838D01*
X1840120Y6738201D01*
X1841222Y6742792D01*
X1841593Y6747500D01*
Y6892500D01*
X1841222Y6897207D01*
X1840120Y6901799D01*
X1838313Y6906162D01*
X1835845Y6910188D01*
X1835075Y6911090D01*
Y6930000D01*
X1864925D01*
Y6911090D01*
X1864155Y6910188D01*
X1861687Y6906162D01*
X1859880Y6901799D01*
X1858778Y6897207D01*
X1858408Y6892500D01*
Y6747500D01*
X1858778Y6742792D01*
X1859880Y6738201D01*
X1861687Y6733838D01*
X1864155Y6729812D01*
X1867222Y6726221D01*
X1870812Y6723154D01*
X1874838Y6720687D01*
X1879201Y6718880D01*
X1883793Y6717778D01*
X1888500Y6717407D01*
X1938500D01*
X1943208Y6717778D01*
X1947799Y6718880D01*
X1952162Y6720687D01*
X1956188Y6723154D01*
X1959779Y6726221D01*
X1962845Y6729812D01*
X1965313Y6733838D01*
X1967120Y6738201D01*
X1968222Y6742792D01*
X1968593Y6747500D01*
Y6892500D01*
X1968222Y6897207D01*
X1967120Y6901799D01*
X1965313Y6906162D01*
X1962845Y6910188D01*
X1959779Y6913778D01*
X1956188Y6916845D01*
X1952162Y6919313D01*
X1950503Y6920000D01*
X1952492Y6930000D01*
X1957500D01*
Y7040000D01*
Y7170000D01*
X1932570D01*
Y7250626D01*
X1936707Y7253925D01*
X1941075Y7258293D01*
X1944927Y7263123D01*
X1948213Y7268354D01*
X1950893Y7273919D01*
X1952934Y7279750D01*
X1954308Y7285773D01*
X1955000Y7291912D01*
Y7298089D01*
X1954308Y7304227D01*
X1952934Y7310250D01*
X1950893Y7316081D01*
X1948213Y7321647D01*
X1944927Y7326877D01*
X1941075Y7331707D01*
X1936707Y7336075D01*
X1931877Y7339927D01*
X1926646Y7343213D01*
X1921081Y7345893D01*
X1915250Y7347934D01*
X1909227Y7349308D01*
X1907500Y7349503D01*
Y7440000D01*
Y7568724D01*
X1948679Y7609904D01*
X2013393D01*
X2018354Y7606787D01*
X2023919Y7604107D01*
X2029750Y7602066D01*
X2035773Y7600692D01*
X2041911Y7600000D01*
X2048089D01*
X2054227Y7600692D01*
X2060250Y7602066D01*
X2066081Y7604107D01*
X2071646Y7606787D01*
X2076877Y7610073D01*
X2081707Y7613925D01*
X2086075Y7618293D01*
X2089926Y7623123D01*
X2093213Y7628354D01*
X2095893Y7633919D01*
X2097934Y7639750D01*
X2099308Y7645773D01*
X2100000Y7651911D01*
Y7658089D01*
X2099308Y7664227D01*
X2097934Y7670250D01*
X2095893Y7676081D01*
X2093213Y7681646D01*
X2089926Y7686877D01*
X2086075Y7691707D01*
X2081707Y7696075D01*
X2076877Y7699926D01*
X2071646Y7703213D01*
X2066081Y7705893D01*
X2060250Y7707934D01*
X2054227Y7709308D01*
X2048089Y7710000D01*
D02*
G37*
G36*
X1037300Y7587300D02*
X935243D01*
X935312Y7586426D01*
X936730Y7577469D01*
X938847Y7568652D01*
X941649Y7560027D01*
X945120Y7551649D01*
X949236Y7543570D01*
X953974Y7535838D01*
X959304Y7528502D01*
X965194Y7521606D01*
X971606Y7515194D01*
X978501Y7509305D01*
X985838Y7503975D01*
X993570Y7499236D01*
X1001649Y7495120D01*
X1010027Y7491649D01*
X1018652Y7488847D01*
X1027469Y7486730D01*
X1036426Y7485312D01*
X1037300Y7485243D01*
Y7587300D01*
D02*
G37*
G36*
X1164757D02*
X1062700D01*
Y7485243D01*
X1063574Y7485312D01*
X1072531Y7486730D01*
X1081348Y7488847D01*
X1089973Y7491649D01*
X1098351Y7495120D01*
X1106430Y7499236D01*
X1114162Y7503975D01*
X1121498Y7509305D01*
X1128394Y7515194D01*
X1134806Y7521606D01*
X1140695Y7528502D01*
X1146025Y7535838D01*
X1150764Y7543570D01*
X1154880Y7551649D01*
X1158351Y7560027D01*
X1161153Y7568652D01*
X1163270Y7577469D01*
X1164688Y7586426D01*
X1164757Y7587300D01*
D02*
G37*
G36*
X1354518Y7715000D02*
X1345481D01*
X1336473Y7714291D01*
X1327547Y7712877D01*
X1318760Y7710767D01*
X1310166Y7707975D01*
X1301817Y7704517D01*
X1293765Y7700414D01*
X1286060Y7695693D01*
X1278749Y7690381D01*
X1271878Y7684512D01*
X1265488Y7678122D01*
X1259619Y7671251D01*
X1254307Y7663940D01*
X1249586Y7656235D01*
X1245483Y7648183D01*
X1242025Y7639834D01*
X1239232Y7631240D01*
X1237123Y7622453D01*
X1235709Y7613527D01*
X1235000Y7604518D01*
Y7595482D01*
X1235709Y7586473D01*
X1237123Y7577547D01*
X1239232Y7568760D01*
X1242025Y7560166D01*
X1245483Y7551817D01*
X1249586Y7543765D01*
X1254307Y7536060D01*
X1259619Y7528749D01*
X1265488Y7521878D01*
X1271878Y7515488D01*
X1278749Y7509619D01*
X1286060Y7504308D01*
X1293765Y7499586D01*
X1301817Y7495483D01*
X1310166Y7492025D01*
X1318760Y7489233D01*
X1327547Y7487123D01*
X1336473Y7485709D01*
X1345481Y7485000D01*
X1354518D01*
X1363527Y7485709D01*
X1372452Y7487123D01*
X1381240Y7489233D01*
X1389834Y7492025D01*
X1398183Y7495483D01*
X1406234Y7499586D01*
X1413940Y7504308D01*
X1421250Y7509619D01*
X1428122Y7515488D01*
X1434512Y7521878D01*
X1440381Y7528749D01*
X1445692Y7536060D01*
X1450414Y7543765D01*
X1454517Y7551817D01*
X1457975Y7560166D01*
X1460767Y7568760D01*
X1462877Y7577547D01*
X1464290Y7586473D01*
X1465000Y7595482D01*
Y7604518D01*
X1464290Y7613527D01*
X1462877Y7622453D01*
X1460767Y7631240D01*
X1457975Y7639834D01*
X1454517Y7648183D01*
X1450414Y7656235D01*
X1445692Y7663940D01*
X1440381Y7671251D01*
X1434512Y7678122D01*
X1428122Y7684512D01*
X1421250Y7690381D01*
X1413940Y7695693D01*
X1406234Y7700414D01*
X1398183Y7704517D01*
X1389834Y7707975D01*
X1381240Y7710767D01*
X1372452Y7712877D01*
X1363527Y7714291D01*
X1354518Y7715000D01*
D02*
G37*
G36*
X2053089Y7450000D02*
X2046911D01*
X2040773Y7449308D01*
X2034750Y7447934D01*
X2028919Y7445893D01*
X2023354Y7443213D01*
X2018123Y7439926D01*
X2013293Y7436075D01*
X2008925Y7431707D01*
X2005073Y7426877D01*
X2001787Y7421646D01*
X1999107Y7416081D01*
X1997066Y7410250D01*
X1995692Y7404227D01*
X1995000Y7398089D01*
Y7391911D01*
X1995692Y7385773D01*
X1997066Y7379750D01*
X1999107Y7373919D01*
X2001787Y7368354D01*
X2005073Y7363123D01*
X2008925Y7358293D01*
X2013293Y7353925D01*
X2018123Y7350073D01*
X2023354Y7346787D01*
X2028919Y7344107D01*
X2034750Y7342066D01*
X2040773Y7340692D01*
X2046911Y7340000D01*
X2053089D01*
X2059227Y7340692D01*
X2065250Y7342066D01*
X2071081Y7344107D01*
X2076646Y7346787D01*
X2081877Y7350073D01*
X2086707Y7353925D01*
X2091075Y7358293D01*
X2094926Y7363123D01*
X2098213Y7368354D01*
X2100893Y7373919D01*
X2102934Y7379750D01*
X2104308Y7385773D01*
X2105000Y7391911D01*
Y7398089D01*
X2104308Y7404227D01*
X2102934Y7410250D01*
X2100893Y7416081D01*
X2098213Y7421646D01*
X2094926Y7426877D01*
X2091075Y7431707D01*
X2086707Y7436075D01*
X2081877Y7439926D01*
X2076646Y7443213D01*
X2071081Y7445893D01*
X2065250Y7447934D01*
X2059227Y7449308D01*
X2053089Y7450000D01*
D02*
G37*
G36*
X-800000Y6650594D02*
X-800455Y6650578D01*
X-1197000D01*
X-1200923Y6650269D01*
X-1204749Y6649350D01*
X-1208384Y6647844D01*
X-1211740Y6645788D01*
X-1214732Y6643233D01*
X-1217287Y6640240D01*
X-1219344Y6636885D01*
X-1220849Y6633250D01*
X-1221768Y6629423D01*
X-1222077Y6625500D01*
Y6602415D01*
X-1232077Y6598887D01*
X-1232834Y6599826D01*
X-1239989Y6607511D01*
X-1247674Y6614666D01*
X-1255850Y6621255D01*
X-1264475Y6627243D01*
X-1273505Y6632601D01*
X-1282895Y6637301D01*
X-1292596Y6641319D01*
X-1302558Y6644635D01*
X-1312733Y6647232D01*
X-1323066Y6649097D01*
X-1333506Y6650219D01*
X-1344000Y6650594D01*
X-1354493Y6650219D01*
X-1364933Y6649097D01*
X-1375266Y6647232D01*
X-1385441Y6644635D01*
X-1395404Y6641319D01*
X-1405105Y6637301D01*
X-1414494Y6632601D01*
X-1423524Y6627243D01*
X-1432150Y6621255D01*
X-1440326Y6614666D01*
X-1448011Y6607511D01*
X-1455165Y6599826D01*
X-1461754Y6591650D01*
X-1467743Y6583025D01*
X-1473101Y6573994D01*
X-1477801Y6564605D01*
X-1481819Y6554904D01*
X-1485135Y6544941D01*
X-1487732Y6534767D01*
X-1489596Y6524434D01*
X-1490718Y6513994D01*
X-1491093Y6503500D01*
Y6387500D01*
X-1490718Y6377007D01*
X-1489596Y6366567D01*
X-1487732Y6356233D01*
X-1485135Y6346059D01*
X-1481819Y6336096D01*
X-1477801Y6326395D01*
X-1473101Y6317006D01*
X-1467743Y6307975D01*
X-1461754Y6299350D01*
X-1455165Y6291174D01*
X-1448011Y6283489D01*
X-1440326Y6276334D01*
X-1432150Y6269746D01*
X-1423524Y6263757D01*
X-1414494Y6258399D01*
X-1405105Y6253699D01*
X-1395404Y6249681D01*
X-1385441Y6246365D01*
X-1375266Y6243768D01*
X-1364933Y6241904D01*
X-1354493Y6240782D01*
X-1344000Y6240407D01*
X-1333506Y6240782D01*
X-1323066Y6241904D01*
X-1312733Y6243768D01*
X-1302558Y6246365D01*
X-1292596Y6249681D01*
X-1282895Y6253699D01*
X-1273505Y6258399D01*
X-1264475Y6263757D01*
X-1255850Y6269746D01*
X-1247674Y6276334D01*
X-1239989Y6283489D01*
X-1232834Y6291174D01*
X-1232077Y6292113D01*
X-1222077Y6288586D01*
Y5874924D01*
X-1222000Y5873944D01*
Y5872957D01*
X-1221845Y5871982D01*
X-1221768Y5871001D01*
X-1221538Y5870044D01*
X-1221384Y5869070D01*
X-1221080Y5868134D01*
X-1220849Y5867175D01*
X-1220472Y5866264D01*
X-1220168Y5865328D01*
X-1219721Y5864450D01*
X-1219344Y5863539D01*
X-1218828Y5862699D01*
X-1218381Y5861822D01*
X-1217802Y5861024D01*
X-1217287Y5860184D01*
X-1216649Y5859437D01*
X-1216069Y5858638D01*
X-1215371Y5857940D01*
X-1214732Y5857192D01*
X-1213984Y5856553D01*
X-1213286Y5855855D01*
X-1212487Y5855275D01*
X-1211740Y5854637D01*
X-1210900Y5854122D01*
X-1210103Y5853543D01*
X-1209225Y5853095D01*
X-1208384Y5852580D01*
X-1207474Y5852203D01*
X-1206597Y5851756D01*
X-1196597Y5847614D01*
X-1195661Y5847310D01*
X-1194749Y5846932D01*
X-1193790Y5846702D01*
X-1192854Y5846398D01*
X-1191880Y5846243D01*
X-1190923Y5846014D01*
X-1189943Y5845936D01*
X-1188967Y5845782D01*
X-1187980D01*
X-1187000Y5845705D01*
X-1186019Y5845782D01*
X-1185032D01*
X-1184058Y5845936D01*
X-1183077Y5846014D01*
X-1182120Y5846244D01*
X-1181146Y5846398D01*
X-1180209Y5846702D01*
X-1179250Y5846932D01*
X-1178339Y5847310D01*
X-1177403Y5847614D01*
X-1176528Y5848060D01*
X-1175615Y5848438D01*
X-1174772Y5848955D01*
X-1173897Y5849400D01*
X-1173102Y5849978D01*
X-1172260Y5850494D01*
X-1171511Y5851134D01*
X-1170713Y5851713D01*
X-1170509Y5851917D01*
X-1167342Y5854443D01*
X-1164497Y5856230D01*
X-1161469Y5857689D01*
X-1158298Y5858798D01*
X-1155019Y5859547D01*
X-1151681Y5859923D01*
X-1148319D01*
X-1144981Y5859547D01*
X-1141702Y5858798D01*
X-1138531Y5857689D01*
X-1135503Y5856231D01*
X-1132657Y5854442D01*
X-1130030Y5852347D01*
X-1127653Y5849970D01*
X-1125557Y5847342D01*
X-1123770Y5844497D01*
X-1122311Y5841469D01*
X-1121202Y5838298D01*
X-1120453Y5835019D01*
X-1120077Y5831681D01*
Y5828319D01*
X-1120453Y5824981D01*
X-1121202Y5821702D01*
X-1122311Y5818531D01*
X-1123769Y5815503D01*
X-1125558Y5812657D01*
X-1127653Y5810030D01*
X-1130030Y5807653D01*
X-1132658Y5805557D01*
X-1135503Y5803770D01*
X-1138531Y5802311D01*
X-1141702Y5801202D01*
X-1144981Y5800453D01*
X-1148319Y5800077D01*
X-1151681D01*
X-1155019Y5800453D01*
X-1158298Y5801202D01*
X-1161469Y5802311D01*
X-1164497Y5803769D01*
X-1167343Y5805558D01*
X-1170509Y5808083D01*
X-1170713Y5808287D01*
X-1171512Y5808867D01*
X-1172260Y5809506D01*
X-1173100Y5810020D01*
X-1173897Y5810600D01*
X-1174774Y5811047D01*
X-1175615Y5811562D01*
X-1176526Y5811939D01*
X-1177403Y5812386D01*
X-1178340Y5812691D01*
X-1179250Y5813068D01*
X-1180209Y5813298D01*
X-1181146Y5813602D01*
X-1182119Y5813756D01*
X-1183077Y5813986D01*
X-1184058Y5814064D01*
X-1185032Y5814218D01*
X-1186019D01*
X-1187000Y5814295D01*
X-1187980Y5814218D01*
X-1188967D01*
X-1189943Y5814064D01*
X-1190923Y5813986D01*
X-1191880Y5813757D01*
X-1192854Y5813602D01*
X-1193790Y5813298D01*
X-1194749Y5813068D01*
X-1195660Y5812690D01*
X-1196597Y5812386D01*
X-1206597Y5808244D01*
X-1207474Y5807797D01*
X-1208384Y5807420D01*
X-1209225Y5806905D01*
X-1210103Y5806457D01*
X-1210900Y5805878D01*
X-1211740Y5805364D01*
X-1212487Y5804725D01*
X-1213286Y5804145D01*
X-1213984Y5803447D01*
X-1214732Y5802808D01*
X-1215371Y5802060D01*
X-1216069Y5801362D01*
X-1216649Y5800563D01*
X-1217287Y5799816D01*
X-1217802Y5798976D01*
X-1218381Y5798178D01*
X-1218828Y5797301D01*
X-1219344Y5796461D01*
X-1219721Y5795550D01*
X-1220168Y5794672D01*
X-1220472Y5793736D01*
X-1220849Y5792825D01*
X-1221080Y5791866D01*
X-1221384Y5790930D01*
X-1221538Y5789956D01*
X-1221768Y5788999D01*
X-1221845Y5788018D01*
X-1222000Y5787043D01*
Y5786057D01*
X-1222077Y5785076D01*
Y5606274D01*
X-1694923Y5133427D01*
X-1704923Y5137570D01*
Y5335963D01*
X-1705065Y5337774D01*
X-1705186Y5339588D01*
X-1705220Y5339735D01*
X-1705232Y5339886D01*
X-1705658Y5341662D01*
X-1706059Y5343425D01*
X-1706114Y5343564D01*
X-1706150Y5343713D01*
X-1706847Y5345396D01*
X-1707521Y5347078D01*
X-1707599Y5347209D01*
X-1707656Y5347348D01*
X-1708602Y5348892D01*
X-1709536Y5350458D01*
X-1709633Y5350575D01*
X-1709712Y5350703D01*
X-1710890Y5352082D01*
X-1712056Y5353481D01*
X-1721084Y5362729D01*
X-1721198Y5362829D01*
X-1721296Y5362944D01*
X-1722675Y5364122D01*
X-1724045Y5365321D01*
X-1724174Y5365402D01*
X-1724288Y5365499D01*
X-1725832Y5366446D01*
X-1727375Y5367417D01*
X-1727514Y5367477D01*
X-1727643Y5367556D01*
X-1729328Y5368253D01*
X-1730992Y5368967D01*
X-1731138Y5369003D01*
X-1731278Y5369062D01*
X-1733056Y5369489D01*
X-1734808Y5369931D01*
X-1734957Y5369945D01*
X-1735105Y5369980D01*
X-1736919Y5370123D01*
X-1738727Y5370287D01*
X-1738877Y5370277D01*
X-1739028Y5370289D01*
X-1746665Y5370289D01*
X-1753185Y5370860D01*
X-1759626Y5371996D01*
X-1765947Y5373689D01*
X-1772093Y5375926D01*
X-1778022Y5378691D01*
X-1783688Y5381962D01*
X-1789048Y5385716D01*
X-1794060Y5389921D01*
X-1798686Y5394547D01*
X-1802891Y5399558D01*
X-1806643Y5404917D01*
X-1809916Y5410585D01*
X-1812680Y5416513D01*
X-1814917Y5422660D01*
X-1816611Y5428981D01*
X-1817747Y5435424D01*
X-1818317Y5441939D01*
X-1818317Y5448482D01*
X-1817746Y5455002D01*
X-1816611Y5461444D01*
X-1814917Y5467765D01*
X-1812680Y5473911D01*
X-1809915Y5479840D01*
X-1806644Y5485506D01*
X-1802890Y5490866D01*
X-1798685Y5495878D01*
X-1794059Y5500504D01*
X-1789048Y5504708D01*
X-1783689Y5508461D01*
X-1778021Y5511733D01*
X-1772093Y5514497D01*
X-1765946Y5516735D01*
X-1759625Y5518428D01*
X-1753182Y5519565D01*
X-1746667Y5520135D01*
X-1740001Y5520134D01*
X-1739084Y5520206D01*
X-1738164Y5520202D01*
X-1737126Y5520361D01*
X-1736078Y5520443D01*
X-1735183Y5520657D01*
X-1734274Y5520797D01*
X-1733014Y5521092D01*
X-1731868Y5521458D01*
X-1730703Y5521752D01*
X-1729996Y5522056D01*
X-1729265Y5522289D01*
X-1728193Y5522828D01*
X-1727086Y5523302D01*
X-1726435Y5523712D01*
X-1725749Y5524057D01*
X-1724774Y5524758D01*
X-1723756Y5525398D01*
X-1723177Y5525906D01*
X-1722554Y5526353D01*
X-1721702Y5527196D01*
X-1720795Y5527990D01*
X-1712055Y5536943D01*
X-1710893Y5538338D01*
X-1709712Y5539720D01*
X-1709633Y5539850D01*
X-1709536Y5539966D01*
X-1708608Y5541522D01*
X-1707656Y5543075D01*
X-1707598Y5543215D01*
X-1707521Y5543346D01*
X-1706847Y5545029D01*
X-1706150Y5546711D01*
X-1706115Y5546859D01*
X-1706059Y5546999D01*
X-1705656Y5548768D01*
X-1705232Y5550537D01*
X-1705220Y5550688D01*
X-1705186Y5550836D01*
X-1705066Y5552648D01*
X-1704923Y5554460D01*
Y5559613D01*
X-1537267Y5727268D01*
X-1534712Y5730261D01*
X-1532656Y5733616D01*
X-1531150Y5737251D01*
X-1530231Y5741077D01*
X-1529923Y5745000D01*
Y5772713D01*
X-1519923Y5777376D01*
X-1517540Y5775377D01*
X-1510387Y5770369D01*
X-1502825Y5766002D01*
X-1494911Y5762312D01*
X-1486705Y5759326D01*
X-1478271Y5757065D01*
X-1469671Y5755549D01*
X-1460972Y5754788D01*
X-1452240Y5754788D01*
X-1443541Y5755549D01*
X-1434941Y5757065D01*
X-1426507Y5759326D01*
X-1418301Y5762312D01*
X-1410387Y5766002D01*
X-1402825Y5770368D01*
X-1395672Y5775377D01*
X-1388982Y5780990D01*
X-1382808Y5787165D01*
X-1377195Y5793854D01*
X-1372187Y5801007D01*
X-1367820Y5808569D01*
X-1364130Y5816483D01*
X-1361144Y5824689D01*
X-1358883Y5833123D01*
X-1357367Y5841723D01*
X-1356606Y5850422D01*
X-1356606Y5859154D01*
X-1357367Y5867853D01*
X-1358883Y5876453D01*
X-1361144Y5884887D01*
X-1364130Y5893093D01*
X-1367820Y5901007D01*
X-1372186Y5908569D01*
X-1377195Y5915722D01*
X-1382808Y5922411D01*
X-1388983Y5928586D01*
X-1395672Y5934199D01*
X-1402825Y5939207D01*
X-1410387Y5943573D01*
X-1418301Y5947264D01*
X-1426507Y5950250D01*
X-1434941Y5952510D01*
X-1443541Y5954027D01*
X-1452240Y5954787D01*
X-1460972Y5954788D01*
X-1469671Y5954027D01*
X-1478271Y5952510D01*
X-1486705Y5950250D01*
X-1494911Y5947263D01*
X-1502825Y5943573D01*
X-1510387Y5939207D01*
X-1517540Y5934199D01*
X-1519923Y5932199D01*
X-1529923Y5936863D01*
Y6245000D01*
X-1530231Y6248923D01*
X-1531150Y6252749D01*
X-1532656Y6256385D01*
X-1534712Y6259740D01*
X-1537267Y6262732D01*
X-1540260Y6265288D01*
X-1543615Y6267344D01*
X-1547250Y6268850D01*
X-1551077Y6269769D01*
X-1555000Y6270077D01*
X-1664923D01*
Y6445000D01*
X-1665000Y6445984D01*
Y6470000D01*
X-1689016D01*
X-1690000Y6470077D01*
X-1870000D01*
X-1870984Y6470000D01*
X-1895000D01*
Y6445984D01*
X-1895077Y6445000D01*
Y6120387D01*
X-1987732Y6027732D01*
X-1990288Y6024740D01*
X-1992344Y6021385D01*
X-1993850Y6017749D01*
X-1994768Y6013923D01*
X-1995077Y6010000D01*
Y5991674D01*
X-1995052Y5991358D01*
X-1995069Y5991045D01*
X-1994899Y5989405D01*
X-1994768Y5987751D01*
X-1994695Y5987444D01*
X-1994662Y5987131D01*
X-1994238Y5985540D01*
X-1993850Y5983925D01*
X-1993728Y5983631D01*
X-1993648Y5983329D01*
X-1992980Y5981825D01*
X-1992344Y5980289D01*
X-1992179Y5980020D01*
X-1992051Y5979732D01*
X-1991151Y5978343D01*
X-1990288Y5976934D01*
X-1990084Y5976695D01*
X-1989912Y5976430D01*
X-1988808Y5975201D01*
X-1987732Y5973942D01*
X-1987492Y5973736D01*
X-1987282Y5973503D01*
X-1985998Y5972460D01*
X-1984740Y5971386D01*
X-1984473Y5971222D01*
X-1984227Y5971023D01*
X-1974227Y5964134D01*
X-1973281Y5963586D01*
X-1972375Y5962974D01*
X-1971580Y5962602D01*
X-1970821Y5962162D01*
X-1969802Y5961770D01*
X-1968811Y5961306D01*
X-1967966Y5961063D01*
X-1967149Y5960748D01*
X-1966082Y5960520D01*
X-1965030Y5960217D01*
X-1964158Y5960109D01*
X-1963301Y5959926D01*
X-1962209Y5959867D01*
X-1961125Y5959733D01*
X-1960247Y5959762D01*
X-1959371Y5959716D01*
X-1958285Y5959828D01*
X-1957192Y5959865D01*
X-1956680Y5959923D01*
X-1953319D01*
X-1949981Y5959547D01*
X-1946702Y5958798D01*
X-1943531Y5957689D01*
X-1940503Y5956231D01*
X-1937657Y5954442D01*
X-1935030Y5952347D01*
X-1931911Y5949229D01*
X-1931773Y5949062D01*
X-1931215Y5948572D01*
X-1930709Y5948032D01*
X-1929740Y5947277D01*
X-1928816Y5946466D01*
X-1928190Y5946070D01*
X-1927604Y5945614D01*
X-1926526Y5945020D01*
X-1925489Y5944364D01*
X-1924430Y5943806D01*
X-1924271Y5943738D01*
X-1924126Y5943649D01*
X-1922465Y5942960D01*
X-1920815Y5942251D01*
X-1920650Y5942209D01*
X-1920490Y5942143D01*
X-1918748Y5941724D01*
X-1917002Y5941280D01*
X-1916829Y5941264D01*
X-1916664Y5941224D01*
X-1914885Y5941084D01*
X-1913084Y5940918D01*
X-1912912Y5940929D01*
X-1912741Y5940915D01*
X-1902259D01*
X-1902086Y5940929D01*
X-1901916Y5940918D01*
X-1900133Y5941083D01*
X-1898336Y5941224D01*
X-1898169Y5941264D01*
X-1897998Y5941280D01*
X-1896259Y5941723D01*
X-1894510Y5942143D01*
X-1894350Y5942209D01*
X-1894184Y5942251D01*
X-1892539Y5942959D01*
X-1890874Y5943649D01*
X-1890727Y5943739D01*
X-1890570Y5943807D01*
X-1889511Y5944364D01*
X-1888473Y5945020D01*
X-1887396Y5945614D01*
X-1886809Y5946071D01*
X-1886184Y5946466D01*
X-1885262Y5947276D01*
X-1884291Y5948032D01*
X-1883785Y5948573D01*
X-1883227Y5949062D01*
X-1883088Y5949229D01*
X-1879970Y5952347D01*
X-1877342Y5954443D01*
X-1874497Y5956230D01*
X-1871469Y5957689D01*
X-1868298Y5958798D01*
X-1865019Y5959547D01*
X-1861681Y5959923D01*
X-1858319D01*
X-1854982Y5959547D01*
X-1851702Y5958798D01*
X-1848531Y5957689D01*
X-1845504Y5956231D01*
X-1842657Y5954442D01*
X-1840030Y5952347D01*
X-1837653Y5949970D01*
X-1835557Y5947342D01*
X-1833770Y5944497D01*
X-1832312Y5941469D01*
X-1831202Y5938298D01*
X-1830453Y5935019D01*
X-1830077Y5931681D01*
Y5928319D01*
X-1830453Y5924982D01*
X-1831202Y5921702D01*
X-1832312Y5918531D01*
X-1833770Y5915504D01*
X-1835558Y5912657D01*
X-1837653Y5910030D01*
X-1840030Y5907653D01*
X-1842658Y5905557D01*
X-1845503Y5903770D01*
X-1848531Y5902312D01*
X-1851702Y5901202D01*
X-1854982Y5900453D01*
X-1858319Y5900077D01*
X-1861681D01*
X-1865019Y5900453D01*
X-1868298Y5901202D01*
X-1871469Y5902312D01*
X-1874497Y5903769D01*
X-1877343Y5905558D01*
X-1879970Y5907653D01*
X-1883089Y5910772D01*
X-1883227Y5910938D01*
X-1883785Y5911428D01*
X-1884291Y5911969D01*
X-1885260Y5912723D01*
X-1886184Y5913534D01*
X-1886810Y5913930D01*
X-1887396Y5914386D01*
X-1888473Y5914981D01*
X-1889511Y5915636D01*
X-1890570Y5916194D01*
X-1890729Y5916262D01*
X-1890874Y5916351D01*
X-1892535Y5917040D01*
X-1894185Y5917749D01*
X-1894350Y5917791D01*
X-1894510Y5917857D01*
X-1896252Y5918276D01*
X-1897998Y5918720D01*
X-1898171Y5918736D01*
X-1898336Y5918776D01*
X-1900115Y5918916D01*
X-1901916Y5919082D01*
X-1902088Y5919071D01*
X-1902259Y5919085D01*
X-1912741D01*
X-1912914Y5919071D01*
X-1913084Y5919082D01*
X-1914867Y5918917D01*
X-1916664Y5918776D01*
X-1916831Y5918736D01*
X-1917002Y5918720D01*
X-1918741Y5918277D01*
X-1920490Y5917857D01*
X-1920650Y5917791D01*
X-1920816Y5917749D01*
X-1922461Y5917041D01*
X-1924126Y5916351D01*
X-1924273Y5916261D01*
X-1924430Y5916194D01*
X-1925489Y5915636D01*
X-1926527Y5914980D01*
X-1927604Y5914386D01*
X-1928191Y5913929D01*
X-1928816Y5913534D01*
X-1929738Y5912724D01*
X-1930709Y5911969D01*
X-1931215Y5911428D01*
X-1931773Y5910938D01*
X-1931912Y5910771D01*
X-1935030Y5907653D01*
X-1937658Y5905557D01*
X-1940503Y5903770D01*
X-1943531Y5902312D01*
X-1946702Y5901202D01*
X-1949981Y5900453D01*
X-1953319Y5900077D01*
X-1956680D01*
X-1957192Y5900135D01*
X-1958287Y5900172D01*
X-1959371Y5900285D01*
X-1960247Y5900238D01*
X-1961125Y5900267D01*
X-1962209Y5900133D01*
X-1963301Y5900075D01*
X-1964158Y5899891D01*
X-1965030Y5899783D01*
X-1966081Y5899480D01*
X-1967149Y5899252D01*
X-1967967Y5898937D01*
X-1968811Y5898694D01*
X-1969801Y5898231D01*
X-1970821Y5897838D01*
X-1971581Y5897398D01*
X-1972375Y5897026D01*
X-1973280Y5896414D01*
X-1974227Y5895867D01*
X-1984227Y5888977D01*
X-1984472Y5888778D01*
X-1984740Y5888614D01*
X-1985996Y5887542D01*
X-1987282Y5886497D01*
X-1987493Y5886263D01*
X-1987732Y5886059D01*
X-1988806Y5884802D01*
X-1989912Y5883570D01*
X-1990084Y5883305D01*
X-1990288Y5883066D01*
X-1991150Y5881659D01*
X-1992052Y5880268D01*
X-1992180Y5879979D01*
X-1992344Y5879711D01*
X-1992977Y5878182D01*
X-1993648Y5876671D01*
X-1993729Y5876367D01*
X-1993850Y5876076D01*
X-1994236Y5874470D01*
X-1994663Y5872869D01*
X-1994695Y5872554D01*
X-1994768Y5872249D01*
X-1994898Y5870599D01*
X-1995069Y5868955D01*
X-1995052Y5868642D01*
X-1995077Y5868326D01*
Y4912000D01*
X-2045000D01*
Y4692000D01*
X-1755000D01*
Y4806923D01*
X-1730000D01*
X-1726077Y4807231D01*
X-1722251Y4808150D01*
X-1720077Y4809050D01*
X-1715418Y4807223D01*
X-1710077Y4803160D01*
Y4632892D01*
X-1718025Y4628943D01*
X-1720077Y4628669D01*
X-1720274Y4628837D01*
X-1720971Y4629534D01*
X-1726050Y4633872D01*
X-1726849Y4634453D01*
X-1727597Y4635092D01*
X-1733001Y4639017D01*
X-1733840Y4639531D01*
X-1734638Y4640111D01*
X-1740333Y4643601D01*
X-1741212Y4644049D01*
X-1742050Y4644563D01*
X-1748001Y4647595D01*
X-1748912Y4647973D01*
X-1749790Y4648420D01*
X-1755961Y4650976D01*
X-1756898Y4651281D01*
X-1757808Y4651658D01*
X-1764161Y4653722D01*
X-1765118Y4653952D01*
X-1766055Y4654256D01*
X-1772550Y4655815D01*
X-1773524Y4655970D01*
X-1774482Y4656200D01*
X-1781079Y4657244D01*
X-1782063Y4657322D01*
X-1783034Y4657476D01*
X-1789692Y4658000D01*
X-1790676D01*
X-1791660Y4658077D01*
X-1864809Y4658078D01*
X-1865000Y4658085D01*
X-1935000D01*
X-1935194Y4658077D01*
X-1938340D01*
X-1939324Y4658000D01*
X-1940308D01*
X-1943438Y4657753D01*
X-1943637Y4657746D01*
X-1943836Y4657722D01*
X-1946967Y4657476D01*
X-1947937Y4657322D01*
X-1948921Y4657244D01*
X-1952026Y4656753D01*
X-1952221Y4656730D01*
X-1952413Y4656691D01*
X-1955518Y4656200D01*
X-1956477Y4655970D01*
X-1957450Y4655815D01*
X-1960507Y4655082D01*
X-1960699Y4655043D01*
X-1960888Y4654990D01*
X-1963945Y4654256D01*
X-1964881Y4653952D01*
X-1965840Y4653722D01*
X-1968828Y4652751D01*
X-1969018Y4652697D01*
X-1969203Y4652629D01*
X-1972192Y4651658D01*
X-1973102Y4651281D01*
X-1974039Y4650976D01*
X-1976942Y4649774D01*
X-1977128Y4649705D01*
X-1977307Y4649622D01*
X-1980210Y4648420D01*
X-1981087Y4647973D01*
X-1981999Y4647595D01*
X-1984798Y4646169D01*
X-1984977Y4646086D01*
X-1985150Y4645989D01*
X-1987950Y4644563D01*
X-1988789Y4644049D01*
X-1989667Y4643601D01*
X-1992344Y4641961D01*
X-1992519Y4641863D01*
X-1992686Y4641751D01*
X-1995363Y4640111D01*
X-1996161Y4639531D01*
X-1997000Y4639017D01*
X-1999542Y4637171D01*
X-1999706Y4637061D01*
X-1999862Y4636938D01*
X-2002403Y4635092D01*
X-2003151Y4634453D01*
X-2003950Y4633872D01*
X-2006340Y4631831D01*
X-2006494Y4631709D01*
X-2006639Y4631576D01*
X-2009029Y4629534D01*
X-2009726Y4628837D01*
X-2010475Y4628198D01*
X-2012694Y4625979D01*
X-2012842Y4625842D01*
X-2012978Y4625694D01*
X-2015198Y4623475D01*
X-2015837Y4622726D01*
X-2016534Y4622029D01*
X-2018576Y4619639D01*
X-2018709Y4619494D01*
X-2018831Y4619341D01*
X-2020872Y4616950D01*
X-2021452Y4616152D01*
X-2022091Y4615403D01*
X-2023938Y4612862D01*
X-2024060Y4612706D01*
X-2024170Y4612542D01*
X-2026017Y4610000D01*
X-2026531Y4609161D01*
X-2027111Y4608363D01*
X-2028751Y4605686D01*
X-2028863Y4605519D01*
X-2028961Y4605344D01*
X-2030601Y4602667D01*
X-2031049Y4601788D01*
X-2031563Y4600950D01*
X-2032989Y4598152D01*
X-2033086Y4597978D01*
X-2033170Y4597796D01*
X-2034595Y4594999D01*
X-2034973Y4594088D01*
X-2035420Y4593210D01*
X-2036622Y4590308D01*
X-2036705Y4590128D01*
X-2036774Y4589942D01*
X-2037976Y4587039D01*
X-2038280Y4586102D01*
X-2038658Y4585192D01*
X-2039629Y4582203D01*
X-2039697Y4582018D01*
X-2039751Y4581828D01*
X-2040722Y4578840D01*
X-2040951Y4577882D01*
X-2041256Y4576945D01*
X-2041990Y4573887D01*
X-2042043Y4573699D01*
X-2042081Y4573507D01*
X-2042815Y4570450D01*
X-2042969Y4569477D01*
X-2043200Y4568518D01*
X-2043691Y4565414D01*
X-2043729Y4565221D01*
X-2043753Y4565026D01*
X-2044244Y4561921D01*
X-2044322Y4560939D01*
X-2044476Y4559966D01*
X-2044722Y4556834D01*
X-2044745Y4556637D01*
X-2044753Y4556439D01*
X-2045000Y4553307D01*
Y4552321D01*
X-2045077Y4551340D01*
Y4548201D01*
X-2045085Y4548000D01*
X-2045077Y4547800D01*
X-2045077Y3215000D01*
X-2044768Y3211077D01*
X-2043850Y3207251D01*
X-2042344Y3203615D01*
X-2040288Y3200260D01*
X-2037732Y3197268D01*
X-2034740Y3194712D01*
X-2031385Y3192656D01*
X-2027749Y3191150D01*
X-2023923Y3190232D01*
X-2020000Y3189923D01*
X-805000D01*
X-801077Y3190232D01*
X-797251Y3191150D01*
X-793615Y3192656D01*
X-790260Y3194712D01*
X-787268Y3197268D01*
X-784712Y3200260D01*
X-782656Y3203615D01*
X-781150Y3207251D01*
X-780232Y3211077D01*
X-779923Y3215000D01*
Y3495000D01*
X-760000D01*
Y3755000D01*
X-779923D01*
Y4085000D01*
X-765981D01*
X-765000Y4084923D01*
X-675000D01*
X-674019Y4085000D01*
X-650000D01*
Y4109016D01*
X-649922Y4110000D01*
Y4570000D01*
X-650231Y4573923D01*
X-651150Y4577749D01*
X-652656Y4581385D01*
X-654712Y4584740D01*
X-657267Y4587732D01*
X-660000Y4590066D01*
Y4595000D01*
X-674019D01*
X-675000Y4595077D01*
X-765000D01*
X-768923Y4594768D01*
X-769961Y4594519D01*
X-770563Y4594572D01*
X-776689Y4598163D01*
X-779923Y4601702D01*
Y4958210D01*
X-774061Y4958733D01*
X-773217Y4958876D01*
X-772366Y4958943D01*
X-771281Y4959203D01*
X-770181Y4959389D01*
X-769371Y4959662D01*
X-768539Y4959861D01*
X-767508Y4960288D01*
X-766452Y4960644D01*
X-765695Y4961039D01*
X-764904Y4961367D01*
X-763951Y4961951D01*
X-762964Y4962467D01*
X-762279Y4962976D01*
X-761549Y4963423D01*
X-760699Y4964149D01*
X-759805Y4964813D01*
X-759208Y4965422D01*
X-758556Y4965979D01*
X-660267Y5064268D01*
X-657712Y5067260D01*
X-655656Y5070615D01*
X-654150Y5074251D01*
X-653231Y5078077D01*
X-652922Y5082000D01*
Y5861159D01*
X-642923Y5862922D01*
X-642476Y5861695D01*
X-638785Y5853781D01*
X-634419Y5846219D01*
X-629411Y5839066D01*
X-623798Y5832377D01*
X-617623Y5826202D01*
X-610934Y5820589D01*
X-603781Y5815581D01*
X-596219Y5811214D01*
X-588305Y5807524D01*
X-580099Y5804538D01*
X-571664Y5802277D01*
X-563065Y5800761D01*
X-554366Y5800000D01*
X-545634D01*
X-536935Y5800761D01*
X-528335Y5802277D01*
X-519901Y5804538D01*
X-511695Y5807524D01*
X-503781Y5811214D01*
X-496219Y5815581D01*
X-489066Y5820589D01*
X-482377Y5826202D01*
X-476202Y5832377D01*
X-470589Y5839066D01*
X-465581Y5846219D01*
X-461214Y5853781D01*
X-457524Y5861695D01*
X-454538Y5869901D01*
X-452277Y5878335D01*
X-450761Y5886935D01*
X-450000Y5895634D01*
Y5904366D01*
X-450761Y5913065D01*
X-452277Y5921664D01*
X-454538Y5930099D01*
X-457524Y5938305D01*
X-461214Y5946219D01*
X-465581Y5953781D01*
X-470589Y5960934D01*
X-476202Y5967623D01*
X-482377Y5973798D01*
X-489066Y5979411D01*
X-496219Y5984419D01*
X-503781Y5988785D01*
X-511695Y5992476D01*
X-519901Y5995462D01*
X-528335Y5997722D01*
X-536935Y5999239D01*
X-545634Y6000000D01*
X-554366D01*
X-563065Y5999239D01*
X-571664Y5997722D01*
X-580099Y5995462D01*
X-588305Y5992476D01*
X-596219Y5988785D01*
X-603781Y5984419D01*
X-610934Y5979411D01*
X-617623Y5973798D01*
X-623798Y5967623D01*
X-629411Y5960934D01*
X-634419Y5953781D01*
X-638785Y5946219D01*
X-642476Y5938305D01*
X-642923Y5937077D01*
X-652922Y5938841D01*
Y6387038D01*
X-652906Y6387500D01*
Y6503500D01*
X-652922Y6503962D01*
Y6625500D01*
X-653231Y6629423D01*
X-654150Y6633250D01*
X-655656Y6636885D01*
X-657712Y6640240D01*
X-660267Y6643233D01*
X-663260Y6645788D01*
X-666615Y6647844D01*
X-670250Y6649350D01*
X-674077Y6650269D01*
X-678000Y6650578D01*
X-799545D01*
X-800000Y6650594D01*
D02*
G37*
G36*
X-256000D02*
X-266493Y6650219D01*
X-276933Y6649097D01*
X-287267Y6647232D01*
X-297441Y6644635D01*
X-307404Y6641319D01*
X-317105Y6637301D01*
X-326494Y6632601D01*
X-335525Y6627243D01*
X-344150Y6621255D01*
X-352326Y6614666D01*
X-360011Y6607511D01*
X-367166Y6599826D01*
X-373754Y6591650D01*
X-379743Y6583025D01*
X-385101Y6573994D01*
X-389801Y6564605D01*
X-393819Y6554904D01*
X-397135Y6544941D01*
X-399732Y6534767D01*
X-401596Y6524434D01*
X-402719Y6513994D01*
X-403093Y6503500D01*
Y6387500D01*
X-402719Y6377007D01*
X-401596Y6366567D01*
X-399732Y6356233D01*
X-397135Y6346059D01*
X-393819Y6336096D01*
X-389801Y6326395D01*
X-385101Y6317006D01*
X-379743Y6307975D01*
X-373754Y6299350D01*
X-367166Y6291174D01*
X-360011Y6283489D01*
X-352326Y6276334D01*
X-344150Y6269746D01*
X-335525Y6263757D01*
X-326494Y6258399D01*
X-317105Y6253699D01*
X-307404Y6249681D01*
X-297441Y6246365D01*
X-287267Y6243768D01*
X-276933Y6241904D01*
X-266493Y6240782D01*
X-256000Y6240407D01*
X-245506Y6240782D01*
X-235066Y6241904D01*
X-224733Y6243768D01*
X-214559Y6246365D01*
X-204596Y6249681D01*
X-194895Y6253699D01*
X-185505Y6258399D01*
X-176475Y6263757D01*
X-167850Y6269746D01*
X-159674Y6276334D01*
X-151989Y6283489D01*
X-144834Y6291174D01*
X-138245Y6299350D01*
X-132257Y6307975D01*
X-126899Y6317006D01*
X-122199Y6326395D01*
X-118180Y6336096D01*
X-114864Y6346059D01*
X-112267Y6356233D01*
X-110403Y6366567D01*
X-109281Y6377007D01*
X-108906Y6387500D01*
Y6503500D01*
X-109281Y6513994D01*
X-110403Y6524434D01*
X-112267Y6534767D01*
X-114864Y6544941D01*
X-118180Y6554904D01*
X-122199Y6564605D01*
X-126899Y6573994D01*
X-132257Y6583025D01*
X-138245Y6591650D01*
X-144834Y6599826D01*
X-151989Y6607511D01*
X-159674Y6614666D01*
X-167850Y6621255D01*
X-176475Y6627243D01*
X-185505Y6632601D01*
X-194895Y6637301D01*
X-204596Y6641319D01*
X-214559Y6644635D01*
X-224733Y6647232D01*
X-235066Y6649097D01*
X-245506Y6650219D01*
X-256000Y6650594D01*
D02*
G37*
G36*
X1465500Y6382593D02*
X1415500D01*
X1410792Y6382222D01*
X1406201Y6381120D01*
X1401838Y6379313D01*
X1397812Y6376845D01*
X1394221Y6373778D01*
X1391155Y6370188D01*
X1388687Y6366162D01*
X1386880Y6361799D01*
X1385778Y6357208D01*
X1385407Y6352500D01*
Y6207500D01*
X1385778Y6202792D01*
X1386880Y6198201D01*
X1388687Y6193838D01*
X1391155Y6189812D01*
X1394221Y6186221D01*
X1397812Y6183155D01*
X1401838Y6180687D01*
X1404427Y6179615D01*
X1405359Y6169963D01*
X1357965Y6122568D01*
X1357516Y6122630D01*
X1349525Y6126711D01*
X1348575Y6128500D01*
Y6179202D01*
X1352162Y6180687D01*
X1356188Y6183155D01*
X1359779Y6186221D01*
X1362845Y6189812D01*
X1365313Y6193838D01*
X1367120Y6198201D01*
X1368222Y6202792D01*
X1368593Y6207500D01*
Y6352500D01*
X1368222Y6357208D01*
X1367120Y6361799D01*
X1365313Y6366162D01*
X1362845Y6370188D01*
X1359779Y6373778D01*
X1356188Y6376845D01*
X1352162Y6379313D01*
X1347799Y6381120D01*
X1343208Y6382222D01*
X1338500Y6382593D01*
X1288500D01*
X1283792Y6382222D01*
X1279201Y6381120D01*
X1274838Y6379313D01*
X1270812Y6376845D01*
X1267221Y6373778D01*
X1264155Y6370188D01*
X1261687Y6366162D01*
X1259880Y6361799D01*
X1258778Y6357208D01*
X1258407Y6352500D01*
Y6207500D01*
X1258778Y6202792D01*
X1259880Y6198201D01*
X1261687Y6193838D01*
X1264155Y6189812D01*
X1267221Y6186221D01*
X1270812Y6183155D01*
X1274838Y6180687D01*
X1278425Y6179202D01*
Y6143028D01*
X1255163Y6119766D01*
X1253089Y6120000D01*
X1246911D01*
X1244837Y6119766D01*
X1221575Y6143028D01*
Y6179202D01*
X1225162Y6180687D01*
X1229188Y6183155D01*
X1232779Y6186221D01*
X1235845Y6189812D01*
X1238313Y6193838D01*
X1240120Y6198201D01*
X1241222Y6202792D01*
X1241593Y6207500D01*
Y6352500D01*
X1241222Y6357208D01*
X1240120Y6361799D01*
X1238313Y6366162D01*
X1235845Y6370188D01*
X1232779Y6373778D01*
X1229188Y6376845D01*
X1225162Y6379313D01*
X1220799Y6381120D01*
X1216208Y6382222D01*
X1211500Y6382593D01*
X1161500D01*
X1156792Y6382222D01*
X1152201Y6381120D01*
X1147838Y6379313D01*
X1143812Y6376845D01*
X1140221Y6373778D01*
X1137155Y6370188D01*
X1134687Y6366162D01*
X1132880Y6361799D01*
X1131778Y6357208D01*
X1131407Y6352500D01*
Y6207500D01*
X1131778Y6202792D01*
X1132880Y6198201D01*
X1134687Y6193838D01*
X1137155Y6189812D01*
X1140221Y6186221D01*
X1143812Y6183155D01*
X1147838Y6180687D01*
X1151425Y6179202D01*
Y6128500D01*
X1150475Y6126711D01*
X1142484Y6122630D01*
X1142036Y6122568D01*
X1094641Y6169963D01*
X1095573Y6179615D01*
X1098162Y6180687D01*
X1102188Y6183155D01*
X1105779Y6186221D01*
X1108845Y6189812D01*
X1111313Y6193838D01*
X1113120Y6198201D01*
X1114222Y6202792D01*
X1114593Y6207500D01*
Y6352500D01*
X1114222Y6357208D01*
X1113120Y6361799D01*
X1111313Y6366162D01*
X1108845Y6370188D01*
X1105779Y6373778D01*
X1102188Y6376845D01*
X1098162Y6379313D01*
X1093799Y6381120D01*
X1089208Y6382222D01*
X1084500Y6382593D01*
X1034500D01*
X1029792Y6382222D01*
X1025201Y6381120D01*
X1020838Y6379313D01*
X1016812Y6376845D01*
X1013221Y6373778D01*
X1010155Y6370188D01*
X1007687Y6366162D01*
X1005880Y6361799D01*
X1004778Y6357208D01*
X1004407Y6352500D01*
Y6207500D01*
X1004778Y6202792D01*
X1005880Y6198201D01*
X1007687Y6193838D01*
X1010155Y6189812D01*
X1013221Y6186221D01*
X1016812Y6183155D01*
X1020838Y6180687D01*
X1024425Y6179202D01*
Y6155500D01*
X1024725Y6150922D01*
X1025620Y6146422D01*
X1027095Y6142077D01*
X1029124Y6137962D01*
X1031673Y6134147D01*
X1034698Y6130698D01*
X1095234Y6070162D01*
X1095000Y6068088D01*
Y6061911D01*
X1095692Y6055772D01*
X1097066Y6049750D01*
X1099107Y6043919D01*
X1101787Y6038353D01*
X1105073Y6033123D01*
X1108925Y6028293D01*
X1113293Y6023925D01*
X1118123Y6020073D01*
X1123354Y6016787D01*
X1128919Y6014107D01*
X1134750Y6012066D01*
X1140773Y6010692D01*
X1146911Y6010000D01*
X1153089D01*
X1159227Y6010692D01*
X1165250Y6012066D01*
X1171081Y6014107D01*
X1176646Y6016787D01*
X1181877Y6020073D01*
X1186707Y6023925D01*
X1191075Y6028293D01*
X1193996Y6031956D01*
X1200000Y6032936D01*
X1206004Y6031956D01*
X1208925Y6028293D01*
X1213293Y6023925D01*
X1218123Y6020073D01*
X1223354Y6016787D01*
X1228919Y6014107D01*
X1234750Y6012066D01*
X1240773Y6010692D01*
X1246911Y6010000D01*
X1253089D01*
X1259227Y6010692D01*
X1265250Y6012066D01*
X1271081Y6014107D01*
X1276646Y6016787D01*
X1281877Y6020073D01*
X1286707Y6023925D01*
X1291075Y6028293D01*
X1293996Y6031956D01*
X1300000Y6032936D01*
X1306004Y6031956D01*
X1308925Y6028293D01*
X1313293Y6023925D01*
X1318123Y6020073D01*
X1323354Y6016787D01*
X1328919Y6014107D01*
X1334750Y6012066D01*
X1340773Y6010692D01*
X1346911Y6010000D01*
X1353089D01*
X1359227Y6010692D01*
X1365250Y6012066D01*
X1371081Y6014107D01*
X1376646Y6016787D01*
X1381877Y6020073D01*
X1386707Y6023925D01*
X1391075Y6028293D01*
X1394927Y6033123D01*
X1398213Y6038353D01*
X1400893Y6043919D01*
X1402934Y6049750D01*
X1404308Y6055772D01*
X1405000Y6061911D01*
Y6068088D01*
X1404766Y6070162D01*
X1465302Y6130698D01*
X1468327Y6134147D01*
X1470876Y6137962D01*
X1472905Y6142077D01*
X1474380Y6146422D01*
X1475275Y6150922D01*
X1475575Y6155500D01*
Y6179202D01*
X1479162Y6180687D01*
X1483188Y6183155D01*
X1486779Y6186221D01*
X1489845Y6189812D01*
X1492313Y6193838D01*
X1494120Y6198201D01*
X1495222Y6202792D01*
X1495593Y6207500D01*
Y6352500D01*
X1495222Y6357208D01*
X1494120Y6361799D01*
X1492313Y6366162D01*
X1489845Y6370188D01*
X1486779Y6373778D01*
X1483188Y6376845D01*
X1479162Y6379313D01*
X1474799Y6381120D01*
X1470208Y6382222D01*
X1465500Y6382593D01*
D02*
G37*
G36*
X865500D02*
X815500D01*
X810792Y6382222D01*
X806201Y6381120D01*
X801838Y6379313D01*
X797812Y6376845D01*
X794221Y6373778D01*
X791155Y6370188D01*
X788687Y6366162D01*
X786880Y6361799D01*
X785778Y6357208D01*
X785407Y6352500D01*
Y6207500D01*
X785778Y6202792D01*
X786880Y6198201D01*
X788687Y6193838D01*
X791155Y6189812D01*
X794221Y6186221D01*
X797812Y6183155D01*
X801838Y6180687D01*
X805425Y6179202D01*
Y6129800D01*
X803979Y6123736D01*
X796911Y6120000D01*
X794838Y6119766D01*
X748575Y6166029D01*
Y6179202D01*
X752162Y6180687D01*
X756188Y6183155D01*
X759779Y6186221D01*
X762845Y6189812D01*
X765313Y6193838D01*
X767120Y6198201D01*
X768222Y6202792D01*
X768593Y6207500D01*
Y6352500D01*
X768222Y6357208D01*
X767120Y6361799D01*
X765313Y6366162D01*
X762845Y6370188D01*
X759779Y6373778D01*
X756188Y6376845D01*
X752162Y6379313D01*
X747799Y6381120D01*
X743208Y6382222D01*
X738500Y6382593D01*
X688500D01*
X683792Y6382222D01*
X679201Y6381120D01*
X674838Y6379313D01*
X670812Y6376845D01*
X667221Y6373778D01*
X664155Y6370188D01*
X661687Y6366162D01*
X659880Y6361799D01*
X658778Y6357208D01*
X658407Y6352500D01*
Y6315075D01*
X641593D01*
Y6352500D01*
X641222Y6357208D01*
X640120Y6361799D01*
X638313Y6366162D01*
X635845Y6370188D01*
X632779Y6373778D01*
X629188Y6376845D01*
X625162Y6379313D01*
X620799Y6381120D01*
X616208Y6382222D01*
X611500Y6382593D01*
X561500D01*
X556792Y6382222D01*
X552201Y6381120D01*
X547838Y6379313D01*
X543812Y6376845D01*
X540221Y6373778D01*
X537155Y6370188D01*
X534687Y6366162D01*
X532880Y6361799D01*
X531778Y6357208D01*
X531407Y6352500D01*
Y6207500D01*
X531778Y6202792D01*
X532880Y6198201D01*
X534687Y6193838D01*
X537155Y6189812D01*
X540221Y6186221D01*
X543812Y6183155D01*
X547838Y6180687D01*
X552201Y6178880D01*
X556792Y6177778D01*
X561500Y6177407D01*
X611500D01*
X616208Y6177778D01*
X620799Y6178880D01*
X625162Y6180687D01*
X629188Y6183155D01*
X632779Y6186221D01*
X635845Y6189812D01*
X638313Y6193838D01*
X640120Y6198201D01*
X641222Y6202792D01*
X641593Y6207500D01*
Y6244925D01*
X658407D01*
Y6207500D01*
X658778Y6202792D01*
X659880Y6198201D01*
X661687Y6193838D01*
X664155Y6189812D01*
X667221Y6186221D01*
X670812Y6183155D01*
X674838Y6180687D01*
X678425Y6179202D01*
Y6151500D01*
X678507Y6150238D01*
X671578Y6145911D01*
X671144Y6145802D01*
X669020Y6145488D01*
X666352Y6147827D01*
X662537Y6150376D01*
X658423Y6152405D01*
X654078Y6153880D01*
X649578Y6154775D01*
X645000Y6155075D01*
X514529D01*
X499278Y6170325D01*
X498888Y6173947D01*
X500942Y6182391D01*
X502188Y6183155D01*
X505779Y6186221D01*
X508845Y6189812D01*
X511313Y6193838D01*
X513120Y6198201D01*
X514222Y6202792D01*
X514593Y6207500D01*
Y6352500D01*
X514222Y6357208D01*
X513120Y6361799D01*
X511313Y6366162D01*
X508845Y6370188D01*
X505779Y6373778D01*
X502188Y6376845D01*
X498162Y6379313D01*
X493799Y6381120D01*
X489208Y6382222D01*
X484500Y6382593D01*
X434500D01*
X429792Y6382222D01*
X425201Y6381120D01*
X420838Y6379313D01*
X416812Y6376845D01*
X413221Y6373778D01*
X410155Y6370188D01*
X407687Y6366162D01*
X405880Y6361799D01*
X404778Y6357208D01*
X404407Y6352500D01*
Y6207500D01*
X404778Y6202792D01*
X405880Y6198201D01*
X407687Y6193838D01*
X410155Y6189812D01*
X413221Y6186221D01*
X416812Y6183155D01*
X420838Y6180687D01*
X424425Y6179202D01*
Y6160500D01*
X424725Y6155922D01*
X425620Y6151422D01*
X427095Y6147077D01*
X429124Y6142963D01*
X431673Y6139147D01*
X434698Y6135698D01*
X475198Y6095198D01*
X478648Y6092173D01*
X482463Y6089624D01*
X486577Y6087595D01*
X490922Y6086120D01*
X495422Y6085225D01*
X500000Y6084925D01*
X630471D01*
X645234Y6070162D01*
X645000Y6068088D01*
Y6061911D01*
X645692Y6055772D01*
X647067Y6049750D01*
X649107Y6043919D01*
X651787Y6038353D01*
X655074Y6033123D01*
X658925Y6028293D01*
X663293Y6023925D01*
X668123Y6020073D01*
X673354Y6016787D01*
X678919Y6014107D01*
X684750Y6012066D01*
X690773Y6010692D01*
X696911Y6010000D01*
X703089D01*
X709227Y6010692D01*
X715250Y6012066D01*
X721081Y6014107D01*
X726647Y6016787D01*
X731877Y6020073D01*
X736707Y6023925D01*
X741075Y6028293D01*
X743996Y6031956D01*
X750000Y6032936D01*
X756004Y6031956D01*
X758925Y6028293D01*
X763293Y6023925D01*
X768123Y6020073D01*
X773354Y6016787D01*
X778919Y6014107D01*
X784750Y6012066D01*
X790773Y6010692D01*
X796912Y6010000D01*
X803089D01*
X809227Y6010692D01*
X815250Y6012066D01*
X821081Y6014107D01*
X826647Y6016787D01*
X831877Y6020073D01*
X836707Y6023925D01*
X841075Y6028293D01*
X843997Y6031956D01*
X850000Y6032936D01*
X856004Y6031956D01*
X858925Y6028293D01*
X863293Y6023925D01*
X868123Y6020073D01*
X873354Y6016787D01*
X878920Y6014107D01*
X884750Y6012066D01*
X890773Y6010692D01*
X896912Y6010000D01*
X903089D01*
X909228Y6010692D01*
X915250Y6012066D01*
X921081Y6014107D01*
X926647Y6016787D01*
X931877Y6020073D01*
X936707Y6023925D01*
X941075Y6028293D01*
X944927Y6033123D01*
X948213Y6038353D01*
X950893Y6043919D01*
X952934Y6049750D01*
X954308Y6055772D01*
X955000Y6061911D01*
Y6068088D01*
X954308Y6074227D01*
X952934Y6080250D01*
X950893Y6086081D01*
X948213Y6091646D01*
X944927Y6096877D01*
X941075Y6101707D01*
X936707Y6106075D01*
X931877Y6109926D01*
X926647Y6113213D01*
X921081Y6115893D01*
X915250Y6117933D01*
X909228Y6119308D01*
X903089Y6120000D01*
X896912D01*
X894838Y6119766D01*
X875575Y6139029D01*
Y6179202D01*
X879162Y6180687D01*
X883188Y6183155D01*
X886779Y6186221D01*
X889845Y6189812D01*
X892313Y6193838D01*
X894120Y6198201D01*
X895222Y6202792D01*
X895593Y6207500D01*
Y6352500D01*
X895222Y6357208D01*
X894120Y6361799D01*
X892313Y6366162D01*
X889845Y6370188D01*
X886779Y6373778D01*
X883188Y6376845D01*
X879162Y6379313D01*
X874799Y6381120D01*
X870208Y6382222D01*
X865500Y6382593D01*
D02*
G37*
G36*
X2065500D02*
X2015500D01*
X2010793Y6382222D01*
X2006201Y6381120D01*
X2001838Y6379313D01*
X1997812Y6376845D01*
X1994222Y6373778D01*
X1991155Y6370188D01*
X1988687Y6366162D01*
X1986880Y6361799D01*
X1985778Y6357208D01*
X1985408Y6352500D01*
Y6207500D01*
X1985778Y6202792D01*
X1986880Y6198201D01*
X1988687Y6193838D01*
X1991155Y6189812D01*
X1994222Y6186221D01*
X1997812Y6183155D01*
X2001838Y6180687D01*
X2005425Y6179202D01*
Y6105078D01*
X1995938Y6097727D01*
X1993996Y6098043D01*
X1991075Y6101707D01*
X1986707Y6106075D01*
X1981877Y6109926D01*
X1976646Y6113213D01*
X1971081Y6115893D01*
X1965250Y6117933D01*
X1959227Y6119308D01*
X1953089Y6120000D01*
X1948575D01*
Y6179202D01*
X1952162Y6180687D01*
X1956188Y6183155D01*
X1959779Y6186221D01*
X1962845Y6189812D01*
X1965313Y6193838D01*
X1967120Y6198201D01*
X1968222Y6202792D01*
X1968593Y6207500D01*
Y6352500D01*
X1968222Y6357208D01*
X1967120Y6361799D01*
X1965313Y6366162D01*
X1962845Y6370188D01*
X1959779Y6373778D01*
X1956188Y6376845D01*
X1952162Y6379313D01*
X1947799Y6381120D01*
X1943208Y6382222D01*
X1938500Y6382593D01*
X1888500D01*
X1883793Y6382222D01*
X1879201Y6381120D01*
X1874838Y6379313D01*
X1870812Y6376845D01*
X1867222Y6373778D01*
X1864155Y6370188D01*
X1861687Y6366162D01*
X1859880Y6361799D01*
X1858778Y6357208D01*
X1858408Y6352500D01*
Y6315075D01*
X1841593D01*
Y6352500D01*
X1841222Y6357208D01*
X1840120Y6361799D01*
X1838313Y6366162D01*
X1835845Y6370188D01*
X1832779Y6373778D01*
X1829188Y6376845D01*
X1825162Y6379313D01*
X1820799Y6381120D01*
X1816208Y6382222D01*
X1811500Y6382593D01*
X1761500D01*
X1756793Y6382222D01*
X1752201Y6381120D01*
X1747838Y6379313D01*
X1743812Y6376845D01*
X1740222Y6373778D01*
X1737155Y6370188D01*
X1734687Y6366162D01*
X1732880Y6361799D01*
X1731778Y6357208D01*
X1731408Y6352500D01*
Y6207500D01*
X1731778Y6202792D01*
X1732880Y6198201D01*
X1734687Y6193838D01*
X1737155Y6189812D01*
X1740222Y6186221D01*
X1743812Y6183155D01*
X1747838Y6180687D01*
X1752201Y6178880D01*
X1756793Y6177778D01*
X1761500Y6177407D01*
X1811500D01*
X1816208Y6177778D01*
X1820799Y6178880D01*
X1825162Y6180687D01*
X1829188Y6183155D01*
X1832779Y6186221D01*
X1835845Y6189812D01*
X1838313Y6193838D01*
X1840120Y6198201D01*
X1841222Y6202792D01*
X1841593Y6207500D01*
Y6244925D01*
X1858408D01*
Y6207500D01*
X1858778Y6202792D01*
X1859880Y6198201D01*
X1861687Y6193838D01*
X1864155Y6189812D01*
X1867222Y6186221D01*
X1870812Y6183155D01*
X1874838Y6180687D01*
X1878425Y6179202D01*
Y6123456D01*
X1875211Y6120146D01*
X1868425Y6116822D01*
X1865250Y6117933D01*
X1859227Y6119308D01*
X1853089Y6120000D01*
X1846911D01*
X1844838Y6119766D01*
X1819802Y6144802D01*
X1816352Y6147827D01*
X1812537Y6150376D01*
X1808423Y6152405D01*
X1804078Y6153880D01*
X1799578Y6154775D01*
X1795000Y6155075D01*
X1714529D01*
X1699278Y6170325D01*
X1698888Y6173947D01*
X1700942Y6182391D01*
X1702188Y6183155D01*
X1705779Y6186221D01*
X1708845Y6189812D01*
X1711313Y6193838D01*
X1713120Y6198201D01*
X1714222Y6202792D01*
X1714593Y6207500D01*
Y6352500D01*
X1714222Y6357208D01*
X1713120Y6361799D01*
X1711313Y6366162D01*
X1708845Y6370188D01*
X1705779Y6373778D01*
X1702188Y6376845D01*
X1698162Y6379313D01*
X1693799Y6381120D01*
X1689208Y6382222D01*
X1684500Y6382593D01*
X1634500D01*
X1629793Y6382222D01*
X1625201Y6381120D01*
X1620838Y6379313D01*
X1616812Y6376845D01*
X1613222Y6373778D01*
X1610155Y6370188D01*
X1607687Y6366162D01*
X1605880Y6361799D01*
X1604778Y6357208D01*
X1604408Y6352500D01*
Y6207500D01*
X1604778Y6202792D01*
X1605880Y6198201D01*
X1607687Y6193838D01*
X1610155Y6189812D01*
X1613222Y6186221D01*
X1616812Y6183155D01*
X1620838Y6180687D01*
X1624425Y6179202D01*
Y6160500D01*
X1624725Y6155922D01*
X1625620Y6151422D01*
X1627095Y6147077D01*
X1629124Y6142963D01*
X1631673Y6139147D01*
X1634698Y6135698D01*
X1675198Y6095198D01*
X1678648Y6092173D01*
X1682463Y6089624D01*
X1686578Y6087595D01*
X1690922Y6086120D01*
X1695422Y6085225D01*
X1700000Y6084925D01*
X1780471D01*
X1795234Y6070162D01*
X1795000Y6068088D01*
Y6061911D01*
X1795692Y6055772D01*
X1797067Y6049750D01*
X1799107Y6043919D01*
X1801787Y6038353D01*
X1805074Y6033123D01*
X1808925Y6028293D01*
X1813293Y6023925D01*
X1818123Y6020073D01*
X1823354Y6016787D01*
X1828919Y6014107D01*
X1834750Y6012066D01*
X1840773Y6010692D01*
X1846911Y6010000D01*
X1853089D01*
X1859227Y6010692D01*
X1865250Y6012066D01*
X1871081Y6014107D01*
X1876646Y6016787D01*
X1881877Y6020073D01*
X1886707Y6023925D01*
X1891075Y6028293D01*
X1893996Y6031956D01*
X1900000Y6032935D01*
X1906004Y6031956D01*
X1908925Y6028293D01*
X1913293Y6023925D01*
X1918123Y6020073D01*
X1923354Y6016787D01*
X1928919Y6014107D01*
X1934750Y6012066D01*
X1940773Y6010692D01*
X1946911Y6010000D01*
X1953089D01*
X1959227Y6010692D01*
X1965250Y6012066D01*
X1971081Y6014107D01*
X1976646Y6016787D01*
X1981877Y6020073D01*
X1986707Y6023925D01*
X1991075Y6028293D01*
X1993996Y6031956D01*
X2000000Y6032936D01*
X2006004Y6031956D01*
X2008925Y6028293D01*
X2013293Y6023925D01*
X2018123Y6020073D01*
X2023354Y6016787D01*
X2028919Y6014107D01*
X2034750Y6012066D01*
X2040773Y6010692D01*
X2046911Y6010000D01*
X2053089D01*
X2059227Y6010692D01*
X2065250Y6012066D01*
X2071081Y6014107D01*
X2076646Y6016787D01*
X2081877Y6020073D01*
X2086707Y6023925D01*
X2091075Y6028293D01*
X2094926Y6033123D01*
X2098213Y6038353D01*
X2100893Y6043919D01*
X2102934Y6049750D01*
X2104308Y6055772D01*
X2105000Y6061911D01*
Y6068088D01*
X2104308Y6074227D01*
X2102934Y6080250D01*
X2100893Y6086081D01*
X2098213Y6091646D01*
X2094926Y6096877D01*
X2091075Y6101707D01*
X2086707Y6106075D01*
X2081877Y6109926D01*
X2076646Y6113213D01*
X2075575Y6113729D01*
Y6179202D01*
X2079162Y6180687D01*
X2083188Y6183155D01*
X2086779Y6186221D01*
X2089845Y6189812D01*
X2092313Y6193838D01*
X2094120Y6198201D01*
X2095222Y6202792D01*
X2095593Y6207500D01*
Y6352500D01*
X2095222Y6357208D01*
X2094120Y6361799D01*
X2092313Y6366162D01*
X2089845Y6370188D01*
X2086779Y6373778D01*
X2083188Y6376845D01*
X2079162Y6379313D01*
X2074799Y6381120D01*
X2070208Y6382222D01*
X2065500Y6382593D01*
D02*
G37*
G36*
X-347100Y4240400D02*
X-447300D01*
Y4205200D01*
X-347100D01*
Y4240400D01*
D02*
G37*
G36*
X-472700D02*
X-572900D01*
Y4205200D01*
X-472700D01*
Y4240400D01*
D02*
G37*
G36*
X-925000Y2815077D02*
X-1084911D01*
X-1085729Y2815013D01*
X-1086551Y2815024D01*
X-1096351Y2814381D01*
X-1097165Y2814263D01*
X-1097984Y2814220D01*
X-1107721Y2812938D01*
X-1108523Y2812768D01*
X-1109340Y2812671D01*
X-1118972Y2810755D01*
X-1119762Y2810532D01*
X-1120571Y2810382D01*
X-1130057Y2807840D01*
X-1130830Y2807566D01*
X-1131626Y2807364D01*
X-1140927Y2804207D01*
X-1141682Y2803883D01*
X-1142463Y2803629D01*
X-1151536Y2799871D01*
X-1152267Y2799498D01*
X-1153031Y2799194D01*
X-1161839Y2794850D01*
X-1162544Y2794430D01*
X-1163286Y2794076D01*
X-1171791Y2789166D01*
X-1172468Y2788701D01*
X-1173185Y2788299D01*
X-1181351Y2782843D01*
X-1181994Y2782336D01*
X-1182685Y2781887D01*
X-1190476Y2775909D01*
X-1191088Y2775358D01*
X-1191745Y2774867D01*
X-1199129Y2768392D01*
X-1199701Y2767804D01*
X-1200326Y2767270D01*
X-1207271Y2760326D01*
X-1207804Y2759701D01*
X-1208392Y2759128D01*
X-1214868Y2751745D01*
X-1215359Y2751087D01*
X-1215909Y2750476D01*
X-1221888Y2742685D01*
X-1222335Y2741996D01*
X-1222844Y2741350D01*
X-1228300Y2733185D01*
X-1228700Y2732469D01*
X-1229166Y2731791D01*
X-1234077Y2723286D01*
X-1234430Y2722545D01*
X-1234850Y2721839D01*
X-1239194Y2713031D01*
X-1239498Y2712267D01*
X-1239871Y2711536D01*
X-1243629Y2702463D01*
X-1243883Y2701682D01*
X-1244208Y2700926D01*
X-1247365Y2691626D01*
X-1247567Y2690830D01*
X-1247841Y2690057D01*
X-1250383Y2680570D01*
X-1250532Y2679763D01*
X-1250755Y2678972D01*
X-1252671Y2669340D01*
X-1252768Y2668523D01*
X-1252939Y2667721D01*
X-1254221Y2657984D01*
X-1254263Y2657165D01*
X-1254382Y2656350D01*
X-1255024Y2646550D01*
X-1255013Y2645729D01*
X-1255077Y2644910D01*
Y2315000D01*
X-1255000Y2314019D01*
Y2290000D01*
X-1230981D01*
X-1230000Y2289923D01*
X-925000D01*
X-921077Y2290232D01*
X-917251Y2291150D01*
X-913615Y2292656D01*
X-910260Y2294712D01*
X-907268Y2297268D01*
X-904712Y2300260D01*
X-902656Y2303615D01*
X-901150Y2307251D01*
X-900232Y2311077D01*
X-899923Y2315000D01*
Y2790000D01*
X-900000Y2790981D01*
Y2815000D01*
X-924019D01*
X-925000Y2815077D01*
D02*
G37*
%LPD*%
G36*
X305000Y6840000D02*
Y6835000D01*
X489500D01*
Y6710000D01*
X930000D01*
Y6835000D01*
X1089500D01*
Y6710000D01*
X1530000D01*
Y6835000D01*
X1689500D01*
Y6550000D01*
X322936D01*
X321081Y6550893D01*
X315250Y6552934D01*
X309227Y6554308D01*
X303089Y6555000D01*
X296912D01*
X290773Y6554308D01*
X284750Y6552934D01*
X278919Y6550893D01*
X277064Y6550000D01*
X222936D01*
X221081Y6550893D01*
X215250Y6552934D01*
X209227Y6554308D01*
X203089Y6555000D01*
X196911D01*
X190773Y6554308D01*
X184750Y6552934D01*
X178919Y6550893D01*
X177064Y6550000D01*
X122936D01*
X121081Y6550893D01*
X115250Y6552934D01*
X109227Y6554308D01*
X103089Y6555000D01*
X96911D01*
X90773Y6554308D01*
X84750Y6552934D01*
X78919Y6550893D01*
X77064Y6550000D01*
X0D01*
Y6900000D01*
X305000D01*
Y6840000D01*
D02*
G37*
G36*
X-1690000Y6245000D02*
X-1555000D01*
Y5872645D01*
X-1555845Y5867853D01*
X-1556605Y5859154D01*
X-1556606Y5850422D01*
X-1555845Y5841723D01*
X-1555000Y5836930D01*
Y5745000D01*
X-1730000Y5570000D01*
Y5554460D01*
X-1738740Y5545507D01*
X-1740000Y5545211D01*
X-1747760Y5545212D01*
X-1756459Y5544451D01*
X-1765059Y5542934D01*
X-1773494Y5540674D01*
X-1781699Y5537687D01*
X-1789613Y5533997D01*
X-1797175Y5529631D01*
X-1804328Y5524623D01*
X-1811018Y5519010D01*
X-1817192Y5512835D01*
X-1822805Y5506146D01*
X-1827813Y5498993D01*
X-1832180Y5491431D01*
X-1835870Y5483517D01*
X-1838857Y5475311D01*
X-1841117Y5466877D01*
X-1842633Y5458277D01*
X-1843394Y5449578D01*
X-1843394Y5440846D01*
X-1842633Y5432147D01*
X-1841117Y5423547D01*
X-1838857Y5415113D01*
X-1835870Y5406907D01*
X-1832180Y5398993D01*
X-1827814Y5391431D01*
X-1822805Y5384278D01*
X-1817192Y5377588D01*
X-1811017Y5371414D01*
X-1804328Y5365801D01*
X-1797175Y5360793D01*
X-1789613Y5356426D01*
X-1781699Y5352736D01*
X-1773493Y5349750D01*
X-1765059Y5347489D01*
X-1756459Y5345973D01*
X-1747760Y5345212D01*
X-1739029Y5345212D01*
X-1730000Y5335963D01*
Y4832000D01*
X-1970000D01*
Y5868326D01*
X-1960000Y5875216D01*
X-1958089Y5875000D01*
X-1951911D01*
X-1945773Y5875692D01*
X-1939750Y5877066D01*
X-1933919Y5879107D01*
X-1928354Y5881787D01*
X-1923123Y5885074D01*
X-1918293Y5888925D01*
X-1913925Y5893293D01*
X-1913800Y5893449D01*
X-1912741Y5894008D01*
X-1902259D01*
X-1901200Y5893449D01*
X-1901075Y5893293D01*
X-1896707Y5888925D01*
X-1891877Y5885074D01*
X-1886646Y5881787D01*
X-1881081Y5879107D01*
X-1875250Y5877066D01*
X-1869227Y5875692D01*
X-1863089Y5875000D01*
X-1856911D01*
X-1850773Y5875692D01*
X-1844750Y5877066D01*
X-1838919Y5879107D01*
X-1833354Y5881787D01*
X-1828123Y5885074D01*
X-1823293Y5888925D01*
X-1818925Y5893293D01*
X-1815074Y5898123D01*
X-1811787Y5903354D01*
X-1809107Y5908919D01*
X-1807066Y5914750D01*
X-1805692Y5920773D01*
X-1805000Y5926911D01*
Y5933089D01*
X-1805692Y5939227D01*
X-1807066Y5945250D01*
X-1809107Y5951081D01*
X-1811787Y5956646D01*
X-1815074Y5961877D01*
X-1818925Y5966707D01*
X-1823293Y5971075D01*
X-1828123Y5974927D01*
X-1833354Y5978213D01*
X-1838919Y5980893D01*
X-1844750Y5982934D01*
X-1850773Y5984308D01*
X-1856911Y5985000D01*
X-1863089D01*
X-1869227Y5984308D01*
X-1875250Y5982934D01*
X-1881081Y5980893D01*
X-1886646Y5978213D01*
X-1891877Y5974927D01*
X-1896707Y5971075D01*
X-1901075Y5966707D01*
X-1901200Y5966551D01*
X-1902259Y5965993D01*
X-1912741D01*
X-1913800Y5966551D01*
X-1913925Y5966707D01*
X-1918293Y5971075D01*
X-1923123Y5974927D01*
X-1928354Y5978213D01*
X-1933919Y5980893D01*
X-1939750Y5982934D01*
X-1945773Y5984308D01*
X-1951911Y5985000D01*
X-1958089D01*
X-1960000Y5984785D01*
X-1970000Y5991674D01*
Y6010000D01*
X-1870000Y6110000D01*
Y6445000D01*
X-1690000D01*
Y6245000D01*
D02*
G37*
G36*
X-678000Y5082000D02*
X-776289Y4983711D01*
X-787268Y4982732D01*
X-790260Y4985288D01*
X-793615Y4987344D01*
X-797251Y4988850D01*
X-801077Y4989768D01*
X-805000Y4990077D01*
X-1160000D01*
X-1160980Y4990000D01*
X-1184999D01*
Y4965984D01*
X-1185077Y4965000D01*
Y4654689D01*
X-1184768Y4650766D01*
X-1183850Y4646940D01*
X-1182344Y4643304D01*
X-1180288Y4639949D01*
X-1177732Y4636957D01*
X-1140076Y4599301D01*
Y4577500D01*
X-1160000D01*
Y4564457D01*
X-1161657Y4563099D01*
X-1167429Y4560969D01*
X-1172500Y4564475D01*
Y4590000D01*
X-1287500D01*
Y4460000D01*
Y4350000D01*
X-1257929D01*
X-1250000Y4345000D01*
Y4085000D01*
X-1140077D01*
X-1140077Y3550077D01*
X-1684923D01*
X-1684923Y4548000D01*
X-1684923Y4548004D01*
Y4551340D01*
X-1685000Y4552318D01*
Y5107886D01*
X-1197000Y5595886D01*
Y5785076D01*
X-1187000Y5789218D01*
X-1186707Y5788925D01*
X-1181877Y5785074D01*
X-1176646Y5781787D01*
X-1171081Y5779107D01*
X-1165250Y5777066D01*
X-1159227Y5775692D01*
X-1153089Y5775000D01*
X-1146911D01*
X-1140773Y5775692D01*
X-1134750Y5777066D01*
X-1128919Y5779107D01*
X-1123354Y5781787D01*
X-1118123Y5785074D01*
X-1113293Y5788925D01*
X-1108925Y5793293D01*
X-1105073Y5798123D01*
X-1101787Y5803354D01*
X-1099107Y5808919D01*
X-1097066Y5814750D01*
X-1095692Y5820773D01*
X-1095000Y5826911D01*
Y5833089D01*
X-1095692Y5839227D01*
X-1097066Y5845250D01*
X-1099107Y5851081D01*
X-1101787Y5856646D01*
X-1105073Y5861877D01*
X-1108925Y5866707D01*
X-1113293Y5871075D01*
X-1118123Y5874927D01*
X-1123354Y5878213D01*
X-1128919Y5880893D01*
X-1134750Y5882934D01*
X-1140773Y5884308D01*
X-1146911Y5885000D01*
X-1153089D01*
X-1159227Y5884308D01*
X-1165250Y5882934D01*
X-1171081Y5880893D01*
X-1176646Y5878213D01*
X-1181877Y5874927D01*
X-1186707Y5871075D01*
X-1187000Y5870782D01*
X-1197000Y5874924D01*
Y6384877D01*
X-1196906Y6387500D01*
Y6503500D01*
X-1197000Y6506123D01*
Y6625500D01*
X-678000D01*
Y5082000D01*
D02*
G37*
G36*
X-675000Y4110000D02*
X-765000D01*
Y4570000D01*
X-675000D01*
Y4110000D01*
D02*
G37*
G36*
X-805000Y4595400D02*
X-837301D01*
Y4540001D01*
Y4484600D01*
X-805000D01*
Y4465000D01*
X-905000D01*
Y4355000D01*
X-805000D01*
Y3215000D01*
X-2020000D01*
X-2020000Y4548000D01*
Y4551340D01*
X-2019476Y4557999D01*
X-2018431Y4564596D01*
X-2016872Y4571090D01*
X-2014808Y4577443D01*
X-2012252Y4583614D01*
X-2009219Y4589565D01*
X-2005729Y4595260D01*
X-2001803Y4600664D01*
X-1997465Y4605743D01*
X-1992743Y4610466D01*
X-1987664Y4614804D01*
X-1982260Y4618729D01*
X-1976565Y4622219D01*
X-1970614Y4625252D01*
X-1964443Y4627808D01*
X-1958090Y4629872D01*
X-1951596Y4631431D01*
X-1944998Y4632476D01*
X-1938340Y4633000D01*
X-1935000D01*
Y4633000D01*
X-1791660Y4633000D01*
X-1785002Y4632476D01*
X-1778405Y4631431D01*
X-1771910Y4629872D01*
X-1765558Y4627808D01*
X-1759387Y4625252D01*
X-1753435Y4622219D01*
X-1747740Y4618729D01*
X-1742337Y4614804D01*
X-1737258Y4610466D01*
X-1732535Y4605743D01*
X-1728197Y4600664D01*
X-1724271Y4595260D01*
X-1720781Y4589565D01*
X-1717748Y4583614D01*
X-1715192Y4577443D01*
X-1713128Y4571090D01*
X-1711569Y4564596D01*
X-1710524Y4557999D01*
X-1710000Y4551340D01*
Y4548000D01*
X-1710000D01*
X-1710000Y3525000D01*
X-1115000D01*
X-1115000Y4085000D01*
X-1110000D01*
Y4345000D01*
X-1114999D01*
Y4355000D01*
X-1030000D01*
Y4462500D01*
Y4577500D01*
X-1114999D01*
Y4609561D01*
X-1114922Y4609612D01*
X-1121606Y4616296D01*
X-1121607Y4616296D01*
X-1160000Y4654689D01*
Y4965000D01*
X-805000D01*
Y4595400D01*
D02*
G37*
%LPC*%
G36*
X-1751911Y5845000D02*
X-1758088D01*
X-1764227Y5844308D01*
X-1770250Y5842934D01*
X-1776081Y5840893D01*
X-1781646Y5838213D01*
X-1786877Y5834927D01*
X-1791707Y5831075D01*
X-1796075Y5826707D01*
X-1799926Y5821877D01*
X-1803213Y5816646D01*
X-1804514Y5813945D01*
X-1807628Y5813015D01*
X-1812371D01*
X-1815486Y5813945D01*
X-1816787Y5816646D01*
X-1820073Y5821877D01*
X-1823925Y5826707D01*
X-1828293Y5831075D01*
X-1833123Y5834927D01*
X-1838353Y5838213D01*
X-1843919Y5840893D01*
X-1849750Y5842934D01*
X-1855772Y5844308D01*
X-1861911Y5845000D01*
X-1868088D01*
X-1874227Y5844308D01*
X-1880249Y5842934D01*
X-1886080Y5840893D01*
X-1891646Y5838213D01*
X-1896877Y5834927D01*
X-1901706Y5831075D01*
X-1906074Y5826707D01*
X-1909926Y5821877D01*
X-1913213Y5816646D01*
X-1915893Y5811081D01*
X-1917933Y5805250D01*
X-1919308Y5799227D01*
X-1919999Y5793089D01*
Y5786911D01*
X-1919308Y5780773D01*
X-1917933Y5774750D01*
X-1915893Y5768919D01*
X-1913213Y5763354D01*
X-1909926Y5758123D01*
X-1906074Y5753293D01*
X-1901706Y5748925D01*
X-1896877Y5745074D01*
X-1891646Y5741787D01*
X-1886080Y5739107D01*
X-1880249Y5737067D01*
X-1874227Y5735692D01*
X-1868088Y5735000D01*
X-1861911D01*
X-1855772Y5735692D01*
X-1849750Y5737067D01*
X-1843919Y5739107D01*
X-1838353Y5741787D01*
X-1833123Y5745074D01*
X-1828293Y5748925D01*
X-1823925Y5753293D01*
X-1820073Y5758123D01*
X-1816787Y5763354D01*
X-1815486Y5766056D01*
X-1812371Y5766985D01*
X-1807628D01*
X-1804514Y5766056D01*
X-1803213Y5763354D01*
X-1799926Y5758123D01*
X-1796075Y5753293D01*
X-1791707Y5748925D01*
X-1786877Y5745074D01*
X-1781646Y5741787D01*
X-1776081Y5739107D01*
X-1770250Y5737067D01*
X-1764227Y5735692D01*
X-1758088Y5735000D01*
X-1751911D01*
X-1745772Y5735692D01*
X-1739750Y5737067D01*
X-1733919Y5739107D01*
X-1728353Y5741787D01*
X-1723123Y5745074D01*
X-1718293Y5748925D01*
X-1713925Y5753293D01*
X-1710073Y5758123D01*
X-1706787Y5763354D01*
X-1704107Y5768919D01*
X-1702066Y5774750D01*
X-1700692Y5780773D01*
X-1700000Y5786911D01*
Y5793089D01*
X-1700692Y5799227D01*
X-1702066Y5805250D01*
X-1704107Y5811081D01*
X-1706787Y5816646D01*
X-1710073Y5821877D01*
X-1713925Y5826707D01*
X-1718293Y5831075D01*
X-1723123Y5834927D01*
X-1728353Y5838213D01*
X-1733919Y5840893D01*
X-1739750Y5842934D01*
X-1745772Y5844308D01*
X-1751911Y5845000D01*
D02*
G37*
G36*
X-862701Y4595400D02*
X-900400D01*
Y4552701D01*
X-862701D01*
Y4595400D01*
D02*
G37*
G36*
Y4527301D02*
X-900400D01*
Y4484600D01*
X-862701D01*
Y4527301D01*
D02*
G37*
%LPD*%
G36*
X-925000Y2315000D02*
X-1230000D01*
Y2640000D01*
Y2644910D01*
X-1229358Y2654710D01*
X-1228076Y2664447D01*
X-1226160Y2674079D01*
X-1223618Y2683566D01*
X-1220461Y2692866D01*
X-1216703Y2701939D01*
X-1212359Y2710747D01*
X-1207449Y2719253D01*
X-1201993Y2727418D01*
X-1196014Y2735210D01*
X-1189538Y2742594D01*
X-1182594Y2749538D01*
X-1175210Y2756014D01*
X-1167419Y2761992D01*
X-1159253Y2767448D01*
X-1150748Y2772359D01*
X-1141940Y2776703D01*
X-1132866Y2780461D01*
X-1123566Y2783618D01*
X-1114080Y2786160D01*
X-1104448Y2788076D01*
X-1094711Y2789358D01*
X-1084911Y2790000D01*
X-925000D01*
Y2315000D01*
D02*
G37*
%LPC*%
G36*
X1128089Y5855000D02*
X1121912D01*
X1115773Y5854308D01*
X1109750Y5852934D01*
X1103920Y5850893D01*
X1098354Y5848213D01*
X1093123Y5844927D01*
X1088293Y5841075D01*
X1083925Y5836707D01*
X1081004Y5833044D01*
X1075000Y5832064D01*
X1068997Y5833044D01*
X1066075Y5836707D01*
X1061707Y5841075D01*
X1056877Y5844927D01*
X1051647Y5848213D01*
X1046081Y5850893D01*
X1040250Y5852934D01*
X1034228Y5854308D01*
X1028089Y5855000D01*
X1021912D01*
X1015773Y5854308D01*
X1009750Y5852934D01*
X1003920Y5850893D01*
X998354Y5848213D01*
X993123Y5844927D01*
X988293Y5841075D01*
X983925Y5836707D01*
X981004Y5833044D01*
X975000Y5832065D01*
X968997Y5833044D01*
X966075Y5836707D01*
X961707Y5841075D01*
X956877Y5844927D01*
X951647Y5848213D01*
X946081Y5850893D01*
X940250Y5852934D01*
X934228Y5854308D01*
X928089Y5855000D01*
X921912D01*
X915773Y5854308D01*
X909751Y5852934D01*
X903920Y5850893D01*
X898354Y5848213D01*
X893123Y5844927D01*
X888294Y5841075D01*
X883926Y5836707D01*
X880074Y5831877D01*
X876787Y5826646D01*
X874107Y5821081D01*
X872067Y5815250D01*
X870692Y5809227D01*
X870001Y5803089D01*
Y5796911D01*
X870692Y5790773D01*
X872067Y5784750D01*
X874107Y5778919D01*
X876787Y5773354D01*
X880074Y5768123D01*
X883926Y5763293D01*
X888294Y5758925D01*
X893123Y5755074D01*
X898354Y5751787D01*
X903920Y5749107D01*
X909751Y5747066D01*
X915773Y5745692D01*
X921912Y5745000D01*
X928089D01*
X934228Y5745692D01*
X940250Y5747066D01*
X946081Y5749107D01*
X951647Y5751787D01*
X956877Y5755074D01*
X961707Y5758925D01*
X966075Y5763293D01*
X968997Y5766956D01*
X975000Y5767936D01*
X981004Y5766956D01*
X983925Y5763293D01*
X988293Y5758925D01*
X993123Y5755074D01*
X998354Y5751787D01*
X1003920Y5749107D01*
X1009750Y5747066D01*
X1015773Y5745692D01*
X1021912Y5745000D01*
X1028089D01*
X1034228Y5745692D01*
X1040250Y5747066D01*
X1046081Y5749107D01*
X1051647Y5751787D01*
X1056877Y5755074D01*
X1061707Y5758925D01*
X1066075Y5763293D01*
X1068997Y5766956D01*
X1075000Y5767936D01*
X1081004Y5766956D01*
X1083925Y5763293D01*
X1088293Y5758925D01*
X1093123Y5755074D01*
X1098354Y5751787D01*
X1103920Y5749107D01*
X1109750Y5747066D01*
X1115773Y5745692D01*
X1121912Y5745000D01*
X1128089D01*
X1134228Y5745692D01*
X1140250Y5747066D01*
X1146081Y5749107D01*
X1151647Y5751787D01*
X1156877Y5755074D01*
X1161707Y5758925D01*
X1166075Y5763293D01*
X1169927Y5768123D01*
X1173213Y5773354D01*
X1175894Y5778919D01*
X1177934Y5784750D01*
X1179309Y5790773D01*
X1180000Y5796911D01*
Y5803089D01*
X1179309Y5809227D01*
X1177934Y5815250D01*
X1175894Y5821081D01*
X1173213Y5826646D01*
X1169927Y5831877D01*
X1166075Y5836707D01*
X1161707Y5841075D01*
X1156877Y5844927D01*
X1151647Y5848213D01*
X1146081Y5850893D01*
X1140250Y5852934D01*
X1134228Y5854308D01*
X1128089Y5855000D01*
D02*
G37*
G36*
X1747760Y5545212D02*
X1739028Y5545211D01*
X1730329Y5544451D01*
X1721730Y5542934D01*
X1713295Y5540674D01*
X1705090Y5537688D01*
X1697175Y5533997D01*
X1689613Y5529631D01*
X1682460Y5524623D01*
X1675771Y5519010D01*
X1669597Y5512835D01*
X1663983Y5506146D01*
X1658975Y5498993D01*
X1654609Y5491431D01*
X1650919Y5483517D01*
X1647932Y5475311D01*
X1645672Y5466877D01*
X1644155Y5458277D01*
X1643394Y5449578D01*
X1643395Y5440846D01*
X1644155Y5432147D01*
X1645672Y5423547D01*
X1647932Y5415113D01*
X1650918Y5406907D01*
X1654609Y5398993D01*
X1658975Y5391431D01*
X1663983Y5384278D01*
X1669596Y5377589D01*
X1675771Y5371414D01*
X1682460Y5365801D01*
X1689613Y5360792D01*
X1697175Y5356426D01*
X1705090Y5352736D01*
X1713295Y5349750D01*
X1721730Y5347489D01*
X1730329Y5345973D01*
X1739028Y5345212D01*
X1747760Y5345212D01*
X1756459Y5345973D01*
X1765059Y5347489D01*
X1773493Y5349750D01*
X1781699Y5352736D01*
X1789613Y5356426D01*
X1797175Y5360793D01*
X1804328Y5365801D01*
X1811017Y5371414D01*
X1817192Y5377588D01*
X1822805Y5384278D01*
X1827814Y5391431D01*
X1832180Y5398993D01*
X1835870Y5406907D01*
X1838857Y5415113D01*
X1841117Y5423547D01*
X1842633Y5432147D01*
X1843394Y5440846D01*
X1843394Y5449578D01*
X1842633Y5458277D01*
X1841117Y5466877D01*
X1838857Y5475311D01*
X1835870Y5483517D01*
X1832180Y5491431D01*
X1827813Y5498993D01*
X1822805Y5506146D01*
X1817192Y5512835D01*
X1811018Y5519010D01*
X1804328Y5524623D01*
X1797175Y5529631D01*
X1789613Y5533997D01*
X1781699Y5537687D01*
X1773494Y5540674D01*
X1765059Y5542934D01*
X1756459Y5544451D01*
X1747760Y5545212D01*
D02*
G37*
G36*
X1965000Y5085000D02*
X1685000D01*
Y4790000D01*
X1965000D01*
Y5085000D01*
D02*
G37*
%LPD*%
D11*
X1850000Y7505000D02*
D03*
Y7395000D02*
D03*
X50000Y5225000D02*
D03*
X-260000Y4685000D02*
D03*
X-1230000Y4415000D02*
D03*
X700000Y7105000D02*
D03*
X600000D02*
D03*
X1900000D02*
D03*
X1800000D02*
D03*
X1300000D02*
D03*
X1200000D02*
D03*
X-1230000Y4525000D02*
D03*
X1900000Y6995000D02*
D03*
X1800000D02*
D03*
X1300000D02*
D03*
X1200000D02*
D03*
X700000D02*
D03*
X600000D02*
D03*
X-260000Y4795000D02*
D03*
X260000D02*
D03*
Y4685000D02*
D03*
X50000Y5115000D02*
D03*
X-50000D02*
D03*
Y5225000D02*
D03*
D14*
X-722500Y4410000D02*
D03*
X377500Y4300000D02*
D03*
X-57500Y4500000D02*
D03*
X-132500Y3240000D02*
D03*
X-1097500Y4410000D02*
D03*
X-837500D02*
D03*
X-982500D02*
D03*
X-247500Y3240000D02*
D03*
X262500Y4300000D02*
D03*
X57500Y4500000D02*
D03*
X-57500Y4980000D02*
D03*
X57500D02*
D03*
D16*
X-1780000Y6660000D02*
D03*
Y6380000D02*
D03*
D17*
X95000Y3390000D02*
D03*
X-985000Y4520000D02*
D03*
X-1095000D02*
D03*
X205000Y3390000D02*
D03*
D19*
X-220000Y2700000D02*
D03*
X-150000Y5100000D02*
D03*
X150000D02*
D03*
D22*
X1930000Y7655000D02*
X2045000D01*
X1850000Y7575000D02*
X1930000Y7655000D01*
X1850000Y7505000D02*
Y7575000D01*
X260000Y4192500D02*
X262500Y4195000D01*
Y4300000D01*
D23*
X-575000Y3985001D02*
X-562501Y3997500D01*
X-575000Y3944999D02*
Y3985001D01*
Y3944999D02*
X-562501Y3932500D01*
X-460000D01*
X-220000Y2700000D02*
X-195000Y2725000D01*
X-25000D02*
X0Y2700000D01*
X-195000Y2725000D02*
X-25000D01*
X-50000Y5225000D02*
X-20000Y5255000D01*
X20000D02*
X50000Y5225000D01*
X20000Y5880000D02*
X40000Y5900000D01*
X100000D01*
X20000Y5255000D02*
Y5880000D01*
X-562501Y3997500D02*
X-460000D01*
X-360000Y3060000D02*
Y3460000D01*
X-580000Y3520000D02*
X-420000D01*
X-360000Y3460000D01*
X-577500Y3802500D02*
X-460000D01*
X-630000Y3750000D02*
X-577500Y3802500D01*
X-630000Y3570000D02*
Y3750000D01*
Y3570000D02*
X-580000Y3520000D01*
X-460000Y3737500D02*
X-242500D01*
X205000Y3305000D02*
Y3390000D01*
Y3305000D02*
X250000Y3260000D01*
X320000D02*
X360000Y3220000D01*
Y3000000D02*
Y3220000D01*
X250000Y3260000D02*
X320000D01*
X327500Y2967500D02*
X360000Y3000000D01*
X220000Y2967500D02*
X327500D01*
X42500Y4127500D02*
X260000D01*
X122500Y4062500D02*
X260000D01*
X42500Y3997500D02*
X260000D01*
X122500Y3932500D02*
X260000D01*
X42500Y3867500D02*
X260000D01*
X122500Y3802500D02*
X260000D01*
X42500Y3737500D02*
X260000D01*
X122500Y3672500D02*
X260000D01*
X42500Y3607500D02*
X260000D01*
X-460000Y4127500D02*
X-242500D01*
X-460000Y4062500D02*
X-322500D01*
X-460000Y3607500D02*
X-242500D01*
X-460000Y3672500D02*
X-322500D01*
X-172500Y3867500D02*
X-130000Y3910000D01*
Y4645000D01*
X-460000Y3867500D02*
X-172500D01*
X-220000Y2967500D02*
Y3032500D01*
X-332500D02*
X-220000D01*
X-360000Y3060000D02*
X-332500Y3032500D01*
X220000D02*
Y3097500D01*
X197500Y2700000D02*
X200000Y2702500D01*
X0Y2700000D02*
X197500D01*
X-220000D02*
Y2902500D01*
X-37500D01*
X27500Y2967500D02*
X220000D01*
X-37500Y2902500D02*
X27500Y2967500D01*
X-100000Y5900000D02*
X-40000D01*
X-20000Y5880000D01*
Y5255000D02*
Y5880000D01*
X-150000Y5100000D02*
X-40000D01*
X-20000Y5080000D01*
X40000Y5100000D02*
X150000D01*
X20000Y5080000D02*
X40000Y5100000D01*
X-20000Y5017500D02*
Y5080000D01*
X-57500Y4980000D02*
X-20000Y5017500D01*
X20000D02*
X57500Y4980000D01*
X20000Y5017500D02*
Y5080000D01*
X586500Y6820000D02*
X600000Y6833500D01*
Y6995000D01*
X700000Y6833500D02*
X713500Y6820000D01*
X700000Y6833500D02*
Y6995000D01*
X1300000Y6833500D02*
X1313500Y6820000D01*
X1300000Y6833500D02*
Y6995000D01*
X1186500Y6820000D02*
X1200000Y6833500D01*
Y6995000D01*
X1786500Y6820000D02*
X1800000Y6833500D01*
Y6995000D01*
X1900000Y6833500D02*
Y6995000D01*
Y6833500D02*
X1913500Y6820000D01*
X1059500Y6155500D02*
Y6280000D01*
Y6155500D02*
X1150000Y6065000D01*
X1186500Y6128500D02*
Y6280000D01*
Y6128500D02*
X1250000Y6065000D01*
X1313500Y6128500D02*
Y6280000D01*
X1250000Y6065000D02*
X1313500Y6128500D01*
X1440500Y6155500D02*
Y6280000D01*
X1350000Y6065000D02*
X1440500Y6155500D01*
X1659500Y6160500D02*
Y6280000D01*
Y6160500D02*
X1700000Y6120000D01*
X1795000D01*
X1850000Y6065000D01*
X1786500Y6280000D02*
X1913500D01*
Y6101500D02*
Y6280000D01*
Y6101500D02*
X1950000Y6065000D01*
X2040500Y6074500D02*
Y6280000D01*
Y6074500D02*
X2050000Y6065000D01*
X586500Y6280000D02*
X713500D01*
X459500Y6160500D02*
Y6280000D01*
Y6160500D02*
X500000Y6120000D01*
X645000D01*
X700000Y6065000D01*
X840500Y6124500D02*
X900000Y6065000D01*
X840500Y6124500D02*
Y6280000D01*
X713500Y6151500D02*
Y6280000D01*
Y6151500D02*
X800000Y6065000D01*
X130000Y4835000D02*
X220000D01*
X260000Y4795000D01*
X-260000D02*
X-220000Y4835000D01*
X-130000D01*
X45000D02*
X130000D01*
X20000Y4860000D02*
X45000Y4835000D01*
X20000Y4860000D02*
Y4942500D01*
X57500Y4980000D01*
X-57500D02*
X-20000Y4942500D01*
Y4860000D02*
Y4942500D01*
X-45000Y4835000D02*
X-20000Y4860000D01*
X-130000Y4835000D02*
X-45000D01*
D26*
X-800000Y6445500D02*
D03*
X-256000D02*
D03*
X-1344000D02*
D03*
D27*
X1456606Y5854788D02*
D03*
X1743394Y5445212D02*
D03*
X550000Y5900000D02*
D03*
X-1456606Y5854788D02*
D03*
X-550000Y5900000D02*
D03*
X550000Y5400000D02*
D03*
X-550000D02*
D03*
X-1743394Y5445212D02*
D03*
D28*
X1350000Y8200000D02*
D03*
X1350000Y7900000D02*
D03*
X1350000Y7600000D02*
D03*
X1050000Y8200000D02*
D03*
Y7600000D02*
D03*
X1050000Y7900000D02*
D03*
D29*
X247000Y7200000D02*
D03*
X-1847000D02*
D03*
D30*
X-1100000Y8085000D02*
D03*
X-500000D02*
D03*
X-300000D02*
D03*
X-700000D02*
D03*
X-900000D02*
D03*
X-1300000D02*
D03*
X-1500000D02*
D03*
D32*
X-100000D02*
D03*
D33*
X-1900000Y4548000D02*
D03*
D34*
Y4802000D02*
D03*
D35*
X-420000Y2255000D02*
D03*
X-650000Y930000D02*
D03*
X-535000Y1934058D02*
D03*
X-495000Y661532D02*
D03*
X-640999Y1302886D02*
D03*
X-535000Y1646156D02*
D03*
X884588Y3321434D02*
D03*
X386183Y2695660D02*
D03*
X-1397500Y3600000D02*
D03*
Y3700000D02*
D03*
Y3800000D02*
D03*
Y3999999D02*
D03*
Y3900000D02*
D03*
Y4199999D02*
D03*
Y4099999D02*
D03*
Y4399999D02*
D03*
Y4299999D02*
D03*
Y4599998D02*
D03*
Y4499998D02*
D03*
Y4799998D02*
D03*
Y4699998D02*
D03*
Y4999997D02*
D03*
Y4899998D02*
D03*
X-1497500D02*
D03*
X-1597500D02*
D03*
Y4999997D02*
D03*
X-1497500D02*
D03*
Y4699998D02*
D03*
X-1597500D02*
D03*
Y4799998D02*
D03*
X-1497500D02*
D03*
Y4499998D02*
D03*
X-1597500D02*
D03*
Y4599998D02*
D03*
X-1497500D02*
D03*
Y4299999D02*
D03*
X-1597500D02*
D03*
Y4399999D02*
D03*
X-1497500D02*
D03*
Y4099999D02*
D03*
X-1597500D02*
D03*
Y4199999D02*
D03*
X-1497500D02*
D03*
Y3900000D02*
D03*
X-1597500D02*
D03*
Y3999999D02*
D03*
X-1497500D02*
D03*
Y3800000D02*
D03*
X-1597500D02*
D03*
Y3700000D02*
D03*
X-1497500D02*
D03*
Y3600000D02*
D03*
X-1597500D02*
D03*
X1650000Y1069000D02*
D03*
X1550000D02*
D03*
Y1169000D02*
D03*
X1650000D02*
D03*
X1597500Y2900000D02*
D03*
X1497500D02*
D03*
Y2800000D02*
D03*
X1597500D02*
D03*
X1650000Y2411000D02*
D03*
X1550000D02*
D03*
Y2311000D02*
D03*
X1650000D02*
D03*
X1125000Y5800000D02*
D03*
X1025000D02*
D03*
X2125000Y7952499D02*
D03*
Y7592499D02*
D03*
Y7152499D02*
D03*
Y6752499D02*
D03*
Y5952499D02*
D03*
X1925000Y3474999D02*
D03*
X635386Y3008547D02*
D03*
X-120000Y2650000D02*
D03*
X-2125002Y5700000D02*
D03*
Y5300000D02*
D03*
Y4900000D02*
D03*
Y4500000D02*
D03*
Y4100000D02*
D03*
Y3700000D02*
D03*
Y3300000D02*
D03*
Y2900000D02*
D03*
Y2500000D02*
D03*
Y2100000D02*
D03*
Y1700000D02*
D03*
Y1300000D02*
D03*
Y900000D02*
D03*
Y500000D02*
D03*
X-500000Y74998D02*
D03*
X-900000D02*
D03*
X-1300000D02*
D03*
X-2100000D02*
D03*
X-1700000D02*
D03*
X-200000Y144999D02*
D03*
X-300000D02*
D03*
Y244999D02*
D03*
X-200000D02*
D03*
Y544999D02*
D03*
X-300000D02*
D03*
X-200000Y444999D02*
D03*
X-300000D02*
D03*
Y344999D02*
D03*
X-200000D02*
D03*
X200000D02*
D03*
X300000D02*
D03*
Y444999D02*
D03*
X200000D02*
D03*
X300000Y544999D02*
D03*
X200000D02*
D03*
Y644999D02*
D03*
X300000D02*
D03*
Y745000D02*
D03*
X200000D02*
D03*
Y845000D02*
D03*
X300000D02*
D03*
X-2125002Y7200001D02*
D03*
Y7600001D02*
D03*
Y8000001D02*
D03*
X1500000Y8425002D02*
D03*
X1100000D02*
D03*
X700000D02*
D03*
X300000D02*
D03*
X-100000D02*
D03*
X-500000D02*
D03*
X-900000D02*
D03*
X-1300000D02*
D03*
X-2100000D02*
D03*
X-1700000D02*
D03*
X2125000Y6352499D02*
D03*
Y5552499D02*
D03*
Y5152499D02*
D03*
Y4752499D02*
D03*
Y4352499D02*
D03*
Y3674999D02*
D03*
Y3952499D02*
D03*
X1875000Y4162500D02*
D03*
Y4062500D02*
D03*
Y3687500D02*
D03*
X1775000Y4062500D02*
D03*
X1875000Y3587500D02*
D03*
X1775000Y3687500D02*
D03*
Y3587500D02*
D03*
Y4162500D02*
D03*
X-720000Y4165000D02*
D03*
Y4265000D02*
D03*
X1775000Y4512500D02*
D03*
X1875000D02*
D03*
X1775000Y4412500D02*
D03*
X1875000D02*
D03*
X1087500Y4090000D02*
D03*
Y4190000D02*
D03*
Y3790000D02*
D03*
Y3690000D02*
D03*
X1187500Y4090000D02*
D03*
Y4190000D02*
D03*
Y3790000D02*
D03*
Y3690000D02*
D03*
Y4890000D02*
D03*
Y4990000D02*
D03*
Y4590000D02*
D03*
Y4490000D02*
D03*
X1087500Y4890000D02*
D03*
Y4990000D02*
D03*
Y4590000D02*
D03*
Y4490000D02*
D03*
X-975000Y2530001D02*
D03*
X-1075000D02*
D03*
Y2630000D02*
D03*
Y2730000D02*
D03*
X-975000D02*
D03*
Y2630000D02*
D03*
X-1075000Y2430001D02*
D03*
X-975000D02*
D03*
X-1175000Y2530001D02*
D03*
Y2430001D02*
D03*
Y2630000D02*
D03*
X1850000Y7945000D02*
D03*
X1500000Y7190000D02*
D03*
X1627000D02*
D03*
X1373000D02*
D03*
X2040500Y6897500D02*
D03*
X1950000Y5955000D02*
D03*
X1850000D02*
D03*
X1560000Y6907500D02*
D03*
X1440500Y6897500D02*
D03*
X1350000Y5955000D02*
D03*
X960000Y6907500D02*
D03*
X360000D02*
D03*
X840500Y6820000D02*
D03*
X800000Y5955000D02*
D03*
X900000D02*
D03*
X700000D02*
D03*
X1250000D02*
D03*
X1150000D02*
D03*
X300000Y6300000D02*
D03*
Y6200000D02*
D03*
Y6500000D02*
D03*
Y6000000D02*
D03*
Y6100000D02*
D03*
X712500Y4890000D02*
D03*
Y4590000D02*
D03*
X1875000Y4887500D02*
D03*
X712500Y3690000D02*
D03*
X1775000Y4887500D02*
D03*
X712500Y4090000D02*
D03*
Y4490000D02*
D03*
Y4990000D02*
D03*
X612500D02*
D03*
Y4590000D02*
D03*
Y4490000D02*
D03*
Y4890000D02*
D03*
X300000Y5800000D02*
D03*
Y5700000D02*
D03*
Y5900000D02*
D03*
X377500Y4300000D02*
D03*
X300000Y5600000D02*
D03*
X712500Y4190000D02*
D03*
Y3790000D02*
D03*
X1875000Y4987500D02*
D03*
X1775000D02*
D03*
X612500Y4190000D02*
D03*
Y4090000D02*
D03*
Y3690000D02*
D03*
Y3790000D02*
D03*
X200000Y6400000D02*
D03*
X300000D02*
D03*
X200000Y6500000D02*
D03*
Y6200000D02*
D03*
Y6100000D02*
D03*
Y6300000D02*
D03*
X100000D02*
D03*
Y6400000D02*
D03*
Y6100000D02*
D03*
Y6200000D02*
D03*
X200000Y5900000D02*
D03*
Y5800000D02*
D03*
Y6000000D02*
D03*
Y5700000D02*
D03*
Y5600000D02*
D03*
X100000D02*
D03*
Y5900000D02*
D03*
Y5800000D02*
D03*
Y6000000D02*
D03*
Y5700000D02*
D03*
X-1730000Y6825000D02*
D03*
X100000Y6500000D02*
D03*
X-1482500Y6140000D02*
D03*
X-1830000Y6825000D02*
D03*
X-1250000Y5830000D02*
D03*
X-1150000D02*
D03*
X-1860000Y5930000D02*
D03*
X-1955000D02*
D03*
X-1865000Y5790000D02*
D03*
X95000Y3390000D02*
D03*
X-57500Y4500000D02*
D03*
X50000Y3260000D02*
D03*
X-130000Y4740000D02*
D03*
X-260000Y4685000D02*
D03*
X-132500Y3240000D02*
D03*
X220000Y2880000D02*
D03*
X-512500Y4900000D02*
D03*
X-612500D02*
D03*
X-512500Y4800000D02*
D03*
X-612500D02*
D03*
X-1230000Y4415000D02*
D03*
X-1097500Y4410000D02*
D03*
X-837500D02*
D03*
X-460000Y4215000D02*
D03*
X-560000Y3287500D02*
D03*
Y3387500D02*
D03*
X-1200000Y2242500D02*
D03*
X-1755000Y5790000D02*
D03*
X1754000Y6598000D02*
D03*
X2045000Y7655000D02*
D03*
X50000Y6650000D02*
D03*
Y6750000D02*
D03*
Y6850000D02*
D03*
X150000Y6750000D02*
D03*
Y6850000D02*
D03*
X-729999Y2630001D02*
D03*
X-630000D02*
D03*
X-530000D02*
D03*
X-430000D02*
D03*
Y2730000D02*
D03*
X-530000D02*
D03*
X-630000D02*
D03*
X-729999D02*
D03*
Y2830000D02*
D03*
X-630000D02*
D03*
X-729999Y2930000D02*
D03*
X-630000D02*
D03*
X-530000Y2830000D02*
D03*
Y2930000D02*
D03*
X-430000D02*
D03*
Y2830000D02*
D03*
X925000Y5800000D02*
D03*
X2050000Y7395000D02*
D03*
X1850000D02*
D03*
X-242500Y3737500D02*
D03*
X42500Y4127500D02*
D03*
X122500Y4062500D02*
D03*
X42500Y3997500D02*
D03*
X122500Y3932500D02*
D03*
X42500Y3867500D02*
D03*
X122500Y3802500D02*
D03*
X42500Y3737500D02*
D03*
X122500Y3672500D02*
D03*
X42500Y3607500D02*
D03*
X-242500D02*
D03*
X-322500Y3672500D02*
D03*
Y4062500D02*
D03*
X-242500Y4127500D02*
D03*
X1800000Y7295000D02*
D03*
X1900000Y7295000D02*
D03*
X600000Y7295000D02*
D03*
X700000Y7295000D02*
D03*
X-1450000Y7600000D02*
D03*
X-1150000D02*
D03*
X-950000D02*
D03*
X-650000D02*
D03*
X-450000D02*
D03*
X-150000D02*
D03*
X-100000Y5900000D02*
D03*
X1300000Y7295000D02*
D03*
X1200000Y7295000D02*
D03*
X262500Y4300000D02*
D03*
X-49000Y4390000D02*
D03*
X-141000Y3350000D02*
D03*
X2050000Y6065000D02*
D03*
X1950000D02*
D03*
X1850000D02*
D03*
X1350000D02*
D03*
X1250000D02*
D03*
X1150000D02*
D03*
X700000D02*
D03*
X800000D02*
D03*
X900000D02*
D03*
X-1765000Y6190000D02*
D03*
X-1665000D02*
D03*
X260000Y4685000D02*
D03*
X-130000Y4645000D02*
D03*
D36*
X-1230000Y4525000D02*
X-1185000D01*
X-1170000Y4510000D01*
X-1160000Y4520000D02*
X-1095000D01*
X-1170000Y4510000D02*
X-1160000Y4520000D01*
X-1170000Y4225000D02*
Y4510000D01*
X-1180000Y4215000D02*
X-1170000Y4225000D01*
X1900000Y7105000D02*
Y7295000D01*
X1800000Y7105000D02*
Y7295000D01*
X1300000Y7105000D02*
Y7295000D01*
X1200000Y7105000D02*
Y7295000D01*
X600000Y7105000D02*
Y7295000D01*
X700000Y7105000D02*
Y7295000D01*
X-1340000Y7600000D02*
X-1317500Y7622500D01*
X-1450000Y7600000D02*
X-1340000D01*
X-1500000Y8085000D02*
X-1417500Y8002500D01*
X-1382500Y7912500D02*
Y8002500D01*
X-1417500Y7898002D02*
Y8002500D01*
X-1260000Y7600000D02*
X-1150000D01*
X-1282500Y7622500D02*
X-1260000Y7600000D01*
X-1382500Y8002500D02*
X-1300000Y8085000D01*
X-1317500Y7622500D02*
Y7798002D01*
X-1417500Y7898002D02*
X-1317500Y7798002D01*
X-1382500Y7912500D02*
X-1282500Y7812500D01*
Y7622500D02*
Y7812500D01*
X-317500Y7622500D02*
Y7812500D01*
X-217500Y7912500D01*
X-282500Y7798002D02*
X-182500Y7898002D01*
X-282500Y7622500D02*
Y7798002D01*
X-300000Y8085000D02*
X-217500Y8002500D01*
X-340000Y7600000D02*
X-317500Y7622500D01*
X-450000Y7600000D02*
X-340000D01*
X-182500Y7898002D02*
Y8002500D01*
X-217500Y7912500D02*
Y8002500D01*
X-182500Y8002500D02*
X-100000Y8085000D01*
X-260000Y7600000D02*
X-150000D01*
X-282500Y7622500D02*
X-260000Y7600000D01*
X-950000D02*
X-840000D01*
X-817500Y7622500D02*
Y8002500D01*
X-840000Y7600000D02*
X-817500Y7622500D01*
X-900000Y8085000D02*
X-817500Y8002500D01*
X-782500Y7622500D02*
Y8002500D01*
Y7622500D02*
X-760000Y7600000D01*
X-650000D01*
X-782500Y8002500D02*
X-700000Y8085000D01*
D38*
X-460000Y4192500D02*
D03*
Y4127500D02*
D03*
Y4062500D02*
D03*
Y3997500D02*
D03*
Y3932500D02*
D03*
Y3867500D02*
D03*
Y3802500D02*
D03*
Y3737500D02*
D03*
Y3672500D02*
D03*
Y3607500D02*
D03*
X260000D02*
D03*
Y3672500D02*
D03*
Y3737500D02*
D03*
Y3802500D02*
D03*
Y3867500D02*
D03*
Y3932500D02*
D03*
Y3997500D02*
D03*
Y4062500D02*
D03*
Y4127500D02*
D03*
Y4192500D02*
D03*
D39*
X-800000Y1875000D02*
D03*
D40*
X-571400Y2500000D02*
D03*
X-1028600D02*
D03*
D41*
X1825000Y4112500D02*
D03*
Y3637500D02*
D03*
Y4462500D02*
D03*
Y4937500D02*
D03*
X-560000Y3337500D02*
D03*
Y2862500D02*
D03*
D42*
X1600000Y2361000D02*
D03*
Y1561000D02*
D03*
Y1119000D02*
D03*
Y1919000D02*
D03*
D43*
X-720000Y4215000D02*
D03*
X-950000D02*
D03*
X-1180000D02*
D03*
D44*
X-710000Y4540000D02*
D03*
X-950000Y2760000D02*
D03*
X-850000Y4540000D02*
D03*
X-810000Y2760000D02*
D03*
D45*
X1137500Y4940000D02*
D03*
Y4540000D02*
D03*
Y4140000D02*
D03*
Y3740000D02*
D03*
X662500Y4940000D02*
D03*
Y4540000D02*
D03*
Y4140000D02*
D03*
Y3740000D02*
D03*
X-562500Y4850000D02*
D03*
X-1037500D02*
D03*
D46*
X-1200000Y2357500D02*
D03*
X1560000Y6907500D02*
D03*
X360000D02*
D03*
X960000D02*
D03*
X-400000Y2242500D02*
D03*
X-1200000D02*
D03*
X-400000Y2357500D02*
D03*
X1560000Y6792500D02*
D03*
X960000D02*
D03*
X360000D02*
D03*
D47*
X2040500Y6820000D02*
D03*
X1440500D02*
D03*
X840500D02*
D03*
X2040500Y6280000D02*
D03*
X1913500D02*
D03*
X1786500D02*
D03*
X1659500D02*
D03*
Y6820000D02*
D03*
X1786500D02*
D03*
X1913500D02*
D03*
X1440500Y6280000D02*
D03*
X1313500D02*
D03*
X1186500D02*
D03*
X1059500D02*
D03*
Y6820000D02*
D03*
X1186500D02*
D03*
X1313500D02*
D03*
X840500Y6280000D02*
D03*
X713500D02*
D03*
X586500D02*
D03*
X459500D02*
D03*
Y6820000D02*
D03*
X586500D02*
D03*
X713500D02*
D03*
D48*
X50000Y3260000D02*
D03*
X250000D02*
D03*
D49*
X-130000Y4740000D02*
D03*
Y4645000D02*
D03*
Y4835000D02*
D03*
X130000D02*
D03*
Y4740000D02*
D03*
Y4645000D02*
D03*
D50*
X220000Y2902500D02*
D03*
X-220000Y3097500D02*
D03*
X220000D02*
D03*
Y3032500D02*
D03*
Y2967500D02*
D03*
X-220000Y3032500D02*
D03*
Y2967500D02*
D03*
Y2902500D02*
D03*
D51*
X-330000Y400000D02*
D03*
X330000D02*
D03*
D52*
X-450000Y7600000D02*
D03*
X-150000D02*
D03*
X-1450000D02*
D03*
X-1150000D02*
D03*
X-950000D02*
D03*
X-650000D02*
D03*
D53*
X-950000Y3625000D02*
D03*
D54*
X-141000Y3350000D02*
D03*
X-239000D02*
D03*
X-49000Y4390000D02*
D03*
X49000D02*
D03*
D55*
X200000Y2497500D02*
D03*
Y2702500D02*
D03*
X300000Y2097500D02*
D03*
Y2302500D02*
D03*
X400000Y1697500D02*
D03*
Y1902500D02*
D03*
X500000Y1297500D02*
D03*
Y1502500D02*
D03*
X600000Y897500D02*
D03*
Y1102500D02*
D03*
D56*
X0Y2500000D02*
D03*
Y2700000D02*
D03*
X100000Y2100000D02*
D03*
Y2300000D02*
D03*
X200000Y1700000D02*
D03*
Y1900000D02*
D03*
X300000Y1300000D02*
D03*
Y1500000D02*
D03*
X400000Y900000D02*
D03*
Y1100000D02*
D03*
D57*
X425000Y5275000D02*
X550000Y5400000D01*
D58*
X1962500Y5965849D02*
D03*
D59*
X1730000Y6621250D02*
D03*
D60*
X100000Y4564000D02*
D03*
D61*
X-1600000Y500000D02*
D03*
X1600000D02*
D03*
%TF.MD5,359cb70a80c2f904789dabb9358d1f62*%
M02*
