%TF.GenerationSoftware,Altium Limited,Altium Designer,25.6.2 (33)*%
G04 Layer_Color=16711935*
%FSLAX45Y45*%
%MOMM*%
%TF.SameCoordinates,4265A882-CCA4-4A53-A555-757F884491BB*%
%TF.FilePolarity,Negative*%
%TF.FileFunction,Soldermask,Bot*%
%TF.Part,Single*%
G01*
G75*
%TA.AperFunction,SMDPad,CuDef*%
%ADD81R,0.75200X0.90200*%
%ADD84R,0.95200X0.70200*%
%ADD86R,1.90200X1.40200*%
%ADD87R,0.90200X0.75200*%
%ADD89C,1.10200*%
%TA.AperFunction,ComponentPad*%
%ADD92O,2.54200X3.70200*%
%ADD93C,1.60000*%
%ADD94C,1.90000*%
%ADD95C,4.10200*%
%ADD96C,1.41000*%
%ADD98C,0.10000*%
%ADD99R,1.41000X1.41000*%
%ADD100O,2.50000X1.80000*%
%ADD101R,2.50000X1.80000*%
%TA.AperFunction,SMDPad,CuDef*%
%ADD102R,1.85200X0.55200*%
%ADD103R,6.40200X6.20200*%
%ADD104R,1.60200X2.90200*%
%ADD105R,2.40200X2.55200*%
%ADD106R,2.84500X2.26100*%
%ADD107R,1.00200X2.20200*%
%ADD108R,0.60200X0.70200*%
%ADD109R,2.55200X2.40200*%
%ADD110R,0.70200X0.95200*%
G04:AMPARAMS|DCode=111|XSize=1.652mm|YSize=0.702mm|CornerRadius=0.101mm|HoleSize=0mm|Usage=FLASHONLY|Rotation=90.000|XOffset=0mm|YOffset=0mm|HoleType=Round|Shape=RoundedRectangle|*
%AMROUNDEDRECTD111*
21,1,1.65200,0.50000,0,0,90.0*
21,1,1.45000,0.70200,0,0,90.0*
1,1,0.20200,0.25000,0.72500*
1,1,0.20200,0.25000,-0.72500*
1,1,0.20200,-0.25000,-0.72500*
1,1,0.20200,-0.25000,0.72500*
%
%ADD111ROUNDEDRECTD111*%
%ADD112R,1.10200X1.25200*%
%ADD113R,1.20200X0.70200*%
%ADD114R,1.55000X0.55000*%
%ADD115R,2.50200X3.40200*%
%ADD116R,1.40200X1.90200*%
%ADD117R,3.40200X2.20200*%
%ADD118R,0.67200X0.74200*%
%ADD119R,1.50200X1.15200*%
%ADD120R,1.25200X1.10200*%
%TA.AperFunction,ComponentPad*%
%ADD121C,7.50200*%
D81*
X1850000Y7505000D02*
D03*
Y7395000D02*
D03*
X50000Y5225000D02*
D03*
X-260000Y4685000D02*
D03*
X-1230000Y4415000D02*
D03*
X700000Y7105000D02*
D03*
X600000D02*
D03*
X1900000D02*
D03*
X1800000D02*
D03*
X1300000D02*
D03*
X1200000D02*
D03*
X-1230000Y4525000D02*
D03*
X1900000Y6995000D02*
D03*
X1800000D02*
D03*
X1300000D02*
D03*
X1200000D02*
D03*
X700000D02*
D03*
X600000D02*
D03*
X-260000Y4795000D02*
D03*
X260000D02*
D03*
Y4685000D02*
D03*
X50000Y5115000D02*
D03*
X-50000D02*
D03*
Y5225000D02*
D03*
D84*
X-722500Y4410000D02*
D03*
X377500Y4300000D02*
D03*
X-57500Y4500000D02*
D03*
X-132500Y3240000D02*
D03*
X-1097500Y4410000D02*
D03*
X-837500D02*
D03*
X-982500D02*
D03*
X-247500Y3240000D02*
D03*
X262500Y4300000D02*
D03*
X57500Y4500000D02*
D03*
X-57500Y4980000D02*
D03*
X57500D02*
D03*
D86*
X-1780000Y6660000D02*
D03*
Y6380000D02*
D03*
D87*
X95000Y3390000D02*
D03*
X-985000Y4520000D02*
D03*
X-1095000D02*
D03*
X205000Y3390000D02*
D03*
D89*
X-220000Y2700000D02*
D03*
X-150000Y5100000D02*
D03*
X150000D02*
D03*
D92*
X-800000Y6445500D02*
D03*
X-256000D02*
D03*
X-1344000D02*
D03*
D93*
X1456606Y5854788D02*
D03*
X1743394Y5445212D02*
D03*
X550000Y5900000D02*
D03*
X-1456606Y5854788D02*
D03*
X-550000Y5900000D02*
D03*
X550000Y5400000D02*
D03*
X-550000D02*
D03*
X-1743394Y5445212D02*
D03*
D94*
X1350000Y8200000D02*
D03*
X1350000Y7900000D02*
D03*
X1350000Y7600000D02*
D03*
X1050000Y8200000D02*
D03*
Y7600000D02*
D03*
X1050000Y7900000D02*
D03*
D95*
X247000Y7200000D02*
D03*
X-1847000D02*
D03*
D96*
X-1100000Y8085000D02*
D03*
X-500000D02*
D03*
X-300000D02*
D03*
X-700000D02*
D03*
X-900000D02*
D03*
X-1300000D02*
D03*
X-1500000D02*
D03*
D98*
X952000Y8328000D02*
D03*
D99*
X-100000Y8085000D02*
D03*
D100*
X-1900000Y4548000D02*
D03*
D101*
Y4802000D02*
D03*
D102*
X-460000Y4192500D02*
D03*
Y4127500D02*
D03*
Y4062500D02*
D03*
Y3997500D02*
D03*
Y3932500D02*
D03*
Y3867500D02*
D03*
Y3802500D02*
D03*
Y3737500D02*
D03*
Y3672500D02*
D03*
Y3607500D02*
D03*
X260000D02*
D03*
Y3672500D02*
D03*
Y3737500D02*
D03*
Y3802500D02*
D03*
Y3867500D02*
D03*
Y3932500D02*
D03*
Y3997500D02*
D03*
Y4062500D02*
D03*
Y4127500D02*
D03*
Y4192500D02*
D03*
D103*
X-800000Y1875000D02*
D03*
D104*
X-571400Y2500000D02*
D03*
X-1028600D02*
D03*
D105*
X1825000Y4112500D02*
D03*
Y3637500D02*
D03*
Y4462500D02*
D03*
Y4937500D02*
D03*
X-560000Y3337500D02*
D03*
Y2862500D02*
D03*
D106*
X1600000Y2361000D02*
D03*
Y1561000D02*
D03*
Y1119000D02*
D03*
Y1919000D02*
D03*
D107*
X-720000Y4215000D02*
D03*
X-950000D02*
D03*
X-1180000D02*
D03*
D108*
X-710000Y4540000D02*
D03*
X-950000Y2760000D02*
D03*
X-850000Y4540000D02*
D03*
X-810000Y2760000D02*
D03*
D109*
X1137500Y4940000D02*
D03*
Y4540000D02*
D03*
Y4140000D02*
D03*
Y3740000D02*
D03*
X662500Y4940000D02*
D03*
Y4540000D02*
D03*
Y4140000D02*
D03*
Y3740000D02*
D03*
X-562500Y4850000D02*
D03*
X-1037500D02*
D03*
D110*
X-1200000Y2357500D02*
D03*
X1560000Y6907500D02*
D03*
X360000D02*
D03*
X960000D02*
D03*
X-400000Y2242500D02*
D03*
X-1200000D02*
D03*
X-400000Y2357500D02*
D03*
X1560000Y6792500D02*
D03*
X960000D02*
D03*
X360000D02*
D03*
D111*
X2040500Y6820000D02*
D03*
X1440500D02*
D03*
X840500D02*
D03*
X2040500Y6280000D02*
D03*
X1913500D02*
D03*
X1786500D02*
D03*
X1659500D02*
D03*
Y6820000D02*
D03*
X1786500D02*
D03*
X1913500D02*
D03*
X1440500Y6280000D02*
D03*
X1313500D02*
D03*
X1186500D02*
D03*
X1059500D02*
D03*
Y6820000D02*
D03*
X1186500D02*
D03*
X1313500D02*
D03*
X840500Y6280000D02*
D03*
X713500D02*
D03*
X586500D02*
D03*
X459500D02*
D03*
Y6820000D02*
D03*
X586500D02*
D03*
X713500D02*
D03*
D112*
X50000Y3260000D02*
D03*
X250000D02*
D03*
D113*
X-130000Y4740000D02*
D03*
Y4645000D02*
D03*
Y4835000D02*
D03*
X130000D02*
D03*
Y4740000D02*
D03*
Y4645000D02*
D03*
D114*
X220000Y2902500D02*
D03*
X-220000Y3097500D02*
D03*
X220000D02*
D03*
Y3032500D02*
D03*
Y2967500D02*
D03*
X-220000Y3032500D02*
D03*
Y2967500D02*
D03*
Y2902500D02*
D03*
D115*
X-330000Y400000D02*
D03*
X330000D02*
D03*
D116*
X-450000Y7600000D02*
D03*
X-150000D02*
D03*
X-1450000D02*
D03*
X-1150000D02*
D03*
X-950000D02*
D03*
X-650000D02*
D03*
D117*
X-950000Y3625000D02*
D03*
D118*
X-141000Y3350000D02*
D03*
X-239000D02*
D03*
X-49000Y4390000D02*
D03*
X49000D02*
D03*
D119*
X200000Y2497500D02*
D03*
Y2702500D02*
D03*
X300000Y2097500D02*
D03*
Y2302500D02*
D03*
X400000Y1697500D02*
D03*
Y1902500D02*
D03*
X500000Y1297500D02*
D03*
Y1502500D02*
D03*
X600000Y897500D02*
D03*
Y1102500D02*
D03*
D120*
X0Y2500000D02*
D03*
Y2700000D02*
D03*
X100000Y2100000D02*
D03*
Y2300000D02*
D03*
X200000Y1700000D02*
D03*
Y1900000D02*
D03*
X300000Y1300000D02*
D03*
Y1500000D02*
D03*
X400000Y900000D02*
D03*
Y1100000D02*
D03*
D121*
X-1600000Y500000D02*
D03*
X1600000D02*
D03*
%TF.MD5,77143241108d2bd3a08c71ab340cfef0*%
M02*
