%TF.GenerationSoftware,Altium Limited,Altium Designer,25.6.2 (33)*%
G04 Layer_Physical_Order=2*
G04 Layer_Color=6736896*
%FSLAX45Y45*%
%MOMM*%
%TF.SameCoordinates,4265A882-CCA4-4A53-A555-757F884491BB*%
%TF.FilePolarity,Positive*%
%TF.FileFunction,Copper,L2,Inr,Signal*%
%TF.Part,Single*%
G01*
G75*
%TA.AperFunction,ComponentPad*%
%ADD26O,2.44000X3.60000*%
%ADD27C,1.50000*%
%ADD28C,1.80000*%
%ADD29C,4.00000*%
%ADD30C,1.30800*%
%ADD31C,5.00000*%
%ADD32R,1.30800X1.30800*%
%ADD33O,2.40000X1.70000*%
%ADD34R,2.40000X1.70000*%
%TA.AperFunction,ViaPad*%
%ADD35C,0.60000*%
G36*
X2100000Y8475000D02*
X2100000Y8475000D01*
X2100005D01*
X2109223Y8474455D01*
X2111018Y8474278D01*
X2118245Y8472841D01*
X2125297Y8470702D01*
X2132105Y8467882D01*
X2138604Y8464408D01*
X2144732Y8460314D01*
X2150428Y8455639D01*
X2155639Y8450428D01*
X2157146Y8448591D01*
X2166031Y8435294D01*
X2171648Y8421734D01*
X2174511Y8407339D01*
X2174511Y8400001D01*
X2174511Y3659255D01*
X2174215Y3653978D01*
X2172644Y3640038D01*
X2170294Y3626207D01*
X2167172Y3612530D01*
X2163289Y3599050D01*
X2158655Y3585808D01*
X2153287Y3572847D01*
X2147200Y3560208D01*
X2140414Y3547929D01*
X2132950Y3536051D01*
X2124832Y3524610D01*
X2116085Y3513642D01*
X2106737Y3503181D01*
X2096818Y3493261D01*
X2086357Y3483914D01*
X2075389Y3475167D01*
X2063948Y3467049D01*
X2052070Y3459585D01*
X2039791Y3452799D01*
X2027152Y3446712D01*
X2014191Y3441344D01*
X2000949Y3436710D01*
X1987469Y3432827D01*
X1973792Y3429705D01*
X1959961Y3427355D01*
X1946021Y3425784D01*
X1932014Y3424998D01*
X1901508D01*
X1897337Y3424997D01*
X1889024Y3425692D01*
X1880798Y3427077D01*
X1872716Y3429141D01*
X1864834Y3431872D01*
X1857207Y3435249D01*
X1849887Y3439250D01*
X1842926Y3443847D01*
X1839649Y3446426D01*
X1834131Y3450648D01*
X1822754Y3458622D01*
X1810952Y3465952D01*
X1798762Y3472616D01*
X1786219Y3478592D01*
X1773365Y3483861D01*
X1760237Y3488409D01*
X1746877Y3492221D01*
X1733326Y3495284D01*
X1719625Y3497590D01*
X1705818Y3499131D01*
X1691947Y3499903D01*
X1685000Y3499999D01*
X1410000Y3499999D01*
X1410000Y3499999D01*
X1403053Y3499902D01*
X1389182Y3499131D01*
X1375375Y3497590D01*
X1361675Y3495284D01*
X1348124Y3492221D01*
X1334764Y3488410D01*
X1321636Y3483862D01*
X1308782Y3478592D01*
X1296240Y3472617D01*
X1284049Y3465953D01*
X1272247Y3458624D01*
X1260871Y3450649D01*
X1255353Y3446428D01*
X1252076Y3443848D01*
X1245115Y3439252D01*
X1237796Y3435251D01*
X1230168Y3431874D01*
X1222286Y3429144D01*
X1214204Y3427079D01*
X1205978Y3425694D01*
X1197665Y3425000D01*
X1149859D01*
X1149859Y3425000D01*
X1142842Y3424901D01*
X1128831Y3424114D01*
X1114887Y3422542D01*
X1101053Y3420189D01*
X1087372Y3417065D01*
X1073888Y3413177D01*
X1060644Y3408539D01*
X1047681Y3403166D01*
X1035040Y3397073D01*
X1022760Y3390281D01*
X1010881Y3382810D01*
X999440Y3374685D01*
X988473Y3365931D01*
X978014Y3356574D01*
X968097Y3346646D01*
X958752Y3336177D01*
X954304Y3330751D01*
X417333Y2656550D01*
X414709Y2653255D01*
X409100Y2646971D01*
X403147Y2641012D01*
X396870Y2635396D01*
X390287Y2630142D01*
X383419Y2625264D01*
X376289Y2620780D01*
X368918Y2616703D01*
X361331Y2613046D01*
X353550Y2609821D01*
X345600Y2607037D01*
X337507Y2604704D01*
X329295Y2602828D01*
X320991Y2601416D01*
X312621Y2600472D01*
X304211Y2600000D01*
X-170000D01*
Y2600000D01*
X-175609Y2599921D01*
X-186810Y2599292D01*
X-197958Y2598036D01*
X-209018Y2596157D01*
X-219955Y2593660D01*
X-230735Y2590555D01*
X-241324Y2586849D01*
X-251689Y2582556D01*
X-261796Y2577689D01*
X-271615Y2572262D01*
X-281114Y2566294D01*
X-290263Y2559802D01*
X-299034Y2552807D01*
X-307399Y2545332D01*
X-315332Y2537399D01*
X-322807Y2529034D01*
X-329802Y2520263D01*
X-336294Y2511114D01*
X-342262Y2501615D01*
X-347689Y2491796D01*
X-352557Y2481688D01*
X-356850Y2471324D01*
X-360555Y2460735D01*
X-363661Y2449955D01*
X-366157Y2439018D01*
X-368036Y2427958D01*
X-369292Y2416810D01*
X-369921Y2405609D01*
X-370000Y2400000D01*
X-370000Y2200000D01*
X-370001Y2200000D01*
Y2196087D01*
X-370532Y2188279D01*
X-371594Y2180526D01*
X-373180Y2172862D01*
X-375283Y2165325D01*
X-377894Y2157947D01*
X-381000Y2150764D01*
X-384587Y2143809D01*
X-388638Y2137114D01*
X-393136Y2130709D01*
X-398058Y2124625D01*
X-403382Y2118890D01*
X-406233Y2116210D01*
X-410823Y2111783D01*
X-419658Y2102585D01*
X-428012Y2092949D01*
X-435863Y2082900D01*
X-443192Y2072463D01*
X-449980Y2061666D01*
X-456207Y2050537D01*
X-461859Y2039105D01*
X-466921Y2027399D01*
X-471380Y2015451D01*
X-475223Y2003291D01*
X-478441Y1990950D01*
X-481025Y1978462D01*
X-482970Y1965858D01*
X-484269Y1953171D01*
X-484919Y1940435D01*
X-485000Y1934058D01*
Y1611157D01*
X-485001Y1611156D01*
X-485000Y1605474D01*
X-485517Y1594119D01*
X-486549Y1582801D01*
X-488094Y1571541D01*
X-490149Y1560362D01*
X-492710Y1549289D01*
X-495771Y1538343D01*
X-499327Y1527548D01*
X-503369Y1516926D01*
X-507891Y1506498D01*
X-512881Y1496286D01*
X-518330Y1486312D01*
X-521278Y1481454D01*
X-526008Y1473508D01*
X-535058Y1457380D01*
X-543553Y1440953D01*
X-551484Y1424246D01*
X-558840Y1407279D01*
X-565614Y1390071D01*
X-571797Y1372641D01*
X-577382Y1355012D01*
X-582364Y1337202D01*
X-586735Y1319232D01*
X-590492Y1301124D01*
X-593629Y1282898D01*
X-596143Y1264577D01*
X-598031Y1246180D01*
X-599291Y1227729D01*
X-599921Y1209246D01*
X-600000Y1200000D01*
Y930000D01*
X-599902Y922988D01*
X-599116Y908987D01*
X-597545Y895052D01*
X-595196Y881227D01*
X-592076Y867556D01*
X-588194Y854081D01*
X-583562Y840844D01*
X-578196Y827889D01*
X-572112Y815254D01*
X-565328Y802981D01*
X-557868Y791107D01*
X-549753Y779671D01*
X-541010Y768707D01*
X-531665Y758250D01*
X-521750Y748335D01*
X-511293Y738990D01*
X-500329Y730247D01*
X-488893Y722132D01*
X-477019Y714672D01*
X-464746Y707888D01*
X-452111Y701804D01*
X-439156Y696438D01*
X-425919Y691806D01*
X-412444Y687924D01*
X-398773Y684804D01*
X-384948Y682455D01*
X-371013Y680884D01*
X-357012Y680098D01*
X-350000Y680000D01*
X-257500D01*
Y680000D01*
X-252982D01*
X-243973Y679290D01*
X-235048Y677877D01*
X-226261Y675767D01*
X-217666Y672975D01*
X-209318Y669517D01*
X-201266Y665414D01*
X-193561Y660692D01*
X-186250Y655381D01*
X-179378Y649512D01*
X-172988Y643122D01*
X-167120Y636250D01*
X-161808Y628940D01*
X-157086Y621234D01*
X-152984Y613183D01*
X-149525Y604834D01*
X-146733Y596239D01*
X-144623Y587452D01*
X-143210Y578527D01*
X-142501Y569518D01*
X-142500Y99998D01*
X-142501D01*
Y96314D01*
X-143223Y88980D01*
X-144661Y81753D01*
X-146800Y74701D01*
X-149620Y67893D01*
X-153093Y61394D01*
X-157187Y55267D01*
X-161862Y49571D01*
X-167073Y44360D01*
X-172769Y39685D01*
X-178897Y35591D01*
X-185395Y32117D01*
X-192203Y29297D01*
X-199255Y27158D01*
X-206482Y25721D01*
X-208843Y25488D01*
X-2107339D01*
X-2121734Y28351D01*
X-2135294Y33968D01*
X-2147499Y42123D01*
X-2157876Y52501D01*
X-2166031Y64705D01*
X-2171648Y78266D01*
X-2174512Y92661D01*
Y100000D01*
Y8400000D01*
X-2174999Y8402452D01*
Y8403685D01*
X-2174277Y8411018D01*
X-2172839Y8418246D01*
X-2170700Y8425297D01*
X-2167880Y8432105D01*
X-2164407Y8438604D01*
X-2160313Y8444731D01*
X-2155638Y8450428D01*
X-2150427Y8455638D01*
X-2144731Y8460313D01*
X-2138604Y8464407D01*
X-2132105Y8467881D01*
X-2125297Y8470701D01*
X-2118245Y8472840D01*
X-2111018Y8474277D01*
X-2103684Y8475000D01*
X-2100000D01*
X2099999Y8475001D01*
X2100000Y8475000D01*
D02*
G37*
G36*
X1748912Y2949383D02*
X1756674Y2948154D01*
X1764314Y2946319D01*
X1771788Y2943891D01*
X1779048Y2940884D01*
X1786050Y2937317D01*
X1792750Y2933211D01*
X1799107Y2928592D01*
X1805082Y2923489D01*
X1810638Y2917932D01*
X1815742Y2911957D01*
X1820361Y2905600D01*
X1824467Y2898900D01*
X1828034Y2891898D01*
X1831041Y2884638D01*
X1833469Y2877165D01*
X1835304Y2869524D01*
X1836533Y2861763D01*
X1837150Y2853929D01*
Y2850000D01*
Y2353050D01*
Y2349121D01*
X1836533Y2341287D01*
X1835304Y2333526D01*
X1833469Y2325885D01*
X1831041Y2318412D01*
X1828034Y2311152D01*
X1824467Y2304150D01*
X1820361Y2297450D01*
X1815742Y2291093D01*
X1810638Y2285118D01*
X1805082Y2279561D01*
X1799107Y2274458D01*
X1792750Y2269839D01*
X1786050Y2265733D01*
X1779048Y2262166D01*
X1771788Y2259159D01*
X1764314Y2256730D01*
X1756674Y2254896D01*
X1748912Y2253667D01*
X1741079Y2253050D01*
X1406071D01*
X1398237Y2253667D01*
X1390476Y2254896D01*
X1382835Y2256730D01*
X1375361Y2259159D01*
X1368102Y2262166D01*
X1361100Y2265733D01*
X1354400Y2269839D01*
X1348043Y2274458D01*
X1342067Y2279561D01*
X1336511Y2285118D01*
X1331408Y2291093D01*
X1326789Y2297450D01*
X1322683Y2304150D01*
X1319115Y2311152D01*
X1316108Y2318412D01*
X1313680Y2325885D01*
X1311845Y2333526D01*
X1310616Y2341287D01*
X1310000Y2349121D01*
Y2353050D01*
Y2850000D01*
Y2853929D01*
X1310616Y2861763D01*
X1311845Y2869524D01*
X1313680Y2877165D01*
X1316108Y2884638D01*
X1319115Y2891898D01*
X1322683Y2898900D01*
X1326789Y2905600D01*
X1331408Y2911957D01*
X1336511Y2917932D01*
X1342067Y2923489D01*
X1348043Y2928592D01*
X1354400Y2933211D01*
X1361100Y2937317D01*
X1368102Y2940884D01*
X1375361Y2943891D01*
X1382835Y2946319D01*
X1390476Y2948154D01*
X1398237Y2949383D01*
X1406071Y2950000D01*
X1741079D01*
X1748912Y2949383D01*
D02*
G37*
G36*
X2086764Y1226333D02*
X2094525Y1225104D01*
X2102166Y1223270D01*
X2109640Y1220841D01*
X2116899Y1217834D01*
X2123901Y1214267D01*
X2130601Y1210161D01*
X2136958Y1205542D01*
X2142934Y1200439D01*
X2148490Y1194882D01*
X2153594Y1188907D01*
X2158212Y1182550D01*
X2162318Y1175850D01*
X2165886Y1168848D01*
X2168893Y1161588D01*
X2171321Y1154115D01*
X2173156Y1146474D01*
X2174385Y1138713D01*
X2175001Y1130879D01*
Y1126950D01*
Y100000D01*
Y96315D01*
X2174279Y88981D01*
X2172841Y81754D01*
X2170702Y74702D01*
X2167882Y67894D01*
X2164408Y61395D01*
X2160314Y55267D01*
X2155639Y49571D01*
X2150429Y44360D01*
X2144732Y39685D01*
X2138605Y35591D01*
X2132106Y32117D01*
X2125298Y29297D01*
X2118246Y27158D01*
X2111018Y25720D01*
X2103684Y24998D01*
X213816D01*
X206482Y25720D01*
X199255Y27158D01*
X192203Y29297D01*
X185395Y32117D01*
X178896Y35591D01*
X172769Y39685D01*
X167072Y44360D01*
X161862Y49570D01*
X157187Y55267D01*
X153093Y61394D01*
X149619Y67893D01*
X146799Y74701D01*
X144660Y81753D01*
X143222Y88980D01*
X142500Y96314D01*
Y99998D01*
Y822499D01*
Y827509D01*
X143286Y837497D01*
X144853Y847393D01*
X147192Y857135D01*
X150288Y866663D01*
X154122Y875920D01*
X158671Y884847D01*
X163906Y893389D01*
X169795Y901495D01*
X176302Y909113D01*
X183386Y916198D01*
X191005Y922705D01*
X199110Y928594D01*
X207653Y933828D01*
X216580Y938377D01*
X225836Y942211D01*
X235365Y945307D01*
X245107Y947646D01*
X255003Y949213D01*
X264991Y950000D01*
X674974D01*
X684898Y949341D01*
X694757Y948026D01*
X704507Y946061D01*
X714106Y943455D01*
X723511Y940218D01*
X732681Y936366D01*
X741576Y931915D01*
X750156Y926884D01*
X758385Y921296D01*
X766225Y915176D01*
X773642Y908549D01*
X780605Y901446D01*
X787081Y893897D01*
X793044Y885936D01*
X798466Y877597D01*
X803323Y868918D01*
X807595Y859936D01*
X811263Y850690D01*
X814310Y841222D01*
X815517Y836398D01*
X824483Y800552D01*
X824483Y800552D01*
X825769Y795750D01*
X828815Y786287D01*
X832481Y777047D01*
X836751Y768070D01*
X841606Y759395D01*
X847024Y751061D01*
X852984Y743104D01*
X859456Y735559D01*
X866415Y728460D01*
X873829Y721837D01*
X881664Y715720D01*
X889888Y710135D01*
X898464Y705107D01*
X907354Y700658D01*
X916519Y696808D01*
X925919Y693573D01*
X935512Y690969D01*
X945257Y689005D01*
X955111Y687691D01*
X965030Y687032D01*
X970000Y686950D01*
X1112849D01*
X1119861Y687048D01*
X1133862Y687835D01*
X1147797Y689405D01*
X1161622Y691754D01*
X1175293Y694874D01*
X1188769Y698756D01*
X1202005Y703388D01*
X1214960Y708754D01*
X1227595Y714839D01*
X1239868Y721622D01*
X1251742Y729083D01*
X1263179Y737197D01*
X1274142Y745941D01*
X1284599Y755285D01*
X1294514Y765201D01*
X1303859Y775657D01*
X1312602Y786621D01*
X1320717Y798057D01*
X1328177Y809931D01*
X1334961Y822205D01*
X1341045Y834839D01*
X1346412Y847795D01*
X1351043Y861031D01*
X1354925Y874506D01*
X1358046Y888177D01*
X1360395Y902003D01*
X1361965Y915937D01*
X1362751Y929938D01*
X1362849Y936950D01*
Y1126950D01*
Y1130879D01*
X1363466Y1138713D01*
X1364695Y1146474D01*
X1366530Y1154115D01*
X1368958Y1161588D01*
X1371965Y1168848D01*
X1375532Y1175850D01*
X1379638Y1182550D01*
X1384257Y1188907D01*
X1389360Y1194882D01*
X1394917Y1200439D01*
X1400892Y1205542D01*
X1407249Y1210161D01*
X1413949Y1214267D01*
X1420951Y1217834D01*
X1428211Y1220841D01*
X1435684Y1223270D01*
X1443325Y1225104D01*
X1451087Y1226333D01*
X1458920Y1226950D01*
X2078930D01*
X2086764Y1226333D01*
D02*
G37*
%LPC*%
G36*
X1062700Y8314757D02*
Y8212700D01*
X1164757D01*
X1164688Y8213574D01*
X1163270Y8222531D01*
X1161153Y8231348D01*
X1158351Y8239973D01*
X1154880Y8248351D01*
X1150764Y8256430D01*
X1146025Y8264162D01*
X1140695Y8271498D01*
X1134806Y8278394D01*
X1128394Y8284806D01*
X1121498Y8290695D01*
X1114162Y8296025D01*
X1106430Y8300763D01*
X1098351Y8304880D01*
X1089973Y8308351D01*
X1081348Y8311153D01*
X1072531Y8313270D01*
X1063574Y8314688D01*
X1062700Y8314757D01*
D02*
G37*
G36*
X955488Y8399000D02*
X948512D01*
X941569Y8398316D01*
X934728Y8396955D01*
X928052Y8394930D01*
X921607Y8392260D01*
X915455Y8388972D01*
X909654Y8385096D01*
X904262Y8380671D01*
X899329Y8375738D01*
X894903Y8370345D01*
X891028Y8364545D01*
X887739Y8358393D01*
X885070Y8351948D01*
X883045Y8345272D01*
X881684Y8338430D01*
X881000Y8331488D01*
Y8324512D01*
X881684Y8317569D01*
X883045Y8310728D01*
X885070Y8304052D01*
X887739Y8297607D01*
X891028Y8291455D01*
X894903Y8285654D01*
X899329Y8280262D01*
X904262Y8275329D01*
X909654Y8270903D01*
X915455Y8267028D01*
X921607Y8263739D01*
X928052Y8261070D01*
X934728Y8259045D01*
X938920Y8258211D01*
X943856Y8251300D01*
X944696Y8247327D01*
X941649Y8239973D01*
X938847Y8231348D01*
X936730Y8222531D01*
X935312Y8213574D01*
X935243Y8212700D01*
X1037300D01*
Y8314757D01*
X1036426Y8314688D01*
X1031793Y8313954D01*
X1029731Y8314741D01*
X1024109Y8319855D01*
X1022795Y8322432D01*
X1023000Y8324512D01*
Y8331488D01*
X1022316Y8338430D01*
X1020955Y8345272D01*
X1018930Y8351948D01*
X1016260Y8358393D01*
X1012972Y8364545D01*
X1009096Y8370345D01*
X1004671Y8375738D01*
X999738Y8380671D01*
X994345Y8385096D01*
X988545Y8388972D01*
X982393Y8392260D01*
X975948Y8394930D01*
X969272Y8396955D01*
X962430Y8398316D01*
X955488Y8399000D01*
D02*
G37*
G36*
X1037300Y8187300D02*
X935243D01*
X935312Y8186426D01*
X936730Y8177469D01*
X938847Y8168651D01*
X941649Y8160027D01*
X945120Y8151649D01*
X949236Y8143569D01*
X953974Y8135838D01*
X959304Y8128501D01*
X965194Y8121606D01*
X971606Y8115194D01*
X978501Y8109304D01*
X985838Y8103974D01*
X993570Y8099236D01*
X1001649Y8095119D01*
X1010027Y8091649D01*
X1018652Y8088847D01*
X1027469Y8086730D01*
X1036426Y8085311D01*
X1037300Y8085243D01*
Y8187300D01*
D02*
G37*
G36*
X1164757D02*
X1062700D01*
Y8085243D01*
X1063574Y8085311D01*
X1072531Y8086730D01*
X1081348Y8088847D01*
X1089973Y8091649D01*
X1098351Y8095119D01*
X1106430Y8099236D01*
X1114162Y8103974D01*
X1121498Y8109304D01*
X1128394Y8115194D01*
X1134806Y8121606D01*
X1140695Y8128501D01*
X1146025Y8135838D01*
X1150764Y8143569D01*
X1154880Y8151649D01*
X1158351Y8160027D01*
X1161153Y8168651D01*
X1163270Y8177469D01*
X1164688Y8186426D01*
X1164757Y8187300D01*
D02*
G37*
G36*
X1354518Y8315000D02*
X1345481D01*
X1336473Y8314290D01*
X1327547Y8312877D01*
X1318760Y8310767D01*
X1310166Y8307975D01*
X1301817Y8304517D01*
X1293765Y8300414D01*
X1286060Y8295692D01*
X1278749Y8290381D01*
X1271878Y8284512D01*
X1265488Y8278122D01*
X1259619Y8271250D01*
X1254307Y8263940D01*
X1249586Y8256234D01*
X1245483Y8248183D01*
X1242025Y8239834D01*
X1239232Y8231240D01*
X1237123Y8222452D01*
X1235709Y8213527D01*
X1235000Y8204518D01*
Y8195481D01*
X1235709Y8186473D01*
X1237123Y8177547D01*
X1239232Y8168760D01*
X1242025Y8160166D01*
X1245483Y8151817D01*
X1249586Y8143765D01*
X1254307Y8136060D01*
X1259619Y8128749D01*
X1265488Y8121878D01*
X1271878Y8115488D01*
X1278749Y8109619D01*
X1286060Y8104307D01*
X1293765Y8099586D01*
X1301817Y8095483D01*
X1310166Y8092025D01*
X1318760Y8089232D01*
X1327547Y8087123D01*
X1336473Y8085709D01*
X1345481Y8085000D01*
X1354518D01*
X1363527Y8085709D01*
X1372452Y8087123D01*
X1381240Y8089232D01*
X1389834Y8092025D01*
X1398183Y8095483D01*
X1406234Y8099586D01*
X1413940Y8104307D01*
X1421250Y8109619D01*
X1428122Y8115488D01*
X1434512Y8121878D01*
X1440381Y8128749D01*
X1445692Y8136060D01*
X1450414Y8143765D01*
X1454517Y8151817D01*
X1457975Y8160166D01*
X1460767Y8168760D01*
X1462877Y8177547D01*
X1464290Y8186473D01*
X1465000Y8195481D01*
Y8204518D01*
X1464290Y8213527D01*
X1462877Y8222452D01*
X1460767Y8231240D01*
X1457975Y8239834D01*
X1454517Y8248183D01*
X1450414Y8256234D01*
X1445692Y8263940D01*
X1440381Y8271250D01*
X1434512Y8278122D01*
X1428122Y8284512D01*
X1421250Y8290381D01*
X1413940Y8295692D01*
X1406234Y8300414D01*
X1398183Y8304517D01*
X1389834Y8307975D01*
X1381240Y8310767D01*
X1372452Y8312877D01*
X1363527Y8314290D01*
X1354518Y8315000D01*
D02*
G37*
G36*
X-9600Y8175400D02*
X-190400D01*
Y7994600D01*
X-9600D01*
Y8175400D01*
D02*
G37*
G36*
X-296053D02*
X-303947D01*
X-311811Y8174712D01*
X-319585Y8173341D01*
X-327210Y8171298D01*
X-334627Y8168598D01*
X-341782Y8165262D01*
X-348618Y8161315D01*
X-355084Y8156787D01*
X-361131Y8151713D01*
X-366713Y8146131D01*
X-371787Y8140084D01*
X-376315Y8133618D01*
X-380262Y8126782D01*
X-383598Y8119627D01*
X-386298Y8112210D01*
X-388341Y8104585D01*
X-389712Y8096811D01*
X-390400Y8088947D01*
Y8081053D01*
X-389712Y8073189D01*
X-388341Y8065415D01*
X-386298Y8057790D01*
X-383598Y8050372D01*
X-380262Y8043218D01*
X-376315Y8036382D01*
X-371787Y8029915D01*
X-366713Y8023868D01*
X-361131Y8018286D01*
X-355084Y8013213D01*
X-348618Y8008685D01*
X-341782Y8004738D01*
X-334627Y8001402D01*
X-327210Y7998702D01*
X-319585Y7996659D01*
X-311811Y7995288D01*
X-303947Y7994600D01*
X-296053D01*
X-288189Y7995288D01*
X-280415Y7996659D01*
X-272790Y7998702D01*
X-265372Y8001402D01*
X-258218Y8004738D01*
X-251382Y8008685D01*
X-244915Y8013213D01*
X-238868Y8018286D01*
X-233287Y8023868D01*
X-228213Y8029915D01*
X-223685Y8036382D01*
X-219738Y8043218D01*
X-216402Y8050372D01*
X-213702Y8057790D01*
X-211659Y8065415D01*
X-210288Y8073189D01*
X-209600Y8081053D01*
Y8088947D01*
X-210288Y8096811D01*
X-211659Y8104585D01*
X-213702Y8112210D01*
X-216402Y8119627D01*
X-219738Y8126782D01*
X-223685Y8133618D01*
X-228213Y8140084D01*
X-233287Y8146131D01*
X-238868Y8151713D01*
X-244915Y8156787D01*
X-251382Y8161315D01*
X-258218Y8165262D01*
X-265372Y8168598D01*
X-272790Y8171298D01*
X-280415Y8173341D01*
X-288189Y8174712D01*
X-296053Y8175400D01*
D02*
G37*
G36*
X-696053D02*
X-703947D01*
X-711811Y8174712D01*
X-719585Y8173341D01*
X-727210Y8171298D01*
X-734627Y8168598D01*
X-741782Y8165262D01*
X-748618Y8161315D01*
X-755084Y8156787D01*
X-761131Y8151713D01*
X-766713Y8146131D01*
X-771787Y8140084D01*
X-776315Y8133618D01*
X-780262Y8126782D01*
X-783598Y8119627D01*
X-786298Y8112210D01*
X-788341Y8104585D01*
X-789712Y8096811D01*
X-790400Y8088947D01*
Y8081053D01*
X-789712Y8073189D01*
X-788341Y8065415D01*
X-786298Y8057790D01*
X-783598Y8050372D01*
X-780262Y8043218D01*
X-776315Y8036382D01*
X-771787Y8029915D01*
X-766713Y8023868D01*
X-761131Y8018286D01*
X-755084Y8013213D01*
X-748618Y8008685D01*
X-741782Y8004738D01*
X-734627Y8001402D01*
X-727210Y7998702D01*
X-719585Y7996659D01*
X-711811Y7995288D01*
X-703947Y7994600D01*
X-696053D01*
X-688189Y7995288D01*
X-680415Y7996659D01*
X-672790Y7998702D01*
X-665372Y8001402D01*
X-658218Y8004738D01*
X-651382Y8008685D01*
X-644915Y8013213D01*
X-638868Y8018286D01*
X-633287Y8023868D01*
X-628213Y8029915D01*
X-623685Y8036382D01*
X-619738Y8043218D01*
X-616402Y8050372D01*
X-613702Y8057790D01*
X-611659Y8065415D01*
X-610288Y8073189D01*
X-609600Y8081053D01*
Y8088947D01*
X-610288Y8096811D01*
X-611659Y8104585D01*
X-613702Y8112210D01*
X-616402Y8119627D01*
X-619738Y8126782D01*
X-623685Y8133618D01*
X-628213Y8140084D01*
X-633287Y8146131D01*
X-638868Y8151713D01*
X-644915Y8156787D01*
X-651382Y8161315D01*
X-658218Y8165262D01*
X-665372Y8168598D01*
X-672790Y8171298D01*
X-680415Y8173341D01*
X-688189Y8174712D01*
X-696053Y8175400D01*
D02*
G37*
G36*
X-896053D02*
X-903947D01*
X-911811Y8174712D01*
X-919585Y8173341D01*
X-927210Y8171298D01*
X-934628Y8168598D01*
X-941782Y8165262D01*
X-948618Y8161315D01*
X-955084Y8156787D01*
X-961131Y8151713D01*
X-966713Y8146131D01*
X-971787Y8140084D01*
X-976315Y8133618D01*
X-980262Y8126782D01*
X-983598Y8119627D01*
X-986298Y8112210D01*
X-988341Y8104585D01*
X-989712Y8096811D01*
X-990400Y8088947D01*
Y8081053D01*
X-989712Y8073189D01*
X-988341Y8065415D01*
X-986298Y8057790D01*
X-983598Y8050372D01*
X-980262Y8043218D01*
X-976315Y8036382D01*
X-971787Y8029915D01*
X-966713Y8023868D01*
X-961131Y8018286D01*
X-955084Y8013213D01*
X-948618Y8008685D01*
X-941782Y8004738D01*
X-934628Y8001402D01*
X-927210Y7998702D01*
X-919585Y7996659D01*
X-911811Y7995288D01*
X-903947Y7994600D01*
X-896053D01*
X-888189Y7995288D01*
X-880415Y7996659D01*
X-872790Y7998702D01*
X-865372Y8001402D01*
X-858218Y8004738D01*
X-851382Y8008685D01*
X-844916Y8013213D01*
X-838869Y8018286D01*
X-833287Y8023868D01*
X-828213Y8029915D01*
X-823685Y8036382D01*
X-819738Y8043218D01*
X-816402Y8050372D01*
X-813702Y8057790D01*
X-811659Y8065415D01*
X-810288Y8073189D01*
X-809600Y8081053D01*
Y8088947D01*
X-810288Y8096811D01*
X-811659Y8104585D01*
X-813702Y8112210D01*
X-816402Y8119627D01*
X-819738Y8126782D01*
X-823685Y8133618D01*
X-828213Y8140084D01*
X-833287Y8146131D01*
X-838869Y8151713D01*
X-844916Y8156787D01*
X-851382Y8161315D01*
X-858218Y8165262D01*
X-865372Y8168598D01*
X-872790Y8171298D01*
X-880415Y8173341D01*
X-888189Y8174712D01*
X-896053Y8175400D01*
D02*
G37*
G36*
X-1296053D02*
X-1303947D01*
X-1311811Y8174712D01*
X-1319585Y8173341D01*
X-1327210Y8171298D01*
X-1334628Y8168598D01*
X-1341782Y8165262D01*
X-1348618Y8161315D01*
X-1355084Y8156787D01*
X-1361131Y8151713D01*
X-1366713Y8146131D01*
X-1371787Y8140084D01*
X-1376315Y8133618D01*
X-1380262Y8126782D01*
X-1383598Y8119627D01*
X-1386298Y8112210D01*
X-1388341Y8104585D01*
X-1389712Y8096811D01*
X-1390400Y8088947D01*
Y8081053D01*
X-1389712Y8073189D01*
X-1388341Y8065415D01*
X-1386298Y8057790D01*
X-1383598Y8050372D01*
X-1380262Y8043218D01*
X-1376315Y8036382D01*
X-1371787Y8029915D01*
X-1366713Y8023868D01*
X-1361131Y8018286D01*
X-1355084Y8013213D01*
X-1348618Y8008685D01*
X-1341782Y8004738D01*
X-1334628Y8001402D01*
X-1327210Y7998702D01*
X-1319585Y7996659D01*
X-1311811Y7995288D01*
X-1303947Y7994600D01*
X-1296053D01*
X-1288189Y7995288D01*
X-1280415Y7996659D01*
X-1272790Y7998702D01*
X-1265372Y8001402D01*
X-1258218Y8004738D01*
X-1251382Y8008685D01*
X-1244915Y8013213D01*
X-1238868Y8018286D01*
X-1233287Y8023868D01*
X-1228213Y8029915D01*
X-1223685Y8036382D01*
X-1219738Y8043218D01*
X-1216402Y8050372D01*
X-1213702Y8057790D01*
X-1211659Y8065415D01*
X-1210288Y8073189D01*
X-1209600Y8081053D01*
Y8088947D01*
X-1210288Y8096811D01*
X-1211659Y8104585D01*
X-1213702Y8112210D01*
X-1216402Y8119627D01*
X-1219738Y8126782D01*
X-1223685Y8133618D01*
X-1228213Y8140084D01*
X-1233287Y8146131D01*
X-1238868Y8151713D01*
X-1244915Y8156787D01*
X-1251382Y8161315D01*
X-1258218Y8165262D01*
X-1265372Y8168598D01*
X-1272790Y8171298D01*
X-1280415Y8173341D01*
X-1288189Y8174712D01*
X-1296053Y8175400D01*
D02*
G37*
G36*
X-1496053D02*
X-1503947D01*
X-1511811Y8174712D01*
X-1519585Y8173341D01*
X-1527210Y8171298D01*
X-1534628Y8168598D01*
X-1541782Y8165262D01*
X-1548618Y8161315D01*
X-1555085Y8156787D01*
X-1561131Y8151713D01*
X-1566713Y8146131D01*
X-1571787Y8140084D01*
X-1576315Y8133618D01*
X-1580262Y8126782D01*
X-1583598Y8119627D01*
X-1586298Y8112210D01*
X-1588341Y8104585D01*
X-1589712Y8096811D01*
X-1590400Y8088947D01*
Y8081053D01*
X-1589712Y8073189D01*
X-1588341Y8065415D01*
X-1586298Y8057790D01*
X-1583598Y8050372D01*
X-1580262Y8043218D01*
X-1576315Y8036382D01*
X-1571787Y8029915D01*
X-1566713Y8023868D01*
X-1561131Y8018286D01*
X-1555085Y8013213D01*
X-1548618Y8008685D01*
X-1541782Y8004738D01*
X-1534628Y8001402D01*
X-1527210Y7998702D01*
X-1519585Y7996659D01*
X-1511811Y7995288D01*
X-1503947Y7994600D01*
X-1496053D01*
X-1488189Y7995288D01*
X-1480415Y7996659D01*
X-1472790Y7998702D01*
X-1465372Y8001402D01*
X-1458218Y8004738D01*
X-1451382Y8008685D01*
X-1444916Y8013213D01*
X-1438869Y8018286D01*
X-1433287Y8023868D01*
X-1428213Y8029915D01*
X-1423685Y8036382D01*
X-1419738Y8043218D01*
X-1416402Y8050372D01*
X-1413702Y8057790D01*
X-1411659Y8065415D01*
X-1410288Y8073189D01*
X-1409600Y8081053D01*
Y8088947D01*
X-1410288Y8096811D01*
X-1411659Y8104585D01*
X-1413702Y8112210D01*
X-1416402Y8119627D01*
X-1419738Y8126782D01*
X-1423685Y8133618D01*
X-1428213Y8140084D01*
X-1433287Y8146131D01*
X-1438869Y8151713D01*
X-1444916Y8156787D01*
X-1451382Y8161315D01*
X-1458218Y8165262D01*
X-1465372Y8168598D01*
X-1472790Y8171298D01*
X-1480415Y8173341D01*
X-1488189Y8174712D01*
X-1496053Y8175400D01*
D02*
G37*
G36*
X1062700Y8014757D02*
Y7912700D01*
X1164757D01*
X1164688Y7913574D01*
X1163269Y7922531D01*
X1161153Y7931348D01*
X1158350Y7939973D01*
X1154880Y7948351D01*
X1150763Y7956430D01*
X1146025Y7964162D01*
X1140695Y7971498D01*
X1134806Y7978394D01*
X1128394Y7984806D01*
X1121498Y7990695D01*
X1114162Y7996025D01*
X1106430Y8000764D01*
X1098350Y8004880D01*
X1089972Y8008351D01*
X1081348Y8011153D01*
X1072530Y8013270D01*
X1063574Y8014688D01*
X1062700Y8014757D01*
D02*
G37*
G36*
X1037300D02*
X1036425Y8014688D01*
X1027469Y8013270D01*
X1018651Y8011153D01*
X1010027Y8008351D01*
X1001649Y8004880D01*
X993569Y8000764D01*
X985838Y7996025D01*
X978501Y7990695D01*
X971606Y7984806D01*
X965194Y7978394D01*
X959304Y7971498D01*
X953974Y7964162D01*
X949236Y7956430D01*
X945119Y7948351D01*
X941649Y7939973D01*
X938847Y7931348D01*
X936730Y7922531D01*
X935311Y7913574D01*
X935242Y7912700D01*
X1037300D01*
Y8014757D01*
D02*
G37*
G36*
X1164757Y7887300D02*
X1062700D01*
Y7785243D01*
X1063574Y7785312D01*
X1072530Y7786730D01*
X1081348Y7788847D01*
X1089972Y7791649D01*
X1098350Y7795120D01*
X1106430Y7799236D01*
X1114162Y7803974D01*
X1121498Y7809304D01*
X1128394Y7815194D01*
X1134806Y7821606D01*
X1140695Y7828501D01*
X1146025Y7835838D01*
X1150763Y7843570D01*
X1154880Y7851649D01*
X1158350Y7860027D01*
X1161153Y7868652D01*
X1163269Y7877469D01*
X1164688Y7886426D01*
X1164757Y7887300D01*
D02*
G37*
G36*
X1037300D02*
X935242D01*
X935311Y7886426D01*
X936730Y7877469D01*
X938847Y7868652D01*
X941649Y7860027D01*
X945119Y7851649D01*
X949236Y7843570D01*
X953974Y7835838D01*
X959304Y7828501D01*
X965194Y7821606D01*
X971606Y7815194D01*
X978501Y7809304D01*
X985838Y7803974D01*
X993569Y7799236D01*
X1001649Y7795120D01*
X1010027Y7791649D01*
X1018651Y7788847D01*
X1027469Y7786730D01*
X1036425Y7785312D01*
X1037300Y7785243D01*
Y7887300D01*
D02*
G37*
G36*
X1354518Y8015000D02*
X1345482D01*
X1336473Y8014291D01*
X1327548Y8012877D01*
X1318760Y8010767D01*
X1310166Y8007975D01*
X1301817Y8004517D01*
X1293766Y8000414D01*
X1286060Y7995692D01*
X1278750Y7990381D01*
X1271878Y7984512D01*
X1265488Y7978122D01*
X1259619Y7971251D01*
X1254308Y7963940D01*
X1249586Y7956235D01*
X1245483Y7948183D01*
X1242025Y7939834D01*
X1239233Y7931240D01*
X1237123Y7922453D01*
X1235709Y7913527D01*
X1235000Y7904518D01*
Y7895482D01*
X1235709Y7886473D01*
X1237123Y7877547D01*
X1239233Y7868760D01*
X1242025Y7860166D01*
X1245483Y7851817D01*
X1249586Y7843765D01*
X1254308Y7836060D01*
X1259619Y7828749D01*
X1265488Y7821878D01*
X1271878Y7815488D01*
X1278750Y7809619D01*
X1286060Y7804307D01*
X1293766Y7799586D01*
X1301817Y7795483D01*
X1310166Y7792025D01*
X1318760Y7789233D01*
X1327548Y7787123D01*
X1336473Y7785709D01*
X1345482Y7785000D01*
X1354518D01*
X1363527Y7785709D01*
X1372453Y7787123D01*
X1381240Y7789233D01*
X1389834Y7792025D01*
X1398183Y7795483D01*
X1406235Y7799586D01*
X1413940Y7804307D01*
X1421251Y7809619D01*
X1428122Y7815488D01*
X1434512Y7821878D01*
X1440381Y7828749D01*
X1445693Y7836060D01*
X1450414Y7843765D01*
X1454517Y7851817D01*
X1457975Y7860166D01*
X1460767Y7868760D01*
X1462877Y7877547D01*
X1464291Y7886473D01*
X1465000Y7895482D01*
Y7904518D01*
X1464291Y7913527D01*
X1462877Y7922453D01*
X1460767Y7931240D01*
X1457975Y7939834D01*
X1454517Y7948183D01*
X1450414Y7956235D01*
X1445693Y7963940D01*
X1440381Y7971251D01*
X1434512Y7978122D01*
X1428122Y7984512D01*
X1421251Y7990381D01*
X1413940Y7995692D01*
X1406235Y8000414D01*
X1398183Y8004517D01*
X1389834Y8007975D01*
X1381240Y8010767D01*
X1372453Y8012877D01*
X1363527Y8014291D01*
X1354518Y8015000D01*
D02*
G37*
G36*
X1062700Y7714757D02*
Y7612700D01*
X1164757D01*
X1164688Y7613574D01*
X1163270Y7622531D01*
X1161153Y7631348D01*
X1158351Y7639973D01*
X1154880Y7648351D01*
X1150764Y7656430D01*
X1146025Y7664162D01*
X1140695Y7671498D01*
X1134806Y7678394D01*
X1128394Y7684806D01*
X1121498Y7690696D01*
X1114162Y7696026D01*
X1106430Y7700764D01*
X1098351Y7704880D01*
X1089973Y7708351D01*
X1081348Y7711153D01*
X1072531Y7713270D01*
X1063574Y7714688D01*
X1062700Y7714757D01*
D02*
G37*
G36*
X1037300D02*
X1036426Y7714688D01*
X1027469Y7713270D01*
X1018652Y7711153D01*
X1010027Y7708351D01*
X1001649Y7704880D01*
X993570Y7700764D01*
X985838Y7696026D01*
X978501Y7690696D01*
X971606Y7684806D01*
X965194Y7678394D01*
X959304Y7671498D01*
X953974Y7664162D01*
X949236Y7656430D01*
X945120Y7648351D01*
X941649Y7639973D01*
X938847Y7631348D01*
X936730Y7622531D01*
X935312Y7613574D01*
X935243Y7612700D01*
X1037300D01*
Y7714757D01*
D02*
G37*
G36*
X2048089Y7710000D02*
X2041911D01*
X2035773Y7709308D01*
X2029750Y7707934D01*
X2023919Y7705893D01*
X2018354Y7703213D01*
X2013123Y7699926D01*
X2008293Y7696075D01*
X2003925Y7691707D01*
X2000073Y7686877D01*
X1996787Y7681646D01*
X1994107Y7676081D01*
X1992066Y7670250D01*
X1990692Y7664227D01*
X1990000Y7658089D01*
Y7651911D01*
X1990692Y7645773D01*
X1992066Y7639750D01*
X1994107Y7633919D01*
X1996787Y7628354D01*
X2000073Y7623123D01*
X2003925Y7618293D01*
X2008293Y7613925D01*
X2013123Y7610073D01*
X2018354Y7606787D01*
X2023919Y7604107D01*
X2029750Y7602066D01*
X2035773Y7600692D01*
X2041911Y7600000D01*
X2048089D01*
X2054227Y7600692D01*
X2060250Y7602066D01*
X2066081Y7604107D01*
X2071646Y7606787D01*
X2076877Y7610073D01*
X2081707Y7613925D01*
X2086075Y7618293D01*
X2089926Y7623123D01*
X2093213Y7628354D01*
X2095893Y7633919D01*
X2097934Y7639750D01*
X2099308Y7645773D01*
X2100000Y7651911D01*
Y7658089D01*
X2099308Y7664227D01*
X2097934Y7670250D01*
X2095893Y7676081D01*
X2093213Y7681646D01*
X2089926Y7686877D01*
X2086075Y7691707D01*
X2081707Y7696075D01*
X2076877Y7699926D01*
X2071646Y7703213D01*
X2066081Y7705893D01*
X2060250Y7707934D01*
X2054227Y7709308D01*
X2048089Y7710000D01*
D02*
G37*
G36*
X-146911Y7655000D02*
X-153088D01*
X-159227Y7654308D01*
X-165250Y7652934D01*
X-171080Y7650893D01*
X-176646Y7648213D01*
X-181877Y7644927D01*
X-186707Y7641075D01*
X-191075Y7636707D01*
X-194926Y7631877D01*
X-198213Y7626646D01*
X-200893Y7621081D01*
X-202933Y7615250D01*
X-204308Y7609227D01*
X-205000Y7603089D01*
Y7596911D01*
X-204308Y7590773D01*
X-202933Y7584750D01*
X-200893Y7578919D01*
X-198213Y7573354D01*
X-194926Y7568123D01*
X-191075Y7563293D01*
X-186707Y7558925D01*
X-181877Y7555074D01*
X-176646Y7551787D01*
X-171080Y7549107D01*
X-165250Y7547066D01*
X-159227Y7545692D01*
X-153088Y7545000D01*
X-146911D01*
X-140772Y7545692D01*
X-134750Y7547066D01*
X-128919Y7549107D01*
X-123353Y7551787D01*
X-118123Y7555074D01*
X-113293Y7558925D01*
X-108925Y7563293D01*
X-105073Y7568123D01*
X-101787Y7573354D01*
X-99106Y7578919D01*
X-97066Y7584750D01*
X-95691Y7590773D01*
X-95000Y7596911D01*
Y7603089D01*
X-95691Y7609227D01*
X-97066Y7615250D01*
X-99106Y7621081D01*
X-101787Y7626646D01*
X-105073Y7631877D01*
X-108925Y7636707D01*
X-113293Y7641075D01*
X-118123Y7644927D01*
X-123353Y7648213D01*
X-128919Y7650893D01*
X-134750Y7652934D01*
X-140772Y7654308D01*
X-146911Y7655000D01*
D02*
G37*
G36*
X-446911D02*
X-453089D01*
X-459227Y7654308D01*
X-465250Y7652934D01*
X-471081Y7650893D01*
X-476646Y7648213D01*
X-481877Y7644927D01*
X-486707Y7641075D01*
X-491075Y7636707D01*
X-494927Y7631877D01*
X-498213Y7626646D01*
X-500893Y7621081D01*
X-502934Y7615250D01*
X-504308Y7609227D01*
X-505000Y7603089D01*
Y7596911D01*
X-504308Y7590773D01*
X-502934Y7584750D01*
X-500893Y7578919D01*
X-498213Y7573354D01*
X-494927Y7568123D01*
X-491075Y7563293D01*
X-486707Y7558925D01*
X-481877Y7555074D01*
X-476646Y7551787D01*
X-471081Y7549107D01*
X-465250Y7547066D01*
X-459227Y7545692D01*
X-453089Y7545000D01*
X-446911D01*
X-440773Y7545692D01*
X-434750Y7547066D01*
X-428919Y7549107D01*
X-423354Y7551787D01*
X-418123Y7555074D01*
X-413293Y7558925D01*
X-408925Y7563293D01*
X-405074Y7568123D01*
X-401787Y7573354D01*
X-399107Y7578919D01*
X-397067Y7584750D01*
X-395692Y7590773D01*
X-395000Y7596911D01*
Y7603089D01*
X-395692Y7609227D01*
X-397067Y7615250D01*
X-399107Y7621081D01*
X-401787Y7626646D01*
X-405074Y7631877D01*
X-408925Y7636707D01*
X-413293Y7641075D01*
X-418123Y7644927D01*
X-423354Y7648213D01*
X-428919Y7650893D01*
X-434750Y7652934D01*
X-440773Y7654308D01*
X-446911Y7655000D01*
D02*
G37*
G36*
X-646911D02*
X-653088D01*
X-659227Y7654308D01*
X-665250Y7652934D01*
X-671080Y7650893D01*
X-676646Y7648213D01*
X-681877Y7644927D01*
X-686707Y7641075D01*
X-691075Y7636707D01*
X-694926Y7631877D01*
X-698213Y7626646D01*
X-700893Y7621081D01*
X-702933Y7615250D01*
X-704308Y7609227D01*
X-705000Y7603089D01*
Y7596911D01*
X-704308Y7590773D01*
X-702933Y7584750D01*
X-700893Y7578919D01*
X-698213Y7573354D01*
X-694926Y7568123D01*
X-691075Y7563293D01*
X-686707Y7558925D01*
X-681877Y7555074D01*
X-676646Y7551787D01*
X-671080Y7549107D01*
X-665250Y7547066D01*
X-659227Y7545692D01*
X-653088Y7545000D01*
X-646911D01*
X-640772Y7545692D01*
X-634750Y7547066D01*
X-628919Y7549107D01*
X-623353Y7551787D01*
X-618123Y7555074D01*
X-613293Y7558925D01*
X-608925Y7563293D01*
X-605073Y7568123D01*
X-601787Y7573354D01*
X-599106Y7578919D01*
X-597066Y7584750D01*
X-595691Y7590773D01*
X-595000Y7596911D01*
Y7603089D01*
X-595691Y7609227D01*
X-597066Y7615250D01*
X-599106Y7621081D01*
X-601787Y7626646D01*
X-605073Y7631877D01*
X-608925Y7636707D01*
X-613293Y7641075D01*
X-618123Y7644927D01*
X-623353Y7648213D01*
X-628919Y7650893D01*
X-634750Y7652934D01*
X-640772Y7654308D01*
X-646911Y7655000D01*
D02*
G37*
G36*
X-946911D02*
X-953089D01*
X-959227Y7654308D01*
X-965250Y7652934D01*
X-971081Y7650893D01*
X-976647Y7648213D01*
X-981877Y7644927D01*
X-986707Y7641075D01*
X-991075Y7636707D01*
X-994927Y7631877D01*
X-998213Y7626646D01*
X-1000893Y7621081D01*
X-1002934Y7615250D01*
X-1004308Y7609227D01*
X-1005000Y7603089D01*
Y7596911D01*
X-1004308Y7590773D01*
X-1002934Y7584750D01*
X-1000893Y7578919D01*
X-998213Y7573354D01*
X-994927Y7568123D01*
X-991075Y7563293D01*
X-986707Y7558925D01*
X-981877Y7555074D01*
X-976647Y7551787D01*
X-971081Y7549107D01*
X-965250Y7547066D01*
X-959227Y7545692D01*
X-953089Y7545000D01*
X-946911D01*
X-940773Y7545692D01*
X-934750Y7547066D01*
X-928919Y7549107D01*
X-923354Y7551787D01*
X-918123Y7555074D01*
X-913293Y7558925D01*
X-908925Y7563293D01*
X-905074Y7568123D01*
X-901787Y7573354D01*
X-899107Y7578919D01*
X-897067Y7584750D01*
X-895692Y7590773D01*
X-895000Y7596911D01*
Y7603089D01*
X-895692Y7609227D01*
X-897067Y7615250D01*
X-899107Y7621081D01*
X-901787Y7626646D01*
X-905074Y7631877D01*
X-908925Y7636707D01*
X-913293Y7641075D01*
X-918123Y7644927D01*
X-923354Y7648213D01*
X-928919Y7650893D01*
X-934750Y7652934D01*
X-940773Y7654308D01*
X-946911Y7655000D01*
D02*
G37*
G36*
X-1146911D02*
X-1153088D01*
X-1159227Y7654308D01*
X-1165250Y7652934D01*
X-1171080Y7650893D01*
X-1176646Y7648213D01*
X-1181877Y7644927D01*
X-1186707Y7641075D01*
X-1191075Y7636707D01*
X-1194926Y7631877D01*
X-1198213Y7626646D01*
X-1200893Y7621081D01*
X-1202933Y7615250D01*
X-1204308Y7609227D01*
X-1205000Y7603089D01*
Y7596911D01*
X-1204308Y7590773D01*
X-1202933Y7584750D01*
X-1200893Y7578919D01*
X-1198213Y7573354D01*
X-1194926Y7568123D01*
X-1191075Y7563293D01*
X-1186707Y7558925D01*
X-1181877Y7555074D01*
X-1176646Y7551787D01*
X-1171080Y7549107D01*
X-1165250Y7547066D01*
X-1159227Y7545692D01*
X-1153088Y7545000D01*
X-1146911D01*
X-1140772Y7545692D01*
X-1134750Y7547066D01*
X-1128919Y7549107D01*
X-1123353Y7551787D01*
X-1118123Y7555074D01*
X-1113293Y7558925D01*
X-1108925Y7563293D01*
X-1105073Y7568123D01*
X-1101787Y7573354D01*
X-1099107Y7578919D01*
X-1097066Y7584750D01*
X-1095691Y7590773D01*
X-1095000Y7596911D01*
Y7603089D01*
X-1095691Y7609227D01*
X-1097066Y7615250D01*
X-1099107Y7621081D01*
X-1101787Y7626646D01*
X-1105073Y7631877D01*
X-1108925Y7636707D01*
X-1113293Y7641075D01*
X-1118123Y7644927D01*
X-1123353Y7648213D01*
X-1128919Y7650893D01*
X-1134750Y7652934D01*
X-1140772Y7654308D01*
X-1146911Y7655000D01*
D02*
G37*
G36*
X-1446912D02*
X-1453089D01*
X-1459227Y7654308D01*
X-1465250Y7652934D01*
X-1471081Y7650893D01*
X-1476647Y7648213D01*
X-1481877Y7644927D01*
X-1486707Y7641075D01*
X-1491075Y7636707D01*
X-1494927Y7631877D01*
X-1498213Y7626646D01*
X-1500893Y7621081D01*
X-1502934Y7615250D01*
X-1504308Y7609227D01*
X-1505000Y7603089D01*
Y7596911D01*
X-1504308Y7590773D01*
X-1502934Y7584750D01*
X-1500893Y7578919D01*
X-1498213Y7573354D01*
X-1494927Y7568123D01*
X-1491075Y7563293D01*
X-1486707Y7558925D01*
X-1481877Y7555074D01*
X-1476647Y7551787D01*
X-1471081Y7549107D01*
X-1465250Y7547066D01*
X-1459227Y7545692D01*
X-1453089Y7545000D01*
X-1446912D01*
X-1440773Y7545692D01*
X-1434750Y7547066D01*
X-1428919Y7549107D01*
X-1423354Y7551787D01*
X-1418123Y7555074D01*
X-1413293Y7558925D01*
X-1408925Y7563293D01*
X-1405074Y7568123D01*
X-1401787Y7573354D01*
X-1399107Y7578919D01*
X-1397067Y7584750D01*
X-1395692Y7590773D01*
X-1395000Y7596911D01*
Y7603089D01*
X-1395692Y7609227D01*
X-1397067Y7615250D01*
X-1399107Y7621081D01*
X-1401787Y7626646D01*
X-1405074Y7631877D01*
X-1408925Y7636707D01*
X-1413293Y7641075D01*
X-1418123Y7644927D01*
X-1423354Y7648213D01*
X-1428919Y7650893D01*
X-1434750Y7652934D01*
X-1440773Y7654308D01*
X-1446912Y7655000D01*
D02*
G37*
G36*
X1037300Y7587300D02*
X935243D01*
X935312Y7586426D01*
X936730Y7577469D01*
X938847Y7568652D01*
X941649Y7560027D01*
X945120Y7551649D01*
X949236Y7543570D01*
X953974Y7535838D01*
X959304Y7528502D01*
X965194Y7521606D01*
X971606Y7515194D01*
X978501Y7509305D01*
X985838Y7503975D01*
X993570Y7499236D01*
X1001649Y7495120D01*
X1010027Y7491649D01*
X1018652Y7488847D01*
X1027469Y7486730D01*
X1036426Y7485312D01*
X1037300Y7485243D01*
Y7587300D01*
D02*
G37*
G36*
X1164757D02*
X1062700D01*
Y7485243D01*
X1063574Y7485312D01*
X1072531Y7486730D01*
X1081348Y7488847D01*
X1089973Y7491649D01*
X1098351Y7495120D01*
X1106430Y7499236D01*
X1114162Y7503975D01*
X1121498Y7509305D01*
X1128394Y7515194D01*
X1134806Y7521606D01*
X1140695Y7528502D01*
X1146025Y7535838D01*
X1150764Y7543570D01*
X1154880Y7551649D01*
X1158351Y7560027D01*
X1161153Y7568652D01*
X1163270Y7577469D01*
X1164688Y7586426D01*
X1164757Y7587300D01*
D02*
G37*
G36*
X1354518Y7715000D02*
X1345481D01*
X1336473Y7714291D01*
X1327547Y7712877D01*
X1318760Y7710767D01*
X1310166Y7707975D01*
X1301817Y7704517D01*
X1293765Y7700414D01*
X1286060Y7695693D01*
X1278749Y7690381D01*
X1271878Y7684512D01*
X1265488Y7678122D01*
X1259619Y7671251D01*
X1254307Y7663940D01*
X1249586Y7656235D01*
X1245483Y7648183D01*
X1242025Y7639834D01*
X1239232Y7631240D01*
X1237123Y7622453D01*
X1235709Y7613527D01*
X1235000Y7604518D01*
Y7595482D01*
X1235709Y7586473D01*
X1237123Y7577547D01*
X1239232Y7568760D01*
X1242025Y7560166D01*
X1245483Y7551817D01*
X1249586Y7543765D01*
X1254307Y7536060D01*
X1259619Y7528749D01*
X1265488Y7521878D01*
X1271878Y7515488D01*
X1278749Y7509619D01*
X1286060Y7504308D01*
X1293765Y7499586D01*
X1301817Y7495483D01*
X1310166Y7492025D01*
X1318760Y7489233D01*
X1327547Y7487123D01*
X1336473Y7485709D01*
X1345481Y7485000D01*
X1354518D01*
X1363527Y7485709D01*
X1372452Y7487123D01*
X1381240Y7489233D01*
X1389834Y7492025D01*
X1398183Y7495483D01*
X1406234Y7499586D01*
X1413940Y7504308D01*
X1421250Y7509619D01*
X1428122Y7515488D01*
X1434512Y7521878D01*
X1440381Y7528749D01*
X1445692Y7536060D01*
X1450414Y7543765D01*
X1454517Y7551817D01*
X1457975Y7560166D01*
X1460767Y7568760D01*
X1462877Y7577547D01*
X1464290Y7586473D01*
X1465000Y7595482D01*
Y7604518D01*
X1464290Y7613527D01*
X1462877Y7622453D01*
X1460767Y7631240D01*
X1457975Y7639834D01*
X1454517Y7648183D01*
X1450414Y7656235D01*
X1445692Y7663940D01*
X1440381Y7671251D01*
X1434512Y7678122D01*
X1428122Y7684512D01*
X1421250Y7690381D01*
X1413940Y7695693D01*
X1406234Y7700414D01*
X1398183Y7704517D01*
X1389834Y7707975D01*
X1381240Y7710767D01*
X1372452Y7712877D01*
X1363527Y7714291D01*
X1354518Y7715000D01*
D02*
G37*
G36*
X2053089Y7450000D02*
X2046911D01*
X2040773Y7449308D01*
X2034750Y7447934D01*
X2028919Y7445893D01*
X2023354Y7443213D01*
X2018123Y7439926D01*
X2013293Y7436075D01*
X2008925Y7431707D01*
X2005073Y7426877D01*
X2001787Y7421646D01*
X1999107Y7416081D01*
X1997066Y7410250D01*
X1995692Y7404227D01*
X1995000Y7398089D01*
Y7391911D01*
X1995692Y7385773D01*
X1997066Y7379750D01*
X1999107Y7373919D01*
X2001787Y7368354D01*
X2005073Y7363123D01*
X2008925Y7358293D01*
X2013293Y7353925D01*
X2018123Y7350073D01*
X2023354Y7346787D01*
X2028919Y7344107D01*
X2034750Y7342066D01*
X2040773Y7340692D01*
X2046911Y7340000D01*
X2053089D01*
X2059227Y7340692D01*
X2065250Y7342066D01*
X2071081Y7344107D01*
X2076646Y7346787D01*
X2081877Y7350073D01*
X2086707Y7353925D01*
X2091075Y7358293D01*
X2094926Y7363123D01*
X2098213Y7368354D01*
X2100893Y7373919D01*
X2102934Y7379750D01*
X2104308Y7385773D01*
X2105000Y7391911D01*
Y7398089D01*
X2104308Y7404227D01*
X2102934Y7410250D01*
X2100893Y7416081D01*
X2098213Y7421646D01*
X2094926Y7426877D01*
X2091075Y7431707D01*
X2086707Y7436075D01*
X2081877Y7439926D01*
X2076646Y7443213D01*
X2071081Y7445893D01*
X2065250Y7447934D01*
X2059227Y7449308D01*
X2053089Y7450000D01*
D02*
G37*
G36*
X1303089Y7350000D02*
X1296911D01*
X1290773Y7349308D01*
X1284750Y7347934D01*
X1278919Y7345893D01*
X1273354Y7343213D01*
X1268123Y7339927D01*
X1263293Y7336075D01*
X1258925Y7331707D01*
X1256004Y7328044D01*
X1250000Y7327064D01*
X1243996Y7328044D01*
X1241075Y7331707D01*
X1236707Y7336075D01*
X1231877Y7339926D01*
X1226646Y7343213D01*
X1221081Y7345893D01*
X1215250Y7347933D01*
X1209227Y7349308D01*
X1203089Y7350000D01*
X1196911D01*
X1190773Y7349308D01*
X1184750Y7347933D01*
X1178919Y7345893D01*
X1173354Y7343213D01*
X1168123Y7339926D01*
X1163293Y7336075D01*
X1158925Y7331707D01*
X1155073Y7326877D01*
X1151787Y7321646D01*
X1149107Y7316081D01*
X1147066Y7310250D01*
X1145692Y7304227D01*
X1145000Y7298089D01*
Y7291911D01*
X1145692Y7285773D01*
X1147066Y7279750D01*
X1149107Y7273919D01*
X1151787Y7268354D01*
X1155073Y7263123D01*
X1158925Y7258293D01*
X1163293Y7253925D01*
X1168123Y7250073D01*
X1173354Y7246787D01*
X1178919Y7244107D01*
X1184750Y7242066D01*
X1190773Y7240692D01*
X1196911Y7240000D01*
X1203089D01*
X1209227Y7240692D01*
X1215250Y7242066D01*
X1221081Y7244107D01*
X1226646Y7246787D01*
X1231877Y7250073D01*
X1236707Y7253925D01*
X1241075Y7258293D01*
X1243996Y7261957D01*
X1250000Y7262936D01*
X1256004Y7261957D01*
X1258925Y7258293D01*
X1263293Y7253925D01*
X1268123Y7250074D01*
X1273354Y7246787D01*
X1278919Y7244107D01*
X1284750Y7242067D01*
X1290773Y7240692D01*
X1296911Y7240000D01*
X1303089D01*
X1309227Y7240692D01*
X1315250Y7242067D01*
X1321081Y7244107D01*
X1326646Y7246787D01*
X1331877Y7250074D01*
X1336707Y7253925D01*
X1341075Y7258293D01*
X1344926Y7263123D01*
X1348213Y7268354D01*
X1350893Y7273919D01*
X1352934Y7279750D01*
X1354308Y7285773D01*
X1355000Y7291912D01*
Y7298089D01*
X1354308Y7304227D01*
X1352934Y7310250D01*
X1350893Y7316081D01*
X1348213Y7321647D01*
X1344926Y7326877D01*
X1341075Y7331707D01*
X1336707Y7336075D01*
X1331877Y7339927D01*
X1326646Y7343213D01*
X1321081Y7345893D01*
X1315250Y7347934D01*
X1309227Y7349308D01*
X1303089Y7350000D01*
D02*
G37*
G36*
X703089D02*
X696911D01*
X690773Y7349308D01*
X684750Y7347934D01*
X678919Y7345893D01*
X673354Y7343213D01*
X668123Y7339927D01*
X663293Y7336075D01*
X658925Y7331707D01*
X656004Y7328044D01*
X650000Y7327064D01*
X643996Y7328044D01*
X641075Y7331707D01*
X636707Y7336075D01*
X631877Y7339926D01*
X626646Y7343213D01*
X621081Y7345893D01*
X615250Y7347933D01*
X609227Y7349308D01*
X603089Y7350000D01*
X596911D01*
X590773Y7349308D01*
X584750Y7347933D01*
X578919Y7345893D01*
X573354Y7343213D01*
X568123Y7339926D01*
X563293Y7336075D01*
X558925Y7331707D01*
X555074Y7326877D01*
X551787Y7321646D01*
X549107Y7316081D01*
X547066Y7310250D01*
X545692Y7304227D01*
X545000Y7298089D01*
Y7291911D01*
X545692Y7285773D01*
X547066Y7279750D01*
X549107Y7273919D01*
X551787Y7268354D01*
X555074Y7263123D01*
X558925Y7258293D01*
X563293Y7253925D01*
X568123Y7250073D01*
X573354Y7246787D01*
X578919Y7244107D01*
X584750Y7242066D01*
X590773Y7240692D01*
X596911Y7240000D01*
X603089D01*
X609227Y7240692D01*
X615250Y7242066D01*
X621081Y7244107D01*
X626646Y7246787D01*
X631877Y7250073D01*
X636707Y7253925D01*
X641075Y7258293D01*
X643996Y7261957D01*
X650000Y7262936D01*
X656004Y7261957D01*
X658925Y7258293D01*
X663293Y7253925D01*
X668123Y7250074D01*
X673354Y7246787D01*
X678919Y7244107D01*
X684750Y7242067D01*
X690773Y7240692D01*
X696911Y7240000D01*
X703089D01*
X709227Y7240692D01*
X715250Y7242067D01*
X721081Y7244107D01*
X726647Y7246787D01*
X731877Y7250074D01*
X736707Y7253925D01*
X741075Y7258293D01*
X744927Y7263123D01*
X748213Y7268354D01*
X750893Y7273919D01*
X752934Y7279750D01*
X754308Y7285773D01*
X755000Y7291912D01*
Y7298089D01*
X754308Y7304227D01*
X752934Y7310250D01*
X750893Y7316081D01*
X748213Y7321647D01*
X744927Y7326877D01*
X741075Y7331707D01*
X736707Y7336075D01*
X731877Y7339927D01*
X726647Y7343213D01*
X721081Y7345893D01*
X715250Y7347934D01*
X709227Y7349308D01*
X703089Y7350000D01*
D02*
G37*
G36*
X1853089Y7450000D02*
X1846911D01*
X1840773Y7449308D01*
X1834750Y7447934D01*
X1828919Y7445893D01*
X1823354Y7443213D01*
X1818123Y7439926D01*
X1813293Y7436075D01*
X1808925Y7431707D01*
X1805074Y7426877D01*
X1801787Y7421646D01*
X1799107Y7416081D01*
X1797067Y7410250D01*
X1795692Y7404227D01*
X1795000Y7398089D01*
Y7391911D01*
X1795692Y7385773D01*
X1797067Y7379750D01*
X1799107Y7373919D01*
X1801787Y7368354D01*
X1805074Y7363123D01*
X1807951Y7359515D01*
X1806782Y7355248D01*
X1803117Y7350041D01*
X1803076Y7350000D01*
X1796911D01*
X1790773Y7349308D01*
X1784750Y7347933D01*
X1778919Y7345893D01*
X1773354Y7343213D01*
X1768123Y7339926D01*
X1763293Y7336075D01*
X1758925Y7331707D01*
X1755073Y7326877D01*
X1751787Y7321646D01*
X1749107Y7316081D01*
X1747066Y7310250D01*
X1745692Y7304227D01*
X1745000Y7298089D01*
Y7291911D01*
X1745692Y7285773D01*
X1747066Y7279750D01*
X1749107Y7273919D01*
X1751787Y7268354D01*
X1755073Y7263123D01*
X1758925Y7258293D01*
X1763293Y7253925D01*
X1768123Y7250073D01*
X1773354Y7246787D01*
X1778919Y7244107D01*
X1784750Y7242066D01*
X1790773Y7240692D01*
X1796911Y7240000D01*
X1803089D01*
X1809227Y7240692D01*
X1815250Y7242066D01*
X1821081Y7244107D01*
X1826646Y7246787D01*
X1831877Y7250073D01*
X1836707Y7253925D01*
X1841075Y7258293D01*
X1843996Y7261957D01*
X1850000Y7262936D01*
X1856004Y7261957D01*
X1858925Y7258293D01*
X1863293Y7253925D01*
X1868123Y7250074D01*
X1873354Y7246787D01*
X1878919Y7244107D01*
X1884750Y7242067D01*
X1890773Y7240692D01*
X1896911Y7240000D01*
X1903089D01*
X1909227Y7240692D01*
X1915250Y7242067D01*
X1921081Y7244107D01*
X1926646Y7246787D01*
X1931877Y7250074D01*
X1936707Y7253925D01*
X1941075Y7258293D01*
X1944927Y7263123D01*
X1948213Y7268354D01*
X1950893Y7273919D01*
X1952934Y7279750D01*
X1954308Y7285773D01*
X1955000Y7291912D01*
Y7298089D01*
X1954308Y7304227D01*
X1952934Y7310250D01*
X1950893Y7316081D01*
X1948213Y7321647D01*
X1944927Y7326877D01*
X1941075Y7331707D01*
X1936707Y7336075D01*
X1931877Y7339927D01*
X1926646Y7343213D01*
X1921081Y7345893D01*
X1915250Y7347934D01*
X1909227Y7349308D01*
X1903089Y7350000D01*
X1896924D01*
X1896881Y7350043D01*
X1893219Y7355247D01*
X1892050Y7359516D01*
X1894927Y7363123D01*
X1898213Y7368354D01*
X1900893Y7373919D01*
X1902934Y7379750D01*
X1904308Y7385773D01*
X1905000Y7391911D01*
Y7398089D01*
X1904308Y7404227D01*
X1902934Y7410250D01*
X1900893Y7416081D01*
X1898213Y7421646D01*
X1894927Y7426877D01*
X1891075Y7431707D01*
X1886707Y7436075D01*
X1881877Y7439926D01*
X1876646Y7443213D01*
X1871081Y7445893D01*
X1865250Y7447934D01*
X1859227Y7449308D01*
X1853089Y7450000D01*
D02*
G37*
G36*
X153089Y6905000D02*
X146911D01*
X140773Y6904308D01*
X134750Y6902934D01*
X128919Y6900893D01*
X123354Y6898213D01*
X118123Y6894927D01*
X113293Y6891075D01*
X108925Y6886707D01*
X106004Y6883044D01*
X100000Y6882064D01*
X93996Y6883044D01*
X91075Y6886707D01*
X86707Y6891075D01*
X81877Y6894927D01*
X76646Y6898213D01*
X71081Y6900893D01*
X65250Y6902934D01*
X59227Y6904308D01*
X53089Y6905000D01*
X46911D01*
X40773Y6904308D01*
X34750Y6902934D01*
X28919Y6900893D01*
X23354Y6898213D01*
X18123Y6894927D01*
X13293Y6891075D01*
X8925Y6886707D01*
X5073Y6881877D01*
X1787Y6876646D01*
X-893Y6871081D01*
X-2934Y6865250D01*
X-4308Y6859227D01*
X-5000Y6853089D01*
Y6846911D01*
X-4308Y6840773D01*
X-2934Y6834750D01*
X-893Y6828919D01*
X1787Y6823354D01*
X5073Y6818123D01*
X8925Y6813293D01*
X13293Y6808925D01*
X16956Y6806004D01*
X17936Y6800000D01*
X16956Y6793996D01*
X13293Y6791075D01*
X8925Y6786707D01*
X5073Y6781877D01*
X1787Y6776646D01*
X-893Y6771081D01*
X-2934Y6765250D01*
X-4308Y6759227D01*
X-5000Y6753089D01*
Y6746911D01*
X-4308Y6740773D01*
X-2934Y6734750D01*
X-893Y6728919D01*
X1787Y6723354D01*
X5073Y6718123D01*
X8925Y6713293D01*
X13293Y6708925D01*
X16956Y6706004D01*
X17936Y6700000D01*
X16956Y6693996D01*
X13293Y6691075D01*
X8925Y6686707D01*
X5073Y6681877D01*
X1787Y6676646D01*
X-893Y6671081D01*
X-2934Y6665250D01*
X-4308Y6659227D01*
X-5000Y6653089D01*
Y6646911D01*
X-4308Y6640773D01*
X-2934Y6634750D01*
X-893Y6628919D01*
X1787Y6623354D01*
X5073Y6618123D01*
X8925Y6613293D01*
X13293Y6608925D01*
X18123Y6605073D01*
X23354Y6601787D01*
X28919Y6599107D01*
X34750Y6597066D01*
X40773Y6595692D01*
X46911Y6595000D01*
X53089D01*
X59227Y6595692D01*
X65250Y6597066D01*
X71081Y6599107D01*
X76646Y6601787D01*
X81877Y6605073D01*
X86707Y6608925D01*
X91075Y6613293D01*
X94926Y6618123D01*
X98213Y6623354D01*
X100893Y6628919D01*
X102934Y6634750D01*
X104308Y6640773D01*
X105000Y6646911D01*
Y6653089D01*
X104308Y6659227D01*
X102934Y6665250D01*
X100893Y6671081D01*
X98213Y6676646D01*
X94926Y6681877D01*
X91075Y6686707D01*
X86707Y6691075D01*
X83044Y6693996D01*
X82064Y6700000D01*
X83044Y6706004D01*
X86707Y6708925D01*
X91075Y6713293D01*
X93996Y6716956D01*
X100000Y6717936D01*
X106004Y6716956D01*
X108925Y6713293D01*
X113293Y6708925D01*
X118123Y6705073D01*
X123354Y6701787D01*
X128919Y6699107D01*
X134750Y6697066D01*
X140773Y6695692D01*
X146911Y6695000D01*
X153089D01*
X159227Y6695692D01*
X165250Y6697066D01*
X171081Y6699107D01*
X176646Y6701787D01*
X181877Y6705073D01*
X186707Y6708925D01*
X191075Y6713293D01*
X194926Y6718123D01*
X198213Y6723354D01*
X200893Y6728919D01*
X202934Y6734750D01*
X204308Y6740773D01*
X205000Y6746911D01*
Y6753089D01*
X204308Y6759227D01*
X202934Y6765250D01*
X200893Y6771081D01*
X198213Y6776646D01*
X194926Y6781877D01*
X191075Y6786707D01*
X186707Y6791075D01*
X183044Y6793996D01*
X182064Y6800000D01*
X183044Y6806004D01*
X186707Y6808925D01*
X191075Y6813293D01*
X194926Y6818123D01*
X198213Y6823354D01*
X200893Y6828919D01*
X202934Y6834750D01*
X204308Y6840773D01*
X205000Y6846911D01*
Y6853089D01*
X204308Y6859227D01*
X202934Y6865250D01*
X200893Y6871081D01*
X198213Y6876646D01*
X194926Y6881877D01*
X191075Y6886707D01*
X186707Y6891075D01*
X181877Y6894927D01*
X176646Y6898213D01*
X171081Y6900893D01*
X165250Y6902934D01*
X159227Y6904308D01*
X153089Y6905000D01*
D02*
G37*
G36*
X1757089Y6653000D02*
X1750911D01*
X1744773Y6652308D01*
X1738750Y6650933D01*
X1732919Y6648893D01*
X1727354Y6646213D01*
X1722123Y6642926D01*
X1717293Y6639075D01*
X1712925Y6634707D01*
X1709074Y6629877D01*
X1705787Y6624646D01*
X1703107Y6619080D01*
X1701066Y6613250D01*
X1699692Y6607227D01*
X1699000Y6601088D01*
Y6594911D01*
X1699692Y6588772D01*
X1701066Y6582750D01*
X1703107Y6576919D01*
X1705787Y6571353D01*
X1709074Y6566123D01*
X1712925Y6561293D01*
X1717293Y6556925D01*
X1722123Y6553073D01*
X1727354Y6549787D01*
X1732919Y6547107D01*
X1738750Y6545066D01*
X1744773Y6543692D01*
X1750911Y6543000D01*
X1757089D01*
X1763227Y6543692D01*
X1769250Y6545066D01*
X1775081Y6547107D01*
X1780646Y6549787D01*
X1785877Y6553073D01*
X1790707Y6556925D01*
X1795075Y6561293D01*
X1798927Y6566123D01*
X1802213Y6571353D01*
X1804893Y6576919D01*
X1806934Y6582750D01*
X1808308Y6588772D01*
X1809000Y6594911D01*
Y6601088D01*
X1808308Y6607227D01*
X1806934Y6613250D01*
X1804893Y6619080D01*
X1802213Y6624646D01*
X1798927Y6629877D01*
X1795075Y6634707D01*
X1790707Y6639075D01*
X1785877Y6642926D01*
X1780646Y6646213D01*
X1775081Y6648893D01*
X1769250Y6650933D01*
X1763227Y6652308D01*
X1757089Y6653000D01*
D02*
G37*
G36*
X-256000Y6650594D02*
X-266493Y6650219D01*
X-276933Y6649097D01*
X-287267Y6647232D01*
X-297441Y6644635D01*
X-307404Y6641319D01*
X-317105Y6637301D01*
X-326494Y6632601D01*
X-335525Y6627243D01*
X-344150Y6621255D01*
X-352326Y6614666D01*
X-360011Y6607511D01*
X-367166Y6599826D01*
X-373754Y6591650D01*
X-379743Y6583025D01*
X-385101Y6573994D01*
X-389801Y6564605D01*
X-393819Y6554904D01*
X-397135Y6544941D01*
X-399732Y6534767D01*
X-401596Y6524434D01*
X-402719Y6513994D01*
X-403093Y6503500D01*
Y6387500D01*
X-402719Y6377007D01*
X-401596Y6366567D01*
X-399732Y6356233D01*
X-397135Y6346059D01*
X-393819Y6336096D01*
X-389801Y6326395D01*
X-385101Y6317006D01*
X-379743Y6307975D01*
X-373754Y6299350D01*
X-367166Y6291174D01*
X-360011Y6283489D01*
X-352326Y6276334D01*
X-344150Y6269746D01*
X-335525Y6263757D01*
X-326494Y6258399D01*
X-317105Y6253699D01*
X-307404Y6249681D01*
X-297441Y6246365D01*
X-287267Y6243768D01*
X-276933Y6241904D01*
X-266493Y6240782D01*
X-256000Y6240407D01*
X-245506Y6240782D01*
X-235066Y6241904D01*
X-224733Y6243768D01*
X-214559Y6246365D01*
X-204596Y6249681D01*
X-194895Y6253699D01*
X-185505Y6258399D01*
X-176475Y6263757D01*
X-167850Y6269746D01*
X-159674Y6276334D01*
X-151989Y6283489D01*
X-144834Y6291174D01*
X-138245Y6299350D01*
X-132257Y6307975D01*
X-126899Y6317006D01*
X-122199Y6326395D01*
X-118180Y6336096D01*
X-114864Y6346059D01*
X-112267Y6356233D01*
X-110403Y6366567D01*
X-109281Y6377007D01*
X-108906Y6387500D01*
Y6503500D01*
X-109281Y6513994D01*
X-110403Y6524434D01*
X-112267Y6534767D01*
X-114864Y6544941D01*
X-118180Y6554904D01*
X-122199Y6564605D01*
X-126899Y6573994D01*
X-132257Y6583025D01*
X-138245Y6591650D01*
X-144834Y6599826D01*
X-151989Y6607511D01*
X-159674Y6614666D01*
X-167850Y6621255D01*
X-176475Y6627243D01*
X-185505Y6632601D01*
X-194895Y6637301D01*
X-204596Y6641319D01*
X-214559Y6644635D01*
X-224733Y6647232D01*
X-235066Y6649097D01*
X-245506Y6650219D01*
X-256000Y6650594D01*
D02*
G37*
G36*
X-800000D02*
X-810493Y6650219D01*
X-820933Y6649097D01*
X-831267Y6647232D01*
X-841441Y6644635D01*
X-851404Y6641319D01*
X-861105Y6637301D01*
X-870494Y6632601D01*
X-879525Y6627243D01*
X-888150Y6621255D01*
X-896326Y6614666D01*
X-904011Y6607511D01*
X-911166Y6599826D01*
X-917754Y6591650D01*
X-923743Y6583025D01*
X-929101Y6573994D01*
X-933801Y6564605D01*
X-937819Y6554904D01*
X-941135Y6544941D01*
X-943732Y6534767D01*
X-945596Y6524434D01*
X-946718Y6513994D01*
X-947093Y6503500D01*
Y6387500D01*
X-946718Y6377007D01*
X-945596Y6366567D01*
X-943732Y6356233D01*
X-941135Y6346059D01*
X-937819Y6336096D01*
X-933801Y6326395D01*
X-929101Y6317006D01*
X-923743Y6307975D01*
X-917754Y6299350D01*
X-911166Y6291174D01*
X-904011Y6283489D01*
X-896326Y6276334D01*
X-888150Y6269746D01*
X-879525Y6263757D01*
X-870494Y6258399D01*
X-861105Y6253699D01*
X-851404Y6249681D01*
X-841441Y6246365D01*
X-831267Y6243768D01*
X-820933Y6241904D01*
X-810493Y6240782D01*
X-800000Y6240407D01*
X-789506Y6240782D01*
X-779066Y6241904D01*
X-768733Y6243768D01*
X-758559Y6246365D01*
X-748596Y6249681D01*
X-738895Y6253699D01*
X-729505Y6258399D01*
X-720475Y6263757D01*
X-711850Y6269746D01*
X-703674Y6276334D01*
X-695989Y6283489D01*
X-688834Y6291174D01*
X-682245Y6299350D01*
X-676257Y6307975D01*
X-670899Y6317006D01*
X-666199Y6326395D01*
X-662180Y6336096D01*
X-658864Y6346059D01*
X-656267Y6356233D01*
X-654403Y6366567D01*
X-653281Y6377007D01*
X-652906Y6387500D01*
Y6503500D01*
X-653281Y6513994D01*
X-654403Y6524434D01*
X-656267Y6534767D01*
X-658864Y6544941D01*
X-662180Y6554904D01*
X-666199Y6564605D01*
X-670899Y6573994D01*
X-676257Y6583025D01*
X-682245Y6591650D01*
X-688834Y6599826D01*
X-695989Y6607511D01*
X-703674Y6614666D01*
X-711850Y6621255D01*
X-720475Y6627243D01*
X-729505Y6632601D01*
X-738895Y6637301D01*
X-748596Y6641319D01*
X-758559Y6644635D01*
X-768733Y6647232D01*
X-779066Y6649097D01*
X-789506Y6650219D01*
X-800000Y6650594D01*
D02*
G37*
G36*
X-1344000D02*
X-1354493Y6650219D01*
X-1364933Y6649097D01*
X-1375266Y6647232D01*
X-1385441Y6644635D01*
X-1395404Y6641319D01*
X-1405105Y6637301D01*
X-1414494Y6632601D01*
X-1423524Y6627243D01*
X-1432150Y6621255D01*
X-1440326Y6614666D01*
X-1448011Y6607511D01*
X-1455165Y6599826D01*
X-1461754Y6591650D01*
X-1467743Y6583025D01*
X-1473101Y6573994D01*
X-1477801Y6564605D01*
X-1481819Y6554904D01*
X-1485135Y6544941D01*
X-1487732Y6534767D01*
X-1489596Y6524434D01*
X-1490718Y6513994D01*
X-1491093Y6503500D01*
Y6387500D01*
X-1490718Y6377007D01*
X-1489596Y6366567D01*
X-1487732Y6356233D01*
X-1485135Y6346059D01*
X-1481819Y6336096D01*
X-1477801Y6326395D01*
X-1473101Y6317006D01*
X-1467743Y6307975D01*
X-1461754Y6299350D01*
X-1455165Y6291174D01*
X-1448011Y6283489D01*
X-1440326Y6276334D01*
X-1432150Y6269746D01*
X-1423524Y6263757D01*
X-1414494Y6258399D01*
X-1405105Y6253699D01*
X-1395404Y6249681D01*
X-1385441Y6246365D01*
X-1375266Y6243768D01*
X-1364933Y6241904D01*
X-1354493Y6240782D01*
X-1344000Y6240407D01*
X-1333506Y6240782D01*
X-1323066Y6241904D01*
X-1312733Y6243768D01*
X-1302558Y6246365D01*
X-1292596Y6249681D01*
X-1282895Y6253699D01*
X-1273505Y6258399D01*
X-1264475Y6263757D01*
X-1255850Y6269746D01*
X-1247674Y6276334D01*
X-1239989Y6283489D01*
X-1232834Y6291174D01*
X-1226245Y6299350D01*
X-1220257Y6307975D01*
X-1214899Y6317006D01*
X-1210198Y6326395D01*
X-1206180Y6336096D01*
X-1202864Y6346059D01*
X-1200267Y6356233D01*
X-1198403Y6366567D01*
X-1197281Y6377007D01*
X-1196906Y6387500D01*
Y6503500D01*
X-1197281Y6513994D01*
X-1198403Y6524434D01*
X-1200267Y6534767D01*
X-1202864Y6544941D01*
X-1206180Y6554904D01*
X-1210198Y6564605D01*
X-1214899Y6573994D01*
X-1220257Y6583025D01*
X-1226245Y6591650D01*
X-1232834Y6599826D01*
X-1239989Y6607511D01*
X-1247674Y6614666D01*
X-1255850Y6621255D01*
X-1264475Y6627243D01*
X-1273505Y6632601D01*
X-1282895Y6637301D01*
X-1292596Y6641319D01*
X-1302558Y6644635D01*
X-1312733Y6647232D01*
X-1323066Y6649097D01*
X-1333506Y6650219D01*
X-1344000Y6650594D01*
D02*
G37*
G36*
X-1661911Y6245000D02*
X-1668089D01*
X-1674227Y6244308D01*
X-1680250Y6242934D01*
X-1686081Y6240893D01*
X-1691646Y6238213D01*
X-1696877Y6234927D01*
X-1701707Y6231075D01*
X-1706075Y6226707D01*
X-1708996Y6223044D01*
X-1715000Y6222064D01*
X-1721004Y6223044D01*
X-1723925Y6226707D01*
X-1728293Y6231075D01*
X-1733123Y6234927D01*
X-1738354Y6238213D01*
X-1743919Y6240893D01*
X-1749750Y6242934D01*
X-1755773Y6244308D01*
X-1761911Y6245000D01*
X-1768089D01*
X-1774227Y6244308D01*
X-1780250Y6242934D01*
X-1786081Y6240893D01*
X-1791646Y6238213D01*
X-1796877Y6234927D01*
X-1801707Y6231075D01*
X-1806075Y6226707D01*
X-1809927Y6221877D01*
X-1813213Y6216646D01*
X-1815893Y6211081D01*
X-1817934Y6205250D01*
X-1819308Y6199227D01*
X-1820000Y6193089D01*
Y6186911D01*
X-1819308Y6180773D01*
X-1817934Y6174750D01*
X-1815893Y6168919D01*
X-1813213Y6163354D01*
X-1809927Y6158123D01*
X-1806075Y6153293D01*
X-1801707Y6148925D01*
X-1796877Y6145074D01*
X-1791646Y6141787D01*
X-1786081Y6139107D01*
X-1780250Y6137066D01*
X-1774227Y6135692D01*
X-1768089Y6135000D01*
X-1761911D01*
X-1755773Y6135692D01*
X-1749750Y6137066D01*
X-1743919Y6139107D01*
X-1738354Y6141787D01*
X-1733123Y6145074D01*
X-1728293Y6148925D01*
X-1723925Y6153293D01*
X-1721004Y6156956D01*
X-1715000Y6157936D01*
X-1708996Y6156956D01*
X-1706075Y6153293D01*
X-1701707Y6148925D01*
X-1696877Y6145074D01*
X-1691646Y6141787D01*
X-1686081Y6139107D01*
X-1680250Y6137066D01*
X-1674227Y6135692D01*
X-1668089Y6135000D01*
X-1661911D01*
X-1655773Y6135692D01*
X-1649750Y6137066D01*
X-1643919Y6139107D01*
X-1638354Y6141787D01*
X-1633123Y6145074D01*
X-1628293Y6148925D01*
X-1623925Y6153293D01*
X-1620073Y6158123D01*
X-1616787Y6163354D01*
X-1614107Y6168919D01*
X-1612066Y6174750D01*
X-1610692Y6180773D01*
X-1610000Y6186911D01*
Y6193089D01*
X-1610692Y6199227D01*
X-1612066Y6205250D01*
X-1614107Y6211081D01*
X-1616787Y6216646D01*
X-1620073Y6221877D01*
X-1623925Y6226707D01*
X-1628293Y6231075D01*
X-1633123Y6234927D01*
X-1638354Y6238213D01*
X-1643919Y6240893D01*
X-1649750Y6242934D01*
X-1655773Y6244308D01*
X-1661911Y6245000D01*
D02*
G37*
G36*
X2053089Y6120000D02*
X2046911D01*
X2040773Y6119308D01*
X2034750Y6117933D01*
X2028919Y6115893D01*
X2023354Y6113213D01*
X2018123Y6109926D01*
X2013293Y6106075D01*
X2008925Y6101707D01*
X2006004Y6098043D01*
X2000000Y6097064D01*
X1993996Y6098043D01*
X1991075Y6101707D01*
X1986707Y6106075D01*
X1981877Y6109926D01*
X1976646Y6113213D01*
X1971081Y6115893D01*
X1965250Y6117933D01*
X1959227Y6119308D01*
X1953089Y6120000D01*
X1946911D01*
X1940773Y6119308D01*
X1934750Y6117933D01*
X1928919Y6115893D01*
X1923354Y6113213D01*
X1918123Y6109926D01*
X1913293Y6106075D01*
X1908925Y6101707D01*
X1906004Y6098043D01*
X1900000Y6097064D01*
X1893996Y6098043D01*
X1891075Y6101707D01*
X1886707Y6106075D01*
X1881877Y6109926D01*
X1876646Y6113213D01*
X1871081Y6115893D01*
X1865250Y6117933D01*
X1859227Y6119308D01*
X1853089Y6120000D01*
X1846911D01*
X1840773Y6119308D01*
X1834750Y6117933D01*
X1828919Y6115893D01*
X1823354Y6113213D01*
X1818123Y6109926D01*
X1813293Y6106075D01*
X1808925Y6101707D01*
X1805074Y6096877D01*
X1801787Y6091646D01*
X1799107Y6086081D01*
X1797067Y6080250D01*
X1795692Y6074227D01*
X1795000Y6068088D01*
Y6061911D01*
X1795692Y6055772D01*
X1797067Y6049750D01*
X1799107Y6043919D01*
X1801787Y6038353D01*
X1805074Y6033123D01*
X1808925Y6028293D01*
X1813293Y6023925D01*
X1818123Y6020073D01*
X1823354Y6016787D01*
X1828919Y6014107D01*
X1834750Y6012066D01*
X1840773Y6010692D01*
X1846911Y6010000D01*
X1853089D01*
X1859227Y6010692D01*
X1865250Y6012066D01*
X1871081Y6014107D01*
X1876646Y6016787D01*
X1881877Y6020073D01*
X1886707Y6023925D01*
X1891075Y6028293D01*
X1893996Y6031956D01*
X1900000Y6032935D01*
X1906004Y6031956D01*
X1908925Y6028293D01*
X1913293Y6023925D01*
X1918123Y6020073D01*
X1923354Y6016787D01*
X1928919Y6014107D01*
X1934750Y6012066D01*
X1940773Y6010692D01*
X1946911Y6010000D01*
X1953089D01*
X1959227Y6010692D01*
X1965250Y6012066D01*
X1971081Y6014107D01*
X1976646Y6016787D01*
X1981877Y6020073D01*
X1986707Y6023925D01*
X1991075Y6028293D01*
X1993996Y6031956D01*
X2000000Y6032936D01*
X2006004Y6031956D01*
X2008925Y6028293D01*
X2013293Y6023925D01*
X2018123Y6020073D01*
X2023354Y6016787D01*
X2028919Y6014107D01*
X2034750Y6012066D01*
X2040773Y6010692D01*
X2046911Y6010000D01*
X2053089D01*
X2059227Y6010692D01*
X2065250Y6012066D01*
X2071081Y6014107D01*
X2076646Y6016787D01*
X2081877Y6020073D01*
X2086707Y6023925D01*
X2091075Y6028293D01*
X2094926Y6033123D01*
X2098213Y6038353D01*
X2100893Y6043919D01*
X2102934Y6049750D01*
X2104308Y6055772D01*
X2105000Y6061911D01*
Y6068088D01*
X2104308Y6074227D01*
X2102934Y6080250D01*
X2100893Y6086081D01*
X2098213Y6091646D01*
X2094926Y6096877D01*
X2091075Y6101707D01*
X2086707Y6106075D01*
X2081877Y6109926D01*
X2076646Y6113213D01*
X2071081Y6115893D01*
X2065250Y6117933D01*
X2059227Y6119308D01*
X2053089Y6120000D01*
D02*
G37*
G36*
X1353089D02*
X1346911D01*
X1340773Y6119308D01*
X1334750Y6117933D01*
X1328919Y6115893D01*
X1323354Y6113213D01*
X1318123Y6109926D01*
X1313293Y6106075D01*
X1308925Y6101707D01*
X1306004Y6098043D01*
X1300000Y6097064D01*
X1293996Y6098043D01*
X1291075Y6101707D01*
X1286707Y6106075D01*
X1281877Y6109926D01*
X1276646Y6113213D01*
X1271081Y6115893D01*
X1265250Y6117933D01*
X1259227Y6119308D01*
X1253089Y6120000D01*
X1246911D01*
X1240773Y6119308D01*
X1234750Y6117933D01*
X1228919Y6115893D01*
X1223354Y6113213D01*
X1218123Y6109926D01*
X1213293Y6106075D01*
X1208925Y6101707D01*
X1206004Y6098043D01*
X1200000Y6097064D01*
X1193996Y6098043D01*
X1191075Y6101707D01*
X1186707Y6106075D01*
X1181877Y6109926D01*
X1176646Y6113213D01*
X1171081Y6115893D01*
X1165250Y6117933D01*
X1159227Y6119308D01*
X1153089Y6120000D01*
X1146911D01*
X1140773Y6119308D01*
X1134750Y6117933D01*
X1128919Y6115893D01*
X1123354Y6113213D01*
X1118123Y6109926D01*
X1113293Y6106075D01*
X1108925Y6101707D01*
X1105073Y6096877D01*
X1101787Y6091646D01*
X1099107Y6086081D01*
X1097066Y6080250D01*
X1095692Y6074227D01*
X1095000Y6068088D01*
Y6061911D01*
X1095692Y6055772D01*
X1097066Y6049750D01*
X1099107Y6043919D01*
X1101787Y6038353D01*
X1105073Y6033123D01*
X1108925Y6028293D01*
X1113293Y6023925D01*
X1118123Y6020073D01*
X1123354Y6016787D01*
X1128919Y6014107D01*
X1134750Y6012066D01*
X1140773Y6010692D01*
X1146911Y6010000D01*
X1153089D01*
X1159227Y6010692D01*
X1165250Y6012066D01*
X1171081Y6014107D01*
X1176646Y6016787D01*
X1181877Y6020073D01*
X1186707Y6023925D01*
X1191075Y6028293D01*
X1193996Y6031956D01*
X1200000Y6032936D01*
X1206004Y6031956D01*
X1208925Y6028293D01*
X1213293Y6023925D01*
X1218123Y6020073D01*
X1223354Y6016787D01*
X1228919Y6014107D01*
X1234750Y6012066D01*
X1240773Y6010692D01*
X1246911Y6010000D01*
X1253089D01*
X1259227Y6010692D01*
X1265250Y6012066D01*
X1271081Y6014107D01*
X1276646Y6016787D01*
X1281877Y6020073D01*
X1286707Y6023925D01*
X1291075Y6028293D01*
X1293996Y6031956D01*
X1300000Y6032936D01*
X1306004Y6031956D01*
X1308925Y6028293D01*
X1313293Y6023925D01*
X1318123Y6020073D01*
X1323354Y6016787D01*
X1328919Y6014107D01*
X1334750Y6012066D01*
X1340773Y6010692D01*
X1346911Y6010000D01*
X1353089D01*
X1359227Y6010692D01*
X1365250Y6012066D01*
X1371081Y6014107D01*
X1376646Y6016787D01*
X1381877Y6020073D01*
X1386707Y6023925D01*
X1391075Y6028293D01*
X1394927Y6033123D01*
X1398213Y6038353D01*
X1400893Y6043919D01*
X1402934Y6049750D01*
X1404308Y6055772D01*
X1405000Y6061911D01*
Y6068088D01*
X1404308Y6074227D01*
X1402934Y6080250D01*
X1400893Y6086081D01*
X1398213Y6091646D01*
X1394927Y6096877D01*
X1391075Y6101707D01*
X1386707Y6106075D01*
X1381877Y6109926D01*
X1376646Y6113213D01*
X1371081Y6115893D01*
X1365250Y6117933D01*
X1359227Y6119308D01*
X1353089Y6120000D01*
D02*
G37*
G36*
X903089D02*
X896912D01*
X890773Y6119308D01*
X884750Y6117933D01*
X878920Y6115893D01*
X873354Y6113213D01*
X868123Y6109926D01*
X863293Y6106075D01*
X858925Y6101707D01*
X856004Y6098043D01*
X850000Y6097064D01*
X843997Y6098043D01*
X841075Y6101707D01*
X836707Y6106075D01*
X831877Y6109926D01*
X826647Y6113213D01*
X821081Y6115893D01*
X815250Y6117933D01*
X809227Y6119308D01*
X803089Y6120000D01*
X796912D01*
X790773Y6119308D01*
X784750Y6117933D01*
X778919Y6115893D01*
X773354Y6113213D01*
X768123Y6109926D01*
X763293Y6106075D01*
X758925Y6101707D01*
X756004Y6098043D01*
X750000Y6097064D01*
X743996Y6098043D01*
X741075Y6101707D01*
X736707Y6106075D01*
X731877Y6109926D01*
X726647Y6113213D01*
X721081Y6115893D01*
X715250Y6117933D01*
X709227Y6119308D01*
X703089Y6120000D01*
X696911D01*
X690773Y6119308D01*
X684750Y6117933D01*
X678919Y6115893D01*
X673354Y6113213D01*
X668123Y6109926D01*
X663293Y6106075D01*
X658925Y6101707D01*
X655074Y6096877D01*
X651787Y6091646D01*
X649107Y6086081D01*
X647067Y6080250D01*
X645692Y6074227D01*
X645000Y6068088D01*
Y6061911D01*
X645692Y6055772D01*
X647067Y6049750D01*
X649107Y6043919D01*
X651787Y6038353D01*
X655074Y6033123D01*
X658925Y6028293D01*
X663293Y6023925D01*
X668123Y6020073D01*
X673354Y6016787D01*
X678919Y6014107D01*
X684750Y6012066D01*
X690773Y6010692D01*
X696911Y6010000D01*
X703089D01*
X709227Y6010692D01*
X715250Y6012066D01*
X721081Y6014107D01*
X726647Y6016787D01*
X731877Y6020073D01*
X736707Y6023925D01*
X741075Y6028293D01*
X743996Y6031956D01*
X750000Y6032936D01*
X756004Y6031956D01*
X758925Y6028293D01*
X763293Y6023925D01*
X768123Y6020073D01*
X773354Y6016787D01*
X778919Y6014107D01*
X784750Y6012066D01*
X790773Y6010692D01*
X796912Y6010000D01*
X803089D01*
X809227Y6010692D01*
X815250Y6012066D01*
X821081Y6014107D01*
X826647Y6016787D01*
X831877Y6020073D01*
X836707Y6023925D01*
X841075Y6028293D01*
X843997Y6031956D01*
X850000Y6032936D01*
X856004Y6031956D01*
X858925Y6028293D01*
X863293Y6023925D01*
X868123Y6020073D01*
X873354Y6016787D01*
X878920Y6014107D01*
X884750Y6012066D01*
X890773Y6010692D01*
X896912Y6010000D01*
X903089D01*
X909228Y6010692D01*
X915250Y6012066D01*
X921081Y6014107D01*
X926647Y6016787D01*
X931877Y6020073D01*
X936707Y6023925D01*
X941075Y6028293D01*
X944927Y6033123D01*
X948213Y6038353D01*
X950893Y6043919D01*
X952934Y6049750D01*
X954308Y6055772D01*
X955000Y6061911D01*
Y6068088D01*
X954308Y6074227D01*
X952934Y6080250D01*
X950893Y6086081D01*
X948213Y6091646D01*
X944927Y6096877D01*
X941075Y6101707D01*
X936707Y6106075D01*
X931877Y6109926D01*
X926647Y6113213D01*
X921081Y6115893D01*
X915250Y6117933D01*
X909228Y6119308D01*
X903089Y6120000D01*
D02*
G37*
G36*
X-96911Y5955000D02*
X-103089D01*
X-109227Y5954308D01*
X-115250Y5952933D01*
X-121081Y5950893D01*
X-126646Y5948213D01*
X-131877Y5944926D01*
X-136707Y5941075D01*
X-141075Y5936707D01*
X-144927Y5931877D01*
X-148213Y5926646D01*
X-150893Y5921081D01*
X-152934Y5915250D01*
X-154308Y5909227D01*
X-155000Y5903089D01*
Y5896911D01*
X-154308Y5890773D01*
X-152934Y5884750D01*
X-150893Y5878919D01*
X-148213Y5873354D01*
X-144927Y5868123D01*
X-141075Y5863293D01*
X-136707Y5858925D01*
X-131877Y5855073D01*
X-126646Y5851787D01*
X-121081Y5849107D01*
X-115250Y5847066D01*
X-109227Y5845692D01*
X-103089Y5845000D01*
X-96911D01*
X-90773Y5845692D01*
X-84750Y5847066D01*
X-78919Y5849107D01*
X-73354Y5851787D01*
X-68123Y5855073D01*
X-63293Y5858925D01*
X-58925Y5863293D01*
X-55074Y5868123D01*
X-51787Y5873354D01*
X-49107Y5878919D01*
X-47066Y5884750D01*
X-45692Y5890773D01*
X-45000Y5896911D01*
Y5903089D01*
X-45692Y5909227D01*
X-47066Y5915250D01*
X-49107Y5921081D01*
X-51787Y5926646D01*
X-55074Y5931877D01*
X-58925Y5936707D01*
X-63293Y5941075D01*
X-68123Y5944926D01*
X-73354Y5948213D01*
X-78919Y5950893D01*
X-84750Y5952933D01*
X-90773Y5954308D01*
X-96911Y5955000D01*
D02*
G37*
G36*
X1128089Y5855000D02*
X1121912D01*
X1115773Y5854308D01*
X1109750Y5852934D01*
X1103920Y5850893D01*
X1098354Y5848213D01*
X1093123Y5844927D01*
X1088293Y5841075D01*
X1083925Y5836707D01*
X1081004Y5833044D01*
X1075000Y5832064D01*
X1068997Y5833044D01*
X1066075Y5836707D01*
X1061707Y5841075D01*
X1056877Y5844927D01*
X1051647Y5848213D01*
X1046081Y5850893D01*
X1040250Y5852934D01*
X1034228Y5854308D01*
X1028089Y5855000D01*
X1021912D01*
X1015773Y5854308D01*
X1009750Y5852934D01*
X1003920Y5850893D01*
X998354Y5848213D01*
X993123Y5844927D01*
X988293Y5841075D01*
X983925Y5836707D01*
X981004Y5833044D01*
X975000Y5832065D01*
X968997Y5833044D01*
X966075Y5836707D01*
X961707Y5841075D01*
X956877Y5844927D01*
X951647Y5848213D01*
X946081Y5850893D01*
X940250Y5852934D01*
X934228Y5854308D01*
X928089Y5855000D01*
X921912D01*
X915773Y5854308D01*
X909751Y5852934D01*
X903920Y5850893D01*
X898354Y5848213D01*
X893123Y5844927D01*
X888294Y5841075D01*
X883926Y5836707D01*
X880074Y5831877D01*
X876787Y5826646D01*
X874107Y5821081D01*
X872067Y5815250D01*
X870692Y5809227D01*
X870001Y5803089D01*
Y5796911D01*
X870692Y5790773D01*
X872067Y5784750D01*
X874107Y5778919D01*
X876787Y5773354D01*
X880074Y5768123D01*
X883926Y5763293D01*
X888294Y5758925D01*
X893123Y5755074D01*
X898354Y5751787D01*
X903920Y5749107D01*
X909751Y5747066D01*
X915773Y5745692D01*
X921912Y5745000D01*
X928089D01*
X934228Y5745692D01*
X940250Y5747066D01*
X946081Y5749107D01*
X951647Y5751787D01*
X956877Y5755074D01*
X961707Y5758925D01*
X966075Y5763293D01*
X968997Y5766956D01*
X975000Y5767936D01*
X981004Y5766956D01*
X983925Y5763293D01*
X988293Y5758925D01*
X993123Y5755074D01*
X998354Y5751787D01*
X1003920Y5749107D01*
X1009750Y5747066D01*
X1015773Y5745692D01*
X1021912Y5745000D01*
X1028089D01*
X1034228Y5745692D01*
X1040250Y5747066D01*
X1046081Y5749107D01*
X1051647Y5751787D01*
X1056877Y5755074D01*
X1061707Y5758925D01*
X1066075Y5763293D01*
X1068997Y5766956D01*
X1075000Y5767936D01*
X1081004Y5766956D01*
X1083925Y5763293D01*
X1088293Y5758925D01*
X1093123Y5755074D01*
X1098354Y5751787D01*
X1103920Y5749107D01*
X1109750Y5747066D01*
X1115773Y5745692D01*
X1121912Y5745000D01*
X1128089D01*
X1134228Y5745692D01*
X1140250Y5747066D01*
X1146081Y5749107D01*
X1151647Y5751787D01*
X1156877Y5755074D01*
X1161707Y5758925D01*
X1166075Y5763293D01*
X1169927Y5768123D01*
X1173213Y5773354D01*
X1175894Y5778919D01*
X1177934Y5784750D01*
X1179309Y5790773D01*
X1180000Y5796911D01*
Y5803089D01*
X1179309Y5809227D01*
X1177934Y5815250D01*
X1175894Y5821081D01*
X1173213Y5826646D01*
X1169927Y5831877D01*
X1166075Y5836707D01*
X1161707Y5841075D01*
X1156877Y5844927D01*
X1151647Y5848213D01*
X1146081Y5850893D01*
X1140250Y5852934D01*
X1134228Y5854308D01*
X1128089Y5855000D01*
D02*
G37*
G36*
X554366Y6000000D02*
X545634D01*
X536935Y5999239D01*
X528336Y5997722D01*
X519901Y5995462D01*
X511695Y5992476D01*
X503781Y5988785D01*
X496219Y5984419D01*
X489066Y5979411D01*
X482377Y5973798D01*
X476202Y5967623D01*
X470589Y5960934D01*
X465581Y5953781D01*
X461215Y5946219D01*
X457524Y5938305D01*
X454538Y5930099D01*
X452278Y5921664D01*
X450761Y5913065D01*
X450000Y5904366D01*
Y5895634D01*
X450761Y5886935D01*
X452278Y5878335D01*
X454538Y5869901D01*
X457524Y5861695D01*
X461215Y5853781D01*
X465581Y5846219D01*
X470589Y5839066D01*
X476202Y5832377D01*
X482377Y5826202D01*
X489066Y5820589D01*
X496219Y5815581D01*
X503781Y5811214D01*
X511695Y5807524D01*
X519901Y5804538D01*
X528336Y5802277D01*
X536935Y5800761D01*
X545634Y5800000D01*
X554366D01*
X563065Y5800761D01*
X571665Y5802277D01*
X580099Y5804538D01*
X588305Y5807524D01*
X596219Y5811214D01*
X603781Y5815581D01*
X610934Y5820589D01*
X617623Y5826202D01*
X623798Y5832377D01*
X629411Y5839066D01*
X634419Y5846219D01*
X638786Y5853781D01*
X642476Y5861695D01*
X645463Y5869901D01*
X647723Y5878335D01*
X649239Y5886935D01*
X650000Y5895634D01*
Y5904366D01*
X649239Y5913065D01*
X647723Y5921664D01*
X645463Y5930099D01*
X642476Y5938305D01*
X638786Y5946219D01*
X634419Y5953781D01*
X629411Y5960934D01*
X623798Y5967623D01*
X617623Y5973798D01*
X610934Y5979411D01*
X603781Y5984419D01*
X596219Y5988785D01*
X588305Y5992476D01*
X580099Y5995462D01*
X571665Y5997722D01*
X563065Y5999239D01*
X554366Y6000000D01*
D02*
G37*
G36*
X-545634D02*
X-554366D01*
X-563065Y5999239D01*
X-571664Y5997722D01*
X-580099Y5995462D01*
X-588305Y5992476D01*
X-596219Y5988785D01*
X-603781Y5984419D01*
X-610934Y5979411D01*
X-617623Y5973798D01*
X-623798Y5967623D01*
X-629411Y5960934D01*
X-634419Y5953781D01*
X-638785Y5946219D01*
X-642476Y5938305D01*
X-645462Y5930099D01*
X-647722Y5921664D01*
X-649239Y5913065D01*
X-650000Y5904366D01*
Y5895634D01*
X-649239Y5886935D01*
X-647722Y5878335D01*
X-645462Y5869901D01*
X-642476Y5861695D01*
X-638785Y5853781D01*
X-634419Y5846219D01*
X-629411Y5839066D01*
X-623798Y5832377D01*
X-617623Y5826202D01*
X-610934Y5820589D01*
X-603781Y5815581D01*
X-596219Y5811214D01*
X-588305Y5807524D01*
X-580099Y5804538D01*
X-571664Y5802277D01*
X-563065Y5800761D01*
X-554366Y5800000D01*
X-545634D01*
X-536935Y5800761D01*
X-528335Y5802277D01*
X-519901Y5804538D01*
X-511695Y5807524D01*
X-503781Y5811214D01*
X-496219Y5815581D01*
X-489066Y5820589D01*
X-482377Y5826202D01*
X-476202Y5832377D01*
X-470589Y5839066D01*
X-465581Y5846219D01*
X-461214Y5853781D01*
X-457524Y5861695D01*
X-454538Y5869901D01*
X-452277Y5878335D01*
X-450761Y5886935D01*
X-450000Y5895634D01*
Y5904366D01*
X-450761Y5913065D01*
X-452277Y5921664D01*
X-454538Y5930099D01*
X-457524Y5938305D01*
X-461214Y5946219D01*
X-465581Y5953781D01*
X-470589Y5960934D01*
X-476202Y5967623D01*
X-482377Y5973798D01*
X-489066Y5979411D01*
X-496219Y5984419D01*
X-503781Y5988785D01*
X-511695Y5992476D01*
X-519901Y5995462D01*
X-528335Y5997722D01*
X-536935Y5999239D01*
X-545634Y6000000D01*
D02*
G37*
G36*
X1460972Y5954788D02*
X1452240Y5954787D01*
X1443541Y5954027D01*
X1434941Y5952510D01*
X1426507Y5950250D01*
X1418301Y5947264D01*
X1410387Y5943573D01*
X1402825Y5939207D01*
X1395672Y5934199D01*
X1388983Y5928586D01*
X1382808Y5922411D01*
X1377195Y5915722D01*
X1372186Y5908569D01*
X1367820Y5901007D01*
X1364130Y5893093D01*
X1361144Y5884887D01*
X1358883Y5876453D01*
X1357367Y5867853D01*
X1356606Y5859154D01*
X1356606Y5850422D01*
X1357367Y5841723D01*
X1358883Y5833123D01*
X1361144Y5824689D01*
X1364130Y5816483D01*
X1367820Y5808569D01*
X1372187Y5801007D01*
X1377195Y5793854D01*
X1382808Y5787165D01*
X1388982Y5780990D01*
X1395672Y5775377D01*
X1402825Y5770368D01*
X1410387Y5766002D01*
X1418301Y5762312D01*
X1426507Y5759326D01*
X1434941Y5757065D01*
X1443541Y5755549D01*
X1452240Y5754788D01*
X1460972Y5754788D01*
X1469671Y5755549D01*
X1478271Y5757065D01*
X1486705Y5759326D01*
X1494911Y5762312D01*
X1502825Y5766002D01*
X1510387Y5770369D01*
X1517540Y5775377D01*
X1524229Y5780990D01*
X1530404Y5787164D01*
X1536017Y5793854D01*
X1541025Y5801007D01*
X1545391Y5808569D01*
X1549081Y5816483D01*
X1552068Y5824689D01*
X1554328Y5833123D01*
X1555845Y5841723D01*
X1556606Y5850422D01*
X1556605Y5859154D01*
X1555845Y5867853D01*
X1554328Y5876453D01*
X1552068Y5884887D01*
X1549082Y5893093D01*
X1545391Y5901007D01*
X1541025Y5908569D01*
X1536017Y5915722D01*
X1530404Y5922411D01*
X1524229Y5928586D01*
X1517540Y5934199D01*
X1510387Y5939207D01*
X1502825Y5943573D01*
X1494911Y5947263D01*
X1486705Y5950250D01*
X1478271Y5952510D01*
X1469671Y5954027D01*
X1460972Y5954788D01*
D02*
G37*
G36*
X-1460972D02*
X-1469671Y5954027D01*
X-1478271Y5952510D01*
X-1486705Y5950250D01*
X-1494911Y5947263D01*
X-1502825Y5943573D01*
X-1510387Y5939207D01*
X-1517540Y5934199D01*
X-1524229Y5928586D01*
X-1530404Y5922411D01*
X-1536017Y5915722D01*
X-1541025Y5908569D01*
X-1545391Y5901007D01*
X-1549082Y5893093D01*
X-1552068Y5884887D01*
X-1554328Y5876453D01*
X-1555845Y5867853D01*
X-1556605Y5859154D01*
X-1556606Y5850422D01*
X-1555845Y5841723D01*
X-1554328Y5833123D01*
X-1552068Y5824689D01*
X-1549081Y5816483D01*
X-1545391Y5808569D01*
X-1541025Y5801007D01*
X-1536017Y5793854D01*
X-1530404Y5787164D01*
X-1524229Y5780990D01*
X-1517540Y5775377D01*
X-1510387Y5770369D01*
X-1502825Y5766002D01*
X-1494911Y5762312D01*
X-1486705Y5759326D01*
X-1478271Y5757065D01*
X-1469671Y5755549D01*
X-1460972Y5754788D01*
X-1452240Y5754788D01*
X-1443541Y5755549D01*
X-1434941Y5757065D01*
X-1426507Y5759326D01*
X-1418301Y5762312D01*
X-1410387Y5766002D01*
X-1402825Y5770368D01*
X-1395672Y5775377D01*
X-1388982Y5780990D01*
X-1382808Y5787165D01*
X-1377195Y5793854D01*
X-1372187Y5801007D01*
X-1367820Y5808569D01*
X-1364130Y5816483D01*
X-1361144Y5824689D01*
X-1358883Y5833123D01*
X-1357367Y5841723D01*
X-1356606Y5850422D01*
X-1356606Y5859154D01*
X-1357367Y5867853D01*
X-1358883Y5876453D01*
X-1361144Y5884887D01*
X-1364130Y5893093D01*
X-1367820Y5901007D01*
X-1372186Y5908569D01*
X-1377195Y5915722D01*
X-1382808Y5922411D01*
X-1388983Y5928586D01*
X-1395672Y5934199D01*
X-1402825Y5939207D01*
X-1410387Y5943573D01*
X-1418301Y5947264D01*
X-1426507Y5950250D01*
X-1434941Y5952510D01*
X-1443541Y5954027D01*
X-1452240Y5954787D01*
X-1460972Y5954788D01*
D02*
G37*
G36*
X-1751911Y5845000D02*
X-1758088D01*
X-1764227Y5844308D01*
X-1770250Y5842934D01*
X-1776081Y5840893D01*
X-1781646Y5838213D01*
X-1786877Y5834927D01*
X-1791707Y5831075D01*
X-1796075Y5826707D01*
X-1799926Y5821877D01*
X-1803213Y5816646D01*
X-1805893Y5811081D01*
X-1807933Y5805250D01*
X-1809308Y5799227D01*
X-1810000Y5793089D01*
Y5786911D01*
X-1809308Y5780773D01*
X-1807933Y5774750D01*
X-1805893Y5768919D01*
X-1803213Y5763354D01*
X-1799926Y5758123D01*
X-1796075Y5753293D01*
X-1791707Y5748925D01*
X-1786877Y5745074D01*
X-1781646Y5741787D01*
X-1776081Y5739107D01*
X-1770250Y5737067D01*
X-1764227Y5735692D01*
X-1758088Y5735000D01*
X-1751911D01*
X-1745772Y5735692D01*
X-1739750Y5737067D01*
X-1733919Y5739107D01*
X-1728353Y5741787D01*
X-1723123Y5745074D01*
X-1718293Y5748925D01*
X-1713925Y5753293D01*
X-1710073Y5758123D01*
X-1706787Y5763354D01*
X-1704107Y5768919D01*
X-1702066Y5774750D01*
X-1700692Y5780773D01*
X-1700000Y5786911D01*
Y5793089D01*
X-1700692Y5799227D01*
X-1702066Y5805250D01*
X-1704107Y5811081D01*
X-1706787Y5816646D01*
X-1710073Y5821877D01*
X-1713925Y5826707D01*
X-1718293Y5831075D01*
X-1723123Y5834927D01*
X-1728353Y5838213D01*
X-1733919Y5840893D01*
X-1739750Y5842934D01*
X-1745772Y5844308D01*
X-1751911Y5845000D01*
D02*
G37*
G36*
X-1394411Y5054997D02*
X-1400589D01*
X-1406727Y5054306D01*
X-1412750Y5052931D01*
X-1418581Y5050891D01*
X-1424147Y5048210D01*
X-1429377Y5044924D01*
X-1434207Y5041072D01*
X-1438575Y5036704D01*
X-1441496Y5033041D01*
X-1447500Y5032062D01*
X-1453504Y5033041D01*
X-1456425Y5036704D01*
X-1460793Y5041072D01*
X-1465623Y5044924D01*
X-1470854Y5048210D01*
X-1476419Y5050891D01*
X-1482250Y5052931D01*
X-1488273Y5054306D01*
X-1494411Y5054997D01*
X-1500589D01*
X-1506727Y5054306D01*
X-1512750Y5052931D01*
X-1518581Y5050891D01*
X-1524146Y5048210D01*
X-1529377Y5044924D01*
X-1534207Y5041072D01*
X-1538575Y5036704D01*
X-1541496Y5033041D01*
X-1547500Y5032062D01*
X-1553504Y5033041D01*
X-1556425Y5036704D01*
X-1560793Y5041072D01*
X-1565623Y5044924D01*
X-1570853Y5048210D01*
X-1576419Y5050891D01*
X-1582250Y5052931D01*
X-1588272Y5054306D01*
X-1594411Y5054997D01*
X-1600588D01*
X-1606727Y5054306D01*
X-1612750Y5052931D01*
X-1618580Y5050891D01*
X-1624146Y5048210D01*
X-1629377Y5044924D01*
X-1634207Y5041072D01*
X-1638575Y5036704D01*
X-1642426Y5031874D01*
X-1645713Y5026644D01*
X-1648393Y5021078D01*
X-1650433Y5015247D01*
X-1651808Y5009225D01*
X-1652500Y5003086D01*
Y4996909D01*
X-1651808Y4990770D01*
X-1650433Y4984747D01*
X-1648393Y4978917D01*
X-1645713Y4973351D01*
X-1642426Y4968120D01*
X-1638575Y4963291D01*
X-1634207Y4958923D01*
X-1630543Y4956001D01*
X-1629564Y4949997D01*
X-1630543Y4943994D01*
X-1634207Y4941072D01*
X-1638575Y4936704D01*
X-1642426Y4931875D01*
X-1645713Y4926644D01*
X-1648393Y4921078D01*
X-1650433Y4915247D01*
X-1651808Y4909225D01*
X-1652500Y4903086D01*
Y4896909D01*
X-1651808Y4890770D01*
X-1650433Y4884748D01*
X-1648393Y4878917D01*
X-1645713Y4873351D01*
X-1642426Y4868121D01*
X-1638575Y4863291D01*
X-1634207Y4858923D01*
X-1630543Y4856001D01*
X-1629564Y4849998D01*
X-1630543Y4843994D01*
X-1634207Y4841073D01*
X-1638575Y4836705D01*
X-1642426Y4831875D01*
X-1645713Y4826644D01*
X-1648393Y4821078D01*
X-1650433Y4815248D01*
X-1651808Y4809225D01*
X-1652500Y4803086D01*
Y4796909D01*
X-1651808Y4790770D01*
X-1650433Y4784748D01*
X-1648393Y4778917D01*
X-1645713Y4773351D01*
X-1642426Y4768121D01*
X-1638575Y4763291D01*
X-1634207Y4758923D01*
X-1630543Y4756002D01*
X-1629564Y4749998D01*
X-1630543Y4743994D01*
X-1634207Y4741073D01*
X-1638575Y4736705D01*
X-1642426Y4731875D01*
X-1645713Y4726644D01*
X-1648393Y4721079D01*
X-1650433Y4715248D01*
X-1651808Y4709225D01*
X-1652500Y4703087D01*
Y4696909D01*
X-1651808Y4690771D01*
X-1650433Y4684748D01*
X-1648393Y4678917D01*
X-1645713Y4673352D01*
X-1642426Y4668121D01*
X-1638575Y4663291D01*
X-1634207Y4658923D01*
X-1630543Y4656002D01*
X-1629564Y4649998D01*
X-1630543Y4643994D01*
X-1634207Y4641073D01*
X-1638575Y4636705D01*
X-1642426Y4631875D01*
X-1645713Y4626645D01*
X-1648393Y4621079D01*
X-1650433Y4615248D01*
X-1651808Y4609225D01*
X-1652500Y4603087D01*
Y4596910D01*
X-1651808Y4590771D01*
X-1650433Y4584748D01*
X-1648393Y4578917D01*
X-1645713Y4573352D01*
X-1642426Y4568121D01*
X-1638575Y4563291D01*
X-1634207Y4558923D01*
X-1630543Y4556002D01*
X-1629564Y4549998D01*
X-1630543Y4543994D01*
X-1634207Y4541073D01*
X-1638575Y4536705D01*
X-1642426Y4531875D01*
X-1645713Y4526645D01*
X-1648393Y4521079D01*
X-1650433Y4515248D01*
X-1651808Y4509226D01*
X-1652500Y4503087D01*
Y4496910D01*
X-1651808Y4490771D01*
X-1650433Y4484748D01*
X-1648393Y4478918D01*
X-1645713Y4473352D01*
X-1642426Y4468121D01*
X-1638575Y4463292D01*
X-1634207Y4458924D01*
X-1630543Y4456002D01*
X-1629564Y4449998D01*
X-1630543Y4443995D01*
X-1634207Y4441073D01*
X-1638575Y4436705D01*
X-1642426Y4431876D01*
X-1645713Y4426645D01*
X-1648393Y4421079D01*
X-1650433Y4415248D01*
X-1651808Y4409226D01*
X-1652500Y4403087D01*
Y4396910D01*
X-1651808Y4390771D01*
X-1650433Y4384749D01*
X-1648393Y4378918D01*
X-1645713Y4373352D01*
X-1642426Y4368122D01*
X-1638575Y4363292D01*
X-1634207Y4358924D01*
X-1630543Y4356002D01*
X-1629564Y4349999D01*
X-1630543Y4343995D01*
X-1634207Y4341074D01*
X-1638575Y4336706D01*
X-1642426Y4331876D01*
X-1645713Y4326645D01*
X-1648393Y4321079D01*
X-1650433Y4315249D01*
X-1651808Y4309226D01*
X-1652500Y4303087D01*
Y4296910D01*
X-1651808Y4290771D01*
X-1650433Y4284749D01*
X-1648393Y4278918D01*
X-1645713Y4273352D01*
X-1642426Y4268122D01*
X-1638575Y4263292D01*
X-1634207Y4258924D01*
X-1630543Y4256003D01*
X-1629564Y4249999D01*
X-1630543Y4243995D01*
X-1634207Y4241074D01*
X-1638575Y4236706D01*
X-1642426Y4231876D01*
X-1645713Y4226645D01*
X-1648393Y4221080D01*
X-1650433Y4215249D01*
X-1651808Y4209226D01*
X-1652500Y4203088D01*
Y4196910D01*
X-1651808Y4190772D01*
X-1650433Y4184749D01*
X-1648393Y4178918D01*
X-1645713Y4173353D01*
X-1642426Y4168122D01*
X-1638575Y4163292D01*
X-1634207Y4158924D01*
X-1630543Y4156003D01*
X-1629564Y4149999D01*
X-1630543Y4143995D01*
X-1634207Y4141074D01*
X-1638575Y4136706D01*
X-1642426Y4131876D01*
X-1645713Y4126646D01*
X-1648393Y4121080D01*
X-1650433Y4115249D01*
X-1651808Y4109226D01*
X-1652500Y4103088D01*
Y4096911D01*
X-1651808Y4090772D01*
X-1650433Y4084749D01*
X-1648393Y4078918D01*
X-1645713Y4073353D01*
X-1642426Y4068122D01*
X-1638575Y4063292D01*
X-1634207Y4058924D01*
X-1630543Y4056003D01*
X-1629564Y4049999D01*
X-1630543Y4043995D01*
X-1634207Y4041074D01*
X-1638575Y4036706D01*
X-1642426Y4031876D01*
X-1645713Y4026646D01*
X-1648393Y4021080D01*
X-1650433Y4015249D01*
X-1651808Y4009227D01*
X-1652500Y4003088D01*
Y3996911D01*
X-1651808Y3990772D01*
X-1650433Y3984749D01*
X-1648393Y3978919D01*
X-1645713Y3973353D01*
X-1642426Y3968122D01*
X-1638575Y3963293D01*
X-1634207Y3958925D01*
X-1630543Y3956003D01*
X-1629564Y3949999D01*
X-1630543Y3943996D01*
X-1634207Y3941074D01*
X-1638575Y3936706D01*
X-1642426Y3931877D01*
X-1645713Y3926646D01*
X-1648393Y3921080D01*
X-1650433Y3915249D01*
X-1651808Y3909227D01*
X-1652500Y3903088D01*
Y3896911D01*
X-1651808Y3890772D01*
X-1650433Y3884750D01*
X-1648393Y3878919D01*
X-1645713Y3873353D01*
X-1642426Y3868123D01*
X-1638575Y3863293D01*
X-1634207Y3858925D01*
X-1630543Y3856003D01*
X-1629564Y3850000D01*
X-1630543Y3843996D01*
X-1634207Y3841075D01*
X-1638575Y3836707D01*
X-1642426Y3831877D01*
X-1645713Y3826646D01*
X-1648393Y3821080D01*
X-1650433Y3815250D01*
X-1651808Y3809227D01*
X-1652500Y3803088D01*
Y3796911D01*
X-1651808Y3790772D01*
X-1650433Y3784750D01*
X-1648393Y3778919D01*
X-1645713Y3773353D01*
X-1642426Y3768123D01*
X-1638575Y3763293D01*
X-1634207Y3758925D01*
X-1630543Y3756004D01*
X-1629564Y3750000D01*
X-1630543Y3743996D01*
X-1634207Y3741075D01*
X-1638575Y3736707D01*
X-1642426Y3731877D01*
X-1645713Y3726646D01*
X-1648393Y3721081D01*
X-1650433Y3715250D01*
X-1651808Y3709227D01*
X-1652500Y3703089D01*
Y3696911D01*
X-1651808Y3690773D01*
X-1650433Y3684750D01*
X-1648393Y3678919D01*
X-1645713Y3673354D01*
X-1642426Y3668123D01*
X-1638575Y3663293D01*
X-1634207Y3658925D01*
X-1630543Y3656004D01*
X-1629564Y3650000D01*
X-1630543Y3643996D01*
X-1634207Y3641075D01*
X-1638575Y3636707D01*
X-1642426Y3631877D01*
X-1645713Y3626647D01*
X-1648393Y3621081D01*
X-1650433Y3615250D01*
X-1651808Y3609227D01*
X-1652500Y3603089D01*
Y3596912D01*
X-1651808Y3590773D01*
X-1650433Y3584750D01*
X-1648393Y3578919D01*
X-1645713Y3573354D01*
X-1642426Y3568123D01*
X-1638575Y3563293D01*
X-1634207Y3558925D01*
X-1629377Y3555074D01*
X-1624146Y3551787D01*
X-1618580Y3549107D01*
X-1612750Y3547067D01*
X-1606727Y3545692D01*
X-1600588Y3545000D01*
X-1594411D01*
X-1588272Y3545692D01*
X-1582250Y3547067D01*
X-1576419Y3549107D01*
X-1570853Y3551787D01*
X-1565623Y3555074D01*
X-1560793Y3558925D01*
X-1556425Y3563293D01*
X-1553504Y3566957D01*
X-1547500Y3567936D01*
X-1541496Y3566957D01*
X-1538575Y3563293D01*
X-1534207Y3558925D01*
X-1529377Y3555074D01*
X-1524146Y3551787D01*
X-1518581Y3549107D01*
X-1512750Y3547067D01*
X-1506727Y3545692D01*
X-1500589Y3545000D01*
X-1494411D01*
X-1488273Y3545692D01*
X-1482250Y3547067D01*
X-1476419Y3549107D01*
X-1470854Y3551787D01*
X-1465623Y3555074D01*
X-1460793Y3558925D01*
X-1456425Y3563293D01*
X-1453504Y3566957D01*
X-1447500Y3567936D01*
X-1441496Y3566957D01*
X-1438575Y3563293D01*
X-1434207Y3558925D01*
X-1429377Y3555074D01*
X-1424147Y3551787D01*
X-1418581Y3549107D01*
X-1412750Y3547067D01*
X-1406727Y3545692D01*
X-1400589Y3545000D01*
X-1394411D01*
X-1388273Y3545692D01*
X-1382250Y3547067D01*
X-1376419Y3549107D01*
X-1370854Y3551787D01*
X-1365623Y3555074D01*
X-1360793Y3558925D01*
X-1356425Y3563293D01*
X-1352574Y3568123D01*
X-1349287Y3573354D01*
X-1346607Y3578919D01*
X-1344567Y3584750D01*
X-1343192Y3590773D01*
X-1342500Y3596912D01*
Y3603089D01*
X-1343192Y3609227D01*
X-1344567Y3615250D01*
X-1346607Y3621081D01*
X-1349287Y3626647D01*
X-1352574Y3631877D01*
X-1356425Y3636707D01*
X-1360793Y3641075D01*
X-1364457Y3643996D01*
X-1365436Y3650000D01*
X-1364457Y3656004D01*
X-1360793Y3658925D01*
X-1356425Y3663293D01*
X-1352574Y3668123D01*
X-1349287Y3673354D01*
X-1346607Y3678919D01*
X-1344567Y3684750D01*
X-1343192Y3690773D01*
X-1342500Y3696911D01*
Y3703089D01*
X-1343192Y3709227D01*
X-1344567Y3715250D01*
X-1346607Y3721081D01*
X-1349287Y3726646D01*
X-1352574Y3731877D01*
X-1356425Y3736707D01*
X-1360793Y3741075D01*
X-1364457Y3743996D01*
X-1365436Y3750000D01*
X-1364457Y3756004D01*
X-1360793Y3758925D01*
X-1356425Y3763293D01*
X-1352574Y3768123D01*
X-1349287Y3773353D01*
X-1346607Y3778919D01*
X-1344567Y3784750D01*
X-1343192Y3790772D01*
X-1342500Y3796911D01*
Y3803088D01*
X-1343192Y3809227D01*
X-1344567Y3815250D01*
X-1346607Y3821080D01*
X-1349287Y3826646D01*
X-1352574Y3831877D01*
X-1356425Y3836707D01*
X-1360793Y3841075D01*
X-1364457Y3843996D01*
X-1365436Y3850000D01*
X-1364457Y3856003D01*
X-1360793Y3858925D01*
X-1356425Y3863293D01*
X-1352574Y3868123D01*
X-1349287Y3873353D01*
X-1346607Y3878919D01*
X-1344567Y3884750D01*
X-1343192Y3890772D01*
X-1342500Y3896911D01*
Y3903088D01*
X-1343192Y3909227D01*
X-1344567Y3915249D01*
X-1346607Y3921080D01*
X-1349287Y3926646D01*
X-1352574Y3931877D01*
X-1356425Y3936706D01*
X-1360793Y3941074D01*
X-1364457Y3943996D01*
X-1365436Y3949999D01*
X-1364457Y3956003D01*
X-1360793Y3958925D01*
X-1356425Y3963293D01*
X-1352574Y3968122D01*
X-1349287Y3973353D01*
X-1346607Y3978919D01*
X-1344567Y3984749D01*
X-1343192Y3990772D01*
X-1342500Y3996911D01*
Y4003088D01*
X-1343192Y4009227D01*
X-1344567Y4015249D01*
X-1346607Y4021080D01*
X-1349287Y4026646D01*
X-1352574Y4031876D01*
X-1356425Y4036706D01*
X-1360793Y4041074D01*
X-1364457Y4043995D01*
X-1365436Y4049999D01*
X-1364457Y4056003D01*
X-1360793Y4058924D01*
X-1356425Y4063292D01*
X-1352574Y4068122D01*
X-1349287Y4073353D01*
X-1346607Y4078918D01*
X-1344567Y4084749D01*
X-1343192Y4090772D01*
X-1342500Y4096911D01*
Y4103088D01*
X-1343192Y4109226D01*
X-1344567Y4115249D01*
X-1346607Y4121080D01*
X-1349287Y4126646D01*
X-1352574Y4131876D01*
X-1356425Y4136706D01*
X-1360793Y4141074D01*
X-1364457Y4143995D01*
X-1365436Y4149999D01*
X-1364457Y4156003D01*
X-1360793Y4158924D01*
X-1356425Y4163292D01*
X-1352574Y4168122D01*
X-1349287Y4173353D01*
X-1346607Y4178918D01*
X-1344567Y4184749D01*
X-1343192Y4190772D01*
X-1342500Y4196910D01*
Y4203088D01*
X-1343192Y4209226D01*
X-1344567Y4215249D01*
X-1346607Y4221080D01*
X-1349287Y4226645D01*
X-1352574Y4231876D01*
X-1356425Y4236706D01*
X-1360793Y4241074D01*
X-1364457Y4243995D01*
X-1365436Y4249999D01*
X-1364457Y4256003D01*
X-1360793Y4258924D01*
X-1356425Y4263292D01*
X-1352574Y4268122D01*
X-1349287Y4273352D01*
X-1346607Y4278918D01*
X-1344567Y4284749D01*
X-1343192Y4290771D01*
X-1342500Y4296910D01*
Y4303087D01*
X-1343192Y4309226D01*
X-1344567Y4315249D01*
X-1346607Y4321079D01*
X-1349287Y4326645D01*
X-1352574Y4331876D01*
X-1356425Y4336706D01*
X-1360793Y4341074D01*
X-1364457Y4343995D01*
X-1365436Y4349999D01*
X-1364457Y4356002D01*
X-1360793Y4358924D01*
X-1356425Y4363292D01*
X-1352574Y4368122D01*
X-1349287Y4373352D01*
X-1346607Y4378918D01*
X-1344567Y4384749D01*
X-1343192Y4390771D01*
X-1342500Y4396910D01*
Y4403087D01*
X-1343192Y4409226D01*
X-1344567Y4415248D01*
X-1346607Y4421079D01*
X-1349287Y4426645D01*
X-1352574Y4431876D01*
X-1356425Y4436705D01*
X-1360793Y4441073D01*
X-1364457Y4443995D01*
X-1365436Y4449998D01*
X-1364457Y4456002D01*
X-1360793Y4458924D01*
X-1356425Y4463292D01*
X-1352574Y4468121D01*
X-1349287Y4473352D01*
X-1346607Y4478918D01*
X-1344567Y4484748D01*
X-1343192Y4490771D01*
X-1342500Y4496910D01*
Y4503087D01*
X-1343192Y4509226D01*
X-1344567Y4515248D01*
X-1346607Y4521079D01*
X-1349287Y4526645D01*
X-1352574Y4531875D01*
X-1356425Y4536705D01*
X-1360793Y4541073D01*
X-1364457Y4543994D01*
X-1365436Y4549998D01*
X-1364457Y4556002D01*
X-1360793Y4558923D01*
X-1356425Y4563291D01*
X-1352574Y4568121D01*
X-1349287Y4573352D01*
X-1346607Y4578917D01*
X-1344567Y4584748D01*
X-1343192Y4590771D01*
X-1342500Y4596910D01*
Y4603087D01*
X-1343192Y4609225D01*
X-1344567Y4615248D01*
X-1346607Y4621079D01*
X-1349287Y4626645D01*
X-1352574Y4631875D01*
X-1356425Y4636705D01*
X-1360793Y4641073D01*
X-1364457Y4643994D01*
X-1365436Y4649998D01*
X-1364457Y4656002D01*
X-1360793Y4658923D01*
X-1356425Y4663291D01*
X-1352574Y4668121D01*
X-1349287Y4673352D01*
X-1346607Y4678917D01*
X-1344567Y4684748D01*
X-1343192Y4690771D01*
X-1342500Y4696909D01*
Y4703087D01*
X-1343192Y4709225D01*
X-1344567Y4715248D01*
X-1346607Y4721079D01*
X-1349287Y4726644D01*
X-1352574Y4731875D01*
X-1356425Y4736705D01*
X-1360793Y4741073D01*
X-1364457Y4743994D01*
X-1365436Y4749998D01*
X-1364457Y4756002D01*
X-1360793Y4758923D01*
X-1356425Y4763291D01*
X-1352574Y4768121D01*
X-1349287Y4773351D01*
X-1346607Y4778917D01*
X-1344567Y4784748D01*
X-1343192Y4790770D01*
X-1342500Y4796909D01*
Y4803086D01*
X-1343192Y4809225D01*
X-1344567Y4815248D01*
X-1346607Y4821078D01*
X-1349287Y4826644D01*
X-1352574Y4831875D01*
X-1356425Y4836705D01*
X-1360793Y4841073D01*
X-1364457Y4843994D01*
X-1365436Y4849998D01*
X-1364457Y4856001D01*
X-1360793Y4858923D01*
X-1356425Y4863291D01*
X-1352574Y4868121D01*
X-1349287Y4873351D01*
X-1346607Y4878917D01*
X-1344567Y4884748D01*
X-1343192Y4890770D01*
X-1342500Y4896909D01*
Y4903086D01*
X-1343192Y4909225D01*
X-1344567Y4915247D01*
X-1346607Y4921078D01*
X-1349287Y4926644D01*
X-1352574Y4931875D01*
X-1356425Y4936704D01*
X-1360793Y4941072D01*
X-1364457Y4943994D01*
X-1365436Y4949997D01*
X-1364457Y4956001D01*
X-1360793Y4958923D01*
X-1356425Y4963291D01*
X-1352574Y4968120D01*
X-1349287Y4973351D01*
X-1346607Y4978917D01*
X-1344567Y4984747D01*
X-1343192Y4990770D01*
X-1342500Y4996909D01*
Y5003086D01*
X-1343192Y5009225D01*
X-1344567Y5015247D01*
X-1346607Y5021078D01*
X-1349287Y5026644D01*
X-1352574Y5031874D01*
X-1356425Y5036704D01*
X-1360793Y5041072D01*
X-1365623Y5044924D01*
X-1370854Y5048210D01*
X-1376419Y5050891D01*
X-1382250Y5052931D01*
X-1388273Y5054306D01*
X-1394411Y5054997D01*
D02*
G37*
G36*
X1190588Y5045000D02*
X1184411D01*
X1178272Y5044308D01*
X1172250Y5042933D01*
X1166419Y5040893D01*
X1160853Y5038213D01*
X1155623Y5034926D01*
X1150793Y5031075D01*
X1146425Y5026706D01*
X1143504Y5023043D01*
X1137500Y5022064D01*
X1131496Y5023043D01*
X1128575Y5026706D01*
X1124207Y5031075D01*
X1119377Y5034926D01*
X1114146Y5038213D01*
X1108581Y5040893D01*
X1102750Y5042933D01*
X1096727Y5044308D01*
X1090589Y5045000D01*
X1084411D01*
X1078273Y5044308D01*
X1072250Y5042933D01*
X1066419Y5040893D01*
X1060854Y5038213D01*
X1055623Y5034926D01*
X1050793Y5031075D01*
X1046425Y5026706D01*
X1042573Y5021877D01*
X1039287Y5016646D01*
X1036607Y5011080D01*
X1034566Y5005250D01*
X1033192Y4999227D01*
X1032500Y4993088D01*
Y4986911D01*
X1033192Y4980772D01*
X1034566Y4974750D01*
X1036607Y4968919D01*
X1039287Y4963353D01*
X1042573Y4958123D01*
X1046425Y4953293D01*
X1050793Y4948925D01*
X1054456Y4946004D01*
X1055436Y4940000D01*
X1054456Y4933996D01*
X1050793Y4931075D01*
X1046425Y4926707D01*
X1042573Y4921877D01*
X1039287Y4916646D01*
X1036607Y4911081D01*
X1034566Y4905250D01*
X1033192Y4899227D01*
X1032500Y4893089D01*
Y4886911D01*
X1033192Y4880773D01*
X1034566Y4874750D01*
X1036607Y4868919D01*
X1039287Y4863353D01*
X1042573Y4858123D01*
X1046425Y4853293D01*
X1050793Y4848925D01*
X1055623Y4845073D01*
X1060854Y4841787D01*
X1066419Y4839107D01*
X1072250Y4837066D01*
X1078273Y4835692D01*
X1084411Y4835000D01*
X1090589D01*
X1096727Y4835692D01*
X1102750Y4837066D01*
X1108581Y4839107D01*
X1114146Y4841787D01*
X1119377Y4845073D01*
X1124207Y4848925D01*
X1128575Y4853293D01*
X1131496Y4856956D01*
X1137500Y4857935D01*
X1143504Y4856956D01*
X1146425Y4853293D01*
X1150793Y4848925D01*
X1155623Y4845073D01*
X1160853Y4841787D01*
X1166419Y4839107D01*
X1172250Y4837066D01*
X1178272Y4835692D01*
X1184411Y4835000D01*
X1190588D01*
X1196727Y4835692D01*
X1202750Y4837066D01*
X1208581Y4839107D01*
X1214146Y4841787D01*
X1219377Y4845073D01*
X1224207Y4848925D01*
X1228575Y4853293D01*
X1232426Y4858123D01*
X1235713Y4863353D01*
X1238393Y4868919D01*
X1240433Y4874750D01*
X1241808Y4880773D01*
X1242500Y4886911D01*
Y4893089D01*
X1241808Y4899227D01*
X1240433Y4905250D01*
X1238393Y4911081D01*
X1235713Y4916646D01*
X1232426Y4921877D01*
X1228575Y4926707D01*
X1224207Y4931075D01*
X1220543Y4933996D01*
X1219564Y4940000D01*
X1220543Y4946004D01*
X1224207Y4948925D01*
X1228575Y4953293D01*
X1232426Y4958123D01*
X1235713Y4963353D01*
X1238393Y4968919D01*
X1240433Y4974750D01*
X1241808Y4980772D01*
X1242500Y4986911D01*
Y4993088D01*
X1241808Y4999227D01*
X1240433Y5005250D01*
X1238393Y5011080D01*
X1235713Y5016646D01*
X1232426Y5021877D01*
X1228575Y5026706D01*
X1224207Y5031075D01*
X1219377Y5034926D01*
X1214146Y5038213D01*
X1208581Y5040893D01*
X1202750Y5042933D01*
X1196727Y5044308D01*
X1190588Y5045000D01*
D02*
G37*
G36*
X-1755000Y4912000D02*
X-2045000D01*
Y4692000D01*
X-1755000D01*
Y4912000D01*
D02*
G37*
G36*
X263089Y4740000D02*
X256911D01*
X250773Y4739308D01*
X244750Y4737934D01*
X238919Y4735893D01*
X233354Y4733213D01*
X228123Y4729927D01*
X223293Y4726075D01*
X218925Y4721707D01*
X215073Y4716877D01*
X211787Y4711646D01*
X209107Y4706081D01*
X207066Y4700250D01*
X205692Y4694227D01*
X205000Y4688089D01*
Y4681911D01*
X205692Y4675773D01*
X207066Y4669750D01*
X209107Y4663919D01*
X211787Y4658354D01*
X215073Y4653123D01*
X218925Y4648293D01*
X223293Y4643925D01*
X228123Y4640074D01*
X233354Y4636787D01*
X238919Y4634107D01*
X244750Y4632066D01*
X250773Y4630692D01*
X256911Y4630000D01*
X263089D01*
X269227Y4630692D01*
X275250Y4632066D01*
X281081Y4634107D01*
X286646Y4636787D01*
X291877Y4640074D01*
X296707Y4643925D01*
X301075Y4648293D01*
X304926Y4653123D01*
X308213Y4658354D01*
X310893Y4663919D01*
X312934Y4669750D01*
X314308Y4675773D01*
X315000Y4681911D01*
Y4688089D01*
X314308Y4694227D01*
X312934Y4700250D01*
X310893Y4706081D01*
X308213Y4711646D01*
X304926Y4716877D01*
X301075Y4721707D01*
X296707Y4726075D01*
X291877Y4729927D01*
X286646Y4733213D01*
X281081Y4735893D01*
X275250Y4737934D01*
X269227Y4739308D01*
X263089Y4740000D01*
D02*
G37*
G36*
X1190588Y4645000D02*
X1184411D01*
X1178272Y4644308D01*
X1172250Y4642933D01*
X1166419Y4640893D01*
X1160853Y4638213D01*
X1155623Y4634926D01*
X1150793Y4631075D01*
X1146425Y4626707D01*
X1143504Y4623043D01*
X1137500Y4622064D01*
X1131496Y4623043D01*
X1128575Y4626707D01*
X1124207Y4631075D01*
X1119377Y4634926D01*
X1114146Y4638213D01*
X1108581Y4640893D01*
X1102750Y4642933D01*
X1096727Y4644308D01*
X1090589Y4645000D01*
X1084411D01*
X1078273Y4644308D01*
X1072250Y4642933D01*
X1066419Y4640893D01*
X1060854Y4638213D01*
X1055623Y4634926D01*
X1050793Y4631075D01*
X1046425Y4626707D01*
X1042573Y4621877D01*
X1039287Y4616646D01*
X1036607Y4611080D01*
X1034566Y4605250D01*
X1033192Y4599227D01*
X1032500Y4593088D01*
Y4586911D01*
X1033192Y4580772D01*
X1034566Y4574750D01*
X1036607Y4568919D01*
X1039287Y4563353D01*
X1042573Y4558123D01*
X1046425Y4553293D01*
X1050793Y4548925D01*
X1054456Y4546004D01*
X1055436Y4540000D01*
X1054456Y4533996D01*
X1050793Y4531075D01*
X1046425Y4526707D01*
X1042573Y4521877D01*
X1039287Y4516646D01*
X1036607Y4511081D01*
X1034566Y4505250D01*
X1033192Y4499227D01*
X1032500Y4493089D01*
Y4486911D01*
X1033192Y4480773D01*
X1034566Y4474750D01*
X1036607Y4468919D01*
X1039287Y4463354D01*
X1042573Y4458123D01*
X1046425Y4453293D01*
X1050793Y4448925D01*
X1055623Y4445073D01*
X1060854Y4441787D01*
X1066419Y4439107D01*
X1072250Y4437066D01*
X1078273Y4435692D01*
X1084411Y4435000D01*
X1090589D01*
X1096727Y4435692D01*
X1102750Y4437066D01*
X1108581Y4439107D01*
X1114146Y4441787D01*
X1119377Y4445073D01*
X1124207Y4448925D01*
X1128575Y4453293D01*
X1131496Y4456956D01*
X1137500Y4457935D01*
X1143504Y4456956D01*
X1146425Y4453293D01*
X1150793Y4448925D01*
X1155623Y4445073D01*
X1160853Y4441787D01*
X1166419Y4439107D01*
X1172250Y4437066D01*
X1178272Y4435692D01*
X1184411Y4435000D01*
X1190588D01*
X1196727Y4435692D01*
X1202750Y4437066D01*
X1208581Y4439107D01*
X1214146Y4441787D01*
X1219377Y4445073D01*
X1224207Y4448925D01*
X1228575Y4453293D01*
X1232426Y4458123D01*
X1235713Y4463354D01*
X1238393Y4468919D01*
X1240433Y4474750D01*
X1241808Y4480773D01*
X1242500Y4486911D01*
Y4493089D01*
X1241808Y4499227D01*
X1240433Y4505250D01*
X1238393Y4511081D01*
X1235713Y4516646D01*
X1232426Y4521877D01*
X1228575Y4526707D01*
X1224207Y4531075D01*
X1220543Y4533996D01*
X1219564Y4540000D01*
X1220543Y4546004D01*
X1224207Y4548925D01*
X1228575Y4553293D01*
X1232426Y4558123D01*
X1235713Y4563353D01*
X1238393Y4568919D01*
X1240433Y4574750D01*
X1241808Y4580772D01*
X1242500Y4586911D01*
Y4593088D01*
X1241808Y4599227D01*
X1240433Y4605250D01*
X1238393Y4611080D01*
X1235713Y4616646D01*
X1232426Y4621877D01*
X1228575Y4626707D01*
X1224207Y4631075D01*
X1219377Y4634926D01*
X1214146Y4638213D01*
X1208581Y4640893D01*
X1202750Y4642933D01*
X1196727Y4644308D01*
X1190588Y4645000D01*
D02*
G37*
G36*
X-126911Y4700000D02*
X-133089D01*
X-139227Y4699308D01*
X-145250Y4697933D01*
X-151081Y4695893D01*
X-156646Y4693213D01*
X-161877Y4689926D01*
X-166707Y4686075D01*
X-171075Y4681707D01*
X-174926Y4676877D01*
X-178213Y4671646D01*
X-180893Y4666081D01*
X-182934Y4660250D01*
X-184308Y4654227D01*
X-185000Y4648088D01*
Y4641911D01*
X-184308Y4635773D01*
X-182934Y4629750D01*
X-180893Y4623919D01*
X-178213Y4618353D01*
X-174926Y4613123D01*
X-171075Y4608293D01*
X-166707Y4603925D01*
X-161877Y4600073D01*
X-156646Y4596787D01*
X-151081Y4594107D01*
X-145250Y4592066D01*
X-139227Y4590692D01*
X-133089Y4590000D01*
X-126911D01*
X-120773Y4590692D01*
X-114750Y4592066D01*
X-108919Y4594107D01*
X-103354Y4596787D01*
X-98123Y4600073D01*
X-93293Y4603925D01*
X-88925Y4608293D01*
X-85073Y4613123D01*
X-81787Y4618353D01*
X-79107Y4623919D01*
X-77066Y4629750D01*
X-75692Y4635773D01*
X-75000Y4641911D01*
Y4648088D01*
X-75692Y4654227D01*
X-77066Y4660250D01*
X-79107Y4666081D01*
X-81787Y4671646D01*
X-85073Y4676877D01*
X-88925Y4681707D01*
X-93293Y4686075D01*
X-98123Y4689926D01*
X-103354Y4693213D01*
X-108919Y4695893D01*
X-114750Y4697933D01*
X-120773Y4699308D01*
X-126911Y4700000D01*
D02*
G37*
G36*
X1878088Y4567500D02*
X1871911D01*
X1865772Y4566808D01*
X1859750Y4565434D01*
X1853919Y4563393D01*
X1848353Y4560713D01*
X1843123Y4557427D01*
X1838293Y4553575D01*
X1833925Y4549207D01*
X1831004Y4545544D01*
X1825000Y4544565D01*
X1818996Y4545544D01*
X1816075Y4549207D01*
X1811707Y4553575D01*
X1806877Y4557427D01*
X1801646Y4560713D01*
X1796081Y4563393D01*
X1790250Y4565434D01*
X1784227Y4566808D01*
X1778089Y4567500D01*
X1771911D01*
X1765773Y4566808D01*
X1759750Y4565434D01*
X1753919Y4563393D01*
X1748354Y4560713D01*
X1743123Y4557427D01*
X1738293Y4553575D01*
X1733925Y4549207D01*
X1730074Y4544377D01*
X1726787Y4539147D01*
X1724107Y4533581D01*
X1722066Y4527750D01*
X1720692Y4521728D01*
X1720000Y4515589D01*
Y4509412D01*
X1720692Y4503273D01*
X1722066Y4497250D01*
X1724107Y4491420D01*
X1726787Y4485854D01*
X1730074Y4480623D01*
X1733925Y4475793D01*
X1738293Y4471425D01*
X1741956Y4468504D01*
X1742936Y4462500D01*
X1741956Y4456497D01*
X1738293Y4453575D01*
X1733925Y4449207D01*
X1730074Y4444377D01*
X1726787Y4439147D01*
X1724107Y4433581D01*
X1722066Y4427750D01*
X1720692Y4421728D01*
X1720000Y4415589D01*
Y4409412D01*
X1720692Y4403273D01*
X1722066Y4397251D01*
X1724107Y4391420D01*
X1726787Y4385854D01*
X1730074Y4380623D01*
X1733925Y4375794D01*
X1738293Y4371426D01*
X1743123Y4367574D01*
X1748354Y4364287D01*
X1753919Y4361607D01*
X1759750Y4359567D01*
X1765773Y4358192D01*
X1771911Y4357501D01*
X1778089D01*
X1784227Y4358192D01*
X1790250Y4359567D01*
X1796081Y4361607D01*
X1801646Y4364287D01*
X1806877Y4367574D01*
X1811707Y4371426D01*
X1816075Y4375794D01*
X1818996Y4379457D01*
X1825000Y4380436D01*
X1831004Y4379457D01*
X1833925Y4375794D01*
X1838293Y4371426D01*
X1843123Y4367574D01*
X1848353Y4364287D01*
X1853919Y4361607D01*
X1859750Y4359567D01*
X1865772Y4358192D01*
X1871911Y4357501D01*
X1878088D01*
X1884227Y4358192D01*
X1890250Y4359567D01*
X1896081Y4361607D01*
X1901646Y4364287D01*
X1906877Y4367574D01*
X1911707Y4371426D01*
X1916075Y4375794D01*
X1919926Y4380623D01*
X1923213Y4385854D01*
X1925893Y4391420D01*
X1927933Y4397251D01*
X1929308Y4403273D01*
X1930000Y4409412D01*
Y4415589D01*
X1929308Y4421728D01*
X1927933Y4427750D01*
X1925893Y4433581D01*
X1923213Y4439147D01*
X1919926Y4444377D01*
X1916075Y4449207D01*
X1911707Y4453575D01*
X1908043Y4456497D01*
X1907064Y4462500D01*
X1908043Y4468504D01*
X1911707Y4471425D01*
X1916075Y4475793D01*
X1919926Y4480623D01*
X1923213Y4485854D01*
X1925893Y4491420D01*
X1927933Y4497250D01*
X1929308Y4503273D01*
X1930000Y4509412D01*
Y4515589D01*
X1929308Y4521728D01*
X1927933Y4527750D01*
X1925893Y4533581D01*
X1923213Y4539147D01*
X1919926Y4544377D01*
X1916075Y4549207D01*
X1911707Y4553575D01*
X1906877Y4557427D01*
X1901646Y4560713D01*
X1896081Y4563393D01*
X1890250Y4565434D01*
X1884227Y4566808D01*
X1878088Y4567500D01*
D02*
G37*
G36*
X-1865000Y4658085D02*
X-1935000D01*
X-1943637Y4657746D01*
X-1952221Y4656730D01*
X-1960699Y4655043D01*
X-1969018Y4652697D01*
X-1977128Y4649705D01*
X-1984977Y4646086D01*
X-1992519Y4641863D01*
X-1999706Y4637061D01*
X-2006494Y4631709D01*
X-2012842Y4625842D01*
X-2018709Y4619494D01*
X-2024060Y4612706D01*
X-2028863Y4605519D01*
X-2033086Y4597978D01*
X-2036705Y4590128D01*
X-2039697Y4582018D01*
X-2042043Y4573699D01*
X-2043729Y4565221D01*
X-2044745Y4556637D01*
X-2045085Y4548000D01*
X-2044745Y4539363D01*
X-2043729Y4530779D01*
X-2042043Y4522302D01*
X-2039697Y4513982D01*
X-2036705Y4505873D01*
X-2033086Y4498023D01*
X-2028863Y4490481D01*
X-2024060Y4483294D01*
X-2018709Y4476506D01*
X-2012842Y4470159D01*
X-2006494Y4464291D01*
X-1999706Y4458940D01*
X-1992519Y4454138D01*
X-1984977Y4449914D01*
X-1977128Y4446295D01*
X-1969018Y4443304D01*
X-1960699Y4440957D01*
X-1952221Y4439271D01*
X-1943637Y4438255D01*
X-1935000Y4437916D01*
X-1865000D01*
X-1856363Y4438255D01*
X-1847779Y4439271D01*
X-1839301Y4440957D01*
X-1830982Y4443304D01*
X-1822872Y4446295D01*
X-1815023Y4449914D01*
X-1807481Y4454138D01*
X-1800294Y4458940D01*
X-1793506Y4464291D01*
X-1787158Y4470159D01*
X-1781291Y4476506D01*
X-1775940Y4483294D01*
X-1771137Y4490481D01*
X-1766914Y4498023D01*
X-1763295Y4505873D01*
X-1760303Y4513982D01*
X-1757957Y4522302D01*
X-1756271Y4530779D01*
X-1755255Y4539363D01*
X-1754915Y4548000D01*
X-1755255Y4556637D01*
X-1756271Y4565221D01*
X-1757957Y4573699D01*
X-1760303Y4582018D01*
X-1763295Y4590128D01*
X-1766914Y4597978D01*
X-1771137Y4605519D01*
X-1775940Y4612706D01*
X-1781291Y4619494D01*
X-1787158Y4625842D01*
X-1793506Y4631709D01*
X-1800294Y4637061D01*
X-1807481Y4641863D01*
X-1815023Y4646086D01*
X-1822872Y4649705D01*
X-1830982Y4652697D01*
X-1839301Y4655043D01*
X-1847779Y4656730D01*
X-1856363Y4657746D01*
X-1865000Y4658085D01*
D02*
G37*
G36*
X-45912Y4445000D02*
X-52089D01*
X-58227Y4444308D01*
X-64250Y4442933D01*
X-70081Y4440893D01*
X-75647Y4438213D01*
X-80877Y4434926D01*
X-85707Y4431075D01*
X-90075Y4426707D01*
X-93927Y4421877D01*
X-97213Y4416646D01*
X-99893Y4411081D01*
X-101934Y4405250D01*
X-103308Y4399227D01*
X-104000Y4393088D01*
Y4386911D01*
X-103308Y4380773D01*
X-101934Y4374750D01*
X-99893Y4368919D01*
X-97213Y4363353D01*
X-93927Y4358123D01*
X-90075Y4353293D01*
X-85707Y4348925D01*
X-80877Y4345073D01*
X-75647Y4341787D01*
X-70081Y4339107D01*
X-64250Y4337066D01*
X-58227Y4335692D01*
X-52089Y4335000D01*
X-45912D01*
X-39773Y4335692D01*
X-33750Y4337066D01*
X-27919Y4339107D01*
X-22354Y4341787D01*
X-17123Y4345073D01*
X-12293Y4348925D01*
X-7925Y4353293D01*
X-4074Y4358123D01*
X-787Y4363353D01*
X1893Y4368919D01*
X3933Y4374750D01*
X5308Y4380773D01*
X6000Y4386911D01*
Y4393088D01*
X5308Y4399227D01*
X3933Y4405250D01*
X1893Y4411081D01*
X-787Y4416646D01*
X-4074Y4421877D01*
X-7925Y4426707D01*
X-12293Y4431075D01*
X-17123Y4434926D01*
X-22354Y4438213D01*
X-27919Y4440893D01*
X-33750Y4442933D01*
X-39773Y4444308D01*
X-45912Y4445000D01*
D02*
G37*
G36*
X265589Y4355000D02*
X259411D01*
X253273Y4354308D01*
X247250Y4352934D01*
X241419Y4350893D01*
X235854Y4348213D01*
X230623Y4344927D01*
X225793Y4341075D01*
X221425Y4336707D01*
X217574Y4331877D01*
X214287Y4326646D01*
X211607Y4321081D01*
X209567Y4315250D01*
X208192Y4309227D01*
X207500Y4303089D01*
Y4296911D01*
X208192Y4290773D01*
X209567Y4284750D01*
X211607Y4278919D01*
X214287Y4273354D01*
X217574Y4268123D01*
X221425Y4263293D01*
X225793Y4258925D01*
X230623Y4255074D01*
X235854Y4251787D01*
X241419Y4249107D01*
X247250Y4247066D01*
X253273Y4245692D01*
X259411Y4245000D01*
X265589D01*
X271727Y4245692D01*
X277750Y4247066D01*
X283581Y4249107D01*
X289146Y4251787D01*
X294377Y4255074D01*
X299207Y4258925D01*
X303575Y4263293D01*
X307427Y4268123D01*
X310713Y4273354D01*
X313393Y4278919D01*
X315434Y4284750D01*
X316808Y4290773D01*
X317500Y4296911D01*
Y4303089D01*
X316808Y4309227D01*
X315434Y4315250D01*
X313393Y4321081D01*
X310713Y4326646D01*
X307427Y4331877D01*
X303575Y4336707D01*
X299207Y4341075D01*
X294377Y4344927D01*
X289146Y4348213D01*
X283581Y4350893D01*
X277750Y4352934D01*
X271727Y4354308D01*
X265589Y4355000D01*
D02*
G37*
G36*
X1190588Y4245000D02*
X1184411D01*
X1178272Y4244308D01*
X1172250Y4242933D01*
X1166419Y4240893D01*
X1160853Y4238213D01*
X1155623Y4234926D01*
X1150793Y4231075D01*
X1146425Y4226707D01*
X1143504Y4223043D01*
X1137500Y4222064D01*
X1131496Y4223043D01*
X1128575Y4226707D01*
X1124207Y4231075D01*
X1119377Y4234926D01*
X1114146Y4238213D01*
X1108581Y4240893D01*
X1102750Y4242933D01*
X1096727Y4244308D01*
X1090589Y4245000D01*
X1084411D01*
X1078273Y4244308D01*
X1072250Y4242933D01*
X1066419Y4240893D01*
X1060854Y4238213D01*
X1055623Y4234926D01*
X1050793Y4231075D01*
X1046425Y4226707D01*
X1042573Y4221877D01*
X1039287Y4216646D01*
X1036607Y4211080D01*
X1034566Y4205250D01*
X1033192Y4199227D01*
X1032500Y4193088D01*
Y4186911D01*
X1033192Y4180772D01*
X1034566Y4174750D01*
X1036607Y4168919D01*
X1039287Y4163353D01*
X1042573Y4158123D01*
X1046425Y4153293D01*
X1050793Y4148925D01*
X1054456Y4146004D01*
X1055436Y4140000D01*
X1054456Y4133996D01*
X1050793Y4131075D01*
X1046425Y4126707D01*
X1042573Y4121877D01*
X1039287Y4116646D01*
X1036607Y4111081D01*
X1034566Y4105250D01*
X1033192Y4099227D01*
X1032500Y4093089D01*
Y4086911D01*
X1033192Y4080773D01*
X1034566Y4074750D01*
X1036607Y4068919D01*
X1039287Y4063354D01*
X1042573Y4058123D01*
X1046425Y4053293D01*
X1050793Y4048925D01*
X1055623Y4045073D01*
X1060854Y4041787D01*
X1066419Y4039107D01*
X1072250Y4037066D01*
X1078273Y4035692D01*
X1084411Y4035000D01*
X1090589D01*
X1096727Y4035692D01*
X1102750Y4037066D01*
X1108581Y4039107D01*
X1114146Y4041787D01*
X1119377Y4045073D01*
X1124207Y4048925D01*
X1128575Y4053293D01*
X1131496Y4056956D01*
X1137500Y4057935D01*
X1143504Y4056956D01*
X1146425Y4053293D01*
X1150793Y4048925D01*
X1155623Y4045073D01*
X1160853Y4041787D01*
X1166419Y4039107D01*
X1172250Y4037066D01*
X1178272Y4035692D01*
X1184411Y4035000D01*
X1190588D01*
X1196727Y4035692D01*
X1202750Y4037066D01*
X1208581Y4039107D01*
X1214146Y4041787D01*
X1219377Y4045073D01*
X1224207Y4048925D01*
X1228575Y4053293D01*
X1232426Y4058123D01*
X1235713Y4063354D01*
X1238393Y4068919D01*
X1240433Y4074750D01*
X1241808Y4080773D01*
X1242500Y4086911D01*
Y4093089D01*
X1241808Y4099227D01*
X1240433Y4105250D01*
X1238393Y4111081D01*
X1235713Y4116646D01*
X1232426Y4121877D01*
X1228575Y4126707D01*
X1224207Y4131075D01*
X1220543Y4133996D01*
X1219564Y4140000D01*
X1220543Y4146004D01*
X1224207Y4148925D01*
X1228575Y4153293D01*
X1232426Y4158123D01*
X1235713Y4163353D01*
X1238393Y4168919D01*
X1240433Y4174750D01*
X1241808Y4180772D01*
X1242500Y4186911D01*
Y4193088D01*
X1241808Y4199227D01*
X1240433Y4205250D01*
X1238393Y4211080D01*
X1235713Y4216646D01*
X1232426Y4221877D01*
X1228575Y4226707D01*
X1224207Y4231075D01*
X1219377Y4234926D01*
X1214146Y4238213D01*
X1208581Y4240893D01*
X1202750Y4242933D01*
X1196727Y4244308D01*
X1190588Y4245000D01*
D02*
G37*
G36*
X1878088Y4217500D02*
X1871911D01*
X1865772Y4216808D01*
X1859750Y4215433D01*
X1853919Y4213393D01*
X1848353Y4210713D01*
X1843123Y4207426D01*
X1838293Y4203575D01*
X1833925Y4199206D01*
X1831004Y4195543D01*
X1825000Y4194564D01*
X1818996Y4195543D01*
X1816075Y4199206D01*
X1811707Y4203575D01*
X1806877Y4207426D01*
X1801646Y4210713D01*
X1796081Y4213393D01*
X1790250Y4215433D01*
X1784227Y4216808D01*
X1778089Y4217500D01*
X1771911D01*
X1765773Y4216808D01*
X1759750Y4215433D01*
X1753919Y4213393D01*
X1748354Y4210713D01*
X1743123Y4207426D01*
X1738293Y4203575D01*
X1733925Y4199206D01*
X1730074Y4194377D01*
X1726787Y4189146D01*
X1724107Y4183580D01*
X1722066Y4177750D01*
X1720692Y4171727D01*
X1720000Y4165588D01*
Y4159411D01*
X1720692Y4153272D01*
X1722066Y4147250D01*
X1724107Y4141419D01*
X1726787Y4135853D01*
X1730074Y4130623D01*
X1733925Y4125793D01*
X1738293Y4121425D01*
X1741956Y4118504D01*
X1742936Y4112500D01*
X1741956Y4106496D01*
X1738293Y4103575D01*
X1733925Y4099207D01*
X1730074Y4094377D01*
X1726787Y4089146D01*
X1724107Y4083581D01*
X1722066Y4077750D01*
X1720692Y4071727D01*
X1720000Y4065589D01*
Y4059411D01*
X1720692Y4053273D01*
X1722066Y4047250D01*
X1724107Y4041419D01*
X1726787Y4035853D01*
X1730074Y4030623D01*
X1733925Y4025793D01*
X1738293Y4021425D01*
X1743123Y4017573D01*
X1748354Y4014287D01*
X1753919Y4011607D01*
X1759750Y4009566D01*
X1765773Y4008192D01*
X1771911Y4007500D01*
X1778089D01*
X1784227Y4008192D01*
X1790250Y4009566D01*
X1796081Y4011607D01*
X1801646Y4014287D01*
X1806877Y4017573D01*
X1811707Y4021425D01*
X1816075Y4025793D01*
X1818996Y4029456D01*
X1825000Y4030435D01*
X1831004Y4029456D01*
X1833925Y4025793D01*
X1838293Y4021425D01*
X1843123Y4017573D01*
X1848353Y4014287D01*
X1853919Y4011607D01*
X1859750Y4009566D01*
X1865772Y4008192D01*
X1871911Y4007500D01*
X1878088D01*
X1884227Y4008192D01*
X1890250Y4009566D01*
X1896081Y4011607D01*
X1901646Y4014287D01*
X1906877Y4017573D01*
X1911707Y4021425D01*
X1916075Y4025793D01*
X1919926Y4030623D01*
X1923213Y4035853D01*
X1925893Y4041419D01*
X1927933Y4047250D01*
X1929308Y4053273D01*
X1930000Y4059411D01*
Y4065589D01*
X1929308Y4071727D01*
X1927933Y4077750D01*
X1925893Y4083581D01*
X1923213Y4089146D01*
X1919926Y4094377D01*
X1916075Y4099207D01*
X1911707Y4103575D01*
X1908043Y4106496D01*
X1907064Y4112500D01*
X1908043Y4118504D01*
X1911707Y4121425D01*
X1916075Y4125793D01*
X1919926Y4130623D01*
X1923213Y4135853D01*
X1925893Y4141419D01*
X1927933Y4147250D01*
X1929308Y4153272D01*
X1930000Y4159411D01*
Y4165588D01*
X1929308Y4171727D01*
X1927933Y4177750D01*
X1925893Y4183580D01*
X1923213Y4189146D01*
X1919926Y4194377D01*
X1916075Y4199206D01*
X1911707Y4203575D01*
X1906877Y4207426D01*
X1901646Y4210713D01*
X1896081Y4213393D01*
X1890250Y4215433D01*
X1884227Y4216808D01*
X1878088Y4217500D01*
D02*
G37*
G36*
X-239412Y4182500D02*
X-245589D01*
X-251727Y4181808D01*
X-257750Y4180434D01*
X-263581Y4178393D01*
X-269147Y4175713D01*
X-274377Y4172427D01*
X-279207Y4168575D01*
X-283575Y4164207D01*
X-287427Y4159377D01*
X-290713Y4154146D01*
X-293393Y4148581D01*
X-295434Y4142750D01*
X-296808Y4136727D01*
X-297500Y4130589D01*
Y4124411D01*
X-297275Y4122414D01*
X-297590Y4121728D01*
X-304335Y4115782D01*
X-306345Y4115117D01*
X-307250Y4115434D01*
X-313273Y4116808D01*
X-319411Y4117500D01*
X-325589D01*
X-331727Y4116808D01*
X-337750Y4115434D01*
X-343581Y4113393D01*
X-349146Y4110713D01*
X-354377Y4107427D01*
X-359207Y4103575D01*
X-363575Y4099207D01*
X-367426Y4094377D01*
X-370713Y4089147D01*
X-373393Y4083581D01*
X-375434Y4077750D01*
X-376808Y4071727D01*
X-377500Y4065589D01*
Y4059411D01*
X-376808Y4053273D01*
X-375434Y4047250D01*
X-373393Y4041419D01*
X-370713Y4035854D01*
X-367426Y4030623D01*
X-363575Y4025793D01*
X-359207Y4021425D01*
X-354377Y4017574D01*
X-349146Y4014287D01*
X-343581Y4011607D01*
X-337750Y4009567D01*
X-331727Y4008192D01*
X-325589Y4007500D01*
X-319411D01*
X-313273Y4008192D01*
X-307250Y4009567D01*
X-301419Y4011607D01*
X-295854Y4014287D01*
X-290623Y4017574D01*
X-285793Y4021425D01*
X-281425Y4025793D01*
X-277573Y4030623D01*
X-274287Y4035854D01*
X-271607Y4041419D01*
X-269566Y4047250D01*
X-268192Y4053273D01*
X-267500Y4059411D01*
Y4065589D01*
X-267725Y4067586D01*
X-267410Y4068272D01*
X-260665Y4074218D01*
X-258655Y4074883D01*
X-257750Y4074566D01*
X-251727Y4073192D01*
X-245589Y4072500D01*
X-239412D01*
X-233273Y4073192D01*
X-227250Y4074566D01*
X-221419Y4076607D01*
X-215854Y4079287D01*
X-210623Y4082573D01*
X-205793Y4086425D01*
X-201425Y4090793D01*
X-197574Y4095623D01*
X-194287Y4100854D01*
X-191607Y4106419D01*
X-189567Y4112250D01*
X-188192Y4118273D01*
X-187500Y4124411D01*
Y4130589D01*
X-188192Y4136727D01*
X-189567Y4142750D01*
X-191607Y4148581D01*
X-194287Y4154146D01*
X-197574Y4159377D01*
X-201425Y4164207D01*
X-205793Y4168575D01*
X-210623Y4172427D01*
X-215854Y4175713D01*
X-221419Y4178393D01*
X-227250Y4180434D01*
X-233273Y4181808D01*
X-239412Y4182500D01*
D02*
G37*
G36*
X-716911Y4320000D02*
X-723088D01*
X-729227Y4319308D01*
X-735250Y4317933D01*
X-741081Y4315893D01*
X-746646Y4313213D01*
X-751877Y4309926D01*
X-756707Y4306075D01*
X-761075Y4301707D01*
X-764926Y4296877D01*
X-768213Y4291646D01*
X-770893Y4286081D01*
X-772933Y4280250D01*
X-774308Y4274227D01*
X-775000Y4268088D01*
Y4261911D01*
X-774308Y4255773D01*
X-772933Y4249750D01*
X-770893Y4243919D01*
X-768213Y4238353D01*
X-764926Y4233123D01*
X-761075Y4228293D01*
X-756707Y4223925D01*
X-753043Y4221004D01*
X-752064Y4215000D01*
X-753043Y4208996D01*
X-756707Y4206075D01*
X-761075Y4201707D01*
X-764926Y4196877D01*
X-768213Y4191646D01*
X-770893Y4186081D01*
X-772933Y4180250D01*
X-774308Y4174227D01*
X-775000Y4168089D01*
Y4161911D01*
X-774308Y4155773D01*
X-772933Y4149750D01*
X-770893Y4143919D01*
X-768213Y4138354D01*
X-764926Y4133123D01*
X-761075Y4128293D01*
X-756707Y4123925D01*
X-751877Y4120074D01*
X-746646Y4116787D01*
X-741081Y4114107D01*
X-735250Y4112066D01*
X-729227Y4110692D01*
X-723088Y4110000D01*
X-716911D01*
X-710773Y4110692D01*
X-704750Y4112066D01*
X-698919Y4114107D01*
X-693353Y4116787D01*
X-688123Y4120074D01*
X-683293Y4123925D01*
X-678925Y4128293D01*
X-675073Y4133123D01*
X-671787Y4138354D01*
X-669107Y4143919D01*
X-667066Y4149750D01*
X-665692Y4155773D01*
X-665000Y4161911D01*
Y4168089D01*
X-665692Y4174227D01*
X-667066Y4180250D01*
X-669107Y4186081D01*
X-671787Y4191646D01*
X-675073Y4196877D01*
X-678925Y4201707D01*
X-683293Y4206075D01*
X-686956Y4208996D01*
X-687935Y4215000D01*
X-686956Y4221004D01*
X-683293Y4223925D01*
X-678925Y4228293D01*
X-675073Y4233123D01*
X-671787Y4238353D01*
X-669107Y4243919D01*
X-667066Y4249750D01*
X-665692Y4255773D01*
X-665000Y4261911D01*
Y4268088D01*
X-665692Y4274227D01*
X-667066Y4280250D01*
X-669107Y4286081D01*
X-671787Y4291646D01*
X-675073Y4296877D01*
X-678925Y4301707D01*
X-683293Y4306075D01*
X-688123Y4309926D01*
X-693353Y4313213D01*
X-698919Y4315893D01*
X-704750Y4317933D01*
X-710773Y4319308D01*
X-716911Y4320000D01*
D02*
G37*
G36*
X45589Y4182500D02*
X39411D01*
X33273Y4181808D01*
X27250Y4180434D01*
X21419Y4178393D01*
X15854Y4175713D01*
X10623Y4172427D01*
X5793Y4168575D01*
X1425Y4164207D01*
X-2426Y4159377D01*
X-5713Y4154146D01*
X-8393Y4148581D01*
X-10434Y4142750D01*
X-11808Y4136727D01*
X-12500Y4130589D01*
Y4124411D01*
X-11808Y4118273D01*
X-10434Y4112250D01*
X-8393Y4106419D01*
X-5713Y4100854D01*
X-2426Y4095623D01*
X1425Y4090793D01*
X5793Y4086425D01*
X10623Y4082573D01*
X15854Y4079287D01*
X21419Y4076607D01*
X27250Y4074566D01*
X33273Y4073192D01*
X39411Y4072500D01*
X45589D01*
X51727Y4073192D01*
X57750Y4074566D01*
X58655Y4074883D01*
X60665Y4074218D01*
X67410Y4068272D01*
X67725Y4067586D01*
X67500Y4065589D01*
Y4059411D01*
X67725Y4057414D01*
X67410Y4056728D01*
X60665Y4050782D01*
X58655Y4050117D01*
X57750Y4050434D01*
X51727Y4051808D01*
X45589Y4052500D01*
X39411D01*
X33273Y4051808D01*
X27250Y4050434D01*
X21419Y4048393D01*
X15854Y4045713D01*
X10623Y4042427D01*
X5793Y4038575D01*
X1425Y4034207D01*
X-2426Y4029377D01*
X-5713Y4024146D01*
X-8393Y4018581D01*
X-10434Y4012750D01*
X-11808Y4006727D01*
X-12500Y4000589D01*
Y3994411D01*
X-11808Y3988273D01*
X-10434Y3982250D01*
X-8393Y3976419D01*
X-5713Y3970854D01*
X-2426Y3965623D01*
X1425Y3960793D01*
X5793Y3956425D01*
X10623Y3952574D01*
X15854Y3949287D01*
X21419Y3946607D01*
X27250Y3944566D01*
X33273Y3943192D01*
X39411Y3942500D01*
X45589D01*
X51727Y3943192D01*
X57750Y3944566D01*
X58655Y3944883D01*
X60665Y3944218D01*
X67410Y3938272D01*
X67725Y3937586D01*
X67500Y3935589D01*
Y3929411D01*
X67725Y3927414D01*
X67410Y3926728D01*
X60665Y3920782D01*
X58655Y3920117D01*
X57750Y3920434D01*
X51727Y3921808D01*
X45589Y3922500D01*
X39411D01*
X33273Y3921808D01*
X27250Y3920434D01*
X21419Y3918393D01*
X15854Y3915713D01*
X10623Y3912427D01*
X5793Y3908575D01*
X1425Y3904207D01*
X-2426Y3899377D01*
X-5713Y3894146D01*
X-8393Y3888581D01*
X-10434Y3882750D01*
X-11808Y3876727D01*
X-12500Y3870589D01*
Y3864411D01*
X-11808Y3858273D01*
X-10434Y3852250D01*
X-8393Y3846419D01*
X-5713Y3840854D01*
X-2426Y3835623D01*
X1425Y3830793D01*
X5793Y3826425D01*
X10623Y3822574D01*
X15854Y3819287D01*
X21419Y3816607D01*
X27250Y3814566D01*
X33273Y3813192D01*
X39411Y3812500D01*
X45589D01*
X51727Y3813192D01*
X57750Y3814566D01*
X58655Y3814883D01*
X60665Y3814218D01*
X67410Y3808272D01*
X67725Y3807586D01*
X67500Y3805589D01*
Y3799412D01*
X67725Y3797414D01*
X67410Y3796728D01*
X60665Y3790782D01*
X58655Y3790117D01*
X57750Y3790434D01*
X51727Y3791808D01*
X45589Y3792500D01*
X39411D01*
X33273Y3791808D01*
X27250Y3790434D01*
X21419Y3788393D01*
X15854Y3785713D01*
X10623Y3782427D01*
X5793Y3778575D01*
X1425Y3774207D01*
X-2426Y3769377D01*
X-5713Y3764146D01*
X-8393Y3758581D01*
X-10434Y3752750D01*
X-11808Y3746727D01*
X-12500Y3740589D01*
Y3734411D01*
X-11808Y3728273D01*
X-10434Y3722250D01*
X-8393Y3716419D01*
X-5713Y3710854D01*
X-2426Y3705623D01*
X1425Y3700793D01*
X5793Y3696425D01*
X10623Y3692574D01*
X15854Y3689287D01*
X21419Y3686607D01*
X27250Y3684566D01*
X33273Y3683192D01*
X39411Y3682500D01*
X45589D01*
X51727Y3683192D01*
X57750Y3684566D01*
X58655Y3684883D01*
X60665Y3684218D01*
X67410Y3678272D01*
X67725Y3677586D01*
X67500Y3675589D01*
Y3669412D01*
X67725Y3667414D01*
X67410Y3666728D01*
X60665Y3660782D01*
X58655Y3660117D01*
X57750Y3660434D01*
X51727Y3661808D01*
X45589Y3662500D01*
X39411D01*
X33273Y3661808D01*
X27250Y3660434D01*
X21419Y3658393D01*
X15854Y3655713D01*
X10623Y3652427D01*
X5793Y3648575D01*
X1425Y3644207D01*
X-2426Y3639377D01*
X-5713Y3634146D01*
X-8393Y3628581D01*
X-10434Y3622750D01*
X-11808Y3616727D01*
X-12500Y3610589D01*
Y3604411D01*
X-11808Y3598273D01*
X-10434Y3592250D01*
X-8393Y3586419D01*
X-5713Y3580854D01*
X-2426Y3575623D01*
X1425Y3570793D01*
X5793Y3566425D01*
X10623Y3562574D01*
X15854Y3559287D01*
X21419Y3556607D01*
X27250Y3554566D01*
X33273Y3553192D01*
X39411Y3552500D01*
X45589D01*
X51727Y3553192D01*
X57750Y3554566D01*
X63581Y3556607D01*
X69146Y3559287D01*
X74377Y3562574D01*
X79207Y3566425D01*
X83575Y3570793D01*
X87427Y3575623D01*
X90713Y3580854D01*
X93393Y3586419D01*
X95434Y3592250D01*
X96808Y3598273D01*
X97500Y3604411D01*
Y3610589D01*
X97275Y3612586D01*
X97590Y3613272D01*
X104335Y3619218D01*
X106345Y3619883D01*
X107250Y3619567D01*
X113273Y3618192D01*
X119411Y3617500D01*
X125589D01*
X131727Y3618192D01*
X137750Y3619567D01*
X143581Y3621607D01*
X149146Y3624287D01*
X154377Y3627574D01*
X159207Y3631425D01*
X163575Y3635793D01*
X167426Y3640623D01*
X170713Y3645854D01*
X173393Y3651419D01*
X175433Y3657250D01*
X176808Y3663273D01*
X177500Y3669412D01*
Y3675589D01*
X176808Y3681727D01*
X175433Y3687750D01*
X173393Y3693581D01*
X170713Y3699147D01*
X167426Y3704377D01*
X163575Y3709207D01*
X159207Y3713575D01*
X154377Y3717427D01*
X149146Y3720713D01*
X143581Y3723393D01*
X137750Y3725434D01*
X131727Y3726808D01*
X125589Y3727500D01*
X119411D01*
X113273Y3726808D01*
X107250Y3725434D01*
X106345Y3725117D01*
X104335Y3725782D01*
X97590Y3731728D01*
X97275Y3732414D01*
X97500Y3734411D01*
Y3740589D01*
X97275Y3742586D01*
X97590Y3743272D01*
X104335Y3749218D01*
X106345Y3749883D01*
X107250Y3749567D01*
X113273Y3748192D01*
X119411Y3747500D01*
X125589D01*
X131727Y3748192D01*
X137750Y3749567D01*
X143581Y3751607D01*
X149146Y3754287D01*
X154377Y3757574D01*
X159207Y3761425D01*
X163575Y3765793D01*
X167426Y3770623D01*
X170713Y3775854D01*
X173393Y3781419D01*
X175433Y3787250D01*
X176808Y3793273D01*
X177500Y3799412D01*
Y3805589D01*
X176808Y3811727D01*
X175433Y3817750D01*
X173393Y3823581D01*
X170713Y3829147D01*
X167426Y3834377D01*
X163575Y3839207D01*
X159207Y3843575D01*
X154377Y3847427D01*
X149146Y3850713D01*
X143581Y3853393D01*
X137750Y3855434D01*
X131727Y3856808D01*
X125589Y3857500D01*
X119411D01*
X113273Y3856808D01*
X107250Y3855434D01*
X106345Y3855117D01*
X104335Y3855782D01*
X97590Y3861728D01*
X97275Y3862414D01*
X97500Y3864411D01*
Y3870589D01*
X97275Y3872586D01*
X97590Y3873272D01*
X104335Y3879218D01*
X106345Y3879883D01*
X107250Y3879567D01*
X113273Y3878192D01*
X119411Y3877500D01*
X125589D01*
X131727Y3878192D01*
X137750Y3879567D01*
X143581Y3881607D01*
X149146Y3884287D01*
X154377Y3887574D01*
X159207Y3891425D01*
X163575Y3895793D01*
X167426Y3900623D01*
X170713Y3905854D01*
X173393Y3911419D01*
X175433Y3917250D01*
X176808Y3923273D01*
X177500Y3929411D01*
Y3935589D01*
X176808Y3941727D01*
X175433Y3947750D01*
X173393Y3953581D01*
X170713Y3959147D01*
X167426Y3964377D01*
X163575Y3969207D01*
X159207Y3973575D01*
X154377Y3977427D01*
X149146Y3980713D01*
X143581Y3983393D01*
X137750Y3985434D01*
X131727Y3986808D01*
X125589Y3987500D01*
X119411D01*
X113273Y3986808D01*
X107250Y3985434D01*
X106345Y3985117D01*
X104335Y3985782D01*
X97590Y3991728D01*
X97275Y3992414D01*
X97500Y3994411D01*
Y4000589D01*
X97275Y4002586D01*
X97590Y4003272D01*
X104335Y4009218D01*
X106345Y4009883D01*
X107250Y4009567D01*
X113273Y4008192D01*
X119411Y4007500D01*
X125589D01*
X131727Y4008192D01*
X137750Y4009567D01*
X143581Y4011607D01*
X149146Y4014287D01*
X154377Y4017574D01*
X159207Y4021425D01*
X163575Y4025793D01*
X167426Y4030623D01*
X170713Y4035854D01*
X173393Y4041419D01*
X175433Y4047250D01*
X176808Y4053273D01*
X177500Y4059411D01*
Y4065589D01*
X176808Y4071727D01*
X175433Y4077750D01*
X173393Y4083581D01*
X170713Y4089147D01*
X167426Y4094377D01*
X163575Y4099207D01*
X159207Y4103575D01*
X154377Y4107427D01*
X149146Y4110713D01*
X143581Y4113393D01*
X137750Y4115434D01*
X131727Y4116808D01*
X125589Y4117500D01*
X119411D01*
X113273Y4116808D01*
X107250Y4115434D01*
X106345Y4115117D01*
X104335Y4115782D01*
X97590Y4121728D01*
X97275Y4122414D01*
X97500Y4124411D01*
Y4130589D01*
X96808Y4136727D01*
X95434Y4142750D01*
X93393Y4148581D01*
X90713Y4154146D01*
X87427Y4159377D01*
X83575Y4164207D01*
X79207Y4168575D01*
X74377Y4172427D01*
X69146Y4175713D01*
X63581Y4178393D01*
X57750Y4180434D01*
X51727Y4181808D01*
X45589Y4182500D01*
D02*
G37*
G36*
X1190588Y3845000D02*
X1184411D01*
X1178272Y3844308D01*
X1172250Y3842933D01*
X1166419Y3840893D01*
X1160853Y3838213D01*
X1155623Y3834926D01*
X1150793Y3831075D01*
X1146425Y3826707D01*
X1143504Y3823043D01*
X1137500Y3822064D01*
X1131496Y3823043D01*
X1128575Y3826707D01*
X1124207Y3831075D01*
X1119377Y3834926D01*
X1114146Y3838213D01*
X1108581Y3840893D01*
X1102750Y3842933D01*
X1096727Y3844308D01*
X1090589Y3845000D01*
X1084411D01*
X1078273Y3844308D01*
X1072250Y3842933D01*
X1066419Y3840893D01*
X1060854Y3838213D01*
X1055623Y3834926D01*
X1050793Y3831075D01*
X1046425Y3826707D01*
X1042573Y3821877D01*
X1039287Y3816646D01*
X1036607Y3811081D01*
X1034566Y3805250D01*
X1033192Y3799227D01*
X1032500Y3793088D01*
Y3786911D01*
X1033192Y3780772D01*
X1034566Y3774750D01*
X1036607Y3768919D01*
X1039287Y3763353D01*
X1042573Y3758123D01*
X1046425Y3753293D01*
X1050793Y3748925D01*
X1054456Y3746004D01*
X1055436Y3740000D01*
X1054456Y3733996D01*
X1050793Y3731075D01*
X1046425Y3726707D01*
X1042573Y3721877D01*
X1039287Y3716646D01*
X1036607Y3711081D01*
X1034566Y3705250D01*
X1033192Y3699227D01*
X1032500Y3693089D01*
Y3686911D01*
X1033192Y3680773D01*
X1034566Y3674750D01*
X1036607Y3668919D01*
X1039287Y3663354D01*
X1042573Y3658123D01*
X1046425Y3653293D01*
X1050793Y3648925D01*
X1055623Y3645073D01*
X1060854Y3641787D01*
X1066419Y3639107D01*
X1072250Y3637066D01*
X1078273Y3635692D01*
X1084411Y3635000D01*
X1090589D01*
X1096727Y3635692D01*
X1102750Y3637066D01*
X1108581Y3639107D01*
X1114146Y3641787D01*
X1119377Y3645073D01*
X1124207Y3648925D01*
X1128575Y3653293D01*
X1131496Y3656956D01*
X1137500Y3657936D01*
X1143504Y3656956D01*
X1146425Y3653293D01*
X1150793Y3648925D01*
X1155623Y3645073D01*
X1160853Y3641787D01*
X1166419Y3639107D01*
X1172250Y3637066D01*
X1178272Y3635692D01*
X1184411Y3635000D01*
X1190588D01*
X1196727Y3635692D01*
X1202750Y3637066D01*
X1208581Y3639107D01*
X1214146Y3641787D01*
X1219377Y3645073D01*
X1224207Y3648925D01*
X1228575Y3653293D01*
X1232426Y3658123D01*
X1235713Y3663354D01*
X1238393Y3668919D01*
X1240433Y3674750D01*
X1241808Y3680773D01*
X1242500Y3686911D01*
Y3693089D01*
X1241808Y3699227D01*
X1240433Y3705250D01*
X1238393Y3711081D01*
X1235713Y3716646D01*
X1232426Y3721877D01*
X1228575Y3726707D01*
X1224207Y3731075D01*
X1220543Y3733996D01*
X1219564Y3740000D01*
X1220543Y3746004D01*
X1224207Y3748925D01*
X1228575Y3753293D01*
X1232426Y3758123D01*
X1235713Y3763353D01*
X1238393Y3768919D01*
X1240433Y3774750D01*
X1241808Y3780772D01*
X1242500Y3786911D01*
Y3793088D01*
X1241808Y3799227D01*
X1240433Y3805250D01*
X1238393Y3811081D01*
X1235713Y3816646D01*
X1232426Y3821877D01*
X1228575Y3826707D01*
X1224207Y3831075D01*
X1219377Y3834926D01*
X1214146Y3838213D01*
X1208581Y3840893D01*
X1202750Y3842933D01*
X1196727Y3844308D01*
X1190588Y3845000D01*
D02*
G37*
G36*
X-239412Y3792500D02*
X-245589D01*
X-251727Y3791808D01*
X-257750Y3790434D01*
X-263581Y3788393D01*
X-269147Y3785713D01*
X-274377Y3782427D01*
X-279207Y3778575D01*
X-283575Y3774207D01*
X-287427Y3769377D01*
X-290713Y3764146D01*
X-293393Y3758581D01*
X-295434Y3752750D01*
X-296808Y3746727D01*
X-297500Y3740589D01*
Y3734411D01*
X-297275Y3732414D01*
X-297590Y3731728D01*
X-304335Y3725782D01*
X-306345Y3725117D01*
X-307250Y3725434D01*
X-313273Y3726808D01*
X-319411Y3727500D01*
X-325589D01*
X-331727Y3726808D01*
X-337750Y3725434D01*
X-343581Y3723393D01*
X-349146Y3720713D01*
X-354377Y3717427D01*
X-359207Y3713575D01*
X-363575Y3709207D01*
X-367426Y3704377D01*
X-370713Y3699147D01*
X-373393Y3693581D01*
X-375434Y3687750D01*
X-376808Y3681727D01*
X-377500Y3675589D01*
Y3669412D01*
X-376808Y3663273D01*
X-375434Y3657250D01*
X-373393Y3651419D01*
X-370713Y3645854D01*
X-367426Y3640623D01*
X-363575Y3635793D01*
X-359207Y3631425D01*
X-354377Y3627574D01*
X-349146Y3624287D01*
X-343581Y3621607D01*
X-337750Y3619567D01*
X-331727Y3618192D01*
X-325589Y3617500D01*
X-319411D01*
X-313273Y3618192D01*
X-307250Y3619567D01*
X-306345Y3619883D01*
X-304335Y3619218D01*
X-297590Y3613272D01*
X-297275Y3612586D01*
X-297500Y3610589D01*
Y3604411D01*
X-296808Y3598273D01*
X-295434Y3592250D01*
X-293393Y3586419D01*
X-290713Y3580854D01*
X-287427Y3575623D01*
X-283575Y3570793D01*
X-279207Y3566425D01*
X-274377Y3562574D01*
X-269147Y3559287D01*
X-263581Y3556607D01*
X-257750Y3554566D01*
X-251727Y3553192D01*
X-245589Y3552500D01*
X-239412D01*
X-233273Y3553192D01*
X-227250Y3554566D01*
X-221419Y3556607D01*
X-215854Y3559287D01*
X-210623Y3562574D01*
X-205793Y3566425D01*
X-201425Y3570793D01*
X-197574Y3575623D01*
X-194287Y3580854D01*
X-191607Y3586419D01*
X-189567Y3592250D01*
X-188192Y3598273D01*
X-187500Y3604411D01*
Y3610589D01*
X-188192Y3616727D01*
X-189567Y3622750D01*
X-191607Y3628581D01*
X-194287Y3634146D01*
X-197574Y3639377D01*
X-201425Y3644207D01*
X-205793Y3648575D01*
X-210623Y3652427D01*
X-215854Y3655713D01*
X-221419Y3658393D01*
X-227250Y3660434D01*
X-233273Y3661808D01*
X-239412Y3662500D01*
X-245589D01*
X-251727Y3661808D01*
X-257750Y3660434D01*
X-258655Y3660117D01*
X-260665Y3660782D01*
X-267410Y3666728D01*
X-267725Y3667414D01*
X-267500Y3669412D01*
Y3675589D01*
X-267725Y3677586D01*
X-267410Y3678272D01*
X-260665Y3684218D01*
X-258655Y3684883D01*
X-257750Y3684566D01*
X-251727Y3683192D01*
X-245589Y3682500D01*
X-239412D01*
X-233273Y3683192D01*
X-227250Y3684566D01*
X-221419Y3686607D01*
X-215854Y3689287D01*
X-210623Y3692574D01*
X-205793Y3696425D01*
X-201425Y3700793D01*
X-197574Y3705623D01*
X-194287Y3710854D01*
X-191607Y3716419D01*
X-189567Y3722250D01*
X-188192Y3728273D01*
X-187500Y3734411D01*
Y3740589D01*
X-188192Y3746727D01*
X-189567Y3752750D01*
X-191607Y3758581D01*
X-194287Y3764146D01*
X-197574Y3769377D01*
X-201425Y3774207D01*
X-205793Y3778575D01*
X-210623Y3782427D01*
X-215854Y3785713D01*
X-221419Y3788393D01*
X-227250Y3790434D01*
X-233273Y3791808D01*
X-239412Y3792500D01*
D02*
G37*
G36*
X-137911Y3405000D02*
X-144088D01*
X-150227Y3404308D01*
X-156250Y3402934D01*
X-162080Y3400893D01*
X-167646Y3398213D01*
X-172877Y3394926D01*
X-177707Y3391075D01*
X-182075Y3386707D01*
X-185926Y3381877D01*
X-189213Y3376646D01*
X-191893Y3371081D01*
X-193933Y3365250D01*
X-195308Y3359227D01*
X-196000Y3353089D01*
Y3346911D01*
X-195308Y3340773D01*
X-193933Y3334750D01*
X-191893Y3328919D01*
X-189213Y3323354D01*
X-185926Y3318123D01*
X-182075Y3313293D01*
X-177707Y3308925D01*
X-172877Y3305073D01*
X-167646Y3301787D01*
X-162080Y3299107D01*
X-156250Y3297066D01*
X-150227Y3295692D01*
X-144088Y3295000D01*
X-137911D01*
X-131772Y3295692D01*
X-125750Y3297066D01*
X-119919Y3299107D01*
X-114353Y3301787D01*
X-109123Y3305073D01*
X-104293Y3308925D01*
X-99925Y3313293D01*
X-96073Y3318123D01*
X-92787Y3323354D01*
X-90106Y3328919D01*
X-88066Y3334750D01*
X-86691Y3340773D01*
X-86000Y3346911D01*
Y3353089D01*
X-86691Y3359227D01*
X-88066Y3365250D01*
X-90106Y3371081D01*
X-92787Y3376646D01*
X-96073Y3381877D01*
X-99925Y3386707D01*
X-104293Y3391075D01*
X-109123Y3394926D01*
X-114353Y3398213D01*
X-119919Y3400893D01*
X-125750Y3402934D01*
X-131772Y3404308D01*
X-137911Y3405000D01*
D02*
G37*
G36*
X-426911Y2985000D02*
X-433089D01*
X-439227Y2984308D01*
X-445250Y2982934D01*
X-451081Y2980893D01*
X-456646Y2978213D01*
X-461877Y2974926D01*
X-466707Y2971075D01*
X-471075Y2966707D01*
X-473996Y2963044D01*
X-480000Y2962064D01*
X-486004Y2963044D01*
X-488925Y2966707D01*
X-493293Y2971075D01*
X-498123Y2974926D01*
X-503353Y2978213D01*
X-508919Y2980893D01*
X-514750Y2982934D01*
X-520772Y2984308D01*
X-526911Y2985000D01*
X-533088D01*
X-539227Y2984308D01*
X-545250Y2982934D01*
X-551080Y2980893D01*
X-556646Y2978213D01*
X-561877Y2974926D01*
X-566707Y2971075D01*
X-571075Y2966707D01*
X-573996Y2963044D01*
X-580000Y2962064D01*
X-586003Y2963044D01*
X-588925Y2966707D01*
X-593293Y2971075D01*
X-598123Y2974926D01*
X-603353Y2978213D01*
X-608919Y2980893D01*
X-614750Y2982934D01*
X-620772Y2984308D01*
X-626911Y2985000D01*
X-633088D01*
X-639227Y2984308D01*
X-645249Y2982934D01*
X-651080Y2980893D01*
X-656646Y2978213D01*
X-661877Y2974926D01*
X-666706Y2971075D01*
X-671074Y2966707D01*
X-673996Y2963044D01*
X-679999Y2962064D01*
X-686003Y2963044D01*
X-688924Y2966707D01*
X-693292Y2971075D01*
X-698122Y2974926D01*
X-703353Y2978213D01*
X-708919Y2980893D01*
X-714749Y2982934D01*
X-720772Y2984308D01*
X-726911Y2985000D01*
X-733088D01*
X-739227Y2984308D01*
X-745249Y2982934D01*
X-751080Y2980893D01*
X-756646Y2978213D01*
X-761876Y2974926D01*
X-766706Y2971075D01*
X-771074Y2966707D01*
X-774926Y2961877D01*
X-778212Y2956646D01*
X-780893Y2951081D01*
X-782933Y2945250D01*
X-784308Y2939227D01*
X-784999Y2933089D01*
Y2926911D01*
X-784308Y2920773D01*
X-782933Y2914750D01*
X-780893Y2908919D01*
X-778212Y2903354D01*
X-774926Y2898123D01*
X-771074Y2893293D01*
X-766706Y2888925D01*
X-763043Y2886004D01*
X-762064Y2880000D01*
X-763043Y2873996D01*
X-766706Y2871075D01*
X-771074Y2866707D01*
X-774926Y2861877D01*
X-778212Y2856647D01*
X-780893Y2851081D01*
X-782933Y2845250D01*
X-784308Y2839227D01*
X-784999Y2833089D01*
Y2826912D01*
X-784308Y2820773D01*
X-782933Y2814750D01*
X-780893Y2808919D01*
X-778212Y2803354D01*
X-774926Y2798123D01*
X-771074Y2793293D01*
X-766706Y2788925D01*
X-763043Y2786004D01*
X-762064Y2780000D01*
X-763043Y2773996D01*
X-766706Y2771075D01*
X-771074Y2766707D01*
X-774926Y2761877D01*
X-778212Y2756647D01*
X-780893Y2751081D01*
X-782933Y2745250D01*
X-784308Y2739228D01*
X-784999Y2733089D01*
Y2726912D01*
X-784308Y2720773D01*
X-782933Y2714750D01*
X-780893Y2708920D01*
X-778212Y2703354D01*
X-774926Y2698123D01*
X-771074Y2693294D01*
X-766706Y2688926D01*
X-763043Y2686004D01*
X-762064Y2680000D01*
X-763043Y2673997D01*
X-766706Y2671075D01*
X-771074Y2666707D01*
X-774926Y2661878D01*
X-778212Y2656647D01*
X-780893Y2651081D01*
X-782933Y2645250D01*
X-784308Y2639228D01*
X-784999Y2633089D01*
Y2626912D01*
X-784308Y2620773D01*
X-782933Y2614751D01*
X-780893Y2608920D01*
X-778212Y2603354D01*
X-774926Y2598124D01*
X-771074Y2593294D01*
X-766706Y2588926D01*
X-761876Y2585074D01*
X-756646Y2581788D01*
X-751080Y2579107D01*
X-745249Y2577067D01*
X-739227Y2575692D01*
X-733088Y2575001D01*
X-726911D01*
X-720772Y2575692D01*
X-714749Y2577067D01*
X-708919Y2579107D01*
X-703353Y2581788D01*
X-698122Y2585074D01*
X-693292Y2588926D01*
X-688924Y2593294D01*
X-686003Y2596957D01*
X-679999Y2597936D01*
X-673996Y2596957D01*
X-671074Y2593294D01*
X-666706Y2588926D01*
X-661877Y2585074D01*
X-656646Y2581788D01*
X-651080Y2579107D01*
X-645249Y2577067D01*
X-639227Y2575692D01*
X-633088Y2575001D01*
X-626911D01*
X-620772Y2575692D01*
X-614750Y2577067D01*
X-608919Y2579107D01*
X-603353Y2581788D01*
X-598123Y2585074D01*
X-593293Y2588926D01*
X-588925Y2593294D01*
X-586003Y2596957D01*
X-580000Y2597936D01*
X-573996Y2596957D01*
X-571075Y2593294D01*
X-566707Y2588926D01*
X-561877Y2585074D01*
X-556646Y2581788D01*
X-551080Y2579107D01*
X-545250Y2577067D01*
X-539227Y2575692D01*
X-533088Y2575001D01*
X-526911D01*
X-520772Y2575692D01*
X-514750Y2577067D01*
X-508919Y2579107D01*
X-503353Y2581788D01*
X-498123Y2585074D01*
X-493293Y2588926D01*
X-488925Y2593294D01*
X-486004Y2596957D01*
X-480000Y2597936D01*
X-473996Y2596957D01*
X-471075Y2593294D01*
X-466707Y2588926D01*
X-461877Y2585074D01*
X-456646Y2581788D01*
X-451081Y2579107D01*
X-445250Y2577067D01*
X-439227Y2575692D01*
X-433089Y2575001D01*
X-426911D01*
X-420773Y2575692D01*
X-414750Y2577067D01*
X-408919Y2579107D01*
X-403354Y2581788D01*
X-398123Y2585074D01*
X-393293Y2588926D01*
X-388925Y2593294D01*
X-385073Y2598124D01*
X-381787Y2603354D01*
X-379107Y2608920D01*
X-377066Y2614751D01*
X-375692Y2620773D01*
X-375000Y2626912D01*
Y2633089D01*
X-375692Y2639228D01*
X-377066Y2645250D01*
X-379107Y2651081D01*
X-381787Y2656647D01*
X-385073Y2661878D01*
X-388925Y2666707D01*
X-393293Y2671075D01*
X-396956Y2673997D01*
X-397935Y2680000D01*
X-396956Y2686004D01*
X-393293Y2688926D01*
X-388925Y2693294D01*
X-385073Y2698123D01*
X-381787Y2703354D01*
X-379107Y2708920D01*
X-377066Y2714750D01*
X-375692Y2720773D01*
X-375000Y2726912D01*
Y2733089D01*
X-375692Y2739228D01*
X-377066Y2745250D01*
X-379107Y2751081D01*
X-381787Y2756647D01*
X-385073Y2761877D01*
X-388925Y2766707D01*
X-393293Y2771075D01*
X-396956Y2773996D01*
X-397935Y2780000D01*
X-396956Y2786004D01*
X-393293Y2788925D01*
X-388925Y2793293D01*
X-385073Y2798123D01*
X-381787Y2803354D01*
X-379107Y2808919D01*
X-377066Y2814750D01*
X-375692Y2820773D01*
X-375000Y2826912D01*
Y2833089D01*
X-375692Y2839227D01*
X-377066Y2845250D01*
X-379107Y2851081D01*
X-381787Y2856647D01*
X-385073Y2861877D01*
X-388925Y2866707D01*
X-393293Y2871075D01*
X-396956Y2873996D01*
X-397935Y2880000D01*
X-396956Y2886004D01*
X-393293Y2888925D01*
X-388925Y2893293D01*
X-385073Y2898123D01*
X-381787Y2903354D01*
X-379107Y2908919D01*
X-377066Y2914750D01*
X-375692Y2920773D01*
X-375000Y2926911D01*
Y2933089D01*
X-375692Y2939227D01*
X-377066Y2945250D01*
X-379107Y2951081D01*
X-381787Y2956646D01*
X-385073Y2961877D01*
X-388925Y2966707D01*
X-393293Y2971075D01*
X-398123Y2974926D01*
X-403354Y2978213D01*
X-408919Y2980893D01*
X-414750Y2982934D01*
X-420773Y2984308D01*
X-426911Y2985000D01*
D02*
G37*
G36*
X-971911Y2785000D02*
X-978089D01*
X-984227Y2784308D01*
X-990250Y2782934D01*
X-996081Y2780893D01*
X-1001646Y2778213D01*
X-1006877Y2774927D01*
X-1011707Y2771075D01*
X-1016075Y2766707D01*
X-1018996Y2763044D01*
X-1025000Y2762065D01*
X-1031004Y2763044D01*
X-1033925Y2766707D01*
X-1038293Y2771075D01*
X-1043123Y2774927D01*
X-1048354Y2778213D01*
X-1053919Y2780893D01*
X-1059750Y2782934D01*
X-1065773Y2784308D01*
X-1071911Y2785000D01*
X-1078089D01*
X-1084227Y2784308D01*
X-1090250Y2782934D01*
X-1096081Y2780893D01*
X-1101646Y2778213D01*
X-1106877Y2774927D01*
X-1111707Y2771075D01*
X-1116075Y2766707D01*
X-1119926Y2761877D01*
X-1123213Y2756647D01*
X-1125893Y2751081D01*
X-1127933Y2745250D01*
X-1129308Y2739227D01*
X-1130000Y2733089D01*
Y2726911D01*
X-1129308Y2720773D01*
X-1127933Y2714750D01*
X-1125893Y2708919D01*
X-1123213Y2703354D01*
X-1119926Y2698123D01*
X-1116075Y2693293D01*
X-1111707Y2688925D01*
X-1108044Y2686004D01*
X-1107064Y2680000D01*
X-1108044Y2673996D01*
X-1111707Y2671075D01*
X-1116075Y2666707D01*
X-1118996Y2663044D01*
X-1125000Y2662065D01*
X-1131004Y2663044D01*
X-1133925Y2666707D01*
X-1138293Y2671075D01*
X-1143123Y2674927D01*
X-1148353Y2678213D01*
X-1153919Y2680894D01*
X-1159750Y2682934D01*
X-1165772Y2684309D01*
X-1171911Y2685000D01*
X-1178088D01*
X-1184227Y2684309D01*
X-1190250Y2682934D01*
X-1196080Y2680894D01*
X-1201646Y2678213D01*
X-1206877Y2674927D01*
X-1211706Y2671075D01*
X-1216075Y2666707D01*
X-1219926Y2661877D01*
X-1223213Y2656647D01*
X-1225893Y2651081D01*
X-1227933Y2645250D01*
X-1229308Y2639228D01*
X-1230000Y2633089D01*
Y2626912D01*
X-1229308Y2620773D01*
X-1227933Y2614750D01*
X-1225893Y2608920D01*
X-1223213Y2603354D01*
X-1219926Y2598123D01*
X-1216075Y2593294D01*
X-1211706Y2588925D01*
X-1208043Y2586004D01*
X-1207064Y2580000D01*
X-1208043Y2573997D01*
X-1211706Y2571075D01*
X-1216075Y2566707D01*
X-1219926Y2561878D01*
X-1223213Y2556647D01*
X-1225893Y2551081D01*
X-1227933Y2545250D01*
X-1229308Y2539228D01*
X-1230000Y2533089D01*
Y2526912D01*
X-1229308Y2520773D01*
X-1227933Y2514751D01*
X-1225893Y2508920D01*
X-1223213Y2503354D01*
X-1219926Y2498124D01*
X-1216075Y2493294D01*
X-1211706Y2488926D01*
X-1208043Y2486004D01*
X-1207064Y2480001D01*
X-1208043Y2473997D01*
X-1211706Y2471076D01*
X-1216075Y2466708D01*
X-1219926Y2461878D01*
X-1223213Y2456647D01*
X-1225893Y2451081D01*
X-1227933Y2445251D01*
X-1229308Y2439228D01*
X-1230000Y2433089D01*
Y2426912D01*
X-1229308Y2420773D01*
X-1227933Y2414751D01*
X-1225893Y2408920D01*
X-1223213Y2403354D01*
X-1219926Y2398124D01*
X-1216075Y2393294D01*
X-1211706Y2388926D01*
X-1206877Y2385074D01*
X-1201646Y2381788D01*
X-1196080Y2379108D01*
X-1190250Y2377067D01*
X-1184227Y2375692D01*
X-1178088Y2375001D01*
X-1171911D01*
X-1165772Y2375692D01*
X-1159750Y2377067D01*
X-1153919Y2379108D01*
X-1148353Y2381788D01*
X-1143123Y2385074D01*
X-1138293Y2388926D01*
X-1133925Y2393294D01*
X-1131004Y2396957D01*
X-1125000Y2397936D01*
X-1118996Y2396957D01*
X-1116075Y2393294D01*
X-1111707Y2388926D01*
X-1106877Y2385074D01*
X-1101646Y2381788D01*
X-1096081Y2379108D01*
X-1090250Y2377067D01*
X-1084227Y2375692D01*
X-1078089Y2375001D01*
X-1071911D01*
X-1065773Y2375692D01*
X-1059750Y2377067D01*
X-1053919Y2379108D01*
X-1048354Y2381788D01*
X-1043123Y2385074D01*
X-1038293Y2388926D01*
X-1033925Y2393294D01*
X-1031004Y2396957D01*
X-1025000Y2397936D01*
X-1018996Y2396957D01*
X-1016075Y2393294D01*
X-1011707Y2388926D01*
X-1006877Y2385074D01*
X-1001646Y2381788D01*
X-996081Y2379108D01*
X-990250Y2377067D01*
X-984227Y2375692D01*
X-978089Y2375001D01*
X-971911D01*
X-965773Y2375692D01*
X-959750Y2377067D01*
X-953919Y2379108D01*
X-948354Y2381788D01*
X-943123Y2385074D01*
X-938293Y2388926D01*
X-933925Y2393294D01*
X-930074Y2398124D01*
X-926787Y2403354D01*
X-924107Y2408920D01*
X-922066Y2414751D01*
X-920692Y2420773D01*
X-920000Y2426912D01*
Y2433089D01*
X-920692Y2439228D01*
X-922066Y2445251D01*
X-924107Y2451081D01*
X-926787Y2456647D01*
X-930074Y2461878D01*
X-933925Y2466708D01*
X-938293Y2471076D01*
X-941956Y2473997D01*
X-942936Y2480001D01*
X-941956Y2486004D01*
X-938293Y2488926D01*
X-933925Y2493294D01*
X-930074Y2498124D01*
X-926787Y2503354D01*
X-924107Y2508920D01*
X-922066Y2514751D01*
X-920692Y2520773D01*
X-920000Y2526912D01*
Y2533089D01*
X-920692Y2539228D01*
X-922066Y2545250D01*
X-924107Y2551081D01*
X-926787Y2556647D01*
X-930074Y2561878D01*
X-933925Y2566707D01*
X-938293Y2571075D01*
X-941956Y2573997D01*
X-942936Y2580000D01*
X-941956Y2586004D01*
X-938293Y2588925D01*
X-933925Y2593294D01*
X-930074Y2598123D01*
X-926787Y2603354D01*
X-924107Y2608920D01*
X-922066Y2614750D01*
X-920692Y2620773D01*
X-920000Y2626912D01*
Y2633089D01*
X-920692Y2639228D01*
X-922066Y2645250D01*
X-924107Y2651081D01*
X-926787Y2656647D01*
X-930074Y2661877D01*
X-933925Y2666707D01*
X-938293Y2671075D01*
X-941956Y2673996D01*
X-942936Y2680000D01*
X-941956Y2686004D01*
X-938293Y2688925D01*
X-933925Y2693293D01*
X-930074Y2698123D01*
X-926787Y2703354D01*
X-924107Y2708919D01*
X-922066Y2714750D01*
X-920692Y2720773D01*
X-920000Y2726911D01*
Y2733089D01*
X-920692Y2739227D01*
X-922066Y2745250D01*
X-924107Y2751081D01*
X-926787Y2756647D01*
X-930074Y2761877D01*
X-933925Y2766707D01*
X-938293Y2771075D01*
X-943123Y2774927D01*
X-948354Y2778213D01*
X-953919Y2780893D01*
X-959750Y2782934D01*
X-965773Y2784308D01*
X-971911Y2785000D01*
D02*
G37*
%LPD*%
D26*
X-800000Y6445500D02*
D03*
X-256000D02*
D03*
X-1344000D02*
D03*
D27*
X1456606Y5854788D02*
D03*
X1743394Y5445212D02*
D03*
X550000Y5900000D02*
D03*
X-1456606Y5854788D02*
D03*
X-550000Y5900000D02*
D03*
X550000Y5400000D02*
D03*
X-550000D02*
D03*
X-1743394Y5445212D02*
D03*
D28*
X1350000Y8200000D02*
D03*
X1350000Y7900000D02*
D03*
X1350000Y7600000D02*
D03*
X1050000Y8200000D02*
D03*
Y7600000D02*
D03*
X1050000Y7900000D02*
D03*
D29*
X247000Y7200000D02*
D03*
X-1847000D02*
D03*
D30*
X-1100000Y8085000D02*
D03*
X-500000D02*
D03*
X-300000D02*
D03*
X-700000D02*
D03*
X-900000D02*
D03*
X-1300000D02*
D03*
X-1500000D02*
D03*
D31*
X-1600000Y500000D02*
D03*
X1600000D02*
D03*
D32*
X-100000Y8085000D02*
D03*
D33*
X-1900000Y4548000D02*
D03*
D34*
Y4802000D02*
D03*
D35*
X-420000Y2255000D02*
D03*
X-650000Y930000D02*
D03*
X-535000Y1934058D02*
D03*
X-495000Y661532D02*
D03*
X-640999Y1302886D02*
D03*
X-535000Y1646156D02*
D03*
X884588Y3321434D02*
D03*
X386183Y2695660D02*
D03*
X-1397500Y3600000D02*
D03*
Y3700000D02*
D03*
Y3800000D02*
D03*
Y3999999D02*
D03*
Y3900000D02*
D03*
Y4199999D02*
D03*
Y4099999D02*
D03*
Y4399999D02*
D03*
Y4299999D02*
D03*
Y4599998D02*
D03*
Y4499998D02*
D03*
Y4799998D02*
D03*
Y4699998D02*
D03*
Y4999997D02*
D03*
Y4899998D02*
D03*
X-1497500D02*
D03*
X-1597500D02*
D03*
Y4999997D02*
D03*
X-1497500D02*
D03*
Y4699998D02*
D03*
X-1597500D02*
D03*
Y4799998D02*
D03*
X-1497500D02*
D03*
Y4499998D02*
D03*
X-1597500D02*
D03*
Y4599998D02*
D03*
X-1497500D02*
D03*
Y4299999D02*
D03*
X-1597500D02*
D03*
Y4399999D02*
D03*
X-1497500D02*
D03*
Y4099999D02*
D03*
X-1597500D02*
D03*
Y4199999D02*
D03*
X-1497500D02*
D03*
Y3900000D02*
D03*
X-1597500D02*
D03*
Y3999999D02*
D03*
X-1497500D02*
D03*
Y3800000D02*
D03*
X-1597500D02*
D03*
Y3700000D02*
D03*
X-1497500D02*
D03*
Y3600000D02*
D03*
X-1597500D02*
D03*
X1650000Y1069000D02*
D03*
X1550000D02*
D03*
Y1169000D02*
D03*
X1650000D02*
D03*
X1597500Y2900000D02*
D03*
X1497500D02*
D03*
Y2800000D02*
D03*
X1597500D02*
D03*
X1650000Y2411000D02*
D03*
X1550000D02*
D03*
Y2311000D02*
D03*
X1650000D02*
D03*
X1125000Y5800000D02*
D03*
X1025000D02*
D03*
X2125000Y7952499D02*
D03*
Y7592499D02*
D03*
Y7152499D02*
D03*
Y6752499D02*
D03*
Y5952499D02*
D03*
X1925000Y3474999D02*
D03*
X635386Y3008547D02*
D03*
X-120000Y2650000D02*
D03*
X-2125002Y5700000D02*
D03*
Y5300000D02*
D03*
Y4900000D02*
D03*
Y4500000D02*
D03*
Y4100000D02*
D03*
Y3700000D02*
D03*
Y3300000D02*
D03*
Y2900000D02*
D03*
Y2500000D02*
D03*
Y2100000D02*
D03*
Y1700000D02*
D03*
Y1300000D02*
D03*
Y900000D02*
D03*
Y500000D02*
D03*
X-500000Y74998D02*
D03*
X-900000D02*
D03*
X-1300000D02*
D03*
X-2100000D02*
D03*
X-1700000D02*
D03*
X-200000Y144999D02*
D03*
X-300000D02*
D03*
Y244999D02*
D03*
X-200000D02*
D03*
Y544999D02*
D03*
X-300000D02*
D03*
X-200000Y444999D02*
D03*
X-300000D02*
D03*
Y344999D02*
D03*
X-200000D02*
D03*
X200000D02*
D03*
X300000D02*
D03*
Y444999D02*
D03*
X200000D02*
D03*
X300000Y544999D02*
D03*
X200000D02*
D03*
Y644999D02*
D03*
X300000D02*
D03*
Y745000D02*
D03*
X200000D02*
D03*
Y845000D02*
D03*
X300000D02*
D03*
X-2125002Y7200001D02*
D03*
Y7600001D02*
D03*
Y8000001D02*
D03*
X1500000Y8425002D02*
D03*
X1100000D02*
D03*
X700000D02*
D03*
X300000D02*
D03*
X-100000D02*
D03*
X-500000D02*
D03*
X-900000D02*
D03*
X-1300000D02*
D03*
X-2100000D02*
D03*
X-1700000D02*
D03*
X2125000Y6352499D02*
D03*
Y5552499D02*
D03*
Y5152499D02*
D03*
Y4752499D02*
D03*
Y4352499D02*
D03*
Y3674999D02*
D03*
Y3952499D02*
D03*
X1875000Y4162500D02*
D03*
Y4062500D02*
D03*
Y3687500D02*
D03*
X1775000Y4062500D02*
D03*
X1875000Y3587500D02*
D03*
X1775000Y3687500D02*
D03*
Y3587500D02*
D03*
Y4162500D02*
D03*
X-720000Y4165000D02*
D03*
Y4265000D02*
D03*
X1775000Y4512500D02*
D03*
X1875000D02*
D03*
X1775000Y4412500D02*
D03*
X1875000D02*
D03*
X1087500Y4090000D02*
D03*
Y4190000D02*
D03*
Y3790000D02*
D03*
Y3690000D02*
D03*
X1187500Y4090000D02*
D03*
Y4190000D02*
D03*
Y3790000D02*
D03*
Y3690000D02*
D03*
Y4890000D02*
D03*
Y4990000D02*
D03*
Y4590000D02*
D03*
Y4490000D02*
D03*
X1087500Y4890000D02*
D03*
Y4990000D02*
D03*
Y4590000D02*
D03*
Y4490000D02*
D03*
X-975000Y2530001D02*
D03*
X-1075000D02*
D03*
Y2630000D02*
D03*
Y2730000D02*
D03*
X-975000D02*
D03*
Y2630000D02*
D03*
X-1075000Y2430001D02*
D03*
X-975000D02*
D03*
X-1175000Y2530001D02*
D03*
Y2430001D02*
D03*
Y2630000D02*
D03*
X1850000Y7945000D02*
D03*
X1500000Y7190000D02*
D03*
X1627000D02*
D03*
X1373000D02*
D03*
X2040500Y6897500D02*
D03*
X1950000Y5955000D02*
D03*
X1850000D02*
D03*
X1560000Y6907500D02*
D03*
X1440500Y6897500D02*
D03*
X1350000Y5955000D02*
D03*
X960000Y6907500D02*
D03*
X360000D02*
D03*
X840500Y6820000D02*
D03*
X800000Y5955000D02*
D03*
X900000D02*
D03*
X700000D02*
D03*
X1250000D02*
D03*
X1150000D02*
D03*
X300000Y6300000D02*
D03*
Y6200000D02*
D03*
Y6500000D02*
D03*
Y6000000D02*
D03*
Y6100000D02*
D03*
X712500Y4890000D02*
D03*
Y4590000D02*
D03*
X1875000Y4887500D02*
D03*
X712500Y3690000D02*
D03*
X1775000Y4887500D02*
D03*
X712500Y4090000D02*
D03*
Y4490000D02*
D03*
Y4990000D02*
D03*
X612500D02*
D03*
Y4590000D02*
D03*
Y4490000D02*
D03*
Y4890000D02*
D03*
X300000Y5800000D02*
D03*
Y5700000D02*
D03*
Y5900000D02*
D03*
X377500Y4300000D02*
D03*
X300000Y5600000D02*
D03*
X712500Y4190000D02*
D03*
Y3790000D02*
D03*
X1875000Y4987500D02*
D03*
X1775000D02*
D03*
X612500Y4190000D02*
D03*
Y4090000D02*
D03*
Y3690000D02*
D03*
Y3790000D02*
D03*
X200000Y6400000D02*
D03*
X300000D02*
D03*
X200000Y6500000D02*
D03*
Y6200000D02*
D03*
Y6100000D02*
D03*
Y6300000D02*
D03*
X100000D02*
D03*
Y6400000D02*
D03*
Y6100000D02*
D03*
Y6200000D02*
D03*
X200000Y5900000D02*
D03*
Y5800000D02*
D03*
Y6000000D02*
D03*
Y5700000D02*
D03*
Y5600000D02*
D03*
X100000D02*
D03*
Y5900000D02*
D03*
Y5800000D02*
D03*
Y6000000D02*
D03*
Y5700000D02*
D03*
X-1730000Y6825000D02*
D03*
X100000Y6500000D02*
D03*
X-1482500Y6140000D02*
D03*
X-1830000Y6825000D02*
D03*
X-1250000Y5830000D02*
D03*
X-1150000D02*
D03*
X-1860000Y5930000D02*
D03*
X-1955000D02*
D03*
X-1865000Y5790000D02*
D03*
X95000Y3390000D02*
D03*
X-57500Y4500000D02*
D03*
X50000Y3260000D02*
D03*
X-130000Y4740000D02*
D03*
X-260000Y4685000D02*
D03*
X-132500Y3240000D02*
D03*
X220000Y2880000D02*
D03*
X-512500Y4900000D02*
D03*
X-612500D02*
D03*
X-512500Y4800000D02*
D03*
X-612500D02*
D03*
X-1230000Y4415000D02*
D03*
X-1097500Y4410000D02*
D03*
X-837500D02*
D03*
X-460000Y4215000D02*
D03*
X-560000Y3287500D02*
D03*
Y3387500D02*
D03*
X-1200000Y2242500D02*
D03*
X-1755000Y5790000D02*
D03*
X1754000Y6598000D02*
D03*
X2045000Y7655000D02*
D03*
X50000Y6650000D02*
D03*
Y6750000D02*
D03*
Y6850000D02*
D03*
X150000Y6750000D02*
D03*
Y6850000D02*
D03*
X-729999Y2630001D02*
D03*
X-630000D02*
D03*
X-530000D02*
D03*
X-430000D02*
D03*
Y2730000D02*
D03*
X-530000D02*
D03*
X-630000D02*
D03*
X-729999D02*
D03*
Y2830000D02*
D03*
X-630000D02*
D03*
X-729999Y2930000D02*
D03*
X-630000D02*
D03*
X-530000Y2830000D02*
D03*
Y2930000D02*
D03*
X-430000D02*
D03*
Y2830000D02*
D03*
X925000Y5800000D02*
D03*
X2050000Y7395000D02*
D03*
X1850000D02*
D03*
X-242500Y3737500D02*
D03*
X42500Y4127500D02*
D03*
X122500Y4062500D02*
D03*
X42500Y3997500D02*
D03*
X122500Y3932500D02*
D03*
X42500Y3867500D02*
D03*
X122500Y3802500D02*
D03*
X42500Y3737500D02*
D03*
X122500Y3672500D02*
D03*
X42500Y3607500D02*
D03*
X-242500D02*
D03*
X-322500Y3672500D02*
D03*
Y4062500D02*
D03*
X-242500Y4127500D02*
D03*
X1800000Y7295000D02*
D03*
X1900000Y7295000D02*
D03*
X600000Y7295000D02*
D03*
X700000Y7295000D02*
D03*
X-1450000Y7600000D02*
D03*
X-1150000D02*
D03*
X-950000D02*
D03*
X-650000D02*
D03*
X-450000D02*
D03*
X-150000D02*
D03*
X-100000Y5900000D02*
D03*
X1300000Y7295000D02*
D03*
X1200000Y7295000D02*
D03*
X262500Y4300000D02*
D03*
X-49000Y4390000D02*
D03*
X-141000Y3350000D02*
D03*
X2050000Y6065000D02*
D03*
X1950000D02*
D03*
X1850000D02*
D03*
X1350000D02*
D03*
X1250000D02*
D03*
X1150000D02*
D03*
X700000D02*
D03*
X800000D02*
D03*
X900000D02*
D03*
X-1765000Y6190000D02*
D03*
X-1665000D02*
D03*
X260000Y4685000D02*
D03*
X-130000Y4645000D02*
D03*
%TF.MD5,dd196149e94778e26c0800ced370a23d*%
M02*
