%TF.GenerationSoftware,Altium Limited,Altium Designer,25.1.2 (22)*%
G04 Layer_Color=32896*
%FSLAX45Y45*%
%MOMM*%
%TF.SameCoordinates,CB1A417E-7DD8-4276-B15B-71DB2DCBA6F7*%
%TF.FilePolarity,Positive*%
%TF.FileFunction,Legend,Bot*%
%TF.Part,Single*%
G01*
G75*
%TA.AperFunction,NonConductor*%
%ADD53C,0.20000*%
G36*
X9221346Y4299249D02*
Y4297768D01*
Y4295916D01*
Y4292027D01*
X9221531Y4287583D01*
X9221716Y4282769D01*
Y4277585D01*
X9221901Y4272215D01*
X9222272Y4261660D01*
X9222457Y4256476D01*
X9222642Y4251661D01*
X9222827Y4247217D01*
Y4243329D01*
X9223012Y4241662D01*
Y4240181D01*
Y4238700D01*
X9223197Y4237589D01*
Y4236848D01*
Y4236107D01*
Y4235737D01*
Y4235552D01*
X9223568Y4226849D01*
X9223938Y4218331D01*
X9224308Y4210554D01*
X9224494Y4203148D01*
X9224864Y4196297D01*
X9225234Y4190001D01*
X9225605Y4184076D01*
X9225790Y4178891D01*
X9226160Y4174262D01*
X9226345Y4170003D01*
X9226530Y4166485D01*
X9226716Y4163707D01*
X9226901Y4161300D01*
Y4159634D01*
X9227086Y4158708D01*
Y4158338D01*
X9227456Y4152783D01*
X9227827Y4146857D01*
X9228382Y4140562D01*
X9228752Y4134266D01*
X9229678Y4121675D01*
X9230234Y4115379D01*
X9230789Y4109639D01*
X9231160Y4103899D01*
X9231530Y4098899D01*
X9232085Y4094270D01*
X9232271Y4090197D01*
X9232456Y4088530D01*
X9232641Y4087049D01*
Y4085567D01*
X9232826Y4084456D01*
Y4083531D01*
X9233011Y4082975D01*
Y4082605D01*
Y4082420D01*
X9205792D01*
X9132281Y4082605D01*
X9067658D01*
X9061548Y4082420D01*
X9039513D01*
X9038957Y4093344D01*
X9038217Y4103899D01*
X9038031Y4108898D01*
X9037661Y4113713D01*
X9037476Y4118157D01*
X9037106Y4122415D01*
X9036920Y4126304D01*
X9036550Y4129822D01*
X9036365Y4132970D01*
X9036180Y4135562D01*
X9035995Y4137784D01*
X9035809Y4139266D01*
Y4140191D01*
Y4140562D01*
X9039698Y4140377D01*
X9043401Y4140006D01*
X9046734Y4139821D01*
X9049697Y4139636D01*
X9052474Y4139451D01*
X9054882D01*
X9056918Y4139266D01*
X9058770D01*
X9060437Y4139080D01*
X9062844D01*
X9063770Y4138895D01*
X9065251D01*
X9099877Y4138155D01*
X9104321D01*
X9108209Y4137969D01*
X9121726D01*
X9124319Y4137784D01*
X9150983D01*
X9149131Y4171484D01*
X9139688Y4171855D01*
X9130800Y4172225D01*
X9126541D01*
X9122467Y4172410D01*
X9115246D01*
X9112098Y4172595D01*
X9070806D01*
X9067288Y4172410D01*
X9052845D01*
X9052474Y4178521D01*
X9052289Y4184261D01*
X9051919Y4189816D01*
X9051549Y4195186D01*
X9051363Y4200370D01*
X9050993Y4204999D01*
X9050808Y4209443D01*
X9050438Y4213702D01*
X9050252Y4217406D01*
X9050067Y4220553D01*
X9049882Y4223516D01*
X9049697Y4225923D01*
X9049512Y4227775D01*
X9049327Y4229256D01*
Y4229997D01*
Y4230367D01*
X9053215Y4230182D01*
X9056918D01*
X9063770Y4229812D01*
X9070065Y4229627D01*
X9075620Y4229441D01*
X9080620D01*
X9084878Y4229256D01*
X9088767Y4229071D01*
X9094877D01*
X9097099Y4228886D01*
X9125245D01*
X9128763Y4229071D01*
X9139502D01*
X9141169Y4229256D01*
X9145428D01*
X9143576Y4261105D01*
X9138391Y4261290D01*
X9133762Y4261475D01*
X9129689D01*
X9126356Y4261660D01*
X9114320D01*
X9111913Y4261845D01*
X9079323D01*
X9069695Y4261660D01*
X9060066Y4261475D01*
X9055437Y4261290D01*
X9050993D01*
X9046734Y4261105D01*
X9042846Y4260920D01*
X9039328D01*
X9036180Y4260734D01*
X9033773D01*
X9031921Y4260549D01*
X9030254D01*
Y4264067D01*
Y4267215D01*
Y4269808D01*
X9030069Y4271844D01*
Y4273511D01*
Y4274622D01*
Y4275363D01*
Y4275548D01*
X9028958Y4293694D01*
X9028773Y4295916D01*
Y4297768D01*
X9028588Y4299619D01*
Y4301101D01*
Y4302397D01*
X9028403Y4303693D01*
Y4305545D01*
X9028218Y4306841D01*
Y4307581D01*
Y4307952D01*
Y4308137D01*
X9027662Y4317210D01*
X9043031D01*
X9059140Y4317025D01*
X9187460D01*
X9194312Y4317210D01*
X9221531D01*
X9221346Y4299249D01*
D02*
G37*
G36*
X8652701D02*
Y4297768D01*
Y4295916D01*
Y4292027D01*
X8652886Y4287583D01*
X8653071Y4282769D01*
Y4277585D01*
X8653257Y4272215D01*
X8653627Y4261660D01*
X8653812Y4256476D01*
X8653997Y4251661D01*
X8654182Y4247217D01*
Y4243329D01*
X8654368Y4241662D01*
Y4240181D01*
Y4238700D01*
X8654553Y4237589D01*
Y4236848D01*
Y4236107D01*
Y4235737D01*
Y4235552D01*
X8654923Y4226849D01*
X8655293Y4218331D01*
X8655664Y4210554D01*
X8655849Y4203148D01*
X8656219Y4196297D01*
X8656589Y4190001D01*
X8656960Y4184076D01*
X8657145Y4178891D01*
X8657515Y4174262D01*
X8657700Y4170003D01*
X8657886Y4166485D01*
X8658071Y4163707D01*
X8658256Y4161300D01*
Y4159634D01*
X8658441Y4158708D01*
Y4158338D01*
X8658811Y4152783D01*
X8659182Y4146857D01*
X8659737Y4140562D01*
X8660108Y4134266D01*
X8661033Y4121675D01*
X8661589Y4115379D01*
X8662144Y4109639D01*
X8662515Y4103899D01*
X8662885Y4098899D01*
X8663441Y4094270D01*
X8663626Y4090197D01*
X8663811Y4088530D01*
X8663996Y4087049D01*
Y4085567D01*
X8664181Y4084456D01*
Y4083531D01*
X8664366Y4082975D01*
Y4082605D01*
Y4082420D01*
X8637147D01*
X8563636Y4082605D01*
X8499013D01*
X8492903Y4082420D01*
X8470868D01*
X8470312Y4093344D01*
X8469572Y4103899D01*
X8469387Y4108898D01*
X8469016Y4113713D01*
X8468831Y4118157D01*
X8468461Y4122415D01*
X8468276Y4126304D01*
X8467905Y4129822D01*
X8467720Y4132970D01*
X8467535Y4135562D01*
X8467350Y4137784D01*
X8467165Y4139266D01*
Y4140191D01*
Y4140562D01*
X8471053Y4140377D01*
X8474756Y4140006D01*
X8478089Y4139821D01*
X8481052Y4139636D01*
X8483830Y4139451D01*
X8486237D01*
X8488274Y4139266D01*
X8490125D01*
X8491792Y4139080D01*
X8494199D01*
X8495125Y4138895D01*
X8496606D01*
X8531232Y4138155D01*
X8535676D01*
X8539565Y4137969D01*
X8553082D01*
X8555674Y4137784D01*
X8582338D01*
X8580486Y4171484D01*
X8571043Y4171855D01*
X8562155Y4172225D01*
X8557896D01*
X8553822Y4172410D01*
X8546601D01*
X8543453Y4172595D01*
X8502161D01*
X8498643Y4172410D01*
X8484200D01*
X8483830Y4178521D01*
X8483644Y4184261D01*
X8483274Y4189816D01*
X8482904Y4195186D01*
X8482719Y4200370D01*
X8482348Y4204999D01*
X8482163Y4209443D01*
X8481793Y4213702D01*
X8481608Y4217406D01*
X8481422Y4220553D01*
X8481237Y4223516D01*
X8481052Y4225923D01*
X8480867Y4227775D01*
X8480682Y4229256D01*
Y4229997D01*
Y4230367D01*
X8484570Y4230182D01*
X8488274D01*
X8495125Y4229812D01*
X8501420Y4229627D01*
X8506975Y4229441D01*
X8511975D01*
X8516234Y4229256D01*
X8520122Y4229071D01*
X8526233D01*
X8528455Y4228886D01*
X8556600D01*
X8560118Y4229071D01*
X8570858D01*
X8572524Y4229256D01*
X8576783D01*
X8574931Y4261105D01*
X8569747Y4261290D01*
X8565117Y4261475D01*
X8561044D01*
X8557711Y4261660D01*
X8545675D01*
X8543268Y4261845D01*
X8510679D01*
X8501050Y4261660D01*
X8491421Y4261475D01*
X8486792Y4261290D01*
X8482348D01*
X8478089Y4261105D01*
X8474201Y4260920D01*
X8470683D01*
X8467535Y4260734D01*
X8465128D01*
X8463276Y4260549D01*
X8461610D01*
Y4264067D01*
Y4267215D01*
Y4269808D01*
X8461425Y4271844D01*
Y4273511D01*
Y4274622D01*
Y4275363D01*
Y4275548D01*
X8460314Y4293694D01*
X8460128Y4295916D01*
Y4297768D01*
X8459943Y4299619D01*
Y4301101D01*
Y4302397D01*
X8459758Y4303693D01*
Y4305545D01*
X8459573Y4306841D01*
Y4307581D01*
Y4307952D01*
Y4308137D01*
X8459017Y4317210D01*
X8474386D01*
X8490496Y4317025D01*
X8618816D01*
X8625667Y4317210D01*
X8652886D01*
X8652701Y4299249D01*
D02*
G37*
G36*
X7408756Y4309989D02*
Y4306470D01*
X7408941Y4302952D01*
Y4299804D01*
X7409126Y4296842D01*
Y4294064D01*
X7409311Y4291657D01*
Y4289435D01*
X7409496Y4287398D01*
Y4285547D01*
Y4284065D01*
X7409682Y4282954D01*
Y4282214D01*
Y4281658D01*
Y4281473D01*
X7410422Y4259438D01*
X7339319Y4261290D01*
X7339689Y4243884D01*
X7340244Y4226664D01*
X7340800Y4209999D01*
X7341541Y4193704D01*
X7341911Y4185927D01*
X7342281Y4178150D01*
X7342837Y4170744D01*
X7343207Y4163522D01*
X7343577Y4156301D01*
X7344133Y4149635D01*
X7344503Y4142969D01*
X7344874Y4136673D01*
X7345429Y4130563D01*
X7345799Y4124823D01*
X7346170Y4119453D01*
X7346540Y4114268D01*
X7346910Y4109454D01*
X7347281Y4105010D01*
X7347651Y4100936D01*
X7348021Y4097233D01*
X7348207Y4093900D01*
X7348577Y4090937D01*
X7348762Y4088345D01*
X7348947Y4086308D01*
X7349132Y4084642D01*
Y4083345D01*
X7349318Y4082605D01*
Y4082420D01*
X7332653D01*
X7328209Y4082605D01*
X7285065D01*
X7281732Y4082420D01*
X7268585D01*
Y4092419D01*
X7268400Y4102603D01*
Y4107602D01*
X7268215Y4112416D01*
Y4117046D01*
X7268030Y4121490D01*
Y4125563D01*
Y4129452D01*
X7267844Y4132785D01*
Y4135562D01*
X7267659Y4137969D01*
Y4139636D01*
Y4140747D01*
Y4141117D01*
X7267289Y4153523D01*
X7266733Y4165744D01*
X7266548Y4171670D01*
X7266178Y4177410D01*
X7265993Y4182780D01*
X7265808Y4187779D01*
X7265623Y4192593D01*
X7265252Y4196852D01*
X7265067Y4200555D01*
Y4203888D01*
X7264882Y4206481D01*
X7264697Y4208332D01*
Y4209073D01*
Y4209629D01*
Y4209814D01*
Y4209999D01*
X7264141Y4219257D01*
X7263586Y4228330D01*
X7263215Y4232774D01*
X7263030Y4237033D01*
X7262660Y4241107D01*
X7262290Y4244810D01*
X7262104Y4248328D01*
X7261734Y4251476D01*
X7261549Y4254439D01*
X7261364Y4256661D01*
X7261179Y4258698D01*
Y4260179D01*
X7260993Y4260920D01*
Y4261290D01*
X7243217D01*
X7238218Y4261105D01*
X7233033Y4260920D01*
X7222664Y4260734D01*
X7217479Y4260549D01*
X7212665Y4260364D01*
X7208036Y4260179D01*
X7203777Y4259994D01*
X7199889Y4259809D01*
X7196556D01*
X7193778Y4259623D01*
X7192667D01*
X7191741Y4259438D01*
X7190075D01*
Y4262956D01*
Y4266104D01*
Y4269067D01*
X7189890Y4271659D01*
Y4273696D01*
Y4275177D01*
Y4276103D01*
Y4276474D01*
X7189704Y4279621D01*
X7189519Y4282954D01*
Y4286473D01*
X7189334Y4289805D01*
X7189149Y4292768D01*
Y4294064D01*
X7188964Y4295175D01*
Y4296101D01*
Y4296842D01*
Y4297212D01*
Y4297397D01*
X7187853Y4317580D01*
X7213221Y4317210D01*
X7253216D01*
X7294508Y4317025D01*
X7328394D01*
X7338948Y4317210D01*
X7367093D01*
X7375241Y4317395D01*
X7397276D01*
X7399683Y4317580D01*
X7408571D01*
X7408756Y4309989D01*
D02*
G37*
G36*
X9017478Y4191853D02*
X9017848Y4182409D01*
X9018034Y4177780D01*
X9018219Y4173336D01*
X9018589Y4169077D01*
X9018774Y4165004D01*
X9018959Y4161300D01*
X9019145Y4157967D01*
X9019330Y4155005D01*
Y4152597D01*
X9019515Y4150561D01*
X9019700Y4149079D01*
Y4148154D01*
Y4147783D01*
X9009886Y4147968D01*
X9005257D01*
X9000813Y4148154D01*
X8988777D01*
X8985444Y4148339D01*
X8954892D01*
X8946745Y4148154D01*
X8939338D01*
X8935820Y4147968D01*
X8927673D01*
X8925636Y4147783D01*
X8923043D01*
X8922673Y4158152D01*
X8922488Y4163152D01*
X8922303Y4167966D01*
X8922118Y4172595D01*
X8921932Y4177039D01*
X8921747Y4181298D01*
X8921377Y4185187D01*
X8921192Y4188705D01*
X8921007Y4191853D01*
X8920821Y4194630D01*
X8920636Y4197037D01*
X8920451Y4198889D01*
X8920266Y4200370D01*
Y4201111D01*
Y4201481D01*
X8929709Y4201111D01*
X8938782Y4200926D01*
X8943041D01*
X8946930Y4200741D01*
X8954336D01*
X8957484Y4200555D01*
X8977482D01*
X8986000Y4200741D01*
X8994147Y4200926D01*
X8998036D01*
X9001554Y4201111D01*
X9008035D01*
X9010627Y4201296D01*
X9012849D01*
X9014701Y4201481D01*
X9017293D01*
X9017478Y4191853D01*
D02*
G37*
G36*
X8296812Y4321654D02*
X8305700Y4321099D01*
X8314032Y4320173D01*
X8321995Y4319062D01*
X8329401Y4317766D01*
X8336252Y4316284D01*
X8342548Y4314618D01*
X8348288Y4313136D01*
X8353473Y4311470D01*
X8358102Y4309803D01*
X8361990Y4308322D01*
X8365138Y4307026D01*
X8367731Y4305915D01*
X8369582Y4304989D01*
X8370138Y4304619D01*
X8370693Y4304434D01*
X8370878Y4304248D01*
X8371064D01*
X8376989Y4300915D01*
X8382544Y4297212D01*
X8387728Y4293509D01*
X8392543Y4289620D01*
X8396987Y4285547D01*
X8401060Y4281658D01*
X8404764Y4277770D01*
X8408097Y4274066D01*
X8411059Y4270548D01*
X8413652Y4267400D01*
X8415874Y4264438D01*
X8417725Y4262031D01*
X8419022Y4259994D01*
X8420133Y4258327D01*
X8420688Y4257401D01*
X8420873Y4257031D01*
X8423836Y4251476D01*
X8426613Y4245736D01*
X8428835Y4239996D01*
X8430872Y4234441D01*
X8432539Y4228886D01*
X8433835Y4223516D01*
X8434946Y4218331D01*
X8435872Y4213517D01*
X8436612Y4209073D01*
X8437168Y4204999D01*
X8437538Y4201481D01*
X8437908Y4198333D01*
Y4195741D01*
X8438094Y4193890D01*
Y4193334D01*
Y4192779D01*
Y4192593D01*
Y4192408D01*
X8437908Y4184631D01*
X8437168Y4177039D01*
X8436612Y4173521D01*
X8436057Y4170188D01*
X8435501Y4167040D01*
X8434946Y4164078D01*
X8434390Y4161300D01*
X8433835Y4158893D01*
X8433279Y4156671D01*
X8432724Y4155005D01*
X8432353Y4153523D01*
X8431983Y4152412D01*
X8431798Y4151672D01*
Y4151486D01*
X8429206Y4144265D01*
X8426243Y4137784D01*
X8424576Y4134636D01*
X8423095Y4131859D01*
X8421614Y4129267D01*
X8420133Y4126859D01*
X8418651Y4124637D01*
X8417355Y4122786D01*
X8416244Y4121119D01*
X8415318Y4119638D01*
X8414392Y4118527D01*
X8413837Y4117786D01*
X8413467Y4117231D01*
X8413281Y4117046D01*
X8408467Y4111861D01*
X8403468Y4107232D01*
X8398468Y4103343D01*
X8393839Y4100010D01*
X8391617Y4098529D01*
X8389580Y4097418D01*
X8387728Y4096307D01*
X8386247Y4095381D01*
X8384951Y4094826D01*
X8384025Y4094270D01*
X8383470Y4094085D01*
X8383284Y4093900D01*
X8376433Y4090937D01*
X8369397Y4088530D01*
X8362731Y4086493D01*
X8359583Y4085567D01*
X8356621Y4084827D01*
X8353658Y4084086D01*
X8351251Y4083531D01*
X8349029Y4082975D01*
X8346992Y4082605D01*
X8345511Y4082234D01*
X8344214Y4082049D01*
X8343474Y4081864D01*
X8343289D01*
X8334956Y4080568D01*
X8326809Y4079642D01*
X8322920Y4079457D01*
X8319217Y4079087D01*
X8315699Y4078901D01*
X8312366Y4078716D01*
X8309218Y4078531D01*
X8306441Y4078346D01*
X8304033D01*
X8301997Y4078161D01*
X8292553D01*
X8286998Y4078346D01*
X8281628Y4078531D01*
X8276629Y4078901D01*
X8274407D01*
X8272370Y4079087D01*
X8270518D01*
X8268852Y4079272D01*
X8267556D01*
X8266630Y4079457D01*
X8265889D01*
X8259408Y4080012D01*
X8253483Y4080383D01*
X8250891Y4080753D01*
X8248298Y4080938D01*
X8246076Y4081123D01*
X8243854Y4081309D01*
X8242003Y4081494D01*
X8240336Y4081679D01*
X8238855Y4081864D01*
X8237744Y4082049D01*
X8236818D01*
X8236078Y4082234D01*
X8235522D01*
X8233115Y4082605D01*
X8230523Y4082975D01*
X8224968Y4083716D01*
X8219042Y4084642D01*
X8213487Y4085753D01*
X8210895Y4086123D01*
X8208488Y4086493D01*
X8206266Y4086864D01*
X8204414Y4087234D01*
X8202933Y4087604D01*
X8201637Y4087789D01*
X8200896Y4087975D01*
X8200711D01*
X8200526Y4092604D01*
X8200340Y4097603D01*
X8200155Y4102973D01*
X8199970Y4108343D01*
X8199600Y4119268D01*
X8199415Y4124637D01*
X8199044Y4129822D01*
X8198859Y4134636D01*
X8198674Y4139266D01*
X8198489Y4143339D01*
X8198304Y4146857D01*
X8198118Y4149635D01*
Y4150931D01*
X8197933Y4151857D01*
Y4152597D01*
Y4153153D01*
Y4153523D01*
Y4153708D01*
X8197563Y4161300D01*
X8197007Y4168707D01*
X8196637Y4175558D01*
X8196267Y4182224D01*
X8195896Y4188149D01*
X8195526Y4193890D01*
X8195156Y4199074D01*
X8194785Y4203888D01*
X8194415Y4208147D01*
X8194230Y4211851D01*
X8193860Y4214998D01*
X8193674Y4217776D01*
X8193489Y4219813D01*
Y4221294D01*
X8193304Y4222220D01*
Y4222590D01*
X8197378D01*
X8201822Y4222405D01*
X8206451D01*
X8211265Y4222220D01*
X8225893D01*
X8230523Y4222035D01*
X8274037D01*
X8277925Y4222220D01*
X8291072D01*
X8293479Y4222405D01*
X8299589D01*
Y4217406D01*
Y4213332D01*
X8299775Y4209814D01*
Y4207036D01*
Y4204814D01*
X8299960Y4203333D01*
Y4202407D01*
Y4202037D01*
Y4199815D01*
X8300145Y4197963D01*
Y4196297D01*
Y4194815D01*
X8300330Y4193890D01*
Y4192964D01*
Y4192593D01*
Y4192408D01*
X8301441Y4168151D01*
X8280332Y4168337D01*
X8278110D01*
X8276444Y4168151D01*
X8274962D01*
X8273296Y4167966D01*
X8272185D01*
X8271259Y4167781D01*
X8270889D01*
X8272740Y4137599D01*
X8278110Y4136488D01*
X8283480Y4135562D01*
X8288479Y4135007D01*
X8292923Y4134451D01*
X8294775D01*
X8296627Y4134266D01*
X8298108D01*
X8299404Y4134081D01*
X8301997D01*
X8308292Y4134451D01*
X8314032Y4135192D01*
X8319217Y4136118D01*
X8321624Y4136673D01*
X8323661Y4137414D01*
X8325698Y4137969D01*
X8327550Y4138525D01*
X8329031Y4139080D01*
X8330327Y4139636D01*
X8331438Y4140006D01*
X8332179Y4140377D01*
X8332549Y4140562D01*
X8332734D01*
X8337548Y4143339D01*
X8341437Y4146302D01*
X8344955Y4149450D01*
X8347733Y4152597D01*
X8349769Y4155375D01*
X8350695Y4156486D01*
X8351436Y4157597D01*
X8351806Y4158523D01*
X8352177Y4159078D01*
X8352547Y4159449D01*
Y4159634D01*
X8354584Y4164448D01*
X8356065Y4169448D01*
X8357176Y4174447D01*
X8357917Y4179076D01*
X8358102Y4181113D01*
X8358287Y4182965D01*
X8358472Y4184631D01*
Y4186113D01*
X8358657Y4187224D01*
Y4188149D01*
Y4188705D01*
Y4188890D01*
X8358472Y4194815D01*
X8357732Y4200555D01*
X8356806Y4205740D01*
X8356435Y4208147D01*
X8355880Y4210369D01*
X8355324Y4212406D01*
X8354769Y4214258D01*
X8354399Y4215739D01*
X8354028Y4217035D01*
X8353658Y4218146D01*
X8353288Y4219072D01*
X8353102Y4219442D01*
Y4219628D01*
X8350695Y4224812D01*
X8348103Y4229627D01*
X8345325Y4233885D01*
X8342733Y4237404D01*
X8341437Y4239070D01*
X8340326Y4240366D01*
X8339215Y4241662D01*
X8338289Y4242588D01*
X8337548Y4243329D01*
X8336993Y4243884D01*
X8336623Y4244255D01*
X8336437Y4244440D01*
X8331993Y4248143D01*
X8327364Y4251291D01*
X8322920Y4254068D01*
X8318662Y4256105D01*
X8316810Y4257031D01*
X8314958Y4257772D01*
X8313477Y4258512D01*
X8311996Y4259068D01*
X8310885Y4259438D01*
X8310144Y4259809D01*
X8309588Y4259994D01*
X8309403D01*
X8303478Y4261660D01*
X8297553Y4262956D01*
X8291812Y4263882D01*
X8286813Y4264623D01*
X8284406Y4264808D01*
X8282369Y4264993D01*
X8280517D01*
X8278851Y4265178D01*
X8275888D01*
X8270704Y4264993D01*
X8268111Y4264808D01*
X8265704D01*
X8263667Y4264623D01*
X8262186Y4264438D01*
X8261075Y4264253D01*
X8260705D01*
X8254039Y4263512D01*
X8250891Y4263142D01*
X8247928Y4262771D01*
X8245521Y4262216D01*
X8243484Y4262031D01*
X8242743Y4261845D01*
X8242188Y4261660D01*
X8241818D01*
X8238114Y4261105D01*
X8234781Y4260364D01*
X8231819Y4259809D01*
X8229226Y4259253D01*
X8227190Y4258698D01*
X8225708Y4258327D01*
X8224782Y4258142D01*
X8224412Y4257957D01*
X8222931Y4257587D01*
X8221264Y4257031D01*
X8217561Y4256105D01*
X8213672Y4255179D01*
X8209784Y4254068D01*
X8206266Y4253328D01*
X8204599Y4252772D01*
X8203303Y4252587D01*
X8202192Y4252217D01*
X8201266Y4252032D01*
X8200711Y4251846D01*
X8200526D01*
X8200896Y4257957D01*
X8201266Y4263882D01*
X8201637Y4269622D01*
X8201822Y4275177D01*
X8202007Y4280362D01*
X8202192Y4285362D01*
X8202377Y4289991D01*
Y4294249D01*
X8202562Y4298323D01*
Y4301841D01*
X8202748Y4304804D01*
Y4307396D01*
Y4309433D01*
Y4310914D01*
Y4311840D01*
Y4312211D01*
X8211636Y4313877D01*
X8220153Y4315358D01*
X8228301Y4316655D01*
X8236263Y4317766D01*
X8243669Y4318691D01*
X8250520Y4319432D01*
X8257001Y4320173D01*
X8263112Y4320728D01*
X8268482Y4321099D01*
X8273296Y4321284D01*
X8277370Y4321469D01*
X8280888Y4321654D01*
X8282369D01*
X8283665Y4321839D01*
X8287368D01*
X8296812Y4321654D01*
D02*
G37*
G36*
X7804641Y4317395D02*
X7808529D01*
X7812047Y4317210D01*
X7821306D01*
X7823898Y4317025D01*
X7850192D01*
X7857413Y4317210D01*
X7869819D01*
X7872226Y4317395D01*
X7878152D01*
Y4311285D01*
Y4304989D01*
X7878522Y4292027D01*
Y4285547D01*
X7878707Y4279066D01*
X7878892Y4272955D01*
X7879077Y4267215D01*
X7879263Y4261660D01*
X7879448Y4256661D01*
X7879633Y4252032D01*
Y4248328D01*
X7879818Y4246662D01*
Y4244995D01*
Y4243884D01*
X7880003Y4242773D01*
Y4241847D01*
Y4241292D01*
Y4240922D01*
Y4240737D01*
X7880744Y4224072D01*
X7881114Y4215739D01*
X7881485Y4207777D01*
X7881855Y4200000D01*
X7882410Y4192408D01*
X7882781Y4185372D01*
X7883151Y4178706D01*
X7883521Y4172595D01*
X7883892Y4167226D01*
X7884262Y4162226D01*
X7884447Y4160189D01*
X7884632Y4158152D01*
X7884818Y4156486D01*
Y4154819D01*
X7885003Y4153523D01*
Y4152412D01*
Y4151486D01*
X7885188Y4150931D01*
Y4150561D01*
Y4150375D01*
X7885558Y4145561D01*
X7885929Y4140377D01*
X7886484Y4135007D01*
X7886854Y4129452D01*
X7887780Y4118157D01*
X7888336Y4112602D01*
X7888891Y4107232D01*
X7889262Y4102232D01*
X7889632Y4097418D01*
X7890187Y4093344D01*
X7890373Y4089641D01*
X7890558Y4087975D01*
X7890743Y4086678D01*
Y4085382D01*
X7890928Y4084271D01*
Y4083531D01*
X7891113Y4082975D01*
Y4082605D01*
Y4082420D01*
X7874263D01*
X7857413Y4082605D01*
X7735018D01*
X7729093Y4082420D01*
X7698541D01*
X7694097Y4082605D01*
X7647250D01*
X7643731Y4082420D01*
X7629659D01*
X7626696Y4089271D01*
X7623734Y4095752D01*
X7620771Y4102047D01*
X7618179Y4108158D01*
X7615401Y4113713D01*
X7612994Y4119082D01*
X7610772Y4124082D01*
X7608550Y4128711D01*
X7606513Y4132785D01*
X7604847Y4136488D01*
X7603365Y4139636D01*
X7602069Y4142228D01*
X7600958Y4144450D01*
X7600217Y4145932D01*
X7599847Y4146857D01*
X7599662Y4147228D01*
X7520041D01*
X7517633Y4140747D01*
X7515411Y4134451D01*
X7513375Y4128341D01*
X7511338Y4122415D01*
X7509486Y4116860D01*
X7507634Y4111491D01*
X7506153Y4106491D01*
X7504672Y4101862D01*
X7503376Y4097603D01*
X7502265Y4093715D01*
X7501339Y4090382D01*
X7500598Y4087604D01*
X7499857Y4085382D01*
X7499487Y4083716D01*
X7499117Y4082790D01*
Y4082420D01*
X7483933D01*
X7479489Y4082605D01*
X7433383D01*
X7430050Y4082420D01*
X7416348D01*
X7426161Y4110194D01*
X7476341Y4246291D01*
X7501154Y4317210D01*
X7508745D01*
X7516708Y4317025D01*
X7572813D01*
X7576331Y4317210D01*
X7592626D01*
X7595218Y4311655D01*
X7597625Y4306656D01*
X7599662Y4302397D01*
X7601328Y4298879D01*
X7602069Y4297397D01*
X7602810Y4296101D01*
X7603365Y4294990D01*
X7603736Y4294064D01*
X7604106Y4293324D01*
X7604476Y4292768D01*
X7604661Y4292583D01*
Y4292398D01*
X7613920Y4274066D01*
X7700577Y4110935D01*
X7705145Y4101557D01*
X7702429Y4139821D01*
X7707429Y4139636D01*
X7712798Y4139451D01*
X7718353Y4139266D01*
X7724094Y4139080D01*
X7735759Y4138895D01*
X7741499Y4138710D01*
X7752054D01*
X7756868Y4138525D01*
X7782791D01*
X7788346Y4138710D01*
X7798715D01*
X7800752Y4138895D01*
X7806307D01*
X7805752Y4158523D01*
X7800752Y4252957D01*
X7796679Y4317580D01*
X7800752D01*
X7804641Y4317395D01*
D02*
G37*
G36*
X8079612D02*
X8083316D01*
X8087019Y4317210D01*
X8096648D01*
X8099425Y4317025D01*
X8129607D01*
X8135903Y4317210D01*
X8150716D01*
X8153864Y4248884D01*
X8154049Y4245180D01*
X8154234Y4241477D01*
X8154419Y4238144D01*
X8154604Y4235182D01*
X8154790Y4232404D01*
X8154975Y4229812D01*
X8155160Y4227405D01*
X8155345Y4225368D01*
Y4223516D01*
X8155530Y4221850D01*
X8155715Y4220553D01*
Y4219442D01*
Y4218517D01*
X8155901Y4217961D01*
Y4217591D01*
Y4217406D01*
X8157937Y4191297D01*
X8158308Y4185742D01*
X8158678Y4180743D01*
X8158863Y4178706D01*
X8159048Y4176669D01*
X8159234Y4174817D01*
Y4173336D01*
X8159419Y4171855D01*
Y4170559D01*
Y4169633D01*
X8159604Y4168707D01*
Y4168151D01*
Y4167596D01*
Y4167411D01*
Y4167226D01*
Y4164448D01*
X8159789Y4161856D01*
Y4159819D01*
Y4158152D01*
Y4156671D01*
Y4155745D01*
Y4155190D01*
Y4155005D01*
X8159604Y4150375D01*
X8159234Y4146117D01*
X8158863Y4142043D01*
X8158308Y4138710D01*
X8157752Y4135747D01*
X8157567Y4134636D01*
X8157197Y4133525D01*
X8157012Y4132785D01*
Y4132229D01*
X8156826Y4131859D01*
Y4131674D01*
X8155715Y4128156D01*
X8154419Y4124823D01*
X8153123Y4122045D01*
X8151827Y4119638D01*
X8150716Y4117601D01*
X8149790Y4116120D01*
X8149235Y4115194D01*
X8149049Y4114824D01*
X8147013Y4112231D01*
X8144791Y4109824D01*
X8142384Y4107417D01*
X8139976Y4105380D01*
X8137940Y4103714D01*
X8136273Y4102232D01*
X8135162Y4101492D01*
X8134977Y4101121D01*
X8134792D01*
X8130903Y4098529D01*
X8127015Y4096122D01*
X8123126Y4094085D01*
X8119423Y4092233D01*
X8116275Y4090752D01*
X8114979Y4090197D01*
X8113868Y4089641D01*
X8112942Y4089271D01*
X8112201Y4088900D01*
X8111831Y4088715D01*
X8111646D01*
X8106646Y4086864D01*
X8101462Y4085382D01*
X8096648Y4084086D01*
X8092018Y4082975D01*
X8090167Y4082605D01*
X8088315Y4082234D01*
X8086649Y4081864D01*
X8085167Y4081679D01*
X8084056Y4081309D01*
X8083316D01*
X8082760Y4081123D01*
X8082575D01*
X8075724Y4080198D01*
X8069243Y4079457D01*
X8062947Y4078901D01*
X8059985Y4078716D01*
X8057207Y4078531D01*
X8054615Y4078346D01*
X8050356D01*
X8048690Y4078161D01*
X8045357D01*
X8037394Y4078346D01*
X8029803Y4078716D01*
X8026099Y4078901D01*
X8022581Y4079272D01*
X8019248Y4079642D01*
X8016285Y4080012D01*
X8013508Y4080198D01*
X8010916Y4080568D01*
X8008694Y4080938D01*
X8006842Y4081123D01*
X8005361Y4081309D01*
X8004250Y4081494D01*
X8003509Y4081679D01*
X8003324D01*
X7995732Y4083160D01*
X7988696Y4085012D01*
X7985363Y4086123D01*
X7982400Y4087049D01*
X7979437Y4088160D01*
X7976845Y4089086D01*
X7974438Y4090011D01*
X7972216Y4090937D01*
X7970364Y4091863D01*
X7968883Y4092419D01*
X7967587Y4093159D01*
X7966661Y4093530D01*
X7966105Y4093715D01*
X7965920Y4093900D01*
X7962958Y4095566D01*
X7959995Y4097233D01*
X7957403Y4099085D01*
X7954996Y4100751D01*
X7952588Y4102417D01*
X7950552Y4104084D01*
X7948700Y4105750D01*
X7947033Y4107232D01*
X7945552Y4108713D01*
X7944256Y4110009D01*
X7943145Y4111120D01*
X7942219Y4112046D01*
X7941478Y4112787D01*
X7940923Y4113342D01*
X7940738Y4113713D01*
X7940553Y4113898D01*
X7937405Y4118157D01*
X7934812Y4122601D01*
X7932590Y4126859D01*
X7930924Y4130933D01*
X7929628Y4134451D01*
X7929072Y4135933D01*
X7928702Y4137229D01*
X7928332Y4138155D01*
X7928146Y4139080D01*
X7927961Y4139451D01*
Y4139636D01*
X7927221Y4142599D01*
X7926665Y4146117D01*
X7926110Y4150005D01*
X7925739Y4154079D01*
X7925369Y4158523D01*
X7924999Y4162967D01*
X7924258Y4171670D01*
X7924073Y4175928D01*
X7923888Y4179817D01*
Y4183335D01*
X7923702Y4186483D01*
X7923517Y4188890D01*
Y4190927D01*
Y4191668D01*
Y4192223D01*
Y4192408D01*
Y4192593D01*
Y4193149D01*
X7923332Y4193890D01*
Y4194630D01*
Y4195000D01*
X7915000Y4317395D01*
X7992214D01*
X7992955Y4317025D01*
X7993695Y4316099D01*
X7994251Y4314618D01*
X7994806Y4312766D01*
X7995362Y4310359D01*
X7995732Y4307952D01*
X7996473Y4302397D01*
X7997028Y4296842D01*
X7997213Y4294435D01*
X7997399Y4292027D01*
Y4290176D01*
X7997584Y4288694D01*
Y4287769D01*
Y4287398D01*
X7998139Y4277029D01*
X7998695Y4266475D01*
X7998880Y4261290D01*
X7999250Y4256290D01*
X7999621Y4251476D01*
X7999806Y4247032D01*
X8000176Y4242773D01*
X8000361Y4238885D01*
X8000546Y4235552D01*
X8000732Y4232589D01*
X8000917Y4230367D01*
Y4228516D01*
X8001102Y4227405D01*
Y4227219D01*
Y4227034D01*
X8001472Y4220183D01*
X8002028Y4213887D01*
X8002398Y4208332D01*
X8002768Y4203148D01*
X8003139Y4198704D01*
X8003324Y4194630D01*
X8003694Y4191112D01*
X8003879Y4188149D01*
X8004250Y4185557D01*
X8004435Y4183335D01*
X8004620Y4181669D01*
X8004805Y4180187D01*
Y4179261D01*
X8004990Y4178521D01*
Y4178150D01*
Y4177965D01*
X8005546Y4174262D01*
X8006101Y4170929D01*
X8006657Y4168151D01*
X8007212Y4165929D01*
X8007768Y4164078D01*
X8008138Y4162782D01*
X8008323Y4162041D01*
X8008508Y4161856D01*
X8009619Y4159078D01*
X8010730Y4156301D01*
X8011841Y4153894D01*
X8012952Y4151672D01*
X8013878Y4149820D01*
X8014619Y4148339D01*
X8014989Y4147598D01*
X8015174Y4147228D01*
X8016100Y4146672D01*
X8017026Y4145932D01*
X8019063Y4144450D01*
X8019804Y4143895D01*
X8020544Y4143339D01*
X8021100Y4142969D01*
X8021285Y4142784D01*
X8022396Y4142043D01*
X8023322Y4141302D01*
X8024433Y4140191D01*
X8025173Y4139451D01*
X8025359Y4139266D01*
X8029247Y4138525D01*
X8032580Y4137969D01*
X8035728Y4137599D01*
X8038320Y4137414D01*
X8040357Y4137229D01*
X8042024Y4137044D01*
X8043320D01*
X8046468Y4137229D01*
X8049615Y4137414D01*
X8052393Y4137784D01*
X8054800Y4138340D01*
X8056837Y4138895D01*
X8058503Y4139266D01*
X8059429Y4139451D01*
X8059799Y4139636D01*
X8062577Y4140747D01*
X8064984Y4142043D01*
X8067021Y4143339D01*
X8068873Y4144635D01*
X8070169Y4145746D01*
X8071280Y4146672D01*
X8071835Y4147413D01*
X8072020Y4147598D01*
X8073502Y4149635D01*
X8074798Y4151857D01*
X8075724Y4154079D01*
X8076650Y4156116D01*
X8077205Y4157967D01*
X8077575Y4159449D01*
X8077946Y4160374D01*
Y4160745D01*
X8078501Y4163893D01*
X8078872Y4167411D01*
X8079242Y4170744D01*
X8079427Y4174077D01*
Y4176854D01*
X8079612Y4178150D01*
Y4179261D01*
Y4180002D01*
Y4180743D01*
Y4181113D01*
Y4181298D01*
Y4182780D01*
Y4184631D01*
X8079427Y4188335D01*
Y4192408D01*
X8079242Y4196482D01*
X8079057Y4200000D01*
Y4201666D01*
Y4202963D01*
X8078872Y4204074D01*
Y4204999D01*
Y4205555D01*
Y4205740D01*
X8078501Y4212221D01*
X8078131Y4218702D01*
X8077761Y4224812D01*
X8077575Y4227775D01*
X8077390Y4230552D01*
Y4233145D01*
X8077205Y4235552D01*
X8077020Y4237589D01*
X8076835Y4239440D01*
Y4240737D01*
X8076650Y4241847D01*
Y4242588D01*
Y4242773D01*
X8071465Y4317580D01*
X8079612Y4317395D01*
D02*
G37*
G36*
X9590011Y4318136D02*
X9596122D01*
X9602047Y4317951D01*
X9604639D01*
X9607232Y4317766D01*
X9611305D01*
X9612787Y4317580D01*
X9615009D01*
X9619082Y4317395D01*
X9622971D01*
X9626674Y4317210D01*
X9630192D01*
X9633525Y4317025D01*
X9641673D01*
X9644080Y4316840D01*
X9657782D01*
X9664448Y4317025D01*
X9670929D01*
X9677039Y4317210D01*
X9680002D01*
X9682594Y4317395D01*
X9686853D01*
X9688520Y4317580D01*
X9690742D01*
Y4314062D01*
Y4310729D01*
Y4307581D01*
X9690556Y4304989D01*
Y4302397D01*
Y4300175D01*
Y4298138D01*
Y4296471D01*
Y4294990D01*
Y4293694D01*
Y4292583D01*
Y4291842D01*
Y4291102D01*
Y4290731D01*
Y4290361D01*
Y4286843D01*
Y4283510D01*
Y4280177D01*
Y4277399D01*
X9690742Y4274992D01*
Y4273141D01*
Y4272400D01*
Y4271844D01*
Y4271659D01*
Y4271474D01*
X9692408Y4212591D01*
X9696852Y4128896D01*
X9700000Y4082420D01*
X9685001D01*
X9680928Y4082605D01*
X9661856D01*
X9625008Y4082420D01*
Y4107602D01*
Y4109269D01*
Y4111305D01*
Y4113527D01*
X9624823Y4115935D01*
Y4118712D01*
Y4121490D01*
X9624637Y4127785D01*
X9624452Y4134636D01*
X9624267Y4141858D01*
X9624082Y4149264D01*
X9623897Y4156671D01*
X9623712Y4163893D01*
X9623526Y4170744D01*
Y4177039D01*
X9623341Y4179817D01*
Y4182594D01*
X9623156Y4185002D01*
Y4187224D01*
Y4189075D01*
X9622971Y4190742D01*
Y4192038D01*
Y4192964D01*
Y4193519D01*
Y4193704D01*
X9622786Y4200926D01*
X9622601Y4207777D01*
X9622230Y4214443D01*
X9622045Y4220924D01*
X9621675Y4226849D01*
X9621490Y4232589D01*
X9621304Y4237774D01*
X9620934Y4242588D01*
X9620749Y4246847D01*
X9620564Y4250735D01*
X9620379Y4254068D01*
X9620193Y4256846D01*
X9620008Y4259068D01*
X9619823Y4260734D01*
Y4261660D01*
Y4262031D01*
X9608713Y4262956D01*
X9606306Y4263142D01*
X9604084D01*
X9602047Y4263327D01*
X9596492D01*
X9592604Y4263142D01*
X9590937Y4262956D01*
X9589456D01*
X9588160Y4262771D01*
X9587234Y4262586D01*
X9586678Y4262401D01*
X9586493D01*
X9583345Y4261660D01*
X9582049Y4261105D01*
X9580938Y4260549D01*
X9580012Y4259994D01*
X9579272Y4259623D01*
X9578901Y4259438D01*
X9578716Y4259253D01*
X9576494Y4257401D01*
X9575013Y4255550D01*
X9574457Y4254624D01*
X9574087Y4253883D01*
X9573902Y4253513D01*
Y4253328D01*
X9572976Y4250365D01*
X9572421Y4247773D01*
X9572235Y4246477D01*
Y4245551D01*
Y4244995D01*
Y4244810D01*
X9572606Y4241107D01*
X9573346Y4237774D01*
X9574643Y4234811D01*
X9575939Y4232219D01*
X9577235Y4230182D01*
X9578531Y4228701D01*
X9579272Y4227775D01*
X9579642Y4227405D01*
X9581123Y4226108D01*
X9582605Y4224997D01*
X9586123Y4223331D01*
X9590011Y4222035D01*
X9593715Y4221294D01*
X9597048Y4220739D01*
X9598529Y4220553D01*
X9599640D01*
X9600751Y4220368D01*
X9605380D01*
X9608528Y4220553D01*
X9611676Y4220924D01*
X9614638Y4221294D01*
X9617231Y4221479D01*
X9619268Y4221850D01*
X9620008D01*
X9620564Y4222035D01*
X9621119D01*
X9620193Y4217591D01*
X9619268Y4213147D01*
X9618342Y4208703D01*
X9617231Y4204444D01*
X9616860Y4202592D01*
X9616490Y4200926D01*
X9616120Y4199259D01*
X9615749Y4197963D01*
X9615564Y4196852D01*
X9615379Y4196111D01*
X9615194Y4195556D01*
Y4195371D01*
X9613898Y4190001D01*
X9612787Y4185002D01*
X9611861Y4180743D01*
X9610935Y4177039D01*
X9610750Y4175373D01*
X9610380Y4174077D01*
X9610194Y4172781D01*
X9610009Y4171855D01*
X9609824Y4171114D01*
X9609639Y4170559D01*
Y4170188D01*
Y4170003D01*
X9604454Y4169262D01*
X9599825Y4168707D01*
X9595751Y4168151D01*
X9592418Y4167966D01*
X9589456Y4167781D01*
X9588345Y4167596D01*
X9585752D01*
X9580938Y4167781D01*
X9576494Y4167966D01*
X9572050Y4168522D01*
X9567791Y4169077D01*
X9563718Y4169818D01*
X9560014Y4170559D01*
X9556496Y4171484D01*
X9553163Y4172410D01*
X9550201Y4173151D01*
X9547608Y4174077D01*
X9545386Y4174817D01*
X9543349Y4175558D01*
X9541868Y4176114D01*
X9540757Y4176669D01*
X9540016Y4176854D01*
X9539831Y4177039D01*
X9536128Y4178891D01*
X9532610Y4181113D01*
X9529277Y4183335D01*
X9526129Y4185742D01*
X9523352Y4187964D01*
X9520574Y4190557D01*
X9518352Y4192779D01*
X9516130Y4195186D01*
X9514093Y4197408D01*
X9512427Y4199444D01*
X9511131Y4201296D01*
X9509834Y4202963D01*
X9508909Y4204259D01*
X9508353Y4205185D01*
X9507983Y4205925D01*
X9507798Y4206110D01*
X9505761Y4209814D01*
X9504094Y4213517D01*
X9502428Y4217220D01*
X9501132Y4220924D01*
X9500021Y4224627D01*
X9499095Y4228145D01*
X9498354Y4231663D01*
X9497799Y4234811D01*
X9497243Y4237774D01*
X9496873Y4240551D01*
X9496688Y4242958D01*
X9496502Y4244995D01*
X9496317Y4246662D01*
Y4247773D01*
Y4248699D01*
Y4248884D01*
X9496502Y4252957D01*
X9496873Y4257031D01*
X9497243Y4260734D01*
X9497799Y4264067D01*
X9498539Y4266845D01*
X9498724Y4268141D01*
X9498910Y4269067D01*
X9499095Y4269808D01*
X9499280Y4270363D01*
X9499465Y4270733D01*
Y4270919D01*
X9500761Y4274992D01*
X9502057Y4278696D01*
X9503724Y4282029D01*
X9505020Y4284991D01*
X9506501Y4287398D01*
X9507612Y4289250D01*
X9507983Y4289805D01*
X9508353Y4290361D01*
X9508538Y4290546D01*
Y4290731D01*
X9510945Y4293879D01*
X9513353Y4296842D01*
X9515945Y4299249D01*
X9518352Y4301471D01*
X9520389Y4303323D01*
X9522241Y4304619D01*
X9523352Y4305359D01*
X9523537Y4305730D01*
X9523722D01*
X9527240Y4307952D01*
X9530758Y4309989D01*
X9534276Y4311655D01*
X9537424Y4312951D01*
X9540202Y4313877D01*
X9541313Y4314247D01*
X9542424Y4314618D01*
X9543164Y4314803D01*
X9543720Y4314988D01*
X9544090Y4315173D01*
X9544275D01*
X9546497Y4315729D01*
X9549090Y4316284D01*
X9554459Y4317025D01*
X9560014Y4317580D01*
X9565569Y4317951D01*
X9568162Y4318136D01*
X9570569D01*
X9572791Y4318321D01*
X9584086D01*
X9590011Y4318136D01*
D02*
G37*
G36*
X9372626D02*
X9378737D01*
X9381700Y4317951D01*
X9386884D01*
X9389106Y4317766D01*
X9392810D01*
X9394291Y4317580D01*
X9396142D01*
X9403179Y4317395D01*
X9409474Y4317210D01*
X9412437Y4317025D01*
X9420214D01*
X9422436Y4316840D01*
X9435953D01*
X9442249Y4317025D01*
X9448359D01*
X9454285Y4317210D01*
X9456877D01*
X9459469Y4317395D01*
X9463543D01*
X9465024Y4317580D01*
X9467246D01*
Y4312951D01*
Y4308137D01*
X9467431Y4298323D01*
Y4288509D01*
X9467617Y4283880D01*
Y4279251D01*
Y4275177D01*
X9467802Y4271289D01*
Y4267771D01*
Y4264808D01*
X9467987Y4262401D01*
Y4260549D01*
Y4259994D01*
Y4259438D01*
Y4259253D01*
Y4259068D01*
X9468172Y4246477D01*
X9468357Y4240366D01*
X9468542Y4234441D01*
X9468728Y4228701D01*
X9468913Y4223331D01*
X9469098Y4218331D01*
X9469283Y4213517D01*
Y4209258D01*
X9469468Y4205370D01*
X9469653Y4202037D01*
X9469839Y4199074D01*
Y4196852D01*
X9470024Y4195186D01*
Y4194075D01*
Y4193704D01*
X9470209Y4187964D01*
X9470579Y4182409D01*
X9470764Y4177225D01*
X9471135Y4172225D01*
X9471320Y4167411D01*
X9471505Y4162967D01*
X9471875Y4158708D01*
X9472061Y4154819D01*
X9472246Y4151486D01*
X9472431Y4148339D01*
X9472616Y4145746D01*
X9472801Y4143339D01*
X9472986Y4141673D01*
X9473172Y4140377D01*
Y4139451D01*
Y4139266D01*
X9473542Y4134822D01*
X9473912Y4130192D01*
X9474653Y4120564D01*
X9475394Y4111120D01*
X9475764Y4106491D01*
X9476134Y4102047D01*
X9476505Y4097974D01*
X9476875Y4094270D01*
X9477245Y4090937D01*
X9477430Y4087975D01*
X9477616Y4085753D01*
X9477801Y4083901D01*
X9477986Y4082790D01*
Y4082605D01*
Y4082420D01*
X9463728D01*
X9459840Y4082605D01*
X9416696D01*
X9413363Y4082420D01*
X9400031D01*
X9399846Y4101307D01*
X9399661Y4110565D01*
X9399475Y4119453D01*
X9399290Y4127970D01*
X9399105Y4136303D01*
X9398920Y4144080D01*
X9398735Y4151301D01*
X9398550Y4157967D01*
X9398364Y4164078D01*
Y4166670D01*
X9398179Y4169262D01*
Y4171670D01*
X9397994Y4173706D01*
Y4175743D01*
Y4177410D01*
Y4178891D01*
X9397809Y4180002D01*
Y4180928D01*
Y4181669D01*
Y4182039D01*
Y4182224D01*
X9397439Y4191297D01*
X9397253Y4199815D01*
X9396883Y4207962D01*
X9396513Y4215554D01*
X9396142Y4222775D01*
X9395957Y4229256D01*
X9395587Y4235367D01*
X9395402Y4240922D01*
X9395032Y4245736D01*
X9394846Y4250180D01*
X9394661Y4253883D01*
X9394476Y4257031D01*
X9394291Y4259438D01*
X9394106Y4261105D01*
Y4262216D01*
Y4262586D01*
X9390032Y4262771D01*
X9386329D01*
X9384847Y4262956D01*
X9382625D01*
X9377996Y4263142D01*
X9375959Y4263327D01*
X9367627D01*
X9364849Y4263142D01*
X9362257D01*
X9359850Y4262956D01*
X9357628Y4262771D01*
X9355591Y4262586D01*
X9353925Y4262401D01*
X9352258Y4262216D01*
X9350962Y4261845D01*
X9349666Y4261660D01*
X9348740Y4261475D01*
X9347999Y4261290D01*
X9346888Y4261105D01*
X9346518Y4260920D01*
X9343926Y4259994D01*
X9341704Y4258883D01*
X9339852Y4257587D01*
X9338371Y4256476D01*
X9337260Y4255550D01*
X9336334Y4254624D01*
X9335964Y4254068D01*
X9335778Y4253883D01*
X9334667Y4252032D01*
X9333927Y4250365D01*
X9333186Y4248513D01*
X9332816Y4246847D01*
X9332631Y4245366D01*
X9332445Y4244255D01*
Y4243514D01*
Y4243329D01*
X9332631Y4240551D01*
X9333186Y4237959D01*
X9333927Y4235552D01*
X9334667Y4233515D01*
X9335593Y4231663D01*
X9336334Y4230182D01*
X9336889Y4229441D01*
X9337075Y4229071D01*
X9338926Y4226664D01*
X9340963Y4224627D01*
X9343370Y4222775D01*
X9345407Y4221479D01*
X9347444Y4220368D01*
X9349110Y4219442D01*
X9350221Y4219072D01*
X9350406Y4218887D01*
X9350592D01*
X9354110Y4217776D01*
X9357628Y4217035D01*
X9361146Y4216295D01*
X9364294Y4215924D01*
X9367071Y4215739D01*
X9368182D01*
X9369293Y4215554D01*
X9374478D01*
X9378181Y4215924D01*
X9381700Y4216109D01*
X9385033Y4216480D01*
X9387995Y4216850D01*
X9389291Y4217035D01*
X9390402D01*
X9391143Y4217220D01*
X9391884Y4217406D01*
X9392439D01*
X9372812Y4162967D01*
X9371701Y4159263D01*
X9370590Y4155745D01*
X9369664Y4152597D01*
X9368738Y4149635D01*
X9367997Y4146857D01*
X9367071Y4144450D01*
X9366516Y4142228D01*
X9365775Y4140191D01*
X9365220Y4138340D01*
X9364664Y4136858D01*
X9364294Y4135562D01*
X9363924Y4134451D01*
X9363738Y4133711D01*
X9363553Y4133155D01*
X9363368Y4132785D01*
Y4132600D01*
X9362627Y4130192D01*
X9361702Y4127600D01*
X9360776Y4124637D01*
X9359850Y4121860D01*
X9359109Y4119453D01*
X9358369Y4117231D01*
X9358183Y4116490D01*
X9357998Y4115935D01*
X9357813Y4115564D01*
Y4115379D01*
X9356702Y4111491D01*
X9355591Y4107787D01*
X9354480Y4104269D01*
X9353554Y4100936D01*
X9352628Y4097974D01*
X9351888Y4095381D01*
X9351147Y4092974D01*
X9350406Y4090752D01*
X9349851Y4088715D01*
X9349481Y4087049D01*
X9348925Y4085753D01*
X9348555Y4084456D01*
X9348370Y4083531D01*
X9348185Y4082975D01*
X9347999Y4082605D01*
Y4082420D01*
X9333001D01*
X9328742Y4082605D01*
X9281895D01*
X9278747Y4082420D01*
X9265230D01*
X9265971Y4084827D01*
X9266711Y4087049D01*
X9267267Y4088900D01*
X9267822Y4090567D01*
X9268193Y4092048D01*
X9268748Y4093159D01*
X9269119Y4094270D01*
X9269489Y4095196D01*
X9270044Y4096492D01*
X9270415Y4097233D01*
X9270600Y4097603D01*
Y4097788D01*
X9293375Y4148709D01*
X9294857Y4152042D01*
X9296338Y4155190D01*
X9297634Y4158338D01*
X9298745Y4161115D01*
X9299671Y4163337D01*
X9300412Y4165189D01*
X9300782Y4165744D01*
X9300967Y4166300D01*
X9301152Y4166485D01*
Y4166670D01*
X9309670Y4184631D01*
X9304300Y4186668D01*
X9299486Y4188705D01*
X9295227Y4190742D01*
X9291709Y4192593D01*
X9290228Y4193334D01*
X9288931Y4194075D01*
X9287820Y4194815D01*
X9286709Y4195371D01*
X9285969Y4195926D01*
X9285413Y4196111D01*
X9285228Y4196482D01*
X9285043D01*
X9281525Y4199074D01*
X9278377Y4201666D01*
X9275785Y4204259D01*
X9273377Y4206851D01*
X9271526Y4208888D01*
X9270044Y4210554D01*
X9269304Y4211665D01*
X9268933Y4211851D01*
Y4212036D01*
X9266711Y4215554D01*
X9264675Y4218887D01*
X9263008Y4222220D01*
X9261712Y4225183D01*
X9260786Y4227775D01*
X9260045Y4229812D01*
X9259860Y4230552D01*
X9259675Y4231108D01*
X9259490Y4231293D01*
Y4231478D01*
X9258379Y4235552D01*
X9257638Y4239440D01*
X9257083Y4243144D01*
X9256713Y4246477D01*
X9256527Y4249439D01*
X9256342Y4250735D01*
Y4251661D01*
Y4252587D01*
Y4253143D01*
Y4253513D01*
Y4253698D01*
X9256527Y4257587D01*
X9256713Y4261105D01*
X9257268Y4264438D01*
X9257638Y4267400D01*
X9258194Y4269808D01*
X9258749Y4271659D01*
X9258934Y4272400D01*
Y4272955D01*
X9259120Y4273141D01*
Y4273326D01*
X9260231Y4276659D01*
X9261527Y4279807D01*
X9262823Y4282584D01*
X9264119Y4284991D01*
X9265230Y4286843D01*
X9266156Y4288324D01*
X9266897Y4289250D01*
X9267082Y4289620D01*
X9269119Y4292213D01*
X9271155Y4294620D01*
X9273192Y4296657D01*
X9275229Y4298508D01*
X9276896Y4300175D01*
X9278192Y4301286D01*
X9279118Y4302026D01*
X9279488Y4302212D01*
X9282451Y4304248D01*
X9285413Y4306100D01*
X9288561Y4307581D01*
X9291339Y4308878D01*
X9293931Y4309989D01*
X9295783Y4310729D01*
X9296523Y4311100D01*
X9297079Y4311285D01*
X9297449Y4311470D01*
X9297634D01*
X9301708Y4312766D01*
X9305596Y4313877D01*
X9309485Y4314803D01*
X9313003Y4315358D01*
X9316151Y4315914D01*
X9317447Y4316099D01*
X9318558Y4316284D01*
X9319299D01*
X9320039Y4316469D01*
X9320595D01*
X9327446Y4317025D01*
X9334297Y4317580D01*
X9340963Y4317951D01*
X9343926D01*
X9346888Y4318136D01*
X9349666D01*
X9352073Y4318321D01*
X9366331D01*
X9372626Y4318136D01*
D02*
G37*
G36*
X8803982D02*
X8810092D01*
X8813055Y4317951D01*
X8818239D01*
X8820461Y4317766D01*
X8824165D01*
X8825646Y4317580D01*
X8827498D01*
X8834534Y4317395D01*
X8840830Y4317210D01*
X8843792Y4317025D01*
X8851569D01*
X8853791Y4316840D01*
X8867308D01*
X8873604Y4317025D01*
X8879715D01*
X8885640Y4317210D01*
X8888232D01*
X8890824Y4317395D01*
X8894898D01*
X8896379Y4317580D01*
X8898601D01*
Y4312951D01*
Y4308137D01*
X8898787Y4298323D01*
Y4288509D01*
X8898972Y4283880D01*
Y4279251D01*
Y4275177D01*
X8899157Y4271289D01*
Y4267771D01*
Y4264808D01*
X8899342Y4262401D01*
Y4260549D01*
Y4259994D01*
Y4259438D01*
Y4259253D01*
Y4259068D01*
X8899527Y4246477D01*
X8899712Y4240366D01*
X8899898Y4234441D01*
X8900083Y4228701D01*
X8900268Y4223331D01*
X8900453Y4218331D01*
X8900638Y4213517D01*
Y4209258D01*
X8900823Y4205370D01*
X8901009Y4202037D01*
X8901194Y4199074D01*
Y4196852D01*
X8901379Y4195186D01*
Y4194075D01*
Y4193704D01*
X8901564Y4187964D01*
X8901934Y4182409D01*
X8902120Y4177225D01*
X8902490Y4172225D01*
X8902675Y4167411D01*
X8902860Y4162967D01*
X8903231Y4158708D01*
X8903416Y4154819D01*
X8903601Y4151486D01*
X8903786Y4148339D01*
X8903971Y4145746D01*
X8904156Y4143339D01*
X8904342Y4141673D01*
X8904527Y4140377D01*
Y4139451D01*
Y4139266D01*
X8904897Y4134822D01*
X8905267Y4130192D01*
X8906008Y4120564D01*
X8906749Y4111120D01*
X8907119Y4106491D01*
X8907489Y4102047D01*
X8907860Y4097974D01*
X8908230Y4094270D01*
X8908600Y4090937D01*
X8908786Y4087975D01*
X8908971Y4085753D01*
X8909156Y4083901D01*
X8909341Y4082790D01*
Y4082605D01*
Y4082420D01*
X8895083D01*
X8891195Y4082605D01*
X8848051D01*
X8844718Y4082420D01*
X8831386D01*
X8831201Y4101307D01*
X8831016Y4110565D01*
X8830831Y4119453D01*
X8830646Y4127970D01*
X8830460Y4136303D01*
X8830275Y4144080D01*
X8830090Y4151301D01*
X8829905Y4157967D01*
X8829720Y4164078D01*
Y4166670D01*
X8829535Y4169262D01*
Y4171670D01*
X8829349Y4173706D01*
Y4175743D01*
Y4177410D01*
Y4178891D01*
X8829164Y4180002D01*
Y4180928D01*
Y4181669D01*
Y4182039D01*
Y4182224D01*
X8828794Y4191297D01*
X8828609Y4199815D01*
X8828238Y4207962D01*
X8827868Y4215554D01*
X8827498Y4222775D01*
X8827313Y4229256D01*
X8826942Y4235367D01*
X8826757Y4240922D01*
X8826387Y4245736D01*
X8826202Y4250180D01*
X8826016Y4253883D01*
X8825831Y4257031D01*
X8825646Y4259438D01*
X8825461Y4261105D01*
Y4262216D01*
Y4262586D01*
X8821387Y4262771D01*
X8817684D01*
X8816203Y4262956D01*
X8813981D01*
X8809351Y4263142D01*
X8807315Y4263327D01*
X8798982D01*
X8796205Y4263142D01*
X8793612D01*
X8791205Y4262956D01*
X8788983Y4262771D01*
X8786946Y4262586D01*
X8785280Y4262401D01*
X8783613Y4262216D01*
X8782317Y4261845D01*
X8781021Y4261660D01*
X8780095Y4261475D01*
X8779355Y4261290D01*
X8778244Y4261105D01*
X8777873Y4260920D01*
X8775281Y4259994D01*
X8773059Y4258883D01*
X8771207Y4257587D01*
X8769726Y4256476D01*
X8768615Y4255550D01*
X8767689Y4254624D01*
X8767319Y4254068D01*
X8767134Y4253883D01*
X8766023Y4252032D01*
X8765282Y4250365D01*
X8764541Y4248513D01*
X8764171Y4246847D01*
X8763986Y4245366D01*
X8763801Y4244255D01*
Y4243514D01*
Y4243329D01*
X8763986Y4240551D01*
X8764541Y4237959D01*
X8765282Y4235552D01*
X8766023Y4233515D01*
X8766948Y4231663D01*
X8767689Y4230182D01*
X8768245Y4229441D01*
X8768430Y4229071D01*
X8770281Y4226664D01*
X8772318Y4224627D01*
X8774725Y4222775D01*
X8776762Y4221479D01*
X8778799Y4220368D01*
X8780466Y4219442D01*
X8781577Y4219072D01*
X8781762Y4218887D01*
X8781947D01*
X8785465Y4217776D01*
X8788983Y4217035D01*
X8792501Y4216295D01*
X8795649Y4215924D01*
X8798427Y4215739D01*
X8799538D01*
X8800649Y4215554D01*
X8805833D01*
X8809537Y4215924D01*
X8813055Y4216109D01*
X8816388Y4216480D01*
X8819350Y4216850D01*
X8820647Y4217035D01*
X8821758D01*
X8822498Y4217220D01*
X8823239Y4217406D01*
X8823794D01*
X8804167Y4162967D01*
X8803056Y4159263D01*
X8801945Y4155745D01*
X8801019Y4152597D01*
X8800093Y4149635D01*
X8799352Y4146857D01*
X8798427Y4144450D01*
X8797871Y4142228D01*
X8797130Y4140191D01*
X8796575Y4138340D01*
X8796019Y4136858D01*
X8795649Y4135562D01*
X8795279Y4134451D01*
X8795094Y4133711D01*
X8794908Y4133155D01*
X8794723Y4132785D01*
Y4132600D01*
X8793983Y4130192D01*
X8793057Y4127600D01*
X8792131Y4124637D01*
X8791205Y4121860D01*
X8790465Y4119453D01*
X8789724Y4117231D01*
X8789539Y4116490D01*
X8789354Y4115935D01*
X8789168Y4115564D01*
Y4115379D01*
X8788057Y4111491D01*
X8786946Y4107787D01*
X8785835Y4104269D01*
X8784910Y4100936D01*
X8783984Y4097974D01*
X8783243Y4095381D01*
X8782502Y4092974D01*
X8781762Y4090752D01*
X8781206Y4088715D01*
X8780836Y4087049D01*
X8780280Y4085753D01*
X8779910Y4084456D01*
X8779725Y4083531D01*
X8779540Y4082975D01*
X8779355Y4082605D01*
Y4082420D01*
X8764356D01*
X8760097Y4082605D01*
X8713250D01*
X8710102Y4082420D01*
X8696585D01*
X8697326Y4084827D01*
X8698067Y4087049D01*
X8698622Y4088900D01*
X8699178Y4090567D01*
X8699548Y4092048D01*
X8700104Y4093159D01*
X8700474Y4094270D01*
X8700844Y4095196D01*
X8701400Y4096492D01*
X8701770Y4097233D01*
X8701955Y4097603D01*
Y4097788D01*
X8724731Y4148709D01*
X8726212Y4152042D01*
X8727693Y4155190D01*
X8728989Y4158338D01*
X8730100Y4161115D01*
X8731026Y4163337D01*
X8731767Y4165189D01*
X8732137Y4165744D01*
X8732322Y4166300D01*
X8732508Y4166485D01*
Y4166670D01*
X8741025Y4184631D01*
X8735655Y4186668D01*
X8730841Y4188705D01*
X8726582Y4190742D01*
X8723064Y4192593D01*
X8721583Y4193334D01*
X8720287Y4194075D01*
X8719176Y4194815D01*
X8718065Y4195371D01*
X8717324Y4195926D01*
X8716768Y4196111D01*
X8716583Y4196482D01*
X8716398D01*
X8712880Y4199074D01*
X8709732Y4201666D01*
X8707140Y4204259D01*
X8704733Y4206851D01*
X8702881Y4208888D01*
X8701400Y4210554D01*
X8700659Y4211665D01*
X8700289Y4211851D01*
Y4212036D01*
X8698067Y4215554D01*
X8696030Y4218887D01*
X8694363Y4222220D01*
X8693067Y4225183D01*
X8692141Y4227775D01*
X8691401Y4229812D01*
X8691216Y4230552D01*
X8691030Y4231108D01*
X8690845Y4231293D01*
Y4231478D01*
X8689734Y4235552D01*
X8688994Y4239440D01*
X8688438Y4243144D01*
X8688068Y4246477D01*
X8687883Y4249439D01*
X8687697Y4250735D01*
Y4251661D01*
Y4252587D01*
Y4253143D01*
Y4253513D01*
Y4253698D01*
X8687883Y4257587D01*
X8688068Y4261105D01*
X8688623Y4264438D01*
X8688994Y4267400D01*
X8689549Y4269808D01*
X8690105Y4271659D01*
X8690290Y4272400D01*
Y4272955D01*
X8690475Y4273141D01*
Y4273326D01*
X8691586Y4276659D01*
X8692882Y4279807D01*
X8694178Y4282584D01*
X8695474Y4284991D01*
X8696585Y4286843D01*
X8697511Y4288324D01*
X8698252Y4289250D01*
X8698437Y4289620D01*
X8700474Y4292213D01*
X8702511Y4294620D01*
X8704547Y4296657D01*
X8706584Y4298508D01*
X8708251Y4300175D01*
X8709547Y4301286D01*
X8710473Y4302026D01*
X8710843Y4302212D01*
X8713806Y4304248D01*
X8716768Y4306100D01*
X8719916Y4307581D01*
X8722694Y4308878D01*
X8725286Y4309989D01*
X8727138Y4310729D01*
X8727878Y4311100D01*
X8728434Y4311285D01*
X8728804Y4311470D01*
X8728989D01*
X8733063Y4312766D01*
X8736952Y4313877D01*
X8740840Y4314803D01*
X8744358Y4315358D01*
X8747506Y4315914D01*
X8748802Y4316099D01*
X8749913Y4316284D01*
X8750654D01*
X8751394Y4316469D01*
X8751950D01*
X8758801Y4317025D01*
X8765652Y4317580D01*
X8772318Y4317951D01*
X8775281D01*
X8778244Y4318136D01*
X8781021D01*
X8783428Y4318321D01*
X8797686D01*
X8803982Y4318136D01*
D02*
G37*
G36*
X6770674D02*
X6776784D01*
X6779747Y4317951D01*
X6784932D01*
X6787154Y4317766D01*
X6790857D01*
X6792338Y4317580D01*
X6794190D01*
X6801226Y4317395D01*
X6807522Y4317210D01*
X6810484Y4317025D01*
X6818261D01*
X6820483Y4316840D01*
X6834001D01*
X6840296Y4317025D01*
X6846407D01*
X6852332Y4317210D01*
X6854924D01*
X6857517Y4317395D01*
X6861590D01*
X6863072Y4317580D01*
X6865294D01*
Y4312951D01*
Y4308137D01*
X6865479Y4298323D01*
Y4288509D01*
X6865664Y4283880D01*
Y4279251D01*
Y4275177D01*
X6865849Y4271289D01*
Y4267771D01*
Y4264808D01*
X6866034Y4262401D01*
Y4260549D01*
Y4259994D01*
Y4259438D01*
Y4259253D01*
Y4259068D01*
X6866219Y4246477D01*
X6866405Y4240366D01*
X6866590Y4234441D01*
X6866775Y4228701D01*
X6866960Y4223331D01*
X6867145Y4218331D01*
X6867330Y4213517D01*
Y4209258D01*
X6867516Y4205370D01*
X6867701Y4202037D01*
X6867886Y4199074D01*
Y4196852D01*
X6868071Y4195186D01*
Y4194075D01*
Y4193704D01*
X6868256Y4187964D01*
X6868627Y4182409D01*
X6868812Y4177225D01*
X6869182Y4172225D01*
X6869367Y4167411D01*
X6869552Y4162967D01*
X6869923Y4158708D01*
X6870108Y4154819D01*
X6870293Y4151486D01*
X6870478Y4148339D01*
X6870663Y4145746D01*
X6870849Y4143339D01*
X6871034Y4141673D01*
X6871219Y4140377D01*
Y4139451D01*
Y4139266D01*
X6871589Y4134822D01*
X6871960Y4130192D01*
X6872700Y4120564D01*
X6873441Y4111120D01*
X6873811Y4106491D01*
X6874182Y4102047D01*
X6874552Y4097974D01*
X6874922Y4094270D01*
X6875293Y4090937D01*
X6875478Y4087975D01*
X6875663Y4085753D01*
X6875848Y4083901D01*
X6876033Y4082790D01*
Y4082605D01*
Y4082420D01*
X6861775D01*
X6857887Y4082605D01*
X6814743D01*
X6811410Y4082420D01*
X6798078D01*
X6797893Y4101307D01*
X6797708Y4110565D01*
X6797523Y4119453D01*
X6797338Y4127970D01*
X6797153Y4136303D01*
X6796967Y4144080D01*
X6796782Y4151301D01*
X6796597Y4157967D01*
X6796412Y4164078D01*
Y4166670D01*
X6796227Y4169262D01*
Y4171670D01*
X6796042Y4173706D01*
Y4175743D01*
Y4177410D01*
Y4178891D01*
X6795856Y4180002D01*
Y4180928D01*
Y4181669D01*
Y4182039D01*
Y4182224D01*
X6795486Y4191297D01*
X6795301Y4199815D01*
X6794931Y4207962D01*
X6794560Y4215554D01*
X6794190Y4222775D01*
X6794005Y4229256D01*
X6793634Y4235367D01*
X6793449Y4240922D01*
X6793079Y4245736D01*
X6792894Y4250180D01*
X6792709Y4253883D01*
X6792523Y4257031D01*
X6792338Y4259438D01*
X6792153Y4261105D01*
Y4262216D01*
Y4262586D01*
X6788079Y4262771D01*
X6784376D01*
X6782895Y4262956D01*
X6780673D01*
X6776044Y4263142D01*
X6774007Y4263327D01*
X6765674D01*
X6762897Y4263142D01*
X6760304D01*
X6757897Y4262956D01*
X6755675Y4262771D01*
X6753639Y4262586D01*
X6751972Y4262401D01*
X6750306Y4262216D01*
X6749009Y4261845D01*
X6747713Y4261660D01*
X6746787Y4261475D01*
X6746047Y4261290D01*
X6744936Y4261105D01*
X6744565Y4260920D01*
X6741973Y4259994D01*
X6739751Y4258883D01*
X6737899Y4257587D01*
X6736418Y4256476D01*
X6735307Y4255550D01*
X6734381Y4254624D01*
X6734011Y4254068D01*
X6733826Y4253883D01*
X6732715Y4252032D01*
X6731974Y4250365D01*
X6731233Y4248513D01*
X6730863Y4246847D01*
X6730678Y4245366D01*
X6730493Y4244255D01*
Y4243514D01*
Y4243329D01*
X6730678Y4240551D01*
X6731233Y4237959D01*
X6731974Y4235552D01*
X6732715Y4233515D01*
X6733641Y4231663D01*
X6734381Y4230182D01*
X6734937Y4229441D01*
X6735122Y4229071D01*
X6736974Y4226664D01*
X6739010Y4224627D01*
X6741418Y4222775D01*
X6743454Y4221479D01*
X6745491Y4220368D01*
X6747158Y4219442D01*
X6748269Y4219072D01*
X6748454Y4218887D01*
X6748639D01*
X6752157Y4217776D01*
X6755675Y4217035D01*
X6759193Y4216295D01*
X6762341Y4215924D01*
X6765119Y4215739D01*
X6766230D01*
X6767341Y4215554D01*
X6772525D01*
X6776229Y4215924D01*
X6779747Y4216109D01*
X6783080Y4216480D01*
X6786043Y4216850D01*
X6787339Y4217035D01*
X6788450D01*
X6789190Y4217220D01*
X6789931Y4217406D01*
X6790487D01*
X6770859Y4162967D01*
X6769748Y4159263D01*
X6768637Y4155745D01*
X6767711Y4152597D01*
X6766785Y4149635D01*
X6766045Y4146857D01*
X6765119Y4144450D01*
X6764563Y4142228D01*
X6763823Y4140191D01*
X6763267Y4138340D01*
X6762712Y4136858D01*
X6762341Y4135562D01*
X6761971Y4134451D01*
X6761786Y4133711D01*
X6761601Y4133155D01*
X6761415Y4132785D01*
Y4132600D01*
X6760675Y4130192D01*
X6759749Y4127600D01*
X6758823Y4124637D01*
X6757897Y4121860D01*
X6757157Y4119453D01*
X6756416Y4117231D01*
X6756231Y4116490D01*
X6756046Y4115935D01*
X6755861Y4115564D01*
Y4115379D01*
X6754750Y4111491D01*
X6753639Y4107787D01*
X6752528Y4104269D01*
X6751602Y4100936D01*
X6750676Y4097974D01*
X6749935Y4095381D01*
X6749195Y4092974D01*
X6748454Y4090752D01*
X6747898Y4088715D01*
X6747528Y4087049D01*
X6746973Y4085753D01*
X6746602Y4084456D01*
X6746417Y4083531D01*
X6746232Y4082975D01*
X6746047Y4082605D01*
Y4082420D01*
X6731048D01*
X6726789Y4082605D01*
X6679942D01*
X6676795Y4082420D01*
X6663278D01*
X6664018Y4084827D01*
X6664759Y4087049D01*
X6665314Y4088900D01*
X6665870Y4090567D01*
X6666240Y4092048D01*
X6666796Y4093159D01*
X6667166Y4094270D01*
X6667536Y4095196D01*
X6668092Y4096492D01*
X6668462Y4097233D01*
X6668647Y4097603D01*
Y4097788D01*
X6691423Y4148709D01*
X6692904Y4152042D01*
X6694385Y4155190D01*
X6695682Y4158338D01*
X6696793Y4161115D01*
X6697718Y4163337D01*
X6698459Y4165189D01*
X6698829Y4165744D01*
X6699015Y4166300D01*
X6699200Y4166485D01*
Y4166670D01*
X6707717Y4184631D01*
X6702348Y4186668D01*
X6697533Y4188705D01*
X6693274Y4190742D01*
X6689756Y4192593D01*
X6688275Y4193334D01*
X6686979Y4194075D01*
X6685868Y4194815D01*
X6684757Y4195371D01*
X6684016Y4195926D01*
X6683461Y4196111D01*
X6683275Y4196482D01*
X6683090D01*
X6679572Y4199074D01*
X6676424Y4201666D01*
X6673832Y4204259D01*
X6671425Y4206851D01*
X6669573Y4208888D01*
X6668092Y4210554D01*
X6667351Y4211665D01*
X6666981Y4211851D01*
Y4212036D01*
X6664759Y4215554D01*
X6662722Y4218887D01*
X6661056Y4222220D01*
X6659759Y4225183D01*
X6658834Y4227775D01*
X6658093Y4229812D01*
X6657908Y4230552D01*
X6657723Y4231108D01*
X6657537Y4231293D01*
Y4231478D01*
X6656426Y4235552D01*
X6655686Y4239440D01*
X6655130Y4243144D01*
X6654760Y4246477D01*
X6654575Y4249439D01*
X6654390Y4250735D01*
Y4251661D01*
Y4252587D01*
Y4253143D01*
Y4253513D01*
Y4253698D01*
X6654575Y4257587D01*
X6654760Y4261105D01*
X6655315Y4264438D01*
X6655686Y4267400D01*
X6656241Y4269808D01*
X6656797Y4271659D01*
X6656982Y4272400D01*
Y4272955D01*
X6657167Y4273141D01*
Y4273326D01*
X6658278Y4276659D01*
X6659574Y4279807D01*
X6660870Y4282584D01*
X6662167Y4284991D01*
X6663278Y4286843D01*
X6664203Y4288324D01*
X6664944Y4289250D01*
X6665129Y4289620D01*
X6667166Y4292213D01*
X6669203Y4294620D01*
X6671240Y4296657D01*
X6673276Y4298508D01*
X6674943Y4300175D01*
X6676239Y4301286D01*
X6677165Y4302026D01*
X6677535Y4302212D01*
X6680498Y4304248D01*
X6683461Y4306100D01*
X6686608Y4307581D01*
X6689386Y4308878D01*
X6691978Y4309989D01*
X6693830Y4310729D01*
X6694571Y4311100D01*
X6695126Y4311285D01*
X6695496Y4311470D01*
X6695682D01*
X6699755Y4312766D01*
X6703644Y4313877D01*
X6707532Y4314803D01*
X6711050Y4315358D01*
X6714198Y4315914D01*
X6715494Y4316099D01*
X6716605Y4316284D01*
X6717346D01*
X6718087Y4316469D01*
X6718642D01*
X6725493Y4317025D01*
X6732344Y4317580D01*
X6739010Y4317951D01*
X6741973D01*
X6744936Y4318136D01*
X6747713D01*
X6750120Y4318321D01*
X6764378D01*
X6770674Y4318136D01*
D02*
G37*
G36*
X7044719Y4321654D02*
X7052311Y4321099D01*
X7059718Y4320358D01*
X7066754Y4319432D01*
X7073605Y4318136D01*
X7079901Y4316840D01*
X7085826Y4315358D01*
X7091381Y4313877D01*
X7096196Y4312396D01*
X7100640Y4310914D01*
X7104528Y4309618D01*
X7107676Y4308322D01*
X7110268Y4307396D01*
X7112305Y4306656D01*
X7112861Y4306285D01*
X7113416Y4306100D01*
X7113601Y4305915D01*
X7113786D01*
X7119897Y4302767D01*
X7125822Y4299434D01*
X7131192Y4295916D01*
X7136191Y4292213D01*
X7140821Y4288509D01*
X7145079Y4284806D01*
X7148783Y4281288D01*
X7152301Y4277770D01*
X7155264Y4274437D01*
X7158041Y4271289D01*
X7160263Y4268511D01*
X7161930Y4266104D01*
X7163411Y4264253D01*
X7164522Y4262771D01*
X7165077Y4261845D01*
X7165263Y4261475D01*
X7168410Y4256105D01*
X7171003Y4250365D01*
X7173410Y4244810D01*
X7175261Y4239070D01*
X7176928Y4233515D01*
X7178409Y4227960D01*
X7179520Y4222775D01*
X7180446Y4217776D01*
X7181187Y4212962D01*
X7181742Y4208703D01*
X7182113Y4204999D01*
X7182298Y4201666D01*
X7182483Y4199074D01*
X7182668Y4197963D01*
Y4197037D01*
Y4196297D01*
Y4195741D01*
Y4195556D01*
Y4195371D01*
X7182483Y4190557D01*
X7182298Y4186113D01*
X7181927Y4181669D01*
X7181372Y4177225D01*
X7180816Y4173151D01*
X7180076Y4169448D01*
X7179335Y4165744D01*
X7178594Y4162411D01*
X7177854Y4159449D01*
X7177113Y4156671D01*
X7176372Y4154449D01*
X7175817Y4152412D01*
X7175261Y4150746D01*
X7174891Y4149635D01*
X7174521Y4148894D01*
Y4148709D01*
X7172854Y4144821D01*
X7171003Y4140932D01*
X7166559Y4133896D01*
X7164337Y4130563D01*
X7161930Y4127230D01*
X7159522Y4124267D01*
X7157300Y4121675D01*
X7155078Y4119082D01*
X7153042Y4116860D01*
X7151190Y4115009D01*
X7149523Y4113342D01*
X7148227Y4112046D01*
X7147301Y4111120D01*
X7146561Y4110565D01*
X7146376Y4110380D01*
X7142672Y4107232D01*
X7138784Y4104454D01*
X7134710Y4101862D01*
X7130822Y4099270D01*
X7126933Y4097048D01*
X7123045Y4095196D01*
X7119341Y4093344D01*
X7115823Y4091678D01*
X7112490Y4090197D01*
X7109528Y4089086D01*
X7106750Y4087975D01*
X7104528Y4087234D01*
X7102676Y4086493D01*
X7101195Y4086123D01*
X7100454Y4085938D01*
X7100084Y4085753D01*
X7090085Y4083160D01*
X7080271Y4081309D01*
X7075457Y4080568D01*
X7071013Y4080012D01*
X7066569Y4079457D01*
X7062495Y4079087D01*
X7058607Y4078716D01*
X7055274Y4078531D01*
X7052311Y4078346D01*
X7049719D01*
X7047497Y4078161D01*
X7044719D01*
X7033980Y4078531D01*
X7028795Y4078901D01*
X7023796Y4079272D01*
X7018796Y4080012D01*
X7014167Y4080568D01*
X7009908Y4081309D01*
X7005835Y4082049D01*
X7002131Y4082605D01*
X6998798Y4083345D01*
X6995836Y4084086D01*
X6993428Y4084642D01*
X6991392Y4085012D01*
X6990095Y4085382D01*
X6989170Y4085753D01*
X6988799D01*
X6983800Y4087234D01*
X6978986Y4089086D01*
X6974356Y4090937D01*
X6970098Y4092974D01*
X6966024Y4094826D01*
X6962135Y4097048D01*
X6958617Y4099085D01*
X6955284Y4100936D01*
X6952322Y4102973D01*
X6949729Y4104639D01*
X6947507Y4106306D01*
X6945656Y4107602D01*
X6944174Y4108713D01*
X6943063Y4109639D01*
X6942323Y4110194D01*
X6942137Y4110380D01*
X6938619Y4113713D01*
X6935101Y4117046D01*
X6931953Y4120564D01*
X6928991Y4124082D01*
X6926398Y4127600D01*
X6923806Y4130933D01*
X6921584Y4134266D01*
X6919547Y4137414D01*
X6917881Y4140377D01*
X6916214Y4143154D01*
X6914918Y4145561D01*
X6913807Y4147598D01*
X6913066Y4149264D01*
X6912511Y4150561D01*
X6912141Y4151486D01*
X6911955Y4151672D01*
X6910104Y4156301D01*
X6908437Y4160930D01*
X6907141Y4165559D01*
X6905845Y4170188D01*
X6904734Y4174632D01*
X6903993Y4179076D01*
X6903253Y4183335D01*
X6902697Y4187224D01*
X6902327Y4190927D01*
X6901956Y4194260D01*
X6901771Y4197222D01*
X6901586Y4199815D01*
X6901401Y4201852D01*
Y4203333D01*
Y4204259D01*
Y4204629D01*
X6901586Y4209629D01*
X6901771Y4214628D01*
X6902327Y4219257D01*
X6902882Y4223701D01*
X6903623Y4227960D01*
X6904364Y4232034D01*
X6905289Y4235737D01*
X6906215Y4239255D01*
X6907141Y4242218D01*
X6908067Y4244995D01*
X6908808Y4247402D01*
X6909548Y4249439D01*
X6910104Y4251106D01*
X6910659Y4252217D01*
X6910844Y4252957D01*
X6911030Y4253143D01*
X6912881Y4257031D01*
X6914918Y4260920D01*
X6919547Y4267956D01*
X6921954Y4271289D01*
X6924176Y4274437D01*
X6926584Y4277214D01*
X6928991Y4279992D01*
X6931028Y4282399D01*
X6933064Y4284436D01*
X6934916Y4286287D01*
X6936583Y4287769D01*
X6937879Y4289065D01*
X6938805Y4289991D01*
X6939545Y4290546D01*
X6939730Y4290731D01*
X6943434Y4293694D01*
X6947137Y4296471D01*
X6950840Y4299064D01*
X6954729Y4301286D01*
X6958432Y4303508D01*
X6962135Y4305359D01*
X6965654Y4307211D01*
X6969172Y4308692D01*
X6972320Y4309989D01*
X6975097Y4311285D01*
X6977689Y4312211D01*
X6979911Y4312951D01*
X6981763Y4313692D01*
X6983059Y4314062D01*
X6983800Y4314433D01*
X6984170D01*
X6993799Y4316840D01*
X7003057Y4318691D01*
X7007686Y4319432D01*
X7011945Y4319988D01*
X7016019Y4320543D01*
X7019907Y4320913D01*
X7023611Y4321284D01*
X7026758Y4321469D01*
X7029721Y4321654D01*
X7032128D01*
X7033980Y4321839D01*
X7036757D01*
X7044719Y4321654D01*
D02*
G37*
G36*
X9689445Y4597953D02*
Y4593509D01*
Y4589065D01*
X9689631Y4584991D01*
Y4581288D01*
Y4577955D01*
X9689816Y4576659D01*
Y4575548D01*
Y4574622D01*
Y4573881D01*
Y4573511D01*
Y4573326D01*
X9690556Y4543884D01*
X9693519Y4477595D01*
X9700000Y4382419D01*
X9684631D01*
X9680372Y4382605D01*
X9660745D01*
X9618712Y4382419D01*
X9615935Y4475002D01*
X9531684D01*
X9532054Y4465929D01*
X9532425Y4456856D01*
X9532795Y4448153D01*
X9533165Y4439821D01*
X9533536Y4431859D01*
X9534091Y4424082D01*
X9534461Y4417046D01*
X9535017Y4410380D01*
X9535387Y4404269D01*
X9535943Y4398714D01*
X9536128Y4396307D01*
X9536313Y4394085D01*
X9536498Y4391863D01*
Y4390011D01*
X9536683Y4388345D01*
X9536869Y4386678D01*
Y4385382D01*
X9537054Y4384456D01*
Y4383530D01*
X9537239Y4382975D01*
Y4382605D01*
Y4382419D01*
X9520574D01*
X9516130Y4382605D01*
X9494651D01*
X9454655Y4382419D01*
Y4394085D01*
Y4405010D01*
X9454470Y4415564D01*
Y4425378D01*
X9454285Y4434451D01*
X9454099Y4443154D01*
X9453914Y4450931D01*
X9453729Y4458152D01*
Y4461485D01*
Y4464633D01*
X9453544Y4467411D01*
Y4470188D01*
X9453359Y4472780D01*
Y4475002D01*
Y4477224D01*
X9453174Y4479076D01*
Y4480743D01*
Y4482224D01*
Y4483520D01*
X9452988Y4484631D01*
Y4485372D01*
Y4485927D01*
Y4486298D01*
Y4486483D01*
X9452803Y4490556D01*
X9452618Y4494815D01*
X9452433Y4499259D01*
X9452248Y4503888D01*
X9451692Y4513887D01*
X9451137Y4524257D01*
X9450396Y4534996D01*
X9449841Y4545921D01*
X9449100Y4556661D01*
X9448544Y4567215D01*
X9447804Y4577399D01*
X9447433Y4582028D01*
X9447248Y4586658D01*
X9446878Y4591102D01*
X9446693Y4595175D01*
X9446508Y4599064D01*
X9446137Y4602582D01*
X9445952Y4605730D01*
X9445767Y4608692D01*
X9445582Y4611099D01*
X9445397Y4613321D01*
Y4614988D01*
X9445211Y4616284D01*
Y4617025D01*
Y4617210D01*
X9459840D01*
X9464098Y4617025D01*
X9487429D01*
X9527055Y4617210D01*
Y4614618D01*
X9526870Y4612210D01*
Y4609988D01*
Y4608137D01*
Y4606285D01*
X9526685Y4604804D01*
Y4603323D01*
Y4602212D01*
Y4600360D01*
Y4599064D01*
Y4598323D01*
Y4598138D01*
Y4596471D01*
Y4594435D01*
Y4592213D01*
X9526870Y4589620D01*
Y4584436D01*
X9527055Y4579251D01*
Y4576659D01*
X9527240Y4574251D01*
Y4572215D01*
Y4570178D01*
X9527425Y4568696D01*
Y4567585D01*
Y4566660D01*
Y4566474D01*
X9527610Y4562216D01*
Y4558327D01*
X9527796Y4554624D01*
X9527981Y4551291D01*
Y4548328D01*
X9528166Y4545551D01*
Y4542958D01*
X9528351Y4540736D01*
Y4538885D01*
X9528536Y4537218D01*
Y4535737D01*
Y4534626D01*
X9528721Y4533700D01*
Y4533145D01*
Y4532774D01*
Y4532589D01*
X9612972D01*
X9612787Y4538885D01*
X9612416Y4545736D01*
X9612046Y4552587D01*
X9611676Y4559809D01*
X9610750Y4573881D01*
X9610380Y4580732D01*
X9610009Y4587213D01*
X9609454Y4593509D01*
X9609083Y4599064D01*
X9608713Y4604248D01*
X9608528Y4606470D01*
X9608343Y4608692D01*
Y4610544D01*
X9608158Y4612210D01*
X9607972Y4613692D01*
Y4614988D01*
Y4615914D01*
X9607787Y4616654D01*
Y4617025D01*
Y4617210D01*
X9620749D01*
X9624637Y4617025D01*
X9671114D01*
X9674447Y4617210D01*
X9689631D01*
X9689445Y4597953D01*
D02*
G37*
G36*
X9404475Y4592398D02*
Y4585361D01*
X9404660Y4578140D01*
Y4570548D01*
X9404845Y4562586D01*
X9405030Y4554439D01*
X9405401Y4546291D01*
X9405956Y4529071D01*
X9406697Y4511665D01*
X9407438Y4494260D01*
X9408363Y4477039D01*
X9408919Y4468522D01*
X9409289Y4460374D01*
X9409660Y4452227D01*
X9410215Y4444450D01*
X9410585Y4437043D01*
X9411141Y4429822D01*
X9411511Y4422971D01*
X9411882Y4416490D01*
X9412252Y4410565D01*
X9412622Y4405010D01*
X9412993Y4400010D01*
X9413178Y4395566D01*
X9413548Y4391678D01*
X9413733Y4388530D01*
X9413918Y4385938D01*
Y4383901D01*
X9414104Y4383345D01*
Y4382790D01*
Y4382605D01*
Y4382419D01*
X9397068D01*
X9392439Y4382605D01*
X9369479D01*
X9331705Y4382419D01*
Y4395381D01*
X9331520Y4408343D01*
Y4414638D01*
X9331334Y4420749D01*
Y4426674D01*
X9331149Y4432044D01*
Y4437229D01*
Y4441858D01*
X9330964Y4445931D01*
Y4449450D01*
X9330779Y4452227D01*
Y4453338D01*
Y4454449D01*
Y4455190D01*
Y4455745D01*
Y4455930D01*
Y4456116D01*
X9330223Y4471114D01*
X9329853Y4486298D01*
X9329483Y4493704D01*
X9329298Y4500741D01*
X9328927Y4507592D01*
X9328742Y4514073D01*
X9328372Y4520183D01*
X9328187Y4525553D01*
X9328001Y4530552D01*
X9327816Y4532589D01*
Y4534626D01*
Y4536478D01*
X9327631Y4537959D01*
Y4539440D01*
X9327446Y4540551D01*
Y4541477D01*
Y4542033D01*
Y4542403D01*
Y4542588D01*
X9327076Y4548884D01*
X9326705Y4555365D01*
X9325965Y4568326D01*
X9325409Y4574622D01*
X9325039Y4580732D01*
X9324668Y4586658D01*
X9324298Y4592398D01*
X9323928Y4597582D01*
X9323557Y4602397D01*
X9323187Y4606656D01*
X9323002Y4610174D01*
X9322817Y4611840D01*
Y4613136D01*
X9322632Y4614432D01*
Y4615358D01*
X9322446Y4616099D01*
Y4616654D01*
Y4617025D01*
Y4617210D01*
X9337815D01*
X9341889Y4617025D01*
X9381329D01*
X9388366Y4617210D01*
X9404660D01*
X9404475Y4592398D01*
D02*
G37*
G36*
X9011182Y4597953D02*
Y4593509D01*
Y4589065D01*
X9011368Y4584991D01*
Y4581288D01*
Y4577955D01*
X9011553Y4576659D01*
Y4575548D01*
Y4574622D01*
Y4573881D01*
Y4573511D01*
Y4573326D01*
X9012293Y4543884D01*
X9015256Y4477595D01*
X9021737Y4382419D01*
X9006368D01*
X9002109Y4382605D01*
X8982482D01*
X8940449Y4382419D01*
X8937671Y4475002D01*
X8853421D01*
X8853791Y4465929D01*
X8854162Y4456856D01*
X8854532Y4448153D01*
X8854902Y4439821D01*
X8855273Y4431859D01*
X8855828Y4424082D01*
X8856198Y4417046D01*
X8856754Y4410380D01*
X8857124Y4404269D01*
X8857680Y4398714D01*
X8857865Y4396307D01*
X8858050Y4394085D01*
X8858235Y4391863D01*
Y4390011D01*
X8858420Y4388345D01*
X8858606Y4386678D01*
Y4385382D01*
X8858791Y4384456D01*
Y4383530D01*
X8858976Y4382975D01*
Y4382605D01*
Y4382419D01*
X8842311D01*
X8837867Y4382605D01*
X8816388D01*
X8776392Y4382419D01*
Y4394085D01*
Y4405010D01*
X8776207Y4415564D01*
Y4425378D01*
X8776022Y4434451D01*
X8775836Y4443154D01*
X8775651Y4450931D01*
X8775466Y4458152D01*
Y4461485D01*
Y4464633D01*
X8775281Y4467411D01*
Y4470188D01*
X8775096Y4472780D01*
Y4475002D01*
Y4477224D01*
X8774911Y4479076D01*
Y4480743D01*
Y4482224D01*
Y4483520D01*
X8774725Y4484631D01*
Y4485372D01*
Y4485927D01*
Y4486298D01*
Y4486483D01*
X8774540Y4490556D01*
X8774355Y4494815D01*
X8774170Y4499259D01*
X8773985Y4503888D01*
X8773429Y4513887D01*
X8772874Y4524257D01*
X8772133Y4534996D01*
X8771578Y4545921D01*
X8770837Y4556661D01*
X8770281Y4567215D01*
X8769541Y4577399D01*
X8769170Y4582028D01*
X8768985Y4586658D01*
X8768615Y4591102D01*
X8768430Y4595175D01*
X8768245Y4599064D01*
X8767874Y4602582D01*
X8767689Y4605730D01*
X8767504Y4608692D01*
X8767319Y4611099D01*
X8767134Y4613321D01*
Y4614988D01*
X8766948Y4616284D01*
Y4617025D01*
Y4617210D01*
X8781577D01*
X8785835Y4617025D01*
X8809166D01*
X8848792Y4617210D01*
Y4614618D01*
X8848607Y4612210D01*
Y4609988D01*
Y4608137D01*
Y4606285D01*
X8848421Y4604804D01*
Y4603323D01*
Y4602212D01*
Y4600360D01*
Y4599064D01*
Y4598323D01*
Y4598138D01*
Y4596471D01*
Y4594435D01*
Y4592213D01*
X8848607Y4589620D01*
Y4584436D01*
X8848792Y4579251D01*
Y4576659D01*
X8848977Y4574251D01*
Y4572215D01*
Y4570178D01*
X8849162Y4568696D01*
Y4567585D01*
Y4566660D01*
Y4566474D01*
X8849347Y4562216D01*
Y4558327D01*
X8849532Y4554624D01*
X8849718Y4551291D01*
Y4548328D01*
X8849903Y4545551D01*
Y4542958D01*
X8850088Y4540736D01*
Y4538885D01*
X8850273Y4537218D01*
Y4535737D01*
Y4534626D01*
X8850458Y4533700D01*
Y4533145D01*
Y4532774D01*
Y4532589D01*
X8934709D01*
X8934524Y4538885D01*
X8934153Y4545736D01*
X8933783Y4552587D01*
X8933413Y4559809D01*
X8932487Y4573881D01*
X8932117Y4580732D01*
X8931746Y4587213D01*
X8931191Y4593509D01*
X8930820Y4599064D01*
X8930450Y4604248D01*
X8930265Y4606470D01*
X8930080Y4608692D01*
Y4610544D01*
X8929895Y4612210D01*
X8929709Y4613692D01*
Y4614988D01*
Y4615914D01*
X8929524Y4616654D01*
Y4617025D01*
Y4617210D01*
X8942486D01*
X8946374Y4617025D01*
X8992851D01*
X8996184Y4617210D01*
X9011368D01*
X9011182Y4597953D01*
D02*
G37*
G36*
X8634370Y4520183D02*
X8594559Y4405565D01*
X8587523Y4382419D01*
X8570858D01*
X8566228Y4382605D01*
X8516974D01*
X8513641Y4382419D01*
X8500309D01*
X8498273Y4387049D01*
X8496236Y4391307D01*
X8494384Y4395381D01*
X8492532Y4399455D01*
X8490681Y4402973D01*
X8489199Y4406491D01*
X8487718Y4409639D01*
X8486237Y4412416D01*
X8484941Y4415009D01*
X8483830Y4417231D01*
X8482904Y4419268D01*
X8482163Y4420934D01*
X8481608Y4422230D01*
X8481052Y4423156D01*
X8480682Y4423711D01*
Y4423897D01*
X8422910Y4538144D01*
X8418836Y4546106D01*
X8415133Y4553698D01*
X8411245Y4561290D01*
X8407726Y4568511D01*
X8404393Y4575362D01*
X8401060Y4581843D01*
X8398098Y4588139D01*
X8395320Y4593694D01*
X8392728Y4599064D01*
X8390506Y4603693D01*
X8388654Y4607767D01*
X8386988Y4611099D01*
X8385692Y4613877D01*
X8385136Y4614988D01*
X8384581Y4615914D01*
X8384210Y4616654D01*
X8384025Y4617210D01*
X8383840Y4617395D01*
Y4617580D01*
X8388839D01*
X8393469Y4617395D01*
X8397727D01*
X8401616Y4617210D01*
X8411615D01*
X8414207Y4617025D01*
X8448463D01*
X8451611Y4617210D01*
X8465498D01*
X8466424Y4614803D01*
X8467165Y4612766D01*
X8467905Y4610729D01*
X8468646Y4608877D01*
X8469942Y4605915D01*
X8470868Y4603508D01*
X8471423Y4601841D01*
X8471979Y4600730D01*
X8472164Y4599990D01*
X8472349Y4599804D01*
X8473645Y4597027D01*
X8474016Y4595731D01*
X8474571Y4594805D01*
X8474942Y4594064D01*
X8475127Y4593509D01*
X8475312Y4593138D01*
Y4592953D01*
X8533824Y4464633D01*
X8537713Y4447413D01*
X8538824Y4453894D01*
X8539379Y4457041D01*
X8539935Y4459819D01*
X8540490Y4462411D01*
X8541046Y4464818D01*
X8541416Y4467040D01*
X8541972Y4469077D01*
X8542342Y4470929D01*
X8542712Y4472595D01*
X8543083Y4473891D01*
X8543453Y4475002D01*
X8543638Y4475928D01*
X8543823Y4476484D01*
X8544009Y4476854D01*
Y4477039D01*
X8568450Y4551661D01*
X8569932Y4556846D01*
X8571413Y4561660D01*
X8572524Y4566104D01*
X8573820Y4570178D01*
X8574931Y4573881D01*
X8575857Y4577399D01*
X8576598Y4580362D01*
X8577338Y4583139D01*
X8578079Y4585547D01*
X8578635Y4587583D01*
X8579005Y4589250D01*
X8579375Y4590731D01*
X8579746Y4591842D01*
X8579931Y4592583D01*
X8580116Y4592953D01*
Y4593138D01*
X8580486Y4594805D01*
X8581042Y4596471D01*
X8581968Y4600175D01*
X8583079Y4604248D01*
X8584190Y4608137D01*
X8585115Y4611655D01*
X8585486Y4613321D01*
X8585856Y4614618D01*
X8586226Y4615729D01*
X8586412Y4616469D01*
X8586597Y4617025D01*
Y4617210D01*
X8598262D01*
X8601780Y4617025D01*
X8631407D01*
X8639369Y4617210D01*
X8650109D01*
X8653442Y4617395D01*
X8661404D01*
X8663441Y4617580D01*
X8667329D01*
X8634370Y4520183D01*
D02*
G37*
G36*
X7886669Y4609988D02*
Y4606470D01*
X7886854Y4602952D01*
Y4599804D01*
X7887040Y4596842D01*
Y4594064D01*
X7887225Y4591657D01*
Y4589435D01*
X7887410Y4587398D01*
Y4585547D01*
Y4584065D01*
X7887595Y4582954D01*
Y4582214D01*
Y4581658D01*
Y4581473D01*
X7888336Y4559438D01*
X7817232Y4561290D01*
X7817602Y4543884D01*
X7818158Y4526664D01*
X7818713Y4509999D01*
X7819454Y4493704D01*
X7819824Y4485927D01*
X7820195Y4478150D01*
X7820750Y4470744D01*
X7821121Y4463522D01*
X7821491Y4456301D01*
X7822046Y4449635D01*
X7822417Y4442969D01*
X7822787Y4436673D01*
X7823342Y4430563D01*
X7823713Y4424822D01*
X7824083Y4419453D01*
X7824453Y4414268D01*
X7824824Y4409454D01*
X7825194Y4405010D01*
X7825564Y4400936D01*
X7825935Y4397233D01*
X7826120Y4393900D01*
X7826490Y4390937D01*
X7826675Y4388345D01*
X7826861Y4386308D01*
X7827046Y4384641D01*
Y4383345D01*
X7827231Y4382605D01*
Y4382419D01*
X7810566D01*
X7806122Y4382605D01*
X7762978D01*
X7759645Y4382419D01*
X7746499D01*
Y4392418D01*
X7746313Y4402603D01*
Y4407602D01*
X7746128Y4412416D01*
Y4417046D01*
X7745943Y4421490D01*
Y4425563D01*
Y4429452D01*
X7745758Y4432785D01*
Y4435562D01*
X7745573Y4437969D01*
Y4439636D01*
Y4440747D01*
Y4441117D01*
X7745202Y4453523D01*
X7744647Y4465744D01*
X7744462Y4471669D01*
X7744091Y4477410D01*
X7743906Y4482779D01*
X7743721Y4487779D01*
X7743536Y4492593D01*
X7743166Y4496852D01*
X7742980Y4500555D01*
Y4503888D01*
X7742795Y4506481D01*
X7742610Y4508332D01*
Y4509073D01*
Y4509629D01*
Y4509814D01*
Y4509999D01*
X7742055Y4519257D01*
X7741499Y4528330D01*
X7741129Y4532774D01*
X7740944Y4537033D01*
X7740573Y4541107D01*
X7740203Y4544810D01*
X7740018Y4548328D01*
X7739647Y4551476D01*
X7739462Y4554439D01*
X7739277Y4556661D01*
X7739092Y4558698D01*
Y4560179D01*
X7738907Y4560920D01*
Y4561290D01*
X7721131D01*
X7716131Y4561105D01*
X7710947Y4560920D01*
X7700577Y4560734D01*
X7695393Y4560549D01*
X7690578Y4560364D01*
X7685949Y4560179D01*
X7681691Y4559994D01*
X7677802Y4559809D01*
X7674469D01*
X7671692Y4559623D01*
X7670581D01*
X7669655Y4559438D01*
X7667988D01*
Y4562956D01*
Y4566104D01*
Y4569067D01*
X7667803Y4571659D01*
Y4573696D01*
Y4575177D01*
Y4576103D01*
Y4576473D01*
X7667618Y4579621D01*
X7667433Y4582954D01*
Y4586472D01*
X7667248Y4589805D01*
X7667062Y4592768D01*
Y4594064D01*
X7666877Y4595175D01*
Y4596101D01*
Y4596842D01*
Y4597212D01*
Y4597397D01*
X7665766Y4617580D01*
X7691134Y4617210D01*
X7731130D01*
X7772422Y4617025D01*
X7806307D01*
X7816862Y4617210D01*
X7845007D01*
X7853154Y4617395D01*
X7875189D01*
X7877596Y4617580D01*
X7886484D01*
X7886669Y4609988D01*
D02*
G37*
G36*
X7566888Y4611655D02*
X7569295Y4606656D01*
X7571332Y4602397D01*
X7572998Y4598879D01*
X7573739Y4597397D01*
X7574479Y4596101D01*
X7575035Y4594990D01*
X7575405Y4594064D01*
X7575776Y4593324D01*
X7576146Y4592768D01*
X7576331Y4592583D01*
Y4592398D01*
X7585589Y4574066D01*
X7672247Y4410935D01*
X7686134Y4382419D01*
X7670210D01*
X7665766Y4382605D01*
X7618919D01*
X7615401Y4382419D01*
X7601328D01*
X7598366Y4389271D01*
X7595403Y4395751D01*
X7592440Y4402047D01*
X7589848Y4408158D01*
X7587071Y4413713D01*
X7584664Y4419082D01*
X7582442Y4424082D01*
X7580220Y4428711D01*
X7578183Y4432785D01*
X7576516Y4436488D01*
X7575035Y4439636D01*
X7573739Y4442228D01*
X7572628Y4444450D01*
X7571887Y4445931D01*
X7571517Y4446857D01*
X7571332Y4447228D01*
X7491710D01*
X7489303Y4440747D01*
X7487081Y4434451D01*
X7485044Y4428341D01*
X7483007Y4422415D01*
X7481156Y4416860D01*
X7479304Y4411491D01*
X7477823Y4406491D01*
X7476341Y4401862D01*
X7475045Y4397603D01*
X7473934Y4393715D01*
X7473008Y4390382D01*
X7472268Y4387604D01*
X7471527Y4385382D01*
X7471157Y4383716D01*
X7470786Y4382790D01*
Y4382419D01*
X7455603D01*
X7451159Y4382605D01*
X7405052D01*
X7401720Y4382419D01*
X7388017D01*
X7397831Y4410194D01*
X7448011Y4546291D01*
X7472823Y4617210D01*
X7480415D01*
X7488377Y4617025D01*
X7544482D01*
X7548001Y4617210D01*
X7564295D01*
X7566888Y4611655D01*
D02*
G37*
G36*
X7087678Y4599249D02*
Y4597768D01*
Y4595916D01*
Y4592027D01*
X7087863Y4587583D01*
X7088048Y4582769D01*
Y4577584D01*
X7088233Y4572215D01*
X7088604Y4561660D01*
X7088789Y4556476D01*
X7088974Y4551661D01*
X7089159Y4547217D01*
Y4543329D01*
X7089344Y4541662D01*
Y4540181D01*
Y4538700D01*
X7089530Y4537589D01*
Y4536848D01*
Y4536107D01*
Y4535737D01*
Y4535552D01*
X7089900Y4526849D01*
X7090270Y4518331D01*
X7090641Y4510554D01*
X7090826Y4503148D01*
X7091196Y4496297D01*
X7091566Y4490001D01*
X7091937Y4484076D01*
X7092122Y4478891D01*
X7092492Y4474262D01*
X7092677Y4470003D01*
X7092863Y4466485D01*
X7093048Y4463707D01*
X7093233Y4461300D01*
Y4459634D01*
X7093418Y4458708D01*
Y4458338D01*
X7093788Y4452783D01*
X7094159Y4446857D01*
X7094714Y4440562D01*
X7095085Y4434266D01*
X7096010Y4421675D01*
X7096566Y4415379D01*
X7097121Y4409639D01*
X7097492Y4403899D01*
X7097862Y4398899D01*
X7098418Y4394270D01*
X7098603Y4390196D01*
X7098788Y4388530D01*
X7098973Y4387049D01*
Y4385567D01*
X7099158Y4384456D01*
Y4383530D01*
X7099343Y4382975D01*
Y4382605D01*
Y4382419D01*
X7072124D01*
X6998613Y4382605D01*
X6933990D01*
X6927880Y4382419D01*
X6905845D01*
X6905289Y4393344D01*
X6904549Y4403899D01*
X6904364Y4408898D01*
X6903993Y4413713D01*
X6903808Y4418157D01*
X6903438Y4422415D01*
X6903253Y4426304D01*
X6902882Y4429822D01*
X6902697Y4432970D01*
X6902512Y4435562D01*
X6902327Y4437784D01*
X6902142Y4439265D01*
Y4440191D01*
Y4440562D01*
X6906030Y4440376D01*
X6909733Y4440006D01*
X6913066Y4439821D01*
X6916029Y4439636D01*
X6918807Y4439451D01*
X6921214D01*
X6923251Y4439265D01*
X6925102D01*
X6926769Y4439080D01*
X6929176D01*
X6930102Y4438895D01*
X6931583D01*
X6966209Y4438154D01*
X6970653D01*
X6974542Y4437969D01*
X6988059D01*
X6990651Y4437784D01*
X7017315D01*
X7015463Y4471484D01*
X7006020Y4471855D01*
X6997132Y4472225D01*
X6992873D01*
X6988799Y4472410D01*
X6981578D01*
X6978430Y4472595D01*
X6937138D01*
X6933620Y4472410D01*
X6919177D01*
X6918807Y4478521D01*
X6918621Y4484261D01*
X6918251Y4489816D01*
X6917881Y4495186D01*
X6917696Y4500370D01*
X6917325Y4504999D01*
X6917140Y4509443D01*
X6916770Y4513702D01*
X6916585Y4517405D01*
X6916399Y4520553D01*
X6916214Y4523516D01*
X6916029Y4525923D01*
X6915844Y4527775D01*
X6915659Y4529256D01*
Y4529997D01*
Y4530367D01*
X6919547Y4530182D01*
X6923251D01*
X6930102Y4529812D01*
X6936397Y4529626D01*
X6941952Y4529441D01*
X6946952D01*
X6951211Y4529256D01*
X6955099Y4529071D01*
X6961210D01*
X6963432Y4528886D01*
X6991577D01*
X6995095Y4529071D01*
X7005835D01*
X7007501Y4529256D01*
X7011760D01*
X7009908Y4561105D01*
X7004724Y4561290D01*
X7000094Y4561475D01*
X6996021D01*
X6992688Y4561660D01*
X6980652D01*
X6978245Y4561845D01*
X6945656D01*
X6936027Y4561660D01*
X6926398Y4561475D01*
X6921769Y4561290D01*
X6917325D01*
X6913066Y4561105D01*
X6909178Y4560920D01*
X6905660D01*
X6902512Y4560734D01*
X6900105D01*
X6898253Y4560549D01*
X6896587D01*
Y4564067D01*
Y4567215D01*
Y4569807D01*
X6896401Y4571844D01*
Y4573511D01*
Y4574622D01*
Y4575362D01*
Y4575548D01*
X6895291Y4593694D01*
X6895105Y4595916D01*
Y4597768D01*
X6894920Y4599619D01*
Y4601101D01*
Y4602397D01*
X6894735Y4603693D01*
Y4605545D01*
X6894550Y4606841D01*
Y4607581D01*
Y4607952D01*
Y4608137D01*
X6893994Y4617210D01*
X6909363D01*
X6925473Y4617025D01*
X7053793D01*
X7060644Y4617210D01*
X7087863D01*
X7087678Y4599249D01*
D02*
G37*
G36*
X9158204Y4621654D02*
X9167092Y4621098D01*
X9175425Y4620173D01*
X9183387Y4619062D01*
X9190793Y4617765D01*
X9197645Y4616284D01*
X9203940Y4614618D01*
X9209680Y4613136D01*
X9214865Y4611470D01*
X9219494Y4609803D01*
X9223383Y4608322D01*
X9226530Y4607026D01*
X9229123Y4605915D01*
X9230974Y4604989D01*
X9231530Y4604619D01*
X9232085Y4604434D01*
X9232271Y4604248D01*
X9232456D01*
X9238381Y4600915D01*
X9243936Y4597212D01*
X9249121Y4593509D01*
X9253935Y4589620D01*
X9258379Y4585547D01*
X9262453Y4581658D01*
X9266156Y4577770D01*
X9269489Y4574066D01*
X9272452Y4570548D01*
X9275044Y4567400D01*
X9277266Y4564438D01*
X9279118Y4562031D01*
X9280414Y4559994D01*
X9281525Y4558327D01*
X9282080Y4557401D01*
X9282265Y4557031D01*
X9285228Y4551476D01*
X9288006Y4545736D01*
X9290228Y4539996D01*
X9292264Y4534441D01*
X9293931Y4528886D01*
X9295227Y4523516D01*
X9296338Y4518331D01*
X9297264Y4513517D01*
X9298005Y4509073D01*
X9298560Y4504999D01*
X9298930Y4501481D01*
X9299301Y4498333D01*
Y4495741D01*
X9299486Y4493889D01*
Y4493334D01*
Y4492778D01*
Y4492593D01*
Y4492408D01*
X9299301Y4484631D01*
X9298560Y4477039D01*
X9298005Y4473521D01*
X9297449Y4470188D01*
X9296894Y4467040D01*
X9296338Y4464078D01*
X9295783Y4461300D01*
X9295227Y4458893D01*
X9294672Y4456671D01*
X9294116Y4455005D01*
X9293746Y4453523D01*
X9293375Y4452412D01*
X9293190Y4451672D01*
Y4451486D01*
X9290598Y4444265D01*
X9287635Y4437784D01*
X9285969Y4434636D01*
X9284487Y4431859D01*
X9283006Y4429266D01*
X9281525Y4426859D01*
X9280043Y4424637D01*
X9278747Y4422786D01*
X9277636Y4421119D01*
X9276710Y4419638D01*
X9275785Y4418527D01*
X9275229Y4417786D01*
X9274859Y4417231D01*
X9274674Y4417046D01*
X9269859Y4411861D01*
X9264860Y4407232D01*
X9259860Y4403343D01*
X9255231Y4400010D01*
X9253009Y4398529D01*
X9250972Y4397418D01*
X9249121Y4396307D01*
X9247639Y4395381D01*
X9246343Y4394826D01*
X9245417Y4394270D01*
X9244862Y4394085D01*
X9244677Y4393900D01*
X9237826Y4390937D01*
X9230789Y4388530D01*
X9224123Y4386493D01*
X9220975Y4385567D01*
X9218013Y4384827D01*
X9215050Y4384086D01*
X9212643Y4383530D01*
X9210421Y4382975D01*
X9208384Y4382605D01*
X9206903Y4382234D01*
X9205607Y4382049D01*
X9204866Y4381864D01*
X9204681D01*
X9196348Y4380568D01*
X9188201Y4379642D01*
X9184313Y4379457D01*
X9180609Y4379086D01*
X9177091Y4378901D01*
X9173758Y4378716D01*
X9170610Y4378531D01*
X9167833Y4378346D01*
X9165426D01*
X9163389Y4378161D01*
X9153945D01*
X9148390Y4378346D01*
X9143021Y4378531D01*
X9138021Y4378901D01*
X9135799D01*
X9133762Y4379086D01*
X9131911D01*
X9130244Y4379272D01*
X9128948D01*
X9128022Y4379457D01*
X9127281D01*
X9120801Y4380012D01*
X9114875Y4380383D01*
X9112283Y4380753D01*
X9109691Y4380938D01*
X9107469Y4381123D01*
X9105247Y4381308D01*
X9103395Y4381494D01*
X9101729Y4381679D01*
X9100247Y4381864D01*
X9099136Y4382049D01*
X9098210D01*
X9097470Y4382234D01*
X9096914D01*
X9094507Y4382605D01*
X9091915Y4382975D01*
X9086360Y4383716D01*
X9080434Y4384641D01*
X9074879Y4385752D01*
X9072287Y4386123D01*
X9069880Y4386493D01*
X9067658Y4386863D01*
X9065806Y4387234D01*
X9064325Y4387604D01*
X9063029Y4387789D01*
X9062288Y4387974D01*
X9062103D01*
X9061918Y4392604D01*
X9061733Y4397603D01*
X9061548Y4402973D01*
X9061362Y4408343D01*
X9060992Y4419268D01*
X9060807Y4424637D01*
X9060437Y4429822D01*
X9060251Y4434636D01*
X9060066Y4439265D01*
X9059881Y4443339D01*
X9059696Y4446857D01*
X9059511Y4449635D01*
Y4450931D01*
X9059326Y4451857D01*
Y4452597D01*
Y4453153D01*
Y4453523D01*
Y4453708D01*
X9058955Y4461300D01*
X9058400Y4468707D01*
X9058029Y4475558D01*
X9057659Y4482224D01*
X9057289Y4488149D01*
X9056918Y4493889D01*
X9056548Y4499074D01*
X9056178Y4503888D01*
X9055807Y4508147D01*
X9055622Y4511851D01*
X9055252Y4514998D01*
X9055067Y4517776D01*
X9054882Y4519813D01*
Y4521294D01*
X9054696Y4522220D01*
Y4522590D01*
X9058770D01*
X9063214Y4522405D01*
X9067843D01*
X9072657Y4522220D01*
X9087286D01*
X9091915Y4522035D01*
X9135429D01*
X9139317Y4522220D01*
X9152464D01*
X9154871Y4522405D01*
X9160982D01*
Y4517405D01*
Y4513332D01*
X9161167Y4509814D01*
Y4507036D01*
Y4504814D01*
X9161352Y4503333D01*
Y4502407D01*
Y4502037D01*
Y4499815D01*
X9161537Y4497963D01*
Y4496297D01*
Y4494815D01*
X9161722Y4493889D01*
Y4492964D01*
Y4492593D01*
Y4492408D01*
X9162833Y4468151D01*
X9141724Y4468337D01*
X9139502D01*
X9137836Y4468151D01*
X9136355D01*
X9134688Y4467966D01*
X9133577D01*
X9132651Y4467781D01*
X9132281D01*
X9134133Y4437599D01*
X9139502Y4436488D01*
X9144872Y4435562D01*
X9149872Y4435007D01*
X9154316Y4434451D01*
X9156167D01*
X9158019Y4434266D01*
X9159500D01*
X9160797Y4434081D01*
X9163389D01*
X9169684Y4434451D01*
X9175425Y4435192D01*
X9180609Y4436118D01*
X9183016Y4436673D01*
X9185053Y4437414D01*
X9187090Y4437969D01*
X9188942Y4438525D01*
X9190423Y4439080D01*
X9191719Y4439636D01*
X9192830Y4440006D01*
X9193571Y4440376D01*
X9193941Y4440562D01*
X9194126D01*
X9198941Y4443339D01*
X9202829Y4446302D01*
X9206347Y4449450D01*
X9209125Y4452597D01*
X9211162Y4455375D01*
X9212087Y4456486D01*
X9212828Y4457597D01*
X9213198Y4458523D01*
X9213569Y4459078D01*
X9213939Y4459449D01*
Y4459634D01*
X9215976Y4464448D01*
X9217457Y4469447D01*
X9218568Y4474447D01*
X9219309Y4479076D01*
X9219494Y4481113D01*
X9219679Y4482965D01*
X9219864Y4484631D01*
Y4486112D01*
X9220050Y4487223D01*
Y4488149D01*
Y4488705D01*
Y4488890D01*
X9219864Y4494815D01*
X9219124Y4500555D01*
X9218198Y4505740D01*
X9217828Y4508147D01*
X9217272Y4510369D01*
X9216717Y4512406D01*
X9216161Y4514258D01*
X9215791Y4515739D01*
X9215420Y4517035D01*
X9215050Y4518146D01*
X9214680Y4519072D01*
X9214495Y4519442D01*
Y4519627D01*
X9212087Y4524812D01*
X9209495Y4529626D01*
X9206718Y4533885D01*
X9204125Y4537403D01*
X9202829Y4539070D01*
X9201718Y4540366D01*
X9200607Y4541662D01*
X9199681Y4542588D01*
X9198941Y4543329D01*
X9198385Y4543884D01*
X9198015Y4544255D01*
X9197830Y4544440D01*
X9193386Y4548143D01*
X9188757Y4551291D01*
X9184313Y4554068D01*
X9180054Y4556105D01*
X9178202Y4557031D01*
X9176350Y4557772D01*
X9174869Y4558512D01*
X9173388Y4559068D01*
X9172277Y4559438D01*
X9171536Y4559809D01*
X9170981Y4559994D01*
X9170795D01*
X9164870Y4561660D01*
X9158945Y4562956D01*
X9153205Y4563882D01*
X9148205Y4564623D01*
X9145798Y4564808D01*
X9143761Y4564993D01*
X9141910D01*
X9140243Y4565178D01*
X9137280D01*
X9132096Y4564993D01*
X9129503Y4564808D01*
X9127096D01*
X9125059Y4564623D01*
X9123578Y4564438D01*
X9122467Y4564252D01*
X9122097D01*
X9115431Y4563512D01*
X9112283Y4563141D01*
X9109320Y4562771D01*
X9106913Y4562216D01*
X9104876Y4562031D01*
X9104136Y4561845D01*
X9103580Y4561660D01*
X9103210D01*
X9099507Y4561105D01*
X9096174Y4560364D01*
X9093211Y4559809D01*
X9090619Y4559253D01*
X9088582Y4558698D01*
X9087100Y4558327D01*
X9086175Y4558142D01*
X9085804Y4557957D01*
X9084323Y4557587D01*
X9082656Y4557031D01*
X9078953Y4556105D01*
X9075065Y4555179D01*
X9071176Y4554068D01*
X9067658Y4553328D01*
X9065992Y4552772D01*
X9064695Y4552587D01*
X9063584Y4552217D01*
X9062659Y4552032D01*
X9062103Y4551846D01*
X9061918D01*
X9062288Y4557957D01*
X9062659Y4563882D01*
X9063029Y4569622D01*
X9063214Y4575177D01*
X9063399Y4580362D01*
X9063584Y4585361D01*
X9063770Y4589991D01*
Y4594249D01*
X9063955Y4598323D01*
Y4601841D01*
X9064140Y4604804D01*
Y4607396D01*
Y4609433D01*
Y4610914D01*
Y4611840D01*
Y4612210D01*
X9073028Y4613877D01*
X9081545Y4615358D01*
X9089693Y4616654D01*
X9097655Y4617765D01*
X9105062Y4618691D01*
X9111913Y4619432D01*
X9118393Y4620173D01*
X9124504Y4620728D01*
X9129874Y4621098D01*
X9134688Y4621284D01*
X9138762Y4621469D01*
X9142280Y4621654D01*
X9143761D01*
X9145057Y4621839D01*
X9148761D01*
X9158204Y4621654D01*
D02*
G37*
G36*
X7234885D02*
X7243773Y4621098D01*
X7252105Y4620173D01*
X7260068Y4619062D01*
X7267474Y4617765D01*
X7274325Y4616284D01*
X7280621Y4614618D01*
X7286361Y4613136D01*
X7291546Y4611470D01*
X7296175Y4609803D01*
X7300063Y4608322D01*
X7303211Y4607026D01*
X7305804Y4605915D01*
X7307655Y4604989D01*
X7308211Y4604619D01*
X7308766Y4604434D01*
X7308951Y4604248D01*
X7309137D01*
X7315062Y4600915D01*
X7320617Y4597212D01*
X7325801Y4593509D01*
X7330616Y4589620D01*
X7335060Y4585547D01*
X7339133Y4581658D01*
X7342837Y4577770D01*
X7346170Y4574066D01*
X7349132Y4570548D01*
X7351725Y4567400D01*
X7353947Y4564438D01*
X7355798Y4562031D01*
X7357095Y4559994D01*
X7358206Y4558327D01*
X7358761Y4557401D01*
X7358946Y4557031D01*
X7361909Y4551476D01*
X7364686Y4545736D01*
X7366908Y4539996D01*
X7368945Y4534441D01*
X7370612Y4528886D01*
X7371908Y4523516D01*
X7373019Y4518331D01*
X7373945Y4513517D01*
X7374685Y4509073D01*
X7375241Y4504999D01*
X7375611Y4501481D01*
X7375981Y4498333D01*
Y4495741D01*
X7376167Y4493889D01*
Y4493334D01*
Y4492778D01*
Y4492593D01*
Y4492408D01*
X7375981Y4484631D01*
X7375241Y4477039D01*
X7374685Y4473521D01*
X7374130Y4470188D01*
X7373574Y4467040D01*
X7373019Y4464078D01*
X7372463Y4461300D01*
X7371908Y4458893D01*
X7371352Y4456671D01*
X7370797Y4455005D01*
X7370426Y4453523D01*
X7370056Y4452412D01*
X7369871Y4451672D01*
Y4451486D01*
X7367279Y4444265D01*
X7364316Y4437784D01*
X7362649Y4434636D01*
X7361168Y4431859D01*
X7359687Y4429266D01*
X7358206Y4426859D01*
X7356724Y4424637D01*
X7355428Y4422786D01*
X7354317Y4421119D01*
X7353391Y4419638D01*
X7352465Y4418527D01*
X7351910Y4417786D01*
X7351540Y4417231D01*
X7351354Y4417046D01*
X7346540Y4411861D01*
X7341541Y4407232D01*
X7336541Y4403343D01*
X7331912Y4400010D01*
X7329690Y4398529D01*
X7327653Y4397418D01*
X7325801Y4396307D01*
X7324320Y4395381D01*
X7323024Y4394826D01*
X7322098Y4394270D01*
X7321543Y4394085D01*
X7321357Y4393900D01*
X7314506Y4390937D01*
X7307470Y4388530D01*
X7300804Y4386493D01*
X7297656Y4385567D01*
X7294694Y4384827D01*
X7291731Y4384086D01*
X7289324Y4383530D01*
X7287102Y4382975D01*
X7285065Y4382605D01*
X7283584Y4382234D01*
X7282287Y4382049D01*
X7281547Y4381864D01*
X7281362D01*
X7273029Y4380568D01*
X7264882Y4379642D01*
X7260993Y4379457D01*
X7257290Y4379086D01*
X7253772Y4378901D01*
X7250439Y4378716D01*
X7247291Y4378531D01*
X7244514Y4378346D01*
X7242106D01*
X7240070Y4378161D01*
X7230626D01*
X7225071Y4378346D01*
X7219701Y4378531D01*
X7214702Y4378901D01*
X7212480D01*
X7210443Y4379086D01*
X7208591D01*
X7206925Y4379272D01*
X7205629D01*
X7204703Y4379457D01*
X7203962D01*
X7197481Y4380012D01*
X7191556Y4380383D01*
X7188964Y4380753D01*
X7186371Y4380938D01*
X7184149Y4381123D01*
X7181927Y4381308D01*
X7180076Y4381494D01*
X7178409Y4381679D01*
X7176928Y4381864D01*
X7175817Y4382049D01*
X7174891D01*
X7174150Y4382234D01*
X7173595D01*
X7171188Y4382605D01*
X7168596Y4382975D01*
X7163041Y4383716D01*
X7157115Y4384641D01*
X7151560Y4385752D01*
X7148968Y4386123D01*
X7146561Y4386493D01*
X7144339Y4386863D01*
X7142487Y4387234D01*
X7141006Y4387604D01*
X7139710Y4387789D01*
X7138969Y4387974D01*
X7138784D01*
X7138599Y4392604D01*
X7138413Y4397603D01*
X7138228Y4402973D01*
X7138043Y4408343D01*
X7137673Y4419268D01*
X7137488Y4424637D01*
X7137117Y4429822D01*
X7136932Y4434636D01*
X7136747Y4439265D01*
X7136562Y4443339D01*
X7136377Y4446857D01*
X7136191Y4449635D01*
Y4450931D01*
X7136006Y4451857D01*
Y4452597D01*
Y4453153D01*
Y4453523D01*
Y4453708D01*
X7135636Y4461300D01*
X7135080Y4468707D01*
X7134710Y4475558D01*
X7134340Y4482224D01*
X7133969Y4488149D01*
X7133599Y4493889D01*
X7133229Y4499074D01*
X7132858Y4503888D01*
X7132488Y4508147D01*
X7132303Y4511851D01*
X7131933Y4514998D01*
X7131747Y4517776D01*
X7131562Y4519813D01*
Y4521294D01*
X7131377Y4522220D01*
Y4522590D01*
X7135451D01*
X7139895Y4522405D01*
X7144524D01*
X7149338Y4522220D01*
X7163966D01*
X7168596Y4522035D01*
X7212110D01*
X7215998Y4522220D01*
X7229145D01*
X7231552Y4522405D01*
X7237662D01*
Y4517405D01*
Y4513332D01*
X7237848Y4509814D01*
Y4507036D01*
Y4504814D01*
X7238033Y4503333D01*
Y4502407D01*
Y4502037D01*
Y4499815D01*
X7238218Y4497963D01*
Y4496297D01*
Y4494815D01*
X7238403Y4493889D01*
Y4492964D01*
Y4492593D01*
Y4492408D01*
X7239514Y4468151D01*
X7218405Y4468337D01*
X7216183D01*
X7214517Y4468151D01*
X7213035D01*
X7211369Y4467966D01*
X7210258D01*
X7209332Y4467781D01*
X7208962D01*
X7210813Y4437599D01*
X7216183Y4436488D01*
X7221553Y4435562D01*
X7226552Y4435007D01*
X7230996Y4434451D01*
X7232848D01*
X7234700Y4434266D01*
X7236181D01*
X7237477Y4434081D01*
X7240070D01*
X7246365Y4434451D01*
X7252105Y4435192D01*
X7257290Y4436118D01*
X7259697Y4436673D01*
X7261734Y4437414D01*
X7263771Y4437969D01*
X7265623Y4438525D01*
X7267104Y4439080D01*
X7268400Y4439636D01*
X7269511Y4440006D01*
X7270252Y4440376D01*
X7270622Y4440562D01*
X7270807D01*
X7275621Y4443339D01*
X7279510Y4446302D01*
X7283028Y4449450D01*
X7285806Y4452597D01*
X7287842Y4455375D01*
X7288768Y4456486D01*
X7289509Y4457597D01*
X7289879Y4458523D01*
X7290250Y4459078D01*
X7290620Y4459449D01*
Y4459634D01*
X7292657Y4464448D01*
X7294138Y4469447D01*
X7295249Y4474447D01*
X7295990Y4479076D01*
X7296175Y4481113D01*
X7296360Y4482965D01*
X7296545Y4484631D01*
Y4486112D01*
X7296730Y4487223D01*
Y4488149D01*
Y4488705D01*
Y4488890D01*
X7296545Y4494815D01*
X7295805Y4500555D01*
X7294879Y4505740D01*
X7294508Y4508147D01*
X7293953Y4510369D01*
X7293397Y4512406D01*
X7292842Y4514258D01*
X7292472Y4515739D01*
X7292101Y4517035D01*
X7291731Y4518146D01*
X7291361Y4519072D01*
X7291175Y4519442D01*
Y4519627D01*
X7288768Y4524812D01*
X7286176Y4529626D01*
X7283398Y4533885D01*
X7280806Y4537403D01*
X7279510Y4539070D01*
X7278399Y4540366D01*
X7277288Y4541662D01*
X7276362Y4542588D01*
X7275621Y4543329D01*
X7275066Y4543884D01*
X7274696Y4544255D01*
X7274510Y4544440D01*
X7270066Y4548143D01*
X7265437Y4551291D01*
X7260993Y4554068D01*
X7256735Y4556105D01*
X7254883Y4557031D01*
X7253031Y4557772D01*
X7251550Y4558512D01*
X7250069Y4559068D01*
X7248958Y4559438D01*
X7248217Y4559809D01*
X7247661Y4559994D01*
X7247476D01*
X7241551Y4561660D01*
X7235626Y4562956D01*
X7229885Y4563882D01*
X7224886Y4564623D01*
X7222479Y4564808D01*
X7220442Y4564993D01*
X7218590D01*
X7216924Y4565178D01*
X7213961D01*
X7208777Y4564993D01*
X7206184Y4564808D01*
X7203777D01*
X7201740Y4564623D01*
X7200259Y4564438D01*
X7199148Y4564252D01*
X7198778D01*
X7192112Y4563512D01*
X7188964Y4563141D01*
X7186001Y4562771D01*
X7183594Y4562216D01*
X7181557Y4562031D01*
X7180816Y4561845D01*
X7180261Y4561660D01*
X7179891D01*
X7176187Y4561105D01*
X7172854Y4560364D01*
X7169892Y4559809D01*
X7167299Y4559253D01*
X7165263Y4558698D01*
X7163781Y4558327D01*
X7162855Y4558142D01*
X7162485Y4557957D01*
X7161004Y4557587D01*
X7159337Y4557031D01*
X7155634Y4556105D01*
X7151745Y4555179D01*
X7147857Y4554068D01*
X7144339Y4553328D01*
X7142672Y4552772D01*
X7141376Y4552587D01*
X7140265Y4552217D01*
X7139339Y4552032D01*
X7138784Y4551846D01*
X7138599D01*
X7138969Y4557957D01*
X7139339Y4563882D01*
X7139710Y4569622D01*
X7139895Y4575177D01*
X7140080Y4580362D01*
X7140265Y4585361D01*
X7140450Y4589991D01*
Y4594249D01*
X7140635Y4598323D01*
Y4601841D01*
X7140821Y4604804D01*
Y4607396D01*
Y4609433D01*
Y4610914D01*
Y4611840D01*
Y4612210D01*
X7149709Y4613877D01*
X7158226Y4615358D01*
X7166374Y4616654D01*
X7174336Y4617765D01*
X7181742Y4618691D01*
X7188593Y4619432D01*
X7195074Y4620173D01*
X7201185Y4620728D01*
X7206555Y4621098D01*
X7211369Y4621284D01*
X7215443Y4621469D01*
X7218961Y4621654D01*
X7220442D01*
X7221738Y4621839D01*
X7225441D01*
X7234885Y4621654D01*
D02*
G37*
G36*
X7998139Y4617395D02*
X8002028D01*
X8005546Y4617210D01*
X8014804D01*
X8017396Y4617025D01*
X8043690D01*
X8050912Y4617210D01*
X8063318D01*
X8065725Y4617395D01*
X8071650D01*
Y4611285D01*
Y4604989D01*
X8072020Y4592027D01*
Y4585547D01*
X8072206Y4579066D01*
X8072391Y4572955D01*
X8072576Y4567215D01*
X8072761Y4561660D01*
X8072946Y4556661D01*
X8073131Y4552032D01*
Y4548328D01*
X8073317Y4546662D01*
Y4544995D01*
Y4543884D01*
X8073502Y4542773D01*
Y4541847D01*
Y4541292D01*
Y4540922D01*
Y4540736D01*
X8074242Y4524071D01*
X8074613Y4515739D01*
X8074983Y4507777D01*
X8075353Y4500000D01*
X8075909Y4492408D01*
X8076279Y4485372D01*
X8076650Y4478706D01*
X8077020Y4472595D01*
X8077390Y4467226D01*
X8077761Y4462226D01*
X8077946Y4460189D01*
X8078131Y4458152D01*
X8078316Y4456486D01*
Y4454819D01*
X8078501Y4453523D01*
Y4452412D01*
Y4451486D01*
X8078686Y4450931D01*
Y4450561D01*
Y4450375D01*
X8079057Y4445561D01*
X8079427Y4440376D01*
X8079983Y4435007D01*
X8080353Y4429452D01*
X8081279Y4418157D01*
X8081834Y4412602D01*
X8082390Y4407232D01*
X8082760Y4402232D01*
X8083130Y4397418D01*
X8083686Y4393344D01*
X8083871Y4389641D01*
X8084056Y4387974D01*
X8084241Y4386678D01*
Y4385382D01*
X8084427Y4384271D01*
Y4383530D01*
X8084612Y4382975D01*
Y4382605D01*
Y4382419D01*
X8067762D01*
X8050912Y4382605D01*
X7928517D01*
X7922591Y4382419D01*
X7900001D01*
X7895928Y4439821D01*
X7900927Y4439636D01*
X7906297Y4439451D01*
X7911852Y4439265D01*
X7917592Y4439080D01*
X7929257Y4438895D01*
X7934998Y4438710D01*
X7945552D01*
X7950366Y4438525D01*
X7976290D01*
X7981845Y4438710D01*
X7992214D01*
X7994251Y4438895D01*
X7999806D01*
X7999250Y4458523D01*
X7994251Y4552957D01*
X7990177Y4617580D01*
X7994251D01*
X7998139Y4617395D01*
D02*
G37*
G36*
X8252002Y4621654D02*
X8259594Y4621098D01*
X8267000Y4620358D01*
X8274037Y4619432D01*
X8280888Y4618136D01*
X8287183Y4616840D01*
X8293109Y4615358D01*
X8298664Y4613877D01*
X8303478Y4612396D01*
X8307922Y4610914D01*
X8311810Y4609618D01*
X8314958Y4608322D01*
X8317551Y4607396D01*
X8319587Y4606656D01*
X8320143Y4606285D01*
X8320698Y4606100D01*
X8320884Y4605915D01*
X8321069D01*
X8327179Y4602767D01*
X8333104Y4599434D01*
X8338474Y4595916D01*
X8343474Y4592213D01*
X8348103Y4588509D01*
X8352362Y4584806D01*
X8356065Y4581288D01*
X8359583Y4577770D01*
X8362546Y4574437D01*
X8365323Y4571289D01*
X8367545Y4568511D01*
X8369212Y4566104D01*
X8370693Y4564252D01*
X8371804Y4562771D01*
X8372360Y4561845D01*
X8372545Y4561475D01*
X8375693Y4556105D01*
X8378285Y4550365D01*
X8380692Y4544810D01*
X8382544Y4539070D01*
X8384210Y4533515D01*
X8385692Y4527960D01*
X8386803Y4522775D01*
X8387728Y4517776D01*
X8388469Y4512962D01*
X8389025Y4508703D01*
X8389395Y4504999D01*
X8389580Y4501666D01*
X8389765Y4499074D01*
X8389950Y4497963D01*
Y4497037D01*
Y4496297D01*
Y4495741D01*
Y4495556D01*
Y4495371D01*
X8389765Y4490556D01*
X8389580Y4486112D01*
X8389210Y4481668D01*
X8388654Y4477224D01*
X8388099Y4473151D01*
X8387358Y4469447D01*
X8386617Y4465744D01*
X8385877Y4462411D01*
X8385136Y4459449D01*
X8384395Y4456671D01*
X8383655Y4454449D01*
X8383099Y4452412D01*
X8382544Y4450746D01*
X8382173Y4449635D01*
X8381803Y4448894D01*
Y4448709D01*
X8380137Y4444820D01*
X8378285Y4440932D01*
X8373841Y4433896D01*
X8371619Y4430563D01*
X8369212Y4427230D01*
X8366805Y4424267D01*
X8364583Y4421675D01*
X8362361Y4419082D01*
X8360324Y4416860D01*
X8358472Y4415009D01*
X8356806Y4413342D01*
X8355510Y4412046D01*
X8354584Y4411120D01*
X8353843Y4410565D01*
X8353658Y4410380D01*
X8349955Y4407232D01*
X8346066Y4404454D01*
X8341992Y4401862D01*
X8338104Y4399270D01*
X8334215Y4397048D01*
X8330327Y4395196D01*
X8326624Y4393344D01*
X8323106Y4391678D01*
X8319773Y4390196D01*
X8316810Y4389085D01*
X8314032Y4387974D01*
X8311810Y4387234D01*
X8309959Y4386493D01*
X8308477Y4386123D01*
X8307737Y4385938D01*
X8307366Y4385752D01*
X8297367Y4383160D01*
X8287554Y4381308D01*
X8282739Y4380568D01*
X8278295Y4380012D01*
X8273851Y4379457D01*
X8269778Y4379086D01*
X8265889Y4378716D01*
X8262556Y4378531D01*
X8259594Y4378346D01*
X8257001D01*
X8254779Y4378161D01*
X8252002D01*
X8241262Y4378531D01*
X8236078Y4378901D01*
X8231078Y4379272D01*
X8226079Y4380012D01*
X8221449Y4380568D01*
X8217191Y4381308D01*
X8213117Y4382049D01*
X8209414Y4382605D01*
X8206081Y4383345D01*
X8203118Y4384086D01*
X8200711Y4384641D01*
X8198674Y4385012D01*
X8197378Y4385382D01*
X8196452Y4385752D01*
X8196082D01*
X8191082Y4387234D01*
X8186268Y4389085D01*
X8181639Y4390937D01*
X8177380Y4392974D01*
X8173306Y4394826D01*
X8169418Y4397048D01*
X8165900Y4399084D01*
X8162567Y4400936D01*
X8159604Y4402973D01*
X8157012Y4404639D01*
X8154790Y4406306D01*
X8152938Y4407602D01*
X8151457Y4408713D01*
X8150346Y4409639D01*
X8149605Y4410194D01*
X8149420Y4410380D01*
X8145902Y4413713D01*
X8142384Y4417046D01*
X8139236Y4420564D01*
X8136273Y4424082D01*
X8133681Y4427600D01*
X8131088Y4430933D01*
X8128866Y4434266D01*
X8126830Y4437414D01*
X8125163Y4440376D01*
X8123497Y4443154D01*
X8122200Y4445561D01*
X8121089Y4447598D01*
X8120349Y4449264D01*
X8119793Y4450561D01*
X8119423Y4451486D01*
X8119238Y4451672D01*
X8117386Y4456301D01*
X8115720Y4460930D01*
X8114423Y4465559D01*
X8113127Y4470188D01*
X8112016Y4474632D01*
X8111276Y4479076D01*
X8110535Y4483335D01*
X8109979Y4487223D01*
X8109609Y4490927D01*
X8109239Y4494260D01*
X8109054Y4497222D01*
X8108868Y4499815D01*
X8108683Y4501852D01*
Y4503333D01*
Y4504259D01*
Y4504629D01*
X8108868Y4509629D01*
X8109054Y4514628D01*
X8109609Y4519257D01*
X8110165Y4523701D01*
X8110905Y4527960D01*
X8111646Y4532034D01*
X8112572Y4535737D01*
X8113498Y4539255D01*
X8114423Y4542218D01*
X8115349Y4544995D01*
X8116090Y4547402D01*
X8116831Y4549439D01*
X8117386Y4551106D01*
X8117942Y4552217D01*
X8118127Y4552957D01*
X8118312Y4553143D01*
X8120164Y4557031D01*
X8122200Y4560920D01*
X8126830Y4567956D01*
X8129237Y4571289D01*
X8131459Y4574437D01*
X8133866Y4577214D01*
X8136273Y4579992D01*
X8138310Y4582399D01*
X8140347Y4584436D01*
X8142198Y4586287D01*
X8143865Y4587769D01*
X8145161Y4589065D01*
X8146087Y4589991D01*
X8146827Y4590546D01*
X8147013Y4590731D01*
X8150716Y4593694D01*
X8154419Y4596471D01*
X8158123Y4599064D01*
X8162011Y4601286D01*
X8165714Y4603508D01*
X8169418Y4605359D01*
X8172936Y4607211D01*
X8176454Y4608692D01*
X8179602Y4609988D01*
X8182379Y4611285D01*
X8184972Y4612210D01*
X8187194Y4612951D01*
X8189045Y4613692D01*
X8190342Y4614062D01*
X8191082Y4614432D01*
X8191453D01*
X8201081Y4616840D01*
X8210339Y4618691D01*
X8214969Y4619432D01*
X8219227Y4619987D01*
X8223301Y4620543D01*
X8227190Y4620913D01*
X8230893Y4621284D01*
X8234041Y4621469D01*
X8237003Y4621654D01*
X8239410D01*
X8241262Y4621839D01*
X8244040D01*
X8252002Y4621654D01*
D02*
G37*
%LPC*%
G36*
X7551519Y4260734D02*
Y4260549D01*
Y4259994D01*
X7551334Y4259068D01*
X7550963Y4257772D01*
X7550593Y4256476D01*
X7550223Y4254809D01*
X7549667Y4252957D01*
X7549112Y4250921D01*
X7547630Y4246477D01*
X7546149Y4241662D01*
X7544482Y4236478D01*
X7542631Y4231108D01*
X7540964Y4225738D01*
X7539298Y4220553D01*
X7537631Y4215924D01*
X7536150Y4211665D01*
X7535595Y4209629D01*
X7535039Y4207962D01*
X7534484Y4206481D01*
X7533928Y4205185D01*
X7533743Y4204259D01*
X7533373Y4203333D01*
X7533187Y4202963D01*
Y4202777D01*
X7578183D01*
X7566517Y4222405D01*
X7563555Y4228701D01*
X7560962Y4235182D01*
X7558370Y4241662D01*
X7557259Y4244625D01*
X7556148Y4247588D01*
X7555037Y4250365D01*
X7554296Y4252957D01*
X7553370Y4255179D01*
X7552815Y4257216D01*
X7552259Y4258698D01*
X7551889Y4259994D01*
X7551519Y4260734D01*
D02*
G37*
G36*
X7041572Y4264623D02*
X7036572D01*
X7033424Y4264253D01*
X7027684Y4263327D01*
X7022500Y4262031D01*
X7020092Y4261475D01*
X7017870Y4260734D01*
X7015834Y4259994D01*
X7014167Y4259253D01*
X7012686Y4258512D01*
X7011390Y4257957D01*
X7010279Y4257401D01*
X7009538Y4257031D01*
X7009168Y4256846D01*
X7008982Y4256661D01*
X7004168Y4253513D01*
X6999909Y4249995D01*
X6996391Y4246291D01*
X6993428Y4242588D01*
X6991021Y4239440D01*
X6990095Y4237959D01*
X6989355Y4236848D01*
X6988799Y4235922D01*
X6988429Y4234996D01*
X6988059Y4234626D01*
Y4234441D01*
X6985652Y4229071D01*
X6983800Y4223516D01*
X6982504Y4218331D01*
X6981763Y4213517D01*
X6981393Y4211295D01*
X6981208Y4209258D01*
X6981022Y4207592D01*
Y4206110D01*
X6980837Y4204814D01*
Y4203888D01*
Y4203333D01*
Y4203148D01*
X6981208Y4196667D01*
X6982133Y4190557D01*
X6983244Y4184816D01*
X6983985Y4182224D01*
X6984726Y4179632D01*
X6985466Y4177410D01*
X6986207Y4175558D01*
X6986763Y4173706D01*
X6987318Y4172225D01*
X6987874Y4171114D01*
X6988244Y4170188D01*
X6988429Y4169633D01*
X6988614Y4169448D01*
X6991762Y4163893D01*
X6995465Y4158893D01*
X6999169Y4154634D01*
X7001020Y4152783D01*
X7002687Y4151116D01*
X7004353Y4149635D01*
X7006020Y4148339D01*
X7007316Y4147413D01*
X7008612Y4146487D01*
X7009538Y4145746D01*
X7010279Y4145191D01*
X7010834Y4145006D01*
X7011019Y4144821D01*
X7013797Y4143339D01*
X7016574Y4142043D01*
X7022129Y4139821D01*
X7027499Y4138340D01*
X7032499Y4137229D01*
X7034720Y4136858D01*
X7036757Y4136673D01*
X7038609Y4136303D01*
X7040090D01*
X7041386Y4136118D01*
X7043053D01*
X7049163Y4136488D01*
X7054904Y4137414D01*
X7060273Y4138525D01*
X7062681Y4139266D01*
X7064903Y4140006D01*
X7066939Y4140747D01*
X7068791Y4141488D01*
X7070458Y4142043D01*
X7071754Y4142599D01*
X7072865Y4143154D01*
X7073605Y4143524D01*
X7074161Y4143895D01*
X7074346D01*
X7079531Y4147043D01*
X7083975Y4150561D01*
X7087678Y4154079D01*
X7090826Y4157597D01*
X7093048Y4160560D01*
X7094159Y4162041D01*
X7094899Y4163152D01*
X7095455Y4164078D01*
X7095825Y4164818D01*
X7096196Y4165189D01*
Y4165374D01*
X7098603Y4170744D01*
X7100269Y4176114D01*
X7101565Y4181298D01*
X7102306Y4186113D01*
X7102676Y4188149D01*
X7102862Y4190186D01*
X7103047Y4191853D01*
Y4193334D01*
X7103232Y4194630D01*
Y4195556D01*
Y4196111D01*
Y4196297D01*
X7102862Y4203148D01*
X7101936Y4209443D01*
X7100825Y4215369D01*
X7100084Y4217961D01*
X7099343Y4220553D01*
X7098603Y4222775D01*
X7097862Y4224812D01*
X7097307Y4226479D01*
X7096751Y4227960D01*
X7096196Y4229071D01*
X7095825Y4229997D01*
X7095455Y4230552D01*
Y4230738D01*
X7092122Y4236293D01*
X7088604Y4241292D01*
X7084715Y4245551D01*
X7082864Y4247402D01*
X7081197Y4249069D01*
X7079531Y4250550D01*
X7077864Y4251846D01*
X7076568Y4252957D01*
X7075272Y4253883D01*
X7074346Y4254624D01*
X7073420Y4255179D01*
X7073050Y4255365D01*
X7072865Y4255550D01*
X7070087Y4257216D01*
X7067125Y4258512D01*
X7064347Y4259809D01*
X7061384Y4260734D01*
X7055829Y4262401D01*
X7050645Y4263512D01*
X7048423Y4263882D01*
X7046386Y4264067D01*
X7044349Y4264438D01*
X7042868D01*
X7041572Y4264623D01*
D02*
G37*
G36*
X7523188Y4560734D02*
Y4560549D01*
Y4559994D01*
X7523003Y4559068D01*
X7522633Y4557772D01*
X7522263Y4556476D01*
X7521892Y4554809D01*
X7521337Y4552957D01*
X7520781Y4550921D01*
X7519300Y4546477D01*
X7517819Y4541662D01*
X7516152Y4536478D01*
X7514300Y4531108D01*
X7512634Y4525738D01*
X7510967Y4520553D01*
X7509301Y4515924D01*
X7507820Y4511665D01*
X7507264Y4509629D01*
X7506709Y4507962D01*
X7506153Y4506481D01*
X7505598Y4505185D01*
X7505412Y4504259D01*
X7505042Y4503333D01*
X7504857Y4502963D01*
Y4502777D01*
X7549852D01*
X7538187Y4522405D01*
X7535224Y4528701D01*
X7532632Y4535181D01*
X7530040Y4541662D01*
X7528929Y4544625D01*
X7527818Y4547588D01*
X7526707Y4550365D01*
X7525966Y4552957D01*
X7525040Y4555179D01*
X7524485Y4557216D01*
X7523929Y4558698D01*
X7523559Y4559994D01*
X7523188Y4560734D01*
D02*
G37*
G36*
X8248854Y4564623D02*
X8243854D01*
X8240707Y4564252D01*
X8234967Y4563327D01*
X8229782Y4562031D01*
X8227375Y4561475D01*
X8225153Y4560734D01*
X8223116Y4559994D01*
X8221449Y4559253D01*
X8219968Y4558512D01*
X8218672Y4557957D01*
X8217561Y4557401D01*
X8216820Y4557031D01*
X8216450Y4556846D01*
X8216265Y4556661D01*
X8211450Y4553513D01*
X8207192Y4549995D01*
X8203673Y4546291D01*
X8200711Y4542588D01*
X8198304Y4539440D01*
X8197378Y4537959D01*
X8196637Y4536848D01*
X8196082Y4535922D01*
X8195711Y4534996D01*
X8195341Y4534626D01*
Y4534441D01*
X8192934Y4529071D01*
X8191082Y4523516D01*
X8189786Y4518331D01*
X8189045Y4513517D01*
X8188675Y4511295D01*
X8188490Y4509258D01*
X8188305Y4507592D01*
Y4506110D01*
X8188120Y4504814D01*
Y4503888D01*
Y4503333D01*
Y4503148D01*
X8188490Y4496667D01*
X8189416Y4490556D01*
X8190527Y4484816D01*
X8191267Y4482224D01*
X8192008Y4479632D01*
X8192749Y4477410D01*
X8193489Y4475558D01*
X8194045Y4473706D01*
X8194600Y4472225D01*
X8195156Y4471114D01*
X8195526Y4470188D01*
X8195711Y4469633D01*
X8195896Y4469447D01*
X8199044Y4463893D01*
X8202748Y4458893D01*
X8206451Y4454634D01*
X8208303Y4452783D01*
X8209969Y4451116D01*
X8211636Y4449635D01*
X8213302Y4448339D01*
X8214598Y4447413D01*
X8215894Y4446487D01*
X8216820Y4445746D01*
X8217561Y4445191D01*
X8218116Y4445006D01*
X8218302Y4444820D01*
X8221079Y4443339D01*
X8223857Y4442043D01*
X8229412Y4439821D01*
X8234781Y4438340D01*
X8239781Y4437229D01*
X8242003Y4436858D01*
X8244040Y4436673D01*
X8245891Y4436303D01*
X8247373D01*
X8248669Y4436118D01*
X8250335D01*
X8256446Y4436488D01*
X8262186Y4437414D01*
X8267556Y4438525D01*
X8269963Y4439265D01*
X8272185Y4440006D01*
X8274222Y4440747D01*
X8276073Y4441487D01*
X8277740Y4442043D01*
X8279036Y4442598D01*
X8280147Y4443154D01*
X8280888Y4443524D01*
X8281443Y4443895D01*
X8281628D01*
X8286813Y4447042D01*
X8291257Y4450561D01*
X8294960Y4454079D01*
X8298108Y4457597D01*
X8300330Y4460560D01*
X8301441Y4462041D01*
X8302182Y4463152D01*
X8302737Y4464078D01*
X8303108Y4464818D01*
X8303478Y4465189D01*
Y4465374D01*
X8305885Y4470744D01*
X8307552Y4476113D01*
X8308848Y4481298D01*
X8309588Y4486112D01*
X8309959Y4488149D01*
X8310144Y4490186D01*
X8310329Y4491853D01*
Y4493334D01*
X8310514Y4494630D01*
Y4495556D01*
Y4496111D01*
Y4496297D01*
X8310144Y4503148D01*
X8309218Y4509443D01*
X8308107Y4515369D01*
X8307366Y4517961D01*
X8306626Y4520553D01*
X8305885Y4522775D01*
X8305144Y4524812D01*
X8304589Y4526479D01*
X8304033Y4527960D01*
X8303478Y4529071D01*
X8303108Y4529997D01*
X8302737Y4530552D01*
Y4530737D01*
X8299404Y4536292D01*
X8295886Y4541292D01*
X8291998Y4545551D01*
X8290146Y4547402D01*
X8288479Y4549069D01*
X8286813Y4550550D01*
X8285146Y4551846D01*
X8283850Y4552957D01*
X8282554Y4553883D01*
X8281628Y4554624D01*
X8280703Y4555179D01*
X8280332Y4555365D01*
X8280147Y4555550D01*
X8277370Y4557216D01*
X8274407Y4558512D01*
X8271629Y4559809D01*
X8268667Y4560734D01*
X8263112Y4562401D01*
X8257927Y4563512D01*
X8255705Y4563882D01*
X8253668Y4564067D01*
X8251631Y4564438D01*
X8250150D01*
X8248854Y4564623D01*
D02*
G37*
%LPD*%
D53*
X9632391Y3999989D02*
Y3923815D01*
X9637152Y3909532D01*
X9641913Y3904772D01*
X9651435Y3900011D01*
X9660956D01*
X9670478Y3904772D01*
X9675239Y3909532D01*
X9680000Y3923815D01*
Y3933337D01*
X9606682Y3966663D02*
Y3919054D01*
X9601921Y3904772D01*
X9592400Y3900011D01*
X9578117D01*
X9568595Y3904772D01*
X9554313Y3919054D01*
Y3966663D02*
Y3900011D01*
X9470997Y3999989D02*
Y3900011D01*
Y3952380D02*
X9480519Y3961902D01*
X9490041Y3966663D01*
X9504323D01*
X9513845Y3961902D01*
X9523367Y3952380D01*
X9528128Y3938098D01*
Y3928576D01*
X9523367Y3914293D01*
X9513845Y3904772D01*
X9504323Y3900011D01*
X9490041D01*
X9480519Y3904772D01*
X9470997Y3914293D01*
X9387206Y3999989D02*
Y3900011D01*
Y3952380D02*
X9396727Y3961902D01*
X9406249Y3966663D01*
X9420532D01*
X9430054Y3961902D01*
X9439575Y3952380D01*
X9444336Y3938098D01*
Y3928576D01*
X9439575Y3914293D01*
X9430054Y3904772D01*
X9420532Y3900011D01*
X9406249D01*
X9396727Y3904772D01*
X9387206Y3914293D01*
X9281990Y3999989D02*
Y3900011D01*
Y3999989D02*
X9220099D01*
X9281990Y3952380D02*
X9243903D01*
X9184868Y3966663D02*
X9194390Y3961902D01*
X9203911Y3952380D01*
X9208672Y3938098D01*
Y3928576D01*
X9203911Y3914293D01*
X9194390Y3904772D01*
X9184868Y3900011D01*
X9170585D01*
X9161063Y3904772D01*
X9151542Y3914293D01*
X9146781Y3928576D01*
Y3938098D01*
X9151542Y3952380D01*
X9161063Y3961902D01*
X9170585Y3966663D01*
X9184868D01*
X9072511Y3952380D02*
X9077272Y3961902D01*
X9091555Y3966663D01*
X9105837D01*
X9120120Y3961902D01*
X9124881Y3952380D01*
X9120120Y3942859D01*
X9110598Y3938098D01*
X9086794Y3933337D01*
X9077272Y3928576D01*
X9072511Y3919054D01*
Y3914293D01*
X9077272Y3904772D01*
X9091555Y3900011D01*
X9105837D01*
X9120120Y3904772D01*
X9124881Y3914293D01*
X9037281Y3999989D02*
Y3919054D01*
X9032520Y3904772D01*
X9022998Y3900011D01*
X9013476D01*
X9051563Y3966663D02*
X9018237D01*
X8999194Y3938098D02*
X8942063D01*
Y3947620D01*
X8946824Y3957141D01*
X8951585Y3961902D01*
X8961107Y3966663D01*
X8975389D01*
X8984911Y3961902D01*
X8994433Y3952380D01*
X8999194Y3938098D01*
Y3928576D01*
X8994433Y3914293D01*
X8984911Y3904772D01*
X8975389Y3900011D01*
X8961107D01*
X8951585Y3904772D01*
X8942063Y3914293D01*
X8920639Y3966663D02*
Y3900011D01*
Y3938098D02*
X8915878Y3952380D01*
X8906356Y3961902D01*
X8896835Y3966663D01*
X8882552D01*
X8794952Y3999989D02*
Y3900011D01*
X8695449Y3999989D02*
Y3900011D01*
Y3999989D02*
X8652601D01*
X8638319Y3995228D01*
X8633558Y3990468D01*
X8628797Y3980946D01*
Y3971424D01*
X8633558Y3961902D01*
X8638319Y3957141D01*
X8652601Y3952380D01*
X8695449D01*
X8662123D02*
X8628797Y3900011D01*
X8606421Y3938098D02*
X8549290D01*
Y3947620D01*
X8554051Y3957141D01*
X8558812Y3961902D01*
X8568334Y3966663D01*
X8582616D01*
X8592138Y3961902D01*
X8601660Y3952380D01*
X8606421Y3938098D01*
Y3928576D01*
X8601660Y3914293D01*
X8592138Y3904772D01*
X8582616Y3900011D01*
X8568334D01*
X8558812Y3904772D01*
X8549290Y3914293D01*
X8527866Y3966663D02*
X8499301Y3900011D01*
X8470735Y3966663D02*
X8499301Y3900011D01*
X8299820D02*
X8337907Y3999989D01*
X8375994Y3900011D01*
X8361711Y3933337D02*
X8314102D01*
X8197937Y3999989D02*
Y3900011D01*
X8050825Y3999989D02*
Y3923815D01*
X8055586Y3909532D01*
X8060347Y3904772D01*
X8069869Y3900011D01*
X8079391D01*
X8088913Y3904772D01*
X8093673Y3909532D01*
X8098434Y3923815D01*
Y3933337D01*
X7967986Y3966663D02*
Y3900011D01*
Y3952380D02*
X7977508Y3961902D01*
X7987030Y3966663D01*
X8001312D01*
X8010834Y3961902D01*
X8020356Y3952380D01*
X8025117Y3938098D01*
Y3928576D01*
X8020356Y3914293D01*
X8010834Y3904772D01*
X8001312Y3900011D01*
X7987030D01*
X7977508Y3904772D01*
X7967986Y3914293D01*
X7941325Y3966663D02*
Y3900011D01*
Y3947620D02*
X7927043Y3961902D01*
X7917521Y3966663D01*
X7903238D01*
X7893716Y3961902D01*
X7888956Y3947620D01*
Y3900011D01*
X7779455Y3976185D02*
Y3980946D01*
X7774694Y3990468D01*
X7769933Y3995228D01*
X7760412Y3999989D01*
X7741368D01*
X7731846Y3995228D01*
X7727085Y3990468D01*
X7722325Y3980946D01*
Y3971424D01*
X7727085Y3961902D01*
X7736607Y3947620D01*
X7784216Y3900011D01*
X7717564D01*
X7666622Y3999989D02*
X7680905Y3995228D01*
X7690427Y3980946D01*
X7695188Y3957141D01*
Y3942859D01*
X7690427Y3919054D01*
X7680905Y3904772D01*
X7666622Y3900011D01*
X7657101D01*
X7642818Y3904772D01*
X7633296Y3919054D01*
X7628535Y3942859D01*
Y3957141D01*
X7633296Y3980946D01*
X7642818Y3995228D01*
X7657101Y3999989D01*
X7666622D01*
X7601398Y3976185D02*
Y3980946D01*
X7596637Y3990468D01*
X7591876Y3995228D01*
X7582355Y3999989D01*
X7563311D01*
X7553789Y3995228D01*
X7549028Y3990468D01*
X7544268Y3980946D01*
Y3971424D01*
X7549028Y3961902D01*
X7558550Y3947620D01*
X7606159Y3900011D01*
X7539507D01*
X7460000Y3999989D02*
X7507609D01*
X7512370Y3957141D01*
X7507609Y3961902D01*
X7493326Y3966663D01*
X7479043D01*
X7464761Y3961902D01*
X7455239Y3952380D01*
X7450478Y3938098D01*
Y3928576D01*
X7455239Y3914293D01*
X7464761Y3904772D01*
X7479043Y3900011D01*
X7493326D01*
X7507609Y3904772D01*
X7512370Y3909532D01*
X7517131Y3919054D01*
%TF.MD5,45a65793f3733e4a3b4859d6df6f9db5*%
M02*
