%TF.GenerationSoftware,Altium Limited,Altium Designer,25.1.2 (22)*%
G04 Layer_Physical_Order=4*
G04 Layer_Color=16776960*
%FSLAX45Y45*%
%MOMM*%
%TF.SameCoordinates,CB1A417E-7DD8-4276-B15B-71DB2DCBA6F7*%
%TF.FilePolarity,Positive*%
%TF.FileFunction,Copper,L4,Bot,Signal*%
%TF.Part,Single*%
G01*
G75*
%TA.AperFunction,Conductor*%
%ADD10C,0.20000*%
%TA.AperFunction,ComponentPad*%
%ADD43O,2.44000X3.60000*%
%TA.AperFunction,ViaPad*%
%ADD44C,10.00000*%
%TA.AperFunction,ComponentPad*%
%ADD45C,2.00000*%
%ADD46C,4.00000*%
%ADD47C,1.50000*%
%TA.AperFunction,ViaPad*%
%ADD48C,0.60000*%
G36*
X5572000Y4137499D02*
X5572000D01*
Y4126601D01*
X5571287Y4104816D01*
X5569861Y4083066D01*
X5567724Y4061374D01*
X5564879Y4039764D01*
X5561329Y4018258D01*
X5557077Y3996880D01*
X5552127Y3975653D01*
X5546485Y3954599D01*
X5540158Y3933740D01*
X5533152Y3913101D01*
X5525474Y3892701D01*
X5517133Y3872563D01*
X5508137Y3852709D01*
X5498496Y3833160D01*
X5488222Y3813938D01*
X5477323Y3795061D01*
X5465813Y3776551D01*
X5453704Y3758428D01*
X5441007Y3740710D01*
X5427738Y3723418D01*
X5413911Y3706569D01*
X5399539Y3690181D01*
X5384639Y3674272D01*
X5369226Y3658860D01*
X5353318Y3643959D01*
X5336930Y3629588D01*
X5320081Y3615760D01*
X5302788Y3602491D01*
X5285071Y3589795D01*
X5266948Y3577686D01*
X5248438Y3566175D01*
X5229561Y3555277D01*
X5210338Y3545002D01*
X5190789Y3535361D01*
X5170935Y3526366D01*
X5150798Y3518024D01*
X5130398Y3510347D01*
X5109758Y3503340D01*
X5088900Y3497013D01*
X5067846Y3491372D01*
X5046618Y3486422D01*
X5025240Y3482170D01*
X5003735Y3478619D01*
X4982125Y3475774D01*
X4960433Y3473638D01*
X4938683Y3472212D01*
X4916898Y3471499D01*
X4905999D01*
Y3471499D01*
X4900390Y3471420D01*
X4889189Y3470791D01*
X4878041Y3469535D01*
X4866981Y3467655D01*
X4856044Y3465159D01*
X4845264Y3462054D01*
X4834675Y3458348D01*
X4824310Y3454055D01*
X4814203Y3449187D01*
X4804384Y3443761D01*
X4794885Y3437792D01*
X4785736Y3431300D01*
X4776965Y3424306D01*
X4768600Y3416831D01*
X4760667Y3408898D01*
X4753192Y3400533D01*
X4746197Y3391762D01*
X4739705Y3382612D01*
X4733737Y3373114D01*
X4728310Y3363295D01*
X4723443Y3353187D01*
X4719150Y3342823D01*
X4715444Y3332234D01*
X4712339Y3321454D01*
X4709842Y3310517D01*
X4707963Y3299457D01*
X4706707Y3288309D01*
X4706078Y3277108D01*
X4705999Y3271499D01*
X4705999Y2700000D01*
X4705999D01*
X4706078Y2694391D01*
X4706707Y2683190D01*
X4707963Y2672042D01*
X4709842Y2660982D01*
X4712339Y2650045D01*
X4715444Y2639265D01*
X4719150Y2628676D01*
X4723443Y2618311D01*
X4728310Y2608204D01*
X4733737Y2598385D01*
X4739705Y2588886D01*
X4746197Y2579737D01*
X4753192Y2570966D01*
X4760667Y2562601D01*
X4768600Y2554668D01*
X4776965Y2547193D01*
X4785736Y2540198D01*
X4794885Y2533706D01*
X4804384Y2527738D01*
X4814203Y2522311D01*
X4824310Y2517444D01*
X4834675Y2513150D01*
X4845264Y2509445D01*
X4856044Y2506339D01*
X4866981Y2503843D01*
X4878041Y2501964D01*
X4889189Y2500708D01*
X4900390Y2500079D01*
X4905999Y2500000D01*
X6485000Y2500000D01*
Y1100000D01*
X4794001D01*
Y1100000D01*
X4784182D01*
X4764560Y1100771D01*
X4744983Y1102312D01*
X4725482Y1104620D01*
X4706086Y1107692D01*
X4686826Y1111523D01*
X4667731Y1116107D01*
X4648831Y1121438D01*
X4630154Y1127506D01*
X4611731Y1134303D01*
X4593588Y1141818D01*
X4575754Y1150039D01*
X4558257Y1158955D01*
X4541124Y1168550D01*
X4524380Y1178810D01*
X4508052Y1189720D01*
X4492165Y1201263D01*
X4476743Y1213420D01*
X4461811Y1226174D01*
X4447391Y1239504D01*
X4433505Y1253390D01*
X4420175Y1267810D01*
X4407421Y1282742D01*
X4395264Y1298164D01*
X4383721Y1314051D01*
X4372811Y1330379D01*
X4362551Y1347123D01*
X4352955Y1364256D01*
X4344040Y1381753D01*
X4335819Y1399587D01*
X4328304Y1417730D01*
X4321507Y1436153D01*
X4315439Y1454830D01*
X4310108Y1473730D01*
X4305524Y1492825D01*
X4301693Y1512085D01*
X4298621Y1531481D01*
X4296313Y1550982D01*
X4294772Y1570559D01*
X4294001Y1590181D01*
Y1600000D01*
X4294001Y3271499D01*
X4294001D01*
X4293922Y3277108D01*
X4293293Y3288309D01*
X4292037Y3299457D01*
X4290158Y3310517D01*
X4287661Y3321454D01*
X4284556Y3332234D01*
X4280850Y3342823D01*
X4276557Y3353187D01*
X4271690Y3363295D01*
X4266263Y3373114D01*
X4260295Y3382612D01*
X4253803Y3391762D01*
X4246808Y3400533D01*
X4239333Y3408898D01*
X4231400Y3416831D01*
X4223035Y3424306D01*
X4214264Y3431300D01*
X4205115Y3437792D01*
X4195616Y3443761D01*
X4185797Y3449187D01*
X4175690Y3454055D01*
X4165325Y3458348D01*
X4154736Y3462054D01*
X4143956Y3465159D01*
X4133019Y3467655D01*
X4121959Y3469535D01*
X4110811Y3470791D01*
X4099610Y3471420D01*
X4094001Y3471499D01*
X3494001Y3471499D01*
Y3471499D01*
X3483102D01*
X3461317Y3472212D01*
X3439567Y3473638D01*
X3417875Y3475774D01*
X3396265Y3478619D01*
X3374759Y3482170D01*
X3353381Y3486422D01*
X3332154Y3491372D01*
X3311100Y3497013D01*
X3290242Y3503340D01*
X3269602Y3510347D01*
X3249202Y3518024D01*
X3229064Y3526366D01*
X3209210Y3535361D01*
X3189662Y3545002D01*
X3170439Y3555277D01*
X3151562Y3566175D01*
X3133052Y3577686D01*
X3114929Y3589795D01*
X3097211Y3602491D01*
X3079919Y3615760D01*
X3063070Y3629588D01*
X3046682Y3643959D01*
X3030773Y3658860D01*
X3015361Y3674272D01*
X3000461Y3690181D01*
X2986089Y3706569D01*
X2972261Y3723418D01*
X2958992Y3740710D01*
X2946296Y3758428D01*
X2934187Y3776551D01*
X2922676Y3795061D01*
X2911778Y3813938D01*
X2901503Y3833160D01*
X2891863Y3852709D01*
X2882867Y3872563D01*
X2874526Y3892701D01*
X2866848Y3913101D01*
X2859841Y3933740D01*
X2853514Y3954599D01*
X2847873Y3975653D01*
X2842923Y3996880D01*
X2838671Y4018258D01*
X2835120Y4039764D01*
X2832275Y4061374D01*
X2830139Y4083066D01*
X2828713Y4104816D01*
X2828000Y4126601D01*
Y4137499D01*
X2828000Y4195500D01*
X3072000D01*
Y4137499D01*
X3072000D01*
X3072081Y4129214D01*
X3072732Y4112656D01*
X3074032Y4096136D01*
X3075980Y4079680D01*
X3078572Y4063313D01*
X3081805Y4047061D01*
X3085673Y4030948D01*
X3090171Y4014999D01*
X3095292Y3999239D01*
X3101027Y3983693D01*
X3107369Y3968383D01*
X3114306Y3953334D01*
X3121829Y3938570D01*
X3129926Y3924112D01*
X3138585Y3909983D01*
X3147791Y3896205D01*
X3157531Y3882798D01*
X3167790Y3869785D01*
X3178552Y3857185D01*
X3189800Y3845016D01*
X3201517Y3833299D01*
X3213686Y3822051D01*
X3226286Y3811289D01*
X3239300Y3801030D01*
X3252706Y3791290D01*
X3266484Y3782083D01*
X3280613Y3773425D01*
X3295071Y3765328D01*
X3309836Y3757805D01*
X3324884Y3750868D01*
X3340194Y3744526D01*
X3355740Y3738791D01*
X3371500Y3733670D01*
X3387449Y3729172D01*
X3403562Y3725304D01*
X3419814Y3722071D01*
X3436181Y3719479D01*
X3452637Y3717531D01*
X3469157Y3716231D01*
X3485715Y3715580D01*
X3494001Y3715499D01*
X4906000Y3715499D01*
X4914285Y3715580D01*
X4930843Y3716231D01*
X4947363Y3717531D01*
X4963819Y3719478D01*
X4980186Y3722071D01*
X4996438Y3725303D01*
X5012551Y3729172D01*
X5028500Y3733670D01*
X5044260Y3738791D01*
X5059806Y3744526D01*
X5075116Y3750867D01*
X5090165Y3757805D01*
X5104929Y3765328D01*
X5119387Y3773425D01*
X5133516Y3782083D01*
X5147295Y3791289D01*
X5160701Y3801029D01*
X5173714Y3811288D01*
X5186314Y3822050D01*
X5198483Y3833298D01*
X5210200Y3845016D01*
X5221449Y3857184D01*
X5232210Y3869785D01*
X5242469Y3882798D01*
X5252209Y3896204D01*
X5261416Y3909982D01*
X5270074Y3924111D01*
X5278171Y3938569D01*
X5285694Y3953334D01*
X5292631Y3968383D01*
X5298973Y3983692D01*
X5304708Y3999239D01*
X5309829Y4014999D01*
X5314327Y4030947D01*
X5318195Y4047060D01*
X5321428Y4063313D01*
X5324020Y4079679D01*
X5325968Y4096135D01*
X5327268Y4112655D01*
X5327918Y4129213D01*
X5328000Y4137499D01*
Y4195500D01*
X5572000D01*
Y4137499D01*
D02*
G37*
G36*
X3040000Y3520000D02*
Y3275000D01*
X2460000D01*
Y3640000D01*
X2920000D01*
X3040000Y3520000D01*
D02*
G37*
G36*
X4004500Y2655500D02*
X3315500D01*
Y3244500D01*
X4004500D01*
Y2655500D01*
D02*
G37*
G36*
X6172500Y2655500D02*
X5483500D01*
Y3244500D01*
X6172500D01*
Y2655500D01*
D02*
G37*
G36*
X9048065Y2599239D02*
X9056664Y2597723D01*
X9065099Y2595463D01*
X9073305Y2592476D01*
X9081219Y2588786D01*
X9088781Y2584420D01*
X9095934Y2579411D01*
X9102623Y2573798D01*
X9108798Y2567623D01*
X9114411Y2560934D01*
X9119419Y2553781D01*
X9123785Y2546219D01*
X9127476Y2538305D01*
X9130463Y2530099D01*
X9132722Y2521665D01*
X9134239Y2513065D01*
X9135000Y2504366D01*
Y2495634D01*
X9134239Y2486935D01*
X9132722Y2478335D01*
X9130463Y2469901D01*
X9127476Y2461695D01*
X9123785Y2453781D01*
X9119419Y2446219D01*
X9114411Y2439066D01*
X9108798Y2432377D01*
X9102623Y2426202D01*
X9095934Y2420589D01*
X9088781Y2415580D01*
X9081219Y2411214D01*
X9073305Y2407524D01*
X9065099Y2404537D01*
X9056664Y2402277D01*
X9048065Y2400761D01*
X9039366Y2400000D01*
X8735000D01*
X8735000Y2400000D01*
X8730477Y2399948D01*
X8721440Y2399540D01*
X8712430Y2398722D01*
X8703467Y2397498D01*
X8694568Y2395870D01*
X8685753Y2393842D01*
X8677037Y2391416D01*
X8668441Y2388599D01*
X8659980Y2385397D01*
X8651673Y2381815D01*
X8643537Y2377861D01*
X8635588Y2373543D01*
X8631688Y2371250D01*
X8631688Y2371250D01*
X8627814Y2368913D01*
X8619863Y2364594D01*
X8611724Y2360639D01*
X8603415Y2357056D01*
X8594952Y2353852D01*
X8586353Y2351035D01*
X8577636Y2348609D01*
X8568818Y2346579D01*
X8559917Y2344951D01*
X8550951Y2343727D01*
X8541940Y2342909D01*
X8532900Y2342500D01*
X7036192D01*
X7028614Y2343246D01*
X7021146Y2344732D01*
X7013859Y2346942D01*
X7006824Y2349856D01*
X7000108Y2353446D01*
X6993777Y2357676D01*
X6987891Y2362507D01*
X6982506Y2367891D01*
X6977676Y2373778D01*
X6973445Y2380109D01*
X6969856Y2386824D01*
X6966942Y2393859D01*
X6964732Y2401146D01*
X6963246Y2408614D01*
X6962500Y2416193D01*
Y2420000D01*
Y2522500D01*
Y2526307D01*
X6963246Y2533885D01*
X6964732Y2541354D01*
X6966942Y2548641D01*
X6969856Y2555676D01*
X6973445Y2562391D01*
X6977676Y2568722D01*
X6982506Y2574609D01*
X6987891Y2579993D01*
X6993777Y2584824D01*
X7000108Y2589054D01*
X7006824Y2592644D01*
X7013859Y2595558D01*
X7021146Y2597768D01*
X7028614Y2599254D01*
X7036192Y2600000D01*
X9039366D01*
X9048065Y2599239D01*
D02*
G37*
G36*
X8541940Y2057090D02*
X8550951Y2056273D01*
X8559917Y2055048D01*
X8568818Y2053420D01*
X8577636Y2051391D01*
X8586354Y2048965D01*
X8594952Y2046148D01*
X8603415Y2042944D01*
X8611724Y2039361D01*
X8619863Y2035406D01*
X8627814Y2031087D01*
X8631688Y2028750D01*
X8635588Y2026457D01*
X8643537Y2022139D01*
X8651673Y2018185D01*
X8659980Y2014603D01*
X8668441Y2011400D01*
X8677037Y2008583D01*
X8685753Y2006158D01*
X8694568Y2004129D01*
X8703467Y2002501D01*
X8712430Y2001277D01*
X8721440Y2000460D01*
X8730477Y2000051D01*
X8735000Y2000000D01*
X9039366D01*
X9048065Y1999239D01*
X9056664Y1997722D01*
X9065099Y1995463D01*
X9073305Y1992476D01*
X9081219Y1988785D01*
X9088781Y1984419D01*
X9095934Y1979411D01*
X9102623Y1973798D01*
X9108798Y1967623D01*
X9114411Y1960934D01*
X9119419Y1953781D01*
X9123785Y1946219D01*
X9127476Y1938305D01*
X9130463Y1930099D01*
X9132722Y1921664D01*
X9134239Y1913065D01*
X9135000Y1904366D01*
Y1895634D01*
X9134239Y1886935D01*
X9132722Y1878335D01*
X9130463Y1869901D01*
X9127476Y1861695D01*
X9123785Y1853781D01*
X9119419Y1846219D01*
X9114411Y1839066D01*
X9108798Y1832377D01*
X9102623Y1826202D01*
X9095934Y1820589D01*
X9088781Y1815580D01*
X9081219Y1811214D01*
X9073305Y1807524D01*
X9065099Y1804537D01*
X9056664Y1802277D01*
X9048065Y1800761D01*
X9039366Y1800000D01*
X8337150D01*
X8333224Y1799923D01*
X8325396Y1799307D01*
X8317641Y1798078D01*
X8310006Y1796245D01*
X8302538Y1793819D01*
X8295284Y1790814D01*
X8288288Y1787249D01*
X8281593Y1783147D01*
X8275241Y1778532D01*
X8269270Y1773432D01*
X8263718Y1767880D01*
X8258618Y1761909D01*
X8254003Y1755557D01*
X8249900Y1748862D01*
X8246336Y1741866D01*
X8243331Y1734611D01*
X8240905Y1727144D01*
X8239071Y1719509D01*
X8237843Y1711753D01*
X8237227Y1703926D01*
X8237150Y1700000D01*
Y1413050D01*
Y1409121D01*
X8236533Y1401287D01*
X8235304Y1393526D01*
X8233470Y1385885D01*
X8231041Y1378411D01*
X8228034Y1371151D01*
X8224467Y1364150D01*
X8220361Y1357450D01*
X8215742Y1351093D01*
X8210639Y1345117D01*
X8205082Y1339561D01*
X8199107Y1334457D01*
X8192750Y1329839D01*
X8186050Y1325733D01*
X8179048Y1322165D01*
X8171788Y1319158D01*
X8164315Y1316730D01*
X8156674Y1314895D01*
X8148913Y1313666D01*
X8141079Y1313050D01*
X7858921D01*
X7851087Y1313666D01*
X7843326Y1314895D01*
X7835685Y1316730D01*
X7828211Y1319158D01*
X7820952Y1322165D01*
X7813950Y1325733D01*
X7807250Y1329839D01*
X7800893Y1334457D01*
X7794917Y1339561D01*
X7789361Y1345117D01*
X7784257Y1351093D01*
X7779639Y1357450D01*
X7775533Y1364150D01*
X7771965Y1371151D01*
X7768958Y1378411D01*
X7766530Y1385885D01*
X7764695Y1393526D01*
X7763466Y1401287D01*
X7762850Y1409121D01*
Y1413050D01*
Y1802500D01*
X7762773Y1806425D01*
X7762157Y1814253D01*
X7760928Y1822009D01*
X7759095Y1829644D01*
X7756669Y1837111D01*
X7753664Y1844365D01*
X7750099Y1851362D01*
X7745997Y1858056D01*
X7741382Y1864409D01*
X7736282Y1870380D01*
X7730730Y1875932D01*
X7724759Y1881031D01*
X7718407Y1885646D01*
X7711712Y1889749D01*
X7704716Y1893314D01*
X7697461Y1896319D01*
X7689994Y1898745D01*
X7682359Y1900578D01*
X7674603Y1901806D01*
X7666776Y1902422D01*
X7662850Y1902500D01*
X7036192D01*
X7028614Y1903246D01*
X7021146Y1904732D01*
X7013859Y1906942D01*
X7006824Y1909856D01*
X7000108Y1913445D01*
X6993777Y1917676D01*
X6987891Y1922506D01*
X6982506Y1927891D01*
X6977676Y1933777D01*
X6973445Y1940108D01*
X6969856Y1946824D01*
X6966942Y1953859D01*
X6964732Y1961146D01*
X6963246Y1968614D01*
X6962500Y1976192D01*
Y1983807D01*
X6963246Y1991385D01*
X6964732Y1998853D01*
X6966942Y2006140D01*
X6969856Y2013175D01*
X6973445Y2019891D01*
X6977676Y2026222D01*
X6982506Y2032108D01*
X6987891Y2037492D01*
X6993777Y2042323D01*
X7000108Y2046554D01*
X7006824Y2050143D01*
X7013859Y2053057D01*
X7021146Y2055267D01*
X7028614Y2056753D01*
X7036192Y2057500D01*
X8532900D01*
X8541940Y2057090D01*
D02*
G37*
G36*
X3980000Y260000D02*
X3115000D01*
Y540000D01*
X3980000D01*
Y260000D01*
D02*
G37*
G36*
X8148913Y1086333D02*
X8156674Y1085104D01*
X8164315Y1083269D01*
X8171788Y1080841D01*
X8179048Y1077834D01*
X8186050Y1074267D01*
X8192750Y1070161D01*
X8199107Y1065542D01*
X8205082Y1060439D01*
X8210639Y1054882D01*
X8215742Y1048907D01*
X8220361Y1042550D01*
X8224467Y1035850D01*
X8228034Y1028848D01*
X8231041Y1021588D01*
X8233470Y1014115D01*
X8235304Y1006474D01*
X8236533Y998713D01*
X8237150Y990879D01*
Y986950D01*
Y737150D01*
Y726898D01*
X8236418Y706406D01*
X8234955Y685954D01*
X8232764Y665567D01*
X8229845Y645270D01*
X8226205Y625092D01*
X8221846Y605056D01*
X8216775Y585188D01*
X8210998Y565514D01*
X8204523Y546059D01*
X8197357Y526847D01*
X8189511Y507903D01*
X8180993Y489251D01*
X8171814Y470915D01*
X8161987Y452919D01*
X8151525Y435285D01*
X8140439Y418035D01*
X8128745Y401192D01*
X8116457Y384777D01*
X8103591Y368812D01*
X8090163Y353315D01*
X8076191Y338308D01*
X8061692Y323809D01*
X8046685Y309837D01*
X8031188Y296409D01*
X8015222Y283543D01*
X7998808Y271255D01*
X7981965Y259561D01*
X7964715Y248475D01*
X7947081Y238012D01*
X7929084Y228185D01*
X7910748Y219007D01*
X7892097Y210489D01*
X7873153Y202642D01*
X7853941Y195477D01*
X7834486Y189001D01*
X7814812Y183224D01*
X7794944Y178154D01*
X7774908Y173795D01*
X7754729Y170154D01*
X7734433Y167236D01*
X7714046Y165044D01*
X7693594Y163582D01*
X7673102Y162850D01*
X7509121D01*
X7501287Y163466D01*
X7493526Y164695D01*
X7485885Y166530D01*
X7478411Y168958D01*
X7471151Y171965D01*
X7464150Y175533D01*
X7457450Y179639D01*
X7451093Y184257D01*
X7445117Y189361D01*
X7439561Y194917D01*
X7434457Y200893D01*
X7429839Y207250D01*
X7425733Y213950D01*
X7422165Y220952D01*
X7419158Y228211D01*
X7416730Y235685D01*
X7414895Y243326D01*
X7413666Y251087D01*
X7413050Y258921D01*
Y262850D01*
Y537150D01*
Y541079D01*
X7413666Y548913D01*
X7414895Y556674D01*
X7416730Y564315D01*
X7419158Y571788D01*
X7422165Y579048D01*
X7425733Y586050D01*
X7429839Y592750D01*
X7434457Y599107D01*
X7439561Y605082D01*
X7445117Y610639D01*
X7451093Y615742D01*
X7457450Y620361D01*
X7464150Y624467D01*
X7471151Y628034D01*
X7478411Y631041D01*
X7485885Y633470D01*
X7493526Y635304D01*
X7501287Y636533D01*
X7509121Y637150D01*
X7662850D01*
X7666776Y637227D01*
X7674603Y637843D01*
X7682359Y639071D01*
X7689994Y640904D01*
X7697461Y643331D01*
X7704716Y646336D01*
X7711712Y649900D01*
X7718407Y654003D01*
X7724759Y658618D01*
X7730730Y663718D01*
X7736282Y669270D01*
X7741382Y675241D01*
X7745997Y681593D01*
X7750099Y688288D01*
X7753664Y695284D01*
X7756669Y702538D01*
X7759095Y710006D01*
X7760928Y717641D01*
X7762157Y725396D01*
X7762773Y733224D01*
X7762850Y737150D01*
Y986950D01*
Y990879D01*
X7763466Y998713D01*
X7764695Y1006474D01*
X7766530Y1014115D01*
X7768958Y1021588D01*
X7771965Y1028848D01*
X7775533Y1035850D01*
X7779639Y1042550D01*
X7784257Y1048907D01*
X7789361Y1054882D01*
X7794917Y1060439D01*
X7800893Y1065542D01*
X7807250Y1070161D01*
X7813950Y1074267D01*
X7820952Y1077834D01*
X7828211Y1080841D01*
X7835685Y1083269D01*
X7843326Y1085104D01*
X7851087Y1086333D01*
X7858921Y1086950D01*
X8141079D01*
X8148913Y1086333D01*
D02*
G37*
G36*
X7086950Y637150D02*
X7090879D01*
X7098713Y636533D01*
X7106474Y635304D01*
X7114115Y633469D01*
X7121588Y631041D01*
X7128848Y628034D01*
X7135850Y624467D01*
X7142550Y620361D01*
X7148907Y615742D01*
X7154882Y610639D01*
X7160439Y605082D01*
X7165542Y599107D01*
X7170161Y592750D01*
X7174267Y586050D01*
X7177834Y579048D01*
X7180841Y571788D01*
X7183269Y564315D01*
X7185104Y556674D01*
X7186333Y548913D01*
X7186950Y541079D01*
Y537150D01*
X7186950D01*
X7186950Y262850D01*
Y258920D01*
X7186333Y251087D01*
X7185104Y243325D01*
X7183269Y235685D01*
X7180841Y228211D01*
X7177834Y220951D01*
X7174267Y213950D01*
X7170161Y207250D01*
X7165542Y200892D01*
X7160439Y194917D01*
X7154882Y189361D01*
X7148907Y184257D01*
X7142549Y179638D01*
X7135849Y175533D01*
X7128848Y171965D01*
X7121588Y168958D01*
X7114115Y166530D01*
X7106474Y164695D01*
X7098712Y163466D01*
X7090879Y162850D01*
X7086950Y162850D01*
X6781175D01*
X6770515Y163419D01*
X6759901Y164556D01*
X6749362Y166258D01*
X6738930Y168519D01*
X6728632Y171334D01*
X6718500Y174694D01*
X6708561Y178589D01*
X6698844Y183009D01*
X6689377Y187941D01*
X6680186Y193371D01*
X6671298Y199283D01*
X6662738Y205661D01*
X6654530Y212487D01*
X6646698Y219740D01*
X6639264Y227401D01*
X6635756Y231425D01*
X6632196Y235400D01*
X6624765Y243058D01*
X6616935Y250309D01*
X6608731Y257132D01*
X6600173Y263508D01*
X6591289Y269418D01*
X6582101Y274846D01*
X6572637Y279776D01*
X6562923Y284195D01*
X6552988Y288089D01*
X6542859Y291447D01*
X6532566Y294261D01*
X6522137Y296521D01*
X6511602Y298222D01*
X6500991Y299359D01*
X6490335Y299928D01*
X6485000Y299999D01*
X6485000Y300000D01*
X6205634D01*
X6196935Y300761D01*
X6188335Y302277D01*
X6179901Y304537D01*
X6171695Y307524D01*
X6163781Y311214D01*
X6156219Y315580D01*
X6149066Y320589D01*
X6142377Y326202D01*
X6136202Y332377D01*
X6130589Y339066D01*
X6125580Y346219D01*
X6121214Y353781D01*
X6117524Y361695D01*
X6114537Y369901D01*
X6112277Y378335D01*
X6110761Y386935D01*
X6110000Y395634D01*
Y404366D01*
X6110761Y413065D01*
X6112277Y421664D01*
X6114537Y430099D01*
X6117524Y438305D01*
X6121214Y446219D01*
X6125580Y453781D01*
X6130589Y460934D01*
X6136202Y467623D01*
X6142377Y473798D01*
X6149066Y479411D01*
X6156219Y484419D01*
X6163781Y488785D01*
X6171695Y492476D01*
X6179901Y495463D01*
X6188335Y497722D01*
X6196935Y499239D01*
X6205634Y500000D01*
X6485000D01*
X6490336Y500071D01*
X6500992Y500640D01*
X6511602Y501777D01*
X6522137Y503478D01*
X6532566Y505738D01*
X6542860Y508552D01*
X6552988Y511911D01*
X6562924Y515805D01*
X6572637Y520223D01*
X6582101Y525153D01*
X6591289Y530581D01*
X6600174Y536491D01*
X6608731Y542867D01*
X6616936Y549690D01*
X6624765Y556941D01*
X6632196Y564600D01*
X6635756Y568575D01*
X6635756D01*
X6639264Y572598D01*
X6646698Y580259D01*
X6654530Y587512D01*
X6662738Y594338D01*
X6671298Y600716D01*
X6680186Y606628D01*
X6689377Y612058D01*
X6698844Y616990D01*
X6708561Y621410D01*
X6718500Y625306D01*
X6728632Y628666D01*
X6738930Y631480D01*
X6749363Y633741D01*
X6759901Y635443D01*
X6770515Y636580D01*
X6781175Y637150D01*
X6786513D01*
X6786513Y637150D01*
X7086950Y637150D01*
D02*
G37*
D10*
X1210000Y4800000D02*
X1580000Y5170000D01*
Y5620000D02*
X1720000Y5760000D01*
X1580000Y5170000D02*
Y5620000D01*
X1720000Y5760000D02*
X3000000D01*
X1010000Y4800000D02*
X1210000D01*
X2320000Y3220000D02*
X3180000D01*
X2100000Y3440000D02*
X2320000Y3220000D01*
X3180000D02*
X3252500Y3147500D01*
X5680477Y6160477D02*
X5840000Y6320000D01*
X5002470Y6160477D02*
X5680477D01*
X5840000Y6320000D02*
X6300000D01*
X5704999Y6100000D02*
X5844999Y6240000D01*
X4887470Y6160477D02*
X4947947Y6100000D01*
X5704999D01*
X4240000Y4600000D02*
X4440000Y4800000D01*
X2300000Y4600000D02*
X4240000D01*
X2100000Y4400000D02*
X2300000Y4600000D01*
X2100000Y3440000D02*
Y4400000D01*
X3252500Y2400000D02*
Y3147500D01*
X4440000Y4800000D02*
Y5660000D01*
X4480000Y5700000D01*
X4893974D01*
X4968735Y5625239D01*
X4668735Y4691265D02*
Y5625239D01*
Y4691265D02*
X4820000Y4540000D01*
X6160000D01*
X6347500Y4352500D01*
Y2450000D02*
Y4352500D01*
X3000000Y5760000D02*
X3160000Y5920000D01*
X4100000D01*
X4200000Y6020000D01*
X7142500Y5797500D02*
X7462500D01*
X7000000Y5940000D02*
X7142500Y5797500D01*
X6680000Y5940000D02*
X7000000D01*
X6300000Y6320000D02*
X6680000Y5940000D01*
X4160589Y7520000D02*
X4619411D01*
X1010000Y6200000D02*
X1100000D01*
X1360000Y6460000D01*
Y7000000D01*
X1600000Y7240000D01*
X3880589D01*
X4160589Y7520000D01*
X4619411D02*
X5000000Y7139411D01*
Y7050000D02*
Y7139411D01*
X4900000Y7050000D02*
Y7154558D01*
X4800000Y7050000D02*
Y7169705D01*
X4700000Y7050000D02*
Y7184853D01*
X4600000Y7050000D02*
Y7200000D01*
X4569706Y7400000D02*
X4800000Y7169705D01*
X4544853Y7340000D02*
X4700000Y7184853D01*
X4594559Y7460000D02*
X4900000Y7154558D01*
X4520000Y7280000D02*
X4600000Y7200000D01*
X4650000Y6430000D02*
Y6700000D01*
X4750000Y6445147D02*
Y6700000D01*
X4850000Y6460294D02*
Y6700000D01*
X4950000Y6475441D02*
Y6700000D01*
X4185441Y7460000D02*
X4594559D01*
X4210294Y7400000D02*
X4569706D01*
X4235147Y7340000D02*
X4544853D01*
X4260000Y7280000D02*
X4520000D01*
X3905442Y7180000D02*
X4185441Y7460000D01*
X3930294Y7120000D02*
X4210294Y7400000D01*
X3955147Y7060000D02*
X4235147Y7340000D01*
X3980000Y7000000D02*
X4260000Y7280000D01*
X4549706Y6160000D02*
X4850000Y6460294D01*
X4574558Y6100000D02*
X4950000Y6475441D01*
X4524853Y6220000D02*
X4750000Y6445147D01*
X4500000Y6280000D02*
X4650000Y6430000D01*
X5684999Y5860000D02*
X5845000Y6020000D01*
X4750000Y5860000D02*
X5684999D01*
X4787470Y6047470D02*
Y6160477D01*
X4680000Y5940000D02*
X4787470Y6047470D01*
X4680000Y5840000D02*
Y5940000D01*
Y5840000D02*
X4720000Y5800000D01*
X5845000D01*
X2890500Y6780000D02*
Y6930500D01*
X2960000Y7000000D01*
X3980000D01*
X2763500Y6780000D02*
Y6943500D01*
X2880000Y7060000D01*
X3955147D01*
X2636500Y6780000D02*
Y6936499D01*
X2820000Y7120000D01*
X3930294D01*
X2509500Y6780000D02*
Y6949500D01*
X2740000Y7180000D01*
X3905442D01*
X2890500Y5880000D02*
Y6030500D01*
X2960000Y6100000D01*
X4574558D01*
X2763500Y5880000D02*
Y6043500D01*
X2880000Y6160000D01*
X4549706D01*
X2636500Y5880000D02*
Y6036499D01*
X2820000Y6220000D01*
X4524853D01*
X2509500Y5880000D02*
Y6049500D01*
X2740000Y6280000D01*
X4500000D01*
X7425000Y5329999D02*
X7500000Y5255000D01*
X7225000Y5329999D02*
X7425000D01*
X7150000Y5255000D02*
X7225000Y5329999D01*
X7300000Y5255000D02*
X7374999Y5180000D01*
X7575000D01*
X7650000Y5255000D01*
D43*
X5994000Y4195500D02*
D03*
X5450000D02*
D03*
X4906000D02*
D03*
X3494000D02*
D03*
X2950000D02*
D03*
X2406000D02*
D03*
D44*
X9300000Y600000D02*
D03*
Y7100000D02*
D03*
X600000D02*
D03*
Y600000D02*
D03*
D45*
X6892000Y6673000D02*
D03*
Y6927000D02*
D03*
X7146000Y6673000D02*
D03*
Y6927000D02*
D03*
X7400000Y6673000D02*
D03*
Y6927000D02*
D03*
X7654000Y6673000D02*
D03*
Y6927000D02*
D03*
X7908000Y6673000D02*
D03*
Y6927000D02*
D03*
X8735000Y1900000D02*
D03*
Y2200000D02*
D03*
Y2500000D02*
D03*
X9035000Y1900000D02*
D03*
Y2200000D02*
D03*
Y2500000D02*
D03*
X1165000Y2400000D02*
D03*
Y2100000D02*
D03*
Y1800000D02*
D03*
X865000Y2400000D02*
D03*
Y2100000D02*
D03*
Y1800000D02*
D03*
D46*
X6497000Y4767000D02*
D03*
X1903000D02*
D03*
D47*
X2200000Y450000D02*
D03*
X2200000Y950000D02*
D03*
X2200000Y1550000D02*
D03*
X2200000Y2050000D02*
D03*
X1900000Y2650000D02*
D03*
X1900000Y3150000D02*
D03*
D48*
X3150001Y400000D02*
D03*
Y500000D02*
D03*
Y300000D02*
D03*
X3250000Y400000D02*
D03*
Y300000D02*
D03*
Y500000D02*
D03*
X3350000Y400000D02*
D03*
Y500000D02*
D03*
Y300000D02*
D03*
X2900000Y3305000D02*
D03*
X3000000D02*
D03*
X2800000D02*
D03*
X2600000D02*
D03*
X2700000D02*
D03*
X2500000D02*
D03*
X6397500Y400000D02*
D03*
X6297500D02*
D03*
X7079000Y350000D02*
D03*
Y450000D02*
D03*
X7521000Y350000D02*
D03*
Y450000D02*
D03*
X7950000Y979000D02*
D03*
X8050000D02*
D03*
Y1420999D02*
D03*
X7950000D02*
D03*
X8150000Y1980000D02*
D03*
X8250000D02*
D03*
X7800000D02*
D03*
X7900000D02*
D03*
X7450000Y1979999D02*
D03*
X7550000D02*
D03*
X7100000Y1979999D02*
D03*
X7200000D02*
D03*
X2700000Y3505000D02*
D03*
X2500000D02*
D03*
X2600000D02*
D03*
X2500000Y3405000D02*
D03*
X2700000D02*
D03*
X2600000D02*
D03*
Y3605000D02*
D03*
X2700000Y3605000D02*
D03*
X2500000D02*
D03*
X3000000Y3505000D02*
D03*
X2800000D02*
D03*
X2900000D02*
D03*
X2800000Y3405000D02*
D03*
X3000000D02*
D03*
X2900000D02*
D03*
Y3605000D02*
D03*
X2800000Y3605000D02*
D03*
X3550000Y300000D02*
D03*
Y500000D02*
D03*
Y400000D02*
D03*
X3450000Y500000D02*
D03*
Y300000D02*
D03*
Y400000D02*
D03*
X3950000Y300000D02*
D03*
Y500000D02*
D03*
X3950000Y400000D02*
D03*
X3850000Y500000D02*
D03*
Y300000D02*
D03*
Y400000D02*
D03*
X3750000D02*
D03*
Y300000D02*
D03*
Y500000D02*
D03*
X3650000Y400000D02*
D03*
X3650000Y300000D02*
D03*
Y500000D02*
D03*
X5628000Y3200000D02*
D03*
X5828000D02*
D03*
X5728000D02*
D03*
X5628000Y3100000D02*
D03*
X5828000D02*
D03*
X5728000D02*
D03*
X5628000Y3000000D02*
D03*
X5828000D02*
D03*
X5728000D02*
D03*
X5528000Y3200000D02*
D03*
Y3000000D02*
D03*
Y3100000D02*
D03*
X5828000Y2900000D02*
D03*
X5628000D02*
D03*
X5728000D02*
D03*
X5528000Y2700000D02*
D03*
Y2900000D02*
D03*
Y2800000D02*
D03*
X5828000D02*
D03*
X5628000D02*
D03*
X5728000D02*
D03*
X5828000Y2700000D02*
D03*
X5628000D02*
D03*
X5728000D02*
D03*
X6128000Y2900000D02*
D03*
X5928000D02*
D03*
X6028000D02*
D03*
X6128000Y2800000D02*
D03*
X5928000D02*
D03*
X6028000D02*
D03*
X6128000Y2700000D02*
D03*
X5928000D02*
D03*
X6028000D02*
D03*
Y3000000D02*
D03*
X5928000D02*
D03*
X6128000D02*
D03*
X5928000Y3100000D02*
D03*
Y3200000D02*
D03*
X6128000Y3100000D02*
D03*
X6028000D02*
D03*
X6128000Y3200000D02*
D03*
X6028000D02*
D03*
X3460000Y3200000D02*
D03*
X3360000D02*
D03*
X3460000Y3100000D02*
D03*
X3360000D02*
D03*
X3560000Y3200000D02*
D03*
Y3100000D02*
D03*
X3360000Y3000000D02*
D03*
X3560000D02*
D03*
X3460000D02*
D03*
Y2700000D02*
D03*
X3560000D02*
D03*
X3360000D02*
D03*
X3460000Y2800000D02*
D03*
X3560000D02*
D03*
X3360000D02*
D03*
X3460000Y2900000D02*
D03*
X3560000D02*
D03*
X3360000D02*
D03*
X3760000Y2700000D02*
D03*
X3860000D02*
D03*
X3660000D02*
D03*
X3760000Y2800000D02*
D03*
X3860000D02*
D03*
X3660000D02*
D03*
X3960000D02*
D03*
Y2900000D02*
D03*
Y2700000D02*
D03*
X3760000Y2900000D02*
D03*
X3860000D02*
D03*
X3660000D02*
D03*
X3960000Y3100000D02*
D03*
Y3000000D02*
D03*
Y3200000D02*
D03*
X3760000Y3000000D02*
D03*
X3660000D02*
D03*
X3860000D02*
D03*
X3760000Y3100000D02*
D03*
X3660000D02*
D03*
X3860000D02*
D03*
X3760000Y3200000D02*
D03*
X3660000D02*
D03*
X3860000D02*
D03*
X5002470Y6160477D02*
D03*
X3252500Y2400000D02*
D03*
X4200000Y6020000D02*
D03*
X1010000Y4800000D02*
D03*
X7462500Y5797500D02*
D03*
X6955000Y5800000D02*
D03*
X6955000Y5650000D02*
D03*
X1010000Y6200000D02*
D03*
X2356000Y5150000D02*
D03*
X2456000D02*
D03*
X4856000Y5150000D02*
D03*
X4956000D02*
D03*
X3573735Y6010238D02*
D03*
X3918735Y5530239D02*
D03*
X4018735D02*
D03*
X3668735Y5530239D02*
D03*
X3768735D02*
D03*
X3518735Y5537739D02*
D03*
X3018735Y5520239D02*
D03*
X3118734D02*
D03*
X3268735D02*
D03*
X3368735D02*
D03*
X2509499Y6780000D02*
D03*
X2636500Y6780000D02*
D03*
X2763500Y6780000D02*
D03*
X2890500D02*
D03*
Y5880000D02*
D03*
X2763500D02*
D03*
X2636500D02*
D03*
X2509500D02*
D03*
X7150000Y5255000D02*
D03*
X7300000D02*
D03*
X7500000D02*
D03*
X7650000D02*
D03*
X9100000Y5650000D02*
D03*
X9350000Y5604999D02*
D03*
X5844999Y6240000D02*
D03*
X5845000Y5800000D02*
D03*
Y6020000D02*
D03*
X5368735Y6372739D02*
D03*
Y6487738D02*
D03*
X4668735Y5625239D02*
D03*
X4518735Y5625239D02*
D03*
X4818735Y5625239D02*
D03*
X4968735Y5625239D02*
D03*
X5118735Y5625239D02*
D03*
X4887470Y6160477D02*
D03*
X4787470D02*
D03*
X4750000Y5860000D02*
D03*
X5000000Y7050000D02*
D03*
X4950000Y6700000D02*
D03*
X4850000D02*
D03*
X4900000Y7050000D02*
D03*
X4600000D02*
D03*
X4650000Y6700000D02*
D03*
X4700000Y7050000D02*
D03*
X4750000Y6700000D02*
D03*
X4800000Y7050000D02*
D03*
X3735000Y6535000D02*
D03*
X4168735Y6372739D02*
D03*
X3900000Y7555000D02*
D03*
X5100000Y7555000D02*
D03*
X4168735Y6487739D02*
D03*
X3518735Y5422739D02*
D03*
X4018735Y5230238D02*
D03*
X3918735D02*
D03*
X3768735D02*
D03*
X3668735D02*
D03*
X3368735Y5240239D02*
D03*
X3268735D02*
D03*
X3118734D02*
D03*
X3018735D02*
D03*
X7200000Y2420000D02*
D03*
X7100000D02*
D03*
X7550000Y2419999D02*
D03*
X7450000D02*
D03*
X7900000Y2420000D02*
D03*
X7800000D02*
D03*
X8250000D02*
D03*
X8150000D02*
D03*
X8050000Y5010000D02*
D03*
X7950000D02*
D03*
X8300000Y5010001D02*
D03*
X8200000D02*
D03*
X8450000Y5010000D02*
D03*
X8550000D02*
D03*
X7800000Y5642500D02*
D03*
X6845000Y5650000D02*
D03*
X7067500Y5667500D02*
D03*
X6845000Y5800000D02*
D03*
X3668735Y6010239D02*
D03*
X3763735Y6010238D02*
D03*
X6447500Y2250000D02*
D03*
X6247500D02*
D03*
X6347500D02*
D03*
X6447500Y2150000D02*
D03*
X6247500D02*
D03*
X6347500D02*
D03*
X6447500Y1850000D02*
D03*
X6247500D02*
D03*
X6347500D02*
D03*
X6447500Y1750000D02*
D03*
X6247500D02*
D03*
X6347500D02*
D03*
X6447500Y1450000D02*
D03*
X6247500D02*
D03*
X6347500D02*
D03*
X6447500Y1350000D02*
D03*
X6247500D02*
D03*
X6347500D02*
D03*
Y1250000D02*
D03*
X6247500D02*
D03*
X6447500D02*
D03*
X6347500Y1150000D02*
D03*
X6447500D02*
D03*
X6247500D02*
D03*
X6347500Y1650000D02*
D03*
X6247500D02*
D03*
X6447500D02*
D03*
X6347500Y1550000D02*
D03*
X6447500D02*
D03*
X6247500D02*
D03*
X6347500Y2050000D02*
D03*
X6247500D02*
D03*
X6447500D02*
D03*
X6347500Y1950000D02*
D03*
X6447500D02*
D03*
X6247500D02*
D03*
Y2350000D02*
D03*
X6447500D02*
D03*
X6347500D02*
D03*
X6447500Y2450000D02*
D03*
X6247500D02*
D03*
X6347500D02*
D03*
X2742500Y6600000D02*
D03*
X2509500Y6420000D02*
D03*
X2857499Y6600000D02*
D03*
X2857500Y7500000D02*
D03*
X2742500D02*
D03*
X2509500Y7320000D02*
D03*
X725000Y5400000D02*
D03*
X825000D02*
D03*
X725000Y6000000D02*
D03*
X825000D02*
D03*
X170000Y6434999D02*
D03*
X270000D02*
D03*
X169999Y4565000D02*
D03*
X269999D02*
D03*
X350000Y3974600D02*
D03*
X1155882Y3089562D02*
D03*
Y3189562D02*
D03*
X1155882Y3329562D02*
D03*
Y3429562D02*
D03*
X875881Y3089562D02*
D03*
Y3189562D02*
D03*
X875881Y3329562D02*
D03*
Y3429562D02*
D03*
X685882Y3329562D02*
D03*
Y3429562D02*
D03*
Y3079562D02*
D03*
Y3179561D02*
D03*
X405882Y3079562D02*
D03*
Y3179562D02*
D03*
Y3429562D02*
D03*
X983382Y3649562D02*
D03*
X868382D02*
D03*
X703381Y3679562D02*
D03*
X545881Y3845562D02*
D03*
X725881Y3845562D02*
D03*
X710882Y4359562D02*
D03*
X713381Y4239561D02*
D03*
X455881Y3864562D02*
D03*
X405882Y3329562D02*
D03*
X700882Y3559562D02*
D03*
X588382Y3679562D02*
D03*
%TF.MD5,02bca5a8b40d1cfda313dcfe99c22902*%
M02*
