%TF.GenerationSoftware,Altium Limited,Altium Designer,25.1.2 (22)*%
G04 Layer_Physical_Order=1*
G04 Layer_Color=5636351*
%FSLAX45Y45*%
%MOMM*%
%TF.SameCoordinates,CB1A417E-7DD8-4276-B15B-71DB2DCBA6F7*%
%TF.FilePolarity,Positive*%
%TF.FileFunction,Copper,L1,Top,Signal*%
%TF.Part,Single*%
G01*
G75*
%TA.AperFunction,Conductor*%
%ADD10C,0.20000*%
%TA.AperFunction,ConnectorPad*%
%ADD11R,2.75000X2.00000*%
%TA.AperFunction,SMDPad,CuDef*%
%ADD12O,0.30000X1.40000*%
%ADD13O,1.40000X0.30000*%
%ADD14R,0.65000X0.80000*%
%ADD15R,0.80000X0.65000*%
%ADD16R,3.57000X3.10000*%
%ADD17R,2.15900X2.74300*%
%ADD18R,1.30000X1.80000*%
G04:AMPARAMS|DCode=19|XSize=0.67mm|YSize=0.3mm|CornerRadius=0.05mm|HoleSize=0mm|Usage=FLASHONLY|Rotation=90.000|XOffset=0mm|YOffset=0mm|HoleType=Round|Shape=RoundedRectangle|*
%AMROUNDEDRECTD19*
21,1,0.67000,0.20000,0,0,90.0*
21,1,0.57000,0.30000,0,0,90.0*
1,1,0.10000,0.10000,0.28500*
1,1,0.10000,0.10000,-0.28500*
1,1,0.10000,-0.10000,-0.28500*
1,1,0.10000,-0.10000,0.28500*
%
%ADD19ROUNDEDRECTD19*%
%ADD20R,0.85000X0.60000*%
%ADD21R,0.60000X0.85000*%
%ADD22R,1.80000X1.30000*%
%ADD23R,0.60000X1.10000*%
%ADD24R,5.10000X2.35000*%
%ADD25R,2.20000X1.55000*%
%ADD26R,1.40000X1.05000*%
%ADD27R,1.15000X1.00000*%
%ADD28R,3.50000X1.00000*%
%ADD29R,3.40000X1.50000*%
%ADD30R,0.80000X0.80000*%
%ADD31R,2.74300X2.15900*%
G04:AMPARAMS|DCode=32|XSize=1.55mm|YSize=0.6mm|CornerRadius=0.05mm|HoleSize=0mm|Usage=FLASHONLY|Rotation=90.000|XOffset=0mm|YOffset=0mm|HoleType=Round|Shape=RoundedRectangle|*
%AMROUNDEDRECTD32*
21,1,1.55000,0.50000,0,0,90.0*
21,1,1.45000,0.60000,0,0,90.0*
1,1,0.10000,0.25000,0.72500*
1,1,0.10000,0.25000,-0.72500*
1,1,0.10000,-0.25000,-0.72500*
1,1,0.10000,-0.25000,0.72500*
%
%ADD32ROUNDEDRECTD32*%
%ADD33R,1.45000X0.45000*%
%ADD34R,0.42000X0.60000*%
%TA.AperFunction,Conductor*%
%ADD35C,0.25400*%
%ADD36C,0.40000*%
%ADD37C,0.30000*%
%ADD38C,2.00000*%
%ADD39C,1.00000*%
%ADD40C,0.50000*%
%ADD41C,0.38100*%
%ADD42R,3.40000X3.60000*%
%TA.AperFunction,ComponentPad*%
%ADD43O,2.44000X3.60000*%
%TA.AperFunction,ViaPad*%
%ADD44C,10.00000*%
%TA.AperFunction,ComponentPad*%
%ADD45C,2.00000*%
%ADD46C,4.00000*%
%ADD47C,1.50000*%
%TA.AperFunction,ViaPad*%
%ADD48C,0.60000*%
G36*
X8605000Y5940000D02*
X7808000D01*
Y6673000D01*
Y6676929D01*
X7808617Y6684763D01*
X7809846Y6692524D01*
X7811680Y6700165D01*
X7814109Y6707638D01*
X7817116Y6714898D01*
X7820683Y6721900D01*
X7824789Y6728600D01*
X7829408Y6734957D01*
X7834511Y6740932D01*
X7840068Y6746489D01*
X7846043Y6751592D01*
X7852400Y6756211D01*
X7859100Y6760317D01*
X7866102Y6763884D01*
X7873362Y6766891D01*
X7880835Y6769319D01*
X7888476Y6771154D01*
X7896237Y6772383D01*
X7904071Y6773000D01*
X8605000D01*
Y5940000D01*
D02*
G37*
G36*
X9431763Y5764383D02*
X9439524Y5763154D01*
X9447165Y5761319D01*
X9454638Y5758891D01*
X9461898Y5755884D01*
X9468900Y5752317D01*
X9475600Y5748211D01*
X9481957Y5743592D01*
X9487933Y5738489D01*
X9493489Y5732932D01*
X9498592Y5726957D01*
X9503211Y5720600D01*
X9507317Y5713900D01*
X9510884Y5706898D01*
X9513892Y5699638D01*
X9516320Y5692165D01*
X9518154Y5684524D01*
X9519384Y5676763D01*
X9520000Y5668929D01*
Y5665000D01*
Y5661071D01*
X9519384Y5653237D01*
X9518154Y5645476D01*
X9516320Y5637835D01*
X9513892Y5630361D01*
X9510884Y5623102D01*
X9507317Y5616100D01*
X9503211Y5609400D01*
X9498592Y5603043D01*
X9493489Y5597067D01*
X9487933Y5591511D01*
X9481957Y5586407D01*
X9475600Y5581789D01*
X9468900Y5577683D01*
X9461898Y5574115D01*
X9454638Y5571108D01*
X9447165Y5568680D01*
X9439524Y5566845D01*
X9431763Y5565616D01*
X9423929Y5565000D01*
X9038571D01*
X9030737Y5565616D01*
X9022976Y5566845D01*
X9015335Y5568680D01*
X9007862Y5571108D01*
X9000602Y5574115D01*
X8993600Y5577683D01*
X8986900Y5581789D01*
X8980543Y5586407D01*
X8974568Y5591511D01*
X8969011Y5597067D01*
X8963908Y5603043D01*
X8959289Y5609400D01*
X8955183Y5616100D01*
X8951616Y5623102D01*
X8948608Y5630361D01*
X8946180Y5637835D01*
X8944346Y5645476D01*
X8943116Y5653237D01*
X8942500Y5661071D01*
Y5665000D01*
Y5668929D01*
X8943116Y5676763D01*
X8944346Y5684524D01*
X8946180Y5692165D01*
X8948608Y5699638D01*
X8951616Y5706898D01*
X8955183Y5713900D01*
X8959289Y5720600D01*
X8963908Y5726957D01*
X8969011Y5732932D01*
X8974568Y5738489D01*
X8980543Y5743592D01*
X8986900Y5748211D01*
X8993600Y5752317D01*
X9000602Y5755884D01*
X9007862Y5758891D01*
X9015335Y5761319D01*
X9022976Y5763154D01*
X9030737Y5764383D01*
X9038571Y5765000D01*
X9423929D01*
X9431763Y5764383D01*
D02*
G37*
G36*
X3698735Y5595239D02*
X3808735D01*
Y5465239D01*
X3628735D01*
Y5805239D01*
X3698735D01*
Y5595239D01*
D02*
G37*
G36*
X4058735Y5465238D02*
X3878735D01*
Y5630239D01*
X3733735D01*
Y5805239D01*
X4058735D01*
Y5465238D01*
D02*
G37*
G36*
X3603735Y5495239D02*
X3468735D01*
Y5455239D01*
X2978734D01*
Y5805239D01*
X3603735D01*
Y5495239D01*
D02*
G37*
G36*
X7995000Y5760000D02*
X8605000D01*
Y5224999D01*
X7895000D01*
Y5660000D01*
X7845000Y5710000D01*
X7547500D01*
Y5755000D01*
X7725000D01*
X7770000Y5800000D01*
X7955000D01*
X7995000Y5760000D01*
D02*
G37*
G36*
X4993500Y5085000D02*
X2316000D01*
Y5295239D01*
X2958734D01*
Y5155239D01*
X3428735D01*
Y5295239D01*
X4993500D01*
Y5085000D01*
D02*
G37*
G36*
X9431763Y5534383D02*
X9439524Y5533154D01*
X9447165Y5531319D01*
X9454638Y5528891D01*
X9461898Y5525884D01*
X9468900Y5522317D01*
X9475600Y5518211D01*
X9481957Y5513592D01*
X9487933Y5508489D01*
X9493489Y5502932D01*
X9498592Y5496957D01*
X9503211Y5490600D01*
X9507317Y5483900D01*
X9510884Y5476898D01*
X9513892Y5469638D01*
X9516320Y5462165D01*
X9518154Y5454524D01*
X9519384Y5446763D01*
X9520000Y5438929D01*
Y5435000D01*
Y5250000D01*
Y5246071D01*
X9519384Y5238237D01*
X9518154Y5230476D01*
X9516320Y5222835D01*
X9513892Y5215361D01*
X9510884Y5208102D01*
X9507317Y5201100D01*
X9503211Y5194400D01*
X9498592Y5188043D01*
X9493489Y5182067D01*
X9487933Y5176511D01*
X9481957Y5171407D01*
X9475600Y5166789D01*
X9468900Y5162683D01*
X9461898Y5159115D01*
X9454638Y5156108D01*
X9447165Y5153680D01*
X9439524Y5151845D01*
X9431763Y5150616D01*
X9423929Y5150000D01*
X9038571D01*
X9030737Y5150616D01*
X9022976Y5151845D01*
X9015335Y5153680D01*
X9007862Y5156108D01*
X9000602Y5159115D01*
X8993600Y5162683D01*
X8986900Y5166789D01*
X8980543Y5171407D01*
X8974568Y5176511D01*
X8969011Y5182067D01*
X8963908Y5188043D01*
X8959289Y5194400D01*
X8955183Y5201100D01*
X8951616Y5208102D01*
X8948608Y5215361D01*
X8946180Y5222835D01*
X8944346Y5230476D01*
X8943116Y5238237D01*
X8942500Y5246071D01*
Y5250000D01*
Y5435000D01*
Y5438929D01*
X8943116Y5446763D01*
X8944346Y5454524D01*
X8946180Y5462165D01*
X8948608Y5469638D01*
X8951616Y5476898D01*
X8955183Y5483900D01*
X8959289Y5490600D01*
X8963908Y5496957D01*
X8969011Y5502932D01*
X8974568Y5508489D01*
X8980543Y5513592D01*
X8986900Y5518211D01*
X8993600Y5522317D01*
X9000602Y5525884D01*
X9007862Y5528891D01*
X9015335Y5531319D01*
X9022976Y5533154D01*
X9030737Y5534383D01*
X9038571Y5535000D01*
X9423929D01*
X9431763Y5534383D01*
D02*
G37*
G36*
Y5049383D02*
X9439524Y5048154D01*
X9447165Y5046319D01*
X9454638Y5043891D01*
X9461898Y5040884D01*
X9468900Y5037317D01*
X9475600Y5033211D01*
X9481957Y5028592D01*
X9487933Y5023489D01*
X9493489Y5017932D01*
X9498592Y5011957D01*
X9503211Y5005600D01*
X9507317Y4998900D01*
X9510884Y4991898D01*
X9513892Y4984638D01*
X9516320Y4977165D01*
X9518154Y4969524D01*
X9519384Y4961762D01*
X9520000Y4953929D01*
Y4950000D01*
Y4800000D01*
Y4796071D01*
X9519384Y4788237D01*
X9518154Y4780476D01*
X9516320Y4772835D01*
X9513892Y4765361D01*
X9510884Y4758101D01*
X9507317Y4751100D01*
X9503211Y4744400D01*
X9498592Y4738043D01*
X9493489Y4732067D01*
X9487933Y4726511D01*
X9481957Y4721407D01*
X9475600Y4716789D01*
X9468900Y4712683D01*
X9461898Y4709115D01*
X9454638Y4706108D01*
X9447165Y4703680D01*
X9439524Y4701845D01*
X9431763Y4700616D01*
X9423929Y4700000D01*
X9038571D01*
X9030737Y4700616D01*
X9022976Y4701845D01*
X9015335Y4703680D01*
X9007862Y4706108D01*
X9000602Y4709115D01*
X8993600Y4712683D01*
X8986900Y4716789D01*
X8980543Y4721407D01*
X8974568Y4726511D01*
X8969011Y4732067D01*
X8963908Y4738043D01*
X8959289Y4744400D01*
X8955183Y4751100D01*
X8951616Y4758101D01*
X8948608Y4765361D01*
X8946180Y4772835D01*
X8944346Y4780476D01*
X8943116Y4788237D01*
X8942500Y4796071D01*
Y4800000D01*
Y4950000D01*
Y4953929D01*
X8943116Y4961762D01*
X8944346Y4969524D01*
X8946180Y4977165D01*
X8948608Y4984638D01*
X8951616Y4991898D01*
X8955183Y4998900D01*
X8959289Y5005600D01*
X8963908Y5011957D01*
X8969011Y5017932D01*
X8974568Y5023489D01*
X8980543Y5028592D01*
X8986900Y5033211D01*
X8993600Y5037316D01*
X9000602Y5040884D01*
X9007862Y5043891D01*
X9015335Y5046319D01*
X9022976Y5048154D01*
X9030737Y5049383D01*
X9038571Y5050000D01*
X9042500Y5049999D01*
X9420000Y5050000D01*
X9423929D01*
X9431763Y5049383D01*
D02*
G37*
G36*
Y4599383D02*
X9439524Y4598154D01*
X9447165Y4596319D01*
X9454638Y4593891D01*
X9461898Y4590884D01*
X9468900Y4587316D01*
X9475600Y4583211D01*
X9481957Y4578592D01*
X9487933Y4573488D01*
X9493489Y4567932D01*
X9498592Y4561957D01*
X9503211Y4555599D01*
X9507317Y4548899D01*
X9510884Y4541898D01*
X9513892Y4534638D01*
X9516320Y4527164D01*
X9518154Y4519524D01*
X9519384Y4511762D01*
X9520000Y4503929D01*
Y4500000D01*
Y4350000D01*
Y4346071D01*
X9519384Y4338237D01*
X9518154Y4330476D01*
X9516320Y4322835D01*
X9513892Y4315361D01*
X9510884Y4308102D01*
X9507317Y4301100D01*
X9503211Y4294400D01*
X9498592Y4288043D01*
X9493489Y4282067D01*
X9487933Y4276511D01*
X9481957Y4271408D01*
X9475600Y4266789D01*
X9468900Y4262683D01*
X9461898Y4259115D01*
X9454638Y4256108D01*
X9447165Y4253680D01*
X9439524Y4251845D01*
X9431763Y4250616D01*
X9423929Y4250000D01*
X9038571D01*
X9030737Y4250616D01*
X9022976Y4251845D01*
X9015335Y4253680D01*
X9007862Y4256108D01*
X9000602Y4259115D01*
X8993600Y4262683D01*
X8986900Y4266789D01*
X8980543Y4271408D01*
X8974568Y4276511D01*
X8969011Y4282067D01*
X8963908Y4288043D01*
X8959289Y4294400D01*
X8955183Y4301100D01*
X8951616Y4308102D01*
X8948608Y4315361D01*
X8946180Y4322835D01*
X8944346Y4330476D01*
X8943116Y4338237D01*
X8942500Y4346071D01*
Y4350000D01*
Y4500000D01*
Y4503929D01*
X8943116Y4511762D01*
X8944346Y4519524D01*
X8946180Y4527165D01*
X8948608Y4534638D01*
X8951616Y4541898D01*
X8955183Y4548899D01*
X8959289Y4555599D01*
X8963908Y4561957D01*
X8969011Y4567932D01*
X8974568Y4573488D01*
X8980543Y4578592D01*
X8986900Y4583211D01*
X8993600Y4587316D01*
X9000602Y4590884D01*
X9007862Y4593891D01*
X9015335Y4596319D01*
X9022976Y4598154D01*
X9030737Y4599383D01*
X9038571Y4599999D01*
X9042500Y4599999D01*
X9420000Y4600000D01*
X9423929D01*
X9431763Y4599383D01*
D02*
G37*
G36*
X9420000Y4150000D02*
X9423929D01*
X9431763Y4149383D01*
X9439524Y4148154D01*
X9447165Y4146319D01*
X9454638Y4143891D01*
X9461898Y4140884D01*
X9468900Y4137316D01*
X9475600Y4133211D01*
X9481957Y4128592D01*
X9487933Y4123488D01*
X9493489Y4117932D01*
X9498592Y4111957D01*
X9503211Y4105599D01*
X9507317Y4098899D01*
X9510884Y4091898D01*
X9513891Y4084638D01*
X9516320Y4077165D01*
X9518154Y4069524D01*
X9519383Y4061763D01*
X9520000Y4053929D01*
Y4050000D01*
X9520000D01*
X9520000Y3900000D01*
Y3896071D01*
X9519383Y3888237D01*
X9518154Y3880476D01*
X9516320Y3872835D01*
X9513891Y3865361D01*
X9510884Y3858102D01*
X9507317Y3851100D01*
X9503211Y3844400D01*
X9498592Y3838043D01*
X9493489Y3832067D01*
X9487933Y3826511D01*
X9481957Y3821408D01*
X9475600Y3816789D01*
X9468900Y3812683D01*
X9461898Y3809116D01*
X9454638Y3806108D01*
X9447165Y3803680D01*
X9439524Y3801846D01*
X9431763Y3800616D01*
X9423929Y3800000D01*
X9420000D01*
Y3800000D01*
X9042500Y3800000D01*
X9038571D01*
X9030737Y3800616D01*
X9022976Y3801846D01*
X9015335Y3803680D01*
X9007862Y3806108D01*
X9000602Y3809116D01*
X8993600Y3812683D01*
X8986900Y3816789D01*
X8980543Y3821408D01*
X8974568Y3826511D01*
X8969011Y3832067D01*
X8963908Y3838043D01*
X8959289Y3844400D01*
X8955183Y3851100D01*
X8951616Y3858102D01*
X8948609Y3865361D01*
X8946180Y3872835D01*
X8944346Y3880476D01*
X8943117Y3888237D01*
X8942500Y3896071D01*
Y3900000D01*
X8942500D01*
X8942500Y4050000D01*
Y4053929D01*
X8943117Y4061763D01*
X8944346Y4069524D01*
X8946180Y4077165D01*
X8948609Y4084638D01*
X8951616Y4091898D01*
X8955183Y4098900D01*
X8959289Y4105600D01*
X8963908Y4111957D01*
X8969011Y4117932D01*
X8974568Y4123489D01*
X8980543Y4128592D01*
X8986900Y4133211D01*
X8993600Y4137317D01*
X9000602Y4140884D01*
X9007862Y4143891D01*
X9015335Y4146319D01*
X9022976Y4148154D01*
X9030737Y4149383D01*
X9038571Y4150000D01*
X9042500D01*
Y4150000D01*
X9420000Y4150000D01*
D02*
G37*
G36*
X675804Y3874062D02*
Y3817062D01*
X675881Y3816081D01*
Y3791509D01*
X790881D01*
Y3489562D01*
Y3269562D01*
Y3029562D01*
X959899D01*
X960881Y3029465D01*
X1390881D01*
X1391864Y3029562D01*
X1410881D01*
Y3048579D01*
X1410978Y3049562D01*
Y3640000D01*
X2439903D01*
Y3275000D01*
X2440000Y3274017D01*
Y3255000D01*
X2459017D01*
X2460000Y3254903D01*
X3040000D01*
X3040983Y3255000D01*
X3295046D01*
X3295453Y3245000D01*
X3295403Y3244500D01*
Y2655500D01*
X3295500Y2654517D01*
Y2635500D01*
X3314517D01*
X3315500Y2635403D01*
X3390000D01*
Y1100000D01*
X3095000D01*
Y540983D01*
X3094903Y540000D01*
Y260000D01*
X3095000Y259017D01*
Y20390D01*
X600000Y20390D01*
X571524Y20390D01*
X514851Y25972D01*
X458995Y37082D01*
X404500Y53613D01*
X351885Y75407D01*
X301663Y102251D01*
X254311Y133891D01*
X210289Y170018D01*
X170019Y210288D01*
X133892Y254310D01*
X102252Y301662D01*
X75408Y351884D01*
X53614Y404500D01*
X37082Y458997D01*
X25972Y514850D01*
X20390Y571524D01*
Y599999D01*
Y3029562D01*
X320882D01*
Y3019562D01*
X490881D01*
Y3029562D01*
Y3507088D01*
X530882D01*
Y3507062D01*
X650882D01*
Y3507088D01*
X660882D01*
Y3735030D01*
X645881Y3750030D01*
Y3816081D01*
X645959Y3817062D01*
Y3874062D01*
X654202Y3879062D01*
X667560D01*
X675804Y3874062D01*
D02*
G37*
G36*
X9420000Y3699999D02*
X9423929D01*
X9431763Y3699383D01*
X9439524Y3698154D01*
X9447165Y3696319D01*
X9454638Y3693891D01*
X9461898Y3690884D01*
X9468900Y3687316D01*
X9475600Y3683211D01*
X9481957Y3678592D01*
X9487933Y3673488D01*
X9493489Y3667932D01*
X9498592Y3661957D01*
X9503211Y3655599D01*
X9507317Y3648899D01*
X9510884Y3641898D01*
X9513892Y3634638D01*
X9516320Y3627164D01*
X9518154Y3619524D01*
X9519383Y3611762D01*
X9520000Y3603929D01*
X9520000Y3599999D01*
X9520000Y3600000D01*
X9520000Y3450000D01*
Y3446071D01*
X9519383Y3438237D01*
X9518154Y3430476D01*
X9516320Y3422835D01*
X9513891Y3415361D01*
X9510884Y3408102D01*
X9507317Y3401100D01*
X9503211Y3394400D01*
X9498592Y3388043D01*
X9493489Y3382067D01*
X9487933Y3376511D01*
X9481957Y3371408D01*
X9475600Y3366789D01*
X9468900Y3362683D01*
X9461898Y3359116D01*
X9454638Y3356109D01*
X9447165Y3353680D01*
X9439524Y3351846D01*
X9431763Y3350617D01*
X9423929Y3350000D01*
X9420000D01*
Y3350000D01*
X9042500Y3350000D01*
X9038571D01*
X9030737Y3350617D01*
X9022976Y3351846D01*
X9015335Y3353680D01*
X9007862Y3356109D01*
X9000602Y3359116D01*
X8993600Y3362683D01*
X8986900Y3366789D01*
X8980543Y3371408D01*
X8974568Y3376511D01*
X8969011Y3382067D01*
X8963908Y3388043D01*
X8959289Y3394400D01*
X8955183Y3401100D01*
X8951616Y3408102D01*
X8948609Y3415361D01*
X8946180Y3422835D01*
X8944346Y3430476D01*
X8943117Y3438237D01*
X8942500Y3446071D01*
Y3450000D01*
X8942500D01*
X8942500Y3600000D01*
Y3603929D01*
X8943117Y3611763D01*
X8944346Y3619524D01*
X8946180Y3627165D01*
X8948609Y3634638D01*
X8951616Y3641898D01*
X8955183Y3648899D01*
X8959289Y3655599D01*
X8963908Y3661957D01*
X8969011Y3667932D01*
X8974568Y3673488D01*
X8980543Y3678592D01*
X8986900Y3683211D01*
X8993600Y3687316D01*
X9000602Y3690884D01*
X9007862Y3693891D01*
X9015335Y3696319D01*
X9022976Y3698154D01*
X9030737Y3699383D01*
X9038571Y3700000D01*
X9042500D01*
Y3700000D01*
X9420000Y3699999D01*
D02*
G37*
G36*
X3040000Y3520000D02*
Y3275000D01*
X2460000D01*
Y3640000D01*
X2920000D01*
X3040000Y3520000D01*
D02*
G37*
G36*
X9420000Y3250000D02*
X9424366D01*
X9433065Y3249239D01*
X9441665Y3247722D01*
X9450099Y3245462D01*
X9458305Y3242476D01*
X9466219Y3238785D01*
X9473781Y3234419D01*
X9480934Y3229411D01*
X9487623Y3223798D01*
X9493798Y3217623D01*
X9499411Y3210934D01*
X9504420Y3203781D01*
X9508786Y3196219D01*
X9512476Y3188305D01*
X9515463Y3180099D01*
X9517723Y3171664D01*
X9519239Y3163065D01*
X9520000Y3154366D01*
Y3145634D01*
X9519239Y3136935D01*
X9517723Y3128335D01*
X9515463Y3119901D01*
X9512476Y3111695D01*
X9508786Y3103781D01*
X9504420Y3096219D01*
X9499411Y3089065D01*
X9493798Y3082376D01*
X9487623Y3076202D01*
X9480934Y3070589D01*
X9473781Y3065580D01*
X9466219Y3061214D01*
X9458305Y3057524D01*
X9450099Y3054537D01*
X9441665Y3052277D01*
X9433065Y3050761D01*
X9424366Y3050000D01*
X9420000D01*
X9042500Y3050000D01*
X9038134D01*
X9029435Y3050761D01*
X9020835Y3052277D01*
X9012401Y3054537D01*
X9004195Y3057524D01*
X8996281Y3061214D01*
X8988719Y3065580D01*
X8981566Y3070589D01*
X8974877Y3076202D01*
X8968702Y3082377D01*
X8963089Y3089066D01*
X8958080Y3096219D01*
X8953714Y3103781D01*
X8950024Y3111695D01*
X8947037Y3119901D01*
X8944777Y3128335D01*
X8943261Y3136935D01*
X8942500Y3145634D01*
Y3154366D01*
X8943261Y3163065D01*
X8944777Y3171664D01*
X8947037Y3180099D01*
X8950024Y3188305D01*
X8953714Y3196219D01*
X8958080Y3203781D01*
X8963089Y3210934D01*
X8968702Y3217623D01*
X8974877Y3223798D01*
X8981566Y3229411D01*
X8988719Y3234419D01*
X8996281Y3238785D01*
X9004195Y3242476D01*
X9012401Y3245463D01*
X9020835Y3247722D01*
X9029435Y3249239D01*
X9038134Y3250000D01*
X9042500D01*
X9420000Y3250000D01*
D02*
G37*
G36*
X1390881Y3049562D02*
X960881D01*
Y3489562D01*
X930882D01*
Y3699562D01*
X880881D01*
Y3979562D01*
X1390881D01*
Y3049562D01*
D02*
G37*
G36*
X4004500Y2655500D02*
X3315500D01*
Y3244500D01*
X4004500D01*
Y2655500D01*
D02*
G37*
G36*
X6172500Y2655500D02*
X5483500D01*
Y3244500D01*
X6172500D01*
Y2655500D01*
D02*
G37*
G36*
X9048065Y2599239D02*
X9056664Y2597723D01*
X9065099Y2595463D01*
X9073305Y2592476D01*
X9081219Y2588786D01*
X9088781Y2584420D01*
X9095934Y2579411D01*
X9102623Y2573798D01*
X9108798Y2567623D01*
X9114411Y2560934D01*
X9119419Y2553781D01*
X9123785Y2546219D01*
X9127476Y2538305D01*
X9130463Y2530099D01*
X9132722Y2521665D01*
X9134239Y2513065D01*
X9135000Y2504366D01*
Y2495634D01*
X9134239Y2486935D01*
X9132722Y2478335D01*
X9130463Y2469901D01*
X9127476Y2461695D01*
X9123785Y2453781D01*
X9119419Y2446219D01*
X9114411Y2439066D01*
X9108798Y2432377D01*
X9102623Y2426202D01*
X9095934Y2420589D01*
X9088781Y2415580D01*
X9081219Y2411214D01*
X9073305Y2407524D01*
X9065099Y2404537D01*
X9056664Y2402277D01*
X9048065Y2400761D01*
X9039366Y2400000D01*
X9035000D01*
X8735000Y2400000D01*
X8730477Y2399948D01*
X8721440Y2399540D01*
X8712430Y2398722D01*
X8703467Y2397498D01*
X8694568Y2395870D01*
X8685753Y2393842D01*
X8677037Y2391416D01*
X8668441Y2388599D01*
X8659980Y2385397D01*
X8651673Y2381815D01*
X8643537Y2377861D01*
X8635588Y2373543D01*
X8631688Y2371250D01*
X8627814Y2368913D01*
X8619863Y2364594D01*
X8611724Y2360639D01*
X8603415Y2357056D01*
X8594952Y2353852D01*
X8586353Y2351035D01*
X8577636Y2348609D01*
X8568818Y2346580D01*
X8559917Y2344951D01*
X8550951Y2343727D01*
X8541940Y2342909D01*
X8532900Y2342500D01*
X8528376Y2342501D01*
X7040000Y2342500D01*
X7036192D01*
X7028614Y2343246D01*
X7021146Y2344732D01*
X7013859Y2346942D01*
X7006824Y2349856D01*
X7000108Y2353446D01*
X6993777Y2357676D01*
X6987891Y2362507D01*
X6982506Y2367891D01*
X6977676Y2373778D01*
X6973445Y2380109D01*
X6969856Y2386824D01*
X6966942Y2393859D01*
X6964732Y2401146D01*
X6963246Y2408614D01*
X6962500Y2416193D01*
Y2420000D01*
Y2522500D01*
Y2526307D01*
X6963246Y2533885D01*
X6964732Y2541354D01*
X6966942Y2548641D01*
X6969856Y2555676D01*
X6973445Y2562391D01*
X6977676Y2568722D01*
X6982506Y2574609D01*
X6987891Y2579993D01*
X6993777Y2584824D01*
X7000108Y2589054D01*
X7006824Y2592644D01*
X7013859Y2595558D01*
X7021146Y2597768D01*
X7028614Y2599254D01*
X7036192Y2600000D01*
X9039366D01*
X9048065Y2599239D01*
D02*
G37*
G36*
X8541940Y2057090D02*
X8550951Y2056273D01*
X8559917Y2055048D01*
X8568818Y2053420D01*
X8577636Y2051391D01*
X8586354Y2048965D01*
X8594952Y2046148D01*
X8603415Y2042944D01*
X8611724Y2039361D01*
X8619863Y2035406D01*
X8627814Y2031087D01*
X8631688Y2028750D01*
X8635588Y2026457D01*
X8643537Y2022139D01*
X8651673Y2018185D01*
X8659980Y2014603D01*
X8668441Y2011400D01*
X8677037Y2008583D01*
X8685753Y2006158D01*
X8694568Y2004129D01*
X8703467Y2002501D01*
X8712430Y2001277D01*
X8721440Y2000460D01*
X8730477Y2000051D01*
X8735000Y2000000D01*
X9039366D01*
X9048065Y1999239D01*
X9056664Y1997722D01*
X9065099Y1995463D01*
X9073305Y1992476D01*
X9081219Y1988785D01*
X9088781Y1984419D01*
X9095934Y1979411D01*
X9102623Y1973798D01*
X9108798Y1967623D01*
X9114411Y1960934D01*
X9119419Y1953781D01*
X9123785Y1946219D01*
X9127476Y1938305D01*
X9130463Y1930099D01*
X9132722Y1921664D01*
X9134239Y1913065D01*
X9135000Y1904366D01*
Y1895634D01*
X9134239Y1886935D01*
X9132722Y1878335D01*
X9130463Y1869901D01*
X9127476Y1861695D01*
X9123785Y1853781D01*
X9119419Y1846219D01*
X9114411Y1839066D01*
X9108798Y1832377D01*
X9102623Y1826202D01*
X9095934Y1820589D01*
X9088781Y1815580D01*
X9081219Y1811214D01*
X9073305Y1807524D01*
X9065099Y1804537D01*
X9056664Y1802277D01*
X9048065Y1800761D01*
X9039366Y1800000D01*
X8337150D01*
X8333224Y1799923D01*
X8325396Y1799307D01*
X8317641Y1798078D01*
X8310006Y1796245D01*
X8302538Y1793819D01*
X8295284Y1790814D01*
X8288288Y1787249D01*
X8281593Y1783147D01*
X8275241Y1778532D01*
X8269270Y1773432D01*
X8263718Y1767880D01*
X8258618Y1761909D01*
X8254003Y1755557D01*
X8249900Y1748862D01*
X8246336Y1741866D01*
X8243331Y1734611D01*
X8240905Y1727144D01*
X8239071Y1719509D01*
X8237843Y1711753D01*
X8237227Y1703926D01*
X8237150Y1700000D01*
Y1413050D01*
Y1409121D01*
X8236533Y1401287D01*
X8235304Y1393526D01*
X8233470Y1385885D01*
X8231041Y1378411D01*
X8228034Y1371151D01*
X8224467Y1364150D01*
X8220361Y1357450D01*
X8215742Y1351093D01*
X8210639Y1345117D01*
X8205082Y1339561D01*
X8199107Y1334457D01*
X8192750Y1329839D01*
X8186050Y1325733D01*
X8179048Y1322165D01*
X8171788Y1319158D01*
X8164315Y1316730D01*
X8156674Y1314895D01*
X8148913Y1313666D01*
X8141079Y1313050D01*
X7858921D01*
X7851087Y1313666D01*
X7843326Y1314895D01*
X7835685Y1316730D01*
X7828211Y1319158D01*
X7820952Y1322165D01*
X7813950Y1325733D01*
X7807250Y1329839D01*
X7800893Y1334457D01*
X7794917Y1339561D01*
X7789361Y1345117D01*
X7784257Y1351093D01*
X7779639Y1357450D01*
X7775533Y1364150D01*
X7771965Y1371151D01*
X7768958Y1378411D01*
X7766530Y1385885D01*
X7764695Y1393526D01*
X7763466Y1401287D01*
X7762850Y1409121D01*
Y1413050D01*
Y1802500D01*
X7762773Y1806425D01*
X7762157Y1814253D01*
X7760928Y1822009D01*
X7759095Y1829644D01*
X7756669Y1837111D01*
X7753664Y1844365D01*
X7750099Y1851362D01*
X7745997Y1858056D01*
X7741382Y1864409D01*
X7736282Y1870380D01*
X7730730Y1875932D01*
X7724759Y1881031D01*
X7718407Y1885646D01*
X7711712Y1889749D01*
X7704716Y1893314D01*
X7697461Y1896319D01*
X7689994Y1898745D01*
X7682359Y1900578D01*
X7674603Y1901806D01*
X7666776Y1902422D01*
X7662850Y1902500D01*
X7036192D01*
X7028614Y1903246D01*
X7021146Y1904732D01*
X7013859Y1906942D01*
X7006824Y1909856D01*
X7000108Y1913445D01*
X6993777Y1917676D01*
X6987891Y1922506D01*
X6982506Y1927891D01*
X6977676Y1933777D01*
X6973445Y1940108D01*
X6969856Y1946824D01*
X6966942Y1953859D01*
X6964732Y1961146D01*
X6963246Y1968614D01*
X6962500Y1976192D01*
Y1983807D01*
X6963246Y1991385D01*
X6964732Y1998853D01*
X6966942Y2006140D01*
X6969856Y2013175D01*
X6973445Y2019891D01*
X6977676Y2026222D01*
X6982506Y2032108D01*
X6987891Y2037492D01*
X6993777Y2042323D01*
X7000108Y2046554D01*
X7006824Y2050143D01*
X7013859Y2053057D01*
X7021146Y2055267D01*
X7028614Y2056753D01*
X7036192Y2057500D01*
X8532900D01*
X8541940Y2057090D01*
D02*
G37*
G36*
X6485000Y1100000D02*
X6210000D01*
Y2500000D01*
X6485000D01*
Y1100000D01*
D02*
G37*
G36*
X3980000Y260000D02*
X3115000D01*
Y540000D01*
X3980000D01*
Y260000D01*
D02*
G37*
G36*
X8148913Y1086333D02*
X8156674Y1085104D01*
X8164315Y1083269D01*
X8171788Y1080841D01*
X8179048Y1077834D01*
X8186050Y1074267D01*
X8192750Y1070161D01*
X8199107Y1065542D01*
X8205082Y1060439D01*
X8210639Y1054882D01*
X8215742Y1048907D01*
X8220361Y1042550D01*
X8224467Y1035850D01*
X8228034Y1028848D01*
X8231041Y1021588D01*
X8233470Y1014115D01*
X8235304Y1006474D01*
X8236533Y998713D01*
X8237150Y990879D01*
Y986950D01*
Y737150D01*
Y726898D01*
X8236418Y706406D01*
X8234955Y685954D01*
X8232764Y665567D01*
X8229845Y645270D01*
X8226205Y625092D01*
X8221846Y605056D01*
X8216775Y585188D01*
X8210998Y565514D01*
X8204523Y546059D01*
X8197357Y526847D01*
X8189511Y507903D01*
X8180993Y489251D01*
X8171814Y470915D01*
X8161987Y452919D01*
X8151525Y435285D01*
X8140439Y418035D01*
X8128745Y401192D01*
X8116457Y384777D01*
X8103591Y368812D01*
X8090163Y353315D01*
X8076191Y338308D01*
X8061692Y323809D01*
X8046685Y309837D01*
X8031188Y296409D01*
X8015222Y283543D01*
X7998808Y271255D01*
X7981965Y259561D01*
X7964715Y248475D01*
X7947081Y238012D01*
X7929084Y228185D01*
X7910748Y219007D01*
X7892097Y210489D01*
X7873153Y202642D01*
X7853941Y195477D01*
X7834486Y189001D01*
X7814812Y183224D01*
X7794944Y178154D01*
X7774908Y173795D01*
X7754729Y170154D01*
X7734433Y167236D01*
X7714046Y165044D01*
X7693594Y163582D01*
X7673102Y162850D01*
X7509121D01*
X7501287Y163466D01*
X7493526Y164695D01*
X7485885Y166530D01*
X7478411Y168958D01*
X7471151Y171965D01*
X7464150Y175533D01*
X7457450Y179639D01*
X7451093Y184257D01*
X7445117Y189361D01*
X7439561Y194917D01*
X7434457Y200893D01*
X7429839Y207250D01*
X7425733Y213950D01*
X7422165Y220952D01*
X7419158Y228211D01*
X7416730Y235685D01*
X7414895Y243326D01*
X7413666Y251087D01*
X7413050Y258921D01*
Y262850D01*
Y537150D01*
Y541079D01*
X7413666Y548913D01*
X7414895Y556674D01*
X7416730Y564315D01*
X7419158Y571788D01*
X7422165Y579048D01*
X7425733Y586050D01*
X7429839Y592750D01*
X7434457Y599107D01*
X7439561Y605082D01*
X7445117Y610639D01*
X7451093Y615742D01*
X7457450Y620361D01*
X7464150Y624467D01*
X7471151Y628034D01*
X7478411Y631041D01*
X7485885Y633470D01*
X7493526Y635304D01*
X7501287Y636533D01*
X7509121Y637150D01*
X7662850D01*
X7666776Y637227D01*
X7674603Y637843D01*
X7682359Y639071D01*
X7689994Y640904D01*
X7697461Y643331D01*
X7704716Y646336D01*
X7711712Y649900D01*
X7718407Y654003D01*
X7724759Y658618D01*
X7730730Y663718D01*
X7736282Y669270D01*
X7741382Y675241D01*
X7745997Y681593D01*
X7750099Y688288D01*
X7753664Y695284D01*
X7756669Y702538D01*
X7759095Y710006D01*
X7760928Y717641D01*
X7762157Y725396D01*
X7762773Y733224D01*
X7762850Y737150D01*
Y986950D01*
Y990879D01*
X7763466Y998713D01*
X7764695Y1006474D01*
X7766530Y1014115D01*
X7768958Y1021588D01*
X7771965Y1028848D01*
X7775533Y1035850D01*
X7779639Y1042550D01*
X7784257Y1048907D01*
X7789361Y1054882D01*
X7794917Y1060439D01*
X7800893Y1065542D01*
X7807250Y1070161D01*
X7813950Y1074267D01*
X7820952Y1077834D01*
X7828211Y1080841D01*
X7835685Y1083269D01*
X7843326Y1085104D01*
X7851087Y1086333D01*
X7858921Y1086950D01*
X8141079D01*
X8148913Y1086333D01*
D02*
G37*
G36*
X7086950Y637150D02*
X7090879D01*
X7098713Y636533D01*
X7106474Y635304D01*
X7114115Y633469D01*
X7121588Y631041D01*
X7128848Y628034D01*
X7135850Y624467D01*
X7142550Y620361D01*
X7148907Y615742D01*
X7154882Y610639D01*
X7160439Y605082D01*
X7165542Y599107D01*
X7170161Y592750D01*
X7174267Y586050D01*
X7177834Y579048D01*
X7180841Y571788D01*
X7183269Y564315D01*
X7185104Y556674D01*
X7186333Y548913D01*
X7186950Y541079D01*
Y537150D01*
X7186950D01*
X7186950Y262850D01*
Y258920D01*
X7186333Y251087D01*
X7185104Y243325D01*
X7183269Y235685D01*
X7180841Y228211D01*
X7177834Y220951D01*
X7174267Y213950D01*
X7170161Y207250D01*
X7165542Y200892D01*
X7160439Y194917D01*
X7154882Y189361D01*
X7148907Y184257D01*
X7142549Y179638D01*
X7135849Y175533D01*
X7128848Y171965D01*
X7121588Y168958D01*
X7114115Y166530D01*
X7106474Y164695D01*
X7098712Y163466D01*
X7090879Y162850D01*
X7086950Y162850D01*
X6781175D01*
X6770515Y163419D01*
X6759901Y164556D01*
X6749362Y166258D01*
X6738930Y168519D01*
X6728632Y171334D01*
X6718500Y174694D01*
X6708561Y178589D01*
X6698844Y183009D01*
X6689377Y187941D01*
X6680186Y193371D01*
X6671298Y199283D01*
X6662738Y205661D01*
X6654530Y212487D01*
X6646698Y219740D01*
X6639264Y227401D01*
X6635756Y231425D01*
X6632196Y235400D01*
X6624765Y243058D01*
X6616935Y250309D01*
X6608731Y257132D01*
X6600173Y263508D01*
X6591289Y269418D01*
X6582101Y274846D01*
X6572637Y279776D01*
X6562923Y284195D01*
X6552988Y288089D01*
X6542859Y291447D01*
X6532566Y294261D01*
X6522137Y296521D01*
X6511602Y298222D01*
X6500991Y299359D01*
X6490335Y299928D01*
X6485000Y299999D01*
X6485000Y300000D01*
X6205634D01*
X6196935Y300761D01*
X6188335Y302277D01*
X6179901Y304537D01*
X6171695Y307524D01*
X6163781Y311214D01*
X6156219Y315580D01*
X6149066Y320589D01*
X6142377Y326202D01*
X6136202Y332377D01*
X6130589Y339066D01*
X6125580Y346219D01*
X6121214Y353781D01*
X6117524Y361695D01*
X6114537Y369901D01*
X6112277Y378335D01*
X6110761Y386935D01*
X6110000Y395634D01*
Y404366D01*
X6110761Y413065D01*
X6112277Y421664D01*
X6114537Y430099D01*
X6117524Y438305D01*
X6121214Y446219D01*
X6125580Y453781D01*
X6130589Y460934D01*
X6136202Y467623D01*
X6142377Y473798D01*
X6149066Y479411D01*
X6156219Y484419D01*
X6163781Y488785D01*
X6171695Y492476D01*
X6179901Y495463D01*
X6188335Y497722D01*
X6196935Y499239D01*
X6205634Y500000D01*
X6485000D01*
X6490336Y500071D01*
X6500992Y500640D01*
X6511602Y501777D01*
X6522137Y503478D01*
X6532566Y505738D01*
X6542860Y508552D01*
X6552988Y511911D01*
X6562924Y515805D01*
X6572637Y520223D01*
X6582101Y525153D01*
X6591289Y530581D01*
X6600174Y536491D01*
X6608731Y542867D01*
X6616936Y549690D01*
X6624765Y556941D01*
X6632196Y564600D01*
X6635756Y568575D01*
X6635756D01*
X6639264Y572598D01*
X6646698Y580259D01*
X6654530Y587512D01*
X6662738Y594338D01*
X6671298Y600716D01*
X6680186Y606628D01*
X6689377Y612058D01*
X6698844Y616990D01*
X6708561Y621410D01*
X6718500Y625306D01*
X6728632Y628666D01*
X6738930Y631480D01*
X6749363Y633741D01*
X6759901Y635443D01*
X6770515Y636580D01*
X6781175Y637150D01*
X6786513D01*
X6786513Y637150D01*
X7086950Y637150D01*
D02*
G37*
%LPC*%
G36*
X1904148Y3245000D02*
X1895852D01*
X1887588Y3244277D01*
X1879418Y3242836D01*
X1871405Y3240689D01*
X1863610Y3237852D01*
X1856092Y3234346D01*
X1848908Y3230198D01*
X1842112Y3225440D01*
X1835758Y3220108D01*
X1829892Y3214242D01*
X1824560Y3207887D01*
X1819802Y3201092D01*
X1815654Y3193908D01*
X1812148Y3186390D01*
X1809311Y3178594D01*
X1807164Y3170581D01*
X1805723Y3162412D01*
X1805000Y3154148D01*
Y3145852D01*
X1805723Y3137588D01*
X1807164Y3129419D01*
X1809311Y3121406D01*
X1812148Y3113610D01*
X1815654Y3106092D01*
X1819802Y3098908D01*
X1824560Y3092113D01*
X1829892Y3085758D01*
X1835758Y3079892D01*
X1842112Y3074560D01*
X1848908Y3069802D01*
X1856092Y3065654D01*
X1863610Y3062148D01*
X1871405Y3059311D01*
X1879418Y3057164D01*
X1887588Y3055723D01*
X1895852Y3055000D01*
X1904148D01*
X1912411Y3055723D01*
X1920581Y3057164D01*
X1928594Y3059311D01*
X1936389Y3062148D01*
X1943907Y3065654D01*
X1951092Y3069802D01*
X1957887Y3074560D01*
X1964242Y3079892D01*
X1970108Y3085758D01*
X1975440Y3092113D01*
X1980198Y3098908D01*
X1984346Y3106092D01*
X1987852Y3113610D01*
X1990689Y3121406D01*
X1992836Y3129419D01*
X1994276Y3137588D01*
X1995000Y3145852D01*
Y3154148D01*
X1994276Y3162412D01*
X1992836Y3170581D01*
X1990689Y3178594D01*
X1987852Y3186390D01*
X1984346Y3193908D01*
X1980198Y3201092D01*
X1975440Y3207887D01*
X1970108Y3214242D01*
X1964242Y3220108D01*
X1957887Y3225440D01*
X1951092Y3230198D01*
X1943907Y3234346D01*
X1936389Y3237852D01*
X1928594Y3240689D01*
X1920581Y3242836D01*
X1912411Y3244277D01*
X1904148Y3245000D01*
D02*
G37*
G36*
X1169714Y2520000D02*
X1160285D01*
X1150884Y2519260D01*
X1141571Y2517785D01*
X1132402Y2515584D01*
X1123434Y2512670D01*
X1114722Y2509061D01*
X1106320Y2504780D01*
X1098280Y2499853D01*
X1090651Y2494311D01*
X1083481Y2488187D01*
X1076813Y2481519D01*
X1070689Y2474348D01*
X1065146Y2466720D01*
X1060219Y2458680D01*
X1055938Y2450278D01*
X1052330Y2441566D01*
X1049416Y2432598D01*
X1047215Y2423429D01*
X1045739Y2414115D01*
X1045000Y2404715D01*
Y2395285D01*
X1045739Y2385884D01*
X1047215Y2376571D01*
X1049416Y2367402D01*
X1052330Y2358434D01*
X1055938Y2349722D01*
X1060219Y2341320D01*
X1065146Y2333280D01*
X1070689Y2325651D01*
X1076813Y2318481D01*
X1083481Y2311813D01*
X1090651Y2305689D01*
X1098280Y2300146D01*
X1106320Y2295219D01*
X1114722Y2290938D01*
X1123434Y2287330D01*
X1132402Y2284416D01*
X1141571Y2282215D01*
X1150884Y2280739D01*
X1160285Y2280000D01*
X1169714D01*
X1179115Y2280739D01*
X1188429Y2282215D01*
X1197598Y2284416D01*
X1206566Y2287330D01*
X1215278Y2290938D01*
X1223680Y2295219D01*
X1231720Y2300146D01*
X1239348Y2305689D01*
X1246519Y2311813D01*
X1253186Y2318481D01*
X1259311Y2325651D01*
X1264853Y2333280D01*
X1269780Y2341320D01*
X1274061Y2349722D01*
X1277670Y2358434D01*
X1280584Y2367402D01*
X1282785Y2376571D01*
X1284260Y2385884D01*
X1285000Y2395285D01*
Y2404715D01*
X1284260Y2414115D01*
X1282785Y2423429D01*
X1280584Y2432598D01*
X1277670Y2441566D01*
X1274061Y2450278D01*
X1269780Y2458680D01*
X1264853Y2466720D01*
X1259311Y2474348D01*
X1253186Y2481519D01*
X1246519Y2488187D01*
X1239348Y2494311D01*
X1231720Y2499853D01*
X1223680Y2504780D01*
X1215278Y2509061D01*
X1206566Y2512670D01*
X1197598Y2515584D01*
X1188429Y2517785D01*
X1179115Y2519260D01*
X1169714Y2520000D01*
D02*
G37*
G36*
Y2220000D02*
X1160285D01*
X1150884Y2219260D01*
X1141571Y2217785D01*
X1132402Y2215584D01*
X1123434Y2212670D01*
X1114722Y2209061D01*
X1106320Y2204780D01*
X1098280Y2199853D01*
X1090651Y2194311D01*
X1083481Y2188187D01*
X1076813Y2181519D01*
X1070689Y2174348D01*
X1065146Y2166720D01*
X1060219Y2158680D01*
X1055938Y2150278D01*
X1052330Y2141566D01*
X1049416Y2132598D01*
X1047215Y2123429D01*
X1045739Y2114115D01*
X1045000Y2104715D01*
Y2095285D01*
X1045739Y2085885D01*
X1047215Y2076571D01*
X1049416Y2067402D01*
X1052330Y2058434D01*
X1055938Y2049722D01*
X1060219Y2041320D01*
X1065146Y2033280D01*
X1070689Y2025651D01*
X1076813Y2018481D01*
X1083481Y2011813D01*
X1090651Y2005689D01*
X1098280Y2000146D01*
X1106320Y1995220D01*
X1114722Y1990938D01*
X1123434Y1987330D01*
X1132402Y1984416D01*
X1141571Y1982215D01*
X1150884Y1980739D01*
X1160285Y1980000D01*
X1169714D01*
X1179115Y1980739D01*
X1188429Y1982215D01*
X1197598Y1984416D01*
X1206566Y1987330D01*
X1215278Y1990938D01*
X1223680Y1995220D01*
X1231720Y2000146D01*
X1239348Y2005689D01*
X1246519Y2011813D01*
X1253186Y2018481D01*
X1259311Y2025651D01*
X1264853Y2033280D01*
X1269780Y2041320D01*
X1274061Y2049722D01*
X1277670Y2058434D01*
X1280584Y2067402D01*
X1282785Y2076571D01*
X1284260Y2085885D01*
X1285000Y2095285D01*
Y2104715D01*
X1284260Y2114115D01*
X1282785Y2123429D01*
X1280584Y2132598D01*
X1277670Y2141566D01*
X1274061Y2150278D01*
X1269780Y2158680D01*
X1264853Y2166720D01*
X1259311Y2174348D01*
X1253186Y2181519D01*
X1246519Y2188187D01*
X1239348Y2194311D01*
X1231720Y2199853D01*
X1223680Y2204780D01*
X1215278Y2209061D01*
X1206566Y2212670D01*
X1197598Y2215584D01*
X1188429Y2217785D01*
X1179115Y2219260D01*
X1169714Y2220000D01*
D02*
G37*
G36*
X2204147Y2145000D02*
X2195852D01*
X2187588Y2144277D01*
X2179418Y2142837D01*
X2171405Y2140690D01*
X2163610Y2137852D01*
X2156092Y2134347D01*
X2148908Y2130199D01*
X2142112Y2125441D01*
X2135758Y2120108D01*
X2129892Y2114242D01*
X2124560Y2107888D01*
X2119801Y2101092D01*
X2115654Y2093908D01*
X2112148Y2086390D01*
X2109310Y2078595D01*
X2107163Y2070582D01*
X2105723Y2062412D01*
X2105000Y2054148D01*
Y2045853D01*
X2105723Y2037589D01*
X2107163Y2029419D01*
X2109310Y2021406D01*
X2112148Y2013611D01*
X2115654Y2006093D01*
X2119801Y1998909D01*
X2124560Y1992113D01*
X2129892Y1985759D01*
X2135758Y1979893D01*
X2142112Y1974560D01*
X2148908Y1969802D01*
X2156092Y1965654D01*
X2163610Y1962148D01*
X2171405Y1959311D01*
X2179418Y1957164D01*
X2187588Y1955724D01*
X2195852Y1955001D01*
X2204147D01*
X2212411Y1955724D01*
X2220581Y1957164D01*
X2228594Y1959311D01*
X2236389Y1962148D01*
X2243907Y1965654D01*
X2251092Y1969802D01*
X2257887Y1974560D01*
X2264242Y1979893D01*
X2270107Y1985759D01*
X2275440Y1992113D01*
X2280198Y1998909D01*
X2284346Y2006093D01*
X2287852Y2013611D01*
X2290689Y2021406D01*
X2292836Y2029419D01*
X2294276Y2037589D01*
X2294999Y2045853D01*
Y2054148D01*
X2294276Y2062412D01*
X2292836Y2070582D01*
X2290689Y2078595D01*
X2287852Y2086390D01*
X2284346Y2093908D01*
X2280198Y2101092D01*
X2275440Y2107888D01*
X2270107Y2114242D01*
X2264242Y2120108D01*
X2257887Y2125441D01*
X2251092Y2130199D01*
X2243907Y2134347D01*
X2236389Y2137852D01*
X2228594Y2140690D01*
X2220581Y2142837D01*
X2212411Y2144277D01*
X2204147Y2145000D01*
D02*
G37*
G36*
X440565Y2270000D02*
X429434D01*
X418328Y2269272D01*
X407293Y2267819D01*
X396376Y2265648D01*
X385625Y2262767D01*
X375085Y2259189D01*
X364802Y2254930D01*
X354819Y2250007D01*
X345180Y2244442D01*
X335925Y2238258D01*
X327095Y2231482D01*
X318727Y2224143D01*
X310856Y2216273D01*
X303518Y2207904D01*
X296742Y2199074D01*
X290558Y2189820D01*
X284993Y2180180D01*
X280070Y2170198D01*
X275810Y2159914D01*
X272233Y2149375D01*
X269352Y2138624D01*
X267180Y2127707D01*
X265728Y2116672D01*
X265000Y2105565D01*
Y2094435D01*
X265728Y2083328D01*
X267180Y2072293D01*
X269352Y2061376D01*
X272233Y2050625D01*
X275810Y2040085D01*
X280070Y2029802D01*
X284993Y2019819D01*
X290558Y2010180D01*
X296742Y2000926D01*
X303518Y1992095D01*
X310856Y1983727D01*
X318727Y1975857D01*
X327095Y1968518D01*
X335925Y1961742D01*
X345180Y1955558D01*
X354819Y1949993D01*
X364802Y1945070D01*
X375085Y1940811D01*
X385625Y1937233D01*
X396376Y1934352D01*
X407293Y1932181D01*
X418328Y1930728D01*
X429434Y1930000D01*
X440565D01*
X451671Y1930728D01*
X462707Y1932181D01*
X473623Y1934352D01*
X484374Y1937233D01*
X494914Y1940811D01*
X505197Y1945070D01*
X515180Y1949993D01*
X524819Y1955558D01*
X534074Y1961742D01*
X542904Y1968518D01*
X551273Y1975857D01*
X559143Y1983727D01*
X566482Y1992095D01*
X573258Y2000926D01*
X579441Y2010180D01*
X585007Y2019819D01*
X589929Y2029802D01*
X594189Y2040085D01*
X597767Y2050625D01*
X600648Y2061376D01*
X602819Y2072293D01*
X604272Y2083328D01*
X605000Y2094435D01*
Y2105565D01*
X604272Y2116672D01*
X602819Y2127707D01*
X600648Y2138624D01*
X597767Y2149375D01*
X594189Y2159914D01*
X589929Y2170198D01*
X585007Y2180180D01*
X579441Y2189820D01*
X573258Y2199074D01*
X566482Y2207904D01*
X559143Y2216273D01*
X551273Y2224143D01*
X542904Y2231482D01*
X534074Y2238258D01*
X524819Y2244442D01*
X515180Y2250007D01*
X505197Y2254930D01*
X494914Y2259189D01*
X484374Y2262767D01*
X473623Y2265648D01*
X462707Y2267819D01*
X451671Y2269272D01*
X440565Y2270000D01*
D02*
G37*
G36*
X1169714Y1920000D02*
X1160285D01*
X1150884Y1919260D01*
X1141571Y1917785D01*
X1132402Y1915584D01*
X1123434Y1912670D01*
X1114722Y1909061D01*
X1106320Y1904780D01*
X1098280Y1899853D01*
X1090651Y1894311D01*
X1083481Y1888186D01*
X1076813Y1881519D01*
X1070689Y1874348D01*
X1065146Y1866720D01*
X1060219Y1858680D01*
X1055938Y1850278D01*
X1052330Y1841566D01*
X1049416Y1832598D01*
X1047215Y1823429D01*
X1045739Y1814115D01*
X1045000Y1804714D01*
Y1795285D01*
X1045739Y1785884D01*
X1047215Y1776571D01*
X1049416Y1767402D01*
X1052330Y1758434D01*
X1055938Y1749722D01*
X1060219Y1741320D01*
X1065146Y1733280D01*
X1070689Y1725651D01*
X1076813Y1718481D01*
X1083481Y1711813D01*
X1090651Y1705689D01*
X1098280Y1700146D01*
X1106320Y1695219D01*
X1114722Y1690938D01*
X1123434Y1687330D01*
X1132402Y1684416D01*
X1141571Y1682215D01*
X1150884Y1680739D01*
X1160285Y1680000D01*
X1169714D01*
X1179115Y1680739D01*
X1188429Y1682215D01*
X1197598Y1684416D01*
X1206566Y1687330D01*
X1215278Y1690938D01*
X1223680Y1695219D01*
X1231720Y1700146D01*
X1239348Y1705689D01*
X1246519Y1711813D01*
X1253186Y1718481D01*
X1259311Y1725651D01*
X1264853Y1733280D01*
X1269780Y1741320D01*
X1274061Y1749722D01*
X1277670Y1758434D01*
X1280584Y1767402D01*
X1282785Y1776571D01*
X1284260Y1785884D01*
X1285000Y1795285D01*
Y1804714D01*
X1284260Y1814115D01*
X1282785Y1823429D01*
X1280584Y1832598D01*
X1277670Y1841566D01*
X1274061Y1850278D01*
X1269780Y1858680D01*
X1264853Y1866720D01*
X1259311Y1874348D01*
X1253186Y1881519D01*
X1246519Y1888186D01*
X1239348Y1894311D01*
X1231720Y1899853D01*
X1223680Y1904780D01*
X1215278Y1909061D01*
X1206566Y1912670D01*
X1197598Y1915584D01*
X1188429Y1917785D01*
X1179115Y1919260D01*
X1169714Y1920000D01*
D02*
G37*
G36*
X2204147Y1045000D02*
X2195852D01*
X2187588Y1044277D01*
X2179418Y1042836D01*
X2171405Y1040689D01*
X2163610Y1037852D01*
X2156092Y1034346D01*
X2148908Y1030198D01*
X2142112Y1025440D01*
X2135758Y1020108D01*
X2129892Y1014242D01*
X2124560Y1007887D01*
X2119801Y1001092D01*
X2115654Y993908D01*
X2112148Y986390D01*
X2109310Y978594D01*
X2107163Y970581D01*
X2105723Y962412D01*
X2105000Y954148D01*
Y945852D01*
X2105723Y937588D01*
X2107163Y929419D01*
X2109310Y921406D01*
X2112148Y913611D01*
X2115654Y906092D01*
X2119801Y898908D01*
X2124560Y892113D01*
X2129892Y885758D01*
X2135758Y879892D01*
X2142112Y874560D01*
X2148908Y869802D01*
X2156092Y865654D01*
X2163610Y862148D01*
X2171405Y859311D01*
X2179418Y857164D01*
X2187588Y855723D01*
X2195852Y855000D01*
X2204147D01*
X2212411Y855723D01*
X2220581Y857164D01*
X2228594Y859311D01*
X2236389Y862148D01*
X2243907Y865654D01*
X2251092Y869802D01*
X2257887Y874560D01*
X2264242Y879892D01*
X2270107Y885758D01*
X2275440Y892113D01*
X2280198Y898908D01*
X2284346Y906092D01*
X2287852Y913611D01*
X2290689Y921406D01*
X2292836Y929419D01*
X2294276Y937588D01*
X2294999Y945852D01*
Y954148D01*
X2294276Y962412D01*
X2292836Y970581D01*
X2290689Y978594D01*
X2287852Y986390D01*
X2284346Y993908D01*
X2280198Y1001092D01*
X2275440Y1007887D01*
X2270107Y1014242D01*
X2264242Y1020108D01*
X2257887Y1025440D01*
X2251092Y1030198D01*
X2243907Y1034346D01*
X2236389Y1037852D01*
X2228594Y1040689D01*
X2220581Y1042836D01*
X2212411Y1044277D01*
X2204147Y1045000D01*
D02*
G37*
G36*
X609725Y1120000D02*
X590275D01*
X570838Y1119273D01*
X551442Y1117819D01*
X532115Y1115641D01*
X512882Y1112743D01*
X493770Y1109127D01*
X474808Y1104798D01*
X456020Y1099764D01*
X437434Y1094031D01*
X419076Y1087607D01*
X400970Y1080502D01*
X383142Y1072724D01*
X365619Y1064284D01*
X348422Y1055196D01*
X331578Y1045471D01*
X315109Y1035123D01*
X299038Y1024166D01*
X283389Y1012616D01*
X268182Y1000489D01*
X253439Y987802D01*
X239181Y974572D01*
X225428Y960819D01*
X212198Y946561D01*
X199511Y931818D01*
X187384Y916611D01*
X175834Y900962D01*
X164877Y884891D01*
X154530Y868422D01*
X144804Y851578D01*
X135716Y834382D01*
X127277Y816858D01*
X119499Y799030D01*
X112393Y780925D01*
X105969Y762566D01*
X100236Y743980D01*
X95202Y725192D01*
X90874Y706230D01*
X87258Y687119D01*
X84359Y667886D01*
X82181Y648558D01*
X80727Y629162D01*
X80000Y609725D01*
Y590275D01*
X80727Y570838D01*
X82181Y551442D01*
X84359Y532115D01*
X87258Y512882D01*
X90874Y493770D01*
X95202Y474808D01*
X100236Y456020D01*
X105969Y437434D01*
X112393Y419076D01*
X119499Y400970D01*
X127277Y383142D01*
X135716Y365619D01*
X144804Y348422D01*
X154530Y331578D01*
X164877Y315109D01*
X175834Y299038D01*
X187384Y283389D01*
X199511Y268182D01*
X212198Y253439D01*
X225428Y239181D01*
X239181Y225428D01*
X253439Y212198D01*
X268182Y199511D01*
X283389Y187384D01*
X299038Y175834D01*
X315109Y164877D01*
X331578Y154530D01*
X348422Y144804D01*
X365619Y135716D01*
X383142Y127277D01*
X400970Y119499D01*
X419076Y112393D01*
X437434Y105969D01*
X456020Y100236D01*
X474808Y95202D01*
X493770Y90874D01*
X512882Y87258D01*
X532115Y84359D01*
X551442Y82181D01*
X570838Y80727D01*
X590275Y80000D01*
X609725D01*
X629162Y80727D01*
X648558Y82181D01*
X667886Y84359D01*
X687119Y87258D01*
X706230Y90874D01*
X725192Y95202D01*
X743980Y100236D01*
X762566Y105969D01*
X780925Y112393D01*
X799030Y119499D01*
X816858Y127277D01*
X834382Y135716D01*
X851578Y144804D01*
X868422Y154530D01*
X884891Y164877D01*
X900962Y175834D01*
X916611Y187384D01*
X931818Y199511D01*
X946561Y212198D01*
X960819Y225428D01*
X974572Y239181D01*
X987802Y253439D01*
X1000489Y268182D01*
X1012616Y283389D01*
X1024166Y299038D01*
X1035123Y315109D01*
X1045471Y331578D01*
X1055196Y348422D01*
X1064284Y365619D01*
X1072724Y383142D01*
X1080502Y400970D01*
X1087607Y419076D01*
X1094031Y437434D01*
X1099764Y456020D01*
X1104798Y474808D01*
X1109127Y493770D01*
X1112743Y512882D01*
X1115641Y532115D01*
X1117819Y551442D01*
X1119273Y570838D01*
X1120000Y590275D01*
Y609725D01*
X1119273Y629162D01*
X1117819Y648558D01*
X1115641Y667886D01*
X1112743Y687119D01*
X1109127Y706230D01*
X1104798Y725192D01*
X1099764Y743980D01*
X1094031Y762566D01*
X1087607Y780925D01*
X1080502Y799030D01*
X1072724Y816858D01*
X1064284Y834382D01*
X1055196Y851578D01*
X1045471Y868422D01*
X1035123Y884891D01*
X1024166Y900962D01*
X1012616Y916611D01*
X1000489Y931818D01*
X987802Y946561D01*
X974572Y960819D01*
X960819Y974572D01*
X946561Y987802D01*
X931818Y1000489D01*
X916611Y1012616D01*
X900962Y1024166D01*
X884891Y1035123D01*
X868422Y1045471D01*
X851578Y1055196D01*
X834382Y1064284D01*
X816858Y1072724D01*
X799030Y1080502D01*
X780925Y1087607D01*
X762566Y1094031D01*
X743980Y1099764D01*
X725192Y1104798D01*
X706230Y1109127D01*
X687119Y1112743D01*
X667886Y1115641D01*
X648558Y1117819D01*
X629162Y1119273D01*
X609725Y1120000D01*
D02*
G37*
G36*
X8528376Y2342501D02*
X8528376D01*
D01*
X8528376D01*
D02*
G37*
%LPD*%
D10*
X9700000Y2600000D02*
G03*
X9500000Y2800000I-200000J0D01*
G01*
Y1900000D02*
G03*
X9700000Y2100000I0J200000D01*
G01*
X9231250Y3000000D02*
G03*
X9431250Y2800000I200000J0D01*
G01*
X540419Y4058550D02*
X591113D01*
X522238Y4076730D02*
Y4208845D01*
Y4076730D02*
X540419Y4058550D01*
X522238Y4208845D02*
X542955Y4229562D01*
X591113Y4058550D02*
X610882Y4038781D01*
X660881Y3993562D02*
Y4057062D01*
X598382Y4119561D02*
X660881Y4057062D01*
X3827929Y6671710D02*
X3864999Y6708781D01*
X3653165Y6654472D02*
X3670403Y6671710D01*
X3827929D01*
X9700000Y2100000D02*
Y2600000D01*
X9035000Y1900000D02*
X9500000D01*
X9431250Y2800000D02*
X9500000D01*
X9231250Y3000000D02*
Y3150000D01*
X3975000Y3375000D02*
X4790000Y2560000D01*
X3995711Y3425000D02*
X4810711Y2610000D01*
X6560000D02*
X7550000Y3600000D01*
X6580711Y2560000D02*
X7600000Y3579289D01*
X4790000Y2560000D02*
X6580711D01*
X4810711Y2610000D02*
X6560000D01*
X5046206Y6010239D02*
Y6116742D01*
X5002470Y6160477D02*
X5046206Y6116742D01*
X4943735Y5863735D02*
Y6010239D01*
X4900000Y5820000D02*
X4943735Y5863735D01*
X4900000Y5560000D02*
Y5820000D01*
X4840000Y5500000D02*
X4900000Y5560000D01*
X4360000Y5500000D02*
X4840000D01*
X4300000Y5560000D02*
X4360000Y5500000D01*
X4300000Y5560000D02*
Y5820000D01*
X4240000Y5880000D02*
X4300000Y5820000D01*
X3600000Y5880000D02*
X4240000D01*
X3573735Y5906265D02*
X3600000Y5880000D01*
X3573735Y5906265D02*
Y6010238D01*
X4200000Y6020000D02*
Y6125630D01*
X4229609Y6155239D01*
X4348735D01*
X7462500Y5797500D02*
X7620000D01*
X6576790Y5650000D02*
X6806620Y5879831D01*
X6927670D01*
X5620711Y5650000D02*
X6576790D01*
X6597500Y5600000D02*
X6730001Y5732500D01*
X5550000Y5720711D02*
X5620711Y5650000D01*
X5550000Y5720711D02*
Y6120711D01*
X5465472Y6205239D02*
X5550000Y6120711D01*
X5188735Y6205239D02*
X5465472D01*
X5600000Y5600000D02*
X6597500D01*
X5500000Y5700000D02*
X5600000Y5600000D01*
X5500000Y5700000D02*
Y6100000D01*
X5444761Y6155239D02*
X5500000Y6100000D01*
X5188735Y6155239D02*
X5444761D01*
X6955000Y5800000D02*
Y5852500D01*
X6927670Y5879831D02*
X6955000Y5852500D01*
X6730001Y5732500D02*
X6927670D01*
X6955000Y5705170D01*
X7200000Y3827149D02*
Y5095000D01*
X6797851Y3425000D02*
X7200000Y3827149D01*
X7250000Y3806438D02*
Y5095000D01*
X6818561Y3375000D02*
X7250000Y3806438D01*
X7550000Y3600000D02*
Y5095000D01*
X7600000Y3579289D02*
Y5095000D01*
X7250000D02*
X7300000Y5145000D01*
X7150000D02*
X7200000Y5095000D01*
X7500000Y5145000D02*
X7550000Y5095000D01*
X7600000D02*
X7650000Y5145000D01*
X7457500Y5297500D02*
Y5400000D01*
Y5297500D02*
X7500000Y5255000D01*
X7342500Y5297500D02*
Y5400000D01*
X7300000Y5255000D02*
X7342500Y5297500D01*
X4818734Y5828735D02*
X4893735Y5903735D01*
X4818734Y5828735D02*
X4818735Y5735238D01*
X4668735Y5735239D02*
X4818734D01*
X4518735D02*
X4668735D01*
X4893735Y5903735D02*
Y6010239D01*
X5118735Y5732739D02*
X5118735D01*
X5069609Y5732739D02*
X5118735Y5732739D01*
X4968735D02*
X5030391Y5732739D01*
X5050000Y5752348D01*
X5069609Y5732739D01*
X5050000Y5752348D02*
X5050000Y5847470D01*
X4843735Y6116742D02*
X4887470Y6160477D01*
X4843735Y6010239D02*
Y6116742D01*
X4743735D02*
X4787470Y6160477D01*
X4743735Y6010239D02*
Y6116742D01*
X4750000Y5860000D02*
X4793735Y5903735D01*
Y6010239D01*
X4993735Y5903735D02*
X5050000Y5847470D01*
X4993735Y5903735D02*
Y6010239D01*
X5043735Y6850239D02*
Y6956265D01*
X5000000Y7000000D02*
X5043735Y6956265D01*
X5000000Y7000000D02*
Y7050000D01*
X4950000Y6700000D02*
X4993735Y6743735D01*
Y6850239D01*
X4850000Y6700000D02*
X4893735Y6743735D01*
Y6850239D01*
X4900000Y7000000D02*
Y7050000D01*
Y7000000D02*
X4943735Y6956265D01*
Y6850239D02*
Y6956265D01*
X4600000Y7000000D02*
Y7050000D01*
Y7000000D02*
X4643735Y6956265D01*
Y6850239D02*
Y6956265D01*
X4650000Y6700000D02*
X4693735Y6743735D01*
Y6850239D01*
X4743735D02*
Y6956265D01*
X4700000Y7000000D02*
X4743735Y6956265D01*
X4700000Y7000000D02*
Y7050000D01*
X4800000Y7000000D02*
Y7050000D01*
Y7000000D02*
X4843735Y6956265D01*
Y6850239D02*
Y6956265D01*
X4793735Y6743735D02*
Y6850239D01*
X4750000Y6700000D02*
X4793735Y6743735D01*
X4059354Y7125000D02*
X5100000D01*
X4000000Y6650000D02*
Y7065646D01*
X4059354Y7125000D01*
X3954500Y6604500D02*
X4000000Y6650000D01*
X3865000Y6604500D02*
X3954500D01*
X3900000Y6985410D02*
Y7125000D01*
X3765915Y6950000D02*
X3864590D01*
X3900000Y6985410D01*
X3735000Y6795000D02*
Y6919085D01*
X3765915Y6950000D01*
X3575743Y6714849D02*
X3779037D01*
X3555000Y6735592D02*
X3575743Y6714849D01*
X3779037D02*
X3800000Y6735812D01*
X3555000Y6735592D02*
Y6800000D01*
X3800000Y6735812D02*
Y6794500D01*
X3864999Y6708781D02*
Y6794500D01*
X3653165Y6619656D02*
Y6654472D01*
X3633510Y6600000D02*
X3653165Y6619656D01*
X3555000Y6600000D02*
X3633510D01*
X3350000Y6374024D02*
X3468785Y6255239D01*
X3350000Y6374024D02*
Y6570809D01*
X3300000Y6353313D02*
X3448075Y6205239D01*
X3300000Y6353313D02*
Y6750000D01*
X3448075Y6205239D02*
X4348735D01*
X3379191Y6600000D02*
X3445000D01*
X3350000Y6570809D02*
X3379191Y6600000D01*
X3468785Y6255239D02*
X4348735D01*
X3350000Y6800000D02*
X3445000D01*
X3300000Y6750000D02*
X3350000Y6800000D01*
X5100000Y7275000D02*
Y7445000D01*
X3900000Y7275000D02*
Y7445000D01*
X6955000Y5650000D02*
Y5705170D01*
X6982331Y5732500D01*
X7180000D01*
X6955000Y5800000D02*
X6957500Y5797500D01*
X7180000D01*
X3575000Y3425000D02*
X3995711D01*
X3575000Y3375000D02*
X3975000D01*
X3494000Y3090000D02*
Y3294000D01*
Y3506000D02*
Y3710000D01*
Y3506000D02*
X3575000Y3425000D01*
X3494000Y3294000D02*
X3575000Y3375000D01*
X6075000Y3375000D02*
X6818561D01*
X5994000Y3294000D02*
X6075000Y3375000D01*
Y3425000D02*
X6797851D01*
X5994000Y3506000D02*
X6075000Y3425000D01*
X5994000Y3506000D02*
Y3709999D01*
Y3090000D02*
Y3294000D01*
X7180000Y5602500D02*
X7297500D01*
X7342500Y5557500D01*
Y5400000D02*
Y5557500D01*
X7502500Y5602500D02*
X7620000D01*
X7457500Y5557500D02*
X7502500Y5602500D01*
X7457500Y5400000D02*
Y5557500D01*
X6250000Y6150000D02*
X7100000D01*
X5955000Y6020000D02*
X6120000D01*
X6250000Y6150000D01*
X5955000Y5800000D02*
X6100000D01*
X6350000Y6050000D02*
X7250000D01*
X6100000Y5800000D02*
X6350000Y6050000D01*
X7250000D02*
X7654000Y6454000D01*
Y6673000D01*
X7100000Y6150000D02*
X7400000Y6450000D01*
Y6673000D01*
X7146000Y6446000D02*
Y6673000D01*
X6940001Y6240000D02*
X7146000Y6446000D01*
X5955000Y6240000D02*
X6940001D01*
X542955Y4229562D02*
X598382D01*
X610882Y3993562D02*
Y4038781D01*
D11*
X3252500Y2400000D02*
D03*
Y2000000D02*
D03*
Y1600000D02*
D03*
Y1200000D02*
D03*
Y800000D02*
D03*
Y400000D02*
D03*
X6347500D02*
D03*
Y800000D02*
D03*
Y1200000D02*
D03*
Y1600000D02*
D03*
Y2000000D02*
D03*
Y2400000D02*
D03*
D12*
X4493735Y6850239D02*
D03*
X4543735D02*
D03*
X4593735D02*
D03*
X4643735D02*
D03*
X4693735D02*
D03*
X4743735D02*
D03*
X4793735D02*
D03*
X4843735D02*
D03*
X4893735D02*
D03*
X4943735D02*
D03*
X4993735D02*
D03*
X5043735D02*
D03*
Y6010239D02*
D03*
X4993735D02*
D03*
X4943735D02*
D03*
X4893735D02*
D03*
X4843735D02*
D03*
X4793735D02*
D03*
X4743735D02*
D03*
X4693735D02*
D03*
X4643735D02*
D03*
X4593735D02*
D03*
X4543735D02*
D03*
X4493735D02*
D03*
D13*
X5188735Y6705239D02*
D03*
Y6655239D02*
D03*
Y6605239D02*
D03*
Y6555239D02*
D03*
Y6505239D02*
D03*
Y6455239D02*
D03*
Y6405239D02*
D03*
Y6355239D02*
D03*
Y6305239D02*
D03*
Y6255239D02*
D03*
Y6205239D02*
D03*
Y6155239D02*
D03*
X4348735D02*
D03*
Y6205239D02*
D03*
Y6255239D02*
D03*
Y6305239D02*
D03*
Y6355239D02*
D03*
Y6405239D02*
D03*
Y6455239D02*
D03*
Y6505239D02*
D03*
Y6555239D02*
D03*
Y6605239D02*
D03*
Y6655239D02*
D03*
Y6705239D02*
D03*
D14*
X7300000Y5255000D02*
D03*
Y5145000D02*
D03*
X7500000Y5255000D02*
D03*
Y5145000D02*
D03*
X455881Y3864562D02*
D03*
Y3974562D02*
D03*
X350000Y3974600D02*
D03*
Y3864600D02*
D03*
X455881Y4114561D02*
D03*
Y4224562D02*
D03*
X7150000Y5145000D02*
D03*
Y5255000D02*
D03*
X4518735Y5735239D02*
D03*
Y5625239D02*
D03*
X4818735Y5625239D02*
D03*
Y5735238D02*
D03*
X4668735Y5735239D02*
D03*
Y5625239D02*
D03*
X5118735Y5625239D02*
D03*
Y5735238D02*
D03*
X4968735Y5735239D02*
D03*
Y5625239D02*
D03*
X5100000Y7445000D02*
D03*
Y7555000D02*
D03*
X3900000Y7445000D02*
D03*
Y7555000D02*
D03*
X9350000Y5495000D02*
D03*
Y5604999D02*
D03*
X7650000Y5145000D02*
D03*
Y5255000D02*
D03*
D15*
X6845000Y5650000D02*
D03*
X6955000D02*
D03*
X2145000Y6050000D02*
D03*
X2255000Y6050000D02*
D03*
X700882Y3559562D02*
D03*
X590882D02*
D03*
X5844999Y6240000D02*
D03*
X5955000D02*
D03*
X5845000Y5800000D02*
D03*
X5955000D02*
D03*
X5845000Y6020000D02*
D03*
X5955000D02*
D03*
X710882Y4359562D02*
D03*
X600882D02*
D03*
X2255000Y6950000D02*
D03*
X2145000D02*
D03*
X2255000Y7150000D02*
D03*
X2145000D02*
D03*
X2255000Y6250000D02*
D03*
X2145000Y6250000D02*
D03*
X3445000Y6600000D02*
D03*
X3555000D02*
D03*
X3445000Y6800000D02*
D03*
X3555000D02*
D03*
X6955000Y5800000D02*
D03*
X6845000D02*
D03*
D16*
X5994000Y3090000D02*
D03*
Y3709999D02*
D03*
X3494000Y3710000D02*
D03*
Y3090000D02*
D03*
D17*
X7521000Y400000D02*
D03*
X7079000D02*
D03*
D18*
X405882Y3379562D02*
D03*
X685882D02*
D03*
X875881Y3139562D02*
D03*
X1155882D02*
D03*
X1155882Y3379562D02*
D03*
X875881Y3379562D02*
D03*
X685882Y3129561D02*
D03*
X405882Y3129562D02*
D03*
D19*
X560881Y3993562D02*
D03*
X610882D02*
D03*
X660881D02*
D03*
X710881D02*
D03*
Y3845562D02*
D03*
X660881D02*
D03*
X610881D02*
D03*
X560881Y3845562D02*
D03*
D20*
X703381Y3679562D02*
D03*
X588382Y3679562D02*
D03*
X983382Y3649562D02*
D03*
X868382D02*
D03*
X598382Y4119561D02*
D03*
X713381D02*
D03*
Y4239561D02*
D03*
X598382D02*
D03*
X2742500Y6600000D02*
D03*
X2857499D02*
D03*
X2742500Y7500000D02*
D03*
X2857500D02*
D03*
X7342500Y5400000D02*
D03*
X7457500D02*
D03*
D21*
X3518735Y5537739D02*
D03*
X3518735Y5422739D02*
D03*
X335881Y4112062D02*
D03*
Y4227061D02*
D03*
X4168735Y6487739D02*
D03*
Y6372739D02*
D03*
X5368735Y6487738D02*
D03*
Y6372739D02*
D03*
X7800000Y5642500D02*
D03*
Y5757500D02*
D03*
D22*
X3318735Y5520239D02*
D03*
Y5240239D02*
D03*
X3718735Y5530239D02*
D03*
Y5230238D02*
D03*
X3068735Y5520239D02*
D03*
Y5240239D02*
D03*
X3968735Y5530239D02*
D03*
Y5230238D02*
D03*
X4906000Y5150000D02*
D03*
Y4850000D02*
D03*
X2406000Y5150000D02*
D03*
Y4850000D02*
D03*
X8500000Y5290000D02*
D03*
Y5010000D02*
D03*
X8250000Y5290000D02*
D03*
Y5010001D02*
D03*
X8000000Y5290000D02*
D03*
Y5010000D02*
D03*
X2600000Y3060000D02*
D03*
Y3340000D02*
D03*
D23*
X3573735Y6010238D02*
D03*
X3668735Y6010239D02*
D03*
X3763735Y6010238D02*
D03*
Y5750238D02*
D03*
X3668735Y5750239D02*
D03*
X3573735Y5750238D02*
D03*
D24*
X1135881Y3862062D02*
D03*
Y4277062D02*
D03*
X8250000Y5642500D02*
D03*
Y6057500D02*
D03*
D25*
X7500000Y1980000D02*
D03*
X7500000Y2419999D02*
D03*
X7850000Y1980000D02*
D03*
Y2420000D02*
D03*
X8200000Y1980000D02*
D03*
Y2420000D02*
D03*
X7150000Y1980000D02*
D03*
Y2420000D02*
D03*
D26*
X9350000Y4547500D02*
D03*
Y4752500D02*
D03*
Y4097500D02*
D03*
Y4302500D02*
D03*
Y3647500D02*
D03*
Y3852500D02*
D03*
Y3197500D02*
D03*
Y3402500D02*
D03*
Y4997500D02*
D03*
Y5202500D02*
D03*
D27*
X9100000Y5450000D02*
D03*
Y5650000D02*
D03*
Y4100000D02*
D03*
Y4300000D02*
D03*
Y3650000D02*
D03*
Y3850000D02*
D03*
Y3200000D02*
D03*
Y3400000D02*
D03*
Y5000000D02*
D03*
Y5200000D02*
D03*
Y4550000D02*
D03*
Y4750000D02*
D03*
D28*
X775000Y4800000D02*
D03*
X775000Y5599999D02*
D03*
X775000Y5800001D02*
D03*
X775000Y6000000D02*
D03*
X775000Y6200000D02*
D03*
X775000Y5000000D02*
D03*
X775000Y5200001D02*
D03*
X775000Y5400000D02*
D03*
D29*
X219999Y4565000D02*
D03*
X220000Y6434999D02*
D03*
D30*
X5100000Y7275000D02*
D03*
Y7125000D02*
D03*
X3900000D02*
D03*
Y7275000D02*
D03*
D31*
X8000000Y979000D02*
D03*
Y1421000D02*
D03*
D32*
X2509499Y6780000D02*
D03*
X2636500Y6780000D02*
D03*
X2763500Y6780000D02*
D03*
X2890500D02*
D03*
X2890500Y7320000D02*
D03*
X2763500D02*
D03*
X2636500D02*
D03*
X2509500D02*
D03*
X2509500Y5880000D02*
D03*
X2636500D02*
D03*
X2763500D02*
D03*
X2890500D02*
D03*
X2890500Y6420000D02*
D03*
X2763500D02*
D03*
X2636500Y6420000D02*
D03*
X2509500Y6420000D02*
D03*
D33*
X7620000Y5602500D02*
D03*
X7620000Y5667500D02*
D03*
X7620000Y5732500D02*
D03*
X7620000Y5797500D02*
D03*
X7180000Y5602500D02*
D03*
X7180000Y5667500D02*
D03*
X7180000Y5732500D02*
D03*
X7180000Y5797500D02*
D03*
D34*
X3800000Y6794500D02*
D03*
X3864999D02*
D03*
X3800000Y6604500D02*
D03*
X3865000D02*
D03*
X3735000Y6605000D02*
D03*
X3735000Y6795000D02*
D03*
D35*
X500905Y4359562D02*
X600882D01*
X455881Y4224562D02*
Y4314538D01*
X500905Y4359562D01*
X710881Y4117061D02*
X713381Y4119561D01*
X710881Y3993562D02*
Y4117061D01*
X840881Y4119561D02*
X998382Y4277062D01*
X713381Y4119561D02*
X840881D01*
X455881Y3974562D02*
Y4114561D01*
X775000Y4800000D02*
X1010000D01*
X775000Y6200000D02*
X1010000D01*
X2255000Y6950000D02*
X2599999D01*
X2763500Y7113501D01*
Y7320000D01*
X2584531Y7150000D02*
X2636500Y7201969D01*
Y7320000D01*
X2255000Y7150000D02*
X2584531D01*
X2255000Y6250000D02*
X2584532D01*
X2636500Y6301969D02*
Y6420000D01*
X2584532Y6250000D02*
X2636500Y6301969D01*
X2763500Y6213501D02*
Y6420000D01*
X2599999Y6050000D02*
X2763500Y6213501D01*
X2255000Y6050000D02*
X2599999D01*
X998382Y4277062D02*
X1135881D01*
X335881Y4227061D02*
X338381Y4224562D01*
X455881D01*
X335881Y4112062D02*
X338381Y4114561D01*
X455881D01*
Y3974562D02*
X510422D01*
X529422Y3993562D01*
X560881D01*
X350000Y3782796D02*
Y3864600D01*
X371850Y3760946D02*
X430496D01*
X350000Y3782796D02*
X371850Y3760946D01*
X430496D02*
X455909Y3735533D01*
X477056Y3559562D02*
X590882D01*
X455909Y3580709D02*
X477056Y3559562D01*
X455909Y3580709D02*
Y3735533D01*
X481322Y3760946D01*
X593140D01*
X610881Y3778687D01*
Y3845562D01*
D36*
X7717565Y5667500D02*
X7742565Y5642500D01*
X7800000D01*
X7620000Y5667500D02*
X7717565D01*
X7067500D02*
X7180000D01*
D37*
X5318800Y6372739D02*
X5368735D01*
X5188735Y6405239D02*
X5286300D01*
X5318800Y6372739D01*
X5286300Y6455239D02*
X5318800Y6487738D01*
X5188735Y6455239D02*
X5286300D01*
X5318800Y6487738D02*
X5368735D01*
X4168735D02*
X4218671D01*
X4251170Y6455239D02*
X4348735D01*
X4218671Y6487738D02*
X4251170Y6455239D01*
X4218671Y6372739D02*
X4251170Y6405239D01*
X4348735D01*
X3735000Y6605000D02*
X3799500D01*
X3735000Y6535000D02*
Y6605000D01*
X4168735Y6372739D02*
X4218671D01*
D38*
X5994000Y3709999D02*
Y4195500D01*
X3494001Y3710000D02*
Y4195500D01*
D39*
X4906000D02*
Y4850000D01*
X2406000Y4195500D02*
Y4850000D01*
D40*
X2890500Y6420000D02*
Y6509501D01*
X2857500Y6542501D02*
X2890500Y6509501D01*
X2857500Y6542501D02*
Y6600000D01*
Y7442501D02*
Y7500000D01*
Y7442501D02*
X2890500Y7409501D01*
Y7320000D02*
Y7409501D01*
D41*
X1450000Y6876302D02*
X1655448Y7081750D01*
X1450000Y6439803D02*
Y6876302D01*
X1150000Y6139803D02*
X1450000Y6439803D01*
X1150000Y5831750D02*
Y6139803D01*
X1050000Y5731750D02*
X1150000Y5831750D01*
X843251Y5731750D02*
X1050000D01*
X775000Y5800001D02*
X843251Y5731750D01*
X1513500Y6850000D02*
X1681750Y7018250D01*
X1513500Y6413500D02*
Y6850000D01*
X1213500Y6113500D02*
X1513500Y6413500D01*
X1213500Y5805447D02*
Y6113500D01*
X1076303Y5668250D02*
X1213500Y5805447D01*
X843251Y5668250D02*
X1076303D01*
X775000Y5599999D02*
X843251Y5668250D01*
X1400000Y5939803D02*
X1641948Y6181750D01*
X2076750D01*
X2145000Y6250000D01*
X1463500Y5913500D02*
X1668250Y6118250D01*
X2076750D01*
X2145000Y6050000D01*
X1655448Y7081750D02*
X2076750D01*
X2145000Y7150000D01*
X1681750Y7018250D02*
X2076750D01*
X2145000Y6950000D01*
X1400000Y5431750D02*
Y5939803D01*
X1100000Y5131750D02*
X1400000Y5431750D01*
X843251Y5131750D02*
X1100000D01*
X775000Y5200001D02*
X843251Y5131750D01*
X1463500Y5405448D02*
Y5913500D01*
X1126303Y5068250D02*
X1463500Y5405448D01*
X843251Y5068250D02*
X1126303D01*
X775000Y5000000D02*
X843251Y5068250D01*
D42*
X219999Y6380000D02*
D03*
Y4620000D02*
D03*
D43*
X5994000Y4195500D02*
D03*
X5450000D02*
D03*
X4906000D02*
D03*
X3494000D02*
D03*
X2950000D02*
D03*
X2406000D02*
D03*
D44*
X9300000Y600000D02*
D03*
Y7100000D02*
D03*
X600000D02*
D03*
Y600000D02*
D03*
D45*
X6892000Y6673000D02*
D03*
Y6927000D02*
D03*
X7146000Y6673000D02*
D03*
Y6927000D02*
D03*
X7400000Y6673000D02*
D03*
Y6927000D02*
D03*
X7654000Y6673000D02*
D03*
Y6927000D02*
D03*
X7908000Y6673000D02*
D03*
Y6927000D02*
D03*
X8735000Y1900000D02*
D03*
Y2200000D02*
D03*
Y2500000D02*
D03*
X9035000Y1900000D02*
D03*
Y2200000D02*
D03*
Y2500000D02*
D03*
X1165000Y2400000D02*
D03*
Y2100000D02*
D03*
Y1800000D02*
D03*
X865000Y2400000D02*
D03*
Y2100000D02*
D03*
Y1800000D02*
D03*
D46*
X6497000Y4767000D02*
D03*
X1903000D02*
D03*
D47*
X2200000Y450000D02*
D03*
X2200000Y950000D02*
D03*
X2200000Y1550000D02*
D03*
X2200000Y2050000D02*
D03*
X1900000Y2650000D02*
D03*
X1900000Y3150000D02*
D03*
D48*
X3150001Y400000D02*
D03*
Y500000D02*
D03*
Y300000D02*
D03*
X3250000Y400000D02*
D03*
Y300000D02*
D03*
Y500000D02*
D03*
X3350000Y400000D02*
D03*
Y500000D02*
D03*
Y300000D02*
D03*
X2900000Y3305000D02*
D03*
X3000000D02*
D03*
X2800000D02*
D03*
X2600000D02*
D03*
X2700000D02*
D03*
X2500000D02*
D03*
X6397500Y400000D02*
D03*
X6297500D02*
D03*
X7079000Y350000D02*
D03*
Y450000D02*
D03*
X7521000Y350000D02*
D03*
Y450000D02*
D03*
X7950000Y979000D02*
D03*
X8050000D02*
D03*
Y1420999D02*
D03*
X7950000D02*
D03*
X8150000Y1980000D02*
D03*
X8250000D02*
D03*
X7800000D02*
D03*
X7900000D02*
D03*
X7450000Y1979999D02*
D03*
X7550000D02*
D03*
X7100000Y1979999D02*
D03*
X7200000D02*
D03*
X2700000Y3505000D02*
D03*
X2500000D02*
D03*
X2600000D02*
D03*
X2500000Y3405000D02*
D03*
X2700000D02*
D03*
X2600000D02*
D03*
Y3605000D02*
D03*
X2700000Y3605000D02*
D03*
X2500000D02*
D03*
X3000000Y3505000D02*
D03*
X2800000D02*
D03*
X2900000D02*
D03*
X2800000Y3405000D02*
D03*
X3000000D02*
D03*
X2900000D02*
D03*
Y3605000D02*
D03*
X2800000Y3605000D02*
D03*
X3550000Y300000D02*
D03*
Y500000D02*
D03*
Y400000D02*
D03*
X3450000Y500000D02*
D03*
Y300000D02*
D03*
Y400000D02*
D03*
X3950000Y300000D02*
D03*
Y500000D02*
D03*
X3950000Y400000D02*
D03*
X3850000Y500000D02*
D03*
Y300000D02*
D03*
Y400000D02*
D03*
X3750000D02*
D03*
Y300000D02*
D03*
Y500000D02*
D03*
X3650000Y400000D02*
D03*
X3650000Y300000D02*
D03*
Y500000D02*
D03*
X5628000Y3200000D02*
D03*
X5828000D02*
D03*
X5728000D02*
D03*
X5628000Y3100000D02*
D03*
X5828000D02*
D03*
X5728000D02*
D03*
X5628000Y3000000D02*
D03*
X5828000D02*
D03*
X5728000D02*
D03*
X5528000Y3200000D02*
D03*
Y3000000D02*
D03*
Y3100000D02*
D03*
X5828000Y2900000D02*
D03*
X5628000D02*
D03*
X5728000D02*
D03*
X5528000Y2700000D02*
D03*
Y2900000D02*
D03*
Y2800000D02*
D03*
X5828000D02*
D03*
X5628000D02*
D03*
X5728000D02*
D03*
X5828000Y2700000D02*
D03*
X5628000D02*
D03*
X5728000D02*
D03*
X6128000Y2900000D02*
D03*
X5928000D02*
D03*
X6028000D02*
D03*
X6128000Y2800000D02*
D03*
X5928000D02*
D03*
X6028000D02*
D03*
X6128000Y2700000D02*
D03*
X5928000D02*
D03*
X6028000D02*
D03*
Y3000000D02*
D03*
X5928000D02*
D03*
X6128000D02*
D03*
X5928000Y3100000D02*
D03*
Y3200000D02*
D03*
X6128000Y3100000D02*
D03*
X6028000D02*
D03*
X6128000Y3200000D02*
D03*
X6028000D02*
D03*
X3460000Y3200000D02*
D03*
X3360000D02*
D03*
X3460000Y3100000D02*
D03*
X3360000D02*
D03*
X3560000Y3200000D02*
D03*
Y3100000D02*
D03*
X3360000Y3000000D02*
D03*
X3560000D02*
D03*
X3460000D02*
D03*
Y2700000D02*
D03*
X3560000D02*
D03*
X3360000D02*
D03*
X3460000Y2800000D02*
D03*
X3560000D02*
D03*
X3360000D02*
D03*
X3460000Y2900000D02*
D03*
X3560000D02*
D03*
X3360000D02*
D03*
X3760000Y2700000D02*
D03*
X3860000D02*
D03*
X3660000D02*
D03*
X3760000Y2800000D02*
D03*
X3860000D02*
D03*
X3660000D02*
D03*
X3960000D02*
D03*
Y2900000D02*
D03*
Y2700000D02*
D03*
X3760000Y2900000D02*
D03*
X3860000D02*
D03*
X3660000D02*
D03*
X3960000Y3100000D02*
D03*
Y3000000D02*
D03*
Y3200000D02*
D03*
X3760000Y3000000D02*
D03*
X3660000D02*
D03*
X3860000D02*
D03*
X3760000Y3100000D02*
D03*
X3660000D02*
D03*
X3860000D02*
D03*
X3760000Y3200000D02*
D03*
X3660000D02*
D03*
X3860000D02*
D03*
X5002470Y6160477D02*
D03*
X3252500Y2400000D02*
D03*
X4200000Y6020000D02*
D03*
X1010000Y4800000D02*
D03*
X7462500Y5797500D02*
D03*
X6955000Y5800000D02*
D03*
X6955000Y5650000D02*
D03*
X1010000Y6200000D02*
D03*
X2356000Y5150000D02*
D03*
X2456000D02*
D03*
X4856000Y5150000D02*
D03*
X4956000D02*
D03*
X3573735Y6010238D02*
D03*
X3918735Y5530239D02*
D03*
X4018735D02*
D03*
X3668735Y5530239D02*
D03*
X3768735D02*
D03*
X3518735Y5537739D02*
D03*
X3018735Y5520239D02*
D03*
X3118734D02*
D03*
X3268735D02*
D03*
X3368735D02*
D03*
X2509499Y6780000D02*
D03*
X2636500Y6780000D02*
D03*
X2763500Y6780000D02*
D03*
X2890500D02*
D03*
Y5880000D02*
D03*
X2763500D02*
D03*
X2636500D02*
D03*
X2509500D02*
D03*
X7150000Y5255000D02*
D03*
X7300000D02*
D03*
X7500000D02*
D03*
X7650000D02*
D03*
X9100000Y5650000D02*
D03*
X9350000Y5604999D02*
D03*
X5844999Y6240000D02*
D03*
X5845000Y5800000D02*
D03*
Y6020000D02*
D03*
X5368735Y6372739D02*
D03*
Y6487738D02*
D03*
X4668735Y5625239D02*
D03*
X4518735Y5625239D02*
D03*
X4818735Y5625239D02*
D03*
X4968735Y5625239D02*
D03*
X5118735Y5625239D02*
D03*
X4887470Y6160477D02*
D03*
X4787470D02*
D03*
X4750000Y5860000D02*
D03*
X5000000Y7050000D02*
D03*
X4950000Y6700000D02*
D03*
X4850000D02*
D03*
X4900000Y7050000D02*
D03*
X4600000D02*
D03*
X4650000Y6700000D02*
D03*
X4700000Y7050000D02*
D03*
X4750000Y6700000D02*
D03*
X4800000Y7050000D02*
D03*
X3735000Y6535000D02*
D03*
X4168735Y6372739D02*
D03*
X3900000Y7555000D02*
D03*
X5100000Y7555000D02*
D03*
X4168735Y6487739D02*
D03*
X3518735Y5422739D02*
D03*
X4018735Y5230238D02*
D03*
X3918735D02*
D03*
X3768735D02*
D03*
X3668735D02*
D03*
X3368735Y5240239D02*
D03*
X3268735D02*
D03*
X3118734D02*
D03*
X3018735D02*
D03*
X7200000Y2420000D02*
D03*
X7100000D02*
D03*
X7550000Y2419999D02*
D03*
X7450000D02*
D03*
X7900000Y2420000D02*
D03*
X7800000D02*
D03*
X8250000D02*
D03*
X8150000D02*
D03*
X8050000Y5010000D02*
D03*
X7950000D02*
D03*
X8300000Y5010001D02*
D03*
X8200000D02*
D03*
X8450000Y5010000D02*
D03*
X8550000D02*
D03*
X7800000Y5642500D02*
D03*
X6845000Y5650000D02*
D03*
X7067500Y5667500D02*
D03*
X6845000Y5800000D02*
D03*
X3668735Y6010239D02*
D03*
X3763735Y6010238D02*
D03*
X6447500Y2250000D02*
D03*
X6247500D02*
D03*
X6347500D02*
D03*
X6447500Y2150000D02*
D03*
X6247500D02*
D03*
X6347500D02*
D03*
X6447500Y1850000D02*
D03*
X6247500D02*
D03*
X6347500D02*
D03*
X6447500Y1750000D02*
D03*
X6247500D02*
D03*
X6347500D02*
D03*
X6447500Y1450000D02*
D03*
X6247500D02*
D03*
X6347500D02*
D03*
X6447500Y1350000D02*
D03*
X6247500D02*
D03*
X6347500D02*
D03*
Y1250000D02*
D03*
X6247500D02*
D03*
X6447500D02*
D03*
X6347500Y1150000D02*
D03*
X6447500D02*
D03*
X6247500D02*
D03*
X6347500Y1650000D02*
D03*
X6247500D02*
D03*
X6447500D02*
D03*
X6347500Y1550000D02*
D03*
X6447500D02*
D03*
X6247500D02*
D03*
X6347500Y2050000D02*
D03*
X6247500D02*
D03*
X6447500D02*
D03*
X6347500Y1950000D02*
D03*
X6447500D02*
D03*
X6247500D02*
D03*
Y2350000D02*
D03*
X6447500D02*
D03*
X6347500D02*
D03*
X6447500Y2450000D02*
D03*
X6247500D02*
D03*
X6347500D02*
D03*
X2742500Y6600000D02*
D03*
X2509500Y6420000D02*
D03*
X2857499Y6600000D02*
D03*
X2857500Y7500000D02*
D03*
X2742500D02*
D03*
X2509500Y7320000D02*
D03*
X725000Y5400000D02*
D03*
X825000D02*
D03*
X725000Y6000000D02*
D03*
X825000D02*
D03*
X170000Y6434999D02*
D03*
X270000D02*
D03*
X169999Y4565000D02*
D03*
X269999D02*
D03*
X350000Y3974600D02*
D03*
X1155882Y3089562D02*
D03*
Y3189562D02*
D03*
X1155882Y3329562D02*
D03*
Y3429562D02*
D03*
X875881Y3089562D02*
D03*
Y3189562D02*
D03*
X875881Y3329562D02*
D03*
Y3429562D02*
D03*
X685882Y3329562D02*
D03*
Y3429562D02*
D03*
Y3079562D02*
D03*
Y3179561D02*
D03*
X405882Y3079562D02*
D03*
Y3179562D02*
D03*
Y3429562D02*
D03*
X983382Y3649562D02*
D03*
X868382D02*
D03*
X703381Y3679562D02*
D03*
X545881Y3845562D02*
D03*
X725881Y3845562D02*
D03*
X710882Y4359562D02*
D03*
X713381Y4239561D02*
D03*
X455881Y3864562D02*
D03*
X405882Y3329562D02*
D03*
X700882Y3559562D02*
D03*
X588382Y3679562D02*
D03*
%TF.MD5,ea57ae6cd9e68c7a9c09bdb9bf334b45*%
M02*
