%TF.GenerationSoftware,Altium Limited,Altium Designer,25.1.2 (22)*%
G04 Layer_Color=65535*
%FSLAX45Y45*%
%MOMM*%
%TF.SameCoordinates,CB1A417E-7DD8-4276-B15B-71DB2DCBA6F7*%
%TF.FilePolarity,Positive*%
%TF.FileFunction,Legend,Top*%
%TF.Part,Single*%
G01*
G75*
%TA.AperFunction,NonConductor*%
%ADD49C,1.20000*%
%ADD50C,0.60000*%
%ADD51C,0.25000*%
%ADD52C,0.30000*%
%ADD53C,0.20000*%
%ADD54C,0.40000*%
%ADD55C,0.25400*%
%ADD56R,16.30000X0.54500*%
%ADD57R,0.80000X3.95000*%
%ADD58R,1.50000X0.27500*%
%ADD59R,1.50000X0.27500*%
%ADD60R,0.27500X1.50000*%
%ADD61R,0.27500X1.50000*%
%ADD62R,3.94999X0.80000*%
G36*
X7724349Y4437467D02*
X7727691D01*
Y4436631D01*
X7730199D01*
Y4435795D01*
X7732706D01*
Y4434960D01*
X7734377D01*
Y4434124D01*
X7735213D01*
Y4433288D01*
X7736884D01*
Y4432453D01*
X7737720D01*
Y4431617D01*
X7739391D01*
Y4430781D01*
X7740227D01*
Y4429945D01*
X7741062D01*
Y4429110D01*
X7741898D01*
Y4428274D01*
X7742734D01*
Y4426603D01*
X7743570D01*
Y4425767D01*
X7744405D01*
Y4424931D01*
X7745241D01*
Y4423260D01*
X7746077D01*
Y4422424D01*
X7746912D01*
Y4420753D01*
X7747748D01*
Y4419081D01*
X7748584D01*
Y4418246D01*
X7749420D01*
Y4416574D01*
X7750255D01*
Y4414903D01*
X7751091D01*
Y4413231D01*
X7751927D01*
Y4412396D01*
X7752762D01*
Y4410724D01*
X7753598D01*
Y4409053D01*
X7754434D01*
Y4407381D01*
X7755269D01*
Y4406546D01*
X7756105D01*
Y4404875D01*
X7756941D01*
Y4403203D01*
X7757776D01*
Y4402367D01*
X7758612D01*
Y4400696D01*
X7759448D01*
Y4399024D01*
X7760283D01*
Y4397353D01*
X7761119D01*
Y4396517D01*
X7761955D01*
Y4394846D01*
X7762791D01*
Y4393175D01*
X7763626D01*
Y4391503D01*
X7764462D01*
Y4390668D01*
X7765298D01*
Y4388996D01*
X7766134D01*
Y4387325D01*
X7766969D01*
Y4385654D01*
X7767805D01*
Y4384818D01*
X7768641D01*
Y4383146D01*
X7769476D01*
Y4381475D01*
X7770312D01*
Y4380639D01*
X7771148D01*
Y4378968D01*
X7771983D01*
Y4377297D01*
X7772819D01*
Y4375625D01*
X7773655D01*
Y4374789D01*
X7774490D01*
Y4373118D01*
X7775326D01*
Y4371446D01*
X7776162D01*
Y4370611D01*
X7776998D01*
Y4368940D01*
X7777833D01*
Y4367268D01*
X7778669D01*
Y4365597D01*
X7779505D01*
Y4363925D01*
X7780341D01*
Y4363090D01*
X7781176D01*
Y4361418D01*
X7782012D01*
Y4359747D01*
X7782848D01*
Y4358911D01*
X7783683D01*
Y4357240D01*
X7784519D01*
Y4355568D01*
X7785355D01*
Y4353897D01*
X7786190D01*
Y4353061D01*
X7787026D01*
Y4351390D01*
X7787862D01*
Y4349719D01*
X7788697D01*
Y4348883D01*
X7789533D01*
Y4347211D01*
X7790369D01*
Y4345540D01*
X7791204D01*
Y4343869D01*
X7792040D01*
Y4342197D01*
X7792876D01*
Y4341361D01*
X7793711D01*
Y4339690D01*
X7794547D01*
Y4338019D01*
X7795383D01*
Y4337183D01*
X7796219D01*
Y4335512D01*
X7797055D01*
Y4333840D01*
X7797890D01*
Y4332169D01*
X7798726D01*
Y4331333D01*
X7799561D01*
Y4329662D01*
X7800397D01*
Y4327990D01*
X7801233D01*
Y4326319D01*
X7802068D01*
Y4325483D01*
X7802904D01*
Y4323812D01*
X7803740D01*
Y4322140D01*
X7804575D01*
Y4320469D01*
X7805411D01*
Y4319633D01*
X7806247D01*
Y4317962D01*
X7807083D01*
Y4316291D01*
X7807918D01*
Y4315455D01*
X7808754D01*
Y4313783D01*
X7809590D01*
Y4312112D01*
X7810425D01*
Y4310441D01*
X7811261D01*
Y4309605D01*
X7812097D01*
Y4307934D01*
X7812933D01*
Y4306262D01*
X7813768D01*
Y4304591D01*
X7814604D01*
Y4303755D01*
X7815440D01*
Y4302084D01*
X7816275D01*
Y4300412D01*
X7817111D01*
Y4298741D01*
X7817947D01*
Y4297905D01*
X7818782D01*
Y4296234D01*
X7819618D01*
Y4294562D01*
X7820454D01*
Y4293727D01*
X7821290D01*
Y4292055D01*
X7822125D01*
Y4290384D01*
X7822961D01*
Y4288713D01*
X7823797D01*
Y4287877D01*
X7824632D01*
Y4286206D01*
X7825468D01*
Y4284534D01*
X7826304D01*
Y4283698D01*
X7827139D01*
Y4282027D01*
X7827975D01*
Y4280355D01*
X7828811D01*
Y4278684D01*
X7829647D01*
Y4277848D01*
X7830482D01*
Y4276177D01*
X7831318D01*
Y4274506D01*
X7832153D01*
Y4272834D01*
X7832989D01*
Y4271999D01*
X7833825D01*
Y4271163D01*
Y4270327D01*
X7834661D01*
Y4268656D01*
X7835496D01*
Y4266985D01*
X7836332D01*
Y4266149D01*
X7837168D01*
Y4264477D01*
X7838004D01*
Y4262806D01*
X7838839D01*
Y4261135D01*
X7839675D01*
Y4260299D01*
X7840511D01*
Y4258628D01*
X7841346D01*
Y4256956D01*
X7842182D01*
Y4256120D01*
X7843018D01*
Y4254449D01*
X7843853D01*
Y4252778D01*
X7844689D01*
Y4251106D01*
X7845525D01*
Y4250271D01*
X7846360D01*
Y4248599D01*
X7847196D01*
Y4246928D01*
X7848032D01*
Y4245256D01*
X7848868D01*
Y4244421D01*
X7849703D01*
Y4242749D01*
X7850539D01*
Y4241078D01*
X7851374D01*
Y4240242D01*
X7852210D01*
Y4238571D01*
X7853046D01*
Y4236899D01*
X7853882D01*
Y4235228D01*
X7854717D01*
Y4234392D01*
X7855553D01*
Y4232721D01*
X7856389D01*
Y4231049D01*
X7857225D01*
Y4230214D01*
X7858060D01*
Y4228542D01*
X7858896D01*
Y4226871D01*
X7859732D01*
Y4225200D01*
X7860567D01*
Y4223528D01*
X7861403D01*
Y4222692D01*
X7862239D01*
Y4221021D01*
X7863074D01*
Y4219350D01*
X7863910D01*
Y4217678D01*
X7864746D01*
Y4216842D01*
X7865582D01*
Y4215171D01*
X7866417D01*
Y4213500D01*
X7867253D01*
Y4212664D01*
X7868088D01*
Y4210993D01*
X7868924D01*
Y4209322D01*
X7869760D01*
Y4207650D01*
X7870596D01*
Y4206814D01*
X7871431D01*
Y4205143D01*
X7872267D01*
Y4203471D01*
X7873103D01*
Y4201800D01*
X7873939D01*
Y4200964D01*
X7874774D01*
Y4199293D01*
X7875610D01*
Y4197622D01*
X7876446D01*
Y4196786D01*
X7877281D01*
Y4195114D01*
X7878117D01*
Y4193443D01*
X7878952D01*
Y4191772D01*
X7879788D01*
Y4190936D01*
X7880624D01*
Y4189265D01*
X7881460D01*
Y4187593D01*
X7882295D01*
Y4185922D01*
X7883131D01*
Y4185086D01*
X7883967D01*
Y4183415D01*
X7884803D01*
Y4181743D01*
X7885638D01*
Y4180072D01*
X7886474D01*
Y4179236D01*
X7887309D01*
Y4177565D01*
X7888145D01*
Y4175893D01*
X7888981D01*
Y4175058D01*
X7889817D01*
Y4173387D01*
X7890652D01*
Y4171715D01*
X7891488D01*
Y4170043D01*
X7892324D01*
Y4169208D01*
X7893159D01*
Y4167536D01*
X7893995D01*
Y4165865D01*
X7894831D01*
Y4165030D01*
X7895666D01*
Y4163358D01*
X7896502D01*
Y4161687D01*
X7897338D01*
Y4160015D01*
X7898174D01*
Y4158344D01*
X7899009D01*
Y4157508D01*
X7899845D01*
Y4155837D01*
X7900681D01*
Y4154165D01*
X7901517D01*
Y4153330D01*
X7902352D01*
Y4151658D01*
X7903188D01*
Y4149987D01*
X7904024D01*
Y4148315D01*
X7904859D01*
Y4147480D01*
X7905695D01*
Y4145808D01*
X7906531D01*
Y4144137D01*
X7907366D01*
Y4143301D01*
X7908202D01*
Y4141630D01*
X7909038D01*
Y4139958D01*
X7909873D01*
Y4138287D01*
X7910709D01*
Y4136616D01*
X7911545D01*
Y4135780D01*
X7912380D01*
Y4134109D01*
X7913216D01*
Y4132437D01*
X7914052D01*
Y4131602D01*
X7914888D01*
Y4129930D01*
X7915723D01*
Y4128259D01*
X7916559D01*
Y4126587D01*
X7917395D01*
Y4125752D01*
X7918230D01*
Y4124080D01*
X7919066D01*
Y4122409D01*
X7919902D01*
Y4120738D01*
X7920738D01*
Y4119902D01*
X7921573D01*
Y4118230D01*
X7922409D01*
Y4116559D01*
X7923245D01*
Y4115723D01*
X7924080D01*
Y4114052D01*
X7924916D01*
Y4112380D01*
X7925752D01*
Y4110709D01*
X7926587D01*
Y4109873D01*
X7927423D01*
Y4108202D01*
X7928259D01*
Y4106531D01*
X7929094D01*
Y4104859D01*
X7929930D01*
Y4104023D01*
X7930766D01*
Y4102352D01*
X7931602D01*
Y4100681D01*
X7932437D01*
Y4099845D01*
X7933273D01*
Y4098174D01*
X7934109D01*
Y4096502D01*
X7934944D01*
Y4094831D01*
X7935780D01*
Y4093995D01*
X7936616D01*
Y4092324D01*
X7937451D01*
Y4090652D01*
X7938287D01*
Y4089817D01*
X7939123D01*
Y4088145D01*
X7939958D01*
Y4086474D01*
X7940794D01*
Y4084802D01*
X7941630D01*
Y4083131D01*
X7942466D01*
Y4082295D01*
X7943301D01*
Y4080624D01*
X7944137D01*
Y4078953D01*
X7944973D01*
Y4078117D01*
X7945808D01*
Y4076445D01*
X7946644D01*
Y4074774D01*
X7947480D01*
Y4073103D01*
X7948316D01*
Y4072267D01*
X7949151D01*
Y4070596D01*
X7949987D01*
Y4068924D01*
X7950823D01*
Y4067253D01*
X7951658D01*
Y4066417D01*
X7952494D01*
Y4064745D01*
X7953330D01*
Y4063074D01*
X7954165D01*
Y4061403D01*
X7955001D01*
Y4060567D01*
X7955837D01*
Y4058896D01*
X7956673D01*
Y4057225D01*
X7957508D01*
Y4056389D01*
X7958344D01*
Y4054717D01*
X7959180D01*
Y4053046D01*
X7960015D01*
Y4051374D01*
X7960851D01*
Y4050539D01*
X7961687D01*
Y4048867D01*
X7962522D01*
Y4047196D01*
X7963358D01*
Y4045525D01*
X7964194D01*
Y4044689D01*
X7965029D01*
Y4043018D01*
X7965865D01*
Y4041346D01*
X7966701D01*
Y4039675D01*
X7967537D01*
Y4038839D01*
X7968372D01*
Y4037168D01*
X7969208D01*
Y4036332D01*
X7970043D01*
Y4034660D01*
X7970879D01*
Y4032989D01*
X7971715D01*
Y4031318D01*
X7972551D01*
Y4029646D01*
X7973386D01*
Y4027975D01*
X7974222D01*
Y4027139D01*
X7975058D01*
Y4025468D01*
X7975893D01*
Y4023796D01*
X7976729D01*
Y4022961D01*
X7977565D01*
Y4021290D01*
X7978401D01*
Y4019618D01*
X7979236D01*
Y4017946D01*
X7980072D01*
Y4017111D01*
X7980908D01*
Y4015440D01*
X7981743D01*
Y4013768D01*
X7982579D01*
Y4012933D01*
X7983415D01*
Y4011261D01*
X7984250D01*
Y4009590D01*
X7985086D01*
Y4007918D01*
X7985922D01*
Y4007083D01*
X7986757D01*
Y4005411D01*
X7987593D01*
Y4003740D01*
X7988429D01*
Y4002904D01*
X7989265D01*
Y4001233D01*
X7990100D01*
Y3999561D01*
X7990936D01*
Y3997890D01*
X7991772D01*
Y3996219D01*
X7992608D01*
Y3995383D01*
X7993443D01*
Y3993711D01*
X7994279D01*
Y3992040D01*
X7995115D01*
Y3990369D01*
X7995950D01*
Y3989533D01*
X7996786D01*
Y3987861D01*
X7997622D01*
Y3986190D01*
X7998457D01*
Y3985354D01*
X7999293D01*
Y3983683D01*
X8000129D01*
Y3982012D01*
X8000965D01*
Y3980340D01*
X8001800D01*
Y3979505D01*
X8002636D01*
Y3977833D01*
X8003471D01*
Y3976162D01*
X8004307D01*
Y3974490D01*
X8005143D01*
Y3973655D01*
X8005979D01*
Y3971983D01*
X8006814D01*
Y3970312D01*
X8007650D01*
Y3969476D01*
X8008486D01*
Y3967805D01*
X8009322D01*
Y3966133D01*
X8010157D01*
Y3964462D01*
X8010993D01*
Y3962791D01*
X8011829D01*
Y3961955D01*
X8012664D01*
Y3960284D01*
X8013500D01*
Y3958612D01*
X8014336D01*
Y3957776D01*
X8015171D01*
Y3956105D01*
X8016007D01*
Y3954434D01*
X8016843D01*
Y3953598D01*
X8017678D01*
Y3951927D01*
X8018514D01*
Y3950255D01*
X8019350D01*
Y3948584D01*
X8020186D01*
Y3947748D01*
X8021021D01*
Y3946077D01*
X8021857D01*
Y3944405D01*
X8022692D01*
Y3942734D01*
X8023528D01*
Y3941898D01*
X8024364D01*
Y3940227D01*
X8025200D01*
Y3938555D01*
X8026036D01*
Y3937720D01*
X8026871D01*
Y3936048D01*
X8027707D01*
Y3934377D01*
X8028542D01*
Y3932705D01*
X8029378D01*
Y3931870D01*
X8030214D01*
Y3930198D01*
X8031049D01*
Y3928527D01*
X8031885D01*
Y3926856D01*
X8032721D01*
Y3926020D01*
X8033557D01*
Y3924349D01*
X8034392D01*
Y3922677D01*
X8035228D01*
Y3921842D01*
X8036064D01*
Y3920170D01*
X8036900D01*
Y3918499D01*
X8037735D01*
Y3916827D01*
X8038571D01*
Y3915991D01*
X8039406D01*
Y3914320D01*
X8040242D01*
Y3912649D01*
X8041078D01*
Y3910977D01*
X8041914D01*
Y3910142D01*
X8042749D01*
Y3908470D01*
X8043585D01*
Y3906799D01*
X8044421D01*
Y3905127D01*
X8045256D01*
Y3904292D01*
X8046092D01*
Y3902621D01*
X8046928D01*
Y3900949D01*
X8047763D01*
Y3899277D01*
X8048599D01*
Y3898442D01*
X8049435D01*
Y3896770D01*
X8050271D01*
Y3895099D01*
X8051106D01*
Y3893428D01*
X8051942D01*
Y3892592D01*
X8052778D01*
Y3890921D01*
X8053613D01*
Y3889249D01*
X8054449D01*
Y3888413D01*
X8055285D01*
Y3886742D01*
X8056121D01*
Y3885071D01*
X8056956D01*
Y3883399D01*
X8057792D01*
Y3882564D01*
X8058628D01*
Y3880892D01*
X8059463D01*
Y3879221D01*
X8060299D01*
Y3877550D01*
X8061135D01*
Y3876714D01*
X8061970D01*
Y3875042D01*
X8062806D01*
Y3873371D01*
X8063641D01*
Y3871700D01*
X8064477D01*
Y3870864D01*
X8065313D01*
Y3869192D01*
X8066149D01*
Y3867521D01*
X8066985D01*
Y3866685D01*
X8067820D01*
Y3865014D01*
X8068656D01*
Y3863343D01*
X8069492D01*
Y3862507D01*
X8070327D01*
Y3860836D01*
X8071163D01*
Y3859164D01*
X8071999D01*
Y3857493D01*
X8072835D01*
Y3855821D01*
X8073670D01*
Y3854986D01*
X8074506D01*
Y3853314D01*
X8075341D01*
Y3851643D01*
X8076177D01*
Y3850807D01*
X8077013D01*
Y3849136D01*
X8077849D01*
Y3847464D01*
X8078684D01*
Y3845793D01*
X8079520D01*
Y3844957D01*
X8080356D01*
Y3843286D01*
X8081191D01*
Y3841615D01*
X8082027D01*
Y3840779D01*
X8082863D01*
Y3839107D01*
X8083699D01*
Y3837436D01*
X8084534D01*
Y3835765D01*
X8085370D01*
Y3834093D01*
X8086206D01*
Y3833258D01*
X8087041D01*
Y3831586D01*
X8087877D01*
Y3829915D01*
X8088713D01*
Y3829079D01*
X8089548D01*
Y3827408D01*
X8090384D01*
Y3825736D01*
X8091220D01*
Y3824065D01*
X8092055D01*
Y3823229D01*
X8092891D01*
Y3821558D01*
X8093727D01*
Y3819886D01*
X8094562D01*
Y3819051D01*
X8095398D01*
Y3817379D01*
X8096234D01*
Y3815708D01*
X8097070D01*
Y3814037D01*
X8097905D01*
Y3812365D01*
X8098741D01*
Y3811529D01*
X8099577D01*
Y3809858D01*
X8100412D01*
Y3808187D01*
X8101248D01*
Y3806515D01*
X8102084D01*
Y3805679D01*
X8102920D01*
Y3804008D01*
X8103755D01*
Y3802337D01*
X8104591D01*
Y3801501D01*
X8105427D01*
Y3799830D01*
X8106262D01*
Y3798158D01*
X8107098D01*
Y3796487D01*
X8107934D01*
Y3795651D01*
X8108769D01*
Y3793980D01*
X8109605D01*
Y3792308D01*
X8110441D01*
Y3791473D01*
X8111276D01*
Y3789801D01*
X8112112D01*
Y3788130D01*
X8112948D01*
Y3786459D01*
X8113784D01*
Y3785623D01*
X8114619D01*
Y3783952D01*
X8115455D01*
Y3782280D01*
X8116291D01*
Y3780608D01*
X8117126D01*
Y3779773D01*
X8117962D01*
Y3778102D01*
X8118798D01*
Y3776430D01*
X8119633D01*
Y3775594D01*
X8120469D01*
Y3773923D01*
X8121305D01*
Y3772252D01*
X8122140D01*
Y3770580D01*
X8122976D01*
Y3768909D01*
X8123812D01*
Y3768073D01*
X8124648D01*
Y3766402D01*
X8125483D01*
Y3764730D01*
X8126319D01*
Y3763895D01*
X8127155D01*
Y3762223D01*
X8127991D01*
Y3760552D01*
X8128826D01*
Y3758880D01*
X8129662D01*
Y3758045D01*
X8130498D01*
Y3756373D01*
X8131333D01*
Y3754702D01*
X8132169D01*
Y3753866D01*
X8133005D01*
Y3752195D01*
X8133840D01*
Y3750524D01*
X8134676D01*
Y3748852D01*
X8135512D01*
Y3748016D01*
X8136347D01*
Y3746345D01*
X8137183D01*
Y3744673D01*
X8138019D01*
Y3743002D01*
X8138854D01*
Y3742167D01*
X8139690D01*
Y3740495D01*
X8140526D01*
Y3738824D01*
X8141361D01*
Y3737152D01*
X8142197D01*
Y3736317D01*
X8143033D01*
Y3734645D01*
X8143869D01*
Y3732974D01*
X8144705D01*
Y3732138D01*
X8145540D01*
Y3730467D01*
X8146376D01*
Y3728795D01*
X8147211D01*
Y3727124D01*
X8148047D01*
Y3725453D01*
X8148883D01*
Y3724617D01*
X8149719D01*
Y3722946D01*
X8150554D01*
Y3721274D01*
X8151390D01*
Y3720438D01*
X8152226D01*
Y3718767D01*
X8153061D01*
Y3717095D01*
X8153897D01*
Y3715424D01*
X8154733D01*
Y3714589D01*
X8155568D01*
Y3712917D01*
X8156404D01*
Y3711246D01*
X8157240D01*
Y3709574D01*
X8158075D01*
Y3708739D01*
X8158911D01*
Y3707067D01*
X8159747D01*
Y3705396D01*
X8160583D01*
Y3704560D01*
X8161418D01*
Y3702889D01*
X8162254D01*
Y3701217D01*
X8163090D01*
Y3699546D01*
X8163926D01*
Y3698710D01*
X8164761D01*
Y3697039D01*
X8165597D01*
Y3695368D01*
X8166432D01*
Y3693696D01*
X8167268D01*
Y3692860D01*
X8168104D01*
Y3691189D01*
X8168940D01*
Y3689518D01*
X8169775D01*
Y3688682D01*
X8170611D01*
Y3687010D01*
X8171447D01*
Y3685339D01*
X8172283D01*
Y3683668D01*
X8173118D01*
Y3682832D01*
X8173954D01*
Y3681161D01*
X8174789D01*
Y3679489D01*
X8175625D01*
Y3677818D01*
X8176461D01*
Y3676982D01*
X8177297D01*
Y3675311D01*
X8178132D01*
Y3673639D01*
X8178968D01*
Y3672804D01*
X8179804D01*
Y3671132D01*
X8180639D01*
Y3669461D01*
X8181475D01*
Y3667789D01*
X8182311D01*
Y3666954D01*
X8183146D01*
Y3665282D01*
X8183982D01*
Y3663611D01*
X8184818D01*
Y3661940D01*
X8185654D01*
Y3661104D01*
X8186489D01*
Y3659433D01*
X8187325D01*
Y3657761D01*
X8188161D01*
Y3656090D01*
X8188996D01*
Y3655254D01*
X8189832D01*
Y3653583D01*
X8190668D01*
Y3651911D01*
X8191504D01*
Y3650240D01*
X8192339D01*
Y3649404D01*
X8193175D01*
Y3647733D01*
X8194011D01*
Y3646061D01*
X8194846D01*
Y3645226D01*
X8195682D01*
Y3643554D01*
X8196518D01*
Y3641883D01*
X8197353D01*
Y3640211D01*
X8198189D01*
Y3639376D01*
X8199024D01*
Y3637704D01*
X8199860D01*
Y3636033D01*
X8200696D01*
Y3635197D01*
X8201532D01*
Y3633526D01*
X8202367D01*
Y3631855D01*
X8203203D01*
Y3630183D01*
X8204039D01*
Y3628512D01*
X8204875D01*
Y3627676D01*
X8205710D01*
Y3626004D01*
X8206546D01*
Y3624333D01*
X8207382D01*
Y3623497D01*
X8208218D01*
Y3621826D01*
X8209053D01*
Y3620155D01*
X8209889D01*
Y3618483D01*
X8210724D01*
Y3617648D01*
X8211560D01*
Y3615976D01*
X8212396D01*
Y3614305D01*
X8213232D01*
Y3612634D01*
X8214067D01*
Y3611798D01*
X8214903D01*
Y3610126D01*
X8215739D01*
Y3608455D01*
X8216574D01*
Y3607619D01*
X8217410D01*
Y3605948D01*
X8218246D01*
Y3604277D01*
X8219081D01*
Y3602605D01*
X8219917D01*
Y3601769D01*
X8220753D01*
Y3600098D01*
X8221589D01*
Y3598427D01*
X8222424D01*
Y3596755D01*
X8223260D01*
Y3595920D01*
X8224096D01*
Y3594248D01*
X8224931D01*
Y3592577D01*
X8225767D01*
Y3591741D01*
X8226603D01*
Y3590070D01*
X8227438D01*
Y3588398D01*
X8228274D01*
Y3586727D01*
X8229110D01*
Y3585891D01*
X8229945D01*
Y3584220D01*
X8230781D01*
Y3582548D01*
X8231617D01*
Y3581713D01*
X8232453D01*
Y3580041D01*
X8233288D01*
Y3578370D01*
X8234124D01*
Y3576698D01*
X8234959D01*
Y3575863D01*
X8235795D01*
Y3574191D01*
X8236631D01*
Y3572520D01*
X8237467D01*
Y3570849D01*
X8238303D01*
Y3569177D01*
X8239138D01*
Y3568341D01*
X8239974D01*
Y3566670D01*
X8240810D01*
Y3564999D01*
X8241645D01*
Y3564163D01*
X8242481D01*
Y3562491D01*
X8243317D01*
Y3560820D01*
X8244152D01*
Y3559149D01*
X8244988D01*
Y3558313D01*
X8245824D01*
Y3556642D01*
X8246659D01*
Y3554971D01*
X8247495D01*
Y3553299D01*
X8248331D01*
Y3552463D01*
X8249167D01*
Y3550792D01*
X8250002D01*
Y3549120D01*
X8250838D01*
Y3548285D01*
X8251674D01*
Y3546613D01*
X8252509D01*
Y3544942D01*
X8253345D01*
Y3543271D01*
X8254181D01*
Y3542435D01*
X8255017D01*
Y3540763D01*
X8255852D01*
Y3539092D01*
X8256688D01*
Y3537421D01*
X8257523D01*
Y3536585D01*
X8258359D01*
Y3534914D01*
X8259195D01*
Y3533242D01*
X8260031D01*
Y3531571D01*
X8260866D01*
Y3530735D01*
X8261702D01*
Y3529064D01*
X8262538D01*
Y3527392D01*
X8263374D01*
Y3526557D01*
X8264209D01*
Y3524885D01*
X8265045D01*
Y3523214D01*
X8265880D01*
Y3521542D01*
X8266716D01*
Y3520707D01*
X8267552D01*
Y3519035D01*
X8268388D01*
Y3517364D01*
X8269223D01*
Y3515692D01*
X8270059D01*
Y3514857D01*
X8270895D01*
Y3513186D01*
X8271730D01*
Y3511514D01*
X8272566D01*
Y3509843D01*
X8273402D01*
Y3509007D01*
X8274237D01*
Y3507336D01*
X8275073D01*
Y3505664D01*
X8275909D01*
Y3504828D01*
X8276744D01*
Y3503157D01*
X8277580D01*
Y3501486D01*
X8278416D01*
Y3499814D01*
X8279252D01*
Y3498979D01*
X8280087D01*
Y3497307D01*
X8280923D01*
Y3495636D01*
X8281759D01*
Y3494800D01*
X8282594D01*
Y3493129D01*
X8283430D01*
Y3491457D01*
X8284266D01*
Y3489786D01*
X8285102D01*
Y3488115D01*
X8285937D01*
Y3487279D01*
X8286773D01*
Y3485607D01*
X8287609D01*
Y3483936D01*
X8288444D01*
Y3483100D01*
X8289280D01*
Y3481429D01*
X8290116D01*
Y3479758D01*
X8290951D01*
Y3478086D01*
X8291787D01*
Y3476415D01*
X8292623D01*
Y3474743D01*
X8293458D01*
Y3471401D01*
X8294294D01*
Y3458865D01*
X8293458D01*
Y3455522D01*
X8292623D01*
Y3453015D01*
X8291787D01*
Y3451344D01*
X8290951D01*
Y3449672D01*
X8290116D01*
Y3448001D01*
X8289280D01*
Y3447165D01*
X8288444D01*
Y3445494D01*
X8287609D01*
Y3444658D01*
X8286773D01*
Y3443823D01*
X8285937D01*
Y3442987D01*
X8285102D01*
Y3442151D01*
X8284266D01*
Y3441315D01*
X8283430D01*
Y3440480D01*
X8281759D01*
Y3439644D01*
X8280923D01*
Y3438808D01*
X8279252D01*
Y3437973D01*
X8278416D01*
Y3437137D01*
X8275909D01*
Y3436301D01*
X8274237D01*
Y3435466D01*
X8271730D01*
Y3434630D01*
X8268388D01*
Y3433794D01*
X7170282D01*
Y3434630D01*
X7166938D01*
Y3435466D01*
X7164431D01*
Y3436301D01*
X7161924D01*
Y3437137D01*
X7160253D01*
Y3437973D01*
X7159417D01*
Y3438808D01*
X7157746D01*
Y3439644D01*
X7156910D01*
Y3440480D01*
X7155239D01*
Y3441315D01*
X7154403D01*
Y3442151D01*
X7153567D01*
Y3442987D01*
X7152732D01*
Y3443823D01*
X7151896D01*
Y3444658D01*
X7151060D01*
Y3445494D01*
X7150224D01*
Y3447165D01*
X7149389D01*
Y3448001D01*
X7148553D01*
Y3449672D01*
X7147717D01*
Y3451344D01*
X7146882D01*
Y3453015D01*
X7146046D01*
Y3454687D01*
X7145210D01*
Y3458865D01*
X7144375D01*
Y3470565D01*
X7145210D01*
Y3474743D01*
X7146046D01*
Y3476415D01*
X7146882D01*
Y3478086D01*
X7147717D01*
Y3479758D01*
X7148553D01*
Y3481429D01*
X7149389D01*
Y3483100D01*
X7150224D01*
Y3483936D01*
X7151060D01*
Y3485607D01*
X7151896D01*
Y3487279D01*
X7152732D01*
Y3488115D01*
X7153567D01*
Y3489786D01*
X7154403D01*
Y3491457D01*
X7155239D01*
Y3493129D01*
X7156074D01*
Y3494800D01*
X7156910D01*
Y3495636D01*
X7157746D01*
Y3497307D01*
X7158582D01*
Y3498979D01*
X7159417D01*
Y3499814D01*
X7160253D01*
Y3501486D01*
X7161089D01*
Y3503157D01*
X7161924D01*
Y3504828D01*
X7162760D01*
Y3505664D01*
X7163596D01*
Y3507336D01*
X7164431D01*
Y3509007D01*
X7165267D01*
Y3510678D01*
X7166103D01*
Y3511514D01*
X7166938D01*
Y3513186D01*
X7167774D01*
Y3514857D01*
X7168610D01*
Y3515692D01*
X7169446D01*
Y3517364D01*
X7170282D01*
Y3519035D01*
X7171117D01*
Y3520707D01*
X7171953D01*
Y3521542D01*
X7172788D01*
Y3523214D01*
X7173624D01*
Y3524885D01*
X7174460D01*
Y3526557D01*
X7175296D01*
Y3527392D01*
X7176131D01*
Y3529064D01*
X7176967D01*
Y3530735D01*
X7177803D01*
Y3531571D01*
X7178638D01*
Y3533242D01*
X7179474D01*
Y3534914D01*
X7180310D01*
Y3536585D01*
X7181145D01*
Y3537421D01*
X7181981D01*
Y3539092D01*
X7182817D01*
Y3540763D01*
X7183652D01*
Y3542435D01*
X7184488D01*
Y3543271D01*
X7185324D01*
Y3544942D01*
X7186160D01*
Y3546613D01*
X7186995D01*
Y3548285D01*
X7187831D01*
Y3549120D01*
X7188667D01*
Y3550792D01*
X7189502D01*
Y3552463D01*
X7190338D01*
Y3553299D01*
X7191174D01*
Y3554971D01*
X7192009D01*
Y3556642D01*
X7192845D01*
Y3558313D01*
X7193681D01*
Y3559149D01*
X7194517D01*
Y3560820D01*
X7195352D01*
Y3562491D01*
X7196188D01*
Y3564163D01*
X7197023D01*
Y3564999D01*
X7197859D01*
Y3566670D01*
X7198695D01*
Y3568341D01*
X7199531D01*
Y3569177D01*
X7200366D01*
Y3570849D01*
X7201202D01*
Y3572520D01*
X7202038D01*
Y3574191D01*
X7202874D01*
Y3575027D01*
X7203709D01*
Y3576698D01*
X7204545D01*
Y3578370D01*
X7205381D01*
Y3580041D01*
X7206216D01*
Y3581713D01*
X7207052D01*
Y3582548D01*
X7207888D01*
Y3584220D01*
X7208723D01*
Y3585891D01*
X7209559D01*
Y3586727D01*
X7210395D01*
Y3588398D01*
X7211231D01*
Y3590070D01*
X7212066D01*
Y3591741D01*
X7212902D01*
Y3592577D01*
X7213737D01*
Y3594248D01*
X7214573D01*
Y3595920D01*
X7215409D01*
Y3596755D01*
X7216245D01*
Y3598427D01*
X7217080D01*
Y3600098D01*
X7217916D01*
Y3601769D01*
X7218752D01*
Y3602605D01*
X7219588D01*
Y3604277D01*
X7220423D01*
Y3605948D01*
X7221259D01*
Y3607619D01*
X7222095D01*
Y3608455D01*
X7222930D01*
Y3610126D01*
X7223766D01*
Y3611798D01*
X7224602D01*
Y3613469D01*
X7225437D01*
Y3614305D01*
X7226273D01*
Y3615976D01*
X7227109D01*
Y3617648D01*
X7227944D01*
Y3619319D01*
X7228780D01*
Y3620155D01*
X7229616D01*
Y3621826D01*
X7230452D01*
Y3623497D01*
X7231287D01*
Y3624333D01*
X7232123D01*
Y3626004D01*
X7232958D01*
Y3627676D01*
X7233794D01*
Y3628512D01*
X7234630D01*
Y3630183D01*
X7235466D01*
Y3631855D01*
X7236302D01*
Y3633526D01*
X7237137D01*
Y3635197D01*
X7237973D01*
Y3636033D01*
X7238808D01*
Y3637704D01*
X7239644D01*
Y3639376D01*
X7240480D01*
Y3640211D01*
X7241315D01*
Y3641883D01*
X7242151D01*
Y3643554D01*
X7242987D01*
Y3645226D01*
X7243823D01*
Y3646061D01*
X7244658D01*
Y3647733D01*
X7245494D01*
Y3649404D01*
X7246330D01*
Y3650240D01*
X7247166D01*
Y3651911D01*
X7248001D01*
Y3653583D01*
X7248837D01*
Y3655254D01*
X7249673D01*
Y3656090D01*
X7250508D01*
Y3657761D01*
X7251344D01*
Y3659433D01*
X7252180D01*
Y3661104D01*
X7253015D01*
Y3661940D01*
X7253851D01*
Y3663611D01*
X7254687D01*
Y3665282D01*
X7255522D01*
Y3666954D01*
X7256358D01*
Y3667789D01*
X7257194D01*
Y3669461D01*
X7258029D01*
Y3671132D01*
X7258865D01*
Y3671968D01*
X7259701D01*
Y3673639D01*
X7260537D01*
Y3675311D01*
X7261372D01*
Y3676982D01*
X7262208D01*
Y3677818D01*
X7263044D01*
Y3679489D01*
X7263879D01*
Y3681161D01*
X7264715D01*
Y3682832D01*
X7265551D01*
Y3683668D01*
X7266387D01*
Y3685339D01*
X7267222D01*
Y3687010D01*
X7268058D01*
Y3688682D01*
X7268894D01*
Y3689518D01*
X7269729D01*
Y3691189D01*
X7270565D01*
Y3692860D01*
X7271401D01*
Y3694532D01*
X7272236D01*
Y3695368D01*
X7273072D01*
Y3697039D01*
X7273908D01*
Y3698710D01*
X7274743D01*
Y3699546D01*
X7275579D01*
Y3701217D01*
X7276415D01*
Y3702889D01*
X7277251D01*
Y3704560D01*
X7278086D01*
Y3705396D01*
X7278922D01*
Y3707067D01*
X7279758D01*
Y3708739D01*
X7280593D01*
Y3709574D01*
X7281429D01*
Y3711246D01*
X7282265D01*
Y3712917D01*
X7283100D01*
Y3714589D01*
X7283936D01*
Y3715424D01*
X7284772D01*
Y3717095D01*
X7285607D01*
Y3718767D01*
X7286443D01*
Y3720438D01*
X7287279D01*
Y3721274D01*
X7288115D01*
Y3722946D01*
X7288950D01*
Y3724617D01*
X7289786D01*
Y3726288D01*
X7290622D01*
Y3727124D01*
X7291457D01*
Y3728795D01*
X7292293D01*
Y3730467D01*
X7293129D01*
Y3731303D01*
X7293965D01*
Y3732974D01*
X7294800D01*
Y3734645D01*
X7295636D01*
Y3736317D01*
X7296472D01*
Y3737152D01*
X7297307D01*
Y3738824D01*
X7298143D01*
Y3740495D01*
X7298979D01*
Y3742167D01*
X7299814D01*
Y3743002D01*
X7300650D01*
Y3744673D01*
X7301486D01*
Y3746345D01*
X7302321D01*
Y3748016D01*
X7303157D01*
Y3748852D01*
X7303993D01*
Y3750524D01*
X7304829D01*
Y3752195D01*
X7305664D01*
Y3753866D01*
X7306500D01*
Y3754702D01*
X7307336D01*
Y3756373D01*
X7308171D01*
Y3758045D01*
X7309007D01*
Y3759716D01*
X7309843D01*
Y3760552D01*
X7310678D01*
Y3762223D01*
X7311514D01*
Y3763895D01*
X7312350D01*
Y3764730D01*
X7313186D01*
Y3766402D01*
X7314021D01*
Y3768073D01*
X7314857D01*
Y3768909D01*
X7315693D01*
Y3770580D01*
X7316528D01*
Y3772252D01*
X7317364D01*
Y3773923D01*
X7318200D01*
Y3775594D01*
X7319035D01*
Y3776430D01*
X7319871D01*
Y3778102D01*
X7320707D01*
Y3779773D01*
X7321542D01*
Y3780608D01*
X7322378D01*
Y3782280D01*
X7323214D01*
Y3783952D01*
X7324050D01*
Y3785623D01*
X7324885D01*
Y3786459D01*
X7325721D01*
Y3788130D01*
X7326557D01*
Y3789801D01*
X7327392D01*
Y3791473D01*
X7328228D01*
Y3792308D01*
X7329064D01*
Y3793980D01*
X7329899D01*
Y3795651D01*
X7330735D01*
Y3796487D01*
X7331571D01*
Y3798158D01*
X7332406D01*
Y3799830D01*
X7333242D01*
Y3801501D01*
X7334078D01*
Y3802337D01*
X7334914D01*
Y3804008D01*
X7335749D01*
Y3805679D01*
X7336585D01*
Y3806515D01*
X7337421D01*
Y3808187D01*
X7338257D01*
Y3809858D01*
X7339092D01*
Y3811529D01*
X7339928D01*
Y3812365D01*
X7340764D01*
Y3814037D01*
X7341599D01*
Y3815708D01*
X7342435D01*
Y3817379D01*
X7343271D01*
Y3818215D01*
X7344106D01*
Y3819886D01*
X7344942D01*
Y3821558D01*
X7345778D01*
Y3823229D01*
X7346614D01*
Y3824065D01*
X7347449D01*
Y3825736D01*
X7348285D01*
Y3827408D01*
X7349120D01*
Y3829079D01*
X7349956D01*
Y3829915D01*
X7350792D01*
Y3831586D01*
X7351628D01*
Y3833258D01*
X7352463D01*
Y3834093D01*
X7353299D01*
Y3835765D01*
X7354135D01*
Y3837436D01*
X7354971D01*
Y3839107D01*
X7355806D01*
Y3839943D01*
X7356642D01*
Y3841615D01*
X7357478D01*
Y3843286D01*
X7358313D01*
Y3844957D01*
X7359149D01*
Y3845793D01*
X7359985D01*
Y3847464D01*
X7360820D01*
Y3849136D01*
X7361656D01*
Y3850807D01*
X7362492D01*
Y3851643D01*
X7363327D01*
Y3853314D01*
X7364163D01*
Y3854986D01*
X7364999D01*
Y3855821D01*
X7365835D01*
Y3857493D01*
X7366670D01*
Y3859164D01*
X7367506D01*
Y3860836D01*
X7368341D01*
Y3862507D01*
X7369177D01*
Y3863343D01*
X7370013D01*
Y3865014D01*
X7370849D01*
Y3866685D01*
X7371684D01*
Y3867521D01*
X7372520D01*
Y3869192D01*
X7373356D01*
Y3870864D01*
X7374192D01*
Y3872535D01*
X7375027D01*
Y3873371D01*
X7375863D01*
Y3875042D01*
X7376698D01*
Y3876714D01*
X7377534D01*
Y3878385D01*
X7378370D01*
Y3879221D01*
X7379206D01*
Y3880892D01*
X7380041D01*
Y3882564D01*
X7380877D01*
Y3883399D01*
X7381713D01*
Y3885071D01*
X7382549D01*
Y3886742D01*
X7383384D01*
Y3888413D01*
X7384220D01*
Y3889249D01*
X7385055D01*
Y3890921D01*
X7385891D01*
Y3892592D01*
X7386727D01*
Y3894263D01*
X7387563D01*
Y3895099D01*
X7388398D01*
Y3896770D01*
X7389234D01*
Y3898442D01*
X7390070D01*
Y3899277D01*
X7390905D01*
Y3900949D01*
X7391741D01*
Y3902621D01*
X7392577D01*
Y3904292D01*
X7393412D01*
Y3905127D01*
X7394248D01*
Y3906799D01*
X7395084D01*
Y3908470D01*
X7395920D01*
Y3910142D01*
X7396755D01*
Y3910977D01*
X7397591D01*
Y3912649D01*
X7398427D01*
Y3914320D01*
X7399262D01*
Y3915991D01*
X7400098D01*
Y3916827D01*
X7400934D01*
Y3918499D01*
X7401770D01*
Y3920170D01*
X7402605D01*
Y3921842D01*
X7403441D01*
Y3922677D01*
X7404276D01*
Y3924349D01*
X7405112D01*
Y3926020D01*
X7405948D01*
Y3926856D01*
X7406784D01*
Y3928527D01*
X7407619D01*
Y3930198D01*
X7408455D01*
Y3931034D01*
X7409290D01*
Y3932705D01*
X7410126D01*
Y3934377D01*
X7410962D01*
Y3936048D01*
X7411798D01*
Y3937720D01*
X7412633D01*
Y3938555D01*
X7413469D01*
Y3940227D01*
X7414305D01*
Y3941898D01*
X7415141D01*
Y3942734D01*
X7415976D01*
Y3944405D01*
X7416812D01*
Y3946077D01*
X7417648D01*
Y3947748D01*
X7418484D01*
Y3948584D01*
X7419319D01*
Y3950255D01*
X7420155D01*
Y3951927D01*
X7420990D01*
Y3953598D01*
X7421826D01*
Y3954434D01*
X7422662D01*
Y3956105D01*
X7423498D01*
Y3957776D01*
X7424333D01*
Y3958612D01*
X7425169D01*
Y3960284D01*
X7426005D01*
Y3961955D01*
X7426840D01*
Y3962791D01*
X7427676D01*
Y3964462D01*
X7428512D01*
Y3966133D01*
X7429348D01*
Y3967805D01*
X7430183D01*
Y3969476D01*
X7431019D01*
Y3970312D01*
X7431855D01*
Y3971983D01*
X7432690D01*
Y3973655D01*
X7433526D01*
Y3974490D01*
X7434362D01*
Y3976162D01*
X7435197D01*
Y3977833D01*
X7436033D01*
Y3979505D01*
X7436869D01*
Y3980340D01*
X7437704D01*
Y3982012D01*
X7438540D01*
Y3983683D01*
X7439376D01*
Y3985354D01*
X7440212D01*
Y3986190D01*
X7441047D01*
Y3987861D01*
X7441883D01*
Y3989533D01*
X7442719D01*
Y3990369D01*
X7443554D01*
Y3992040D01*
X7444390D01*
Y3993711D01*
X7445226D01*
Y3995383D01*
X7446061D01*
Y3996219D01*
X7446897D01*
Y3997890D01*
X7447733D01*
Y3999561D01*
X7448569D01*
Y4001233D01*
X7449404D01*
Y4002904D01*
X7450240D01*
Y4003740D01*
X7451076D01*
Y4005411D01*
X7451911D01*
Y4007083D01*
X7452747D01*
Y4007918D01*
X7453583D01*
Y4009590D01*
X7454418D01*
Y4011261D01*
X7455254D01*
Y4012097D01*
X7456090D01*
Y4013768D01*
X7456925D01*
Y4015440D01*
X7457761D01*
Y4017111D01*
X7458597D01*
Y4018782D01*
X7459433D01*
Y4019618D01*
X7460268D01*
Y4021290D01*
X7461104D01*
Y4022961D01*
X7461940D01*
Y4023796D01*
X7462775D01*
Y4025468D01*
X7463611D01*
Y4027139D01*
X7464447D01*
Y4028811D01*
X7465283D01*
Y4029646D01*
X7466118D01*
Y4031318D01*
X7466954D01*
Y4032989D01*
X7467789D01*
Y4034660D01*
X7468625D01*
Y4035496D01*
X7469461D01*
Y4037168D01*
X7470297D01*
Y4038839D01*
X7471132D01*
Y4039675D01*
X7471968D01*
Y4041346D01*
X7472804D01*
Y4043018D01*
X7473640D01*
Y4043853D01*
X7474475D01*
Y4045525D01*
X7475311D01*
Y4047196D01*
X7476147D01*
Y4048867D01*
X7476982D01*
Y4050539D01*
X7477818D01*
Y4051374D01*
X7478654D01*
Y4053046D01*
X7479489D01*
Y4054717D01*
X7480325D01*
Y4056389D01*
X7481161D01*
Y4057225D01*
X7481996D01*
Y4058896D01*
X7482832D01*
Y4060567D01*
X7483668D01*
Y4061403D01*
X7484503D01*
Y4063074D01*
X7485339D01*
Y4064745D01*
X7486175D01*
Y4066417D01*
X7487010D01*
Y4067253D01*
X7487846D01*
Y4068924D01*
X7488682D01*
Y4070596D01*
X7489518D01*
Y4072267D01*
X7490353D01*
Y4073103D01*
X7491189D01*
Y4074774D01*
X7492025D01*
Y4076445D01*
X7492860D01*
Y4078117D01*
X7493696D01*
Y4078953D01*
X7494532D01*
Y4080624D01*
X7495368D01*
Y4082295D01*
X7496203D01*
Y4083131D01*
X7497039D01*
Y4084802D01*
X7497875D01*
Y4086474D01*
X7498710D01*
Y4088145D01*
X7499546D01*
Y4089817D01*
X7500382D01*
Y4090652D01*
X7501217D01*
Y4092324D01*
X7502053D01*
Y4093995D01*
X7502889D01*
Y4094831D01*
X7503724D01*
Y4096502D01*
X7504560D01*
Y4098174D01*
X7505396D01*
Y4099845D01*
X7506232D01*
Y4100681D01*
X7507067D01*
Y4102352D01*
X7507903D01*
Y4104023D01*
X7508739D01*
Y4104859D01*
X7509575D01*
Y4106531D01*
X7510410D01*
Y4108202D01*
X7511246D01*
Y4109873D01*
X7512081D01*
Y4110709D01*
X7512917D01*
Y4112380D01*
X7513753D01*
Y4114052D01*
X7514589D01*
Y4115723D01*
X7515424D01*
Y4116559D01*
X7516260D01*
Y4118230D01*
X7517096D01*
Y4119902D01*
X7517932D01*
Y4120738D01*
X7518767D01*
Y4122409D01*
X7519603D01*
Y4124080D01*
X7520438D01*
Y4125752D01*
X7521274D01*
Y4126587D01*
X7522110D01*
Y4128259D01*
X7522946D01*
Y4129930D01*
X7523781D01*
Y4131602D01*
X7524617D01*
Y4132437D01*
X7525453D01*
Y4134109D01*
X7526288D01*
Y4135780D01*
X7527124D01*
Y4136616D01*
X7527960D01*
Y4138287D01*
X7528795D01*
Y4139958D01*
X7529631D01*
Y4141630D01*
X7530467D01*
Y4143301D01*
X7531302D01*
Y4144137D01*
X7532138D01*
Y4145808D01*
X7532974D01*
Y4147480D01*
X7533810D01*
Y4148315D01*
X7534645D01*
Y4149987D01*
X7535481D01*
Y4151658D01*
X7536317D01*
Y4153330D01*
X7537153D01*
Y4154165D01*
X7537988D01*
Y4155837D01*
X7538824D01*
Y4157508D01*
X7539659D01*
Y4159179D01*
X7540495D01*
Y4160015D01*
X7541331D01*
Y4161687D01*
X7542167D01*
Y4163358D01*
X7543002D01*
Y4164194D01*
X7543838D01*
Y4165865D01*
X7544674D01*
Y4167536D01*
X7545509D01*
Y4169208D01*
X7546345D01*
Y4170043D01*
X7547181D01*
Y4171715D01*
X7548016D01*
Y4173387D01*
X7548852D01*
Y4175058D01*
X7549688D01*
Y4175893D01*
X7550524D01*
Y4177565D01*
X7551359D01*
Y4179236D01*
X7552195D01*
Y4180072D01*
X7553031D01*
Y4181743D01*
X7553867D01*
Y4183415D01*
X7554702D01*
Y4185086D01*
X7555538D01*
Y4186757D01*
X7556373D01*
Y4187593D01*
X7557209D01*
Y4189265D01*
X7558045D01*
Y4190936D01*
X7558881D01*
Y4191772D01*
X7559716D01*
Y4193443D01*
X7560552D01*
Y4195114D01*
X7561387D01*
Y4196786D01*
X7562223D01*
Y4197622D01*
X7563059D01*
Y4199293D01*
X7563895D01*
Y4200964D01*
X7564730D01*
Y4201800D01*
X7565566D01*
Y4203471D01*
X7566402D01*
Y4205143D01*
X7567238D01*
Y4206814D01*
X7568073D01*
Y4208486D01*
X7568909D01*
Y4209322D01*
X7569745D01*
Y4210993D01*
X7570580D01*
Y4212664D01*
X7571416D01*
Y4213500D01*
X7572252D01*
Y4215171D01*
X7573087D01*
Y4216842D01*
X7573923D01*
Y4218514D01*
X7574759D01*
Y4219350D01*
X7575594D01*
Y4221021D01*
X7576430D01*
Y4222692D01*
X7577266D01*
Y4223528D01*
X7578102D01*
Y4225200D01*
X7578937D01*
Y4226871D01*
X7579773D01*
Y4228542D01*
X7580608D01*
Y4230214D01*
X7581444D01*
Y4231049D01*
X7582280D01*
Y4232721D01*
X7583116D01*
Y4234392D01*
X7583952D01*
Y4235228D01*
X7584787D01*
Y4236899D01*
X7585623D01*
Y4238571D01*
X7586459D01*
Y4240242D01*
X7587294D01*
Y4241078D01*
X7588130D01*
Y4242749D01*
X7588966D01*
Y4244421D01*
X7589801D01*
Y4245256D01*
X7590637D01*
Y4246928D01*
X7591473D01*
Y4248599D01*
X7592308D01*
Y4250271D01*
X7593144D01*
Y4251106D01*
X7593980D01*
Y4252778D01*
X7594816D01*
Y4254449D01*
X7595651D01*
Y4256120D01*
X7596487D01*
Y4256956D01*
X7597323D01*
Y4258628D01*
X7598158D01*
Y4260299D01*
X7598994D01*
Y4261135D01*
X7599830D01*
Y4262806D01*
X7600666D01*
Y4264477D01*
X7601501D01*
Y4266149D01*
X7602337D01*
Y4267820D01*
X7603172D01*
Y4268656D01*
X7604008D01*
Y4270327D01*
X7604844D01*
Y4271999D01*
X7605680D01*
Y4272834D01*
X7606515D01*
Y4274506D01*
X7607351D01*
Y4276177D01*
X7608187D01*
Y4277013D01*
X7609022D01*
Y4278684D01*
X7609858D01*
Y4280355D01*
X7610694D01*
Y4282027D01*
X7611530D01*
Y4283698D01*
X7612365D01*
Y4284534D01*
X7613201D01*
Y4286206D01*
X7614037D01*
Y4287877D01*
X7614872D01*
Y4288713D01*
X7615708D01*
Y4290384D01*
X7616544D01*
Y4292055D01*
X7617379D01*
Y4293727D01*
X7618215D01*
Y4294562D01*
X7619051D01*
Y4296234D01*
X7619886D01*
Y4297905D01*
X7620722D01*
Y4298741D01*
X7621558D01*
Y4300412D01*
X7622393D01*
Y4302084D01*
X7623229D01*
Y4303755D01*
X7624065D01*
Y4304591D01*
X7624901D01*
Y4306262D01*
X7625736D01*
Y4307934D01*
X7626572D01*
Y4309605D01*
X7627408D01*
Y4310441D01*
X7628243D01*
Y4312112D01*
X7629079D01*
Y4313783D01*
X7629915D01*
Y4315455D01*
X7630751D01*
Y4316291D01*
X7631586D01*
Y4317962D01*
X7632422D01*
Y4319633D01*
X7633258D01*
Y4321305D01*
X7634093D01*
Y4322140D01*
X7634929D01*
Y4323812D01*
X7635765D01*
Y4325483D01*
X7636600D01*
Y4326319D01*
X7637436D01*
Y4327990D01*
X7638272D01*
Y4329662D01*
X7639107D01*
Y4331333D01*
X7639943D01*
Y4332169D01*
X7640779D01*
Y4333840D01*
X7641615D01*
Y4335512D01*
X7642450D01*
Y4337183D01*
X7643286D01*
Y4338019D01*
X7644122D01*
Y4339690D01*
X7644958D01*
Y4341361D01*
X7645793D01*
Y4342197D01*
X7646629D01*
Y4343869D01*
X7647465D01*
Y4345540D01*
X7648300D01*
Y4347211D01*
X7649136D01*
Y4348883D01*
X7649971D01*
Y4349719D01*
X7650807D01*
Y4351390D01*
X7651643D01*
Y4353061D01*
X7652479D01*
Y4353897D01*
X7653314D01*
Y4355568D01*
X7654150D01*
Y4357240D01*
X7654986D01*
Y4358075D01*
X7655821D01*
Y4359747D01*
X7656657D01*
Y4361418D01*
X7657493D01*
Y4363090D01*
X7658328D01*
Y4363925D01*
X7659164D01*
Y4365597D01*
X7660000D01*
Y4367268D01*
X7660836D01*
Y4368940D01*
X7661671D01*
Y4370611D01*
X7662507D01*
Y4371446D01*
X7663343D01*
Y4373118D01*
X7664178D01*
Y4374789D01*
X7665014D01*
Y4375625D01*
X7665850D01*
Y4377297D01*
X7666685D01*
Y4378968D01*
X7667521D01*
Y4380639D01*
X7668357D01*
Y4381475D01*
X7669193D01*
Y4383146D01*
X7670028D01*
Y4384818D01*
X7670864D01*
Y4385654D01*
X7671700D01*
Y4387325D01*
X7672535D01*
Y4388996D01*
X7673371D01*
Y4390668D01*
X7674207D01*
Y4391503D01*
X7675042D01*
Y4393175D01*
X7675878D01*
Y4394846D01*
X7676714D01*
Y4396517D01*
X7677550D01*
Y4397353D01*
X7678385D01*
Y4399024D01*
X7679221D01*
Y4400696D01*
X7680057D01*
Y4401532D01*
X7680892D01*
Y4403203D01*
X7681728D01*
Y4404875D01*
X7682564D01*
Y4406546D01*
X7683399D01*
Y4408217D01*
X7684235D01*
Y4409053D01*
X7685071D01*
Y4410724D01*
X7685907D01*
Y4412396D01*
X7686742D01*
Y4413231D01*
X7687578D01*
Y4414903D01*
X7688414D01*
Y4416574D01*
X7689250D01*
Y4418246D01*
X7690085D01*
Y4419081D01*
X7690921D01*
Y4420753D01*
X7691756D01*
Y4422424D01*
X7692592D01*
Y4423260D01*
X7693428D01*
Y4424931D01*
X7694264D01*
Y4425767D01*
X7695099D01*
Y4426603D01*
X7695935D01*
Y4428274D01*
X7696770D01*
Y4429110D01*
X7697606D01*
Y4429945D01*
X7698442D01*
Y4430781D01*
X7699278D01*
Y4431617D01*
X7700949D01*
Y4432453D01*
X7701785D01*
Y4433288D01*
X7703456D01*
Y4434124D01*
X7704292D01*
Y4434960D01*
X7705963D01*
Y4435795D01*
X7708470D01*
Y4436631D01*
X7710977D01*
Y4437467D01*
X7714320D01*
Y4438303D01*
X7724349D01*
Y4437467D01*
D02*
G37*
G36*
X1960493Y3396327D02*
X2083689Y3365035D01*
X2198252Y3301305D01*
X2226152Y3273644D01*
X1570472D01*
X1583164Y3286801D01*
X1732389Y3371070D01*
X1858573Y3398281D01*
X1960493Y3396327D01*
D02*
G37*
G36*
X2260493Y2296328D02*
X2383689Y2265036D01*
X2498252Y2201305D01*
X2526152Y2173645D01*
X1870472D01*
X1883164Y2186802D01*
X2032389Y2271070D01*
X2158573Y2298282D01*
X2260493Y2296328D01*
D02*
G37*
G36*
Y1196327D02*
X2383689Y1165036D01*
X2498252Y1101305D01*
X2526152Y1073644D01*
X1870472D01*
X1883164Y1086801D01*
X2032389Y1171070D01*
X2158573Y1198281D01*
X2260493Y1196327D01*
D02*
G37*
%LPC*%
G36*
X7720170Y4344705D02*
X7718499D01*
Y4343033D01*
X7717663D01*
Y4342197D01*
X7716827D01*
Y4340526D01*
X7715991D01*
Y4338854D01*
X7715156D01*
Y4337183D01*
X7714320D01*
Y4336347D01*
X7713485D01*
Y4334676D01*
X7712649D01*
Y4333005D01*
X7711813D01*
Y4332169D01*
X7710977D01*
Y4330497D01*
X7710142D01*
Y4328826D01*
X7709306D01*
Y4327155D01*
X7708470D01*
Y4325483D01*
X7707635D01*
Y4324648D01*
X7706799D01*
Y4322976D01*
X7705963D01*
Y4321305D01*
X7705128D01*
Y4320469D01*
X7704292D01*
Y4318798D01*
X7703456D01*
Y4317126D01*
X7702621D01*
Y4316291D01*
X7701785D01*
Y4314619D01*
X7700949D01*
Y4312948D01*
X7700113D01*
Y4311276D01*
X7699278D01*
Y4310441D01*
X7698442D01*
Y4308769D01*
X7697606D01*
Y4307098D01*
X7696770D01*
Y4305426D01*
X7695935D01*
Y4304591D01*
X7695099D01*
Y4302920D01*
X7694264D01*
Y4301248D01*
X7693428D01*
Y4300412D01*
X7692592D01*
Y4298741D01*
X7691756D01*
Y4297070D01*
X7690921D01*
Y4295398D01*
X7690085D01*
Y4294562D01*
X7689250D01*
Y4292891D01*
X7688414D01*
Y4291220D01*
X7687578D01*
Y4289548D01*
X7686742D01*
Y4288713D01*
X7685907D01*
Y4287041D01*
X7685071D01*
Y4285370D01*
X7684235D01*
Y4283698D01*
X7683399D01*
Y4282863D01*
X7682564D01*
Y4281191D01*
X7681728D01*
Y4279520D01*
X7680892D01*
Y4278684D01*
X7680057D01*
Y4277013D01*
X7679221D01*
Y4275341D01*
X7678385D01*
Y4273670D01*
X7677550D01*
Y4272834D01*
X7676714D01*
Y4271163D01*
X7675878D01*
Y4269492D01*
X7675042D01*
Y4267820D01*
X7674207D01*
Y4266985D01*
X7673371D01*
Y4265313D01*
X7672535D01*
Y4263641D01*
X7671700D01*
Y4262806D01*
X7670864D01*
Y4261135D01*
X7670028D01*
Y4259463D01*
X7669193D01*
Y4257792D01*
X7668357D01*
Y4256956D01*
X7667521D01*
Y4255285D01*
X7666685D01*
Y4253613D01*
X7665850D01*
Y4251942D01*
X7665014D01*
Y4251106D01*
X7664178D01*
Y4249435D01*
X7663343D01*
Y4247763D01*
X7662507D01*
Y4246092D01*
X7661671D01*
Y4245256D01*
X7660836D01*
Y4243585D01*
X7660000D01*
Y4241914D01*
X7659164D01*
Y4241078D01*
X7658328D01*
Y4239406D01*
X7657493D01*
Y4237735D01*
X7656657D01*
Y4236063D01*
X7655821D01*
Y4235228D01*
X7654986D01*
Y4233557D01*
X7654150D01*
Y4231885D01*
X7653314D01*
Y4230214D01*
X7652479D01*
Y4229378D01*
X7651643D01*
Y4227707D01*
X7650807D01*
Y4226035D01*
X7649971D01*
Y4224364D01*
X7649136D01*
Y4223528D01*
X7648300D01*
Y4221857D01*
X7647465D01*
Y4220185D01*
X7646629D01*
Y4219350D01*
X7645793D01*
Y4217678D01*
X7644958D01*
Y4216007D01*
X7644122D01*
Y4214335D01*
X7643286D01*
Y4213500D01*
X7642450D01*
Y4211828D01*
X7641615D01*
Y4210157D01*
X7640779D01*
Y4208486D01*
X7639943D01*
Y4207650D01*
X7639107D01*
Y4205979D01*
X7638272D01*
Y4204307D01*
X7637436D01*
Y4203471D01*
X7636600D01*
Y4201800D01*
X7635765D01*
Y4200129D01*
X7634929D01*
Y4198457D01*
X7634093D01*
Y4197622D01*
X7633258D01*
Y4195950D01*
X7632422D01*
Y4194279D01*
X7631586D01*
Y4192608D01*
X7630751D01*
Y4191772D01*
X7629915D01*
Y4190100D01*
X7629079D01*
Y4188429D01*
X7628243D01*
Y4186757D01*
X7627408D01*
Y4185922D01*
X7626572D01*
Y4184250D01*
X7625736D01*
Y4182579D01*
X7624901D01*
Y4180908D01*
X7624065D01*
Y4180072D01*
X7623229D01*
Y4178401D01*
X7622393D01*
Y4176729D01*
X7621558D01*
Y4175893D01*
X7620722D01*
Y4174222D01*
X7619886D01*
Y4172551D01*
X7619051D01*
Y4170879D01*
X7618215D01*
Y4170043D01*
X7617379D01*
Y4168372D01*
X7616544D01*
Y4166701D01*
X7615708D01*
Y4165030D01*
X7614872D01*
Y4164194D01*
X7614037D01*
Y4162522D01*
X7613201D01*
Y4160851D01*
X7612365D01*
Y4160015D01*
X7611530D01*
Y4158344D01*
X7610694D01*
Y4156672D01*
X7609858D01*
Y4155001D01*
X7609022D01*
Y4154165D01*
X7608187D01*
Y4152494D01*
X7607351D01*
Y4150823D01*
X7606515D01*
Y4149151D01*
X7605680D01*
Y4148315D01*
X7604844D01*
Y4146644D01*
X7604008D01*
Y4144973D01*
X7603172D01*
Y4143301D01*
X7602337D01*
Y4142465D01*
X7601501D01*
Y4140794D01*
X7600666D01*
Y4139123D01*
X7599830D01*
Y4138287D01*
X7598994D01*
Y4136616D01*
X7598158D01*
Y4134944D01*
X7597323D01*
Y4133273D01*
X7596487D01*
Y4131602D01*
X7595651D01*
Y4130766D01*
X7594816D01*
Y4129094D01*
X7593980D01*
Y4128259D01*
X7593144D01*
Y4126587D01*
X7592308D01*
Y4124916D01*
X7591473D01*
Y4123244D01*
X7590637D01*
Y4122409D01*
X7589801D01*
Y4120738D01*
X7588966D01*
Y4119066D01*
X7588130D01*
Y4117395D01*
X7587294D01*
Y4116559D01*
X7586459D01*
Y4114888D01*
X7585623D01*
Y4113216D01*
X7584787D01*
Y4111545D01*
X7583952D01*
Y4109873D01*
X7583116D01*
Y4109038D01*
X7582280D01*
Y4107366D01*
X7581444D01*
Y4105695D01*
X7580608D01*
Y4104859D01*
X7579773D01*
Y4103188D01*
X7578937D01*
Y4101516D01*
X7578102D01*
Y4100681D01*
X7577266D01*
Y4099009D01*
X7576430D01*
Y4097338D01*
X7575594D01*
Y4095666D01*
X7574759D01*
Y4094831D01*
X7573923D01*
Y4093159D01*
X7573087D01*
Y4091488D01*
X7572252D01*
Y4089817D01*
X7571416D01*
Y4088981D01*
X7570580D01*
Y4087310D01*
X7569745D01*
Y4085638D01*
X7568909D01*
Y4083967D01*
X7568073D01*
Y4083131D01*
X7567238D01*
Y4081460D01*
X7566402D01*
Y4079788D01*
X7565566D01*
Y4078953D01*
X7564730D01*
Y4077281D01*
X7563895D01*
Y4075610D01*
X7563059D01*
Y4073939D01*
X7562223D01*
Y4073103D01*
X7561387D01*
Y4071431D01*
X7560552D01*
Y4069760D01*
X7559716D01*
Y4068088D01*
X7558881D01*
Y4067253D01*
X7558045D01*
Y4065581D01*
X7557209D01*
Y4063910D01*
X7556373D01*
Y4063074D01*
X7555538D01*
Y4061403D01*
X7554702D01*
Y4059731D01*
X7553867D01*
Y4058060D01*
X7553031D01*
Y4056389D01*
X7552195D01*
Y4055553D01*
X7551359D01*
Y4053882D01*
X7550524D01*
Y4052210D01*
X7549688D01*
Y4051374D01*
X7548852D01*
Y4049703D01*
X7548016D01*
Y4048032D01*
X7547181D01*
Y4046360D01*
X7546345D01*
Y4045525D01*
X7545509D01*
Y4043853D01*
X7544674D01*
Y4042182D01*
X7543838D01*
Y4041346D01*
X7543002D01*
Y4039675D01*
X7542167D01*
Y4038004D01*
X7541331D01*
Y4036332D01*
X7540495D01*
Y4035496D01*
X7539659D01*
Y4033825D01*
X7538824D01*
Y4032153D01*
X7537988D01*
Y4030482D01*
X7537153D01*
Y4029646D01*
X7536317D01*
Y4027975D01*
X7535481D01*
Y4026304D01*
X7534645D01*
Y4024632D01*
X7533810D01*
Y4023796D01*
X7532974D01*
Y4022125D01*
X7532138D01*
Y4020454D01*
X7531302D01*
Y4019618D01*
X7530467D01*
Y4017946D01*
X7529631D01*
Y4016275D01*
X7528795D01*
Y4014604D01*
X7527960D01*
Y4013768D01*
X7527124D01*
Y4012097D01*
X7526288D01*
Y4010425D01*
X7525453D01*
Y4009590D01*
X7524617D01*
Y4007918D01*
X7523781D01*
Y4006247D01*
X7522946D01*
Y4004575D01*
X7522110D01*
Y4002904D01*
X7521274D01*
Y4002068D01*
X7520438D01*
Y4000397D01*
X7519603D01*
Y3998726D01*
X7518767D01*
Y3997890D01*
X7517932D01*
Y3996219D01*
X7517096D01*
Y3994547D01*
X7516260D01*
Y3992876D01*
X7515424D01*
Y3992040D01*
X7514589D01*
Y3990369D01*
X7513753D01*
Y3988697D01*
X7512917D01*
Y3987026D01*
X7512081D01*
Y3986190D01*
X7511246D01*
Y3984519D01*
X7510410D01*
Y3982847D01*
X7509575D01*
Y3982012D01*
X7508739D01*
Y3980340D01*
X7507903D01*
Y3978669D01*
X7507067D01*
Y3976997D01*
X7506232D01*
Y3976162D01*
X7505396D01*
Y3974490D01*
X7504560D01*
Y3972819D01*
X7503724D01*
Y3971148D01*
X7502889D01*
Y3970312D01*
X7502053D01*
Y3968641D01*
X7501217D01*
Y3966969D01*
X7500382D01*
Y3966133D01*
X7499546D01*
Y3964462D01*
X7498710D01*
Y3962791D01*
X7497875D01*
Y3961119D01*
X7497039D01*
Y3960284D01*
X7496203D01*
Y3958612D01*
X7495368D01*
Y3956941D01*
X7494532D01*
Y3955269D01*
X7493696D01*
Y3954434D01*
X7492860D01*
Y3952762D01*
X7492025D01*
Y3951091D01*
X7491189D01*
Y3949420D01*
X7490353D01*
Y3948584D01*
X7489518D01*
Y3946912D01*
X7488682D01*
Y3945241D01*
X7487846D01*
Y3943570D01*
X7487010D01*
Y3942734D01*
X7486175D01*
Y3941062D01*
X7485339D01*
Y3939391D01*
X7484503D01*
Y3937720D01*
X7483668D01*
Y3936884D01*
X7482832D01*
Y3935213D01*
X7481996D01*
Y3933541D01*
X7481161D01*
Y3932705D01*
X7480325D01*
Y3931034D01*
X7479489D01*
Y3929363D01*
X7478654D01*
Y3927691D01*
X7477818D01*
Y3926856D01*
X7476982D01*
Y3925184D01*
X7476147D01*
Y3923513D01*
X7475311D01*
Y3922677D01*
X7474475D01*
Y3921006D01*
X7473640D01*
Y3919334D01*
X7472804D01*
Y3917663D01*
X7471968D01*
Y3916827D01*
X7471132D01*
Y3915156D01*
X7470297D01*
Y3913484D01*
X7469461D01*
Y3911813D01*
X7468625D01*
Y3910977D01*
X7467789D01*
Y3909306D01*
X7466954D01*
Y3907635D01*
X7466118D01*
Y3906799D01*
X7465283D01*
Y3905127D01*
X7464447D01*
Y3903456D01*
X7463611D01*
Y3901785D01*
X7462775D01*
Y3900949D01*
X7461940D01*
Y3899277D01*
X7461104D01*
Y3897606D01*
X7460268D01*
Y3895935D01*
X7459433D01*
Y3895099D01*
X7458597D01*
Y3893428D01*
X7457761D01*
Y3891756D01*
X7456925D01*
Y3890085D01*
X7456090D01*
Y3889249D01*
X7455254D01*
Y3887578D01*
X7454418D01*
Y3885907D01*
X7453583D01*
Y3885071D01*
X7452747D01*
Y3883399D01*
X7451911D01*
Y3881728D01*
X7451076D01*
Y3880057D01*
X7450240D01*
Y3879221D01*
X7449404D01*
Y3877550D01*
X7448569D01*
Y3875878D01*
X7447733D01*
Y3874207D01*
X7446897D01*
Y3873371D01*
X7446061D01*
Y3871700D01*
X7445226D01*
Y3870028D01*
X7444390D01*
Y3868357D01*
X7443554D01*
Y3867521D01*
X7442719D01*
Y3865850D01*
X7441883D01*
Y3864178D01*
X7441047D01*
Y3862507D01*
X7440212D01*
Y3861671D01*
X7439376D01*
Y3860000D01*
X7438540D01*
Y3858328D01*
X7437704D01*
Y3857493D01*
X7436869D01*
Y3855821D01*
X7436033D01*
Y3854150D01*
X7435197D01*
Y3852478D01*
X7434362D01*
Y3851643D01*
X7433526D01*
Y3849971D01*
X7432690D01*
Y3848300D01*
X7431855D01*
Y3846629D01*
X7431019D01*
Y3845793D01*
X7430183D01*
Y3844122D01*
X7429348D01*
Y3842450D01*
X7428512D01*
Y3841615D01*
X7427676D01*
Y3839943D01*
X7426840D01*
Y3838272D01*
X7426005D01*
Y3836600D01*
X7425169D01*
Y3835765D01*
X7424333D01*
Y3834093D01*
X7423498D01*
Y3832422D01*
X7422662D01*
Y3830751D01*
X7421826D01*
Y3829915D01*
X7420990D01*
Y3828243D01*
X7420155D01*
Y3826572D01*
X7419319D01*
Y3825736D01*
X7418484D01*
Y3824065D01*
X7417648D01*
Y3822393D01*
X7416812D01*
Y3820722D01*
X7415976D01*
Y3819886D01*
X7415141D01*
Y3818215D01*
X7414305D01*
Y3816544D01*
X7413469D01*
Y3814872D01*
X7412633D01*
Y3814037D01*
X7411798D01*
Y3812365D01*
X7410962D01*
Y3810694D01*
X7410126D01*
Y3809022D01*
X7409290D01*
Y3808187D01*
X7408455D01*
Y3806515D01*
X7407619D01*
Y3804844D01*
X7406784D01*
Y3804008D01*
X7405948D01*
Y3802337D01*
X7405112D01*
Y3800665D01*
X7404276D01*
Y3798994D01*
X7403441D01*
Y3798158D01*
X7402605D01*
Y3796487D01*
X7401770D01*
Y3794815D01*
X7400934D01*
Y3793144D01*
X7400098D01*
Y3792308D01*
X7399262D01*
Y3790637D01*
X7398427D01*
Y3788965D01*
X7397591D01*
Y3788130D01*
X7396755D01*
Y3786459D01*
X7395920D01*
Y3784787D01*
X7395084D01*
Y3783116D01*
X7394248D01*
Y3782280D01*
X7393412D01*
Y3780608D01*
X7392577D01*
Y3778937D01*
X7391741D01*
Y3777266D01*
X7390905D01*
Y3776430D01*
X7390070D01*
Y3774759D01*
X7389234D01*
Y3773087D01*
X7388398D01*
Y3771416D01*
X7387563D01*
Y3770580D01*
X7386727D01*
Y3768909D01*
X7385891D01*
Y3767238D01*
X7385055D01*
Y3766402D01*
X7384220D01*
Y3764730D01*
X7383384D01*
Y3763059D01*
X7382549D01*
Y3761387D01*
X7381713D01*
Y3760552D01*
X7380877D01*
Y3758880D01*
X7380041D01*
Y3757209D01*
X7379206D01*
Y3755538D01*
X7378370D01*
Y3753866D01*
X7377534D01*
Y3753031D01*
X7376698D01*
Y3751359D01*
X7375863D01*
Y3749688D01*
X7375027D01*
Y3748852D01*
X7374192D01*
Y3747181D01*
X7373356D01*
Y3745509D01*
X7372520D01*
Y3744673D01*
X7371684D01*
Y3743002D01*
X7370849D01*
Y3741331D01*
X7370013D01*
Y3739659D01*
X7369177D01*
Y3738824D01*
X7368341D01*
Y3737152D01*
X7367506D01*
Y3735481D01*
X7366670D01*
Y3733809D01*
X7365835D01*
Y3732974D01*
X7364999D01*
Y3731303D01*
X7364163D01*
Y3729631D01*
X7363327D01*
Y3728795D01*
X7362492D01*
Y3727124D01*
X7361656D01*
Y3725453D01*
X7360820D01*
Y3723781D01*
X7359985D01*
Y3722946D01*
X7359149D01*
Y3721274D01*
X7358313D01*
Y3719603D01*
X7357478D01*
Y3717931D01*
X7356642D01*
Y3717095D01*
X7355806D01*
Y3715424D01*
X7354971D01*
Y3713753D01*
X7354135D01*
Y3712917D01*
X7353299D01*
Y3711246D01*
X7352463D01*
Y3709574D01*
X7351628D01*
Y3707903D01*
X7350792D01*
Y3706232D01*
X7349956D01*
Y3705396D01*
X7349120D01*
Y3703724D01*
X7348285D01*
Y3702053D01*
X7347449D01*
Y3701217D01*
X7346614D01*
Y3699546D01*
X7345778D01*
Y3697874D01*
X7344942D01*
Y3696203D01*
X7344106D01*
Y3695368D01*
X7343271D01*
Y3693696D01*
X7342435D01*
Y3692025D01*
X7341599D01*
Y3690354D01*
X7340764D01*
Y3689518D01*
X7339928D01*
Y3687846D01*
X7339092D01*
Y3686175D01*
X7338257D01*
Y3685339D01*
X7337421D01*
Y3683668D01*
X7336585D01*
Y3681996D01*
X7335749D01*
Y3680325D01*
X7334914D01*
Y3679489D01*
X7334078D01*
Y3677818D01*
X7333242D01*
Y3676146D01*
X7332406D01*
Y3675311D01*
X7331571D01*
Y3673639D01*
X7330735D01*
Y3671968D01*
X7329899D01*
Y3670296D01*
X7329064D01*
Y3668625D01*
X7328228D01*
Y3667789D01*
X7327392D01*
Y3666118D01*
X7326557D01*
Y3664447D01*
X7325721D01*
Y3663611D01*
X7324885D01*
Y3661940D01*
X7324050D01*
Y3660268D01*
X7323214D01*
Y3658597D01*
X7322378D01*
Y3657761D01*
X7321542D01*
Y3656090D01*
X7320707D01*
Y3654418D01*
X7319871D01*
Y3652747D01*
X7319035D01*
Y3651911D01*
X7318200D01*
Y3650240D01*
X7317364D01*
Y3648569D01*
X7316528D01*
Y3647733D01*
X7315693D01*
Y3646061D01*
X7314857D01*
Y3644390D01*
X7314021D01*
Y3642719D01*
X7313186D01*
Y3641883D01*
X7312350D01*
Y3640211D01*
X7311514D01*
Y3638540D01*
X7310678D01*
Y3636869D01*
X7309843D01*
Y3636033D01*
X7309007D01*
Y3634362D01*
X7308171D01*
Y3632690D01*
X7307336D01*
Y3631019D01*
X7306500D01*
Y3630183D01*
X7305664D01*
Y3628512D01*
X7304829D01*
Y3626840D01*
X7303993D01*
Y3626004D01*
X7303157D01*
Y3624333D01*
X7302321D01*
Y3622662D01*
X7301486D01*
Y3620990D01*
X7300650D01*
Y3620155D01*
X7299814D01*
Y3618483D01*
X7298979D01*
Y3616812D01*
X7298143D01*
Y3615141D01*
X7297307D01*
Y3614305D01*
X7296472D01*
Y3612634D01*
X7295636D01*
Y3610962D01*
X7294800D01*
Y3609290D01*
X7293965D01*
Y3608455D01*
X7293129D01*
Y3606784D01*
X7292293D01*
Y3605112D01*
X7291457D01*
Y3604277D01*
X7290622D01*
Y3602605D01*
X7289786D01*
Y3600934D01*
X7288950D01*
Y3599262D01*
X7288115D01*
Y3598427D01*
X7287279D01*
Y3596755D01*
X7286443D01*
Y3595084D01*
X7285607D01*
Y3593412D01*
X7284772D01*
Y3592577D01*
X7283936D01*
Y3590905D01*
X7283100D01*
Y3589234D01*
X7282265D01*
Y3588398D01*
X7281429D01*
Y3586727D01*
X7280593D01*
Y3585055D01*
X7279758D01*
Y3583384D01*
X7278922D01*
Y3581713D01*
X7278086D01*
Y3580877D01*
X7277251D01*
Y3579206D01*
X7276415D01*
Y3577534D01*
X7275579D01*
Y3576698D01*
X7274743D01*
Y3575027D01*
X7273908D01*
Y3573356D01*
X7273072D01*
Y3571684D01*
X7272236D01*
Y3570849D01*
X7271401D01*
Y3569177D01*
X7270565D01*
Y3567506D01*
X7269729D01*
Y3566670D01*
X7268894D01*
Y3564999D01*
X7268058D01*
Y3563327D01*
X7267222D01*
Y3561656D01*
X7266387D01*
Y3560820D01*
X7265551D01*
Y3559149D01*
X7264715D01*
Y3557477D01*
X7263879D01*
Y3555806D01*
X7263044D01*
Y3554971D01*
X7262208D01*
Y3553299D01*
X7261372D01*
Y3551627D01*
X7260537D01*
Y3549956D01*
X7259701D01*
Y3549120D01*
X7258865D01*
Y3547449D01*
X7258029D01*
Y3545778D01*
X7257194D01*
Y3544106D01*
X7256358D01*
Y3543271D01*
X7255522D01*
Y3541599D01*
X7254687D01*
Y3539928D01*
X7253851D01*
Y3539092D01*
X7253015D01*
Y3537421D01*
X7252180D01*
Y3535749D01*
X7251344D01*
Y3534914D01*
X7250508D01*
Y3533242D01*
X7249673D01*
Y3531571D01*
X7248837D01*
Y3529899D01*
X7248001D01*
Y3528228D01*
X7247166D01*
Y3527392D01*
X7246330D01*
Y3525721D01*
X7245494D01*
Y3524050D01*
X7244658D01*
Y3523214D01*
X7243823D01*
Y3521542D01*
X7242987D01*
Y3519871D01*
X7242151D01*
Y3518200D01*
X7241315D01*
Y3517364D01*
X7240480D01*
Y3515692D01*
X7239644D01*
Y3514021D01*
X7238808D01*
Y3512350D01*
X7237973D01*
Y3511514D01*
X7237137D01*
Y3509843D01*
X7236302D01*
Y3508171D01*
X7235466D01*
Y3507336D01*
X7234630D01*
Y3505664D01*
X7233794D01*
Y3503993D01*
X7232958D01*
Y3502321D01*
X7232123D01*
Y3501486D01*
X7231287D01*
Y3499814D01*
X7230452D01*
Y3498143D01*
X7229616D01*
Y3497307D01*
X7228780D01*
Y3495636D01*
X8209889D01*
Y3497307D01*
X8209053D01*
Y3498143D01*
X8208218D01*
Y3499814D01*
X8207382D01*
Y3501486D01*
X8206546D01*
Y3502321D01*
X8205710D01*
Y3503993D01*
X8204875D01*
Y3505664D01*
X8204039D01*
Y3507336D01*
X8203203D01*
Y3508171D01*
X8202367D01*
Y3509843D01*
X8201532D01*
Y3511514D01*
X8200696D01*
Y3512350D01*
X8199860D01*
Y3514021D01*
X8199024D01*
Y3515692D01*
X8198189D01*
Y3517364D01*
X8197353D01*
Y3518200D01*
X8196518D01*
Y3519871D01*
X8195682D01*
Y3521542D01*
X8194846D01*
Y3523214D01*
X8194011D01*
Y3524050D01*
X8193175D01*
Y3525721D01*
X8192339D01*
Y3527392D01*
X8191504D01*
Y3528228D01*
X8190668D01*
Y3529899D01*
X8189832D01*
Y3531571D01*
X8188996D01*
Y3533242D01*
X8188161D01*
Y3534914D01*
X8187325D01*
Y3535749D01*
X8186489D01*
Y3537421D01*
X8185654D01*
Y3539092D01*
X8184818D01*
Y3539928D01*
X8183982D01*
Y3541599D01*
X8183146D01*
Y3543271D01*
X8182311D01*
Y3544106D01*
X8181475D01*
Y3545778D01*
X8180639D01*
Y3547449D01*
X8179804D01*
Y3549120D01*
X8178968D01*
Y3549956D01*
X8178132D01*
Y3551627D01*
X8177297D01*
Y3553299D01*
X8176461D01*
Y3554971D01*
X8175625D01*
Y3555806D01*
X8174789D01*
Y3557477D01*
X8173954D01*
Y3559149D01*
X8173118D01*
Y3560820D01*
X8172283D01*
Y3561656D01*
X8171447D01*
Y3563327D01*
X8170611D01*
Y3564999D01*
X8169775D01*
Y3566670D01*
X8168940D01*
Y3567506D01*
X8168104D01*
Y3569177D01*
X8167268D01*
Y3570849D01*
X8166432D01*
Y3571684D01*
X8165597D01*
Y3573356D01*
X8164761D01*
Y3575027D01*
X8163926D01*
Y3576698D01*
X8163090D01*
Y3577534D01*
X8162254D01*
Y3579206D01*
X8161418D01*
Y3580877D01*
X8160583D01*
Y3581713D01*
X8159747D01*
Y3583384D01*
X8158911D01*
Y3585055D01*
X8158075D01*
Y3586727D01*
X8157240D01*
Y3588398D01*
X8156404D01*
Y3589234D01*
X8155568D01*
Y3590905D01*
X8154733D01*
Y3592577D01*
X8153897D01*
Y3593412D01*
X8153061D01*
Y3595084D01*
X8152226D01*
Y3596755D01*
X8151390D01*
Y3598427D01*
X8150554D01*
Y3599262D01*
X8149719D01*
Y3600934D01*
X8148883D01*
Y3602605D01*
X8148047D01*
Y3604277D01*
X8147211D01*
Y3605112D01*
X8146376D01*
Y3606784D01*
X8145540D01*
Y3608455D01*
X8144705D01*
Y3609290D01*
X8143869D01*
Y3610962D01*
X8143033D01*
Y3612634D01*
X8142197D01*
Y3614305D01*
X8141361D01*
Y3615141D01*
X8140526D01*
Y3616812D01*
X8139690D01*
Y3618483D01*
X8138854D01*
Y3620155D01*
X8138019D01*
Y3620990D01*
X8137183D01*
Y3622662D01*
X8136347D01*
Y3624333D01*
X8135512D01*
Y3626004D01*
X8134676D01*
Y3626840D01*
X8133840D01*
Y3628512D01*
X8133005D01*
Y3630183D01*
X8132169D01*
Y3631019D01*
X8131333D01*
Y3632690D01*
X8130498D01*
Y3634362D01*
X8129662D01*
Y3636033D01*
X8128826D01*
Y3636869D01*
X8127991D01*
Y3638540D01*
X8127155D01*
Y3640211D01*
X8126319D01*
Y3641883D01*
X8125483D01*
Y3642719D01*
X8124648D01*
Y3644390D01*
X8123812D01*
Y3646061D01*
X8122976D01*
Y3647733D01*
X8122140D01*
Y3648569D01*
X8121305D01*
Y3650240D01*
X8120469D01*
Y3651911D01*
X8119633D01*
Y3652747D01*
X8118798D01*
Y3654418D01*
X8117962D01*
Y3656090D01*
X8117126D01*
Y3657761D01*
X8116291D01*
Y3658597D01*
X8115455D01*
Y3660268D01*
X8114619D01*
Y3661940D01*
X8113784D01*
Y3663611D01*
X8112948D01*
Y3664447D01*
X8112112D01*
Y3666118D01*
X8111276D01*
Y3667789D01*
X8110441D01*
Y3668625D01*
X8109605D01*
Y3670296D01*
X8108769D01*
Y3671968D01*
X8107934D01*
Y3673639D01*
X8107098D01*
Y3675311D01*
X8106262D01*
Y3676146D01*
X8105427D01*
Y3677818D01*
X8104591D01*
Y3679489D01*
X8103755D01*
Y3680325D01*
X8102920D01*
Y3681996D01*
X8102084D01*
Y3683668D01*
X8101248D01*
Y3685339D01*
X8100412D01*
Y3686175D01*
X8099577D01*
Y3687846D01*
X8098741D01*
Y3689518D01*
X8097905D01*
Y3690354D01*
X8097070D01*
Y3692025D01*
X8096234D01*
Y3693696D01*
X8095398D01*
Y3695368D01*
X8094562D01*
Y3696203D01*
X8093727D01*
Y3697874D01*
X8092891D01*
Y3699546D01*
X8092055D01*
Y3701217D01*
X8091220D01*
Y3702053D01*
X8090384D01*
Y3703724D01*
X8089548D01*
Y3705396D01*
X8088713D01*
Y3706232D01*
X8087877D01*
Y3707903D01*
X8087041D01*
Y3709574D01*
X8086206D01*
Y3711246D01*
X8085370D01*
Y3712917D01*
X8084534D01*
Y3713753D01*
X8083699D01*
Y3715424D01*
X8082863D01*
Y3717095D01*
X8082027D01*
Y3717931D01*
X8081191D01*
Y3719603D01*
X8080356D01*
Y3721274D01*
X8079520D01*
Y3722946D01*
X8078684D01*
Y3723781D01*
X8077849D01*
Y3725453D01*
X8077013D01*
Y3727124D01*
X8076177D01*
Y3728795D01*
X8075341D01*
Y3729631D01*
X8074506D01*
Y3731303D01*
X8073670D01*
Y3732974D01*
X8072835D01*
Y3733809D01*
X8071999D01*
Y3735481D01*
X8071163D01*
Y3737152D01*
X8070327D01*
Y3738824D01*
X8069492D01*
Y3739659D01*
X8068656D01*
Y3741331D01*
X8067820D01*
Y3743002D01*
X8066985D01*
Y3744673D01*
X8066149D01*
Y3745509D01*
X8065313D01*
Y3747181D01*
X8064477D01*
Y3748852D01*
X8063641D01*
Y3749688D01*
X8062806D01*
Y3751359D01*
X8061970D01*
Y3753031D01*
X8061135D01*
Y3753866D01*
X8060299D01*
Y3755538D01*
X8059463D01*
Y3757209D01*
X8058628D01*
Y3758880D01*
X8057792D01*
Y3760552D01*
X8056956D01*
Y3761387D01*
X8056121D01*
Y3763059D01*
X8055285D01*
Y3764730D01*
X8054449D01*
Y3766402D01*
X8053613D01*
Y3767238D01*
X8052778D01*
Y3768909D01*
X8051942D01*
Y3770580D01*
X8051106D01*
Y3771416D01*
X8050271D01*
Y3773087D01*
X8049435D01*
Y3774759D01*
X8048599D01*
Y3776430D01*
X8047763D01*
Y3777266D01*
X8046928D01*
Y3778937D01*
X8046092D01*
Y3780608D01*
X8045256D01*
Y3782280D01*
X8044421D01*
Y3783116D01*
X8043585D01*
Y3784787D01*
X8042749D01*
Y3786459D01*
X8041914D01*
Y3788130D01*
X8041078D01*
Y3788965D01*
X8040242D01*
Y3790637D01*
X8039406D01*
Y3792308D01*
X8038571D01*
Y3793144D01*
X8037735D01*
Y3794815D01*
X8036900D01*
Y3796487D01*
X8036064D01*
Y3798158D01*
X8035228D01*
Y3798994D01*
X8034392D01*
Y3800665D01*
X8033557D01*
Y3802337D01*
X8032721D01*
Y3804008D01*
X8031885D01*
Y3804844D01*
X8031049D01*
Y3806515D01*
X8030214D01*
Y3808187D01*
X8029378D01*
Y3809022D01*
X8028542D01*
Y3810694D01*
X8027707D01*
Y3812365D01*
X8026871D01*
Y3814037D01*
X8026036D01*
Y3814872D01*
X8025200D01*
Y3816544D01*
X8024364D01*
Y3818215D01*
X8023528D01*
Y3819886D01*
X8022692D01*
Y3820722D01*
X8021857D01*
Y3822393D01*
X8021021D01*
Y3824065D01*
X8020186D01*
Y3825736D01*
X8019350D01*
Y3826572D01*
X8018514D01*
Y3828243D01*
X8017678D01*
Y3829915D01*
X8016843D01*
Y3830751D01*
X8016007D01*
Y3832422D01*
X8015171D01*
Y3834093D01*
X8014336D01*
Y3835765D01*
X8013500D01*
Y3836600D01*
X8012664D01*
Y3838272D01*
X8011829D01*
Y3839943D01*
X8010993D01*
Y3841615D01*
X8010157D01*
Y3842450D01*
X8009322D01*
Y3844122D01*
X8008486D01*
Y3845793D01*
X8007650D01*
Y3846629D01*
X8006814D01*
Y3848300D01*
X8005979D01*
Y3849971D01*
X8005143D01*
Y3851643D01*
X8004307D01*
Y3852478D01*
X8003471D01*
Y3854150D01*
X8002636D01*
Y3855821D01*
X8001800D01*
Y3857493D01*
X8000965D01*
Y3858328D01*
X8000129D01*
Y3860000D01*
X7999293D01*
Y3861671D01*
X7998457D01*
Y3862507D01*
X7997622D01*
Y3864178D01*
X7996786D01*
Y3865850D01*
X7995950D01*
Y3867521D01*
X7995115D01*
Y3868357D01*
X7994279D01*
Y3870028D01*
X7993443D01*
Y3871700D01*
X7992608D01*
Y3873371D01*
X7991772D01*
Y3874207D01*
X7990936D01*
Y3875878D01*
X7990100D01*
Y3877550D01*
X7989265D01*
Y3879221D01*
X7988429D01*
Y3880057D01*
X7987593D01*
Y3881728D01*
X7986757D01*
Y3883399D01*
X7985922D01*
Y3885071D01*
X7985086D01*
Y3885907D01*
X7984250D01*
Y3887578D01*
X7983415D01*
Y3889249D01*
X7982579D01*
Y3890085D01*
X7981743D01*
Y3891756D01*
X7980908D01*
Y3893428D01*
X7980072D01*
Y3895099D01*
X7979236D01*
Y3895935D01*
X7978401D01*
Y3897606D01*
X7977565D01*
Y3899277D01*
X7976729D01*
Y3900949D01*
X7975893D01*
Y3901785D01*
X7975058D01*
Y3903456D01*
X7974222D01*
Y3905127D01*
X7973386D01*
Y3906799D01*
X7972551D01*
Y3907635D01*
X7971715D01*
Y3909306D01*
X7970879D01*
Y3910977D01*
X7970043D01*
Y3911813D01*
X7969208D01*
Y3913484D01*
X7968372D01*
Y3915156D01*
X7967537D01*
Y3916827D01*
X7966701D01*
Y3917663D01*
X7965865D01*
Y3919334D01*
X7965029D01*
Y3921006D01*
X7964194D01*
Y3922677D01*
X7963358D01*
Y3923513D01*
X7962522D01*
Y3925184D01*
X7961687D01*
Y3926856D01*
X7960851D01*
Y3927691D01*
X7960015D01*
Y3929363D01*
X7959180D01*
Y3931034D01*
X7958344D01*
Y3932705D01*
X7957508D01*
Y3933541D01*
X7956673D01*
Y3935213D01*
X7955837D01*
Y3936884D01*
X7955001D01*
Y3937720D01*
X7954165D01*
Y3939391D01*
X7953330D01*
Y3941062D01*
X7952494D01*
Y3942734D01*
X7951658D01*
Y3943570D01*
X7950823D01*
Y3945241D01*
X7949987D01*
Y3946912D01*
X7949151D01*
Y3948584D01*
X7948316D01*
Y3949420D01*
X7947480D01*
Y3951091D01*
X7946644D01*
Y3952762D01*
X7945808D01*
Y3954434D01*
X7944973D01*
Y3955269D01*
X7944137D01*
Y3956941D01*
X7943301D01*
Y3958612D01*
X7942466D01*
Y3960284D01*
X7941630D01*
Y3961119D01*
X7940794D01*
Y3962791D01*
X7939958D01*
Y3964462D01*
X7939123D01*
Y3966133D01*
X7938287D01*
Y3966969D01*
X7937451D01*
Y3968641D01*
X7936616D01*
Y3970312D01*
X7935780D01*
Y3971148D01*
X7934944D01*
Y3972819D01*
X7934109D01*
Y3974490D01*
X7933273D01*
Y3976162D01*
X7932437D01*
Y3976997D01*
X7931602D01*
Y3978669D01*
X7930766D01*
Y3980340D01*
X7929930D01*
Y3982012D01*
X7929094D01*
Y3982847D01*
X7928259D01*
Y3984519D01*
X7927423D01*
Y3986190D01*
X7926587D01*
Y3987026D01*
X7925752D01*
Y3988697D01*
X7924916D01*
Y3990369D01*
X7924080D01*
Y3992040D01*
X7923245D01*
Y3992876D01*
X7922409D01*
Y3994547D01*
X7921573D01*
Y3996219D01*
X7920738D01*
Y3997890D01*
X7919902D01*
Y3998726D01*
X7919066D01*
Y4000397D01*
X7918230D01*
Y4002068D01*
X7917395D01*
Y4002904D01*
X7916559D01*
Y4004575D01*
X7915723D01*
Y4006247D01*
X7914888D01*
Y4007918D01*
X7914052D01*
Y4009590D01*
X7913216D01*
Y4010425D01*
X7912380D01*
Y4012097D01*
X7911545D01*
Y4013768D01*
X7910709D01*
Y4014604D01*
X7909873D01*
Y4016275D01*
X7909038D01*
Y4017946D01*
X7908202D01*
Y4019618D01*
X7907366D01*
Y4020454D01*
X7906531D01*
Y4022125D01*
X7905695D01*
Y4023796D01*
X7904859D01*
Y4024632D01*
X7904024D01*
Y4026304D01*
X7903188D01*
Y4027975D01*
X7902352D01*
Y4029646D01*
X7901517D01*
Y4030482D01*
X7900681D01*
Y4032153D01*
X7899845D01*
Y4033825D01*
X7899009D01*
Y4035496D01*
X7898174D01*
Y4036332D01*
X7897338D01*
Y4038004D01*
X7896502D01*
Y4039675D01*
X7895666D01*
Y4041346D01*
X7894831D01*
Y4042182D01*
X7893995D01*
Y4043853D01*
X7893159D01*
Y4045525D01*
X7892324D01*
Y4046360D01*
X7891488D01*
Y4048032D01*
X7890652D01*
Y4049703D01*
X7889817D01*
Y4051374D01*
X7888981D01*
Y4052210D01*
X7888145D01*
Y4053882D01*
X7887309D01*
Y4055553D01*
X7886474D01*
Y4056389D01*
X7885638D01*
Y4058060D01*
X7884803D01*
Y4059731D01*
X7883967D01*
Y4061403D01*
X7883131D01*
Y4063074D01*
X7882295D01*
Y4063910D01*
X7881460D01*
Y4065581D01*
X7880624D01*
Y4067253D01*
X7879788D01*
Y4068088D01*
X7878952D01*
Y4069760D01*
X7878117D01*
Y4071431D01*
X7877281D01*
Y4073103D01*
X7876446D01*
Y4073939D01*
X7875610D01*
Y4075610D01*
X7874774D01*
Y4077281D01*
X7873939D01*
Y4078953D01*
X7873103D01*
Y4079788D01*
X7872267D01*
Y4081460D01*
X7871431D01*
Y4083131D01*
X7870596D01*
Y4083967D01*
X7869760D01*
Y4085638D01*
X7868924D01*
Y4087310D01*
X7868088D01*
Y4088981D01*
X7867253D01*
Y4089817D01*
X7866417D01*
Y4091488D01*
X7865582D01*
Y4093159D01*
X7864746D01*
Y4094831D01*
X7863910D01*
Y4095666D01*
X7863074D01*
Y4097338D01*
X7862239D01*
Y4099009D01*
X7861403D01*
Y4100681D01*
X7860567D01*
Y4101516D01*
X7859732D01*
Y4103188D01*
X7858896D01*
Y4104859D01*
X7858060D01*
Y4105695D01*
X7857225D01*
Y4107366D01*
X7856389D01*
Y4109038D01*
X7855553D01*
Y4109873D01*
X7854717D01*
Y4111545D01*
X7853882D01*
Y4113216D01*
X7853046D01*
Y4114888D01*
X7852210D01*
Y4116559D01*
X7851374D01*
Y4117395D01*
X7850539D01*
Y4119066D01*
X7849703D01*
Y4120738D01*
X7848868D01*
Y4122409D01*
X7848032D01*
Y4123244D01*
X7847196D01*
Y4124916D01*
X7846360D01*
Y4126587D01*
X7845525D01*
Y4128259D01*
X7844689D01*
Y4129094D01*
X7843853D01*
Y4130766D01*
X7843018D01*
Y4131602D01*
X7842182D01*
Y4133273D01*
X7841346D01*
Y4134944D01*
X7840511D01*
Y4136616D01*
X7839675D01*
Y4138287D01*
X7838839D01*
Y4139123D01*
X7838004D01*
Y4140794D01*
X7837168D01*
Y4142465D01*
X7836332D01*
Y4143301D01*
X7835496D01*
Y4144973D01*
X7834661D01*
Y4146644D01*
X7833825D01*
Y4148315D01*
X7832989D01*
Y4149151D01*
X7832153D01*
Y4150823D01*
X7831318D01*
Y4152494D01*
X7830482D01*
Y4154165D01*
X7829647D01*
Y4155001D01*
X7828811D01*
Y4156672D01*
X7827975D01*
Y4158344D01*
X7827139D01*
Y4160015D01*
X7826304D01*
Y4160851D01*
X7825468D01*
Y4162522D01*
X7824632D01*
Y4164194D01*
X7823797D01*
Y4165030D01*
X7822961D01*
Y4166701D01*
X7822125D01*
Y4168372D01*
X7821290D01*
Y4170043D01*
X7820454D01*
Y4170879D01*
X7819618D01*
Y4172551D01*
X7818782D01*
Y4174222D01*
X7817947D01*
Y4175893D01*
X7817111D01*
Y4176729D01*
X7816275D01*
Y4178401D01*
X7815440D01*
Y4180072D01*
X7814604D01*
Y4180908D01*
X7813768D01*
Y4182579D01*
X7812933D01*
Y4184250D01*
X7812097D01*
Y4185922D01*
X7811261D01*
Y4186757D01*
X7810425D01*
Y4188429D01*
X7809590D01*
Y4190100D01*
X7808754D01*
Y4191772D01*
X7807918D01*
Y4192608D01*
X7807083D01*
Y4194279D01*
X7806247D01*
Y4195950D01*
X7805411D01*
Y4197622D01*
X7804575D01*
Y4198457D01*
X7803740D01*
Y4200129D01*
X7802904D01*
Y4201800D01*
X7802068D01*
Y4203471D01*
X7801233D01*
Y4204307D01*
X7800397D01*
Y4205979D01*
X7799561D01*
Y4207650D01*
X7798726D01*
Y4208486D01*
X7797890D01*
Y4210157D01*
X7797055D01*
Y4211828D01*
X7796219D01*
Y4213500D01*
X7795383D01*
Y4214335D01*
X7794547D01*
Y4216007D01*
X7793711D01*
Y4217678D01*
X7792876D01*
Y4219350D01*
X7792040D01*
Y4220185D01*
X7791204D01*
Y4221857D01*
X7790369D01*
Y4223528D01*
X7789533D01*
Y4224364D01*
X7788697D01*
Y4226035D01*
X7787862D01*
Y4227707D01*
X7787026D01*
Y4229378D01*
X7786190D01*
Y4230214D01*
X7785355D01*
Y4231885D01*
X7784519D01*
Y4233557D01*
X7783683D01*
Y4235228D01*
X7782848D01*
Y4236063D01*
X7782012D01*
Y4237735D01*
X7781176D01*
Y4239406D01*
X7780341D01*
Y4241078D01*
X7779505D01*
Y4241914D01*
X7778669D01*
Y4243585D01*
X7777833D01*
Y4245256D01*
X7776998D01*
Y4246092D01*
X7776162D01*
Y4247763D01*
X7775326D01*
Y4249435D01*
X7774490D01*
Y4251106D01*
X7773655D01*
Y4251942D01*
X7772819D01*
Y4253613D01*
X7771983D01*
Y4255285D01*
X7771148D01*
Y4256956D01*
X7770312D01*
Y4257792D01*
X7769476D01*
Y4259463D01*
X7768641D01*
Y4261135D01*
X7767805D01*
Y4262806D01*
X7766969D01*
Y4263641D01*
X7766134D01*
Y4265313D01*
X7765298D01*
Y4266985D01*
X7764462D01*
Y4267820D01*
X7763626D01*
Y4269492D01*
X7762791D01*
Y4271163D01*
X7761955D01*
Y4272834D01*
X7761119D01*
Y4273670D01*
X7760283D01*
Y4275341D01*
X7759448D01*
Y4277013D01*
X7758612D01*
Y4278684D01*
X7757776D01*
Y4279520D01*
X7756941D01*
Y4281191D01*
X7756105D01*
Y4282863D01*
X7755269D01*
Y4283698D01*
X7754434D01*
Y4285370D01*
X7753598D01*
Y4287041D01*
X7752762D01*
Y4288713D01*
X7751927D01*
Y4289548D01*
X7751091D01*
Y4291220D01*
X7750255D01*
Y4292891D01*
X7749420D01*
Y4294562D01*
X7748584D01*
Y4295398D01*
X7747748D01*
Y4297070D01*
X7746912D01*
Y4298741D01*
X7746077D01*
Y4300412D01*
X7745241D01*
Y4301248D01*
X7744405D01*
Y4302920D01*
X7743570D01*
Y4304591D01*
X7742734D01*
Y4305426D01*
X7741898D01*
Y4307098D01*
X7741062D01*
Y4308769D01*
X7740227D01*
Y4310441D01*
X7739391D01*
Y4311276D01*
X7738556D01*
Y4312948D01*
X7737720D01*
Y4314619D01*
X7736884D01*
Y4316291D01*
X7736048D01*
Y4317126D01*
X7735213D01*
Y4318798D01*
X7734377D01*
Y4320469D01*
X7733541D01*
Y4321305D01*
X7732706D01*
Y4322976D01*
X7731870D01*
Y4324648D01*
X7731034D01*
Y4325483D01*
X7730199D01*
Y4327155D01*
X7729363D01*
Y4328826D01*
X7728527D01*
Y4330497D01*
X7727691D01*
Y4332169D01*
X7726856D01*
Y4333005D01*
X7726020D01*
Y4334676D01*
X7725184D01*
Y4336347D01*
X7724349D01*
Y4337183D01*
X7723513D01*
Y4338854D01*
X7722677D01*
Y4340526D01*
X7721842D01*
Y4342197D01*
X7721006D01*
Y4343033D01*
X7720170D01*
Y4344705D01*
D02*
G37*
%LPD*%
G36*
X7668357Y4109873D02*
X7669193D01*
Y4109038D01*
X7670028D01*
Y4108202D01*
X7670864D01*
Y4107366D01*
X7767805D01*
Y4104859D01*
X7766969D01*
Y4103188D01*
X7766134D01*
Y4101516D01*
X7765298D01*
Y4099009D01*
X7764462D01*
Y4097338D01*
X7763626D01*
Y4095666D01*
X7762791D01*
Y4093995D01*
X7761955D01*
Y4091488D01*
X7761119D01*
Y4089817D01*
X7760283D01*
Y4088145D01*
X7759448D01*
Y4085638D01*
X7758612D01*
Y4083967D01*
X7757776D01*
Y4082295D01*
X7756941D01*
Y4080624D01*
X7756105D01*
Y4078117D01*
X7755269D01*
Y4076445D01*
X7754434D01*
Y4074774D01*
X7753598D01*
Y4073103D01*
X7752762D01*
Y4070596D01*
X7751927D01*
Y4068924D01*
X7751091D01*
Y4067253D01*
X7750255D01*
Y4065581D01*
X7749420D01*
Y4063074D01*
X7748584D01*
Y4061403D01*
X7747748D01*
Y4059731D01*
X7746912D01*
Y4058060D01*
X7746077D01*
Y4056389D01*
X7745241D01*
Y4053882D01*
X7744405D01*
Y4052210D01*
X7743570D01*
Y4049703D01*
X7742734D01*
Y4048032D01*
X7741898D01*
Y4046360D01*
X7741062D01*
Y4044689D01*
X7740227D01*
Y4042182D01*
X7739391D01*
Y4040510D01*
X7738556D01*
Y4038839D01*
X7737720D01*
Y4037168D01*
X7736884D01*
Y4034660D01*
X7736048D01*
Y4032989D01*
X7735213D01*
Y4031318D01*
X7734377D01*
Y4029646D01*
X7733541D01*
Y4027139D01*
X7732706D01*
Y4025468D01*
X7731870D01*
Y4023796D01*
X7731034D01*
Y4021290D01*
X7730199D01*
Y4019618D01*
X7729363D01*
Y4017946D01*
X7728527D01*
Y4016275D01*
X7727691D01*
Y4013768D01*
X7726856D01*
Y4012097D01*
X7726020D01*
Y4010425D01*
X7725184D01*
Y4007918D01*
X7724349D01*
Y4006247D01*
X7723513D01*
Y4004575D01*
X7722677D01*
Y4002904D01*
X7721842D01*
Y4001233D01*
X7721006D01*
Y3998726D01*
X7720170D01*
Y3997054D01*
X7719335D01*
Y3995383D01*
X7718499D01*
Y3992876D01*
X7717663D01*
Y3991204D01*
X7716827D01*
Y3989533D01*
X7715991D01*
Y3987861D01*
X7715156D01*
Y3985354D01*
X7714320D01*
Y3983683D01*
X7713485D01*
Y3982012D01*
X7712649D01*
Y3980340D01*
X7711813D01*
Y3977833D01*
X7710977D01*
Y3976162D01*
X7710142D01*
Y3974490D01*
X7709306D01*
Y3971983D01*
X7708470D01*
Y3970312D01*
X7707635D01*
Y3968641D01*
X7706799D01*
Y3966969D01*
X7705963D01*
Y3964462D01*
X7705128D01*
Y3962791D01*
X7704292D01*
Y3961119D01*
X7703456D01*
Y3959448D01*
X7702621D01*
Y3956941D01*
X7701785D01*
Y3955269D01*
X7700949D01*
Y3953598D01*
X7700113D01*
Y3951927D01*
X7699278D01*
Y3949420D01*
X7698442D01*
Y3947748D01*
X7697606D01*
Y3946077D01*
X7696770D01*
Y3944405D01*
X7695935D01*
Y3941898D01*
X7695099D01*
Y3940227D01*
X7694264D01*
Y3938555D01*
X7693428D01*
Y3936048D01*
X7692592D01*
Y3934377D01*
X7691756D01*
Y3932705D01*
X7690921D01*
Y3931034D01*
X7690085D01*
Y3928527D01*
X7689250D01*
Y3926856D01*
X7688414D01*
Y3925184D01*
X7687578D01*
Y3923513D01*
X7686742D01*
Y3921006D01*
X7685907D01*
Y3919334D01*
X7685071D01*
Y3917663D01*
X7684235D01*
Y3915991D01*
X7683399D01*
Y3913484D01*
X7682564D01*
Y3911813D01*
X7681728D01*
Y3909306D01*
X7680892D01*
Y3907635D01*
X7680057D01*
Y3905963D01*
X7679221D01*
Y3904292D01*
X7678385D01*
Y3902621D01*
X7677550D01*
Y3900113D01*
X7676714D01*
Y3898442D01*
X7675878D01*
Y3896770D01*
X7675042D01*
Y3895099D01*
X7674207D01*
Y3892592D01*
X7673371D01*
Y3890921D01*
X7672535D01*
Y3889249D01*
X7671700D01*
Y3886742D01*
X7670864D01*
Y3885071D01*
X7670028D01*
Y3883399D01*
X7669193D01*
Y3881728D01*
X7668357D01*
Y3879221D01*
X7667521D01*
Y3877550D01*
X7666685D01*
Y3875878D01*
X7665850D01*
Y3874207D01*
X7665014D01*
Y3871700D01*
X7664178D01*
Y3870028D01*
X7663343D01*
Y3868357D01*
X7662507D01*
Y3865850D01*
X7661671D01*
Y3864178D01*
X7660836D01*
Y3862507D01*
X7660000D01*
Y3860836D01*
X7661671D01*
Y3861671D01*
X7663343D01*
Y3862507D01*
X7665014D01*
Y3863343D01*
X7665850D01*
Y3864178D01*
X7667521D01*
Y3865014D01*
X7669193D01*
Y3865850D01*
X7670864D01*
Y3866685D01*
X7672535D01*
Y3867521D01*
X7674207D01*
Y3868357D01*
X7675878D01*
Y3869192D01*
X7676714D01*
Y3870028D01*
X7678385D01*
Y3870864D01*
X7680057D01*
Y3871700D01*
X7681728D01*
Y3872535D01*
X7683399D01*
Y3873371D01*
X7684235D01*
Y3874207D01*
X7685907D01*
Y3875042D01*
X7687578D01*
Y3875878D01*
X7689250D01*
Y3876714D01*
X7690921D01*
Y3877550D01*
X7692592D01*
Y3878385D01*
X7693428D01*
Y3879221D01*
X7695099D01*
Y3880057D01*
X7696770D01*
Y3880892D01*
X7698442D01*
Y3881728D01*
X7700113D01*
Y3882564D01*
X7700949D01*
Y3883399D01*
X7702621D01*
Y3884235D01*
X7704292D01*
Y3885071D01*
X7705963D01*
Y3885907D01*
X7707635D01*
Y3886742D01*
X7709306D01*
Y3887578D01*
X7710142D01*
Y3888413D01*
X7711813D01*
Y3889249D01*
X7713485D01*
Y3890085D01*
X7715156D01*
Y3890921D01*
X7716827D01*
Y3891756D01*
X7717663D01*
Y3892592D01*
X7719335D01*
Y3893428D01*
X7721006D01*
Y3894263D01*
X7722677D01*
Y3895099D01*
X7724349D01*
Y3895935D01*
X7726020D01*
Y3896770D01*
X7726856D01*
Y3897606D01*
X7728527D01*
Y3898442D01*
X7730199D01*
Y3899277D01*
X7731870D01*
Y3900113D01*
X7732706D01*
Y3900949D01*
X7734377D01*
Y3901785D01*
X7736048D01*
Y3902621D01*
X7737720D01*
Y3903456D01*
X7739391D01*
Y3904292D01*
X7741062D01*
Y3905127D01*
X7741898D01*
Y3905963D01*
X7743570D01*
Y3906799D01*
X7745241D01*
Y3907635D01*
X7746912D01*
Y3908470D01*
X7748584D01*
Y3909306D01*
X7750255D01*
Y3910142D01*
X7751091D01*
Y3910977D01*
X7752762D01*
Y3911813D01*
X7754434D01*
Y3912649D01*
X7756105D01*
Y3913484D01*
X7757776D01*
Y3914320D01*
X7759448D01*
Y3915156D01*
X7760283D01*
Y3915991D01*
X7761955D01*
Y3916827D01*
X7763626D01*
Y3917663D01*
X7765298D01*
Y3918499D01*
X7766969D01*
Y3919334D01*
X7767805D01*
Y3920170D01*
X7769476D01*
Y3921006D01*
X7771148D01*
Y3921842D01*
X7772819D01*
Y3922677D01*
X7774490D01*
Y3923513D01*
X7775326D01*
Y3924349D01*
X7776998D01*
Y3925184D01*
X7778669D01*
Y3926020D01*
X7780341D01*
Y3926856D01*
X7782012D01*
Y3927691D01*
X7782848D01*
Y3928527D01*
X7784519D01*
Y3929363D01*
X7786190D01*
Y3930198D01*
X7787862D01*
Y3931034D01*
X7789533D01*
Y3931870D01*
X7791204D01*
Y3932705D01*
X7792040D01*
Y3933541D01*
X7793711D01*
Y3934377D01*
X7795383D01*
Y3935213D01*
X7797055D01*
Y3936048D01*
X7798726D01*
Y3936884D01*
X7799561D01*
Y3937720D01*
X7801233D01*
Y3938555D01*
X7802904D01*
Y3939391D01*
X7804575D01*
Y3940227D01*
X7806247D01*
Y3941062D01*
X7807918D01*
Y3941898D01*
X7809590D01*
Y3941062D01*
X7808754D01*
Y3937720D01*
X7807918D01*
Y3934377D01*
X7807083D01*
Y3931870D01*
X7806247D01*
Y3928527D01*
X7805411D01*
Y3925184D01*
X7804575D01*
Y3922677D01*
X7803740D01*
Y3919334D01*
X7802904D01*
Y3915991D01*
X7802068D01*
Y3913484D01*
X7801233D01*
Y3910142D01*
X7800397D01*
Y3906799D01*
X7799561D01*
Y3904292D01*
X7798726D01*
Y3900949D01*
X7797890D01*
Y3897606D01*
X7797055D01*
Y3894263D01*
X7796219D01*
Y3891756D01*
X7795383D01*
Y3888413D01*
X7794547D01*
Y3885071D01*
X7793711D01*
Y3882564D01*
X7792876D01*
Y3879221D01*
X7792040D01*
Y3875878D01*
X7791204D01*
Y3873371D01*
X7790369D01*
Y3870028D01*
X7789533D01*
Y3867521D01*
X7788697D01*
Y3864178D01*
X7787862D01*
Y3860836D01*
X7787026D01*
Y3857493D01*
X7786190D01*
Y3854986D01*
X7785355D01*
Y3851643D01*
X7784519D01*
Y3848300D01*
X7783683D01*
Y3845793D01*
X7782848D01*
Y3842450D01*
X7782012D01*
Y3839107D01*
X7781176D01*
Y3835765D01*
X7780341D01*
Y3833258D01*
X7779505D01*
Y3829915D01*
X7778669D01*
Y3827408D01*
X7777833D01*
Y3824065D01*
X7776998D01*
Y3820722D01*
X7776162D01*
Y3817379D01*
X7775326D01*
Y3814872D01*
X7774490D01*
Y3811529D01*
X7773655D01*
Y3809022D01*
X7772819D01*
Y3805679D01*
X7771983D01*
Y3802337D01*
X7771148D01*
Y3799830D01*
X7770312D01*
Y3795651D01*
X7769476D01*
Y3793144D01*
X7768641D01*
Y3790637D01*
X7767805D01*
Y3787294D01*
X7766969D01*
Y3783952D01*
X7766134D01*
Y3780608D01*
X7765298D01*
Y3778102D01*
X7764462D01*
Y3774759D01*
X7763626D01*
Y3771416D01*
X7762791D01*
Y3768909D01*
X7761955D01*
Y3765566D01*
X7761119D01*
Y3762223D01*
X7760283D01*
Y3759716D01*
X7759448D01*
Y3756373D01*
X7758612D01*
Y3753031D01*
X7757776D01*
Y3750524D01*
X7756941D01*
Y3747181D01*
X7756105D01*
Y3743838D01*
X7755269D01*
Y3740495D01*
X7754434D01*
Y3737988D01*
X7753598D01*
Y3734645D01*
X7752762D01*
Y3731303D01*
X7751927D01*
Y3728795D01*
X7751091D01*
Y3725453D01*
X7750255D01*
Y3722110D01*
X7749420D01*
Y3719603D01*
X7748584D01*
Y3716260D01*
X7747748D01*
Y3712917D01*
X7746912D01*
Y3710410D01*
X7746077D01*
Y3707067D01*
X7745241D01*
Y3703724D01*
X7744405D01*
Y3701217D01*
X7743570D01*
Y3697874D01*
X7742734D01*
Y3694532D01*
X7741898D01*
Y3692025D01*
X7741062D01*
Y3688682D01*
X7740227D01*
Y3685339D01*
X7739391D01*
Y3681996D01*
X7738556D01*
Y3679489D01*
X7737720D01*
Y3676146D01*
X7736884D01*
Y3673639D01*
X7736048D01*
Y3670296D01*
X7735213D01*
Y3666954D01*
X7734377D01*
Y3663611D01*
X7733541D01*
Y3661104D01*
X7732706D01*
Y3657761D01*
X7731870D01*
Y3655254D01*
X7731034D01*
Y3651911D01*
X7730199D01*
Y3648569D01*
X7729363D01*
Y3645226D01*
X7728527D01*
Y3641883D01*
X7727691D01*
Y3639376D01*
X7726856D01*
Y3636869D01*
X7726020D01*
Y3633526D01*
X7725184D01*
Y3630183D01*
X7724349D01*
Y3629347D01*
X7726020D01*
Y3630183D01*
X7726856D01*
Y3631019D01*
X7728527D01*
Y3631855D01*
X7729363D01*
Y3632690D01*
X7731034D01*
Y3633526D01*
X7732706D01*
Y3634362D01*
X7733541D01*
Y3635197D01*
X7735213D01*
Y3636033D01*
X7736048D01*
Y3636869D01*
X7737720D01*
Y3637704D01*
X7739391D01*
Y3638540D01*
X7740227D01*
Y3639376D01*
X7741898D01*
Y3640211D01*
X7742734D01*
Y3641047D01*
X7744405D01*
Y3641883D01*
X7746077D01*
Y3642719D01*
X7746912D01*
Y3643554D01*
X7748584D01*
Y3644390D01*
X7749420D01*
Y3645226D01*
X7751091D01*
Y3646061D01*
X7752762D01*
Y3646897D01*
X7753598D01*
Y3647733D01*
X7755269D01*
Y3648569D01*
X7756941D01*
Y3647733D01*
X7757776D01*
Y3646897D01*
X7758612D01*
Y3646061D01*
X7759448D01*
Y3645226D01*
X7760283D01*
Y3644390D01*
X7761119D01*
Y3643554D01*
X7761955D01*
Y3641883D01*
X7761119D01*
Y3640211D01*
X7760283D01*
Y3639376D01*
X7759448D01*
Y3637704D01*
X7758612D01*
Y3636869D01*
X7757776D01*
Y3636033D01*
X7756941D01*
Y3634362D01*
X7756105D01*
Y3633526D01*
X7755269D01*
Y3631855D01*
X7754434D01*
Y3631019D01*
X7753598D01*
Y3629347D01*
X7752762D01*
Y3628512D01*
X7751927D01*
Y3626840D01*
X7751091D01*
Y3626004D01*
X7750255D01*
Y3625169D01*
X7749420D01*
Y3623497D01*
X7748584D01*
Y3622662D01*
X7747748D01*
Y3620990D01*
X7746912D01*
Y3620155D01*
X7746077D01*
Y3618483D01*
X7745241D01*
Y3617648D01*
X7744405D01*
Y3616812D01*
X7743570D01*
Y3615141D01*
X7742734D01*
Y3614305D01*
X7741898D01*
Y3612634D01*
X7741062D01*
Y3611798D01*
X7740227D01*
Y3610126D01*
X7739391D01*
Y3609290D01*
X7738556D01*
Y3608455D01*
X7737720D01*
Y3606784D01*
X7736884D01*
Y3605948D01*
X7736048D01*
Y3604277D01*
X7735213D01*
Y3603441D01*
X7734377D01*
Y3601769D01*
X7733541D01*
Y3600934D01*
X7732706D01*
Y3599262D01*
X7731870D01*
Y3598427D01*
X7731034D01*
Y3596755D01*
X7730199D01*
Y3595920D01*
X7729363D01*
Y3595084D01*
X7728527D01*
Y3593412D01*
X7727691D01*
Y3592577D01*
X7726856D01*
Y3590905D01*
X7726020D01*
Y3590070D01*
X7725184D01*
Y3588398D01*
X7724349D01*
Y3587563D01*
X7723513D01*
Y3586727D01*
X7722677D01*
Y3585055D01*
X7721842D01*
Y3584220D01*
X7721006D01*
Y3582548D01*
X7720170D01*
Y3581713D01*
X7719335D01*
Y3580041D01*
X7718499D01*
Y3579206D01*
X7717663D01*
Y3577534D01*
X7716827D01*
Y3576698D01*
X7715991D01*
Y3575027D01*
X7715156D01*
Y3574191D01*
X7714320D01*
Y3572520D01*
X7713485D01*
Y3571684D01*
X7712649D01*
Y3570849D01*
X7711813D01*
Y3569177D01*
X7710977D01*
Y3568341D01*
X7710142D01*
Y3566670D01*
X7709306D01*
Y3565834D01*
X7708470D01*
Y3564163D01*
X7707635D01*
Y3563327D01*
X7706799D01*
Y3562491D01*
X7705963D01*
Y3560820D01*
X7705128D01*
Y3559984D01*
X7704292D01*
Y3558313D01*
X7703456D01*
Y3557477D01*
X7702621D01*
Y3555806D01*
X7701785D01*
Y3554971D01*
X7700949D01*
Y3553299D01*
X7700113D01*
Y3552463D01*
X7699278D01*
Y3550792D01*
X7698442D01*
Y3549956D01*
X7697606D01*
Y3549120D01*
X7696770D01*
Y3547449D01*
X7695935D01*
Y3546613D01*
X7695099D01*
Y3544942D01*
X7694264D01*
Y3544106D01*
X7693428D01*
Y3542435D01*
X7692592D01*
Y3541599D01*
X7691756D01*
Y3539928D01*
X7690921D01*
Y3539092D01*
X7690085D01*
Y3538257D01*
X7689250D01*
Y3536585D01*
X7688414D01*
Y3535749D01*
X7687578D01*
Y3534078D01*
X7686742D01*
Y3533242D01*
X7685907D01*
Y3531571D01*
X7685071D01*
Y3530735D01*
X7684235D01*
Y3529899D01*
X7683399D01*
Y3528228D01*
X7682564D01*
Y3527392D01*
X7681728D01*
Y3525721D01*
X7680892D01*
Y3524885D01*
X7680057D01*
Y3523214D01*
X7679221D01*
Y3522378D01*
X7678385D01*
Y3521542D01*
X7677550D01*
Y3519871D01*
X7676714D01*
Y3519035D01*
X7675878D01*
Y3517364D01*
X7674207D01*
Y3521542D01*
X7673371D01*
Y3527392D01*
X7672535D01*
Y3532406D01*
X7671700D01*
Y3537421D01*
X7670864D01*
Y3542435D01*
X7670028D01*
Y3548285D01*
X7669193D01*
Y3553299D01*
X7668357D01*
Y3558313D01*
X7667521D01*
Y3563327D01*
X7666685D01*
Y3568341D01*
X7665850D01*
Y3574191D01*
X7665014D01*
Y3579206D01*
X7664178D01*
Y3584220D01*
X7663343D01*
Y3589234D01*
X7662507D01*
Y3595084D01*
X7661671D01*
Y3600098D01*
X7660836D01*
Y3605112D01*
X7660000D01*
Y3610126D01*
X7659164D01*
Y3615976D01*
X7658328D01*
Y3620990D01*
X7657493D01*
Y3626004D01*
X7656657D01*
Y3631855D01*
X7655821D01*
Y3636869D01*
X7654986D01*
Y3641883D01*
X7654150D01*
Y3646897D01*
X7653314D01*
Y3651911D01*
X7652479D01*
Y3657761D01*
X7651643D01*
Y3662775D01*
X7650807D01*
Y3666954D01*
X7653314D01*
Y3667789D01*
X7654986D01*
Y3668625D01*
X7657493D01*
Y3669461D01*
X7658328D01*
Y3668625D01*
X7659164D01*
Y3667789D01*
X7660000D01*
Y3666118D01*
X7660836D01*
Y3665282D01*
X7661671D01*
Y3664447D01*
X7662507D01*
Y3662775D01*
X7663343D01*
Y3661940D01*
X7664178D01*
Y3660268D01*
X7665014D01*
Y3659433D01*
X7665850D01*
Y3657761D01*
X7666685D01*
Y3656925D01*
X7667521D01*
Y3655254D01*
X7668357D01*
Y3654418D01*
X7669193D01*
Y3652747D01*
X7670028D01*
Y3651911D01*
X7670864D01*
Y3651076D01*
X7671700D01*
Y3649404D01*
X7672535D01*
Y3648569D01*
X7673371D01*
Y3646897D01*
X7674207D01*
Y3646061D01*
X7675042D01*
Y3644390D01*
X7675878D01*
Y3643554D01*
X7676714D01*
Y3641883D01*
X7677550D01*
Y3641047D01*
X7678385D01*
Y3639376D01*
X7679221D01*
Y3638540D01*
X7680057D01*
Y3637704D01*
X7681728D01*
Y3643554D01*
X7682564D01*
Y3649404D01*
X7683399D01*
Y3656090D01*
X7684235D01*
Y3661940D01*
X7685071D01*
Y3668625D01*
X7685907D01*
Y3675311D01*
X7686742D01*
Y3680325D01*
X7687578D01*
Y3686175D01*
X7688414D01*
Y3692860D01*
X7689250D01*
Y3698710D01*
X7690085D01*
Y3704560D01*
X7690921D01*
Y3711246D01*
X7691756D01*
Y3717095D01*
X7692592D01*
Y3723781D01*
X7693428D01*
Y3728795D01*
X7694264D01*
Y3735481D01*
X7695099D01*
Y3742167D01*
X7695935D01*
Y3748852D01*
X7696770D01*
Y3753866D01*
X7697606D01*
Y3759716D01*
X7698442D01*
Y3766402D01*
X7699278D01*
Y3772252D01*
X7700113D01*
Y3778937D01*
X7700949D01*
Y3784787D01*
X7701785D01*
Y3790637D01*
X7702621D01*
Y3795651D01*
X7703456D01*
Y3802337D01*
X7704292D01*
Y3809022D01*
X7705128D01*
Y3815708D01*
X7705963D01*
Y3821558D01*
X7706799D01*
Y3827408D01*
X7707635D01*
Y3833258D01*
X7708470D01*
Y3838272D01*
X7706799D01*
Y3837436D01*
X7705963D01*
Y3836600D01*
X7703456D01*
Y3835765D01*
X7702621D01*
Y3834929D01*
X7700949D01*
Y3834093D01*
X7699278D01*
Y3833258D01*
X7697606D01*
Y3832422D01*
X7695935D01*
Y3831586D01*
X7694264D01*
Y3830751D01*
X7692592D01*
Y3829915D01*
X7690921D01*
Y3829079D01*
X7689250D01*
Y3828243D01*
X7687578D01*
Y3827408D01*
X7685907D01*
Y3826572D01*
X7684235D01*
Y3825736D01*
X7682564D01*
Y3824901D01*
X7680892D01*
Y3824065D01*
X7679221D01*
Y3823229D01*
X7677550D01*
Y3822393D01*
X7675878D01*
Y3821558D01*
X7674207D01*
Y3820722D01*
X7672535D01*
Y3819886D01*
X7671700D01*
Y3819051D01*
X7670028D01*
Y3818215D01*
X7668357D01*
Y3817379D01*
X7666685D01*
Y3816544D01*
X7665014D01*
Y3815708D01*
X7663343D01*
Y3814872D01*
X7661671D01*
Y3814037D01*
X7660000D01*
Y3813201D01*
X7658328D01*
Y3812365D01*
X7656657D01*
Y3811529D01*
X7655821D01*
Y3810694D01*
X7653314D01*
Y3809858D01*
X7651643D01*
Y3809022D01*
X7649971D01*
Y3808187D01*
X7649136D01*
Y3807351D01*
X7647465D01*
Y3806515D01*
X7645793D01*
Y3805679D01*
X7644122D01*
Y3804844D01*
X7642450D01*
Y3804008D01*
X7640779D01*
Y3803172D01*
X7639107D01*
Y3802337D01*
X7637436D01*
Y3801501D01*
X7635765D01*
Y3800665D01*
X7634093D01*
Y3799830D01*
X7632422D01*
Y3798994D01*
X7630751D01*
Y3798158D01*
X7629079D01*
Y3797322D01*
X7628243D01*
Y3796487D01*
X7625736D01*
Y3795651D01*
X7624065D01*
Y3794815D01*
X7622393D01*
Y3793980D01*
X7621558D01*
Y3793144D01*
X7619886D01*
Y3792308D01*
X7618215D01*
Y3791473D01*
X7616544D01*
Y3790637D01*
X7614872D01*
Y3789801D01*
X7613201D01*
Y3788965D01*
X7611530D01*
Y3788130D01*
X7609858D01*
Y3787294D01*
X7608187D01*
Y3786459D01*
X7606515D01*
Y3785623D01*
X7604844D01*
Y3784787D01*
X7603172D01*
Y3783952D01*
X7601501D01*
Y3783116D01*
X7600666D01*
Y3782280D01*
X7598158D01*
Y3781444D01*
X7596487D01*
Y3780608D01*
X7595651D01*
Y3779773D01*
X7593980D01*
Y3778937D01*
X7592308D01*
Y3778102D01*
X7590637D01*
Y3777266D01*
X7588966D01*
Y3776430D01*
X7587294D01*
Y3775594D01*
X7585623D01*
Y3774759D01*
X7583952D01*
Y3773923D01*
X7582280D01*
Y3773087D01*
X7580608D01*
Y3772252D01*
X7578937D01*
Y3771416D01*
X7577266D01*
Y3770580D01*
X7575594D01*
Y3769745D01*
X7573923D01*
Y3768909D01*
X7572252D01*
Y3768073D01*
X7570580D01*
Y3767238D01*
X7568909D01*
Y3766402D01*
X7568073D01*
Y3765566D01*
X7565566D01*
Y3766402D01*
X7566402D01*
Y3768909D01*
X7567238D01*
Y3772252D01*
X7568073D01*
Y3775594D01*
X7568909D01*
Y3778102D01*
X7569745D01*
Y3780608D01*
X7570580D01*
Y3783952D01*
X7571416D01*
Y3786459D01*
X7572252D01*
Y3788965D01*
X7573087D01*
Y3792308D01*
X7573923D01*
Y3794815D01*
X7574759D01*
Y3798158D01*
X7575594D01*
Y3800665D01*
X7576430D01*
Y3803172D01*
X7577266D01*
Y3806515D01*
X7578102D01*
Y3809022D01*
X7578937D01*
Y3811529D01*
X7579773D01*
Y3814872D01*
X7580608D01*
Y3817379D01*
X7581444D01*
Y3820722D01*
X7582280D01*
Y3823229D01*
X7583116D01*
Y3826572D01*
X7583952D01*
Y3829079D01*
X7584787D01*
Y3831586D01*
X7585623D01*
Y3834929D01*
X7586459D01*
Y3837436D01*
X7587294D01*
Y3840779D01*
X7588130D01*
Y3843286D01*
X7588966D01*
Y3845793D01*
X7589801D01*
Y3849136D01*
X7590637D01*
Y3851643D01*
X7591473D01*
Y3854986D01*
X7592308D01*
Y3857493D01*
X7593144D01*
Y3860000D01*
X7593980D01*
Y3863343D01*
X7594816D01*
Y3865850D01*
X7595651D01*
Y3869192D01*
X7596487D01*
Y3871700D01*
X7597323D01*
Y3874207D01*
X7598158D01*
Y3877550D01*
X7598994D01*
Y3880057D01*
X7599830D01*
Y3882564D01*
X7600666D01*
Y3885907D01*
X7601501D01*
Y3889249D01*
X7602337D01*
Y3891756D01*
X7603172D01*
Y3894263D01*
X7604008D01*
Y3897606D01*
X7604844D01*
Y3900113D01*
X7605680D01*
Y3902621D01*
X7606515D01*
Y3905963D01*
X7607351D01*
Y3909306D01*
X7608187D01*
Y3911813D01*
X7609022D01*
Y3914320D01*
X7609858D01*
Y3917663D01*
X7610694D01*
Y3920170D01*
X7611530D01*
Y3922677D01*
X7612365D01*
Y3926020D01*
X7613201D01*
Y3928527D01*
X7614037D01*
Y3931034D01*
X7614872D01*
Y3934377D01*
X7615708D01*
Y3936884D01*
X7616544D01*
Y3940227D01*
X7617379D01*
Y3942734D01*
X7618215D01*
Y3945241D01*
X7619051D01*
Y3948584D01*
X7619886D01*
Y3951091D01*
X7620722D01*
Y3954434D01*
X7621558D01*
Y3956941D01*
X7622393D01*
Y3959448D01*
X7623229D01*
Y3962791D01*
X7624065D01*
Y3965298D01*
X7624901D01*
Y3968641D01*
X7625736D01*
Y3971148D01*
X7626572D01*
Y3974490D01*
X7627408D01*
Y3976997D01*
X7628243D01*
Y3979505D01*
X7629079D01*
Y3982847D01*
X7629915D01*
Y3985354D01*
X7630751D01*
Y3987861D01*
X7631586D01*
Y3991204D01*
X7632422D01*
Y3993711D01*
X7633258D01*
Y3997054D01*
X7634093D01*
Y3999561D01*
X7634929D01*
Y4002904D01*
X7635765D01*
Y4005411D01*
X7636600D01*
Y4007918D01*
X7637436D01*
Y4011261D01*
X7638272D01*
Y4013768D01*
X7639107D01*
Y4017111D01*
X7639943D01*
Y4019618D01*
X7640779D01*
Y4022961D01*
X7641615D01*
Y4025468D01*
X7642450D01*
Y4027975D01*
X7643286D01*
Y4031318D01*
X7644122D01*
Y4033825D01*
X7644958D01*
Y4036332D01*
X7645793D01*
Y4039675D01*
X7646629D01*
Y4042182D01*
X7647465D01*
Y4045525D01*
X7648300D01*
Y4048032D01*
X7649136D01*
Y4051374D01*
X7649971D01*
Y4053882D01*
X7650807D01*
Y4056389D01*
X7651643D01*
Y4059731D01*
X7652479D01*
Y4062239D01*
X7653314D01*
Y4064745D01*
X7654150D01*
Y4068088D01*
X7654986D01*
Y4070596D01*
X7655821D01*
Y4073939D01*
X7656657D01*
Y4076445D01*
X7657493D01*
Y4079788D01*
X7658328D01*
Y4082295D01*
X7659164D01*
Y4084802D01*
X7660000D01*
Y4088145D01*
X7660836D01*
Y4090652D01*
X7661671D01*
Y4093995D01*
X7662507D01*
Y4096502D01*
X7663343D01*
Y4099009D01*
X7664178D01*
Y4102352D01*
X7665014D01*
Y4104859D01*
X7665850D01*
Y4108202D01*
X7666685D01*
Y4110709D01*
X7668357D01*
Y4109873D01*
D02*
G37*
%LPC*%
G36*
X7660000Y3860836D02*
X7659164D01*
Y3860000D01*
X7660000D01*
Y3860836D01*
D02*
G37*
%LPD*%
D49*
X3620000Y2400000D02*
G03*
X3620000Y2400000I-20000J0D01*
G01*
X3020000Y2650000D02*
G03*
X3020000Y2650000I-20000J0D01*
G01*
D50*
X4588735Y6640239D02*
G03*
X4588735Y6640239I-30000J0D01*
G01*
X7445000Y5645000D02*
G03*
X7445000Y5645000I-30000J0D01*
G01*
D51*
X4361235Y6775239D02*
G03*
X4361235Y6775239I-12500J0D01*
G01*
X3513735Y5750238D02*
G03*
X3513735Y5750238I-10000J0D01*
G01*
D52*
X7620000Y200000D02*
G03*
X7620000Y200000I-10000J0D01*
G01*
X8210000Y1510000D02*
G03*
X8210000Y1510000I-10000J0D01*
G01*
X2445000Y6780000D02*
G03*
X2445000Y6780000I-15000J0D01*
G01*
Y5880000D02*
G03*
X2445000Y5880000I-15000J0D01*
G01*
X865000Y1300000D02*
Y1500000D01*
X1065000Y1400000D02*
X1264999D01*
X765000Y1400000D02*
X965000D01*
X8635000Y1600000D02*
X8835000D01*
X8635000Y2800000D02*
X8835000D01*
X8735000Y1500000D02*
Y1700000D01*
X5819000Y3302499D02*
Y3497499D01*
X6169000Y3302499D02*
Y3497499D01*
X6365000Y7265000D02*
X8416000D01*
Y6335000D02*
Y7265000D01*
X6365000Y6335000D02*
X8416000D01*
X6365000D02*
Y7265000D01*
X3669000Y3302500D02*
Y3497500D01*
X3319000Y3302500D02*
Y3497500D01*
D53*
X570881Y3779562D02*
G03*
X570881Y3779562I-10000J0D01*
G01*
X2700000Y700000D02*
G03*
X2700000Y700000I-500000J0D01*
G01*
Y1800000D02*
G03*
X2700000Y1800000I-500000J0D01*
G01*
X2400000Y2900000D02*
G03*
X2400000Y2900000I-500000J0D01*
G01*
X2450000Y7000000D02*
G03*
X2450000Y7100000I0J50000D01*
G01*
X7632500Y5540000D02*
G03*
X7632500Y5540000I-10000J0D01*
G01*
X3875000Y6725000D02*
G03*
X3875000Y6725000I-10000J0D01*
G01*
X3935000Y6815000D02*
G03*
X3935000Y6815000I-10000J0D01*
G01*
X2450000Y6100000D02*
G03*
X2450000Y6200000I0J50000D01*
G01*
X4635000Y4445500D02*
Y4500000D01*
Y4445500D02*
X6265000D01*
Y4500000D01*
Y3970000D02*
Y4500000D01*
X4635000Y3970000D02*
X6265000D01*
X4635000D02*
Y4500000D01*
X6265000D01*
X2135000Y4445500D02*
Y4500000D01*
Y4445500D02*
X3765000D01*
Y4500000D01*
Y3970000D02*
Y4500000D01*
X2135000Y3970000D02*
X3765000D01*
X2135000D02*
Y4500000D01*
X3765000D01*
X4458735Y6120239D02*
X5078735D01*
X4458735Y6740239D02*
X5078735D01*
Y6120239D02*
Y6740239D01*
X4458735Y6120239D02*
Y6740239D01*
X7380000Y202500D02*
Y230000D01*
Y570000D02*
Y597500D01*
Y570000D02*
X7530000D01*
X7380000Y230000D02*
Y570000D01*
Y230000D02*
X7530000D01*
X7070000Y570000D02*
Y597500D01*
X7530000Y570000D02*
Y597500D01*
Y202500D02*
Y230000D01*
X7070000Y202500D02*
Y230000D01*
Y202500D02*
X7530000D01*
X7070000Y597500D02*
X7530000D01*
X510882Y3459562D02*
X580882Y3459562D01*
X510882Y3299562D02*
X580881D01*
X980881Y3219562D02*
X1050882D01*
X980882Y3059562D02*
X1050881D01*
X980882Y3299562D02*
X1050881D01*
X980881Y3459562D02*
X1050882D01*
X510882Y3049562D02*
X580881D01*
X510882Y3209562D02*
X580881Y3209562D01*
X525881Y3889562D02*
X525882Y3949562D01*
X745881Y3889562D02*
Y3949562D01*
X6450000Y4500000D02*
X6550000D01*
X6649999D02*
X6700000D01*
X1700000Y5525000D02*
X1800000D01*
X1700000D02*
X1700000Y4985000D01*
X6700000D02*
X6700000Y5525000D01*
X6600000Y3725000D02*
X6700000D01*
X1700000Y4598999D02*
X1700000Y3725000D01*
X6700000D02*
X6700000Y4598999D01*
X1700000Y4500000D02*
X1750000D01*
X1850000D02*
X1950000D01*
X2050000D02*
X2150001D01*
X2250000D02*
X2350000D01*
X2450000D02*
X2550000D01*
X2650000D02*
X2750000D01*
X2850000D02*
X2950000D01*
X3050000D02*
X3150000D01*
X3250000D02*
X3350000D01*
X3450001D02*
X3550001D01*
X3650001D02*
X3750001D01*
X3850001D02*
X3950000D01*
X4050001D02*
X4150000D01*
X4250001D02*
X4350001D01*
X4450000D02*
X4550001D01*
X4650001D02*
X4750001D01*
X4850001D02*
X4950001D01*
X5050001D02*
X5150000D01*
X5250001D02*
X5350001D01*
X5450001D02*
X5550000D01*
X5650001D02*
X5750001D01*
X5850001D02*
X5950001D01*
X6050001D02*
X6150001D01*
X6250000D02*
X6350000D01*
X6600000Y5525000D02*
X6700000D01*
X1700000Y3725000D02*
X1800000D01*
X3398735Y5345239D02*
Y5415239D01*
X3238735Y5345239D02*
Y5415239D01*
X3798735Y5335239D02*
Y5425239D01*
X3638735Y5335239D02*
Y5425239D01*
X3148735Y5345239D02*
Y5415239D01*
X2988734Y5345239D02*
Y5415239D01*
X3513735Y5930239D02*
X3823735Y5930238D01*
X3513735Y5830238D02*
X3823735D01*
X3823735Y5930238D01*
X3513735Y5830238D02*
Y5930239D01*
X4048735Y5335239D02*
Y5425239D01*
X3888735Y5335239D02*
Y5425239D01*
X820882Y3754562D02*
X855881Y3754562D01*
X820882Y4384562D02*
X855881D01*
X1415881D02*
X1450881D01*
X1415882Y3754562D02*
X1450881D01*
X820882Y3754562D02*
Y4384562D01*
X1450881Y3754562D02*
X1450881Y4384562D01*
X4986000Y4955000D02*
Y5045000D01*
X4826000Y4955000D02*
Y5045000D01*
X2486000Y4954999D02*
Y5045000D01*
X2326000Y4955000D02*
Y5045000D01*
X8580000Y5115000D02*
Y5185000D01*
X8420000Y5115000D02*
Y5185000D01*
X8330000Y5115001D02*
Y5185001D01*
X8170000Y5115001D02*
Y5185000D01*
X8080000Y5185000D02*
X8080000Y5115000D01*
X7920000Y5115000D02*
Y5185000D01*
X7610000Y2300000D02*
X7610000Y2100000D01*
X7390000Y2100000D02*
X7390000Y2300000D01*
X7960000Y2100000D02*
Y2300000D01*
X7740000Y2100000D02*
X7740001Y2300000D01*
X8310000Y2100000D02*
X8310000Y2299999D01*
X8090000Y2300000D02*
X8090000Y2100000D01*
X2520000Y3165000D02*
X2520000Y3235000D01*
X2680000Y3165000D02*
Y3235000D01*
X7260000Y2100000D02*
Y2300000D01*
X7040000Y2100000D02*
Y2300000D01*
X9290000Y4640000D02*
Y4660000D01*
X9410000Y4640000D02*
Y4660000D01*
X9290000Y4190000D02*
Y4210000D01*
X9410000Y4190000D02*
Y4210000D01*
X9290000Y3740000D02*
Y3760000D01*
X9410000Y3740000D02*
Y3760000D01*
X9290000Y3290000D02*
Y3310000D01*
X9410000Y3290000D02*
Y3310000D01*
X9290000Y5090000D02*
Y5110000D01*
X9410000Y5090000D02*
Y5110000D01*
X9150000Y5530000D02*
Y5570000D01*
X9050000Y5530000D02*
Y5570000D01*
X9150000Y4180000D02*
Y4220000D01*
X9050000Y4180000D02*
Y4220000D01*
X9150000Y3730000D02*
Y3770000D01*
X9050000Y3730000D02*
Y3770000D01*
X9150000Y3280000D02*
Y3320000D01*
X9050000Y3280000D02*
Y3320000D01*
X7935000Y5535000D02*
X7970000Y5535000D01*
X7935000Y6165000D02*
X7970000Y6164999D01*
X8530000Y6165000D02*
X8565000D01*
X8530000Y5535000D02*
X8565000D01*
X7935000Y5535000D02*
Y6165000D01*
X8565000Y5535000D02*
X8565000Y6165000D01*
X930000Y6300000D02*
Y6495000D01*
X440000Y6495000D02*
X930000Y6495000D01*
X930000Y4505000D02*
Y4700000D01*
X440000Y4505000D02*
X930000Y4505000D01*
X69999Y4700000D02*
X70000Y6300000D01*
X5060000Y7340000D02*
X5140000D01*
X3860000D02*
X3940000D01*
X7802500Y970000D02*
Y1430000D01*
X8197500Y970000D02*
Y1430000D01*
X8170000Y970000D02*
X8197500D01*
X8170000Y1430000D02*
X8197500D01*
X7802500D02*
X7830000D01*
X7802500Y970000D02*
X7830000D01*
X8170000Y1280000D02*
Y1430000D01*
X7830000Y1280000D02*
X8170000D01*
X7830000D02*
Y1430000D01*
X7802500Y1280000D02*
X7830000Y1280000D01*
X8170000D02*
X8197500D01*
X9150000Y5080000D02*
Y5120000D01*
X9050000Y5080000D02*
Y5120000D01*
X9150000Y4630000D02*
Y4670000D01*
X9050000Y4630000D02*
Y4670000D01*
X2450000Y6900000D02*
X2950000D01*
X2450000Y7200000D02*
X2950000D01*
X2450000Y7100000D02*
Y7200000D01*
Y6900000D02*
Y7000000D01*
X2950000Y6900000D02*
X2950000Y7200000D01*
X7515000Y5545000D02*
Y5855000D01*
X7285000Y5545000D02*
Y5855000D01*
Y5545000D02*
X7515000D01*
X7285000Y5855000D02*
X7515000D01*
X3690000Y6650000D02*
Y6750000D01*
X3910000Y6650000D02*
Y6750000D01*
X2450000Y6000000D02*
X2950000Y6000000D01*
X2450000Y6300000D02*
X2950000Y6300000D01*
X2450000Y6300000D02*
X2450000Y6200000D01*
Y6000000D02*
Y6100000D01*
X2950000Y6000000D02*
Y6300000D01*
X1124761Y1226185D02*
Y1230946D01*
X1129522Y1240467D01*
X1134283Y1245228D01*
X1143804Y1249989D01*
X1162848D01*
X1172370Y1245228D01*
X1177131Y1240467D01*
X1181891Y1230946D01*
Y1221424D01*
X1177131Y1211902D01*
X1167609Y1197620D01*
X1120000Y1150011D01*
X1186652D01*
X1256638Y1249989D02*
X1209029Y1183337D01*
X1280442D01*
X1256638Y1249989D02*
Y1150011D01*
X1376612Y1249989D02*
X1414699Y1150011D01*
X1452786Y1249989D02*
X1414699Y1150011D01*
X6970157Y3154984D02*
Y3005016D01*
X7070135Y3154984D02*
Y3005016D01*
X6970157Y3083571D02*
X7070135D01*
X7111555Y3154984D02*
Y3005016D01*
X7250097Y3119277D02*
X7242955Y3133560D01*
X7228673Y3147843D01*
X7214390Y3154984D01*
X7185825D01*
X7171542Y3147843D01*
X7157259Y3133560D01*
X7150118Y3119277D01*
X7142977Y3097853D01*
Y3062147D01*
X7150118Y3040723D01*
X7157259Y3026440D01*
X7171542Y3012157D01*
X7185825Y3005016D01*
X7214390D01*
X7228673Y3012157D01*
X7242955Y3026440D01*
X7250097Y3040723D01*
Y3062147D01*
X7214390D02*
X7250097D01*
X7284375Y3154984D02*
Y3005016D01*
X7384354Y3154984D02*
Y3005016D01*
X7284375Y3083571D02*
X7384354D01*
X7543605Y3154984D02*
X7600736Y3005016D01*
X7657866Y3154984D02*
X7600736Y3005016D01*
X7719996Y3154984D02*
X7705713Y3147843D01*
X7691431Y3133560D01*
X7684289Y3119277D01*
X7677148Y3097853D01*
Y3062147D01*
X7684289Y3040723D01*
X7691431Y3026440D01*
X7705713Y3012157D01*
X7719996Y3005016D01*
X7748561D01*
X7762844Y3012157D01*
X7777126Y3026440D01*
X7784268Y3040723D01*
X7791409Y3062147D01*
Y3097853D01*
X7784268Y3119277D01*
X7777126Y3133560D01*
X7762844Y3147843D01*
X7748561Y3154984D01*
X7719996D01*
X7826402D02*
Y3005016D01*
X7912097D01*
X7978512Y3154984D02*
Y3005016D01*
X7928523Y3154984D02*
X8028501D01*
X8160616Y3005016D02*
X8103485Y3154984D01*
X8046354Y3005016D01*
X8067778Y3055005D02*
X8139192D01*
X8302728Y3119277D02*
X8295587Y3133560D01*
X8281304Y3147843D01*
X8267022Y3154984D01*
X8238456D01*
X8224174Y3147843D01*
X8209891Y3133560D01*
X8202749Y3119277D01*
X8195608Y3097853D01*
Y3062147D01*
X8202749Y3040723D01*
X8209891Y3026440D01*
X8224174Y3012157D01*
X8238456Y3005016D01*
X8267022D01*
X8281304Y3012157D01*
X8295587Y3026440D01*
X8302728Y3040723D01*
Y3062147D01*
X8267022D02*
X8302728D01*
X8429844Y3154984D02*
X8337006D01*
Y3005016D01*
X8429844D01*
X8337006Y3083571D02*
X8394137D01*
X7308299Y3374984D02*
Y3225016D01*
Y3374984D02*
X7358288D01*
X7379712Y3367843D01*
X7393994Y3353560D01*
X7401136Y3339277D01*
X7408277Y3317853D01*
Y3282147D01*
X7401136Y3260723D01*
X7393994Y3246440D01*
X7379712Y3232157D01*
X7358288Y3225016D01*
X7308299D01*
X7556102D02*
X7498972Y3374984D01*
X7441841Y3225016D01*
X7463265Y3275005D02*
X7534679D01*
X7591095Y3374984D02*
Y3225016D01*
Y3374984D02*
X7691074Y3225016D01*
Y3374984D02*
Y3225016D01*
X7839613Y3339277D02*
X7832472Y3353560D01*
X7818189Y3367843D01*
X7803907Y3374984D01*
X7775341D01*
X7761059Y3367843D01*
X7746776Y3353560D01*
X7739635Y3339277D01*
X7732493Y3317853D01*
Y3282147D01*
X7739635Y3260723D01*
X7746776Y3246440D01*
X7761059Y3232157D01*
X7775341Y3225016D01*
X7803907D01*
X7818189Y3232157D01*
X7832472Y3246440D01*
X7839613Y3260723D01*
Y3282147D01*
X7803907D02*
X7839613D01*
X7966729Y3374984D02*
X7873892D01*
Y3225016D01*
X7966729D01*
X7873892Y3303571D02*
X7931022D01*
X7991723Y3374984D02*
Y3225016D01*
Y3374984D02*
X8055995D01*
X8077419Y3367843D01*
X8084561Y3360701D01*
X8091702Y3346419D01*
Y3332136D01*
X8084561Y3317853D01*
X8077419Y3310712D01*
X8055995Y3303571D01*
X7991723D01*
X8041713D02*
X8091702Y3225016D01*
X3587640Y6264519D02*
Y6193105D01*
X3592401Y6178823D01*
X3601923Y6169301D01*
X3616205Y6164540D01*
X3625727D01*
X3640010Y6169301D01*
X3649531Y6178823D01*
X3654292Y6193105D01*
Y6264519D01*
X3739036Y6250236D02*
X3734275Y6259758D01*
X3719993Y6264519D01*
X3710471D01*
X3696188Y6259758D01*
X3686666Y6245475D01*
X3681906Y6221671D01*
Y6197866D01*
X3686666Y6178823D01*
X3696188Y6169301D01*
X3710471Y6164540D01*
X3715232D01*
X3729515Y6169301D01*
X3739036Y6178823D01*
X3743797Y6193105D01*
Y6197866D01*
X3739036Y6212149D01*
X3729515Y6221671D01*
X3715232Y6226431D01*
X3710471D01*
X3696188Y6221671D01*
X3686666Y6212149D01*
X3681906Y6197866D01*
X3919461Y4825960D02*
X4019440D01*
X3919461D02*
Y4868808D01*
X3924222Y4883091D01*
X3928983Y4887851D01*
X3938505Y4892612D01*
X3948027D01*
X3957549Y4887851D01*
X3962309Y4883091D01*
X3967070Y4868808D01*
Y4825960D01*
Y4859286D02*
X4019440Y4892612D01*
X3919461Y4924510D02*
Y4976880D01*
X3957549Y4948315D01*
Y4962597D01*
X3962309Y4972119D01*
X3967070Y4976880D01*
X3981353Y4981641D01*
X3990875D01*
X4005157Y4976880D01*
X4014679Y4967358D01*
X4019440Y4953075D01*
Y4938793D01*
X4014679Y4924510D01*
X4009918Y4919749D01*
X4000396Y4914988D01*
X3952788Y5065908D02*
X3967070Y5061148D01*
X3976592Y5051626D01*
X3981353Y5037343D01*
Y5032582D01*
X3976592Y5018300D01*
X3967070Y5008778D01*
X3952788Y5004017D01*
X3948027D01*
X3933744Y5008778D01*
X3924222Y5018300D01*
X3919461Y5032582D01*
Y5037343D01*
X3924222Y5051626D01*
X3933744Y5061148D01*
X3952788Y5065908D01*
X3976592D01*
X4000396Y5061148D01*
X4014679Y5051626D01*
X4019440Y5037343D01*
Y5027821D01*
X4014679Y5013539D01*
X4005157Y5008778D01*
X3668001Y4823420D02*
X3767980D01*
X3668001D02*
Y4866268D01*
X3672762Y4880551D01*
X3677523Y4885311D01*
X3687045Y4890072D01*
X3696567D01*
X3706089Y4885311D01*
X3710849Y4880551D01*
X3715610Y4866268D01*
Y4823420D01*
Y4856746D02*
X3767980Y4890072D01*
X3668001Y4921970D02*
Y4974340D01*
X3706089Y4945775D01*
Y4960057D01*
X3710849Y4969579D01*
X3715610Y4974340D01*
X3729893Y4979101D01*
X3739415D01*
X3753697Y4974340D01*
X3763219Y4964818D01*
X3767980Y4950535D01*
Y4936253D01*
X3763219Y4921970D01*
X3758458Y4917209D01*
X3748936Y4912448D01*
X3668001Y5025281D02*
X3672762Y5010999D01*
X3682284Y5006238D01*
X3691806D01*
X3701328Y5010999D01*
X3706089Y5020521D01*
X3710849Y5039564D01*
X3715610Y5053847D01*
X3725132Y5063368D01*
X3734654Y5068129D01*
X3748936D01*
X3758458Y5063368D01*
X3763219Y5058608D01*
X3767980Y5044325D01*
Y5025281D01*
X3763219Y5010999D01*
X3758458Y5006238D01*
X3748936Y5001477D01*
X3734654D01*
X3725132Y5006238D01*
X3715610Y5015760D01*
X3710849Y5030042D01*
X3706089Y5049086D01*
X3701328Y5058608D01*
X3691806Y5063368D01*
X3682284D01*
X3672762Y5058608D01*
X3668001Y5044325D01*
Y5025281D01*
X3493601Y4894241D02*
X3484079Y4889480D01*
X3474557Y4879958D01*
X3469796Y4870437D01*
Y4851393D01*
X3474557Y4841871D01*
X3484079Y4832349D01*
X3493601Y4827589D01*
X3507884Y4822828D01*
X3531688D01*
X3545971Y4827589D01*
X3555492Y4832349D01*
X3565014Y4841871D01*
X3569775Y4851393D01*
Y4870437D01*
X3565014Y4879958D01*
X3555492Y4889480D01*
X3545971Y4894241D01*
X3469796Y4931852D02*
Y4984221D01*
X3507884Y4955656D01*
Y4969939D01*
X3512644Y4979461D01*
X3517405Y4984221D01*
X3531688Y4988982D01*
X3541210D01*
X3555492Y4984221D01*
X3565014Y4974700D01*
X3569775Y4960417D01*
Y4946134D01*
X3565014Y4931852D01*
X3560253Y4927091D01*
X3550731Y4922330D01*
X3484079Y5068489D02*
X3474557Y5063728D01*
X3469796Y5049446D01*
Y5039924D01*
X3474557Y5025641D01*
X3488840Y5016120D01*
X3512644Y5011359D01*
X3536449D01*
X3555492Y5016120D01*
X3565014Y5025641D01*
X3569775Y5039924D01*
Y5044685D01*
X3565014Y5058968D01*
X3555492Y5068489D01*
X3541210Y5073250D01*
X3536449D01*
X3522166Y5068489D01*
X3512644Y5058968D01*
X3507884Y5044685D01*
Y5039924D01*
X3512644Y5025641D01*
X3522166Y5016120D01*
X3536449Y5011359D01*
X3293026Y4892293D02*
X3283504Y4887532D01*
X3273982Y4878011D01*
X3269221Y4868489D01*
Y4849445D01*
X3273982Y4839924D01*
X3283504Y4830402D01*
X3293026Y4825641D01*
X3307309Y4820880D01*
X3331113D01*
X3345396Y4825641D01*
X3354917Y4830402D01*
X3364439Y4839924D01*
X3369200Y4849445D01*
Y4868489D01*
X3364439Y4878011D01*
X3354917Y4887532D01*
X3345396Y4892293D01*
X3269221Y4929904D02*
Y4982274D01*
X3307309Y4953709D01*
Y4967991D01*
X3312069Y4977513D01*
X3316830Y4982274D01*
X3331113Y4987035D01*
X3340635D01*
X3354917Y4982274D01*
X3364439Y4972752D01*
X3369200Y4958469D01*
Y4944187D01*
X3364439Y4929904D01*
X3359678Y4925143D01*
X3350156Y4920382D01*
X3269221Y5066542D02*
Y5018933D01*
X3312069Y5014172D01*
X3307309Y5018933D01*
X3302548Y5033215D01*
Y5047498D01*
X3307309Y5061781D01*
X3316830Y5071302D01*
X3331113Y5076063D01*
X3340635D01*
X3354917Y5071302D01*
X3364439Y5061781D01*
X3369200Y5047498D01*
Y5033215D01*
X3364439Y5018933D01*
X3359678Y5014172D01*
X3350156Y5009411D01*
X3041566Y4887213D02*
X3032044Y4882452D01*
X3022522Y4872931D01*
X3017761Y4863409D01*
Y4844365D01*
X3022522Y4834844D01*
X3032044Y4825322D01*
X3041566Y4820561D01*
X3055849Y4815800D01*
X3079653D01*
X3093936Y4820561D01*
X3103457Y4825322D01*
X3112979Y4834844D01*
X3117740Y4844365D01*
Y4863409D01*
X3112979Y4872931D01*
X3103457Y4882452D01*
X3093936Y4887213D01*
X3017761Y4924824D02*
Y4977194D01*
X3055849Y4948629D01*
Y4962911D01*
X3060609Y4972433D01*
X3065370Y4977194D01*
X3079653Y4981955D01*
X3089175D01*
X3103457Y4977194D01*
X3112979Y4967672D01*
X3117740Y4953389D01*
Y4939107D01*
X3112979Y4924824D01*
X3108218Y4920063D01*
X3098696Y4915302D01*
X3017761Y5051940D02*
X3084414Y5004331D01*
Y5075744D01*
X3017761Y5051940D02*
X3117740D01*
X1771540Y6300079D02*
Y6200100D01*
Y6300079D02*
X1814388D01*
X1828671Y6295318D01*
X1833431Y6290557D01*
X1838192Y6281035D01*
Y6271513D01*
X1833431Y6261991D01*
X1828671Y6257231D01*
X1814388Y6252470D01*
X1771540D01*
X1804866D02*
X1838192Y6200100D01*
X1870090Y6300079D02*
X1922460D01*
X1893895Y6261991D01*
X1908178D01*
X1917699Y6257231D01*
X1922460Y6252470D01*
X1927221Y6238187D01*
Y6228665D01*
X1922460Y6214383D01*
X1912938Y6204861D01*
X1898656Y6200100D01*
X1884373D01*
X1870090Y6204861D01*
X1865330Y6209622D01*
X1860569Y6219144D01*
X2016249Y6300079D02*
X1968641Y6200100D01*
X1949597Y6300079D02*
X2016249D01*
X1776620Y6099419D02*
Y5999440D01*
Y6099419D02*
X1819468D01*
X1833751Y6094658D01*
X1838511Y6089897D01*
X1843272Y6080375D01*
Y6070853D01*
X1838511Y6061331D01*
X1833751Y6056571D01*
X1819468Y6051810D01*
X1776620D01*
X1809946D02*
X1843272Y5999440D01*
X1875170Y6099419D02*
X1927540D01*
X1898975Y6061331D01*
X1913258D01*
X1922779Y6056571D01*
X1927540Y6051810D01*
X1932301Y6037527D01*
Y6028005D01*
X1927540Y6013723D01*
X1918018Y6004201D01*
X1903736Y5999440D01*
X1889453D01*
X1875170Y6004201D01*
X1870410Y6008962D01*
X1865649Y6018484D01*
X2011808Y6085136D02*
X2007047Y6094658D01*
X1992764Y6099419D01*
X1983242D01*
X1968960Y6094658D01*
X1959438Y6080375D01*
X1954677Y6056571D01*
Y6032766D01*
X1959438Y6013723D01*
X1968960Y6004201D01*
X1983242Y5999440D01*
X1988003D01*
X2002286Y6004201D01*
X2011808Y6013723D01*
X2016568Y6028005D01*
Y6032766D01*
X2011808Y6047049D01*
X2002286Y6056571D01*
X1988003Y6061331D01*
X1983242D01*
X1968960Y6056571D01*
X1959438Y6047049D01*
X1954677Y6032766D01*
X1771540Y7199239D02*
Y7099260D01*
Y7199239D02*
X1814388D01*
X1828671Y7194478D01*
X1833431Y7189717D01*
X1838192Y7180195D01*
Y7170673D01*
X1833431Y7161151D01*
X1828671Y7156391D01*
X1814388Y7151630D01*
X1771540D01*
X1804866D02*
X1838192Y7099260D01*
X1870090Y7199239D02*
X1922460D01*
X1893895Y7161151D01*
X1908178D01*
X1917699Y7156391D01*
X1922460Y7151630D01*
X1927221Y7137347D01*
Y7127825D01*
X1922460Y7113543D01*
X1912938Y7104021D01*
X1898656Y7099260D01*
X1884373D01*
X1870090Y7104021D01*
X1865330Y7108782D01*
X1860569Y7118304D01*
X2006728Y7199239D02*
X1959119D01*
X1954358Y7156391D01*
X1959119Y7161151D01*
X1973401Y7165912D01*
X1987684D01*
X2001967Y7161151D01*
X2011488Y7151630D01*
X2016249Y7137347D01*
Y7127825D01*
X2011488Y7113543D01*
X2001967Y7104021D01*
X1987684Y7099260D01*
X1973401D01*
X1959119Y7104021D01*
X1954358Y7108782D01*
X1949597Y7118304D01*
X1766460Y7001119D02*
Y6901140D01*
Y7001119D02*
X1809308D01*
X1823591Y6996358D01*
X1828351Y6991597D01*
X1833112Y6982075D01*
Y6972553D01*
X1828351Y6963031D01*
X1823591Y6958271D01*
X1809308Y6953510D01*
X1766460D01*
X1799786D02*
X1833112Y6901140D01*
X1865010Y7001119D02*
X1917380D01*
X1888815Y6963031D01*
X1903098D01*
X1912619Y6958271D01*
X1917380Y6953510D01*
X1922141Y6939227D01*
Y6929705D01*
X1917380Y6915423D01*
X1907858Y6905901D01*
X1893576Y6901140D01*
X1879293D01*
X1865010Y6905901D01*
X1860250Y6910662D01*
X1855489Y6920184D01*
X1992126Y7001119D02*
X1944517Y6934466D01*
X2015930D01*
X1992126Y7001119D02*
Y6901140D01*
X1195253Y3625314D02*
X1190492Y3634836D01*
X1180971Y3644358D01*
X1171449Y3649119D01*
X1152405D01*
X1142884Y3644358D01*
X1133362Y3634836D01*
X1128601Y3625314D01*
X1123840Y3611031D01*
Y3587227D01*
X1128601Y3572944D01*
X1133362Y3563423D01*
X1142884Y3553901D01*
X1152405Y3549140D01*
X1171449D01*
X1180971Y3553901D01*
X1190492Y3563423D01*
X1195253Y3572944D01*
X1228103Y3625314D02*
Y3630075D01*
X1232864Y3639597D01*
X1237625Y3644358D01*
X1247147Y3649119D01*
X1266191D01*
X1275712Y3644358D01*
X1280473Y3639597D01*
X1285234Y3630075D01*
Y3620553D01*
X1280473Y3611031D01*
X1270951Y3596749D01*
X1223342Y3549140D01*
X1289995D01*
X1374262Y3615792D02*
X1369502Y3601510D01*
X1359980Y3591988D01*
X1345697Y3587227D01*
X1340936D01*
X1326654Y3591988D01*
X1317132Y3601510D01*
X1312371Y3615792D01*
Y3620553D01*
X1317132Y3634836D01*
X1326654Y3644358D01*
X1340936Y3649119D01*
X1345697D01*
X1359980Y3644358D01*
X1369502Y3634836D01*
X1374262Y3615792D01*
Y3591988D01*
X1369502Y3568184D01*
X1359980Y3553901D01*
X1345697Y3549140D01*
X1336175D01*
X1321893Y3553901D01*
X1317132Y3563423D01*
X3044080Y6201019D02*
Y6129605D01*
X3048841Y6115323D01*
X3058363Y6105801D01*
X3072645Y6101040D01*
X3082167D01*
X3096450Y6105801D01*
X3105971Y6115323D01*
X3110732Y6129605D01*
Y6201019D01*
X3185955D02*
X3138346Y6134366D01*
X3209759D01*
X3185955Y6201019D02*
Y6101040D01*
X3044080Y7100179D02*
Y7028765D01*
X3048841Y7014483D01*
X3058363Y7004961D01*
X3072645Y7000200D01*
X3082167D01*
X3096450Y7004961D01*
X3105971Y7014483D01*
X3110732Y7028765D01*
Y7100179D01*
X3147867D02*
X3200237D01*
X3171672Y7062091D01*
X3185955D01*
X3195476Y7057331D01*
X3200237Y7052570D01*
X3204998Y7038287D01*
Y7028765D01*
X3200237Y7014483D01*
X3190715Y7004961D01*
X3176433Y7000200D01*
X3162150D01*
X3147867Y7004961D01*
X3143106Y7009722D01*
X3138346Y7019244D01*
X7318900Y6052759D02*
Y5981345D01*
X7323661Y5967062D01*
X7333183Y5957541D01*
X7347465Y5952780D01*
X7356987D01*
X7371270Y5957541D01*
X7380791Y5967062D01*
X7385552Y5981345D01*
Y6052759D01*
X7417926Y6028954D02*
Y6033715D01*
X7422687Y6043237D01*
X7427448Y6047998D01*
X7436970Y6052759D01*
X7456014D01*
X7465535Y6047998D01*
X7470296Y6043237D01*
X7475057Y6033715D01*
Y6024193D01*
X7470296Y6014671D01*
X7460775Y6000389D01*
X7413166Y5952780D01*
X7479818D01*
X4270900Y7117959D02*
Y7046545D01*
X4275661Y7032263D01*
X4285183Y7022741D01*
X4299465Y7017980D01*
X4308987D01*
X4323270Y7022741D01*
X4332791Y7032263D01*
X4337552Y7046545D01*
Y7117959D01*
X4365166Y7098915D02*
X4374687Y7103676D01*
X4388970Y7117959D01*
Y7017980D01*
X4708086Y2972679D02*
Y2872700D01*
X4674760Y2972679D02*
X4741412D01*
X4753315Y2953635D02*
X4762836Y2958396D01*
X4777119Y2972679D01*
Y2872700D01*
X4735720Y7549759D02*
Y7449780D01*
Y7549759D02*
X4778568D01*
X4792851Y7544998D01*
X4797611Y7540237D01*
X4802372Y7530715D01*
Y7521193D01*
X4797611Y7511671D01*
X4792851Y7506911D01*
X4778568Y7502150D01*
X4735720D01*
X4769046D02*
X4802372Y7449780D01*
X4834270Y7549759D02*
X4886640D01*
X4858075Y7511671D01*
X4872358D01*
X4881879Y7506911D01*
X4886640Y7502150D01*
X4891401Y7487867D01*
Y7478345D01*
X4886640Y7464063D01*
X4877118Y7454541D01*
X4862836Y7449780D01*
X4848553D01*
X4834270Y7454541D01*
X4829510Y7459302D01*
X4824749Y7468824D01*
X4923299Y7549759D02*
X4975668D01*
X4947103Y7511671D01*
X4961386D01*
X4970908Y7506911D01*
X4975668Y7502150D01*
X4980429Y7487867D01*
Y7478345D01*
X4975668Y7464063D01*
X4966147Y7454541D01*
X4951864Y7449780D01*
X4937581D01*
X4923299Y7454541D01*
X4918538Y7459302D01*
X4913777Y7468824D01*
X3534300Y7549759D02*
Y7449780D01*
Y7549759D02*
X3577148D01*
X3591431Y7544998D01*
X3596191Y7540237D01*
X3600952Y7530715D01*
Y7521193D01*
X3596191Y7511671D01*
X3591431Y7506911D01*
X3577148Y7502150D01*
X3534300D01*
X3567626D02*
X3600952Y7449780D01*
X3632850Y7549759D02*
X3685220D01*
X3656655Y7511671D01*
X3670938D01*
X3680459Y7506911D01*
X3685220Y7502150D01*
X3689981Y7487867D01*
Y7478345D01*
X3685220Y7464063D01*
X3675698Y7454541D01*
X3661416Y7449780D01*
X3647133D01*
X3632850Y7454541D01*
X3628090Y7459302D01*
X3623329Y7468824D01*
X3717118Y7525954D02*
Y7530715D01*
X3721879Y7540237D01*
X3726640Y7544998D01*
X3736161Y7549759D01*
X3755205D01*
X3764727Y7544998D01*
X3769488Y7540237D01*
X3774248Y7530715D01*
Y7521193D01*
X3769488Y7511671D01*
X3759966Y7497389D01*
X3712357Y7449780D01*
X3779009D01*
X3115200Y6650879D02*
Y6550900D01*
Y6650879D02*
X3158048D01*
X3172331Y6646118D01*
X3177091Y6641357D01*
X3181852Y6631835D01*
Y6622313D01*
X3177091Y6612791D01*
X3172331Y6608031D01*
X3158048Y6603270D01*
X3115200D01*
X3148526D02*
X3181852Y6550900D01*
X3213750Y6650879D02*
X3266120D01*
X3237555Y6612791D01*
X3251838D01*
X3261359Y6608031D01*
X3266120Y6603270D01*
X3270881Y6588987D01*
Y6579465D01*
X3266120Y6565183D01*
X3256598Y6555661D01*
X3242316Y6550900D01*
X3228033D01*
X3213750Y6555661D01*
X3208990Y6560422D01*
X3204229Y6569944D01*
X3293257Y6631835D02*
X3302779Y6636596D01*
X3317061Y6650879D01*
Y6550900D01*
X3072020Y6848999D02*
Y6749020D01*
Y6848999D02*
X3114868D01*
X3129151Y6844238D01*
X3133911Y6839477D01*
X3138672Y6829955D01*
Y6820433D01*
X3133911Y6810911D01*
X3129151Y6806151D01*
X3114868Y6801390D01*
X3072020D01*
X3105346D02*
X3138672Y6749020D01*
X3170570Y6848999D02*
X3222940D01*
X3194375Y6810911D01*
X3208658D01*
X3218179Y6806151D01*
X3222940Y6801390D01*
X3227701Y6787107D01*
Y6777585D01*
X3222940Y6763303D01*
X3213418Y6753781D01*
X3199136Y6749020D01*
X3184853D01*
X3170570Y6753781D01*
X3165810Y6758542D01*
X3161049Y6768064D01*
X3278642Y6848999D02*
X3264360Y6844238D01*
X3254838Y6829955D01*
X3250077Y6806151D01*
Y6791868D01*
X3254838Y6768064D01*
X3264360Y6753781D01*
X3278642Y6749020D01*
X3288164D01*
X3302447Y6753781D01*
X3311968Y6768064D01*
X3316729Y6791868D01*
Y6806151D01*
X3311968Y6829955D01*
X3302447Y6844238D01*
X3288164Y6848999D01*
X3278642D01*
X350010Y3530026D02*
X449989D01*
X350010D02*
Y3572874D01*
X354771Y3587157D01*
X359532Y3591917D01*
X369054Y3596678D01*
X378576D01*
X388098Y3591917D01*
X392858Y3587157D01*
X397619Y3572874D01*
Y3530026D01*
Y3563352D02*
X449989Y3596678D01*
X373815Y3623815D02*
X369054D01*
X359532Y3628576D01*
X354771Y3633337D01*
X350010Y3642859D01*
Y3661903D01*
X354771Y3671424D01*
X359532Y3676185D01*
X369054Y3680946D01*
X378576D01*
X388098Y3676185D01*
X402380Y3666663D01*
X449989Y3619054D01*
Y3685707D01*
X383337Y3769974D02*
X397619Y3765214D01*
X407141Y3755692D01*
X411902Y3741409D01*
Y3736648D01*
X407141Y3722366D01*
X397619Y3712844D01*
X383337Y3708083D01*
X378576D01*
X364293Y3712844D01*
X354771Y3722366D01*
X350010Y3736648D01*
Y3741409D01*
X354771Y3755692D01*
X364293Y3765214D01*
X383337Y3769974D01*
X407141D01*
X430946Y3765214D01*
X445228Y3755692D01*
X449989Y3741409D01*
Y3731887D01*
X445228Y3717605D01*
X435707Y3712844D01*
X150011Y3527645D02*
X249989D01*
X150011D02*
Y3570493D01*
X154772Y3584776D01*
X159533Y3589537D01*
X169054Y3594298D01*
X178576D01*
X188098Y3589537D01*
X192859Y3584776D01*
X197620Y3570493D01*
Y3527645D01*
Y3560972D02*
X249989Y3594298D01*
X173815Y3621435D02*
X169054D01*
X159533Y3626196D01*
X154772Y3630957D01*
X150011Y3640478D01*
Y3659522D01*
X154772Y3669044D01*
X159533Y3673805D01*
X169054Y3678565D01*
X178576D01*
X188098Y3673805D01*
X202380Y3664283D01*
X249989Y3616674D01*
Y3683326D01*
X150011Y3729507D02*
X154772Y3715224D01*
X164293Y3710463D01*
X173815D01*
X183337Y3715224D01*
X188098Y3724746D01*
X192859Y3743790D01*
X197620Y3758072D01*
X207141Y3767594D01*
X216663Y3772355D01*
X230946D01*
X240468Y3767594D01*
X245228Y3762833D01*
X249989Y3748551D01*
Y3729507D01*
X245228Y3715224D01*
X240468Y3710463D01*
X230946Y3705703D01*
X216663D01*
X207141Y3710463D01*
X197620Y3719985D01*
X192859Y3734268D01*
X188098Y3753312D01*
X183337Y3762833D01*
X173815Y3767594D01*
X164293D01*
X154772Y3762833D01*
X150011Y3748551D01*
Y3729507D01*
X6468000Y5849559D02*
Y5749580D01*
Y5849559D02*
X6510848D01*
X6525131Y5844798D01*
X6529891Y5840037D01*
X6534652Y5830515D01*
Y5820993D01*
X6529891Y5811471D01*
X6525131Y5806711D01*
X6510848Y5801950D01*
X6468000D01*
X6501326D02*
X6534652Y5749580D01*
X6561790Y5825754D02*
Y5830515D01*
X6566550Y5840037D01*
X6571311Y5844798D01*
X6580833Y5849559D01*
X6599877D01*
X6609398Y5844798D01*
X6614159Y5840037D01*
X6618920Y5830515D01*
Y5820993D01*
X6614159Y5811471D01*
X6604638Y5797189D01*
X6557029Y5749580D01*
X6623681D01*
X6693666Y5849559D02*
X6646057Y5782906D01*
X6717470D01*
X6693666Y5849559D02*
Y5749580D01*
X6473080Y5699699D02*
Y5599720D01*
Y5699699D02*
X6515928D01*
X6530211Y5694938D01*
X6534971Y5690177D01*
X6539732Y5680655D01*
Y5671133D01*
X6534971Y5661611D01*
X6530211Y5656851D01*
X6515928Y5652090D01*
X6473080D01*
X6506406D02*
X6539732Y5599720D01*
X6566870Y5675894D02*
Y5680655D01*
X6571630Y5690177D01*
X6576391Y5694938D01*
X6585913Y5699699D01*
X6604957D01*
X6614478Y5694938D01*
X6619239Y5690177D01*
X6624000Y5680655D01*
Y5671133D01*
X6619239Y5661611D01*
X6609718Y5647329D01*
X6562109Y5599720D01*
X6628761D01*
X6660659Y5699699D02*
X6713028D01*
X6684463Y5661611D01*
X6698746D01*
X6708268Y5656851D01*
X6713028Y5652090D01*
X6717789Y5637807D01*
Y5628285D01*
X6713028Y5614002D01*
X6703507Y5604481D01*
X6689224Y5599720D01*
X6674941D01*
X6660659Y5604481D01*
X6655898Y5609242D01*
X6651137Y5618763D01*
X9471220Y5599698D02*
Y5499720D01*
Y5599698D02*
X9514068D01*
X9528351Y5594938D01*
X9533111Y5590177D01*
X9537872Y5580655D01*
Y5571133D01*
X9533111Y5561611D01*
X9528351Y5556850D01*
X9514068Y5552089D01*
X9471220D01*
X9504546D02*
X9537872Y5499720D01*
X9565010Y5575894D02*
Y5580655D01*
X9569770Y5590177D01*
X9574531Y5594938D01*
X9584053Y5599698D01*
X9603097D01*
X9612618Y5594938D01*
X9617379Y5590177D01*
X9622140Y5580655D01*
Y5571133D01*
X9617379Y5561611D01*
X9607858Y5547329D01*
X9560249Y5499720D01*
X9626901D01*
X9654038Y5575894D02*
Y5580655D01*
X9658799Y5590177D01*
X9663560Y5594938D01*
X9673081Y5599698D01*
X9692125D01*
X9701647Y5594938D01*
X9706408Y5590177D01*
X9711169Y5580655D01*
Y5571133D01*
X9706408Y5561611D01*
X9696886Y5547329D01*
X9649277Y5499720D01*
X9715930D01*
X9522020Y5150118D02*
Y5050140D01*
Y5150118D02*
X9564868D01*
X9579151Y5145358D01*
X9583911Y5140597D01*
X9588672Y5131075D01*
Y5121553D01*
X9583911Y5112031D01*
X9579151Y5107270D01*
X9564868Y5102509D01*
X9522020D01*
X9555346D02*
X9588672Y5050140D01*
X9615810Y5126314D02*
Y5131075D01*
X9620570Y5140597D01*
X9625331Y5145358D01*
X9634853Y5150118D01*
X9653897D01*
X9663418Y5145358D01*
X9668179Y5140597D01*
X9672940Y5131075D01*
Y5121553D01*
X9668179Y5112031D01*
X9658658Y5097749D01*
X9611049Y5050140D01*
X9677701D01*
X9700077Y5131075D02*
X9709599Y5135836D01*
X9723881Y5150118D01*
Y5050140D01*
X7249401Y4772620D02*
X7349380D01*
X7249401D02*
Y4815468D01*
X7254162Y4829751D01*
X7258923Y4834511D01*
X7268445Y4839272D01*
X7277967D01*
X7287489Y4834511D01*
X7292249Y4829751D01*
X7297010Y4815468D01*
Y4772620D01*
Y4805946D02*
X7349380Y4839272D01*
X7273206Y4866409D02*
X7268445D01*
X7258923Y4871170D01*
X7254162Y4875931D01*
X7249401Y4885453D01*
Y4904496D01*
X7254162Y4914018D01*
X7258923Y4918779D01*
X7268445Y4923540D01*
X7277967D01*
X7287489Y4918779D01*
X7301771Y4909257D01*
X7349380Y4861648D01*
Y4928301D01*
X7249401Y4979242D02*
X7254162Y4964960D01*
X7268445Y4955438D01*
X7292249Y4950677D01*
X7306532D01*
X7330336Y4955438D01*
X7344619Y4964960D01*
X7349380Y4979242D01*
Y4988764D01*
X7344619Y5003047D01*
X7330336Y5012568D01*
X7306532Y5017329D01*
X7292249D01*
X7268445Y5012568D01*
X7254162Y5003047D01*
X7249401Y4988764D01*
Y4979242D01*
X6277500Y3450199D02*
Y3350220D01*
Y3450199D02*
X6320348D01*
X6334631Y3445438D01*
X6339391Y3440677D01*
X6344152Y3431155D01*
Y3421633D01*
X6339391Y3412111D01*
X6334631Y3407351D01*
X6320348Y3402590D01*
X6277500D01*
X6310826D02*
X6344152Y3350220D01*
X6366529Y3431155D02*
X6376050Y3435916D01*
X6390333Y3450199D01*
Y3350220D01*
X6501738Y3416872D02*
X6496977Y3402590D01*
X6487455Y3393068D01*
X6473172Y3388307D01*
X6468411D01*
X6454129Y3393068D01*
X6444607Y3402590D01*
X6439846Y3416872D01*
Y3421633D01*
X6444607Y3435916D01*
X6454129Y3445438D01*
X6468411Y3450199D01*
X6473172D01*
X6487455Y3445438D01*
X6496977Y3435916D01*
X6501738Y3416872D01*
Y3393068D01*
X6496977Y3369264D01*
X6487455Y3354981D01*
X6473172Y3350220D01*
X6463651D01*
X6449368Y3354981D01*
X6444607Y3364503D01*
X7599921Y4787860D02*
X7699900D01*
X7599921D02*
Y4830708D01*
X7604682Y4844991D01*
X7609443Y4849751D01*
X7618965Y4854512D01*
X7628487D01*
X7638009Y4849751D01*
X7642769Y4844991D01*
X7647530Y4830708D01*
Y4787860D01*
Y4821186D02*
X7699900Y4854512D01*
X7618965Y4876888D02*
X7614204Y4886410D01*
X7599921Y4900693D01*
X7699900D01*
X7599921Y4974010D02*
X7604682Y4959728D01*
X7614204Y4954967D01*
X7623726D01*
X7633248Y4959728D01*
X7638009Y4969250D01*
X7642769Y4988293D01*
X7647530Y5002576D01*
X7657052Y5012097D01*
X7666574Y5016858D01*
X7680856D01*
X7690378Y5012097D01*
X7695139Y5007337D01*
X7699900Y4993054D01*
Y4974010D01*
X7695139Y4959728D01*
X7690378Y4954967D01*
X7680856Y4950206D01*
X7666574D01*
X7657052Y4954967D01*
X7647530Y4964489D01*
X7642769Y4978771D01*
X7638009Y4997815D01*
X7633248Y5007337D01*
X7623726Y5012097D01*
X7614204D01*
X7604682Y5007337D01*
X7599921Y4993054D01*
Y4974010D01*
X9522020Y4700538D02*
Y4600560D01*
Y4700538D02*
X9564868D01*
X9579151Y4695778D01*
X9583911Y4691017D01*
X9588672Y4681495D01*
Y4671973D01*
X9583911Y4662451D01*
X9579151Y4657690D01*
X9564868Y4652929D01*
X9522020D01*
X9555346D02*
X9588672Y4600560D01*
X9611049Y4681495D02*
X9620570Y4686256D01*
X9634853Y4700538D01*
Y4600560D01*
X9751019Y4700538D02*
X9703410Y4600560D01*
X9684366Y4700538D02*
X9751019D01*
X3778140Y3450199D02*
Y3350220D01*
Y3450199D02*
X3820988D01*
X3835271Y3445438D01*
X3840031Y3440677D01*
X3844792Y3431155D01*
Y3421633D01*
X3840031Y3412111D01*
X3835271Y3407351D01*
X3820988Y3402590D01*
X3778140D01*
X3811466D02*
X3844792Y3350220D01*
X3867169Y3431155D02*
X3876690Y3435916D01*
X3890973Y3450199D01*
Y3350220D01*
X3997617Y3435916D02*
X3992856Y3445438D01*
X3978573Y3450199D01*
X3969051D01*
X3954769Y3445438D01*
X3945247Y3431155D01*
X3940486Y3407351D01*
Y3383546D01*
X3945247Y3364503D01*
X3954769Y3354981D01*
X3969051Y3350220D01*
X3973812D01*
X3988095Y3354981D01*
X3997617Y3364503D01*
X4002378Y3378785D01*
Y3383546D01*
X3997617Y3397829D01*
X3988095Y3407351D01*
X3973812Y3412111D01*
X3969051D01*
X3954769Y3407351D01*
X3945247Y3397829D01*
X3940486Y3383546D01*
X7099541Y4787860D02*
X7199520D01*
X7099541D02*
Y4830708D01*
X7104302Y4844991D01*
X7109063Y4849751D01*
X7118585Y4854512D01*
X7128107D01*
X7137629Y4849751D01*
X7142389Y4844991D01*
X7147150Y4830708D01*
Y4787860D01*
Y4821186D02*
X7199520Y4854512D01*
X7118585Y4876888D02*
X7113824Y4886410D01*
X7099541Y4900693D01*
X7199520D01*
X7099541Y5007337D02*
Y4959728D01*
X7142389Y4954967D01*
X7137629Y4959728D01*
X7132868Y4974010D01*
Y4988293D01*
X7137629Y5002576D01*
X7147150Y5012097D01*
X7161433Y5016858D01*
X7170955D01*
X7185237Y5012097D01*
X7194759Y5002576D01*
X7199520Y4988293D01*
Y4974010D01*
X7194759Y4959728D01*
X7189998Y4954967D01*
X7180476Y4950206D01*
X9522020Y4250958D02*
Y4150980D01*
Y4250958D02*
X9564868D01*
X9579151Y4246198D01*
X9583911Y4241437D01*
X9588672Y4231915D01*
Y4222393D01*
X9583911Y4212871D01*
X9579151Y4208110D01*
X9564868Y4203349D01*
X9522020D01*
X9555346D02*
X9588672Y4150980D01*
X9611049Y4231915D02*
X9620570Y4236676D01*
X9634853Y4250958D01*
Y4150980D01*
X9731975Y4250958D02*
X9684366Y4184306D01*
X9755780D01*
X9731975Y4250958D02*
Y4150980D01*
X7450061Y4787860D02*
X7550040D01*
X7450061D02*
Y4830708D01*
X7454822Y4844991D01*
X7459583Y4849751D01*
X7469105Y4854512D01*
X7478627D01*
X7488149Y4849751D01*
X7492909Y4844991D01*
X7497670Y4830708D01*
Y4787860D01*
Y4821186D02*
X7550040Y4854512D01*
X7469105Y4876888D02*
X7464344Y4886410D01*
X7450061Y4900693D01*
X7550040D01*
X7450061Y4959728D02*
Y5012097D01*
X7488149Y4983532D01*
Y4997815D01*
X7492909Y5007337D01*
X7497670Y5012097D01*
X7511953Y5016858D01*
X7521475D01*
X7535757Y5012097D01*
X7545279Y5002576D01*
X7550040Y4988293D01*
Y4974010D01*
X7545279Y4959728D01*
X7540518Y4954967D01*
X7530996Y4950206D01*
X4806840Y5413619D02*
Y5313640D01*
Y5413619D02*
X4849688D01*
X4863971Y5408858D01*
X4868731Y5404097D01*
X4873492Y5394575D01*
Y5385053D01*
X4868731Y5375531D01*
X4863971Y5370771D01*
X4849688Y5366010D01*
X4806840D01*
X4840166D02*
X4873492Y5313640D01*
X4895869Y5394575D02*
X4905390Y5399336D01*
X4919673Y5413619D01*
Y5313640D01*
X4973947Y5389814D02*
Y5394575D01*
X4978708Y5404097D01*
X4983469Y5408858D01*
X4992991Y5413619D01*
X5012034D01*
X5021556Y5408858D01*
X5026317Y5404097D01*
X5031078Y5394575D01*
Y5385053D01*
X5026317Y5375531D01*
X5016795Y5361249D01*
X4969186Y5313640D01*
X5035839D01*
X9522020Y3798838D02*
Y3698860D01*
Y3798838D02*
X9564868D01*
X9579151Y3794078D01*
X9583911Y3789317D01*
X9588672Y3779795D01*
Y3770273D01*
X9583911Y3760751D01*
X9579151Y3755990D01*
X9564868Y3751229D01*
X9522020D01*
X9555346D02*
X9588672Y3698860D01*
X9611049Y3779795D02*
X9620570Y3784556D01*
X9634853Y3798838D01*
Y3698860D01*
X9684366Y3779795D02*
X9693888Y3784556D01*
X9708171Y3798838D01*
Y3698860D01*
X2304940Y5413619D02*
Y5313640D01*
Y5413619D02*
X2347788D01*
X2362071Y5408858D01*
X2366831Y5404097D01*
X2371592Y5394575D01*
Y5385053D01*
X2366831Y5375531D01*
X2362071Y5370771D01*
X2347788Y5366010D01*
X2304940D01*
X2338266D02*
X2371592Y5313640D01*
X2393969Y5394575D02*
X2403490Y5399336D01*
X2417773Y5413619D01*
Y5313640D01*
X2495851Y5413619D02*
X2481569Y5408858D01*
X2472047Y5394575D01*
X2467286Y5370771D01*
Y5356488D01*
X2472047Y5332684D01*
X2481569Y5318401D01*
X2495851Y5313640D01*
X2505373D01*
X2519656Y5318401D01*
X2529178Y5332684D01*
X2533939Y5356488D01*
Y5370771D01*
X2529178Y5394575D01*
X2519656Y5408858D01*
X2505373Y5413619D01*
X2495851D01*
X9522020Y3349258D02*
Y3249280D01*
Y3349258D02*
X9564868D01*
X9579151Y3344498D01*
X9583911Y3339737D01*
X9588672Y3330215D01*
Y3320693D01*
X9583911Y3311171D01*
X9579151Y3306410D01*
X9564868Y3301649D01*
X9522020D01*
X9555346D02*
X9588672Y3249280D01*
X9672940Y3315932D02*
X9668179Y3301649D01*
X9658658Y3292128D01*
X9644375Y3287367D01*
X9639614D01*
X9625331Y3292128D01*
X9615810Y3301649D01*
X9611049Y3315932D01*
Y3320693D01*
X9615810Y3334976D01*
X9625331Y3344498D01*
X9639614Y3349258D01*
X9644375D01*
X9658658Y3344498D01*
X9668179Y3334976D01*
X9672940Y3315932D01*
Y3292128D01*
X9668179Y3268323D01*
X9658658Y3254041D01*
X9644375Y3249280D01*
X9634853D01*
X9620570Y3254041D01*
X9615810Y3263562D01*
X5279340Y5662259D02*
Y5562280D01*
Y5662259D02*
X5322188D01*
X5336471Y5657498D01*
X5341231Y5652737D01*
X5345992Y5643215D01*
Y5633693D01*
X5341231Y5624171D01*
X5336471Y5619411D01*
X5322188Y5614650D01*
X5279340D01*
X5312666D02*
X5345992Y5562280D01*
X5392173Y5662259D02*
X5377890Y5657498D01*
X5373129Y5647976D01*
Y5638454D01*
X5377890Y5628932D01*
X5387412Y5624171D01*
X5406456Y5619411D01*
X5420738Y5614650D01*
X5430260Y5605128D01*
X5435021Y5595606D01*
Y5581324D01*
X5430260Y5571802D01*
X5425499Y5567041D01*
X5411217Y5562280D01*
X5392173D01*
X5377890Y5567041D01*
X5373129Y5571802D01*
X5368368Y5581324D01*
Y5595606D01*
X5373129Y5605128D01*
X5382651Y5614650D01*
X5396934Y5619411D01*
X5415977Y5624171D01*
X5425499Y5628932D01*
X5430260Y5638454D01*
Y5647976D01*
X5425499Y5657498D01*
X5411217Y5662259D01*
X5392173D01*
X5699060D02*
Y5562280D01*
Y5662259D02*
X5741908D01*
X5756191Y5657498D01*
X5760951Y5652737D01*
X5765712Y5643215D01*
Y5633693D01*
X5760951Y5624171D01*
X5756191Y5619411D01*
X5741908Y5614650D01*
X5699060D01*
X5732386D02*
X5765712Y5562280D01*
X5854741Y5662259D02*
X5807132Y5562280D01*
X5788088Y5662259D02*
X5854741D01*
X5489200D02*
Y5562280D01*
Y5662259D02*
X5532048D01*
X5546331Y5657498D01*
X5551091Y5652737D01*
X5555852Y5643215D01*
Y5633693D01*
X5551091Y5624171D01*
X5546331Y5619411D01*
X5532048Y5614650D01*
X5489200D01*
X5522526D02*
X5555852Y5562280D01*
X5635359Y5647976D02*
X5630598Y5657498D01*
X5616315Y5662259D01*
X5606794D01*
X5592511Y5657498D01*
X5582989Y5643215D01*
X5578228Y5619411D01*
Y5595606D01*
X5582989Y5576563D01*
X5592511Y5567041D01*
X5606794Y5562280D01*
X5611555D01*
X5625837Y5567041D01*
X5635359Y5576563D01*
X5640120Y5590845D01*
Y5595606D01*
X5635359Y5609889D01*
X5625837Y5619411D01*
X5611555Y5624171D01*
X5606794D01*
X5592511Y5619411D01*
X5582989Y5609889D01*
X5578228Y5595606D01*
X6118780Y5662259D02*
Y5562280D01*
Y5662259D02*
X6161628D01*
X6175911Y5657498D01*
X6180671Y5652737D01*
X6185432Y5643215D01*
Y5633693D01*
X6180671Y5624171D01*
X6175911Y5619411D01*
X6161628Y5614650D01*
X6118780D01*
X6152106D02*
X6185432Y5562280D01*
X6264939Y5662259D02*
X6217330D01*
X6212569Y5619411D01*
X6217330Y5624171D01*
X6231613Y5628932D01*
X6245896D01*
X6260178Y5624171D01*
X6269700Y5614650D01*
X6274461Y5600367D01*
Y5590845D01*
X6269700Y5576563D01*
X6260178Y5567041D01*
X6245896Y5562280D01*
X6231613D01*
X6217330Y5567041D01*
X6212569Y5571802D01*
X6207809Y5581324D01*
X5908920Y5662259D02*
Y5562280D01*
Y5662259D02*
X5951768D01*
X5966051Y5657498D01*
X5970812Y5652737D01*
X5975573Y5643215D01*
Y5633693D01*
X5970812Y5624171D01*
X5966051Y5619411D01*
X5951768Y5614650D01*
X5908920D01*
X5942246D02*
X5975573Y5562280D01*
X6045558Y5662259D02*
X5997949Y5595606D01*
X6069362D01*
X6045558Y5662259D02*
Y5562280D01*
X6084460Y6291239D02*
Y6191260D01*
Y6291239D02*
X6127308D01*
X6141591Y6286478D01*
X6146351Y6281717D01*
X6151112Y6272195D01*
Y6262673D01*
X6146351Y6253151D01*
X6141591Y6248391D01*
X6127308Y6243630D01*
X6084460D01*
X6117786D02*
X6151112Y6191260D01*
X6183010Y6291239D02*
X6235380D01*
X6206815Y6253151D01*
X6221098D01*
X6230619Y6248391D01*
X6235380Y6243630D01*
X6240141Y6229347D01*
Y6219825D01*
X6235380Y6205543D01*
X6225858Y6196021D01*
X6211576Y6191260D01*
X6197293D01*
X6183010Y6196021D01*
X6178250Y6200782D01*
X6173489Y6210304D01*
X6084460Y6069319D02*
Y5969340D01*
Y6069319D02*
X6127308D01*
X6141591Y6064558D01*
X6146351Y6059797D01*
X6151112Y6050275D01*
Y6040753D01*
X6146351Y6031231D01*
X6141591Y6026471D01*
X6127308Y6021710D01*
X6084460D01*
X6117786D02*
X6151112Y5969340D01*
X6178250Y6045514D02*
Y6050275D01*
X6183010Y6059797D01*
X6187771Y6064558D01*
X6197293Y6069319D01*
X6216337D01*
X6225858Y6064558D01*
X6230619Y6059797D01*
X6235380Y6050275D01*
Y6040753D01*
X6230619Y6031231D01*
X6221098Y6016949D01*
X6173489Y5969340D01*
X6240141D01*
X6084460Y5849939D02*
Y5749960D01*
Y5849939D02*
X6127308D01*
X6141591Y5845178D01*
X6146351Y5840417D01*
X6151112Y5830895D01*
Y5821373D01*
X6146351Y5811851D01*
X6141591Y5807090D01*
X6127308Y5802330D01*
X6084460D01*
X6117786D02*
X6151112Y5749960D01*
X6173489Y5830895D02*
X6183010Y5835656D01*
X6197293Y5849939D01*
Y5749960D01*
X4045465Y6754739D02*
X4035944Y6749978D01*
X4026422Y6740456D01*
X4021661Y6730934D01*
X4016900Y6716651D01*
Y6692847D01*
X4021661Y6678564D01*
X4026422Y6669043D01*
X4035944Y6659521D01*
X4045465Y6654760D01*
X4064509D01*
X4074031Y6659521D01*
X4083552Y6669043D01*
X4088313Y6678564D01*
X4093074Y6692847D01*
Y6716651D01*
X4088313Y6730934D01*
X4083552Y6740456D01*
X4074031Y6749978D01*
X4064509Y6754739D01*
X4045465D01*
X4059748Y6673804D02*
X4088313Y6645238D01*
X4125924Y6754739D02*
X4178294D01*
X4149729Y6716651D01*
X4164011D01*
X4173533Y6711891D01*
X4178294Y6707130D01*
X4183055Y6692847D01*
Y6683325D01*
X4178294Y6669043D01*
X4168772Y6659521D01*
X4154490Y6654760D01*
X4140207D01*
X4125924Y6659521D01*
X4121163Y6664282D01*
X4116402Y6673804D01*
X5396745Y4697339D02*
X5387224Y4692578D01*
X5377702Y4683056D01*
X5372941Y4673534D01*
X5368180Y4659251D01*
Y4635447D01*
X5372941Y4621164D01*
X5377702Y4611643D01*
X5387224Y4602121D01*
X5396745Y4597360D01*
X5415789D01*
X5425311Y4602121D01*
X5434832Y4611643D01*
X5439593Y4621164D01*
X5444354Y4635447D01*
Y4659251D01*
X5439593Y4673534D01*
X5434832Y4683056D01*
X5425311Y4692578D01*
X5415789Y4697339D01*
X5396745D01*
X5411028Y4616404D02*
X5439593Y4587838D01*
X5472443Y4673534D02*
Y4678295D01*
X5477204Y4687817D01*
X5481965Y4692578D01*
X5491487Y4697339D01*
X5510531D01*
X5520052Y4692578D01*
X5524813Y4687817D01*
X5529574Y4678295D01*
Y4668773D01*
X5524813Y4659251D01*
X5515291Y4644969D01*
X5467682Y4597360D01*
X5534335D01*
X2917705Y4697339D02*
X2908184Y4692578D01*
X2898662Y4683056D01*
X2893901Y4673534D01*
X2889140Y4659251D01*
Y4635447D01*
X2893901Y4621164D01*
X2898662Y4611643D01*
X2908184Y4602121D01*
X2917705Y4597360D01*
X2936749D01*
X2946271Y4602121D01*
X2955792Y4611643D01*
X2960553Y4621164D01*
X2965314Y4635447D01*
Y4659251D01*
X2960553Y4673534D01*
X2955792Y4683056D01*
X2946271Y4692578D01*
X2936749Y4697339D01*
X2917705D01*
X2931988Y4616404D02*
X2960553Y4587838D01*
X2988642Y4678295D02*
X2998164Y4683056D01*
X3012447Y4697339D01*
Y4597360D01*
X1322900Y4593199D02*
Y4493220D01*
X1380031D01*
X1395742Y4569394D02*
Y4574155D01*
X1400502Y4583677D01*
X1405263Y4588438D01*
X1414785Y4593199D01*
X1433829D01*
X1443350Y4588438D01*
X1448111Y4583677D01*
X1452872Y4574155D01*
Y4564633D01*
X1448111Y4555111D01*
X1438590Y4540829D01*
X1390981Y4493220D01*
X1457633D01*
X8662560Y5898759D02*
Y5798780D01*
X8719691D01*
X8730641Y5879715D02*
X8740162Y5884476D01*
X8754445Y5898759D01*
Y5798780D01*
X8428229Y2248779D02*
Y2172604D01*
X8423468Y2158322D01*
X8418707Y2153561D01*
X8409185Y2148800D01*
X8399664D01*
X8390142Y2153561D01*
X8385381Y2158322D01*
X8380620Y2172604D01*
Y2182126D01*
X8501547Y2248779D02*
X8453938Y2182126D01*
X8525351D01*
X8501547Y2248779D02*
Y2148800D01*
X1422909Y2149719D02*
Y2073544D01*
X1418148Y2059262D01*
X1413387Y2054501D01*
X1403865Y2049740D01*
X1394344D01*
X1384822Y2054501D01*
X1380061Y2059262D01*
X1375300Y2073544D01*
Y2083066D01*
X1458139Y2149719D02*
X1510509D01*
X1481944Y2111631D01*
X1496227D01*
X1505748Y2106871D01*
X1510509Y2102110D01*
X1515270Y2087827D01*
Y2078305D01*
X1510509Y2064023D01*
X1500987Y2054501D01*
X1486705Y2049740D01*
X1472422D01*
X1458139Y2054501D01*
X1453379Y2059262D01*
X1448618Y2068784D01*
X1201929Y5550779D02*
Y5474604D01*
X1197168Y5460322D01*
X1192407Y5455561D01*
X1182885Y5450800D01*
X1173364D01*
X1163842Y5455561D01*
X1159081Y5460322D01*
X1154320Y5474604D01*
Y5484126D01*
X1232399Y5526974D02*
Y5531735D01*
X1237159Y5541257D01*
X1241920Y5546018D01*
X1251442Y5550779D01*
X1270486D01*
X1280007Y5546018D01*
X1284768Y5541257D01*
X1289529Y5531735D01*
Y5522213D01*
X1284768Y5512691D01*
X1275247Y5498409D01*
X1227638Y5450800D01*
X1294290D01*
X8550149Y7371959D02*
Y7295784D01*
X8545388Y7281502D01*
X8540627Y7276741D01*
X8531105Y7271980D01*
X8521584D01*
X8512062Y7276741D01*
X8507301Y7281502D01*
X8502540Y7295784D01*
Y7305306D01*
X8575858Y7352915D02*
X8585379Y7357676D01*
X8599662Y7371959D01*
Y7271980D01*
X4806840Y7260199D02*
Y7160220D01*
Y7260199D02*
X4840166D01*
X4854449Y7255438D01*
X4863971Y7245916D01*
X4868731Y7236394D01*
X4873492Y7222111D01*
Y7198307D01*
X4868731Y7184024D01*
X4863971Y7174503D01*
X4854449Y7164981D01*
X4840166Y7160220D01*
X4806840D01*
X4943478Y7260199D02*
X4895869Y7193546D01*
X4967282D01*
X4943478Y7260199D02*
Y7160220D01*
X3610500Y7260199D02*
Y7160220D01*
Y7260199D02*
X3643826D01*
X3658109Y7255438D01*
X3667631Y7245916D01*
X3672391Y7236394D01*
X3677152Y7222111D01*
Y7198307D01*
X3672391Y7184024D01*
X3667631Y7174503D01*
X3658109Y7164981D01*
X3643826Y7160220D01*
X3610500D01*
X3709050Y7260199D02*
X3761420D01*
X3732855Y7222111D01*
X3747138D01*
X3756659Y7217351D01*
X3761420Y7212590D01*
X3766181Y7198307D01*
Y7188785D01*
X3761420Y7174503D01*
X3751898Y7164981D01*
X3737616Y7160220D01*
X3723333D01*
X3709050Y7164981D01*
X3704290Y7169742D01*
X3699529Y7179264D01*
X7928500Y1722999D02*
Y1623020D01*
Y1722999D02*
X7961826D01*
X7976109Y1718238D01*
X7985631Y1708716D01*
X7990391Y1699194D01*
X7995152Y1684911D01*
Y1661107D01*
X7990391Y1646824D01*
X7985631Y1637303D01*
X7976109Y1627781D01*
X7961826Y1623020D01*
X7928500D01*
X8022290Y1699194D02*
Y1703955D01*
X8027050Y1713477D01*
X8031811Y1718238D01*
X8041333Y1722999D01*
X8060377D01*
X8069898Y1718238D01*
X8074659Y1713477D01*
X8079420Y1703955D01*
Y1694433D01*
X8074659Y1684911D01*
X8065138Y1670629D01*
X8017529Y1623020D01*
X8084181D01*
X7242700Y783199D02*
Y683220D01*
Y783199D02*
X7276026D01*
X7290309Y778438D01*
X7299831Y768916D01*
X7304591Y759394D01*
X7309352Y745111D01*
Y721307D01*
X7304591Y707024D01*
X7299831Y697503D01*
X7290309Y687981D01*
X7276026Y683220D01*
X7242700D01*
X7331729Y764155D02*
X7341250Y768916D01*
X7355533Y783199D01*
Y683220D01*
X959722Y2951185D02*
X954961Y2960707D01*
X945439Y2970229D01*
X935917Y2974989D01*
X916874D01*
X907352Y2970229D01*
X897830Y2960707D01*
X893069Y2951185D01*
X888308Y2936902D01*
Y2913098D01*
X893069Y2898815D01*
X897830Y2889293D01*
X907352Y2879772D01*
X916874Y2875011D01*
X935917D01*
X945439Y2879772D01*
X954961Y2889293D01*
X959722Y2898815D01*
X997333Y2974989D02*
X1049702D01*
X1021137Y2936902D01*
X1035420D01*
X1044942Y2932141D01*
X1049702Y2927380D01*
X1054463Y2913098D01*
Y2903576D01*
X1049702Y2889293D01*
X1040181Y2879772D01*
X1025898Y2875011D01*
X1011615D01*
X997333Y2879772D01*
X992572Y2884532D01*
X987811Y2894054D01*
X1105405Y2974989D02*
X1091122Y2970229D01*
X1081600Y2955946D01*
X1076839Y2932141D01*
Y2917859D01*
X1081600Y2894054D01*
X1091122Y2879772D01*
X1105405Y2875011D01*
X1114926D01*
X1129209Y2879772D01*
X1138731Y2894054D01*
X1143492Y2917859D01*
Y2932141D01*
X1138731Y2955946D01*
X1129209Y2970229D01*
X1114926Y2974989D01*
X1105405D01*
X981146Y2776185D02*
X976385Y2785707D01*
X966863Y2795229D01*
X957341Y2799990D01*
X938298D01*
X928776Y2795229D01*
X919254Y2785707D01*
X914493Y2776185D01*
X909732Y2761902D01*
Y2738098D01*
X914493Y2723815D01*
X919254Y2714294D01*
X928776Y2704772D01*
X938298Y2700011D01*
X957341D01*
X966863Y2704772D01*
X976385Y2714294D01*
X981146Y2723815D01*
X1018756Y2799990D02*
X1071126D01*
X1042561Y2761902D01*
X1056844D01*
X1066365Y2757142D01*
X1071126Y2752381D01*
X1075887Y2738098D01*
Y2728576D01*
X1071126Y2714294D01*
X1061604Y2704772D01*
X1047322Y2700011D01*
X1033039D01*
X1018756Y2704772D01*
X1013996Y2709533D01*
X1009235Y2719055D01*
X1098263Y2780946D02*
X1107785Y2785707D01*
X1122068Y2799990D01*
Y2700011D01*
X489722Y2776185D02*
X484961Y2785707D01*
X475439Y2795229D01*
X465918Y2799990D01*
X446874D01*
X437352Y2795229D01*
X427830Y2785707D01*
X423070Y2776185D01*
X418309Y2761902D01*
Y2738098D01*
X423070Y2723815D01*
X427830Y2714294D01*
X437352Y2704772D01*
X446874Y2700011D01*
X465918D01*
X475439Y2704772D01*
X484961Y2714294D01*
X489722Y2723815D01*
X522572Y2776185D02*
Y2780946D01*
X527333Y2790468D01*
X532094Y2795229D01*
X541615Y2799990D01*
X560659D01*
X570181Y2795229D01*
X574942Y2790468D01*
X579702Y2780946D01*
Y2771424D01*
X574942Y2761902D01*
X565420Y2747620D01*
X517811Y2700011D01*
X584463D01*
X673492Y2799990D02*
X625883Y2700011D01*
X606840Y2799990D02*
X673492D01*
X492102Y2951185D02*
X487341Y2960707D01*
X477820Y2970229D01*
X468298Y2974989D01*
X449254D01*
X439733Y2970229D01*
X430211Y2960707D01*
X425450Y2951185D01*
X420689Y2936902D01*
Y2913098D01*
X425450Y2898815D01*
X430211Y2889293D01*
X439733Y2879772D01*
X449254Y2875011D01*
X468298D01*
X477820Y2879772D01*
X487341Y2889293D01*
X492102Y2898815D01*
X524952Y2951185D02*
Y2955946D01*
X529713Y2965468D01*
X534474Y2970229D01*
X543996Y2974989D01*
X563040D01*
X572561Y2970229D01*
X577322Y2965468D01*
X582083Y2955946D01*
Y2946424D01*
X577322Y2936902D01*
X567800Y2922620D01*
X520191Y2875011D01*
X586844D01*
X666351Y2960707D02*
X661590Y2970229D01*
X647307Y2974989D01*
X637785D01*
X623503Y2970229D01*
X613981Y2955946D01*
X609220Y2932141D01*
Y2908337D01*
X613981Y2889293D01*
X623503Y2879772D01*
X637785Y2875011D01*
X642546D01*
X656829Y2879772D01*
X666351Y2889293D01*
X671111Y2903576D01*
Y2908337D01*
X666351Y2922620D01*
X656829Y2932141D01*
X642546Y2936902D01*
X637785D01*
X623503Y2932141D01*
X613981Y2922620D01*
X609220Y2908337D01*
X2411913Y6626794D02*
X2407152Y6636316D01*
X2397631Y6645838D01*
X2388109Y6650599D01*
X2369065D01*
X2359544Y6645838D01*
X2350022Y6636316D01*
X2345261Y6626794D01*
X2340500Y6612511D01*
Y6588707D01*
X2345261Y6574424D01*
X2350022Y6564903D01*
X2359544Y6555381D01*
X2369065Y6550620D01*
X2388109D01*
X2397631Y6555381D01*
X2407152Y6564903D01*
X2411913Y6574424D01*
X2444763Y6626794D02*
Y6631555D01*
X2449524Y6641077D01*
X2454285Y6645838D01*
X2463807Y6650599D01*
X2482851D01*
X2492372Y6645838D01*
X2497133Y6641077D01*
X2501894Y6631555D01*
Y6622033D01*
X2497133Y6612511D01*
X2487611Y6598229D01*
X2440002Y6550620D01*
X2506655D01*
X2576640Y6650599D02*
X2529031Y6583946D01*
X2600444D01*
X2576640Y6650599D02*
Y6550620D01*
X5569133Y6456614D02*
X5564372Y6466136D01*
X5554851Y6475658D01*
X5545329Y6480419D01*
X5526285D01*
X5516764Y6475658D01*
X5507242Y6466136D01*
X5502481Y6456614D01*
X5497720Y6442331D01*
Y6418527D01*
X5502481Y6404244D01*
X5507242Y6394723D01*
X5516764Y6385201D01*
X5526285Y6380440D01*
X5545329D01*
X5554851Y6385201D01*
X5564372Y6394723D01*
X5569133Y6404244D01*
X5601983Y6456614D02*
Y6461375D01*
X5606744Y6470897D01*
X5611505Y6475658D01*
X5621027Y6480419D01*
X5640071D01*
X5649592Y6475658D01*
X5654353Y6470897D01*
X5659114Y6461375D01*
Y6451853D01*
X5654353Y6442331D01*
X5644831Y6428049D01*
X5597222Y6380440D01*
X5663875D01*
X5695773Y6480419D02*
X5748142D01*
X5719577Y6442331D01*
X5733860D01*
X5743382Y6437571D01*
X5748142Y6432810D01*
X5752903Y6418527D01*
Y6409005D01*
X5748142Y6394723D01*
X5738621Y6385201D01*
X5724338Y6380440D01*
X5710055D01*
X5695773Y6385201D01*
X5691012Y6389962D01*
X5686251Y6399484D01*
X3857173Y6456614D02*
X3852412Y6466136D01*
X3842891Y6475658D01*
X3833369Y6480419D01*
X3814325D01*
X3804804Y6475658D01*
X3795282Y6466136D01*
X3790521Y6456614D01*
X3785760Y6442331D01*
Y6418527D01*
X3790521Y6404244D01*
X3795282Y6394723D01*
X3804804Y6385201D01*
X3814325Y6380440D01*
X3833369D01*
X3842891Y6385201D01*
X3852412Y6394723D01*
X3857173Y6404244D01*
X3890023Y6456614D02*
Y6461375D01*
X3894784Y6470897D01*
X3899545Y6475658D01*
X3909067Y6480419D01*
X3928111D01*
X3937632Y6475658D01*
X3942393Y6470897D01*
X3947154Y6461375D01*
Y6451853D01*
X3942393Y6442331D01*
X3932871Y6428049D01*
X3885262Y6380440D01*
X3951915D01*
X3979052Y6456614D02*
Y6461375D01*
X3983813Y6470897D01*
X3988574Y6475658D01*
X3998095Y6480419D01*
X4017139D01*
X4026661Y6475658D01*
X4031422Y6470897D01*
X4036182Y6461375D01*
Y6451853D01*
X4031422Y6442331D01*
X4021900Y6428049D01*
X3974291Y6380440D01*
X4040943D01*
X8474626Y4706873D02*
X8465104Y4702112D01*
X8455582Y4692591D01*
X8450821Y4683069D01*
Y4664025D01*
X8455582Y4654504D01*
X8465104Y4644982D01*
X8474626Y4640221D01*
X8488909Y4635460D01*
X8512713D01*
X8526996Y4640221D01*
X8536517Y4644982D01*
X8546039Y4654504D01*
X8550800Y4664025D01*
Y4683069D01*
X8546039Y4692591D01*
X8536517Y4702112D01*
X8526996Y4706873D01*
X8474626Y4739723D02*
X8469865D01*
X8460343Y4744484D01*
X8455582Y4749245D01*
X8450821Y4758767D01*
Y4777810D01*
X8455582Y4787332D01*
X8460343Y4792093D01*
X8469865Y4796854D01*
X8479387D01*
X8488909Y4792093D01*
X8503191Y4782571D01*
X8550800Y4734962D01*
Y4801615D01*
X8469865Y4823991D02*
X8465104Y4833513D01*
X8450821Y4847795D01*
X8550800D01*
X8223166Y4663693D02*
X8213644Y4658932D01*
X8204122Y4649411D01*
X8199361Y4639889D01*
Y4620845D01*
X8204122Y4611324D01*
X8213644Y4601802D01*
X8223166Y4597041D01*
X8237449Y4592280D01*
X8261253D01*
X8275536Y4597041D01*
X8285057Y4601802D01*
X8294579Y4611324D01*
X8299340Y4620845D01*
Y4639889D01*
X8294579Y4649411D01*
X8285057Y4658932D01*
X8275536Y4663693D01*
X8223166Y4696543D02*
X8218405D01*
X8208883Y4701304D01*
X8204122Y4706065D01*
X8199361Y4715587D01*
Y4734630D01*
X8204122Y4744152D01*
X8208883Y4748913D01*
X8218405Y4753674D01*
X8227927D01*
X8237449Y4748913D01*
X8251731Y4739391D01*
X8299340Y4691782D01*
Y4758435D01*
X8199361Y4809376D02*
X8204122Y4795094D01*
X8218405Y4785572D01*
X8242209Y4780811D01*
X8256492D01*
X8280296Y4785572D01*
X8294579Y4795094D01*
X8299340Y4809376D01*
Y4818898D01*
X8294579Y4833181D01*
X8280296Y4842702D01*
X8256492Y4847463D01*
X8242209D01*
X8218405Y4842702D01*
X8204122Y4833181D01*
X8199361Y4818898D01*
Y4809376D01*
X7974246Y4684013D02*
X7964724Y4679252D01*
X7955202Y4669731D01*
X7950441Y4660209D01*
Y4641165D01*
X7955202Y4631644D01*
X7964724Y4622122D01*
X7974246Y4617361D01*
X7988529Y4612600D01*
X8012333D01*
X8026616Y4617361D01*
X8036137Y4622122D01*
X8045659Y4631644D01*
X8050420Y4641165D01*
Y4660209D01*
X8045659Y4669731D01*
X8036137Y4679252D01*
X8026616Y4684013D01*
X7969485Y4712102D02*
X7964724Y4721624D01*
X7950441Y4735907D01*
X8050420D01*
X7983768Y4847311D02*
X7998050Y4842551D01*
X8007572Y4833029D01*
X8012333Y4818746D01*
Y4813985D01*
X8007572Y4799703D01*
X7998050Y4790181D01*
X7983768Y4785420D01*
X7979007D01*
X7964724Y4790181D01*
X7955202Y4799703D01*
X7950441Y4813985D01*
Y4818746D01*
X7955202Y4833029D01*
X7964724Y4842551D01*
X7983768Y4847311D01*
X8007572D01*
X8031376Y4842551D01*
X8045659Y4833029D01*
X8050420Y4818746D01*
Y4809224D01*
X8045659Y4794942D01*
X8036137Y4790181D01*
X2434773Y7525954D02*
X2430012Y7535476D01*
X2420491Y7544998D01*
X2410969Y7549759D01*
X2391925D01*
X2382404Y7544998D01*
X2372882Y7535476D01*
X2368121Y7525954D01*
X2363360Y7511671D01*
Y7487867D01*
X2368121Y7473584D01*
X2372882Y7464063D01*
X2382404Y7454541D01*
X2391925Y7449780D01*
X2410969D01*
X2420491Y7454541D01*
X2430012Y7464063D01*
X2434773Y7473584D01*
X2462862Y7530715D02*
X2472384Y7535476D01*
X2486667Y7549759D01*
Y7449780D01*
X2559984Y7549759D02*
X2545702Y7544998D01*
X2540941Y7535476D01*
Y7525954D01*
X2545702Y7516432D01*
X2555224Y7511671D01*
X2574267Y7506911D01*
X2588550Y7502150D01*
X2598072Y7492628D01*
X2602832Y7483106D01*
Y7468824D01*
X2598072Y7459302D01*
X2593311Y7454541D01*
X2579028Y7449780D01*
X2559984D01*
X2545702Y7454541D01*
X2540941Y7459302D01*
X2536180Y7468824D01*
Y7483106D01*
X2540941Y7492628D01*
X2550463Y7502150D01*
X2564745Y7506911D01*
X2583789Y7511671D01*
X2593311Y7516432D01*
X2598072Y7525954D01*
Y7535476D01*
X2593311Y7544998D01*
X2579028Y7549759D01*
X2559984D01*
X8788253Y5575894D02*
X8783492Y5585416D01*
X8773971Y5594938D01*
X8764449Y5599698D01*
X8745405D01*
X8735884Y5594938D01*
X8726362Y5585416D01*
X8721601Y5575894D01*
X8716840Y5561611D01*
Y5537807D01*
X8721601Y5523524D01*
X8726362Y5514002D01*
X8735884Y5504481D01*
X8745405Y5499720D01*
X8764449D01*
X8773971Y5504481D01*
X8783492Y5514002D01*
X8788253Y5523524D01*
X8816343Y5580655D02*
X8825864Y5585416D01*
X8840147Y5599698D01*
Y5499720D01*
X8956313Y5599698D02*
X8908704Y5499720D01*
X8889660Y5599698D02*
X8956313D01*
X8793333Y5126314D02*
X8788572Y5135836D01*
X8779051Y5145358D01*
X8769529Y5150118D01*
X8750485D01*
X8740964Y5145358D01*
X8731442Y5135836D01*
X8726681Y5126314D01*
X8721920Y5112031D01*
Y5088227D01*
X8726681Y5073944D01*
X8731442Y5064422D01*
X8740964Y5054901D01*
X8750485Y5050140D01*
X8769529D01*
X8779051Y5054901D01*
X8788572Y5064422D01*
X8793333Y5073944D01*
X8821423Y5131075D02*
X8830944Y5135836D01*
X8845227Y5150118D01*
Y5050140D01*
X8951871Y5135836D02*
X8947110Y5145358D01*
X8932827Y5150118D01*
X8923305D01*
X8909023Y5145358D01*
X8899501Y5131075D01*
X8894740Y5107270D01*
Y5083466D01*
X8899501Y5064422D01*
X8909023Y5054901D01*
X8923305Y5050140D01*
X8928066D01*
X8942349Y5054901D01*
X8951871Y5064422D01*
X8956632Y5078705D01*
Y5083466D01*
X8951871Y5097749D01*
X8942349Y5107270D01*
X8928066Y5112031D01*
X8923305D01*
X8909023Y5107270D01*
X8899501Y5097749D01*
X8894740Y5083466D01*
X7034713Y5426974D02*
X7029952Y5436496D01*
X7020431Y5446018D01*
X7010909Y5450779D01*
X6991865D01*
X6982344Y5446018D01*
X6972822Y5436496D01*
X6968061Y5426974D01*
X6963300Y5412691D01*
Y5388887D01*
X6968061Y5374604D01*
X6972822Y5365082D01*
X6982344Y5355561D01*
X6991865Y5350800D01*
X7010909D01*
X7020431Y5355561D01*
X7029952Y5365082D01*
X7034713Y5374604D01*
X7062802Y5431735D02*
X7072324Y5436496D01*
X7086607Y5450779D01*
Y5350800D01*
X7193251Y5450779D02*
X7145642D01*
X7140881Y5407931D01*
X7145642Y5412691D01*
X7159924Y5417452D01*
X7174207D01*
X7188490Y5412691D01*
X7198012Y5403170D01*
X7202772Y5388887D01*
Y5379365D01*
X7198012Y5365082D01*
X7188490Y5355561D01*
X7174207Y5350800D01*
X7159924D01*
X7145642Y5355561D01*
X7140881Y5360322D01*
X7136120Y5369843D01*
X8783173Y4676734D02*
X8778412Y4686256D01*
X8768891Y4695778D01*
X8759369Y4700538D01*
X8740325D01*
X8730804Y4695778D01*
X8721282Y4686256D01*
X8716521Y4676734D01*
X8711760Y4662451D01*
Y4638647D01*
X8716521Y4624364D01*
X8721282Y4614842D01*
X8730804Y4605321D01*
X8740325Y4600560D01*
X8759369D01*
X8768891Y4605321D01*
X8778412Y4614842D01*
X8783173Y4624364D01*
X8811263Y4681495D02*
X8820784Y4686256D01*
X8835067Y4700538D01*
Y4600560D01*
X8932189Y4700538D02*
X8884580Y4633886D01*
X8955994D01*
X8932189Y4700538D02*
Y4600560D01*
X7773586Y5970853D02*
X7764064Y5966092D01*
X7754542Y5956571D01*
X7749781Y5947049D01*
Y5928005D01*
X7754542Y5918483D01*
X7764064Y5908962D01*
X7773586Y5904201D01*
X7787869Y5899440D01*
X7811673D01*
X7825956Y5904201D01*
X7835477Y5908962D01*
X7844999Y5918483D01*
X7849760Y5928005D01*
Y5947049D01*
X7844999Y5956571D01*
X7835477Y5966092D01*
X7825956Y5970853D01*
X7768825Y5998942D02*
X7764064Y6008464D01*
X7749781Y6022747D01*
X7849760D01*
X7749781Y6081782D02*
Y6134151D01*
X7787869Y6105586D01*
Y6119869D01*
X7792629Y6129391D01*
X7797390Y6134151D01*
X7811673Y6138912D01*
X7821195D01*
X7835477Y6134151D01*
X7844999Y6124630D01*
X7849760Y6110347D01*
Y6096064D01*
X7844999Y6081782D01*
X7840238Y6077021D01*
X7830716Y6072260D01*
X7100893Y2674554D02*
X7096132Y2684076D01*
X7086611Y2693598D01*
X7077089Y2698359D01*
X7058045D01*
X7048524Y2693598D01*
X7039002Y2684076D01*
X7034241Y2674554D01*
X7029480Y2660271D01*
Y2636467D01*
X7034241Y2622184D01*
X7039002Y2612663D01*
X7048524Y2603141D01*
X7058045Y2598380D01*
X7077089D01*
X7086611Y2603141D01*
X7096132Y2612663D01*
X7100893Y2622184D01*
X7128982Y2679315D02*
X7138504Y2684076D01*
X7152787Y2698359D01*
Y2598380D01*
X7207061Y2674554D02*
Y2679315D01*
X7211822Y2688837D01*
X7216583Y2693598D01*
X7226104Y2698359D01*
X7245148D01*
X7254670Y2693598D01*
X7259431Y2688837D01*
X7264191Y2679315D01*
Y2669793D01*
X7259431Y2660271D01*
X7249909Y2645989D01*
X7202300Y2598380D01*
X7268952D01*
X8831433Y4227154D02*
X8826672Y4236676D01*
X8817151Y4246198D01*
X8807629Y4250958D01*
X8788585D01*
X8779064Y4246198D01*
X8769542Y4236676D01*
X8764781Y4227154D01*
X8760020Y4212871D01*
Y4189067D01*
X8764781Y4174784D01*
X8769542Y4165262D01*
X8779064Y4155741D01*
X8788585Y4150980D01*
X8807629D01*
X8817151Y4155741D01*
X8826672Y4165262D01*
X8831433Y4174784D01*
X8859523Y4231915D02*
X8869044Y4236676D01*
X8883327Y4250958D01*
Y4150980D01*
X8932840Y4231915D02*
X8942362Y4236676D01*
X8956645Y4250958D01*
Y4150980D01*
X7452213Y2674554D02*
X7447452Y2684076D01*
X7437931Y2693598D01*
X7428409Y2698359D01*
X7409365D01*
X7399844Y2693598D01*
X7390322Y2684076D01*
X7385561Y2674554D01*
X7380800Y2660271D01*
Y2636467D01*
X7385561Y2622184D01*
X7390322Y2612663D01*
X7399844Y2603141D01*
X7409365Y2598380D01*
X7428409D01*
X7437931Y2603141D01*
X7447452Y2612663D01*
X7452213Y2622184D01*
X7480303Y2679315D02*
X7489824Y2684076D01*
X7504107Y2698359D01*
Y2598380D01*
X7582185Y2698359D02*
X7567903Y2693598D01*
X7558381Y2679315D01*
X7553620Y2655511D01*
Y2641228D01*
X7558381Y2617424D01*
X7567903Y2603141D01*
X7582185Y2598380D01*
X7591707D01*
X7605990Y2603141D01*
X7615512Y2617424D01*
X7620273Y2641228D01*
Y2655511D01*
X7615512Y2679315D01*
X7605990Y2693598D01*
X7591707Y2698359D01*
X7582185D01*
X8866993Y3775034D02*
X8862232Y3784556D01*
X8852711Y3794078D01*
X8843189Y3798838D01*
X8824145D01*
X8814624Y3794078D01*
X8805102Y3784556D01*
X8800341Y3775034D01*
X8795580Y3760751D01*
Y3736947D01*
X8800341Y3722664D01*
X8805102Y3713142D01*
X8814624Y3703621D01*
X8824145Y3698860D01*
X8843189D01*
X8852711Y3703621D01*
X8862232Y3713142D01*
X8866993Y3722664D01*
X8956974Y3765512D02*
X8952213Y3751229D01*
X8942692Y3741708D01*
X8928409Y3736947D01*
X8923648D01*
X8909365Y3741708D01*
X8899844Y3751229D01*
X8895083Y3765512D01*
Y3770273D01*
X8899844Y3784556D01*
X8909365Y3794078D01*
X8923648Y3798838D01*
X8928409D01*
X8942692Y3794078D01*
X8952213Y3784556D01*
X8956974Y3765512D01*
Y3741708D01*
X8952213Y3717903D01*
X8942692Y3703621D01*
X8928409Y3698860D01*
X8918887D01*
X8904604Y3703621D01*
X8899844Y3713142D01*
X7839093Y2674554D02*
X7834332Y2684076D01*
X7824811Y2693598D01*
X7815289Y2698359D01*
X7796245D01*
X7786724Y2693598D01*
X7777202Y2684076D01*
X7772441Y2674554D01*
X7767680Y2660271D01*
Y2636467D01*
X7772441Y2622184D01*
X7777202Y2612663D01*
X7786724Y2603141D01*
X7796245Y2598380D01*
X7815289D01*
X7824811Y2603141D01*
X7834332Y2612663D01*
X7839093Y2622184D01*
X7890987Y2698359D02*
X7876704Y2693598D01*
X7871943Y2684076D01*
Y2674554D01*
X7876704Y2665032D01*
X7886226Y2660271D01*
X7905269Y2655511D01*
X7919552Y2650750D01*
X7929074Y2641228D01*
X7933835Y2631706D01*
Y2617424D01*
X7929074Y2607902D01*
X7924313Y2603141D01*
X7910030Y2598380D01*
X7890987D01*
X7876704Y2603141D01*
X7871943Y2607902D01*
X7867182Y2617424D01*
Y2631706D01*
X7871943Y2641228D01*
X7881465Y2650750D01*
X7895748Y2655511D01*
X7914791Y2660271D01*
X7924313Y2665032D01*
X7929074Y2674554D01*
Y2684076D01*
X7924313Y2693598D01*
X7910030Y2698359D01*
X7890987D01*
X8861913Y3325454D02*
X8857152Y3334976D01*
X8847631Y3344498D01*
X8838109Y3349258D01*
X8819065D01*
X8809544Y3344498D01*
X8800022Y3334976D01*
X8795261Y3325454D01*
X8790500Y3311171D01*
Y3287367D01*
X8795261Y3273084D01*
X8800022Y3263562D01*
X8809544Y3254041D01*
X8819065Y3249280D01*
X8838109D01*
X8847631Y3254041D01*
X8857152Y3263562D01*
X8861913Y3273084D01*
X8956655Y3349258D02*
X8909046Y3249280D01*
X8890003Y3349258D02*
X8956655D01*
X8190413Y2674554D02*
X8185652Y2684076D01*
X8176131Y2693598D01*
X8166609Y2698359D01*
X8147565D01*
X8138044Y2693598D01*
X8128522Y2684076D01*
X8123761Y2674554D01*
X8119000Y2660271D01*
Y2636467D01*
X8123761Y2622184D01*
X8128522Y2612663D01*
X8138044Y2603141D01*
X8147565Y2598380D01*
X8166609D01*
X8176131Y2603141D01*
X8185652Y2612663D01*
X8190413Y2622184D01*
X8275633Y2684076D02*
X8270872Y2693598D01*
X8256590Y2698359D01*
X8247068D01*
X8232785Y2693598D01*
X8223263Y2679315D01*
X8218502Y2655511D01*
Y2631706D01*
X8223263Y2612663D01*
X8232785Y2603141D01*
X8247068Y2598380D01*
X8251829D01*
X8266111Y2603141D01*
X8275633Y2612663D01*
X8280394Y2626945D01*
Y2631706D01*
X8275633Y2645989D01*
X8266111Y2655511D01*
X8251829Y2660271D01*
X8247068D01*
X8232785Y2655511D01*
X8223263Y2645989D01*
X8218502Y2631706D01*
X2587173Y3578794D02*
X2582412Y3588316D01*
X2572891Y3597838D01*
X2563369Y3602599D01*
X2544325D01*
X2534804Y3597838D01*
X2525282Y3588316D01*
X2520521Y3578794D01*
X2515760Y3564511D01*
Y3540707D01*
X2520521Y3526424D01*
X2525282Y3516903D01*
X2534804Y3507381D01*
X2544325Y3502620D01*
X2563369D01*
X2572891Y3507381D01*
X2582412Y3516903D01*
X2587173Y3526424D01*
X2662871Y3602599D02*
X2615262Y3535946D01*
X2686676D01*
X2662871Y3602599D02*
Y3502620D01*
X2607493Y2318814D02*
X2602732Y2328336D01*
X2593211Y2337858D01*
X2583689Y2342619D01*
X2564645D01*
X2555124Y2337858D01*
X2545602Y2328336D01*
X2540841Y2318814D01*
X2536080Y2304531D01*
Y2280727D01*
X2540841Y2266444D01*
X2545602Y2256923D01*
X2555124Y2247401D01*
X2564645Y2242640D01*
X2583689D01*
X2593211Y2247401D01*
X2602732Y2256923D01*
X2607493Y2266444D01*
X2645104Y2342619D02*
X2697474D01*
X2668909Y2304531D01*
X2683191D01*
X2692713Y2299771D01*
X2697474Y2295010D01*
X2702235Y2280727D01*
Y2271205D01*
X2697474Y2256923D01*
X2687952Y2247401D01*
X2673670Y2242640D01*
X2659387D01*
X2645104Y2247401D01*
X2640343Y2252162D01*
X2635582Y2261684D01*
X2307773Y3418634D02*
X2303012Y3428156D01*
X2293491Y3437678D01*
X2283969Y3442439D01*
X2264925D01*
X2255404Y3437678D01*
X2245882Y3428156D01*
X2241121Y3418634D01*
X2236360Y3404351D01*
Y3380547D01*
X2241121Y3366264D01*
X2245882Y3356743D01*
X2255404Y3347221D01*
X2264925Y3342460D01*
X2283969D01*
X2293491Y3347221D01*
X2303012Y3356743D01*
X2307773Y3366264D01*
X2340623Y3418634D02*
Y3423395D01*
X2345384Y3432917D01*
X2350145Y3437678D01*
X2359667Y3442439D01*
X2378711D01*
X2388232Y3437678D01*
X2392993Y3432917D01*
X2397754Y3423395D01*
Y3413873D01*
X2392993Y3404351D01*
X2383471Y3390069D01*
X2335862Y3342460D01*
X2402515D01*
X2650673Y233754D02*
X2645912Y243276D01*
X2636391Y252798D01*
X2626869Y257559D01*
X2607825D01*
X2598304Y252798D01*
X2588782Y243276D01*
X2584021Y233754D01*
X2579260Y219471D01*
Y195667D01*
X2584021Y181384D01*
X2588782Y171862D01*
X2598304Y162341D01*
X2607825Y157580D01*
X2626869D01*
X2636391Y162341D01*
X2645912Y171862D01*
X2650673Y181384D01*
X2678762Y238515D02*
X2688284Y243276D01*
X2702567Y257559D01*
Y157580D01*
D54*
X7923000Y7347000D02*
G03*
X7923000Y7347000I-15000J0D01*
G01*
X1050000Y6200000D02*
G03*
X1050000Y6200000I-20000J0D01*
G01*
X2570000Y6971000D02*
G03*
X2570000Y6971000I-20000J0D01*
G01*
X2569999Y6071000D02*
G03*
X2569999Y6071000I-20000J0D01*
G01*
X3167500Y2737500D02*
X6432500Y2737500D01*
X3167500Y2550000D02*
Y2737500D01*
X6432500Y2550000D02*
Y2737500D01*
Y62500D02*
Y250000D01*
X3167500Y62500D02*
X6432500Y62500D01*
X3167500Y62500D02*
Y250000D01*
X8949000Y2687500D02*
X9910000D01*
X8949000Y1712500D02*
X9910000D01*
Y2687500D01*
X8949000Y2620000D02*
Y2687500D01*
Y1712500D02*
Y1780000D01*
X-10000Y1612500D02*
X951000D01*
X-10000Y2587500D02*
X951000D01*
X-10000Y1612500D02*
Y2587500D01*
X951000Y1612500D02*
Y1680000D01*
Y2520000D02*
Y2587500D01*
D55*
X1697880Y5628600D02*
Y5780951D01*
X1748664Y5730167D01*
X1799447Y5780951D01*
Y5628600D01*
X1850231D02*
X1901014D01*
X1875623D01*
Y5780951D01*
X1850231Y5755559D01*
D56*
X5450000Y4472749D02*
D03*
X2950000D02*
D03*
D57*
X7340000Y400000D02*
D03*
D58*
X7455000Y583750D02*
D03*
D59*
Y216250D02*
D03*
D60*
X8183748Y1355001D02*
D03*
D61*
X7816250Y1355000D02*
D03*
D62*
X8000000Y1240000D02*
D03*
%TF.MD5,f8c62cc8418a2205e0a40af003605d3f*%
M02*
