%TF.GenerationSoftware,Altium Limited,Altium Designer,25.1.2 (22)*%
G04 Layer_Color=16711935*
%FSLAX45Y45*%
%MOMM*%
%TF.SameCoordinates,CB1A417E-7DD8-4276-B15B-71DB2DCBA6F7*%
%TF.FilePolarity,Negative*%
%TF.FileFunction,Soldermask,Bot*%
%TF.Part,Single*%
G01*
G75*
%TA.AperFunction,ComponentPad*%
%ADD87O,2.51600X3.67600*%
%TA.AperFunction,ViaPad*%
%ADD88C,10.07600*%
%TA.AperFunction,ComponentPad*%
%ADD89C,2.10000*%
%ADD90C,4.07600*%
%ADD91C,1.60000*%
%ADD92C,0.07600*%
%ADD93C,2.07600*%
G36*
X4294001Y1600000D02*
Y3271499D01*
X4293038Y3291102D01*
X4285389Y3329555D01*
X4270385Y3365778D01*
X4248603Y3398377D01*
X4220880Y3426101D01*
X4188280Y3447883D01*
X4152058Y3462887D01*
X4113604Y3470536D01*
X4094001Y3471499D01*
D01*
X3494001Y3471499D01*
X3461282D01*
X3396160Y3477913D01*
X3331980Y3490679D01*
X3269361Y3509674D01*
X3208905Y3534716D01*
X3151195Y3565563D01*
X3096786Y3601918D01*
X3046202Y3643430D01*
X2999932Y3689701D01*
X2958419Y3740285D01*
X2922064Y3794694D01*
X2891217Y3852404D01*
X2866175Y3912860D01*
X2847180Y3975479D01*
X2834414Y4039659D01*
X2828000Y4104781D01*
Y4137499D01*
X2828000D01*
Y4195500D01*
X3072000D01*
Y4137499D01*
X3072903Y4109899D01*
X3080108Y4055171D01*
X3094395Y4001852D01*
X3115520Y3950853D01*
X3143120Y3903048D01*
X3176724Y3859255D01*
X3215756Y3820222D01*
X3259549Y3786619D01*
X3307354Y3759018D01*
X3358353Y3737894D01*
X3411672Y3723607D01*
X3466400Y3716402D01*
X3494001Y3715499D01*
D01*
X4906000Y3715499D01*
X4933600Y3716403D01*
X4988328Y3723607D01*
X5041647Y3737894D01*
X5092646Y3759019D01*
X5140450Y3786619D01*
X5184244Y3820222D01*
X5223276Y3859255D01*
X5256880Y3903048D01*
X5284480Y3950853D01*
X5305604Y4001851D01*
X5319891Y4055170D01*
X5327096Y4109899D01*
X5328000Y4137499D01*
X5328000D01*
Y4195500D01*
X5572000D01*
X5572000Y4137499D01*
Y4104781D01*
X5565586Y4039659D01*
X5552819Y3975479D01*
X5533824Y3912860D01*
X5508782Y3852404D01*
X5477936Y3794694D01*
X5441581Y3740285D01*
X5400068Y3689701D01*
X5353797Y3643430D01*
X5303214Y3601918D01*
X5248805Y3565563D01*
X5191095Y3534716D01*
X5130639Y3509674D01*
X5068019Y3490679D01*
X5003840Y3477913D01*
X4938718Y3471499D01*
X4905999D01*
X4886396Y3470536D01*
X4847942Y3462887D01*
X4811720Y3447883D01*
X4779120Y3426101D01*
X4751397Y3398377D01*
X4729615Y3365778D01*
X4714611Y3329555D01*
X4706962Y3291102D01*
X4705999Y3271499D01*
D01*
Y2700000D01*
X4706962Y2680397D01*
X4714611Y2641943D01*
X4729615Y2605721D01*
X4751397Y2573121D01*
X4779120Y2545398D01*
X4811720Y2523616D01*
X4847942Y2508612D01*
X4886396Y2500963D01*
X4905999Y2500000D01*
D01*
X6110000Y2500001D01*
X6123165D01*
X6148598Y2493186D01*
X6171401Y2480021D01*
X6190020Y2461402D01*
X6203185Y2438599D01*
X6210000Y2413166D01*
Y2386835D01*
X6203185Y2361402D01*
X6190020Y2338599D01*
X6171401Y2319981D01*
X6148598Y2306816D01*
X6123165Y2300001D01*
X6110000D01*
D01*
X4900000D01*
X4886947Y2299145D01*
X4861732Y2292389D01*
X4839124Y2279336D01*
X4820664Y2260877D01*
X4807612Y2238269D01*
X4800856Y2213053D01*
Y2186948D01*
X4807612Y2161732D01*
X4820664Y2139124D01*
X4839124Y2120665D01*
X4861732Y2107612D01*
X4886947Y2100856D01*
X4900000Y2100001D01*
D01*
X6110000D01*
X6123165D01*
X6148598Y2093186D01*
X6171401Y2080020D01*
X6190020Y2061402D01*
X6203185Y2038599D01*
X6210000Y2013166D01*
Y1986835D01*
X6203185Y1961402D01*
X6190020Y1938599D01*
X6171401Y1919980D01*
X6148598Y1906815D01*
X6123165Y1900001D01*
X6110000D01*
D01*
X4900000D01*
X4886947Y1899145D01*
X4861732Y1892388D01*
X4839124Y1879336D01*
X4820664Y1860876D01*
X4807612Y1838269D01*
X4800856Y1813053D01*
Y1786948D01*
X4807612Y1761732D01*
X4820664Y1739124D01*
X4839124Y1720665D01*
X4861732Y1707612D01*
X4886947Y1700856D01*
X4900000Y1700000D01*
D01*
X6110000D01*
X6123165D01*
X6148598Y1693185D01*
X6171401Y1680020D01*
X6190020Y1661402D01*
X6203185Y1638599D01*
X6210000Y1613165D01*
Y1586835D01*
X6203185Y1561402D01*
X6190020Y1538599D01*
X6171401Y1519980D01*
X6148598Y1506815D01*
X6123165Y1500000D01*
X6110000D01*
D01*
X4900000D01*
X4886947Y1499145D01*
X4861732Y1492388D01*
X4839124Y1479336D01*
X4820664Y1460876D01*
X4807612Y1438268D01*
X4800856Y1413053D01*
Y1386947D01*
X4807612Y1361732D01*
X4820664Y1339124D01*
X4839124Y1320665D01*
X4861732Y1307612D01*
X4886947Y1300856D01*
X4900000Y1300000D01*
D01*
X6110000D01*
X6123165D01*
X6148598Y1293185D01*
X6171401Y1280020D01*
X6190020Y1261402D01*
X6203185Y1238598D01*
X6210000Y1213165D01*
Y1186835D01*
X6203185Y1161402D01*
X6190020Y1138598D01*
X6171401Y1119980D01*
X6148598Y1106815D01*
X6123165Y1100000D01*
X6110000D01*
D01*
X4794001Y1100000D01*
X4761229D01*
X4696246Y1108555D01*
X4632936Y1125519D01*
X4572382Y1150601D01*
X4515620Y1183373D01*
X4463620Y1223273D01*
X4417274Y1269620D01*
X4377374Y1321619D01*
X4344602Y1378381D01*
X4319520Y1438935D01*
X4302556Y1502245D01*
X4294001Y1567228D01*
X4294001Y1600000D01*
Y1600000D01*
D02*
G37*
D87*
X5994000Y4195500D02*
D03*
X5450000D02*
D03*
X4906000D02*
D03*
X3494000D02*
D03*
X2950000D02*
D03*
X2406000D02*
D03*
D88*
X9300000Y600000D02*
D03*
Y7100000D02*
D03*
X600000D02*
D03*
Y600000D02*
D03*
D89*
X6892000Y6673000D02*
D03*
Y6927000D02*
D03*
X7146000Y6673000D02*
D03*
Y6927000D02*
D03*
X7400000Y6673000D02*
D03*
Y6927000D02*
D03*
X7654000Y6673000D02*
D03*
Y6927000D02*
D03*
X7908000Y6673000D02*
D03*
Y6927000D02*
D03*
D90*
X6497000Y4767000D02*
D03*
X1903000D02*
D03*
D91*
X2200000Y450000D02*
D03*
X2200000Y950000D02*
D03*
X2200000Y1550000D02*
D03*
X2200000Y2050000D02*
D03*
X1900000Y2650000D02*
D03*
X1900000Y3150000D02*
D03*
D92*
X9465000Y2200000D02*
D03*
X435000Y2100000D02*
D03*
D93*
X8735000Y1900000D02*
D03*
Y2200000D02*
D03*
Y2500000D02*
D03*
X9035000Y1900000D02*
D03*
Y2200000D02*
D03*
Y2500000D02*
D03*
X1165000Y2400000D02*
D03*
Y2100000D02*
D03*
Y1800000D02*
D03*
X865000Y2400000D02*
D03*
Y2100000D02*
D03*
Y1800000D02*
D03*
%TF.MD5,2e361d34ddb0a271065d553e74cb1c69*%
M02*
