%TF.GenerationSoftware,Altium Limited,Altium Designer,25.1.2 (22)*%
G04 Layer_Color=0*
%FSLAX45Y45*%
%MOMM*%
%TF.SameCoordinates,CB1A417E-7DD8-4276-B15B-71DB2DCBA6F7*%
%TF.FilePolarity,Positive*%
%TF.FileFunction,Plated,1,4,PTH,Drill*%
%TF.Part,Single*%
G01*
G75*
%TA.AperFunction,ComponentDrill*%
%ADD96C,1.80000*%
%TA.AperFunction,OtherDrill,Free Pad (93mm,6mm)*%
%ADD97C,4.20000*%
%TA.AperFunction,OtherDrill,Free Pad (93mm,71mm)*%
%ADD98C,4.20000*%
%TA.AperFunction,OtherDrill,Free Pad (6mm,71mm)*%
%ADD99C,4.20000*%
%TA.AperFunction,OtherDrill,Free Pad (6mm,6mm)*%
%ADD100C,4.20000*%
%TA.AperFunction,ComponentDrill*%
%ADD101C,1.10000*%
%ADD102C,2.67000*%
%ADD103C,0.75000*%
%ADD104C,1.02000*%
%TA.AperFunction,ViaDrill,NotFilled*%
%ADD105C,0.30000*%
D96*
X5994000Y4195500D02*
D03*
X5450000D02*
D03*
X4906000D02*
D03*
X3494000D02*
D03*
X2950000D02*
D03*
X2406000D02*
D03*
D97*
X9300000Y600000D02*
D03*
D98*
Y7100000D02*
D03*
D99*
X600000D02*
D03*
D100*
Y600000D02*
D03*
D101*
X6892000Y6673000D02*
D03*
Y6927000D02*
D03*
X7146000Y6673000D02*
D03*
Y6927000D02*
D03*
X7400000Y6673000D02*
D03*
Y6927000D02*
D03*
X7654000Y6673000D02*
D03*
Y6927000D02*
D03*
X7908000Y6673000D02*
D03*
Y6927000D02*
D03*
D102*
X6497000Y4767000D02*
D03*
X1903000D02*
D03*
D103*
X2200000Y450000D02*
D03*
X2200000Y950000D02*
D03*
X2200000Y1550000D02*
D03*
X2200000Y2050000D02*
D03*
X1900000Y2650000D02*
D03*
X1900000Y3150000D02*
D03*
D104*
X8735000Y1900000D02*
D03*
Y2200000D02*
D03*
Y2500000D02*
D03*
X9035000Y1900000D02*
D03*
Y2200000D02*
D03*
Y2500000D02*
D03*
X1165000Y2400000D02*
D03*
Y2100000D02*
D03*
Y1800000D02*
D03*
X865000Y2400000D02*
D03*
Y2100000D02*
D03*
Y1800000D02*
D03*
D105*
X3150001Y400000D02*
D03*
Y500000D02*
D03*
Y300000D02*
D03*
X3250000Y400000D02*
D03*
Y300000D02*
D03*
Y500000D02*
D03*
X3350000Y400000D02*
D03*
Y500000D02*
D03*
Y300000D02*
D03*
X2900000Y3305000D02*
D03*
X3000000D02*
D03*
X2800000D02*
D03*
X2600000D02*
D03*
X2700000D02*
D03*
X2500000D02*
D03*
X6397500Y400000D02*
D03*
X6297500D02*
D03*
X7079000Y350000D02*
D03*
Y450000D02*
D03*
X7521000Y350000D02*
D03*
Y450000D02*
D03*
X7950000Y979000D02*
D03*
X8050000D02*
D03*
Y1420999D02*
D03*
X7950000D02*
D03*
X8150000Y1980000D02*
D03*
X8250000D02*
D03*
X7800000D02*
D03*
X7900000D02*
D03*
X7450000Y1979999D02*
D03*
X7550000D02*
D03*
X7100000Y1979999D02*
D03*
X7200000D02*
D03*
X2700000Y3505000D02*
D03*
X2500000D02*
D03*
X2600000D02*
D03*
X2500000Y3405000D02*
D03*
X2700000D02*
D03*
X2600000D02*
D03*
Y3605000D02*
D03*
X2700000Y3605000D02*
D03*
X2500000D02*
D03*
X3000000Y3505000D02*
D03*
X2800000D02*
D03*
X2900000D02*
D03*
X2800000Y3405000D02*
D03*
X3000000D02*
D03*
X2900000D02*
D03*
Y3605000D02*
D03*
X2800000Y3605000D02*
D03*
X3550000Y300000D02*
D03*
Y500000D02*
D03*
Y400000D02*
D03*
X3450000Y500000D02*
D03*
Y300000D02*
D03*
Y400000D02*
D03*
X3950000Y300000D02*
D03*
Y500000D02*
D03*
X3950000Y400000D02*
D03*
X3850000Y500000D02*
D03*
Y300000D02*
D03*
Y400000D02*
D03*
X3750000D02*
D03*
Y300000D02*
D03*
Y500000D02*
D03*
X3650000Y400000D02*
D03*
X3650000Y300000D02*
D03*
Y500000D02*
D03*
X5628000Y3200000D02*
D03*
X5828000D02*
D03*
X5728000D02*
D03*
X5628000Y3100000D02*
D03*
X5828000D02*
D03*
X5728000D02*
D03*
X5628000Y3000000D02*
D03*
X5828000D02*
D03*
X5728000D02*
D03*
X5528000Y3200000D02*
D03*
Y3000000D02*
D03*
Y3100000D02*
D03*
X5828000Y2900000D02*
D03*
X5628000D02*
D03*
X5728000D02*
D03*
X5528000Y2700000D02*
D03*
Y2900000D02*
D03*
Y2800000D02*
D03*
X5828000D02*
D03*
X5628000D02*
D03*
X5728000D02*
D03*
X5828000Y2700000D02*
D03*
X5628000D02*
D03*
X5728000D02*
D03*
X6128000Y2900000D02*
D03*
X5928000D02*
D03*
X6028000D02*
D03*
X6128000Y2800000D02*
D03*
X5928000D02*
D03*
X6028000D02*
D03*
X6128000Y2700000D02*
D03*
X5928000D02*
D03*
X6028000D02*
D03*
Y3000000D02*
D03*
X5928000D02*
D03*
X6128000D02*
D03*
X5928000Y3100000D02*
D03*
Y3200000D02*
D03*
X6128000Y3100000D02*
D03*
X6028000D02*
D03*
X6128000Y3200000D02*
D03*
X6028000D02*
D03*
X3460000Y3200000D02*
D03*
X3360000D02*
D03*
X3460000Y3100000D02*
D03*
X3360000D02*
D03*
X3560000Y3200000D02*
D03*
Y3100000D02*
D03*
X3360000Y3000000D02*
D03*
X3560000D02*
D03*
X3460000D02*
D03*
Y2700000D02*
D03*
X3560000D02*
D03*
X3360000D02*
D03*
X3460000Y2800000D02*
D03*
X3560000D02*
D03*
X3360000D02*
D03*
X3460000Y2900000D02*
D03*
X3560000D02*
D03*
X3360000D02*
D03*
X3760000Y2700000D02*
D03*
X3860000D02*
D03*
X3660000D02*
D03*
X3760000Y2800000D02*
D03*
X3860000D02*
D03*
X3660000D02*
D03*
X3960000D02*
D03*
Y2900000D02*
D03*
Y2700000D02*
D03*
X3760000Y2900000D02*
D03*
X3860000D02*
D03*
X3660000D02*
D03*
X3960000Y3100000D02*
D03*
Y3000000D02*
D03*
Y3200000D02*
D03*
X3760000Y3000000D02*
D03*
X3660000D02*
D03*
X3860000D02*
D03*
X3760000Y3100000D02*
D03*
X3660000D02*
D03*
X3860000D02*
D03*
X3760000Y3200000D02*
D03*
X3660000D02*
D03*
X3860000D02*
D03*
X5002470Y6160477D02*
D03*
X3252500Y2400000D02*
D03*
X4200000Y6020000D02*
D03*
X1010000Y4800000D02*
D03*
X7462500Y5797500D02*
D03*
X6955000Y5800000D02*
D03*
X6955000Y5650000D02*
D03*
X1010000Y6200000D02*
D03*
X2356000Y5150000D02*
D03*
X2456000D02*
D03*
X4856000Y5150000D02*
D03*
X4956000D02*
D03*
X3573735Y6010238D02*
D03*
X3918735Y5530239D02*
D03*
X4018735D02*
D03*
X3668735Y5530239D02*
D03*
X3768735D02*
D03*
X3518735Y5537739D02*
D03*
X3018735Y5520239D02*
D03*
X3118734D02*
D03*
X3268735D02*
D03*
X3368735D02*
D03*
X2509499Y6780000D02*
D03*
X2636500Y6780000D02*
D03*
X2763500Y6780000D02*
D03*
X2890500D02*
D03*
Y5880000D02*
D03*
X2763500D02*
D03*
X2636500D02*
D03*
X2509500D02*
D03*
X7150000Y5255000D02*
D03*
X7300000D02*
D03*
X7500000D02*
D03*
X7650000D02*
D03*
X9100000Y5650000D02*
D03*
X9350000Y5604999D02*
D03*
X5844999Y6240000D02*
D03*
X5845000Y5800000D02*
D03*
Y6020000D02*
D03*
X5368735Y6372739D02*
D03*
Y6487738D02*
D03*
X4668735Y5625239D02*
D03*
X4518735Y5625239D02*
D03*
X4818735Y5625239D02*
D03*
X4968735Y5625239D02*
D03*
X5118735Y5625239D02*
D03*
X4887470Y6160477D02*
D03*
X4787470D02*
D03*
X4750000Y5860000D02*
D03*
X5000000Y7050000D02*
D03*
X4950000Y6700000D02*
D03*
X4850000D02*
D03*
X4900000Y7050000D02*
D03*
X4600000D02*
D03*
X4650000Y6700000D02*
D03*
X4700000Y7050000D02*
D03*
X4750000Y6700000D02*
D03*
X4800000Y7050000D02*
D03*
X3735000Y6535000D02*
D03*
X4168735Y6372739D02*
D03*
X3900000Y7555000D02*
D03*
X5100000Y7555000D02*
D03*
X4168735Y6487739D02*
D03*
X3518735Y5422739D02*
D03*
X4018735Y5230238D02*
D03*
X3918735D02*
D03*
X3768735D02*
D03*
X3668735D02*
D03*
X3368735Y5240239D02*
D03*
X3268735D02*
D03*
X3118734D02*
D03*
X3018735D02*
D03*
X7200000Y2420000D02*
D03*
X7100000D02*
D03*
X7550000Y2419999D02*
D03*
X7450000D02*
D03*
X7900000Y2420000D02*
D03*
X7800000D02*
D03*
X8250000D02*
D03*
X8150000D02*
D03*
X8050000Y5010000D02*
D03*
X7950000D02*
D03*
X8300000Y5010001D02*
D03*
X8200000D02*
D03*
X8450000Y5010000D02*
D03*
X8550000D02*
D03*
X7800000Y5642500D02*
D03*
X6845000Y5650000D02*
D03*
X7067500Y5667500D02*
D03*
X6845000Y5800000D02*
D03*
X3668735Y6010239D02*
D03*
X3763735Y6010238D02*
D03*
X6447500Y2250000D02*
D03*
X6247500D02*
D03*
X6347500D02*
D03*
X6447500Y2150000D02*
D03*
X6247500D02*
D03*
X6347500D02*
D03*
X6447500Y1850000D02*
D03*
X6247500D02*
D03*
X6347500D02*
D03*
X6447500Y1750000D02*
D03*
X6247500D02*
D03*
X6347500D02*
D03*
X6447500Y1450000D02*
D03*
X6247500D02*
D03*
X6347500D02*
D03*
X6447500Y1350000D02*
D03*
X6247500D02*
D03*
X6347500D02*
D03*
Y1250000D02*
D03*
X6247500D02*
D03*
X6447500D02*
D03*
X6347500Y1150000D02*
D03*
X6447500D02*
D03*
X6247500D02*
D03*
X6347500Y1650000D02*
D03*
X6247500D02*
D03*
X6447500D02*
D03*
X6347500Y1550000D02*
D03*
X6447500D02*
D03*
X6247500D02*
D03*
X6347500Y2050000D02*
D03*
X6247500D02*
D03*
X6447500D02*
D03*
X6347500Y1950000D02*
D03*
X6447500D02*
D03*
X6247500D02*
D03*
Y2350000D02*
D03*
X6447500D02*
D03*
X6347500D02*
D03*
X6447500Y2450000D02*
D03*
X6247500D02*
D03*
X6347500D02*
D03*
X2742500Y6600000D02*
D03*
X2509500Y6420000D02*
D03*
X2857499Y6600000D02*
D03*
X2857500Y7500000D02*
D03*
X2742500D02*
D03*
X2509500Y7320000D02*
D03*
X725000Y5400000D02*
D03*
X825000D02*
D03*
X725000Y6000000D02*
D03*
X825000D02*
D03*
X170000Y6434999D02*
D03*
X270000D02*
D03*
X169999Y4565000D02*
D03*
X269999D02*
D03*
X350000Y3974600D02*
D03*
X1155882Y3089562D02*
D03*
Y3189562D02*
D03*
X1155882Y3329562D02*
D03*
Y3429562D02*
D03*
X875881Y3089562D02*
D03*
Y3189562D02*
D03*
X875881Y3329562D02*
D03*
Y3429562D02*
D03*
X685882Y3329562D02*
D03*
Y3429562D02*
D03*
Y3079562D02*
D03*
Y3179561D02*
D03*
X405882Y3079562D02*
D03*
Y3179562D02*
D03*
Y3429562D02*
D03*
X983382Y3649562D02*
D03*
X868382D02*
D03*
X703381Y3679562D02*
D03*
X545881Y3845562D02*
D03*
X725881Y3845562D02*
D03*
X710882Y4359562D02*
D03*
X713381Y4239561D02*
D03*
X455881Y3864562D02*
D03*
X405882Y3329562D02*
D03*
X700882Y3559562D02*
D03*
X588382Y3679562D02*
D03*
%TF.MD5,a39e2927b302a1ea50a78836a4e1b429*%
M02*
